<svg width="144" height="144" viewBox="0 0 144 144" fill="none" xmlns="http://www.w3.org/2000/svg">
<circle cx="72" cy="72" r="72" fill="#FF4F12"/>
<mask id="mask0_406_40570" style="mask-type:alpha" maskUnits="userSpaceOnUse" x="0" y="0" width="144" height="144">
<circle cx="72" cy="72" r="72" fill="#FF4F12"/>
</mask>
<g mask="url(#mask0_406_40570)">
<path d="M50.6152 124.305V174.794L70.1763 163.559V113.203L50.6152 124.305Z" fill="#F6F6F6" stroke="#575D68" stroke-width="0.4" stroke-miterlimit="10"/>
<path d="M66.3434 132.633C65.6825 137.655 62.6427 141.356 59.6028 141.092C56.6951 140.827 54.7125 137.126 55.109 132.501C55.5055 127.742 58.2811 123.513 61.4532 123.381C64.7574 123.117 67.0042 127.346 66.3434 132.633Z" fill="#F6F6F6" stroke="#575D68" stroke-width="0.4" stroke-miterlimit="10"/>
<path d="M50.6157 174.794L24.0498 159.462V110.824L50.6157 124.305V174.794Z" fill="#F6F6F6" stroke="#575D68" stroke-width="0.4" stroke-miterlimit="10"/>
<path d="M118.152 85.5794V136.2L137.713 124.966V74.6094L118.152 85.5794Z" fill="#F6F6F6" stroke="#575D68" stroke-width="0.4" stroke-miterlimit="10"/>
<path d="M133.88 94.0389C133.22 99.0614 130.18 102.762 127.14 102.498C124.232 102.233 122.25 98.5327 122.646 93.9068C123.043 89.1487 125.818 84.9193 128.99 84.7871C132.295 84.5228 134.541 88.7522 133.88 94.0389Z" fill="#F6F6F6" stroke="#575D68" stroke-width="0.4" stroke-miterlimit="10"/>
<path d="M118.153 136.199L91.5869 120.868V72.0977L118.153 85.579V136.199Z" fill="#F6F6F6" stroke="#575D68" stroke-width="0.4" stroke-miterlimit="10"/>
<path d="M123.44 112.278L135.071 105.67" stroke="#575D68" stroke-width="0.4" stroke-miterlimit="10"/>
<path d="M123.44 114.657L135.071 107.916" stroke="#575D68" stroke-width="0.4" stroke-miterlimit="10"/>
<path d="M123.44 116.905L135.071 110.164" stroke="#575D68" stroke-width="0.4" stroke-miterlimit="10"/>
<path d="M123.44 119.151L135.071 112.543" stroke="#575D68" stroke-width="0.4" stroke-miterlimit="10"/>
<path d="M123.44 121.53L135.071 114.789" stroke="#575D68" stroke-width="0.4" stroke-miterlimit="10"/>
<path d="M123.44 123.778L135.071 117.037" stroke="#575D68" stroke-width="0.4" stroke-miterlimit="10"/>
<path d="M123.44 126.022L135.071 119.414" stroke="#575D68" stroke-width="0.4" stroke-miterlimit="10"/>
<path d="M123.44 128.272L135.071 121.664" stroke="#575D68" stroke-width="0.4" stroke-miterlimit="10"/>
<path d="M-46 131.044L-3.17734 155.892L208.028 35.3543L166.263 10.6387L-46 131.044Z" fill="#F6F6F6" stroke="#575D68" stroke-width="0.4" stroke-miterlimit="10"/>
<path d="M-3.17773 155.893V162.502L207.763 40.7743L208.028 35.3555L-3.17773 155.893Z" fill="#F6F6F6" stroke="#575D68" stroke-width="0.4" stroke-miterlimit="10"/>
<path d="M39.249 179.552C41.3637 178.891 43.0819 178.098 44.5358 177.173V138.447L39.249 141.619V179.552Z" fill="#F6F6F6" stroke="#575D68" stroke-width="0.4" stroke-miterlimit="10"/>
<path d="M26.0322 143.866V153.25C26.0322 154.572 27.3539 155.365 28.5435 154.704L52.9947 141.091C53.6555 140.694 54.0521 140.033 54.0521 139.372V128.931C54.0521 127.345 52.3338 126.42 51.0121 127.213L28.2792 140.43C26.8253 140.958 26.0322 142.412 26.0322 143.866Z" fill="#F6F6F6" stroke="#575D68" stroke-width="0.4" stroke-miterlimit="10"/>
<path d="M52.3331 128.139L29.6002 141.356C28.2785 142.149 27.4854 143.47 27.4854 144.924V154.308" fill="#F6F6F6"/>
<path d="M52.3331 128.139L29.6002 141.356C28.2785 142.149 27.4854 143.47 27.4854 144.924V154.308" stroke="#575D68" stroke-width="0.4" stroke-miterlimit="10"/>
<path d="M-6.2168 139.503V138.049L21.5386 122.057L30.9227 126.947C31.0549 127.079 31.187 127.211 31.187 127.476V128.533C31.187 128.929 30.9226 129.326 30.6583 129.458L4.09242 144.922C3.69591 145.186 3.16724 145.186 2.77073 144.922L-6.2168 139.503Z" fill="#F6F6F6" stroke="#575D68" stroke-width="0.4" stroke-miterlimit="10"/>
<path d="M-5.82029 136.992L21.1421 121.396C21.4065 121.264 21.6708 121.264 21.9351 121.396L30.7904 126.551C31.319 126.947 31.319 127.74 30.7904 128.004L3.82808 143.6C3.56375 143.732 3.29928 143.732 3.03494 143.6L-5.82029 138.446C-6.34897 138.181 -6.34897 137.388 -5.82029 136.992Z" fill="#F6F6F6" stroke="#575D68" stroke-width="0.4" stroke-miterlimit="10"/>
<path d="M32.5083 119.68L37.3985 122.455C37.9272 122.72 38.5881 122.72 39.1168 122.455L41.628 121.134C42.5532 120.605 42.9497 119.283 42.1567 118.49C41.7602 117.961 41.2315 117.565 40.4384 117.301C39.2489 116.904 37.5308 116.64 36.3412 116.508C35.2839 116.375 34.2265 116.64 33.4334 117.301L32.5083 117.962C31.8475 118.226 31.8475 119.283 32.5083 119.68Z" fill="#F6F6F6" stroke="#575D68" stroke-width="0.4" stroke-miterlimit="10"/>
<path d="M33.4336 117.168L36.4735 118.093" stroke="#575D68" stroke-width="0.4" stroke-miterlimit="10"/>
<path d="M-2.64819 124.438C3.19138 124.438 7.92529 121.42 7.92529 117.698C7.92529 113.975 3.19138 110.957 -2.64819 110.957C-8.48777 110.957 -13.2217 113.975 -13.2217 117.698C-13.2217 121.42 -8.48777 124.438 -2.64819 124.438Z" fill="#F6F6F6" stroke="#575D68" stroke-width="0.4" stroke-miterlimit="10"/>
<path d="M66.7405 83.3327C72.5801 83.3327 77.314 80.3149 77.314 76.5921C77.314 72.8694 72.5801 69.8516 66.7405 69.8516C60.9009 69.8516 56.167 72.8694 56.167 76.5921C56.167 80.3149 60.9009 83.3327 66.7405 83.3327Z" fill="#F6F6F6" stroke="#575D68" stroke-width="0.4" stroke-miterlimit="10"/>
<path d="M142.605 39.0573C148.444 39.0573 153.178 36.0395 153.178 32.3167C153.178 28.594 148.444 25.5762 142.605 25.5762C136.765 25.5762 132.031 28.594 132.031 32.3167C132.031 36.0395 136.765 39.0573 142.605 39.0573Z" fill="#F6F6F6" stroke="#575D68" stroke-width="0.4" stroke-miterlimit="10"/>
<path d="M37.7952 51.7446L37.6631 89.1483L40.5707 91.9238L88.2836 61.2608L89.7375 22.7998C88.0194 21.7424 85.7724 21.6101 84.0542 22.6675L39.9099 48.1761C38.5882 48.8369 37.7952 50.1585 37.7952 51.7446Z" fill="#F6F6F6" stroke="#575D68" stroke-width="0.4" stroke-miterlimit="10"/>
<path d="M40.5703 51.877V91.1311C40.5703 91.3954 40.8347 91.6598 41.099 91.5276L89.0763 64.1686C89.4728 63.9043 89.6048 63.64 89.6048 63.2435V23.4608C89.6048 23.1965 89.3406 23.0642 89.0763 23.1964L41.099 50.9518C40.8347 50.9518 40.5703 51.3484 40.5703 51.877Z" fill="#F6F6F6" stroke="#575D68" stroke-width="0.4" stroke-miterlimit="10"/>
<path d="M89.6061 24.9141L42.8185 52.0086C42.2899 52.273 42.0254 52.8016 42.0254 53.4625V90.8662" fill="#F6F6F6"/>
<path d="M89.6061 24.9141L42.8185 52.0086C42.2899 52.273 42.0254 52.8016 42.0254 53.4625V90.8662" stroke="#575D68" stroke-width="0.4" stroke-miterlimit="10"/>
<path d="M56.8281 99.9872V98.5334L84.5835 82.541L93.9675 87.4312C94.0996 87.5634 94.2317 87.6956 94.2317 87.9599V89.0173C94.2317 89.4138 93.9675 89.8103 93.7032 89.9424L67.1372 105.406C66.7407 105.671 66.212 105.671 65.8155 105.406L56.8281 99.9872Z" fill="#F6F6F6" stroke="#575D68" stroke-width="0.4" stroke-miterlimit="10"/>
<path d="M57.2246 97.4763L84.1871 81.8804C84.4514 81.7482 84.7157 81.7482 84.98 81.8804L93.8354 87.035C94.3641 87.4315 94.3641 88.2245 93.8354 88.4888L66.873 104.085C66.6087 104.217 66.3444 104.217 66.08 104.085L57.2246 98.9302C56.696 98.5337 56.696 97.7407 57.2246 97.4763Z" fill="#F6F6F6" stroke="#575D68" stroke-width="0.4" stroke-miterlimit="10"/>
<path d="M90.5303 74.4766L95.4205 77.2521C95.9492 77.5165 96.6101 77.5165 97.1387 77.2521L99.65 75.9304C100.575 75.4018 100.972 74.0801 100.179 73.2871C99.782 72.7584 99.2534 72.3618 98.4604 72.0975C97.2709 71.701 95.5527 71.4367 94.3632 71.3045C93.3059 71.1724 92.2484 71.4367 91.4554 72.0975L90.5303 72.7584C89.7373 73.0227 89.7373 74.0801 90.5303 74.4766Z" fill="#F6F6F6" stroke="#575D68" stroke-width="0.4" stroke-miterlimit="10"/>
<path d="M91.3232 71.9648L94.4953 72.7578" stroke="#575D68" stroke-width="0.4" stroke-miterlimit="10"/>
<path d="M112.471 6.80705L112.339 44.2108L115.247 46.9863L162.959 16.3233L164.413 -22.1377C162.695 -23.1951 160.448 -23.3274 158.73 -22.27L114.586 3.23856C113.264 3.89941 112.471 5.22103 112.471 6.80705Z" fill="#F6F6F6" stroke="#575D68" stroke-width="0.4" stroke-miterlimit="10"/>
<path d="M115.246 6.93954V46.1936C115.246 46.4579 115.51 46.7223 115.775 46.5901L163.752 19.2311C164.149 18.9668 164.281 18.7025 164.281 18.306V-21.4767C164.281 -21.741 164.016 -21.8733 163.752 -21.7411L115.775 6.01427C115.51 6.01427 115.246 6.54304 115.246 6.93954Z" fill="#F6F6F6" stroke="#575D68" stroke-width="0.4" stroke-miterlimit="10"/>
<path d="M164.413 -20.0215L117.625 7.07308C117.096 7.33742 116.832 7.86606 116.832 8.52691V45.9307" fill="#F6F6F6"/>
<path d="M164.413 -20.0215L117.625 7.07308C117.096 7.33742 116.832 7.86606 116.832 8.5269V45.9307" stroke="#575D68" stroke-width="0.4" stroke-miterlimit="10"/>
<path d="M132.957 55.8428V54.3889L160.712 38.3965L170.096 43.2868C170.229 43.419 170.361 43.551 170.361 43.8154V44.8728C170.361 45.2693 170.096 45.6657 169.832 45.7979L143.266 61.2617C142.87 61.5261 142.341 61.5261 141.945 61.2617L132.957 55.8428Z" fill="#F6F6F6" stroke="#575D68" stroke-width="0.4" stroke-miterlimit="10"/>
<path d="M133.354 53.199L160.316 37.603C160.58 37.4709 160.845 37.4709 161.109 37.603L169.964 42.7576C170.493 43.1541 170.493 43.9471 169.964 44.2115L143.002 59.8074C142.737 59.9396 142.473 59.9396 142.209 59.8074L133.354 54.6528C132.825 54.3885 132.825 53.5955 133.354 53.199Z" fill="#F6F6F6" stroke="#575D68" stroke-width="0.4" stroke-miterlimit="10"/>
<path d="M-31.7263 92.7172L-31.8584 130.121L-28.9508 132.896L18.7621 102.233L20.2159 63.7724C18.4977 62.7151 16.2509 62.5828 14.5327 63.6401L-29.6116 89.1487C-30.9333 89.8096 -31.7263 91.2634 -31.7263 92.7172Z" fill="#F6F6F6" stroke="#575D68" stroke-width="0.4" stroke-miterlimit="10"/>
<path d="M-28.8184 92.9825V132.237C-28.8184 132.501 -28.554 132.765 -28.2897 132.633L19.6876 105.274C20.0841 105.01 20.2162 104.745 20.2162 104.349V64.5663C20.2162 64.3019 19.952 64.1697 19.6876 64.3018L-28.2897 92.0572C-28.554 92.0572 -28.8184 92.4538 -28.8184 92.9825Z" fill="#F6F6F6" stroke="#575D68" stroke-width="0.4" stroke-miterlimit="10"/>
<path d="M20.2164 65.8867L-26.5711 92.9813C-27.0998 93.2456 -27.3643 93.7743 -27.3643 94.4351V131.839" fill="#F6F6F6"/>
<path d="M20.2164 65.8867L-26.5711 92.9813C-27.0998 93.2456 -27.3643 93.7743 -27.3643 94.4351V131.839" stroke="#575D68" stroke-width="0.4" stroke-miterlimit="10"/>
<path d="M120.4 104.743L112.47 99.7207L106.522 100.249C104.011 100.514 102.028 102.1 101.235 104.479C101.103 105.007 101.103 105.668 101.235 106.197L108.505 128.534C108.901 129.591 107.976 130.648 106.919 130.516L100.046 130.119C98.8563 131.838 99.5172 134.217 101.368 135.142L107.447 137.785C110.091 138.975 113.131 139.107 115.906 138.182C116.699 137.917 117.228 136.992 116.963 136.199L115.51 131.705L116.171 116.242L125.29 117.299L120.4 104.743Z" fill="#DDDEDF" stroke="#575D68" stroke-width="0.4" stroke-miterlimit="10"/>
<path fill-rule="evenodd" clip-rule="evenodd" d="M113.661 140.96L110.886 145.851C110.886 145.851 110.093 145.322 109.696 145.058C109.036 144.529 108.507 143.604 108.507 142.546C108.507 140.96 109.564 139.639 110.886 139.639C111.15 139.639 111.415 139.639 111.679 139.771C112.736 140.167 113.661 140.96 113.661 140.96Z" fill="#F6F6F6" stroke="#575D68" stroke-width="0.4" stroke-miterlimit="10"/>
<path fill-rule="evenodd" clip-rule="evenodd" d="M141.548 140.96C141.548 140.96 140.623 140.167 139.698 139.771C139.434 139.639 139.169 139.639 138.905 139.639C137.716 139.639 136.658 140.828 136.526 142.282L125.292 148.758L114.85 142.679C114.586 141.621 113.793 140.828 112.736 140.696C111.414 140.564 110.224 141.886 110.092 143.472C109.96 145.058 111.018 146.512 112.339 146.512C112.736 146.512 113.132 146.379 113.529 146.247L121.459 150.873L110.225 157.349L113.925 159.464L125.159 152.988L136.394 159.464L140.095 157.217L128.86 150.741L138.244 145.19C138.641 145.851 139.302 146.379 140.095 146.379C141.416 146.512 142.606 145.19 142.738 143.604C142.87 142.546 142.341 141.489 141.548 140.96Z" fill="#F6F6F6" stroke="#575D68" stroke-width="0.4" stroke-miterlimit="10"/>
<path fill-rule="evenodd" clip-rule="evenodd" d="M138.376 144.926C138.244 144.529 138.112 144.001 138.244 143.472C138.376 141.886 139.566 140.564 140.888 140.697" fill="#F6F6F6"/>
<path d="M138.376 144.926C138.244 144.529 138.112 144.001 138.244 143.472C138.376 141.886 139.566 140.564 140.888 140.697" stroke="#575D68" stroke-width="0.4" stroke-miterlimit="10"/>
<path fill-rule="evenodd" clip-rule="evenodd" d="M113.529 146.116C113 145.72 113 144.53 113.132 144.134C113.396 143.076 114.189 142.68 114.718 142.68" fill="#F6F6F6"/>
<path d="M113.529 146.116C113 145.72 113 144.53 113.132 144.134C113.396 143.076 114.189 142.68 114.718 142.68" stroke="#575D68" stroke-width="0.4" stroke-miterlimit="10"/>
<path d="M122.119 150.739V129.328C122.119 127.742 123.441 126.42 125.159 126.42H125.423C127.009 126.42 128.463 127.61 128.463 129.196V129.328V150.607V150.739C128.463 151.135 128.067 151.532 127.538 151.796C127.009 152.061 126.216 152.193 125.291 152.193C124.498 152.193 123.705 152.061 123.176 151.796C122.516 151.4 122.251 151.135 122.119 150.739Z" fill="#F6F6F6" stroke="#575D68" stroke-width="0.4" stroke-miterlimit="10"/>
<path d="M148.024 124.042C148.024 129.725 137.847 134.351 125.291 134.351C112.735 134.351 102.558 129.725 102.558 124.042C102.558 122.588 102.69 119.416 102.69 119.416C102.69 119.416 115.907 113.732 125.291 113.732C132.956 113.732 148.024 120.473 148.024 120.473C148.024 120.473 148.024 121.927 148.024 124.042Z" fill="#F6F6F6" stroke="#575D68" stroke-width="0.4" stroke-miterlimit="10"/>
<path d="M125.291 130.78C137.846 130.78 148.024 126.165 148.024 120.471C148.024 114.778 137.846 110.162 125.291 110.162C112.735 110.162 102.558 114.778 102.558 120.471C102.558 126.165 112.735 130.78 125.291 130.78Z" fill="#F6F6F6" stroke="#575D68" stroke-width="0.4" stroke-miterlimit="10"/>
<path d="M82.3361 104.742C82.3361 104.742 80.618 100.777 84.4509 94.8298C86.9621 90.7326 92.9095 87.5605 92.9095 87.5605L94.2312 92.5829L82.3361 104.742Z" fill="#F6F6F6" stroke="#575D68" stroke-width="0.4" stroke-miterlimit="10"/>
<path d="M114.321 80.1597C114.321 80.1597 107.316 78.1772 104.276 76.0626C101.236 73.8157 98.4605 73.8157 96.478 73.5513C95.5528 73.4191 94.4954 73.8157 93.5702 74.2122C92.7772 74.6087 92.6451 75.7982 93.4381 76.1947C94.3633 76.7234 95.2884 77.2521 96.0814 77.7808C98.9892 79.6312 102.69 80.5563 104.276 81.7459C106.787 83.7284 111.017 85.7109 111.017 85.7109" fill="#F6F6F6"/>
<path d="M114.321 80.1597C114.321 80.1597 107.316 78.1772 104.276 76.0626C101.236 73.8157 98.4605 73.8157 96.478 73.5513C95.5528 73.4191 94.4954 73.8157 93.5702 74.2122C92.7772 74.6087 92.6451 75.7982 93.4381 76.1947C94.3633 76.7234 95.2884 77.2521 96.0814 77.7808C98.9892 79.6312 102.69 80.5563 104.276 81.7459C106.787 83.7284 111.017 85.7109 111.017 85.7109" stroke="#575D68" stroke-width="0.4" stroke-miterlimit="10"/>
<path d="M114.189 106.329C114.057 106.197 113.793 106.197 113.528 106.197C112.603 106.065 111.678 106.329 110.62 106.594C104.673 107.915 98.1966 105.008 92.3812 106.99C91.456 107.255 90.5307 107.783 90.1342 108.576C89.7377 109.105 89.6056 109.898 89.4734 110.559C88.9447 114.392 90.2665 117.564 91.0595 121.132C91.7203 124.172 92.2489 127.212 92.9097 130.12C93.8349 134.613 94.7601 139.107 95.5531 143.601L87.623 143.072C86.4335 144.791 87.0943 147.169 88.9447 148.095L95.0246 150.738C97.6679 151.928 100.708 152.06 103.483 151.135C104.276 150.87 104.805 149.945 104.541 149.152L103.087 144.658L100.84 118.753L125.159 126.683C124.762 126.551 123.969 124.569 123.837 124.172C122.78 122.19 121.722 120.339 120.665 118.357C119.476 116.11 118.286 113.863 116.965 111.616C116.304 110.162 115.775 107.122 114.189 106.329Z" fill="#DDDEDF" stroke="#575D68" stroke-width="0.4" stroke-miterlimit="10"/>
<path d="M114.189 106.329C114.057 106.197 113.793 106.197 113.528 106.197C112.603 106.065 111.678 106.329 110.62 106.594C104.673 107.915 98.1966 105.008 92.3812 106.99C91.456 107.255 90.5307 107.783 90.1342 108.576C89.7377 109.105 89.6056 109.898 89.4734 110.559C88.9447 114.392 90.2665 117.564 91.0595 121.132C91.7203 124.172 92.2489 127.212 92.9097 130.12C93.8349 134.613 94.7601 139.107 95.5531 143.601L87.623 143.072C86.4335 144.791 87.0943 147.169 88.9447 148.095L95.0246 150.738C97.6679 151.928 100.708 152.06 103.483 151.135C104.276 150.87 104.805 149.945 104.541 149.152L103.087 144.658L100.84 118.753L125.159 126.683C124.762 126.551 123.969 124.569 123.837 124.172C122.78 122.19 121.722 120.339 120.665 118.357C119.476 116.11 118.286 113.863 116.965 111.616C116.304 110.162 115.775 107.122 114.189 106.329Z" fill="url(#paint0_linear_406_40570)"/>
<path d="M100.84 118.753C100.18 119.15 117.89 127.609 118.551 128.005C122.516 129.855 127.935 128.534 130.182 128.005C134.676 126.948 138.773 124.172 138.905 119.414C139.037 114.259 137.055 109.237 135.337 104.479C132.165 95.7558 129.653 86.9006 128.332 77.6488C127.935 75.4019 127.671 73.0229 126.481 71.1725C124.499 68.0005 120.269 66.6788 116.436 66.6788C115.379 64.0354 116.965 59.4095 117.097 56.5018C117.229 54.255 116.701 51.7437 115.247 50.0255C113.925 48.4395 111.943 47.6464 110.092 46.9856C109.167 46.5891 108.11 46.1926 107.052 46.3248C104.541 46.5891 100.84 48.5716 100.047 50.9507C99.2545 52.9332 99.1223 53.7263 99.5188 55.841C99.6509 56.8983 100.444 57.0305 100.576 57.9557C100.708 59.1452 100.048 59.6738 99.9153 60.7312C99.7832 62.978 101.237 68.7935 103.352 69.7187C105.466 70.6439 108.242 70.2474 109.696 68.397C106.92 73.8159 99.7832 76.1949 95.2894 80.4243C90.5314 85.0502 89.0776 92.1872 85.1125 97.3418C84.3195 98.5313 83.2621 99.4566 82.6013 100.778C81.9404 101.968 81.676 103.554 82.3369 104.876C82.6012 105.272 82.8656 105.668 83.2621 105.933C83.6586 106.065 84.0552 106.197 84.4517 106.197C89.8706 106.462 94.7608 101.307 98.4615 98.0027C99.651 96.9453 103.087 92.8482 104.673 94.1699C105.466 94.8307 105.863 98.0027 106.392 99.0601C107.185 100.778 107.978 102.497 109.035 104.083C109.564 104.876 110.092 105.801 109.828 106.726" fill="#F6F6F6"/>
<path d="M100.84 118.753C100.18 119.15 117.89 127.609 118.551 128.005C122.516 129.855 127.935 128.534 130.182 128.005C134.676 126.948 138.773 124.172 138.905 119.414C139.037 114.259 137.055 109.237 135.337 104.479C132.165 95.7558 129.653 86.9006 128.332 77.6488C127.935 75.4019 127.671 73.0229 126.481 71.1725C124.499 68.0005 120.269 66.6788 116.436 66.6788C115.379 64.0354 116.965 59.4095 117.097 56.5018C117.229 54.255 116.701 51.7437 115.247 50.0255C113.925 48.4395 111.943 47.6464 110.092 46.9856C109.167 46.5891 108.11 46.1926 107.052 46.3248C104.541 46.5891 100.84 48.5716 100.047 50.9507C99.2545 52.9332 99.1223 53.7263 99.5188 55.841C99.6509 56.8983 100.444 57.0305 100.576 57.9557C100.708 59.1452 100.048 59.6738 99.9153 60.7312C99.7832 62.978 101.237 68.7935 103.352 69.7187C105.466 70.6439 108.242 70.2474 109.696 68.397C106.92 73.8159 99.7832 76.1949 95.2894 80.4243C90.5314 85.0502 89.0776 92.1872 85.1125 97.3418C84.3195 98.5313 83.2621 99.4566 82.6013 100.778C81.9404 101.968 81.676 103.554 82.3369 104.876C82.6012 105.272 82.8656 105.668 83.2621 105.933C83.6586 106.065 84.0552 106.197 84.4517 106.197C89.8706 106.462 94.7608 101.307 98.4615 98.0026C99.651 96.9453 103.087 92.8482 104.673 94.1699C105.466 94.8307 105.863 98.0027 106.392 99.0601C107.185 100.778 107.978 102.497 109.035 104.083C109.564 104.876 110.092 105.801 109.828 106.726" stroke="#575D68" stroke-width="0.4" stroke-miterlimit="10"/>
<path d="M100.84 118.753C100.18 119.15 117.89 127.609 118.551 128.005C122.516 129.855 127.935 128.534 130.182 128.005C134.676 126.948 138.773 124.172 138.905 119.414C139.037 114.259 137.055 109.237 135.337 104.479C132.165 95.7558 129.653 86.9006 128.332 77.6488C127.935 75.4019 127.671 73.0229 126.481 71.1725C124.499 68.0005 120.269 66.6788 116.436 66.6788C115.379 64.0354 116.965 59.4095 117.097 56.5018C117.229 54.255 116.701 51.7437 115.247 50.0255C113.925 48.4395 111.943 47.6464 110.092 46.9856C109.167 46.5891 108.11 46.1926 107.052 46.3248C104.541 46.5891 100.84 48.5716 100.047 50.9507C99.2545 52.9332 99.1223 53.7263 99.5188 55.841C99.6509 56.8983 100.444 57.0305 100.576 57.9557C100.708 59.1452 100.048 59.6738 99.9153 60.7312C99.7832 62.978 101.237 68.7935 103.352 69.7187C105.466 70.6439 108.242 70.2474 109.696 68.397C106.92 73.8159 99.7832 76.1949 95.2894 80.4243C90.5314 85.0502 89.0776 92.1872 85.1125 97.3418C84.3195 98.5313 83.2621 99.4566 82.6013 100.778C81.9404 101.968 81.676 103.554 82.3369 104.876C82.6012 105.272 82.8656 105.668 83.2621 105.933C83.6586 106.065 84.0552 106.197 84.4517 106.197C89.8706 106.462 94.7608 101.307 98.4615 98.0027C99.651 96.9453 103.087 92.8482 104.673 94.1699C105.466 94.8307 105.863 98.0027 106.392 99.0601C107.185 100.778 107.978 102.497 109.035 104.083C109.564 104.876 110.092 105.801 109.828 106.726" fill="url(#paint1_linear_406_40570)"/>
<path d="M95.6855 143.602C95.6855 143.602 98.0645 145.188 99.9149 145.056C103.219 144.791 103.087 143.602 103.087 143.602" stroke="#575D68" stroke-width="0.4" stroke-miterlimit="10"/>
<path d="M109.827 106.593C109.827 106.593 116.832 112.541 123.44 111.351C132.163 109.633 135.335 104.479 135.335 104.479C137.054 109.237 139.036 114.259 138.904 119.414C138.772 124.172 134.675 126.947 130.181 128.005C127.934 128.533 122.515 129.855 118.55 128.005C117.889 127.74 100.178 119.149 100.839 118.753" fill="#DDDEDF"/>
<path d="M109.827 106.593C109.827 106.593 116.832 112.541 123.44 111.351C132.163 109.633 135.335 104.479 135.335 104.479C137.054 109.237 139.036 114.259 138.904 119.414C138.772 124.172 134.675 126.947 130.181 128.005C127.934 128.533 122.515 129.855 118.55 128.005C117.889 127.74 100.178 119.149 100.839 118.753" stroke="#575D68" stroke-width="0.4" stroke-miterlimit="10"/>
<path d="M98.0641 52.5378C99.3858 54.2559 101.765 55.0488 103.747 54.388C103.747 53.1985 103.219 52.0091 103.087 50.6874C102.954 49.2335 103.087 47.6474 103.747 46.3257C103.483 46.0614 102.954 46.1935 102.69 46.4579C100.84 47.2509 99.3858 48.837 98.5928 50.6874C98.3284 51.216 97.6676 52.0091 98.0641 52.5378Z" fill="#DDDEDF" stroke="#575D68" stroke-width="0.4" stroke-miterlimit="10"/>
<path d="M103.616 46.1935C102.955 46.59 102.294 47.1186 102.03 47.7794C101.501 48.9689 101.369 50.2906 101.633 51.6123C101.898 53.0662 102.294 54.6523 102.955 55.974C103.484 57.2956 104.541 58.3529 105.202 59.5424C106.656 61.9215 107.581 64.5649 106.655 67.3404C105.995 69.4551 104.805 71.4377 103.483 73.288C102.955 73.9489 102.426 74.7418 102.162 75.5348C102.955 76.1957 105.598 75.4027 106.655 75.2705C108.638 75.0062 110.621 74.6097 112.471 73.9489C121.591 70.909 119.608 66.8117 119.608 66.8117C119.608 66.8117 118.286 64.9614 118.286 61.2607C118.286 58.7495 119.212 53.1984 115.511 48.176C114.454 46.7221 112.735 45.797 110.621 45.4005C108.638 45.4005 105.598 45.1361 103.616 46.1935Z" fill="#DDDEDF" stroke="#575D68" stroke-width="0.4" stroke-miterlimit="10"/>
<path d="M101.501 117.036L100.84 118.622C100.972 119.283 101.897 118.886 102.162 119.547C106.259 121.926 118.022 127.609 118.55 127.874C122.516 129.724 127.935 128.402 130.181 127.874C134.675 126.816 138.772 124.041 138.904 119.283C139.037 114.128 137.054 109.106 135.336 104.348C138.905 119.283 115.379 115.846 106.92 115.185C104.937 115.053 102.69 115.45 101.501 117.036Z" fill="url(#paint2_linear_406_40570)"/>
<path d="M138.508 132.499C140.623 131.838 142.341 131.045 143.795 130.12V91.3945L138.508 94.5666V132.499Z" fill="#F6F6F6" stroke="#575D68" stroke-width="0.4" stroke-miterlimit="10"/>
<path d="M125.291 96.9463V106.33C125.291 107.652 126.613 108.445 127.802 107.784L152.253 94.1707C152.914 93.7742 153.311 93.1133 153.311 92.4525V82.0111C153.311 80.4251 151.593 79.5 150.271 80.293L127.538 93.5099C126.084 94.0386 125.291 95.3602 125.291 96.9463Z" fill="#F6F6F6" stroke="#575D68" stroke-width="0.4" stroke-miterlimit="10"/>
<path d="M151.593 81.2168L128.86 94.4337C127.538 95.2267 126.745 96.5483 126.745 98.0021V107.386" fill="#F6F6F6"/>
<path d="M151.593 81.2168L128.86 94.4337C127.538 95.2267 126.745 96.5483 126.745 98.0021V107.386" stroke="#575D68" stroke-width="0.4" stroke-miterlimit="10"/>
</g>
<path d="M69.7044 52.0127C72.2809 52.7326 74.4542 55.0265 75.4595 58.5736L73.2257 61.5536C72.4727 58.9526 70.8677 56.5549 68.9621 56.2046C65.9123 55.587 62.6833 58.725 61.2597 64.9226C60.2988 64.225 59.5308 63.7145 58.5216 62.9701C60.6948 56.0957 65.5052 50.7954 69.7044 52.0127ZM63.5652 66.5494C64.0935 66.9212 64.6701 67.3398 65.1977 67.6641C65.6868 65.5188 66.9447 63.9316 68.1335 64.0081C68.9416 64.043 69.5716 64.8408 69.875 66.0236L71.6435 63.6684C71.1412 61.9186 69.8924 61.0355 68.6079 60.913C66.6095 60.7065 64.3735 63.5441 63.5652 66.5494ZM52.1868 58.8409C52.6654 59.0709 52.8086 59.1162 53.2405 59.3945C54.0553 59.8569 54.8233 60.3675 55.5913 60.878C58.0919 50.6258 65.2888 46.0484 70.5432 47.9143C73.6962 49.0528 75.9823 52.485 77.1434 56.8848L79.1887 54.0027C77.8243 48.751 74.7747 45.0932 70.9962 43.4419C64.5389 40.5972 56.3868 47.8971 52.1868 58.8409Z" fill="#FF4F12"/>
<path d="M68.9979 67.6533C69.1588 68.8384 68.5629 70.2253 67.7154 70.7135C66.9622 71.1528 66.2439 70.7839 66.0399 69.8845C65.7869 68.8909 66.1929 67.507 66.9892 66.782C67.8789 65.9606 68.8347 66.3258 68.9979 67.6533Z" fill="#FF4F12"/>
<circle cx="72" cy="72" r="71.5" stroke="#FF4F12"/>
<defs>
<linearGradient id="paint0_linear_406_40570" x1="101.569" y1="115.101" x2="108.894" y2="148.504" gradientUnits="userSpaceOnUse">
<stop stop-color="white" stop-opacity="0"/>
<stop offset="0.3934" stop-color="#F5F5F5" stop-opacity="0.3934"/>
<stop offset="1" stop-color="#EAEAEA"/>
</linearGradient>
<linearGradient id="paint1_linear_406_40570" x1="97.7978" y1="76.2283" x2="130.756" y2="115.206" gradientUnits="userSpaceOnUse">
<stop offset="0.1466" stop-color="white" stop-opacity="0"/>
<stop offset="0.432" stop-color="#F5F5F5" stop-opacity="0.3934"/>
<stop offset="0.8721" stop-color="#EAEAEA"/>
</linearGradient>
<linearGradient id="paint2_linear_406_40570" x1="100.896" y1="116.636" x2="138.947" y2="116.636" gradientUnits="userSpaceOnUse">
<stop stop-color="white" stop-opacity="0"/>
<stop offset="0.3431" stop-color="#F5F5F5" stop-opacity="0.3934"/>
<stop offset="0.8721" stop-color="#EAEAEA"/>
</linearGradient>
</defs>
</svg>
