<svg width="337" height="382" viewBox="0 0 337 382" fill="none" xmlns="http://www.w3.org/2000/svg">
<path d="M160.783 179L336.49 280.227" stroke="#CCCCCC" stroke-width="0.5" stroke-miterlimit="10"/>
<path d="M131.652 195.824L307.395 297.087" stroke="#CCCCCC" stroke-width="0.5" stroke-miterlimit="10"/>
<path d="M102.521 212.612L278.299 313.946" stroke="#CCCCCC" stroke-width="0.5" stroke-miterlimit="10"/>
<path d="M73.3906 229.4L249.205 330.77" stroke="#CCCCCC" stroke-width="0.5" stroke-miterlimit="10"/>
<path d="M44.2598 246.224L220.109 347.629" stroke="#CCCCCC" stroke-width="0.5" stroke-miterlimit="10"/>
<path d="M15.1304 263.012L191.016 364.489" stroke="#CCCCCC" stroke-width="0.5" stroke-miterlimit="10"/>
<path d="M-14 279.801L161.921 381.312" stroke="#CCCCCC" stroke-width="0.5" stroke-miterlimit="10"/>
<path d="M161.849 381.064L336.56 280.227" stroke="#CCCCCC" stroke-width="0.5" stroke-miterlimit="10"/>
<path d="M132.54 364.204L307.251 263.368" stroke="#CCCCCC" stroke-width="0.5" stroke-miterlimit="10"/>
<path d="M103.23 347.345L277.942 246.473" stroke="#CCCCCC" stroke-width="0.5" stroke-miterlimit="10"/>
<path d="M73.9595 330.485L248.671 229.614" stroke="#CCCCCC" stroke-width="0.5" stroke-miterlimit="10"/>
<path d="M44.6499 313.626L219.361 212.754" stroke="#CCCCCC" stroke-width="0.5" stroke-miterlimit="10"/>
<path d="M15.3433 296.731L190.055 195.895" stroke="#CCCCCC" stroke-width="0.5" stroke-miterlimit="10"/>
<path d="M-13.9302 279.872L160.781 179" stroke="#CCCCCC" stroke-width="0.5" stroke-miterlimit="10"/>
<path d="M61.6256 174.278L62.7953 196.348C62.7953 196.348 58.6622 226.684 55.1528 233.469C51.6435 240.253 52.5014 271.135 52.9693 275.112C53.5152 279.792 55.4648 280.493 56.8685 280.961L57.0245 286.654L55.0749 292.269C54.7629 294.375 55.3088 296.558 56.6346 298.274C58.8961 301.237 61.2357 304.435 63.9651 306.93C65.2909 308.1 67.0066 309.504 68.7222 310.128C71.5297 311.063 75.6629 310.284 77.1446 309.894C80.108 309.192 81.5117 307.944 82.3696 305.916C82.9155 304.513 82.6815 302.953 81.7456 301.783L80.264 299.99L70.8278 288.214L70.4378 280.961C72.3875 279.636 75.2729 278.388 75.195 274.021L76.0528 249.221L88.1404 211.633L88.6083 242.437L90.09 264.818C90.5579 270.589 97.7325 271.447 97.7325 271.447L95.7829 276.828L94.5352 283.769C94.2232 285.562 95.237 287.278 96.9527 287.824C96.9527 287.824 118.399 296.168 126.743 295.155C127.991 294.999 129.16 294.531 130.252 293.985C132.982 292.581 135.243 290.319 134.853 287.356C134.541 285.094 132.67 283.301 130.486 282.755C126.353 281.741 117.385 279.168 112.472 275.034C110.834 273.709 111.224 269.887 111.224 269.887C111.224 269.887 114.499 266.846 113.875 263.259C111.458 249.065 109.196 224.344 109.196 224.344L117.619 175.994" fill="#F6F6F6"/>
<path d="M61.6256 174.278L62.7953 196.348C62.7953 196.348 58.6622 226.684 55.1528 233.469C51.6435 240.253 52.5014 271.135 52.9693 275.112C53.5152 279.792 55.4648 280.493 56.8685 280.961L57.0245 286.654L55.0749 292.269C54.7629 294.375 55.3088 296.558 56.6346 298.274C58.8961 301.237 61.2357 304.435 63.9651 306.93C65.2909 308.1 67.0066 309.504 68.7222 310.128C71.5297 311.063 75.6629 310.284 77.1446 309.894C80.108 309.192 81.5117 307.944 82.3696 305.916C82.9155 304.513 82.6815 302.953 81.7456 301.783L80.264 299.99L70.8278 288.214L70.4378 280.961C72.3875 279.636 75.2729 278.388 75.195 274.021L76.0528 249.221L88.1404 211.633L88.6083 242.437L90.09 264.818C90.5579 270.589 97.7325 271.447 97.7325 271.447L95.7829 276.828L94.5352 283.769C94.2232 285.562 95.237 287.278 96.9527 287.824C96.9527 287.824 118.399 296.168 126.743 295.155C127.991 294.999 129.16 294.531 130.252 293.985C132.982 292.581 135.243 290.319 134.853 287.356C134.541 285.094 132.67 283.301 130.486 282.755C126.353 281.741 117.385 279.168 112.472 275.034C110.834 273.709 111.224 269.887 111.224 269.887C111.224 269.887 114.499 266.846 113.875 263.259C111.458 249.065 109.196 224.344 109.196 224.344L117.619 175.994" stroke="#575D68" stroke-width="0.5" stroke-miterlimit="10"/>
<path opacity="0.27" d="M61.6256 174.122L62.7953 196.192C62.7953 196.192 58.6622 226.528 55.1528 233.313C51.6435 240.097 52.5014 270.979 52.9693 274.956C53.5152 279.636 55.4648 280.337 56.8685 280.805L57.0245 286.498L55.0749 292.113C54.7629 294.219 55.3088 296.402 56.6346 298.118C58.8961 301.081 61.3916 304.201 64.1991 306.774C65.4468 307.944 68.1763 309.972 69.814 310.362C70.9058 310.595 75.5849 310.128 77.1446 309.738C80.108 309.036 81.5117 307.788 82.3696 305.76C82.9155 304.357 82.6815 302.797 81.7456 301.627L80.264 299.834L70.8278 288.058L70.4378 280.805C72.3875 279.48 75.2729 278.232 75.195 273.865L76.0528 249.065L88.1404 211.477L88.6083 242.281L90.09 264.662C90.5579 270.433 97.7325 271.291 97.7325 271.291L95.7829 276.672L94.5352 283.613C94.2232 285.406 95.237 287.122 96.9527 287.668C96.9527 287.668 120.972 294.921 122.688 294.765C125.417 294.531 129.082 294.375 130.252 293.829C132.982 292.425 135.243 290.163 134.853 287.2C134.541 284.938 132.67 283.145 130.486 282.599C126.353 281.585 117.385 279.012 112.472 274.878C110.834 273.553 111.224 269.731 111.224 269.731C111.224 269.731 114.499 266.69 113.875 263.103C111.458 248.909 109.196 224.188 109.196 224.188L117.619 175.838" fill="#EAEAEA"/>
<path opacity="0.4" d="M62.873 196.348C62.873 196.348 58.7398 226.684 55.2305 233.469C51.7212 240.253 52.579 271.135 53.0469 275.112C53.5928 279.792 55.5424 280.493 56.9462 280.961L57.0242 283.379C61.6253 283.535 66.8502 283.145 70.7495 282.755L70.6715 280.961C70.7495 280.883 70.8275 280.883 70.9055 280.805C67.942 280.103 64.5107 279.168 62.4831 278.154C58.2719 276.126 57.1021 271.447 56.9462 264.273C56.7902 257.098 60.6894 237.758 60.6894 237.758L70.9834 206.174L78.158 181.063C78.158 181.063 71.3733 176.93 68.6439 174.512L61.6252 174.278L62.873 196.348Z" fill="#EAEAEA"/>
<path d="M117.775 176.462L114.655 139.653L116.371 126.707L124.637 144.956L137.271 136.845L139.766 117.817L119.958 83.9715C118.71 81.788 116.527 80.3063 114.109 79.9164L107.247 78.8246C107.247 78.8246 107.481 72.1958 107.325 62.6817C107.325 61.278 105.999 56.9888 105.999 56.9888C105.999 56.9888 107.481 52.1538 106.779 47.0068C105.219 35.621 90.792 34.6851 80.8099 42.0157C66.9286 52.2317 75.5069 65.8791 75.5069 65.8791L79.9521 75.0033C79.9521 75.0033 81.9797 81.476 80.42 82.8798C75.6629 87.1689 57.8824 90.7562 56.9465 95.9032C56.5566 98.0868 62.8734 129.203 62.8734 129.203L68.8002 144.956L61.7036 174.59C61.7036 174.59 66.1487 174.2 78.0024 183.168C84.8651 188.393 100.228 188.783 108.339 186.6C116.449 184.65 117.775 176.462 117.775 176.462Z" fill="#F6F6F6" stroke="#575D68" stroke-width="0.5" stroke-miterlimit="10"/>
<path d="M99.9175 98.2429L100.775 87.4809L104.986 78.5127L108.184 80.9303V85.6873L104.051 90.2104L100.775 87.4809" fill="#F6F6F6"/>
<path d="M99.9175 98.2429L100.775 87.4809L104.986 78.5127L108.184 80.9303V85.6873L104.051 90.2104L100.775 87.4809" stroke="#575D68" stroke-width="0.5" stroke-miterlimit="10"/>
<path d="M97.6553 98.8667C97.6553 98.8667 101.788 115.711 102.022 117.895C102.256 120.079 102.646 146.983 102.802 151.194C102.958 155.406 102.802 178.177 102.802 178.177" fill="#F6F6F6"/>
<path d="M97.6553 98.8667C97.6553 98.8667 101.788 115.711 102.022 117.895C102.256 120.079 102.646 146.983 102.802 151.194C102.958 155.406 102.802 178.177 102.802 178.177" stroke="#575D68" stroke-width="0.5" stroke-miterlimit="10"/>
<path d="M115.046 153.534L92.2745 157.121L72.1544 141.368L68.1772 143.474L68.7231 145.034L61.6265 174.668C61.6265 174.668 64.2 174.434 70.5168 178.255L83.1503 174.278L115.046 153.534Z" fill="url(#paint0_linear_3_24328)"/>
<path d="M115.98 119.221L105.764 90.3664L102.254 83.0358L95.0799 79.4485C93.8321 79.0586 92.8183 78.2787 92.2724 77.1089L89.6209 75.9392C89.6209 75.9392 88.6071 74.9254 88.6851 74.5354C88.7631 74.2235 89.6209 73.7556 89.6209 73.7556L88.4512 72.5079L89.075 71.8839L88.7631 71.1041C89.231 70.1683 90.6347 70.4802 91.6485 70.7142L96.0937 71.728H103.034C104.204 71.728 105.296 70.9482 105.686 69.7784L105.998 68.8426C105.296 66.737 105.92 65.4892 107.324 64.3195L108.415 69.0765L108.493 71.65C108.493 71.806 108.571 71.962 108.571 72.1959L109.273 78.5907L130.875 106.119" fill="#F6F6F6"/>
<path d="M115.98 119.221L105.764 90.3664L102.254 83.0358L95.0799 79.4485C93.8321 79.0586 92.8183 78.2787 92.2724 77.1089L89.6209 75.9392C89.6209 75.9392 88.6071 74.9254 88.6851 74.5354C88.7631 74.2235 89.6209 73.7556 89.6209 73.7556L88.4512 72.5079L89.075 71.8839L88.7631 71.1041C89.231 70.1683 90.6347 70.4802 91.6485 70.7142L96.0937 71.728H103.034C104.204 71.728 105.296 70.9482 105.686 69.7784L105.998 68.8426C105.296 66.737 105.92 65.4892 107.324 64.3195L108.415 69.0765L108.493 71.65C108.493 71.806 108.571 71.962 108.571 72.1959L109.273 78.5907L130.875 106.119" stroke="#575D68" stroke-width="0.5" stroke-miterlimit="10"/>
<path d="M68.7227 145.034L79.6405 161.956L122.298 151.74L136.102 144.332L137.037 140.355L138.285 137.079L138.675 133.024L138.129 130.139L135.322 135.598L129.785 137.235C128.693 137.547 127.601 136.845 127.445 135.754L127.289 134.662C128.849 133.492 128.693 131.62 128.459 130.373L128.225 129.359L124.716 134.974L124.17 136.689C123.39 139.185 121.206 141.057 118.555 141.368L89.7005 144.878L79.7965 116.335" fill="#F6F6F6"/>
<path d="M68.7227 145.034L79.6405 161.956L122.298 151.74L136.101 144.332L137.037 140.355L138.285 137.079L138.675 133.024L138.129 130.139L135.322 135.598L129.785 137.235C128.693 137.547 127.601 136.845 127.445 135.754L127.289 134.662C128.849 133.492 128.693 131.62 128.459 130.373L128.225 129.359L124.716 134.974L124.17 136.689C123.39 139.185 121.206 141.057 118.555 141.368L89.7005 144.878L79.7965 116.335" stroke="#575D68" stroke-width="0.5" stroke-miterlimit="10"/>
<path d="M84.7866 48.3325C85.2545 49.7362 84.5526 51.7638 84.6306 53.3235C84.7866 56.6769 85.6444 60.0302 86.1123 63.3056C86.1903 63.8514 86.2683 64.4753 86.1123 65.0212C85.9564 65.5671 85.4105 66.035 84.8646 65.9571C84.3187 65.8791 83.9288 65.4112 83.5389 64.9433C82.915 64.0074 82.2131 63.0716 81.3552 62.5257C80.4974 61.9798 79.1717 61.7459 78.2359 62.3698C77.69 62.7597 77.3001 63.3836 77.1441 64.0074C76.5202 65.7231 76.7542 68.6085 78.7038 70.6361C80.1855 72.1958 80.0295 75.0813 80.0295 75.0813C80.0295 75.0813 72.9329 66.8149 71.3732 59.5623C69.7355 52.2317 69.1896 46.5389 74.4146 44.2773C77.534 42.9515 82.837 44.8232 84.7086 47.7086C84.6306 47.9425 84.7086 48.0986 84.7866 48.3325Z" fill="#F6F6F6" stroke="#575D68" stroke-width="0.5" stroke-miterlimit="10"/>
<path d="M84.7866 48.3325C85.2545 49.7362 84.5526 51.7638 84.6306 53.3235C84.7866 56.6769 85.6444 60.0302 86.1123 63.3056C86.1903 63.8514 86.2683 64.4753 86.1123 65.0212C85.9564 65.5671 85.4105 66.035 84.8646 65.9571C84.3187 65.8791 83.9288 65.4112 83.5389 64.9433C82.915 64.0074 82.2131 63.0716 81.3552 62.5257C80.4974 61.9798 79.1717 61.7459 78.2359 62.3698C77.69 62.7597 77.3001 63.3836 77.1441 64.0074C76.5202 65.7231 76.7542 68.6085 78.7038 70.6361C80.1855 72.1958 80.0295 75.0813 80.0295 75.0813C80.0295 75.0813 72.9329 66.8149 71.3732 59.5623C69.7355 52.2317 69.1896 46.5389 74.4146 44.2773C77.534 42.9515 82.837 44.8232 84.7086 47.7086C84.6306 47.9425 84.7086 48.0986 84.7866 48.3325Z" fill="url(#paint1_linear_3_24328)"/>
<path d="M69.502 48.0986C69.502 48.2546 71.8415 46.149 76.0526 47.0848C82.4474 48.5665 87.5164 50.7501 89.622 51.452C94.691 53.0897 100.384 51.7639 102.645 50.2042C104.049 49.2684 105.765 48.6445 106.701 47.2408C111.536 40.1442 103.347 34.9972 97.5765 33.6714C82.8374 30.3181 79.8739 32.5016 75.6627 36.1669C71.5295 39.8322 69.5799 47.9426 69.502 48.0986Z" fill="#DDDEDF" stroke="#575D68" stroke-width="0.5" stroke-miterlimit="10"/>
<path d="M69.502 48.0986C69.502 48.2546 71.8415 46.149 76.0526 47.0848C82.4474 48.5665 87.5164 50.7501 89.622 51.452C94.691 53.0897 100.384 51.7639 102.645 50.2042C104.049 49.2684 105.765 48.6445 106.701 47.2408C111.536 40.1442 103.347 34.9972 97.5765 33.6714C82.8374 30.3181 79.8739 32.5016 75.6627 36.1669C71.5295 39.8322 69.5799 47.9426 69.502 48.0986Z" fill="url(#paint2_linear_3_24328)"/>
<path d="M96.4858 88.8848L98.9814 94.2657C98.9814 94.2657 103.582 115.634 103.66 116.335C103.738 117.037 104.986 143.162 104.986 143.162" stroke="#575D68" stroke-width="0.5" stroke-miterlimit="10"/>
<path d="M89.6222 145.034L94.2233 142.46L98.4345 147.061L95.627 158.993L87.1267 163.594L79.6401 162.034L86.4248 157.199L90.0901 151.35L89.6222 145.034Z" fill="#F6F6F6" stroke="#575D68" stroke-width="0.5" stroke-miterlimit="10"/>
<path opacity="0.4" d="M89.6222 145.034L94.2233 142.46L98.4345 147.061L95.627 158.993L87.1267 163.594L79.6401 162.034L86.4248 157.199L90.0901 151.35L89.6222 145.034Z" fill="#EAEAEA"/>
<path d="M81.8224 301.783C81.8224 301.783 79.0929 297.104 74.4138 298.976C73.0881 299.522 71.8403 300.301 70.7485 301.159C68.253 303.109 64.7437 302.875 62.6381 300.535L57.959 295.31C56.5553 293.751 55.5415 292.971 55.5415 290.865" fill="#F6F6F6"/>
<path d="M81.8224 301.783C81.8224 301.783 79.0929 297.104 74.4138 298.976C73.0881 299.522 71.8403 300.301 70.7485 301.159C68.253 303.109 64.7437 302.875 62.6381 300.535L57.959 295.31C56.5553 293.751 55.5415 292.971 55.5415 290.865" stroke="#575D68" stroke-width="0.5" stroke-miterlimit="10"/>
<path d="M57.6484 284.159C57.6484 284.159 60.5339 285.095 67.1626 284.627C72.6995 284.237 70.5939 280.883 70.5939 280.883" fill="#F6F6F6"/>
<path d="M57.6484 284.159C57.6484 284.159 60.5339 285.095 67.1626 284.627C72.6995 284.237 70.5939 280.883 70.5939 280.883" stroke="#575D68" stroke-width="0.5" stroke-miterlimit="10"/>
<path d="M97.9678 271.369C97.9678 271.369 97.9678 271.369 104.596 270.901C110.133 270.511 111.381 269.965 111.381 269.965" fill="#F6F6F6"/>
<path d="M97.9678 271.369C97.9678 271.369 97.9678 271.369 104.596 270.901C110.133 270.511 111.381 269.965 111.381 269.965" stroke="#575D68" stroke-width="0.5" stroke-miterlimit="10"/>
<path d="M111.38 272.305C111.38 272.305 108.728 272.773 103.27 273.163C96.6409 273.631 97.4987 272.851 97.4987 272.851" fill="#F6F6F6"/>
<path d="M111.38 272.305C111.38 272.305 108.728 272.773 103.27 273.163C96.6409 273.631 97.4987 272.851 97.4987 272.851" stroke="#575D68" stroke-width="0.5" stroke-miterlimit="10"/>
<path d="M57.0249 281.117C57.0249 281.117 61.0801 282.365 67.7088 281.819L57.0249 281.117Z" fill="#F6F6F6"/>
<path d="M57.0249 281.117C57.0249 281.117 61.0801 282.365 67.7088 281.819" stroke="#575D68" stroke-width="0.5" stroke-miterlimit="10"/>
<path d="M70.5938 252.809C71.8415 252.263 73.0113 251.561 73.9471 250.625C74.8829 249.845 75.6628 248.909 76.3646 247.818H76.4426" stroke="#575D68" stroke-width="0.5" stroke-miterlimit="10"/>
<path d="M70.9842 286.966C70.9842 286.966 69.3465 285.25 66.851 285.718C64.7454 286.108 63.1857 287.356 63.1857 288.37V290.865L57.0249 286.654" fill="#F6F6F6"/>
<path d="M70.9842 286.966C70.9842 286.966 69.3465 285.25 66.851 285.718C64.7454 286.108 63.1857 287.356 63.1857 288.37V290.865L57.0249 286.654" stroke="#575D68" stroke-width="0.5" stroke-miterlimit="10"/>
<path d="M88.374 211.555L93.833 193.774" stroke="#575D68" stroke-width="0.5" stroke-miterlimit="10"/>
<path d="M109.431 224.422L104.986 232.455H102.022" stroke="#575D68" stroke-width="0.5" stroke-miterlimit="10"/>
<path d="M92.2734 77.1089L94.847 77.9667L98.3563 78.5126" fill="#F6F6F6"/>
<path d="M92.2734 77.1089L94.847 77.9667L98.3563 78.5126" stroke="#575D68" stroke-width="0.5" stroke-miterlimit="10"/>
<path d="M89.6226 73.7556L94.0677 75.5493L99.1367 76.0172" fill="#F6F6F6"/>
<path d="M89.6226 73.7556L94.0677 75.5493L99.1367 76.0172" stroke="#575D68" stroke-width="0.5" stroke-miterlimit="10"/>
<path d="M115.982 119.221L105.142 88.9625L104.051 90.1323L100.853 87.4028L99.9175 98.1647C99.9175 98.1647 107.794 104.014 108.184 104.559C113.097 112.982 116.45 126.707 116.45 126.707L115.982 119.221Z" fill="url(#paint3_linear_3_24328)"/>
<path d="M89.0757 71.884L94.6906 73.7557L99.9156 73.9896" fill="#F6F6F6"/>
<path d="M89.0757 71.884L94.6906 73.7557L99.9156 73.9896" stroke="#575D68" stroke-width="0.5" stroke-miterlimit="10"/>
<path opacity="0.4" d="M105.687 278.076L112.939 275.268C112.861 275.19 112.705 275.112 112.627 275.034C110.99 273.709 111.38 269.887 111.38 269.887C111.38 269.887 112.393 268.952 113.173 267.548L108.182 266.456C101.787 265.13 96.9524 259.749 96.4065 253.199L93.833 223.876V193.774L88.374 211.555L88.842 242.359L90.3236 264.74C90.7916 270.511 97.9662 271.369 97.9662 271.369L96.0166 276.75L105.687 278.076Z" fill="#EAEAEA"/>
<path d="M112.471 272.305C112.471 272.305 112.393 272.227 112.159 272.149C109.898 271.057 107.168 271.603 105.531 273.553L104.985 274.176L105.687 278.154C102.489 278.544 99.2139 278.154 96.1725 276.906C96.0945 276.906 96.0166 276.906 96.0166 276.984L96.6405 280.337C97.0304 282.755 98.7461 284.704 101.086 285.484L114.187 289.851C118.554 291.333 123.311 289.773 125.963 286.03L126.041 285.952C127.289 284.159 129.394 283.457 130.564 283.145C130.798 283.067 130.798 282.833 130.564 282.755C126.587 281.507 116.839 277.062 113.641 275.58C113.017 275.268 112.627 274.722 112.549 274.02C112.549 273.475 112.471 272.851 112.471 272.305Z" fill="#F6F6F6" stroke="#575D68" stroke-width="0.5" stroke-miterlimit="10"/>
<path opacity="0.27" d="M112.471 272.305C112.471 272.305 112.393 272.227 112.159 272.149C109.898 271.057 107.168 271.603 105.531 273.553L104.985 274.176L105.687 278.154C102.489 278.544 99.2139 278.154 96.1725 276.906C96.0945 276.906 96.0166 276.906 96.0166 276.984L96.6405 280.337C97.0304 282.755 98.7461 284.704 101.086 285.484L114.499 289.929C118.788 291.333 123.389 289.695 125.963 286.03C125.963 286.03 125.963 285.952 126.041 285.952C127.912 283.379 130.72 282.833 130.72 282.833C127.522 282.053 113.641 275.58 113.641 275.58C113.641 275.58 112.627 274.722 112.549 274.02C112.549 273.475 112.471 272.851 112.471 272.305Z" fill="#EAEAEA"/>
<path d="M73.5566 87.4029C73.5566 87.4029 76.988 91.3021 78.9376 92.5499C81.5111 94.2656 91.5712 99.0227 91.5712 99.0227L96.4842 94.1876L103.659 116.257L98.9797 94.1876L96.4842 88.8066C96.4842 88.8066 83.3047 82.9578 82.135 82.9578C80.6533 82.9578 73.5566 87.4029 73.5566 87.4029Z" fill="url(#paint4_linear_3_24328)"/>
<path d="M76.2871 85.4533L79.7964 80.1504C80.1084 79.6825 80.8102 79.5265 81.2782 79.9164C82.5259 81.0082 85.0214 83.0358 87.205 84.2836C90.3244 86.1552 96.5632 88.8067 96.5632 88.8067L92.274 95.2014L90.1684 94.2656C85.0994 92.0041 80.4203 89.0406 76.2871 85.4533Z" fill="#F6F6F6" stroke="#575D68" stroke-width="0.5" stroke-miterlimit="10"/>
<path d="M115.046 120.157L117.308 115.711L126.822 109.161L129.708 104.638L134.543 107.913L133.763 112.28C133.529 113.45 132.983 114.542 132.047 115.244L129.084 117.739L119.569 125.616L116.06 123.198L115.046 120.157Z" fill="#F6F6F6" stroke="#575D68" stroke-width="0.5" stroke-miterlimit="10"/>
<path opacity="0.4" d="M115.046 120.157L117.308 115.711L126.822 109.161L129.708 104.638L134.543 107.913L133.763 112.28C133.529 113.45 132.983 114.542 132.047 115.244L129.084 117.739L119.569 125.616L116.06 123.198L115.046 120.157Z" fill="#EAEAEA"/>
<path d="M99.604 68.2187C100.228 68.3747 101.164 68.3746 102.1 68.1407C103.035 67.9067 104.673 66.1911 103.659 65.2552C103.113 64.7093 102.411 60.1862 102.177 57.7687C102.022 56.521 102.645 55.3512 103.737 54.7273C104.361 54.3374 105.141 54.1034 105.843 54.3374" fill="#F6F6F6"/>
<path d="M99.604 68.2187C100.228 68.3747 101.164 68.3746 102.1 68.1407C103.035 67.9067 104.673 66.1911 103.659 65.2552C103.113 64.7093 102.411 60.1862 102.177 57.7687C102.022 56.521 102.645 55.3512 103.737 54.7273C104.361 54.3374 105.141 54.1034 105.843 54.3374" stroke="#575D68" stroke-width="0.5" stroke-miterlimit="10"/>
<path d="M89.7773 61.2001C90.4792 60.4202 92.0389 59.1725 94.1445 58.1587C96.64 56.9109 98.5896 58.5486 98.5896 58.5486" fill="#F6F6F6"/>
<path d="M89.7773 61.2001C90.4792 60.4202 92.0389 59.1725 94.1445 58.1587C96.64 56.9109 98.5896 58.5486 98.5896 58.5486" stroke="#575D68" stroke-width="0.5" stroke-miterlimit="10"/>
<path d="M87.126 77.1089C87.126 77.1089 92.195 80.7742 96.4842 81.0081C98.5897 81.0861 98.5898 81.2421 98.5898 81.2421" fill="#F6F6F6"/>
<path d="M87.126 77.1089C87.126 77.1089 92.195 80.7742 96.4842 81.0081C98.5897 81.0861 98.5898 81.2421 98.5898 81.2421" stroke="#575D68" stroke-width="0.5" stroke-miterlimit="10"/>
<path d="M89.6222 116.959C89.7002 117.505 89.6222 145.034 89.6222 145.034L84.0073 128.891L89.6222 116.959Z" fill="url(#paint5_linear_3_24328)"/>
<path d="M105.921 155.718L105.687 182.077L103.66 187.613" fill="#F6F6F6"/>
<path d="M105.921 155.718L105.687 182.077L103.66 187.613" stroke="#575D68" stroke-width="0.5" stroke-miterlimit="10"/>
<path d="M83.8506 116.101L84.0066 128.891" stroke="#575D68" stroke-width="0.5" stroke-miterlimit="10"/>
<path d="M117.307 124.134L119.568 130.217" stroke="#575D68" stroke-width="0.5" stroke-miterlimit="10"/>
<path d="M116.371 120.001L118.788 117.349L126.431 112.748" stroke="#575D68" stroke-width="0.5" stroke-miterlimit="10"/>
<path d="M121.751 119.221L116.058 123.276" stroke="#575D68" stroke-width="0.5" stroke-miterlimit="10"/>
<path d="M127.913 110.486L129.707 104.638" stroke="#575D68" stroke-width="0.5" stroke-miterlimit="10"/>
<path d="M86.4243 157.199L92.2732 152.988L94.2228 142.46" stroke="#575D68" stroke-width="0.5" stroke-miterlimit="10"/>
<path d="M94.2226 157.199L87.126 163.594" stroke="#575D68" stroke-width="0.5" stroke-miterlimit="10"/>
<path d="M67.8644 198.219L64.823 214.908C64.7451 215.298 64.979 215.688 65.3689 215.844L67.7084 216.702C68.1764 216.858 68.7223 216.546 68.8003 216.078L71.6077 198.999C71.6857 198.531 71.3737 198.141 70.9838 198.063L68.8782 197.596C68.4103 197.44 67.9424 197.751 67.8644 198.219Z" stroke="#575D68" stroke-width="0.5" stroke-miterlimit="10"/>
<path d="M77.2228 182.7C77.2228 182.7 77.1448 187.925 74.6493 190.733C72.3877 193.228 70.5941 193.774 70.5941 193.774L69.9702 197.829" stroke="#575D68" stroke-width="0.5" stroke-miterlimit="10"/>
<path d="M66.3827 216.312C66.3827 216.312 62.1715 231.363 60.6118 237.68C59.0522 243.762 56.9466 261.231 57.0246 269.965C57.0246 276.36 58.1943 281.429 58.1943 281.429" stroke="#575D68" stroke-width="0.5" stroke-miterlimit="10"/>
<path d="M65.2129 293.829C65.7588 292.659 71.4517 289.228 73.0893 290.787" stroke="#575D68" stroke-width="0.5" stroke-miterlimit="10"/>
<path d="M66.7725 296.012C67.3184 294.842 72.1534 291.255 74.7269 292.737" stroke="#575D68" stroke-width="0.5" stroke-miterlimit="10"/>
<path d="M68.7227 297.962C69.2685 296.792 73.9476 293.361 76.1312 294.609" stroke="#575D68" stroke-width="0.5" stroke-miterlimit="10"/>
<path d="M108.806 280.103C109.04 279.246 111.614 276.672 113.797 275.736" stroke="#575D68" stroke-width="0.5" stroke-miterlimit="10"/>
<path d="M113.718 282.287C113.952 281.429 116.526 278.856 118.709 277.92" stroke="#575D68" stroke-width="0.5" stroke-miterlimit="10"/>
<path d="M118.008 284.159C118.242 283.301 120.816 280.727 122.999 279.792" stroke="#575D68" stroke-width="0.5" stroke-miterlimit="10"/>
<path d="M64.0435 301.627C64.0435 301.627 67.5527 307.008 73.5576 307.008C79.5624 307.008 82.6818 303.343 82.6818 303.343" stroke="#575D68" stroke-width="0.5" stroke-miterlimit="10"/>
<path d="M114.187 289.773C114.187 289.773 122.843 292.425 126.353 291.333C132.981 289.384 134.697 285.718 134.697 285.718" stroke="#575D68" stroke-width="0.5" stroke-miterlimit="10"/>
<path d="M71.373 53.4795C71.373 53.4795 71.8409 59.0164 73.5566 63.2276L71.373 53.4795Z" fill="#F6F6F6"/>
<path d="M71.373 53.4795C71.373 53.4795 71.8409 59.0164 73.5566 63.2276" stroke="#575D68" stroke-width="0.5" stroke-miterlimit="10"/>
<path d="M81.9004 47.6306C81.9004 47.6306 87.9052 50.4381 92.2724 50.672C98.5891 51.062 102.644 48.2545 102.644 48.2545" stroke="#575D68" stroke-width="0.5" stroke-miterlimit="10"/>
<path d="M73.3232 179.971L70.5938 192.76" stroke="#575D68" stroke-width="0.5" stroke-miterlimit="10"/>
<path d="M192.33 313.169L219.702 329L272.108 298.976L272.42 238.304L217.519 267.47L192.33 252.887V313.169Z" fill="#F6F6F6" stroke="#575D68" stroke-width="0.5" stroke-miterlimit="10"/>
<path d="M192.485 252.575L245.592 222.395L272.419 238.304L219.545 269.03L192.485 253.121C192.251 252.965 192.251 252.653 192.485 252.575Z" fill="#F6F6F6" stroke="#575D68" stroke-width="0.5" stroke-miterlimit="10"/>
<path d="M272.419 245.166L219.545 275.814L192.484 259.905" stroke="#575D68" stroke-width="0.5" stroke-miterlimit="10"/>
<path d="M219.702 268.952V329" stroke="#575D68" stroke-width="0.5" stroke-miterlimit="10"/>
<path d="M126.587 82.334V202.275L128.615 203.522L287.626 111.656L288.405 -8.98621L286.378 -10L126.587 82.334Z" fill="#F6F6F6" stroke="#575D68" stroke-width="0.5" stroke-miterlimit="10"/>
<path d="M128.615 83.4258V203.522L288.406 111.656V-8.98621L128.615 83.4258Z" fill="#F6F6F6" stroke="#575D68" stroke-width="0.5" stroke-miterlimit="10"/>
<path d="M137.116 184.104L283.493 99.9586" stroke="#575D68" stroke-width="0.5" stroke-miterlimit="10"/>
<path d="M137.116 174.122L283.493 90.0546" stroke="#575D68" stroke-width="0.5" stroke-miterlimit="10"/>
<path d="M137.116 164.218L283.493 80.0725" stroke="#575D68" stroke-width="0.5" stroke-miterlimit="10"/>
<path d="M137.116 154.236L283.493 70.1686" stroke="#575D68" stroke-width="0.5" stroke-miterlimit="10"/>
<path d="M137.116 144.332L283.493 60.1864" stroke="#575D68" stroke-width="0.5" stroke-miterlimit="10"/>
<path d="M137.116 134.35L283.493 50.2823" stroke="#575D68" stroke-width="0.5" stroke-miterlimit="10"/>
<path d="M137.116 124.446L283.493 40.3003" stroke="#575D68" stroke-width="0.5" stroke-miterlimit="10"/>
<path d="M137.116 114.464L283.493 30.3962" stroke="#575D68" stroke-width="0.5" stroke-miterlimit="10"/>
<path d="M137.116 104.56L283.493 20.4142" stroke="#575D68" stroke-width="0.5" stroke-miterlimit="10"/>
<path d="M137.116 94.5778L283.493 10.5101" stroke="#575D68" stroke-width="0.5" stroke-miterlimit="10"/>
<path d="M153.805 107.991C153.727 110.409 152.245 112.358 150.607 112.436C148.97 112.514 147.722 110.565 147.8 108.225C147.878 105.808 149.36 103.858 150.997 103.78C152.713 103.702 153.961 105.574 153.805 107.991Z" fill="#DDDEDF" stroke="#575D68" stroke-width="0.5" stroke-miterlimit="10"/>
<path d="M178.292 111.5C178.214 113.918 176.733 115.868 175.095 115.946C173.457 116.023 172.21 114.074 172.288 111.734C172.366 109.317 173.847 107.367 175.485 107.289C177.201 107.211 178.448 109.083 178.292 111.5Z" fill="#DDDEDF" stroke="#575D68" stroke-width="0.5" stroke-miterlimit="10"/>
<path d="M236.079 42.172C236.001 44.5896 234.519 46.5392 232.881 46.6172C231.244 46.6951 229.996 44.7455 230.074 42.406C230.152 39.9884 231.633 38.0388 233.271 37.9608C234.987 37.8829 236.235 39.7545 236.079 42.172Z" fill="#DDDEDF" stroke="#575D68" stroke-width="0.5" stroke-miterlimit="10"/>
<path d="M226.33 132.322C226.252 134.74 224.77 136.69 223.132 136.768C221.495 136.846 220.247 134.896 220.325 132.556C220.403 130.139 221.884 128.189 223.522 128.111C225.238 128.033 226.486 129.905 226.33 132.322Z" fill="#DDDEDF" stroke="#575D68" stroke-width="0.5" stroke-miterlimit="10"/>
<path d="M248.478 92.9401C248.322 95.3576 246.84 97.3853 245.124 97.4633C243.409 97.5412 242.161 95.5916 242.317 93.1741C242.473 90.7566 243.955 88.7289 245.67 88.6509C247.308 88.573 248.634 90.5226 248.478 92.9401Z" fill="#DDDEDF" stroke="#575D68" stroke-width="0.5" stroke-miterlimit="10"/>
<path d="M253.315 47.4749C253.159 49.8924 251.677 51.998 249.961 51.998C248.246 52.076 246.998 50.1264 247.076 47.7089C247.232 45.2913 248.713 43.1858 250.429 43.1078C252.145 43.1078 253.47 44.9794 253.315 47.4749Z" fill="#DDDEDF" stroke="#575D68" stroke-width="0.5" stroke-miterlimit="10"/>
<path d="M197.788 94.6557C197.632 97.0733 196.229 99.0229 194.513 99.1009C192.875 99.1789 191.549 97.2292 191.705 94.8117C191.861 92.3942 193.265 90.4446 194.981 90.3666C196.696 90.3666 197.944 92.2382 197.788 94.6557Z" fill="#DDDEDF" stroke="#575D68" stroke-width="0.5" stroke-miterlimit="10"/>
<path d="M197.397 124.758C197.241 127.175 195.837 129.125 194.121 129.203C192.484 129.281 191.158 127.331 191.314 124.992C191.47 122.574 192.873 120.625 194.589 120.547C196.227 120.469 197.475 122.34 197.397 124.758Z" fill="#DDDEDF" stroke="#575D68" stroke-width="0.5" stroke-miterlimit="10"/>
<path d="M160.51 160.709C160.432 163.048 158.95 164.998 157.312 165.076C155.675 165.076 154.427 163.204 154.505 160.865C154.583 158.525 156.065 156.576 157.702 156.498C159.34 156.42 160.666 158.291 160.51 160.709Z" fill="#DDDEDF" stroke="#575D68" stroke-width="0.5" stroke-miterlimit="10"/>
<path d="M278.346 62.4479C278.191 64.8655 276.709 66.971 274.993 66.971C273.278 67.049 271.952 65.0994 272.108 62.6819C272.264 60.2644 273.745 58.1588 275.461 58.0808C277.177 58.0808 278.502 60.0304 278.346 62.4479Z" fill="#DDDEDF" stroke="#575D68" stroke-width="0.5" stroke-miterlimit="10"/>
<path d="M216.427 69.3107C216.271 71.7282 214.867 73.7558 213.151 73.8338C211.435 73.9118 210.188 71.9622 210.344 69.5447C210.5 67.1271 211.903 65.0995 213.619 65.0215C215.257 64.9436 216.583 66.8932 216.427 69.3107Z" fill="#DDDEDF" stroke="#575D68" stroke-width="0.5" stroke-miterlimit="10"/>
<path d="M203.557 247.896L203.323 239.24L233.893 222.395L253.389 232.767V240.877L222.664 258.658L203.557 247.896Z" fill="#F6F6F6" stroke="#575D68" stroke-width="0.5" stroke-miterlimit="10"/>
<path d="M227.343 239.863C230.961 239.863 233.894 238.292 233.894 236.354C233.894 234.416 230.961 232.845 227.343 232.845C223.725 232.845 220.792 234.416 220.792 236.354C220.792 238.292 223.725 239.863 227.343 239.863Z" fill="#F6F6F6" stroke="#575D68" stroke-width="0.5" stroke-miterlimit="10"/>
<path d="M203.323 239.239L222.819 250.235L253.389 232.767" stroke="#575D68" stroke-width="0.5" stroke-miterlimit="10"/>
<path d="M222.819 250.235V258.658" stroke="#575D68" stroke-width="0.5" stroke-miterlimit="10"/>
<path d="M224.691 250.781C224.457 250.937 224.301 251.171 224.301 251.483V253.043L229.448 250.079C229.682 249.923 229.838 249.69 229.838 249.378V247.896L224.691 250.781Z" fill="#F6F6F6" stroke="#575D68" stroke-width="0.5" stroke-miterlimit="10"/>
<path d="M250.504 238.694C250.348 239.785 249.568 240.643 248.866 240.643C248.243 240.643 247.853 240.019 247.853 239.24C247.853 238.382 248.32 237.368 249.1 237.056C249.958 236.666 250.66 237.446 250.504 238.694Z" fill="#F6F6F6" stroke="#575D68" stroke-width="0.5" stroke-miterlimit="10"/>
<path d="M61.6261 174.278L62.7958 196.348C62.7958 196.348 58.6626 226.684 55.1533 233.469C51.644 240.253 52.5019 271.135 52.9698 275.112C53.5157 279.792 55.4653 280.493 56.869 280.961L57.025 286.654L55.0754 292.269C54.7634 294.375 55.3093 296.558 56.6351 298.274C58.8966 301.237 61.2361 304.435 63.9656 306.93C65.2913 308.1 67.007 309.504 68.7227 310.128C71.5302 311.063 75.6633 310.284 77.1451 309.894C80.1085 309.192 81.5122 307.944 82.3701 305.916C82.9159 304.513 82.682 302.953 81.7461 301.783L80.2645 299.99L70.8283 288.214L70.4383 280.961C72.388 279.636 75.2734 278.388 75.1954 274.021L76.0533 249.221L88.1409 211.633L88.6088 242.437L90.0905 264.818C90.5584 270.589 97.733 271.447 97.733 271.447L95.7834 276.828L94.5357 283.769C94.2237 285.562 95.2375 287.278 96.9532 287.824C96.9532 287.824 118.399 296.168 126.743 295.155C127.991 294.999 129.161 294.531 130.253 293.985C132.982 292.581 135.244 290.319 134.854 287.356C134.542 285.094 132.67 283.301 130.487 282.755C126.353 281.741 117.385 279.168 112.472 275.034C110.834 273.709 111.224 269.887 111.224 269.887C111.224 269.887 114.5 266.846 113.876 263.259C111.458 249.065 109.197 224.344 109.197 224.344L117.619 175.994" fill="#F8D5C8"/>
<path d="M61.6261 174.278L62.7958 196.348C62.7958 196.348 58.6626 226.684 55.1533 233.469C51.644 240.253 52.5019 271.135 52.9698 275.112C53.5157 279.792 55.4653 280.493 56.869 280.961L57.025 286.654L55.0754 292.269C54.7634 294.375 55.3093 296.558 56.6351 298.274C58.8966 301.237 61.2361 304.435 63.9656 306.93C65.2913 308.1 67.007 309.504 68.7227 310.128C71.5302 311.063 75.6633 310.284 77.1451 309.894C80.1085 309.192 81.5122 307.944 82.37 305.916C82.9159 304.513 82.682 302.953 81.7461 301.783L80.2645 299.99L70.8283 288.214L70.4383 280.961C72.388 279.636 75.2734 278.388 75.1954 274.021L76.0533 249.221L88.1409 211.633L88.6088 242.437L90.0905 264.818C90.5584 270.589 97.733 271.447 97.733 271.447L95.7834 276.828L94.5357 283.769C94.2237 285.562 95.2375 287.278 96.9532 287.824C96.9532 287.824 118.399 296.168 126.743 295.155C127.991 294.999 129.161 294.531 130.253 293.985C132.982 292.581 135.244 290.319 134.854 287.356C134.542 285.094 132.67 283.301 130.487 282.755C126.353 281.741 117.385 279.168 112.472 275.034C110.834 273.709 111.224 269.887 111.224 269.887C111.224 269.887 114.5 266.846 113.876 263.259C111.458 249.065 109.197 224.344 109.197 224.344L117.619 175.994" stroke="#575D68" stroke-width="0.5" stroke-miterlimit="10"/>
<path opacity="0.4" d="M62.8735 196.348C62.8735 196.348 58.7403 226.684 55.231 233.469C51.7217 240.253 52.5795 271.135 53.0474 275.112C53.5933 279.792 55.5429 280.493 56.9466 280.961L57.0247 283.379C61.6258 283.535 66.8507 283.145 70.75 282.755L70.672 280.961C70.75 280.883 70.828 280.883 70.9059 280.805C67.9425 280.103 64.5112 279.168 62.4836 278.154C58.2724 276.126 57.1026 271.447 56.9466 264.273C56.7907 257.098 60.6899 237.758 60.6899 237.758L70.9839 206.174L78.1585 181.063C78.1585 181.063 71.3738 176.93 68.6444 174.512L61.6257 174.278L62.8735 196.348Z" fill="#EAEAEA"/>
<path d="M117.775 176.462L114.656 139.653L116.371 126.707L124.638 144.956L137.271 136.845L139.767 117.817L119.959 83.9715C118.711 81.788 116.527 80.3063 114.11 79.9164L107.247 78.8246C107.247 78.8246 107.481 72.1958 107.325 62.6817C107.325 61.278 105.999 56.9888 105.999 56.9888C105.999 56.9888 107.481 52.1538 106.779 47.0068C105.22 35.621 90.7925 34.6851 80.8104 42.0157C66.9291 52.2317 75.5074 65.8791 75.5074 65.8791L79.9525 75.0033C79.9525 75.0033 81.9802 81.476 80.4205 82.8798C75.6634 87.1689 57.8828 90.7562 56.947 95.9032C56.5571 98.0868 62.8739 129.203 62.8739 129.203L68.8007 144.956L61.7041 174.59C61.7041 174.59 66.1492 174.2 78.0029 183.168C84.8656 188.393 100.229 188.783 108.339 186.6C116.449 184.65 117.775 176.462 117.775 176.462Z" fill="#F6F6F6" stroke="#575D68" stroke-width="0.5" stroke-miterlimit="10"/>
<path d="M80.4205 83.0359C75.6634 87.3251 57.8828 90.9123 56.947 96.0593C56.5571 98.2429 62.8739 129.359 62.8739 129.359L68.8007 145.112L61.7041 174.746C61.7041 174.746 66.1492 174.356 78.0029 183.324C84.8656 188.549 100.229 188.939 108.339 186.756C116.449 184.65 117.853 176.462 117.853 176.462L114.734 139.653L116.449 126.707L124.716 144.956L137.349 136.845L139.845 117.817L120.037 83.9717C118.789 81.7881 116.605 80.3064 114.188 79.9165L112.238 79.6045C109.431 79.6045 104.752 76.5632 104.128 81.0863C103.972 82.0221 100.93 87.403 100.93 87.403C100.93 87.403 100.307 94.7336 99.9946 98.1649C99.9946 98.6328 99.3708 94.5776 99.1368 94.1877C96.6413 88.8068 96.4853 88.8067 96.4853 88.8067C96.4853 88.8067 82.526 84.1276 80.5764 82.8019C80.4984 82.8799 80.4205 82.9579 80.4205 83.0359Z" fill="url(#paint6_linear_3_24328)" stroke="#333333" stroke-width="0.5" stroke-miterlimit="10"/>
<path d="M99.918 98.2429L100.776 87.4809L104.987 78.5127L108.184 80.9303V85.6873L104.051 90.2104L100.776 87.4809" fill="url(#paint7_linear_3_24328)"/>
<path d="M99.918 98.2429L100.776 87.4809L104.987 78.5127L108.184 80.9303V85.6873L104.051 90.2104L100.776 87.4809" stroke="#333333" stroke-width="0.5" stroke-miterlimit="10"/>
<path d="M97.6558 98.8667C97.6558 98.8667 101.789 115.711 102.023 117.895C102.257 120.079 102.647 146.983 102.803 151.194C102.959 155.406 102.803 178.177 102.803 178.177" stroke="#575D68" stroke-width="0.5" stroke-miterlimit="10"/>
<g style="mix-blend-mode:multiply">
<path d="M115.047 153.534L92.275 157.121L72.1549 141.369L68.1777 143.474L68.7236 145.034L61.627 174.668C61.627 174.668 64.2005 174.434 70.5172 178.255L83.1508 174.278L115.047 153.534Z" fill="url(#paint8_linear_3_24328)"/>
</g>
<path d="M115.98 119.221L105.764 90.3665L102.255 83.0359L95.0804 79.4486C93.8326 79.0587 92.8188 78.2788 92.2729 77.1091L89.6214 75.9393C89.6214 75.9393 88.6076 74.9255 88.6856 74.5356C88.7636 74.2236 89.6214 73.7557 89.6214 73.7557L88.4517 72.508L89.0755 71.8841L88.7636 71.1042C89.2315 70.1684 90.6352 70.4803 91.649 70.7143L96.0942 71.7281H103.035C104.205 71.7281 105.296 70.9483 105.686 69.7785L105.998 68.8427C105.296 66.7371 105.92 65.4894 107.324 64.3196L108.416 69.0766L108.494 71.6501C108.494 71.8061 108.572 71.9621 108.572 72.196L109.274 78.5908L130.875 106.119" fill="#F6F6F6"/>
<path d="M115.98 119.221L105.764 90.3665L102.255 83.0359L95.0804 79.4486C93.8326 79.0587 92.8188 78.2788 92.2729 77.1091L89.6214 75.9393C89.6214 75.9393 88.6076 74.9255 88.6856 74.5356C88.7636 74.2236 89.6214 73.7557 89.6214 73.7557L88.4517 72.508L89.0755 71.8841L88.7636 71.1042C89.2315 70.1684 90.6352 70.4803 91.649 70.7143L96.0942 71.7281H103.035C104.205 71.7281 105.296 70.9483 105.686 69.7785L105.998 68.8427C105.296 66.7371 105.92 65.4894 107.324 64.3196L108.416 69.0766L108.494 71.6501C108.494 71.8061 108.572 71.9621 108.572 72.196L109.274 78.5908L130.875 106.119" stroke="#575D68" stroke-width="0.5" stroke-miterlimit="10"/>
<path d="M68.7231 145.034L79.641 161.956L122.299 151.74L136.102 144.332L137.038 140.355L138.286 137.079L138.675 133.024L138.13 130.139L135.322 135.598L129.785 137.235C128.693 137.547 127.602 136.845 127.446 135.754L127.29 134.662C128.849 133.492 128.693 131.62 128.459 130.373L128.226 129.359L124.716 134.974L124.17 136.689C123.39 139.185 121.207 141.057 118.555 141.368L89.701 144.878L79.7969 116.335" fill="url(#paint9_linear_3_24328)"/>
<path d="M68.7231 145.034L79.641 161.956L122.299 151.74L136.102 144.332L137.038 140.355L138.286 137.079L138.675 133.024L138.13 130.139L135.322 135.598L129.785 137.235C128.693 137.547 127.602 136.845 127.446 135.754L127.29 134.662C128.849 133.492 128.693 131.62 128.459 130.373L128.226 129.359L124.716 134.974L124.17 136.689C123.39 139.185 121.207 141.057 118.555 141.368L89.701 144.878L79.7969 116.335" stroke="#333333" stroke-width="0.5" stroke-miterlimit="10"/>
<path d="M84.7871 48.3325C85.255 49.7362 84.5531 51.7638 84.6311 53.3235C84.7871 56.6769 85.6449 60.0302 86.1128 63.3056C86.1908 63.8514 86.2688 64.4753 86.1128 65.0212C85.9569 65.5671 85.4109 66.035 84.865 65.9571C84.3192 65.8791 83.9293 65.4112 83.5393 64.9433C82.9155 64.0074 82.2136 63.0716 81.3557 62.5257C80.4979 61.9798 79.1722 61.7459 78.2363 62.3698C77.6904 62.7597 77.3006 63.3836 77.1446 64.0074C76.5207 65.7231 76.7547 68.6085 78.7043 70.6361C80.186 72.1958 80.03 75.0813 80.03 75.0813C80.03 75.0813 72.9334 66.8149 71.3737 59.5623C69.736 52.2317 69.1901 46.5389 74.4151 44.2773C77.5345 42.9515 82.8375 44.8232 84.7091 47.7086C84.6311 47.9425 84.7091 48.0986 84.7871 48.3325Z" fill="#F6F6F6" stroke="#575D68" stroke-width="0.5" stroke-miterlimit="10"/>
<path d="M84.7871 48.3325C85.255 49.7362 84.5531 51.7638 84.6311 53.3235C84.7871 56.6769 85.6449 60.0302 86.1128 63.3056C86.1908 63.8514 86.2688 64.4753 86.1128 65.0212C85.9569 65.5671 85.4109 66.035 84.865 65.9571C84.3192 65.8791 83.9293 65.4112 83.5393 64.9433C82.9155 64.0074 82.2136 63.0716 81.3557 62.5257C80.4979 61.9798 79.1722 61.7459 78.2363 62.3698C77.6904 62.7597 77.3006 63.3836 77.1446 64.0074C76.5207 65.7231 76.7547 68.6085 78.7043 70.6361C80.186 72.1958 80.03 75.0813 80.03 75.0813C80.03 75.0813 72.9334 66.8149 71.3737 59.5623C69.736 52.2317 69.1901 46.5389 74.4151 44.2773C77.5345 42.9515 82.8375 44.8232 84.7091 47.7086C84.6311 47.9425 84.7091 48.0986 84.7871 48.3325Z" fill="url(#paint10_linear_3_24328)"/>
<path d="M69.5024 48.0986C69.5024 48.2546 71.842 46.149 76.0531 47.0848C82.4479 48.5665 87.5169 50.7501 89.6225 51.452C94.6915 53.0897 100.384 51.7639 102.646 50.2042C104.05 49.2684 105.765 48.6445 106.701 47.2408C111.536 40.1442 103.348 34.9972 97.577 33.6714C82.8378 30.3181 79.8744 32.5016 75.6632 36.1669C71.53 39.8322 69.5804 47.9426 69.5024 48.0986Z" fill="#DDDEDF" stroke="#575D68" stroke-width="0.5" stroke-miterlimit="10"/>
<path d="M69.5024 48.0986C69.5024 48.2546 71.842 46.149 76.0531 47.0848C82.4479 48.5665 87.5169 50.7501 89.6225 51.452C94.6915 53.0897 100.384 51.7639 102.646 50.2042C104.05 49.2684 105.765 48.6445 106.701 47.2408C111.536 40.1442 103.348 34.9972 97.577 33.6714C82.8378 30.3181 79.8744 32.5016 75.6632 36.1669C71.53 39.8322 69.5804 47.9426 69.5024 48.0986Z" fill="url(#paint11_linear_3_24328)"/>
<path d="M96.4863 88.8848L98.9819 94.2657C98.9819 94.2657 103.583 115.634 103.661 116.335C103.739 117.037 104.987 143.162 104.987 143.162" stroke="#575D68" stroke-width="0.5" stroke-miterlimit="10"/>
<path d="M89.6227 145.034L94.2237 142.46L98.4349 147.061L95.6275 158.993L87.1271 163.594L79.6406 162.035L86.4253 157.199L90.0906 151.351L89.6227 145.034Z" fill="#F6F6F6" stroke="#575D68" stroke-width="0.5" stroke-miterlimit="10"/>
<path d="M89.6227 145.034L94.2237 142.46L98.4349 147.061L95.6275 158.993L87.1271 163.594L79.6406 162.035L86.4253 157.199L90.0906 151.351L89.6227 145.034Z" fill="#E9DDF7" stroke="#575D68" stroke-width="0.5" stroke-miterlimit="10"/>
<path d="M81.8229 301.783C81.8229 301.783 79.0934 297.104 74.4143 298.976C73.0886 299.522 71.8408 300.301 70.749 301.159C68.2535 303.109 64.7442 302.875 62.6386 300.535L57.9595 295.31C56.5558 293.751 55.542 292.971 55.542 290.865" fill="#F8D5C8"/>
<path d="M81.8229 301.783C81.8229 301.783 79.0934 297.104 74.4143 298.976C73.0886 299.522 71.8408 300.301 70.749 301.159C68.2535 303.109 64.7442 302.875 62.6386 300.535L57.9595 295.31C56.5558 293.751 55.542 292.971 55.542 290.865" stroke="#575D68" stroke-width="0.5" stroke-miterlimit="10"/>
<path d="M57.6489 284.159C57.6489 284.159 60.5344 285.095 67.1631 284.627C72.7 284.237 70.5944 280.883 70.5944 280.883" fill="#F8D5C8"/>
<path d="M57.6489 284.159C57.6489 284.159 60.5344 285.095 67.1631 284.627C72.7 284.237 70.5944 280.883 70.5944 280.883" stroke="#575D68" stroke-width="0.5" stroke-miterlimit="10"/>
<path d="M97.9683 271.369C97.9683 271.369 97.9683 271.369 104.597 270.901C110.134 270.511 111.382 269.965 111.382 269.965" fill="#F6F6F6"/>
<path d="M97.9683 271.369C97.9683 271.369 97.9683 271.369 104.597 270.901C110.134 270.511 111.382 269.965 111.382 269.965" stroke="#575D68" stroke-width="0.5" stroke-miterlimit="10"/>
<path d="M111.38 272.305C111.38 272.305 108.729 272.773 103.27 273.163C96.6413 273.631 97.4992 272.851 97.4992 272.851" fill="#F8D5C8"/>
<path d="M111.38 272.305C111.38 272.305 108.729 272.773 103.27 273.163C96.6413 273.631 97.4992 272.851 97.4992 272.851" stroke="#575D68" stroke-width="0.5" stroke-miterlimit="10"/>
<path d="M57.0254 281.117C57.0254 281.117 61.0806 282.365 67.7093 281.819L57.0254 281.117Z" fill="#F8D5C8"/>
<path d="M57.0254 281.117C57.0254 281.117 61.0806 282.365 67.7093 281.819" stroke="#575D68" stroke-width="0.5" stroke-miterlimit="10"/>
<path d="M70.5942 252.809C71.842 252.263 73.0118 251.561 73.9476 250.625C74.8834 249.845 75.6633 248.91 76.3651 247.818H76.4431" stroke="#575D68" stroke-width="0.5" stroke-miterlimit="10"/>
<path d="M70.9846 286.966C70.9846 286.966 69.347 285.25 66.8515 285.718C64.7459 286.108 63.1862 287.356 63.1862 288.37V290.865L57.0254 286.654" fill="#F8D5C8"/>
<path d="M70.9846 286.966C70.9846 286.966 69.347 285.25 66.8515 285.718C64.7459 286.108 63.1862 287.356 63.1862 288.37V290.865L57.0254 286.654" stroke="#575D68" stroke-width="0.5" stroke-miterlimit="10"/>
<path d="M88.3745 211.555L93.8334 193.774" stroke="#575D68" stroke-width="0.5" stroke-miterlimit="10"/>
<path d="M109.432 224.422L104.986 232.455H102.023" stroke="#575D68" stroke-width="0.5" stroke-miterlimit="10"/>
<path d="M92.2739 77.109L94.8475 77.9669L98.3568 78.5127" fill="#F6F6F6"/>
<path d="M92.2739 77.109L94.8475 77.9669L98.3568 78.5127" stroke="#575D68" stroke-width="0.5" stroke-miterlimit="10"/>
<path d="M89.623 73.7556L94.0682 75.5493L99.1372 76.0172" fill="#F6F6F6"/>
<path d="M89.623 73.7556L94.0682 75.5493L99.1372 76.0172" stroke="#575D68" stroke-width="0.5" stroke-miterlimit="10"/>
<g style="mix-blend-mode:multiply">
<path d="M115.983 119.221L105.143 88.9627L104.051 90.1324L100.854 87.403L99.918 98.1648C99.918 98.1648 107.794 104.014 108.184 104.56C113.097 112.982 116.451 126.707 116.451 126.707L115.983 119.221Z" fill="url(#paint12_linear_3_24328)"/>
</g>
<path d="M89.0771 71.884L94.6921 73.7557L99.9171 73.9896" fill="#F6F6F6"/>
<path d="M89.0771 71.884L94.6921 73.7557L99.9171 73.9896" stroke="#575D68" stroke-width="0.5" stroke-miterlimit="10"/>
<path opacity="0.4" d="M105.687 278.076L112.94 275.268C112.862 275.19 112.706 275.112 112.628 275.034C110.99 273.709 111.38 269.887 111.38 269.887C111.38 269.887 112.394 268.952 113.174 267.548L108.183 266.456C101.788 265.13 96.9529 259.749 96.407 253.199L93.8334 223.876V193.774L88.3745 211.555L88.8424 242.359L90.3241 264.74C90.792 270.511 97.9667 271.369 97.9667 271.369L96.0171 276.75L105.687 278.076Z" fill="#EAEAEA"/>
<path d="M112.472 272.305C112.472 272.305 112.394 272.227 112.16 272.149C109.898 271.057 107.169 271.603 105.531 273.553L104.985 274.177L105.687 278.154C102.49 278.544 99.2144 278.154 96.173 276.906C96.095 276.906 96.0171 276.906 96.0171 276.984L96.641 280.337C97.0309 282.755 98.7466 284.705 101.086 285.484L114.188 289.852C118.555 291.333 123.312 289.774 125.963 286.03L126.041 285.952C127.289 284.159 129.395 283.067 130.564 282.755C130.564 282.755 130.798 282.833 130.564 282.755C126.587 281.507 116.839 277.062 113.642 275.58C113.018 275.268 112.628 274.722 112.55 274.021C112.55 273.475 112.472 272.851 112.472 272.305Z" fill="#F6F6F6" stroke="#575D68" stroke-width="0.5" stroke-miterlimit="10"/>
<path d="M112.472 272.305C112.472 272.305 112.394 272.227 112.16 272.149C109.898 271.057 107.169 271.603 105.531 273.553L104.985 274.177L105.687 278.154C102.49 278.544 99.2144 278.154 96.173 276.906C96.095 276.906 96.0171 276.906 96.0171 276.984L96.641 280.337C97.0309 282.755 98.7466 284.705 101.086 285.484L114.499 289.93C118.789 291.333 123.39 289.696 125.963 286.03C125.963 286.03 125.963 285.952 126.041 285.952C127.913 283.379 130.564 282.755 130.564 282.755L130.72 282.833C127.523 282.053 113.642 275.58 113.642 275.58C113.642 275.58 112.628 274.722 112.55 274.021C112.55 273.475 112.472 272.851 112.472 272.305Z" fill="#F8D5C8" stroke="#575D68" stroke-width="0.5" stroke-miterlimit="10"/>
<path d="M73.5571 87.4029C73.5571 87.4029 76.9885 91.3021 78.9381 92.5499C81.5116 94.2656 91.5716 99.0227 91.5716 99.0227L96.4847 94.1876L103.659 116.257L98.9802 94.1876L96.4847 88.8066C96.4847 88.8066 83.3052 82.9578 82.1355 82.9578C80.6537 82.9578 73.5571 87.4029 73.5571 87.4029Z" fill="url(#paint13_linear_3_24328)"/>
<path d="M76.2876 85.4533L79.7969 80.1504C80.1089 79.6825 80.8107 79.5265 81.2786 79.9164C82.5264 81.0082 85.0219 83.0358 87.2055 84.2836C90.3249 86.1552 96.5636 88.8067 96.5636 88.8067L92.2745 95.2014L90.1689 94.2656C85.0999 92.0041 80.4208 89.0406 76.2876 85.4533Z" fill="url(#paint14_linear_3_24328)" stroke="#333333" stroke-width="0.5" stroke-miterlimit="10"/>
<path d="M115.047 120.157L117.308 115.712L126.823 109.161L129.708 104.638L134.543 107.913L133.763 112.28C133.529 113.45 132.983 114.542 132.048 115.244L129.084 117.739L119.57 125.616L116.061 123.198L115.047 120.157Z" fill="#F6F6F6" stroke="#575D68" stroke-width="0.5" stroke-miterlimit="10"/>
<path d="M115.047 120.157L117.308 115.712L126.823 109.161L129.708 104.638L134.543 107.913L133.763 112.28C133.529 113.45 132.983 114.542 132.048 115.244L129.084 117.739L119.57 125.616L116.061 123.198L115.047 120.157Z" fill="#E9DDF7" stroke="#575D68" stroke-width="0.5" stroke-miterlimit="10"/>
<path d="M99.6045 68.2188C100.228 68.3748 101.164 68.3748 102.1 68.1408C103.036 67.9068 104.674 66.1912 103.66 65.2554C103.114 64.7095 102.412 60.1864 102.178 57.7688C102.022 56.5211 102.646 55.3513 103.738 54.7274C104.362 54.3375 105.141 54.1035 105.843 54.3375" fill="#F6F6F6"/>
<path d="M99.6045 68.2188C100.228 68.3748 101.164 68.3748 102.1 68.1408C103.036 67.9069 104.674 66.1912 103.66 65.2554C103.114 64.7095 102.412 60.1864 102.178 57.7688C102.022 56.5211 102.646 55.3513 103.738 54.7274C104.362 54.3375 105.141 54.1035 105.843 54.3375" stroke="#575D68" stroke-width="0.5" stroke-miterlimit="10"/>
<path d="M89.7778 61.2001C90.4797 60.4202 92.0394 59.1725 94.145 58.1587C96.6405 56.9109 98.5901 58.5486 98.5901 58.5486" fill="#F6F6F6"/>
<path d="M89.7778 61.2001C90.4797 60.4202 92.0394 59.1725 94.145 58.1587C96.6405 56.9109 98.5901 58.5486 98.5901 58.5486" stroke="#575D68" stroke-width="0.5" stroke-miterlimit="10"/>
<path d="M87.1265 77.109C87.1265 77.109 92.1955 80.7743 96.4846 81.0082C98.5902 81.0862 98.5902 81.2422 98.5902 81.2422" fill="#F6F6F6"/>
<path d="M87.1265 77.109C87.1265 77.109 92.1955 80.7743 96.4846 81.0082C98.5902 81.0862 98.5902 81.2422 98.5902 81.2422" stroke="#575D68" stroke-width="0.5" stroke-miterlimit="10"/>
<g style="mix-blend-mode:multiply">
<path d="M89.6227 116.959C89.7007 117.505 89.6227 145.034 89.6227 145.034L84.0078 128.891L89.6227 116.959Z" fill="url(#paint15_linear_3_24328)"/>
</g>
<path d="M105.922 155.718L105.688 182.077L103.66 187.613" stroke="#575D68" stroke-width="0.5" stroke-miterlimit="10"/>
<path d="M83.8511 116.101L84.0071 128.891" stroke="#575D68" stroke-width="0.5" stroke-miterlimit="10"/>
<path d="M117.307 124.134L119.569 130.217" stroke="#575D68" stroke-width="0.5" stroke-miterlimit="10"/>
<path d="M116.371 120.001L118.789 117.349L126.431 112.748" stroke="#575D68" stroke-width="0.5" stroke-miterlimit="10"/>
<path d="M121.752 119.221L116.059 123.276" stroke="#575D68" stroke-width="0.5" stroke-miterlimit="10"/>
<path d="M127.914 110.487L129.707 104.638" stroke="#575D68" stroke-width="0.5" stroke-miterlimit="10"/>
<path d="M86.4248 157.199L92.2737 152.988L94.2233 142.46" stroke="#575D68" stroke-width="0.5" stroke-miterlimit="10"/>
<path d="M94.2231 157.199L87.1265 163.594" stroke="#575D68" stroke-width="0.5" stroke-miterlimit="10"/>
<path d="M67.8649 198.219L64.8235 214.908C64.7456 215.298 64.9795 215.688 65.3694 215.844L67.7089 216.702C68.1768 216.858 68.7228 216.546 68.8007 216.078L71.6082 198.999C71.6862 198.531 71.3742 198.141 70.9843 198.063L68.8787 197.596C68.4108 197.44 67.9429 197.751 67.8649 198.219Z" stroke="#575D68" stroke-width="0.5" stroke-miterlimit="10"/>
<path d="M77.2233 182.7C77.2233 182.7 77.1453 187.925 74.6498 190.733C72.3882 193.228 70.5946 193.774 70.5946 193.774L69.9707 197.829" stroke="#575D68" stroke-width="0.5" stroke-miterlimit="10"/>
<path d="M66.3832 216.312C66.3832 216.312 62.172 231.363 60.6123 237.68C59.0526 243.763 56.9471 261.231 57.0251 269.965C57.0251 276.36 58.1948 281.429 58.1948 281.429" stroke="#575D68" stroke-width="0.5" stroke-miterlimit="10"/>
<path d="M65.2134 293.829C65.7593 292.659 71.4521 289.228 73.0898 290.787" stroke="#575D68" stroke-width="0.5" stroke-miterlimit="10"/>
<path d="M66.7729 296.012C67.3188 294.843 72.1539 291.255 74.7274 292.737" stroke="#575D68" stroke-width="0.5" stroke-miterlimit="10"/>
<path d="M68.7231 297.962C69.269 296.792 73.9481 293.361 76.1317 294.609" stroke="#575D68" stroke-width="0.5" stroke-miterlimit="10"/>
<path d="M108.807 280.103C109.041 279.246 111.614 276.672 113.798 275.736" stroke="#575D68" stroke-width="0.5" stroke-miterlimit="10"/>
<path d="M113.719 282.287C113.953 281.429 116.526 278.856 118.71 277.92" stroke="#575D68" stroke-width="0.5" stroke-miterlimit="10"/>
<path d="M118.009 284.159C118.243 283.301 120.816 280.727 123 279.792" stroke="#575D68" stroke-width="0.5" stroke-miterlimit="10"/>
<path d="M64.0439 301.627C64.0439 301.627 67.5532 307.008 73.5581 307.008C79.5629 307.008 82.6823 303.343 82.6823 303.343" stroke="#575D68" stroke-width="0.5" stroke-miterlimit="10"/>
<path d="M114.188 289.773C114.188 289.773 122.844 292.425 126.353 291.333C132.982 289.384 134.697 285.718 134.697 285.718" stroke="#575D68" stroke-width="0.5" stroke-miterlimit="10"/>
<path d="M71.3735 53.4796C71.3735 53.4796 71.8414 59.0165 73.5571 63.2277L71.3735 53.4796Z" fill="#F6F6F6"/>
<path d="M71.3735 53.4796C71.3735 53.4796 71.8414 59.0165 73.5571 63.2277" stroke="#575D68" stroke-width="0.5" stroke-miterlimit="10"/>
<path d="M81.9009 47.6307C81.9009 47.6307 87.9057 50.4382 92.2728 50.6722C98.5896 51.0621 102.645 48.2546 102.645 48.2546" stroke="#575D68" stroke-width="0.5" stroke-miterlimit="10"/>
<path d="M73.3237 179.971L70.5942 192.76" stroke="#575D68" stroke-width="0.5" stroke-miterlimit="10"/>
<path d="M192.327 313.091L219.7 328.922L272.106 298.898L272.418 238.148L217.516 267.314L192.327 252.809V313.091Z" fill="#F6F6F6" stroke="#575D68" stroke-width="0.5" stroke-miterlimit="10"/>
<path d="M192.485 252.497L245.592 222.317L272.419 238.226L219.545 268.952L192.485 253.043C192.251 252.887 192.251 252.575 192.485 252.497Z" fill="#F6F6F6" stroke="#575D68" stroke-width="0.5" stroke-miterlimit="10"/>
<path d="M272.418 245.01L219.545 275.736L192.484 259.827" stroke="#575D68" stroke-width="0.5" stroke-miterlimit="10"/>
<path d="M219.701 268.874V328.922" stroke="#575D68" stroke-width="0.5" stroke-miterlimit="10"/>
<path d="M126.586 82.334V202.275L128.614 203.522L287.625 111.656L288.404 -8.98621L286.377 -10L126.586 82.334Z" fill="#F6F6F6" stroke="#575D68" stroke-width="0.5" stroke-miterlimit="10"/>
<path d="M128.615 83.4258V203.522L288.406 111.656V-8.98621L128.615 83.4258Z" fill="#F6F6F6" stroke="#575D68" stroke-width="0.5" stroke-miterlimit="10"/>
<path d="M137.115 184.104L283.493 99.9587" stroke="#575D68" stroke-width="0.5" stroke-miterlimit="10"/>
<path d="M137.115 174.122L283.493 90.0547" stroke="#575D68" stroke-width="0.5" stroke-miterlimit="10"/>
<path d="M137.115 164.218L283.493 80.0725" stroke="#575D68" stroke-width="0.5" stroke-miterlimit="10"/>
<path d="M137.115 154.236L283.493 70.1685" stroke="#575D68" stroke-width="0.5" stroke-miterlimit="10"/>
<path d="M137.115 144.332L283.493 60.1864" stroke="#575D68" stroke-width="0.5" stroke-miterlimit="10"/>
<path d="M137.115 134.35L283.493 50.2823" stroke="#575D68" stroke-width="0.5" stroke-miterlimit="10"/>
<path d="M137.115 124.446L283.493 40.3003" stroke="#575D68" stroke-width="0.5" stroke-miterlimit="10"/>
<path d="M137.115 114.464L283.493 30.3962" stroke="#575D68" stroke-width="0.5" stroke-miterlimit="10"/>
<path d="M137.115 104.56L283.493 20.4142" stroke="#575D68" stroke-width="0.5" stroke-miterlimit="10"/>
<path d="M137.115 94.5778L283.493 10.5101" stroke="#575D68" stroke-width="0.5" stroke-miterlimit="10"/>
<path d="M153.803 107.991C153.725 110.409 152.244 112.358 150.606 112.436C148.968 112.514 147.72 110.565 147.798 108.225C147.876 105.808 149.358 103.858 150.996 103.78C152.711 103.702 153.959 105.574 153.803 107.991Z" fill="#FF4F12" stroke="#575D68" stroke-width="0.5" stroke-miterlimit="10"/>
<path d="M178.292 111.501C178.214 113.918 176.732 115.868 175.095 115.946C173.457 116.024 172.209 114.074 172.287 111.734C172.365 109.317 173.847 107.367 175.485 107.289C177.2 107.211 178.448 109.083 178.292 111.501Z" fill="#FF4F12" stroke="#575D68" stroke-width="0.5" stroke-miterlimit="10"/>
<path d="M236.078 42.1719C236 44.5894 234.518 46.5391 232.881 46.617C231.243 46.695 229.995 44.7454 230.073 42.4058C230.151 39.9883 231.633 38.0387 233.271 37.9607C234.986 37.8827 236.234 39.7544 236.078 42.1719Z" fill="#FF4F12" stroke="#575D68" stroke-width="0.5" stroke-miterlimit="10"/>
<path d="M226.329 132.323C226.251 134.74 224.769 136.69 223.132 136.768C221.494 136.846 220.246 134.896 220.324 132.557C220.402 130.139 221.884 128.189 223.522 128.111C225.237 128.033 226.485 129.905 226.329 132.323Z" fill="#FF4F12" stroke="#575D68" stroke-width="0.5" stroke-miterlimit="10"/>
<path d="M248.477 92.9401C248.321 95.3576 246.839 97.3853 245.124 97.4633C243.408 97.5412 242.16 95.5916 242.316 93.1741C242.472 90.7566 243.954 88.7289 245.67 88.6509C247.307 88.573 248.633 90.5226 248.477 92.9401Z" fill="#FF4F12" stroke="#575D68" stroke-width="0.5" stroke-miterlimit="10"/>
<path d="M253.313 47.4749C253.157 49.8924 251.675 51.998 249.96 51.998C248.244 52.076 246.996 50.1264 247.074 47.7089C247.23 45.2913 248.712 43.1858 250.428 43.1078C252.143 43.1078 253.469 44.9794 253.313 47.4749Z" fill="#FF4F12" stroke="#575D68" stroke-width="0.5" stroke-miterlimit="10"/>
<path d="M197.788 94.6557C197.632 97.0733 196.228 99.0229 194.512 99.1009C192.875 99.1789 191.549 97.2292 191.705 94.8117C191.861 92.3942 193.265 90.4446 194.98 90.3666C196.696 90.3666 197.944 92.2382 197.788 94.6557Z" fill="#FF4F12" stroke="#575D68" stroke-width="0.5" stroke-miterlimit="10"/>
<path d="M197.397 124.758C197.241 127.176 195.837 129.125 194.121 129.203C192.484 129.281 191.158 127.331 191.314 124.992C191.47 122.574 192.873 120.625 194.589 120.547C196.227 120.469 197.475 122.34 197.397 124.758Z" fill="#FF4F12" stroke="#575D68" stroke-width="0.5" stroke-miterlimit="10"/>
<path d="M160.51 160.709C160.432 163.048 158.951 164.998 157.313 165.076C155.675 165.076 154.427 163.204 154.505 160.865C154.583 158.525 156.065 156.576 157.703 156.498C159.34 156.42 160.666 158.291 160.51 160.709Z" fill="#FF4F12" stroke="#575D68" stroke-width="0.5" stroke-miterlimit="10"/>
<path d="M278.346 62.4479C278.191 64.8655 276.709 66.971 274.993 66.971C273.278 67.049 271.952 65.0994 272.108 62.6819C272.264 60.2644 273.745 58.1588 275.461 58.0808C277.177 58.0808 278.502 60.0304 278.346 62.4479Z" fill="#FF4F12" stroke="#575D68" stroke-width="0.5" stroke-miterlimit="10"/>
<path d="M216.426 69.3107C216.27 71.7282 214.866 73.7558 213.151 73.8338C211.435 73.9118 210.187 71.9622 210.343 69.5447C210.499 67.1271 211.903 65.0995 213.619 65.0215C215.256 64.9436 216.582 66.8932 216.426 69.3107Z" fill="#FF4F12" stroke="#575D68" stroke-width="0.5" stroke-miterlimit="10"/>
<g style="mix-blend-mode:multiply">
<path d="M222.82 250.157V258.502" stroke="#575D68" stroke-width="0.5" stroke-miterlimit="10"/>
</g>
<path d="M203.558 247.818L203.324 239.084L233.894 222.317L253.39 232.689V240.799L222.664 258.502L203.558 247.818Z" fill="#F6F6F6" stroke="#575D68" stroke-width="0.5" stroke-miterlimit="10"/>
<path d="M227.344 239.707C230.962 239.707 233.894 238.136 233.894 236.198C233.894 234.26 230.962 232.689 227.344 232.689C223.726 232.689 220.793 234.26 220.793 236.198C220.793 238.136 223.726 239.707 227.344 239.707Z" fill="#F8D5C8" stroke="#575D68" stroke-width="0.5" stroke-miterlimit="10"/>
<path d="M203.324 239.083L222.82 250.157L253.39 232.689" stroke="#575D68" stroke-width="0.5" stroke-miterlimit="10"/>
<path d="M224.693 250.703C224.459 250.859 224.303 251.093 224.303 251.405V252.965L229.45 250.001C229.684 249.845 229.84 249.611 229.84 249.3V247.818L224.693 250.703Z" fill="#F6F6F6" stroke="#575D68" stroke-width="0.5" stroke-miterlimit="10"/>
<path d="M250.505 238.616C250.349 239.707 249.569 240.565 248.867 240.565C248.243 240.565 247.854 239.941 247.854 239.161C247.854 238.304 248.321 237.29 249.101 236.978C249.959 236.588 250.661 237.368 250.505 238.616Z" fill="#F6F6F6" stroke="#575D68" stroke-width="0.5" stroke-miterlimit="10"/>
<g style="mix-blend-mode:multiply">
<path d="M129 203.5L221.793 237.698L232 234L288.5 111.5L129 203.5Z" fill="url(#paint16_linear_3_24328)"/>
</g>
<defs>
<linearGradient id="paint0_linear_3_24328" x1="61.665" y1="159.825" x2="115.032" y2="159.825" gradientUnits="userSpaceOnUse">
<stop offset="0.0874315" stop-color="white" stop-opacity="0"/>
<stop offset="0.9044" stop-color="#EAEAEA"/>
</linearGradient>
<linearGradient id="paint1_linear_3_24328" x1="73.3167" y1="64.5568" x2="84.1913" y2="47.2855" gradientUnits="userSpaceOnUse">
<stop offset="0.0874315" stop-color="white" stop-opacity="0"/>
<stop offset="0.9044" stop-color="#EAEAEA"/>
</linearGradient>
<linearGradient id="paint2_linear_3_24328" x1="69.5281" y1="42.0317" x2="108.167" y2="42.0317" gradientUnits="userSpaceOnUse">
<stop offset="0.0874315" stop-color="white" stop-opacity="0"/>
<stop offset="0.9044" stop-color="#EAEAEA"/>
</linearGradient>
<linearGradient id="paint3_linear_3_24328" x1="118.197" y1="118.702" x2="97.4428" y2="88.5666" gradientUnits="userSpaceOnUse">
<stop offset="0.0874315" stop-color="white" stop-opacity="0"/>
<stop offset="0.9044" stop-color="#EAEAEA"/>
</linearGradient>
<linearGradient id="paint4_linear_3_24328" x1="73.5318" y1="99.6556" x2="103.671" y2="99.6556" gradientUnits="userSpaceOnUse">
<stop offset="0.0874315" stop-color="white" stop-opacity="0"/>
<stop offset="0.9044" stop-color="#EAEAEA"/>
</linearGradient>
<linearGradient id="paint5_linear_3_24328" x1="85.954" y1="118.55" x2="90.6449" y2="143.568" gradientUnits="userSpaceOnUse">
<stop offset="0.0874315" stop-color="white" stop-opacity="0"/>
<stop offset="0.9044" stop-color="#EAEAEA"/>
</linearGradient>
<linearGradient id="paint6_linear_3_24328" x1="84.2738" y1="70.2305" x2="112.014" y2="198.641" gradientUnits="userSpaceOnUse">
<stop offset="0.0874536" stop-color="#F6F6F6"/>
<stop offset="0.184" stop-color="#F1ECF7"/>
<stop offset="0.5047" stop-color="#E5D1FC"/>
<stop offset="0.7874" stop-color="#DDC0FE"/>
<stop offset="1" stop-color="#DABAFF"/>
</linearGradient>
<linearGradient id="paint7_linear_3_24328" x1="99.884" y1="88.3706" x2="108.169" y2="88.3706" gradientUnits="userSpaceOnUse">
<stop offset="0.0874536" stop-color="#F6F6F6"/>
<stop offset="0.184" stop-color="#F1ECF7"/>
<stop offset="0.5047" stop-color="#E5D1FC"/>
<stop offset="0.7874" stop-color="#DDC0FE"/>
<stop offset="1" stop-color="#DABAFF"/>
</linearGradient>
<linearGradient id="paint8_linear_3_24328" x1="61.6655" y1="159.825" x2="115.033" y2="159.825" gradientUnits="userSpaceOnUse">
<stop offset="0.0874315" stop-color="white" stop-opacity="0"/>
<stop offset="0.9044" stop-color="#EAEAEA"/>
</linearGradient>
<linearGradient id="paint9_linear_3_24328" x1="68.737" y1="139.271" x2="138.666" y2="139.271" gradientUnits="userSpaceOnUse">
<stop stop-color="#DABAFF" stop-opacity="0"/>
<stop offset="0.0992638" stop-color="#DFC4FD" stop-opacity="0.26"/>
<stop offset="0.2701" stop-color="#ECE0F9" stop-opacity="0.7076"/>
<stop offset="0.3817" stop-color="#F6F6F6"/>
</linearGradient>
<linearGradient id="paint10_linear_3_24328" x1="73.3172" y1="64.5568" x2="84.1917" y2="47.2855" gradientUnits="userSpaceOnUse">
<stop offset="0.0874315" stop-color="white" stop-opacity="0"/>
<stop offset="0.9044" stop-color="#EAEAEA"/>
</linearGradient>
<linearGradient id="paint11_linear_3_24328" x1="69.5286" y1="42.0317" x2="108.167" y2="42.0317" gradientUnits="userSpaceOnUse">
<stop offset="0.0874315" stop-color="white" stop-opacity="0"/>
<stop offset="0.9044" stop-color="#EAEAEA"/>
</linearGradient>
<linearGradient id="paint12_linear_3_24328" x1="118.197" y1="118.702" x2="97.4433" y2="88.5667" gradientUnits="userSpaceOnUse">
<stop offset="0.0874315" stop-color="white" stop-opacity="0"/>
<stop offset="0.9044" stop-color="#EAEAEA"/>
</linearGradient>
<linearGradient id="paint13_linear_3_24328" x1="73.5323" y1="99.6556" x2="103.671" y2="99.6556" gradientUnits="userSpaceOnUse">
<stop offset="0.0874315" stop-color="white" stop-opacity="0"/>
<stop offset="0.9044" stop-color="#EAEAEA"/>
</linearGradient>
<linearGradient id="paint14_linear_3_24328" x1="76.2704" y1="87.4609" x2="96.5145" y2="87.4609" gradientUnits="userSpaceOnUse">
<stop offset="0.0874536" stop-color="#F6F6F6"/>
<stop offset="0.184" stop-color="#F1ECF7"/>
<stop offset="0.5047" stop-color="#E5D1FC"/>
<stop offset="0.7874" stop-color="#DDC0FE"/>
<stop offset="1" stop-color="#DABAFF"/>
</linearGradient>
<linearGradient id="paint15_linear_3_24328" x1="85.9545" y1="118.55" x2="90.6454" y2="143.568" gradientUnits="userSpaceOnUse">
<stop offset="0.0874315" stop-color="white" stop-opacity="0"/>
<stop offset="0.9044" stop-color="#EAEAEA"/>
</linearGradient>
<linearGradient id="paint16_linear_3_24328" x1="214.446" y1="165.118" x2="244.562" y2="231.372" gradientUnits="userSpaceOnUse">
<stop stop-color="#F6F6F6" stop-opacity="0"/>
<stop offset="1" stop-color="#F8D5C8"/>
</linearGradient>
</defs>
</svg>
