<svg width="345" height="407" viewBox="0 0 345 407" fill="none" xmlns="http://www.w3.org/2000/svg">
<path d="M186.078 206L360.07 306.24" stroke="#CCCCCC" stroke-width="0.5" stroke-miterlimit="10"/>
<path d="M157.23 222.66L331.258 322.934" stroke="#CCCCCC" stroke-width="0.5" stroke-miterlimit="10"/>
<path d="M128.384 239.284L302.447 339.629" stroke="#CCCCCC" stroke-width="0.5" stroke-miterlimit="10"/>
<path d="M99.5381 255.909L273.637 356.289" stroke="#CCCCCC" stroke-width="0.5" stroke-miterlimit="10"/>
<path d="M70.6919 272.568L244.826 372.984" stroke="#CCCCCC" stroke-width="0.5" stroke-miterlimit="10"/>
<path d="M41.8462 289.193L216.015 389.679" stroke="#CCCCCC" stroke-width="0.5" stroke-miterlimit="10"/>
<path d="M13 305.817L187.204 406.338" stroke="#CCCCCC" stroke-width="0.5" stroke-miterlimit="10"/>
<path d="M187.132 406.092L360.139 306.24" stroke="#CCCCCC" stroke-width="0.5" stroke-miterlimit="10"/>
<path d="M158.109 389.397L331.116 289.545" stroke="#CCCCCC" stroke-width="0.5" stroke-miterlimit="10"/>
<path d="M129.087 372.702L302.093 272.815" stroke="#CCCCCC" stroke-width="0.5" stroke-miterlimit="10"/>
<path d="M100.101 356.007L273.108 256.12" stroke="#CCCCCC" stroke-width="0.5" stroke-miterlimit="10"/>
<path d="M71.0771 339.312L244.084 239.425" stroke="#CCCCCC" stroke-width="0.5" stroke-miterlimit="10"/>
<path d="M42.0571 322.582L215.064 222.73" stroke="#CCCCCC" stroke-width="0.5" stroke-miterlimit="10"/>
<path d="M13.0688 305.887L186.075 206" stroke="#CCCCCC" stroke-width="0.5" stroke-miterlimit="10"/>
<path d="M46.792 74.6101V211.736L49.497 213.582L202.685 120.795L205.39 -12.7739L202.685 -14.6187L46.792 74.6101Z" fill="#F6F6F6" stroke="#575D68" stroke-width="0.5" stroke-miterlimit="10"/>
<path d="M49.4966 76.4555V213.582L205.389 122.641V-12.774L49.4966 76.4555Z" fill="#F6F6F6" stroke="#575D68" stroke-width="0.5" stroke-miterlimit="10"/>
<path d="M53.3896 79.106V207.057L201.497 120.657V-5.66699L53.3896 79.106Z" fill="#F6F6F6" stroke="#575D68" stroke-width="0.5" stroke-miterlimit="10"/>
<path d="M95.364 85.9706C80.4352 86.8419 69.0044 104.301 69.0044 123.2C69.0044 140.357 78.5556 153.985 90.9126 155.071C98.3578 155.726 105.796 151.767 111.29 144.726L96.5341 119.331L119.558 124.271C122.432 103.182 111.294 85.0409 95.364 85.9706Z" fill="#DDDEDF"/>
<path d="M140.311 94.1846L136.297 97.1414V129.246L140.506 127.017L140.311 94.1846Z" fill="#DDDEDF"/>
<path d="M148.821 79.9403L144.805 82.3991V123.961L149.014 121.731L148.821 79.9403Z" fill="#DDDEDF"/>
<path d="M157.329 63.2235L153.312 65.6832V119.3L157.522 117.07L157.329 63.2235Z" fill="#DDDEDF"/>
<path d="M165.837 50.6553L161.82 53.1141V115.019L166.03 112.789L165.837 50.6553Z" fill="#DDDEDF"/>
<path d="M174.345 45.2787L170.327 47.7376V109.642L174.538 107.412L174.345 45.2787Z" fill="#DDDEDF"/>
<path d="M182.852 48.902L178.835 51.3608V104.936L183.045 102.706L182.852 48.902Z" fill="#DDDEDF"/>
<path d="M191.36 31.0225L187.344 33.4821V100.147L191.553 97.9178L191.36 31.0225Z" fill="#DDDEDF"/>
<path d="M102.698 123.74L118.516 143.476C120.47 141.441 122.097 139.116 123.341 136.583C124.29 134.652 125.055 132.635 125.627 130.561L102.698 123.74Z" fill="#DDDEDF"/>
<path d="M97.1452 111.032C96.9249 110.161 104.761 77.2249 104.761 77.2249L120.184 68.2892" stroke="#979799" stroke-width="0.5" stroke-miterlimit="10"/>
<path d="M195.179 81.0588L191.715 90.1477L193.989 91.8583" fill="#F6F6F6"/>
<path d="M195.179 81.0588L191.715 90.1477L193.989 91.8583" stroke="#575D68" stroke-width="0.5" stroke-miterlimit="10"/>
<g style="mix-blend-mode:multiply">
<path d="M201.003 305.582L195.468 321.781C194.855 323.576 194.877 325.527 195.529 327.308L195.728 327.85C191.368 327.209 184.785 324.958 182.243 324.052C181.893 323.926 181.52 323.869 181.148 323.887C180.776 323.905 180.411 323.996 180.074 324.156C178.474 324.921 175.792 326.498 176.473 328.227C177.33 330.402 178.668 332.355 180.386 333.941C184.168 337.424 190.105 338.303 194.747 340.823C196.719 341.894 199.579 343.597 201.448 344.732L219.149 336.191L222.69 310.589" fill="#EAEAEA"/>
<path d="M201.003 305.582L195.468 321.781C194.855 323.576 194.877 325.527 195.529 327.308L195.728 327.85C191.368 327.209 184.785 324.958 182.243 324.052C181.893 323.926 181.52 323.869 181.148 323.887C180.776 323.905 180.411 323.996 180.074 324.156C178.474 324.921 175.792 326.498 176.473 328.227C177.33 330.402 178.668 332.355 180.386 333.941C184.168 337.424 190.105 338.303 194.747 340.823C196.719 341.894 199.579 343.597 201.448 344.732L219.149 336.191L222.69 310.589" stroke="#575D68" stroke-width="0.5" stroke-miterlimit="10"/>
</g>
<path d="M175.352 222.719L176.493 277.031C176.516 278.119 176.832 279.18 177.409 280.102C180.306 284.737 189.605 299.922 193.89 310.589C196.376 316.775 201.665 331.427 201.981 332.001C202.698 333.162 203.543 334.239 204.499 335.213C201.217 336.55 199.279 337.076 195.997 338.413L187.836 341.738C185.711 342.604 182.035 342.957 181.236 345.409C180.338 348.169 183.905 350.298 185.941 351.278C188.537 352.532 191.455 352.961 194.303 352.507C199.299 351.692 213.916 346.804 213.916 346.804C213.916 346.804 229.827 344.949 229.439 342.666L227.5 330.738C228.4 330.126 229.056 329.216 229.354 328.168C229.652 327.121 229.571 326.002 229.127 325.007L224.045 313.623C226.657 304.719 222.69 271.572 222.69 271.572C222.69 271.572 230.853 235.828 232.807 224.103C233.364 220.762 233.034 216.642 232.551 208.574C232.551 208.574 200.393 206.126 199.527 207.056C198.661 207.985 175.352 222.719 175.352 222.719Z" fill="#F6F6F6" stroke="#575D68" stroke-width="0.5" stroke-miterlimit="10"/>
<g style="mix-blend-mode:multiply">
<path d="M175.352 222.719L176.493 277.031C176.516 278.119 176.832 279.18 177.409 280.102C180.306 284.737 189.605 299.922 193.89 310.589C196.376 316.775 201.665 331.427 201.981 332.001C202.698 333.162 203.543 334.239 204.499 335.213C201.217 336.55 199.279 337.076 195.997 338.413L187.836 341.738C185.711 342.604 182.035 342.957 181.236 345.409C180.338 348.169 183.905 350.298 185.941 351.278C188.537 352.532 191.455 352.961 194.303 352.507C199.299 351.692 213.916 346.804 213.916 346.804C213.916 346.804 229.827 344.949 229.439 342.666L227.5 330.738C228.4 330.126 229.056 329.216 229.354 328.168C229.652 327.121 229.571 326.002 229.127 325.007L224.045 313.623C226.657 304.719 222.69 271.572 222.69 271.572C222.69 271.572 230.853 235.828 232.807 224.103C233.364 220.762 233.034 216.642 232.551 208.574C232.551 208.574 200.393 206.126 199.527 207.056C198.661 207.985 175.352 222.719 175.352 222.719Z" fill="#EAEAEA"/>
</g>
<path d="M191.016 215.832C191.016 215.832 191.17 224.116 187.801 227.839C185.681 230.181 180.865 229.605 178.97 230.1C177.969 230.361 180.532 266.163 181.12 274.187C181.196 275.232 181.471 276.254 181.931 277.196C185.541 284.605 202.073 318.497 203.952 321.707" stroke="#575D68" stroke-width="0.5" stroke-miterlimit="10"/>
<path d="M178.97 232.586C178.97 232.586 186.065 234.354 190.165 229.185C194.033 224.308 193.907 215.327 193.907 215.327" stroke="#575D68" stroke-width="0.5" stroke-miterlimit="10"/>
<path d="M233.59 210.673C233.59 210.673 225.367 219.312 221.069 218.333C209.052 215.598 200.027 215.131 192.535 219.443C181.905 225.561 175.352 222.719 175.352 222.719L174.381 214.764L184.182 175.469L179.722 157.051L182.982 129.099L199.323 117.808L212.86 113.575L227.394 108.401C227.394 108.401 236.029 102.615 241.543 108.401C245.04 112.07 245.124 130.685 244.444 135.708L234.505 165.323L229.764 183.067L233.59 210.673Z" fill="#F6F6F6" stroke="#575D68" stroke-width="0.5" stroke-miterlimit="10"/>
<path style="mix-blend-mode:multiply" d="M233.59 210.673C233.59 210.673 225.367 219.312 221.069 218.333C209.052 215.598 200.027 215.131 192.535 219.443C181.905 225.561 175.352 222.719 175.352 222.719L174.381 214.764L184.182 175.469L179.722 157.051L182.982 129.099L199.323 117.808L212.86 113.575L227.394 108.401C227.394 108.401 236.029 102.615 241.543 108.401C245.04 112.07 245.124 130.685 244.444 135.708L234.505 165.323L229.764 183.067L233.59 210.673Z" fill="url(#paint0_linear_129_5)"/>
<g style="mix-blend-mode:multiply" opacity="0.27">
<path d="M199.391 161.189L184.099 175.798L174.381 214.764L174.692 214.913L187.342 202.399V185.704L199.391 161.189Z" fill="#EAEAEA"/>
</g>
<path d="M228.718 110.74C224.956 107.49 223.761 100.95 223.761 100.95C223.761 100.95 239.601 91.6753 228.721 75.2122C223.804 67.772 218.14 64.6903 207.392 66.6447C203.066 67.4311 197.95 64.2285 195.727 68.2381C194.836 69.8456 193.761 80.1816 193.761 80.1816C193.761 80.1816 195.643 82.3163 195.387 83.5983C194.516 87.9564 193.761 90.8143 193.761 90.8143C193.761 90.8143 196.958 105.823 198.889 108.955C199.204 109.468 199.645 109.893 200.17 110.188C200.695 110.482 201.287 110.638 201.89 110.639H212.435L212.86 113.574L228.718 110.74" fill="#F6F6F6"/>
<path d="M228.718 110.74C224.956 107.49 223.761 100.95 223.761 100.95C223.761 100.95 239.601 91.6753 228.721 75.2122C223.804 67.772 218.14 64.6903 207.392 66.6447C203.066 67.4311 197.95 64.2285 195.727 68.2381C194.836 69.8456 193.761 80.1816 193.761 80.1816C193.761 80.1816 195.643 82.3163 195.387 83.5983C194.516 87.9563 193.761 90.8143 193.761 90.8143C193.761 90.8143 196.958 105.823 198.889 108.955C199.204 109.468 199.645 109.893 200.17 110.188C200.695 110.482 201.287 110.638 201.89 110.639H212.435L212.86 113.574L228.718 110.74" stroke="#575D68" stroke-width="0.5" stroke-miterlimit="10"/>
<path d="M199.665 61.7341C199.573 61.7335 199.482 61.7294 199.392 61.7217C197.557 61.5639 195.543 60.6572 193.73 60.2478C193.666 60.2248 193.599 60.2145 193.532 60.2176C193.464 60.2207 193.398 60.237 193.338 60.2658C193.287 60.3105 193.246 60.3651 193.217 60.4261C193.188 60.4871 193.172 60.5534 193.169 60.6209C192.912 62.2907 192.993 63.9951 193.406 65.6333C193.819 67.2716 194.556 68.8103 195.574 70.1587C197.524 72.7519 201.101 73.3298 202.767 76.216C203.923 78.2184 204.047 81.0803 204.067 83.3442C204.083 85.0663 203.888 86.7803 203.882 88.5001C203.872 91.055 204.779 91.0482 207.308 90.3008C208.003 90.0953 208.704 89.9149 209.413 89.7595C210.563 89.3931 211.805 89.4364 212.927 89.8821C213.378 90.148 213.77 90.5039 214.077 90.9276C214.384 91.3512 214.601 91.8337 214.714 92.3448C215.389 94.9027 214.668 97.3078 214.352 99.7797C213.918 103.18 218.044 102.708 220.412 102.37C224.925 101.712 229.035 99.4099 231.953 95.9055C233.109 94.5787 234.077 93.099 234.829 91.5081C238.221 83.9592 237.91 69.5622 227.561 67.8076C226.501 67.6281 225.349 67.5915 224.497 66.9369C224.066 66.5563 223.691 66.1157 223.385 65.6287C222.177 63.985 220.647 62.605 218.888 61.5729C217.129 60.5408 215.177 59.8783 213.153 59.6259C210.14 59.3975 207.11 59.6962 204.2 60.5086C202.77 60.8421 201.153 61.7433 199.665 61.7341Z" fill="#F6F6F6" stroke="#575D68" stroke-width="0.5" stroke-miterlimit="10"/>
<g style="mix-blend-mode:multiply" opacity="0.75">
<path d="M199.665 61.7341C199.573 61.7335 199.482 61.7294 199.392 61.7217C197.557 61.5639 195.543 60.6572 193.73 60.2478C193.666 60.2248 193.599 60.2145 193.532 60.2176C193.464 60.2207 193.398 60.237 193.338 60.2658C193.287 60.3105 193.246 60.3651 193.217 60.4261C193.188 60.4871 193.172 60.5534 193.169 60.6209C192.912 62.2907 192.993 63.9951 193.406 65.6333C193.819 67.2716 194.556 68.8103 195.574 70.1587C197.524 72.7519 201.101 73.3298 202.767 76.216C203.923 78.2184 204.047 81.0803 204.067 83.3442C204.083 85.0663 203.888 86.7803 203.882 88.5001C203.872 91.055 204.779 91.0482 207.308 90.3008C208.003 90.0953 208.704 89.9149 209.413 89.7595C210.563 89.3931 211.805 89.4364 212.927 89.8821C213.378 90.148 213.77 90.5039 214.077 90.9276C214.384 91.3512 214.601 91.8337 214.714 92.3448C215.389 94.9027 214.668 97.3078 214.352 99.7797C213.918 103.18 218.044 102.708 220.412 102.37C224.925 101.712 229.035 99.4099 231.953 95.9055C233.109 94.5787 234.077 93.099 234.829 91.5081C238.221 83.9592 237.91 69.5622 227.561 67.8076C226.501 67.6281 225.349 67.5915 224.497 66.9369C224.066 66.5563 223.691 66.1157 223.385 65.6287C222.177 63.985 220.647 62.605 218.888 61.5729C217.129 60.5408 215.177 59.8783 213.153 59.6259C210.14 59.3975 207.11 59.6962 204.2 60.5086C202.77 60.8421 201.153 61.7433 199.665 61.7341Z" fill="#EAEAEA"/>
</g>
<path d="M206.214 115.653L212.435 110.639L220.391 109.506C221.655 109.327 222.855 108.841 223.888 108.091C224.416 107.708 224.798 107.155 224.969 106.525C225.14 105.895 225.091 105.225 224.829 104.626L228.047 106.066L231.368 109.233L224.927 113.575L206.214 115.653Z" fill="#F6F6F6" stroke="#575D68" stroke-width="0.5" stroke-miterlimit="10"/>
<g style="mix-blend-mode:multiply" opacity="0.5">
<path d="M228.065 73.9984C226.435 74.132 225.089 75.1422 224.614 77.5139C223.88 81.0045 222.049 84.1689 219.389 86.5448C218.89 86.9962 218.001 87.4068 217.572 86.8995C217.927 85.3826 218.268 76.5144 218.268 76.5144C218.268 76.5144 214.016 82.8367 204 85.5725C203.948 86.5482 203.886 87.5235 203.882 88.5004C203.872 91.0553 204.779 91.0485 207.308 90.3011C208.003 90.0957 208.705 89.9152 209.413 89.7598C210.564 89.3934 211.806 89.4367 212.928 89.8824C213.379 90.1483 213.77 90.5042 214.077 90.9279C214.385 91.3515 214.602 91.834 214.714 92.3451C215.389 94.903 214.668 97.308 214.352 99.78C213.918 103.18 218.044 102.709 220.412 102.37C224.925 101.712 229.035 99.4102 231.954 95.9058C233.11 94.579 234.077 93.0993 234.829 91.5084C236.363 87.8404 236.992 83.8573 236.664 79.895C236.443 79.3756 236.178 78.8756 235.873 78.4002C234.297 75.9938 230.785 73.7755 228.065 73.9984Z" fill="#EAEAEA"/>
</g>
<path d="M216.112 227.576L203.708 269.624C203.468 270.165 203.431 270.774 203.604 271.34C203.777 271.906 204.148 272.391 204.65 272.705L206.214 273.684L227.909 322.28" stroke="#575D68" stroke-width="0.5" stroke-miterlimit="10"/>
<path d="M199.324 117.807C199.324 117.807 201.019 118.657 203.362 124.016C205.705 129.375 206.215 140.388 206.215 140.388" fill="#F6F6F6"/>
<path d="M199.324 117.807C199.324 117.807 201.019 118.657 203.362 124.016C205.705 129.375 206.215 140.388 206.215 140.388" stroke="#575D68" stroke-width="0.5" stroke-miterlimit="10"/>
<path d="M197.384 93.4063L204.262 87.2693C204.402 87.1443 204.567 87.0501 204.746 86.9928C204.924 86.9354 205.113 86.9163 205.3 86.9365C205.487 86.9568 205.667 87.016 205.829 87.1103C205.992 87.2047 206.133 87.3321 206.243 87.4842L211.444 94.6756C211.626 94.9277 211.715 95.2354 211.696 95.5459C211.676 95.8564 211.549 96.1505 211.337 96.3779L201.004 107.443L197.384 93.4063Z" fill="#F6F6F6" stroke="#575D68" stroke-width="0.5" stroke-miterlimit="10"/>
<g style="mix-blend-mode:multiply">
<path d="M197.384 93.4063L204.262 87.2693C204.402 87.1443 204.567 87.0501 204.746 86.9928C204.924 86.9354 205.113 86.9163 205.3 86.9365C205.487 86.9568 205.667 87.016 205.829 87.1103C205.992 87.2047 206.133 87.3321 206.243 87.4842L211.444 94.6756C211.626 94.9277 211.715 95.2354 211.696 95.5459C211.676 95.8564 211.549 96.1505 211.337 96.3779L201.004 107.443L197.384 93.4063Z" fill="#C6C6C6"/>
</g>
<path d="M204.701 87.0096L210.125 94.4736C210.307 94.7257 210.396 95.0333 210.377 95.3439C210.357 95.6544 210.231 95.9485 210.018 96.1759L206.879 99.4813" stroke="#575D68" stroke-width="0.5" stroke-miterlimit="10"/>
<path d="M199.391 161.189L184.183 175.469L166.209 179.231C165.563 179.367 164.896 179.359 164.254 179.21C163.612 179.06 163.01 178.773 162.491 178.367C161.972 177.961 161.547 177.446 161.247 176.859C160.947 176.272 160.779 175.627 160.754 174.968L160.389 165.294C160.022 155.693 162.597 146.209 167.767 138.111C171.699 131.958 178.14 117.82 178.14 117.82L182.727 115.396C182.727 115.396 183.901 113.65 184.383 112.936C185.613 111.112 186.352 110.024 186.352 110.024L192.349 96.6805C193.013 95.0212 194.068 92.6621 195.717 91.9716L197.383 90.8042L199.967 89.3855H201.89L200.687 90.459C199.692 91.347 198.96 92.4918 198.573 93.768C198.185 95.0442 198.156 96.4025 198.489 97.694L200.258 103.139L204.541 101.398L207.652 98.6674L206.489 102.605L201.003 107.443L195.728 113.829L194.514 121.131" fill="#F6F6F6"/>
<path d="M199.391 161.189L184.183 175.469L166.209 179.231C165.563 179.367 164.896 179.359 164.254 179.21C163.612 179.06 163.01 178.773 162.491 178.367C161.972 177.961 161.547 177.446 161.247 176.859C160.947 176.272 160.779 175.627 160.754 174.968L160.389 165.294C160.022 155.693 162.597 146.209 167.767 138.111C171.699 131.958 178.14 117.82 178.14 117.82L182.727 115.396C182.727 115.396 183.901 113.65 184.383 112.936C185.613 111.112 186.352 110.024 186.352 110.024L192.349 96.6805C193.013 95.0212 194.068 92.6621 195.717 91.9716L197.383 90.8042L199.967 89.3855H201.89L200.687 90.459C199.692 91.347 198.96 92.4918 198.573 93.768C198.185 95.0442 198.156 96.4025 198.489 97.694L200.258 103.139L204.541 101.398L207.652 98.6674L206.489 102.605L201.003 107.443L195.728 113.829L194.514 121.131" stroke="#575D68" stroke-width="0.5" stroke-miterlimit="10"/>
<path d="M186.351 110.024C186.351 110.024 187.629 112.004 192.148 113.575C193.279 114.056 194.539 114.145 195.727 113.828" fill="#F6F6F6"/>
<path d="M186.351 110.024C186.351 110.024 187.629 112.004 192.148 113.575C193.279 114.056 194.539 114.145 195.727 113.828" stroke="#575D68" stroke-width="0.5" stroke-miterlimit="10"/>
<path d="M182.53 115.395C182.53 115.395 183.329 117.132 187.573 119.34C190.066 120.637 194.514 121.131 194.514 121.131L182.125 134.484C182.125 134.484 173.266 149.431 171.815 152.914C170.364 156.396 168.213 165.248 168.213 165.248" fill="#F6F6F6"/>
<path d="M182.53 115.395C182.53 115.395 183.329 117.132 187.573 119.34C190.066 120.637 194.514 121.131 194.514 121.131L182.125 134.484C182.125 134.484 173.266 149.431 171.815 152.914C170.364 156.396 168.213 165.248 168.213 165.248" stroke="#575D68" stroke-width="0.5" stroke-miterlimit="10"/>
<path d="M208.594 334.454C213.565 334.454 221.236 333.509 227.499 330.738" stroke="#575D68" stroke-width="0.5" stroke-miterlimit="10"/>
<path d="M204.316 335.025C208.594 337.66 221.671 335.007 227.91 332.787" stroke="#575D68" stroke-width="0.5" stroke-miterlimit="10"/>
<path d="M195.16 327.763C198.194 330.357 198.216 330.673 201.981 332.001" stroke="#575D68" stroke-width="0.5" stroke-miterlimit="10"/>
<path d="M195.16 325.644C196.891 327.232 198.866 328.531 201.009 329.491" stroke="#575D68" stroke-width="0.5" stroke-miterlimit="10"/>
<path d="M229.06 340.331C229.06 340.331 223.329 343.985 216.777 343.534C212.267 343.222 210.676 344.731 210.676 344.731C210.676 344.731 201.932 349.722 194.634 350.312C185.409 351.058 181.237 345.409 181.237 345.409" stroke="#575D68" stroke-width="0.5" stroke-miterlimit="10"/>
<path d="M177.643 326.108C179.013 329.145 181.198 331.744 183.955 333.615C185.249 334.449 186.595 335.199 187.985 335.861C190.377 337.062 193.606 337.211 195.998 338.413" stroke="#575D68" stroke-width="0.5" stroke-miterlimit="10"/>
<path d="M201.891 110.639C202.075 111.241 209.998 108.922 212.597 106.066L201.891 110.639Z" fill="#F6F6F6"/>
<path d="M201.891 110.639C202.075 111.241 209.998 108.922 212.597 106.066" stroke="#575D68" stroke-width="0.5" stroke-miterlimit="10"/>
<path d="M217.124 180.732L229.764 183.067C229.799 183.073 229.831 183.091 229.855 183.118C229.879 183.146 229.893 183.18 229.895 183.216C229.896 183.252 229.886 183.287 229.865 183.317C229.844 183.346 229.814 183.367 229.779 183.377L220.004 186.216" stroke="#575D68" stroke-width="0.5" stroke-miterlimit="10"/>
<path d="M204.463 91.9415C205.112 91.2924 205.26 90.388 204.793 89.9213C204.326 89.4547 203.422 89.6025 202.773 90.2516C202.124 90.9006 201.976 91.8051 202.443 92.2717C202.909 92.7384 203.814 92.5905 204.463 91.9415Z" fill="#575D68"/>
<g style="mix-blend-mode:multiply" opacity="0.27">
<path d="M216.113 227.576L199.528 266.524L196.126 271.076L218.047 324.138L227.543 331.002L227.5 330.738C228.4 330.126 229.057 329.216 229.354 328.168C229.652 327.121 229.572 326.002 229.128 325.008L224.045 313.623C225.378 309.079 224.997 298.226 224.305 288.683L217.125 272.739L229.06 236.91L232.552 208.574L216.113 227.576Z" fill="#EAEAEA"/>
</g>
<g style="mix-blend-mode:multiply" opacity="0.27">
<path d="M199.092 161.469L179.506 167.885L174.569 169.497C172.058 170.317 169.357 170.354 166.825 169.604C164.292 168.853 162.048 167.349 160.389 165.293L160.754 174.968C160.779 175.626 160.947 176.272 161.247 176.859C161.547 177.446 161.972 177.96 162.491 178.366C163.011 178.772 163.613 179.06 164.255 179.209C164.897 179.358 165.564 179.366 166.209 179.231L184.183 175.468L199.092 161.469Z" fill="#EAEAEA"/>
</g>
<g style="mix-blend-mode:multiply" opacity="0.27">
<path d="M229.371 107.328L231.368 109.232C234.561 115.525 236.378 122.426 236.698 129.475C237.018 136.525 235.833 143.562 233.223 150.118L229.366 159.887L216.216 178.917C214.947 180.986 213.813 183.134 212.819 185.348C212.819 185.348 213.669 190.393 220.282 191.646C222.849 192.132 210.747 192.821 211.108 195.365L213.233 215.267C215.98 215.644 218.884 216.184 221.976 216.865C225.236 217.583 230.623 210.677 233.489 209.781L229.764 183.066L234.505 165.322L244.443 135.707C245.124 130.685 245.04 112.069 241.543 108.4C237.661 104.327 232.244 105.987 229.371 107.328Z" fill="#EAEAEA"/>
</g>
<path d="M217.124 100.694C220.999 100.896 224.823 99.7422 227.939 97.4306C229.72 96.1122 231.274 94.511 232.538 92.6904" stroke="#575D68" stroke-width="0.5" stroke-miterlimit="10"/>
<path d="M106.038 63.4376V73.7996L111.621 70.4765V60.1144L106.038 63.4376Z" fill="#DDDEDF"/>
<path d="M113.159 59.4715V69.8335L118.741 66.5104V56.1483L113.159 59.4715Z" fill="#DDDEDF"/>
<path d="M46.7925 74.6104V211.737L49.4975 213.582L202.685 120.796L205.39 -12.7735L202.685 -14.6183L46.7925 74.6104Z" fill="#F6F6F6" stroke="#575D68" stroke-width="0.5" stroke-miterlimit="10"/>
<path d="M49.4971 76.4559V213.582L205.39 122.641V-12.7737L49.4971 76.4559Z" fill="#F6F6F6" stroke="#575D68" stroke-width="0.5" stroke-miterlimit="10"/>
<path d="M53.3901 79.1063V207.057L201.497 120.658V-5.66663L53.3901 79.1063Z" fill="#F6F6F6" stroke="#575D68" stroke-width="0.5" stroke-miterlimit="10"/>
<path opacity="0.8" d="M95.3645 85.971C80.4357 86.8423 69.0049 104.301 69.0049 123.201C69.0049 140.357 78.556 153.985 90.9131 155.072C98.3583 155.726 105.797 151.767 111.29 144.726L96.5346 119.332L119.558 124.272C122.433 103.182 111.295 85.0412 95.3645 85.971Z" fill="#FF4F12"/>
<path opacity="0.4" d="M140.312 94.1851L136.297 97.1419V129.246L140.507 127.017L140.312 94.1851Z" fill="#FF4F12"/>
<path opacity="0.4" d="M148.822 79.9407L144.805 82.3995V123.961L149.015 121.731L148.822 79.9407Z" fill="#FF4F12"/>
<path opacity="0.4" d="M157.33 63.2239L153.312 65.6836V119.3L157.523 117.07L157.33 63.2239Z" fill="#FF4F12"/>
<path opacity="0.4" d="M165.838 50.6556L161.82 53.1145V115.019L166.031 112.789L165.838 50.6556Z" fill="#FF4F12"/>
<path opacity="0.8" d="M174.345 45.2791L170.328 47.7379V109.643L174.538 107.413L174.345 45.2791Z" fill="#FF4F12"/>
<path opacity="0.4" d="M182.853 48.9023L178.836 51.3612V104.936L183.046 102.706L182.853 48.9023Z" fill="#FF4F12"/>
<path opacity="0.8" d="M191.361 31.0228L187.344 33.4825V100.147L191.554 97.9182L191.361 31.0228Z" fill="#FF4F12"/>
<path opacity="0.4" d="M102.699 123.741L118.516 143.477C120.47 141.441 122.098 139.116 123.341 136.583C124.29 134.652 125.055 132.636 125.627 130.561L102.699 123.741Z" fill="#FF4F12"/>
<path d="M97.1457 111.032C96.9254 110.161 104.762 77.2253 104.762 77.2253L120.184 68.2896" stroke="#979799" stroke-width="0.5" stroke-miterlimit="10"/>
<path d="M195.18 81.0592L191.716 90.1481L193.989 91.8587" fill="#F6F6F6"/>
<path d="M195.18 81.0592L191.716 90.1481L193.989 91.8587" stroke="#575D68" stroke-width="0.5" stroke-miterlimit="10"/>
<g style="mix-blend-mode:multiply">
<path d="M201.004 305.583L195.469 321.782C194.856 323.576 194.877 325.527 195.529 327.308L195.728 327.851C191.369 327.209 184.786 324.958 182.244 324.053C181.893 323.926 181.521 323.87 181.149 323.888C180.776 323.905 180.411 323.997 180.074 324.156C178.474 324.921 175.793 326.498 176.473 328.228C177.331 330.402 178.669 332.355 180.386 333.941C184.168 337.425 190.105 338.303 194.747 340.824C196.719 341.894 199.579 343.598 201.449 344.732L219.149 336.192L222.691 310.59" fill="#EAEAEA"/>
</g>
<path d="M175.352 222.719L176.494 277.031C176.516 278.119 176.832 279.18 177.409 280.102C180.306 284.737 189.606 299.922 193.891 310.589C196.376 316.776 201.666 331.428 201.982 332.001C202.699 333.162 203.543 334.24 204.499 335.214C201.217 336.55 199.28 337.076 195.998 338.413L187.836 341.738C185.712 342.604 182.035 342.957 181.237 345.41C180.338 348.17 183.906 350.298 185.941 351.278C188.537 352.532 191.456 352.961 194.303 352.508C199.299 351.692 213.916 346.804 213.916 346.804C213.916 346.804 229.828 344.949 229.439 342.666L227.5 330.738C228.4 330.126 229.057 329.216 229.354 328.169C229.652 327.121 229.572 326.002 229.128 325.008L224.045 313.623C226.658 304.719 222.691 271.573 222.691 271.573C222.691 271.573 230.853 235.829 232.808 224.103C233.365 220.762 233.035 216.643 232.552 208.574C232.552 208.574 200.393 206.127 199.528 207.056C198.662 207.985 175.352 222.719 175.352 222.719Z" fill="#F6F6F6" stroke="#575D68" stroke-width="0.5" stroke-miterlimit="10"/>
<g style="mix-blend-mode:multiply">
<path d="M175.352 222.719L176.494 277.031C176.516 278.119 176.832 279.18 177.409 280.102C180.306 284.737 189.606 299.922 193.891 310.589C196.376 316.776 201.666 331.428 201.982 332.001C202.699 333.162 203.543 334.24 204.499 335.214C201.217 336.55 199.28 337.076 195.998 338.413L187.836 341.738C185.712 342.604 182.035 342.957 181.237 345.41C180.338 348.17 183.906 350.298 185.941 351.278C188.537 352.532 191.456 352.961 194.303 352.508C199.299 351.692 213.916 346.804 213.916 346.804C213.916 346.804 229.828 344.949 229.439 342.666L227.5 330.738C228.4 330.126 229.057 329.216 229.354 328.169C229.652 327.121 229.572 326.002 229.128 325.008L224.045 313.623C226.658 304.719 222.691 271.573 222.691 271.573C222.691 271.573 230.853 235.829 232.808 224.103C233.365 220.762 233.035 216.643 232.552 208.574C232.552 208.574 200.393 206.127 199.528 207.056C198.662 207.985 175.352 222.719 175.352 222.719Z" fill="#EAEAEA"/>
</g>
<path d="M191.017 215.833C191.017 215.833 191.171 224.116 187.801 227.839C185.682 230.181 180.865 229.606 178.97 230.1C177.969 230.362 180.533 266.163 181.12 274.187C181.196 275.233 181.472 276.254 181.931 277.196C185.542 284.606 202.073 318.498 203.952 321.707" stroke="#575D68" stroke-width="0.5" stroke-miterlimit="10"/>
<path d="M178.97 232.586C178.97 232.586 186.065 234.354 190.165 229.186C194.034 224.308 193.908 215.327 193.908 215.327" stroke="#575D68" stroke-width="0.5" stroke-miterlimit="10"/>
<path d="M233.59 210.673C233.59 210.673 225.368 219.312 221.07 218.334C209.053 215.598 200.028 215.131 192.535 219.444C181.906 225.561 175.352 222.719 175.352 222.719L174.381 214.764L184.183 175.469L179.722 157.051L182.983 129.099L199.324 117.809L212.86 113.575L227.395 108.401C227.395 108.401 236.029 102.615 241.544 108.401C245.04 112.07 245.125 130.686 244.444 135.708L234.506 165.323L229.765 183.067L233.59 210.673Z" fill="#F6F6F6" stroke="#575D68" stroke-width="0.5" stroke-miterlimit="10"/>
<path d="M233.59 210.673C233.59 210.673 225.368 219.312 221.07 218.334C209.053 215.598 200.028 215.131 192.535 219.444C181.906 225.561 175.352 222.719 175.352 222.719L174.381 214.764L184.183 175.469L179.722 157.051L182.983 129.099L199.324 117.809L212.86 113.575L227.395 108.401C227.395 108.401 236.029 102.615 241.544 108.401C245.04 112.07 245.125 130.686 244.444 135.708L234.506 165.323L229.765 183.067L233.59 210.673Z" fill="url(#paint1_linear_129_5)" stroke="#333333" stroke-width="0.5" stroke-miterlimit="10"/>
<g style="mix-blend-mode:multiply" opacity="0.27">
<path d="M199.391 161.19L184.099 175.799L174.381 214.764L174.692 214.913L187.342 202.399V185.705L199.391 161.19Z" fill="#EAEAEA"/>
</g>
<path d="M228.718 110.74C224.957 107.49 223.762 100.95 223.762 100.95C223.762 100.95 239.601 91.6757 228.722 75.2126C223.805 67.7723 218.141 64.6907 207.392 66.645C203.067 67.4314 197.951 64.2288 195.728 68.2385C194.837 69.846 193.761 80.182 193.761 80.182C193.761 80.182 195.644 82.3167 195.387 83.5987C194.516 87.9567 193.761 90.8146 193.761 90.8146C193.761 90.8146 196.959 105.823 198.889 108.955C199.204 109.469 199.645 109.893 200.17 110.188C200.696 110.483 201.288 110.638 201.89 110.639H212.436L212.86 113.575L228.718 110.74" fill="#F6F6F6"/>
<path d="M228.718 110.74C224.957 107.49 223.762 100.95 223.762 100.95C223.762 100.95 239.601 91.6757 228.722 75.2126C223.805 67.7723 218.141 64.6907 207.392 66.645C203.067 67.4314 197.951 64.2288 195.728 68.2385C194.837 69.846 193.761 80.182 193.761 80.182C193.761 80.182 195.644 82.3167 195.387 83.5987C194.516 87.9567 193.761 90.8146 193.761 90.8146C193.761 90.8146 196.959 105.823 198.889 108.955C199.204 109.469 199.645 109.893 200.17 110.188C200.696 110.483 201.288 110.638 201.89 110.639H212.436L212.86 113.575L228.718 110.74" stroke="#575D68" stroke-width="0.5" stroke-miterlimit="10"/>
<path d="M199.665 61.7344C199.574 61.7339 199.483 61.7298 199.392 61.7221C197.558 61.5643 195.544 60.6575 193.73 60.2482C193.667 60.2251 193.6 60.2149 193.532 60.2179C193.465 60.221 193.399 60.2374 193.338 60.2661C193.287 60.3109 193.246 60.3654 193.217 60.4265C193.188 60.4875 193.172 60.5537 193.169 60.6212C192.913 62.2911 192.993 63.9955 193.406 65.6337C193.819 67.2719 194.557 68.8107 195.575 70.1591C197.524 72.7522 201.102 73.3302 202.768 76.2164C203.923 78.2188 204.048 81.0807 204.068 83.3446C204.083 85.0667 203.889 86.7807 203.882 88.5005C203.872 91.0554 204.779 91.0486 207.308 90.3012C208.003 90.0957 208.705 89.9153 209.413 89.7598C210.564 89.3935 211.806 89.4368 212.928 89.8825C213.379 90.1484 213.77 90.5042 214.078 90.9279C214.385 91.3516 214.602 91.834 214.715 92.3452C215.39 94.9031 214.669 97.3081 214.353 99.78C213.918 103.18 218.044 102.709 220.412 102.37C224.925 101.713 229.036 99.4103 231.954 95.9059C233.11 94.5791 234.077 93.0994 234.829 91.5085C238.221 83.9595 237.911 69.5626 227.561 67.808C226.502 67.6284 225.349 67.5919 224.497 66.9373C224.066 66.5566 223.692 66.116 223.386 65.629C222.178 63.9854 220.648 62.6054 218.888 61.5732C217.129 60.5411 215.178 59.8786 213.154 59.6263C210.141 59.3978 207.111 59.6965 204.2 60.509C202.77 60.8424 201.154 61.7437 199.665 61.7344Z" fill="#F6F6F6" stroke="#575D68" stroke-width="0.5" stroke-miterlimit="10"/>
<g style="mix-blend-mode:multiply" opacity="0.75">
<path d="M199.665 61.7344C199.574 61.7339 199.483 61.7298 199.392 61.7221C197.558 61.5643 195.544 60.6575 193.73 60.2482C193.667 60.2251 193.6 60.2149 193.532 60.2179C193.465 60.221 193.399 60.2374 193.338 60.2661C193.287 60.3109 193.246 60.3654 193.217 60.4265C193.188 60.4875 193.172 60.5537 193.169 60.6212C192.913 62.2911 192.993 63.9955 193.406 65.6337C193.819 67.2719 194.557 68.8107 195.575 70.1591C197.524 72.7522 201.102 73.3302 202.768 76.2164C203.923 78.2188 204.048 81.0807 204.068 83.3446C204.083 85.0667 203.889 86.7807 203.882 88.5005C203.872 91.0554 204.779 91.0486 207.308 90.3012C208.003 90.0957 208.705 89.9153 209.413 89.7598C210.564 89.3935 211.806 89.4368 212.928 89.8825C213.379 90.1484 213.77 90.5042 214.078 90.9279C214.385 91.3516 214.602 91.834 214.715 92.3452C215.39 94.9031 214.669 97.3081 214.353 99.78C213.918 103.18 218.044 102.709 220.412 102.37C224.925 101.713 229.036 99.4103 231.954 95.9059C233.11 94.5791 234.077 93.0994 234.829 91.5085C238.221 83.9595 237.911 69.5626 227.561 67.808C226.502 67.6284 225.349 67.5919 224.497 66.9373C224.066 66.5566 223.692 66.116 223.386 65.629C222.178 63.9854 220.648 62.6054 218.888 61.5732C217.129 60.5411 215.178 59.8786 213.154 59.6263C210.141 59.3978 207.111 59.6965 204.2 60.509C202.77 60.8424 201.154 61.7437 199.665 61.7344Z" fill="#EAEAEA"/>
</g>
<path d="M206.214 115.653L212.436 110.639L220.392 109.507C221.655 109.327 222.855 108.841 223.888 108.092C224.417 107.708 224.798 107.156 224.97 106.525C225.141 105.895 225.091 105.225 224.829 104.627L228.048 106.066L231.369 109.233L224.928 113.575L206.214 115.653Z" fill="url(#paint2_linear_129_5)" stroke="#333333" stroke-width="0.5" stroke-miterlimit="10"/>
<g style="mix-blend-mode:multiply" opacity="0.5">
<path d="M228.065 73.9988C226.435 74.1324 225.089 75.1426 224.615 77.5143C223.881 81.0049 222.05 84.1693 219.389 86.5451C218.89 86.9965 218.001 87.4072 217.573 86.8998C217.927 85.3829 218.268 76.5147 218.268 76.5147C218.268 76.5147 214.017 82.8371 204.001 85.5729C203.949 86.5486 203.886 87.5238 203.882 88.5007C203.872 91.0557 204.78 91.0489 207.308 90.3015C208.003 90.096 208.705 89.9156 209.414 89.7601C210.564 89.3937 211.806 89.4371 212.928 89.8828C213.379 90.1487 213.77 90.5045 214.078 90.9282C214.385 91.3519 214.602 91.8343 214.715 92.3455C215.39 94.9034 214.669 97.3084 214.353 99.7803C213.918 103.181 218.045 102.709 220.413 102.371C224.925 101.713 229.036 99.4105 231.954 95.9062C233.11 94.5794 234.078 93.0997 234.829 91.5088C236.363 87.8407 236.993 83.8577 236.665 79.8954C236.443 79.376 236.179 78.876 235.874 78.4006C234.297 75.9941 230.785 73.7758 228.065 73.9988Z" fill="#EAEAEA"/>
</g>
<path d="M216.113 227.577L203.709 269.624C203.468 270.165 203.431 270.775 203.604 271.341C203.777 271.906 204.149 272.391 204.65 272.705L206.214 273.685L227.91 322.28" stroke="#575D68" stroke-width="0.5" stroke-miterlimit="10"/>
<path d="M199.324 117.808C199.324 117.808 201.02 118.657 203.363 124.016C205.706 129.376 206.215 140.388 206.215 140.388" stroke="#575D68" stroke-width="0.5" stroke-miterlimit="10"/>
<path d="M197.384 93.4067L204.262 87.2697C204.403 87.1447 204.567 87.0505 204.746 86.9931C204.925 86.9358 205.114 86.9167 205.301 86.9369C205.487 86.9572 205.668 87.0164 205.83 87.1107C205.992 87.2051 206.133 87.3324 206.243 87.4846L211.444 94.676C211.626 94.9281 211.716 95.2357 211.696 95.5463C211.677 95.8568 211.55 96.1509 211.338 96.3783L201.004 107.443L197.384 93.4067Z" fill="#F6F6F6" stroke="#575D68" stroke-width="0.5" stroke-miterlimit="10"/>
<path opacity="0.4" d="M197.384 93.4067L204.262 87.2697C204.403 87.1447 204.567 87.0505 204.746 86.9931C204.925 86.9358 205.114 86.9167 205.301 86.9369C205.487 86.9572 205.668 87.0164 205.83 87.1107C205.992 87.2051 206.133 87.3324 206.243 87.4846L211.444 94.676C211.626 94.9281 211.716 95.2357 211.696 95.5463C211.677 95.8568 211.55 96.1509 211.338 96.3783L201.004 107.443L197.384 93.4067Z" fill="#FF4F12"/>
<path d="M204.701 87.01L210.125 94.474C210.308 94.7261 210.397 95.0337 210.377 95.3442C210.358 95.6548 210.231 95.9489 210.019 96.1762L206.879 99.4817" stroke="#575D68" stroke-width="0.5" stroke-miterlimit="10"/>
<path d="M199.392 161.189L184.183 175.469L166.209 179.232C165.564 179.367 164.897 179.359 164.255 179.21C163.613 179.061 163.011 178.773 162.492 178.367C161.972 177.961 161.548 177.447 161.247 176.86C160.947 176.273 160.779 175.627 160.754 174.969L160.389 165.294C160.023 155.693 162.597 146.209 167.768 138.111C171.7 131.958 178.14 117.821 178.14 117.821L182.728 115.396C182.728 115.396 183.902 113.651 184.383 112.937C185.613 111.112 186.352 110.024 186.352 110.024L192.349 96.6808C193.013 95.0215 194.069 92.6624 195.717 91.972L197.384 90.8046L199.968 89.3859H201.891L200.688 90.4594C199.692 91.3474 198.961 92.4922 198.573 93.7684C198.185 95.0445 198.156 96.4028 198.489 97.6944L200.258 103.14L204.541 101.398L207.652 98.6678L206.489 102.605L201.004 107.443L195.728 113.829L194.514 121.132" fill="url(#paint3_linear_129_5)"/>
<path d="M199.392 161.189L184.183 175.469L166.209 179.232C165.564 179.367 164.897 179.359 164.255 179.21C163.613 179.061 163.011 178.773 162.492 178.367C161.972 177.961 161.548 177.447 161.247 176.86C160.947 176.273 160.779 175.627 160.754 174.969L160.389 165.294C160.023 155.693 162.597 146.209 167.768 138.111C171.7 131.958 178.14 117.821 178.14 117.821L182.728 115.396C182.728 115.396 183.902 113.651 184.383 112.937C185.613 111.112 186.352 110.024 186.352 110.024L192.349 96.6808C193.013 95.0215 194.069 92.6624 195.717 91.972L197.384 90.8046L199.968 89.3859H201.891L200.688 90.4594C199.692 91.3474 198.961 92.4922 198.573 93.7684C198.185 95.0445 198.156 96.4028 198.489 97.6944L200.258 103.14L204.541 101.398L207.652 98.6678L206.489 102.605L201.004 107.443L195.728 113.829L194.514 121.132" stroke="#333333" stroke-width="0.5" stroke-miterlimit="10"/>
<path d="M186.352 110.024C186.352 110.024 187.629 112.005 192.148 113.575C193.28 114.056 194.54 114.146 195.728 113.829" fill="#F6F6F6"/>
<path d="M186.352 110.024C186.352 110.024 187.629 112.005 192.148 113.575C193.28 114.056 194.54 114.146 195.728 113.829" stroke="#575D68" stroke-width="0.5" stroke-miterlimit="10"/>
<path d="M182.53 115.396C182.53 115.396 183.33 117.132 187.574 119.34C190.067 120.638 194.514 121.131 194.514 121.131L182.126 134.484C182.126 134.484 173.267 149.431 171.816 152.914C170.365 156.397 168.214 165.249 168.214 165.249" stroke="#575D68" stroke-width="0.5" stroke-miterlimit="10"/>
<path d="M208.594 334.455C213.565 334.455 221.236 333.509 227.5 330.738" stroke="#575D68" stroke-width="0.5" stroke-miterlimit="10"/>
<path d="M204.317 335.025C208.595 337.661 221.672 335.008 227.91 332.788" stroke="#575D68" stroke-width="0.5" stroke-miterlimit="10"/>
<path d="M195.16 327.764C198.195 330.358 198.217 330.674 201.982 332.001" stroke="#575D68" stroke-width="0.5" stroke-miterlimit="10"/>
<path d="M195.16 325.644C196.891 327.232 198.866 328.531 201.01 329.492" stroke="#575D68" stroke-width="0.5" stroke-miterlimit="10"/>
<path d="M229.06 340.332C229.06 340.332 223.33 343.986 216.778 343.534C212.268 343.223 210.677 344.731 210.677 344.731C210.677 344.731 201.932 349.722 194.635 350.312C185.409 351.058 181.237 345.409 181.237 345.409" stroke="#575D68" stroke-width="0.5" stroke-miterlimit="10"/>
<path d="M177.643 326.108C179.013 329.146 181.198 331.744 183.956 333.615C185.249 334.449 186.595 335.2 187.985 335.861C190.377 337.063 193.606 337.212 195.998 338.413" stroke="#575D68" stroke-width="0.5" stroke-miterlimit="10"/>
<path d="M201.891 110.639C202.075 111.242 209.999 108.923 212.597 106.066L201.891 110.639Z" fill="#F6F6F6"/>
<path d="M201.891 110.639C202.075 111.242 209.999 108.923 212.597 106.066" stroke="#575D68" stroke-width="0.5" stroke-miterlimit="10"/>
<path d="M217.125 180.732L229.764 183.067C229.8 183.073 229.832 183.092 229.856 183.119C229.879 183.146 229.893 183.18 229.895 183.216C229.897 183.252 229.886 183.288 229.866 183.317C229.845 183.346 229.815 183.368 229.78 183.378L220.004 186.216" stroke="#575D68" stroke-width="0.5" stroke-miterlimit="10"/>
<path d="M204.463 91.942C205.112 91.2929 205.26 90.3885 204.793 89.9218C204.327 89.4552 203.422 89.603 202.773 90.252C202.124 90.9011 201.976 91.8056 202.443 92.2722C202.91 92.7389 203.814 92.591 204.463 91.942Z" fill="#575D68"/>
<g style="mix-blend-mode:multiply" opacity="0.27">
<path d="M216.114 227.576L199.528 266.525L196.126 271.076L218.048 324.138L227.543 331.003L227.501 330.739C228.401 330.126 229.057 329.216 229.355 328.169C229.653 327.121 229.572 326.002 229.128 325.008L224.046 313.623C225.379 309.08 224.998 298.227 224.306 288.683L217.125 272.739L229.06 236.911L232.552 208.574L216.114 227.576Z" fill="#EAEAEA"/>
</g>
<g style="mix-blend-mode:multiply" opacity="0.27">
<path d="M199.093 161.469L179.507 167.885L174.57 169.497C172.059 170.318 169.358 170.355 166.825 169.604C164.292 168.853 162.048 167.35 160.39 165.294L160.755 174.968C160.779 175.627 160.948 176.272 161.248 176.859C161.548 177.446 161.973 177.96 162.492 178.366C163.011 178.772 163.613 179.06 164.255 179.209C164.897 179.359 165.564 179.366 166.21 179.231L184.183 175.468L199.093 161.469Z" fill="#EAEAEA"/>
</g>
<g style="mix-blend-mode:multiply" opacity="0.27">
<path d="M229.371 107.328L231.369 109.233C234.562 115.526 236.379 122.426 236.698 129.476C237.018 136.525 235.833 143.562 233.223 150.118L229.367 159.887L216.216 178.917C214.948 180.986 213.813 183.134 212.819 185.348C212.819 185.348 213.669 190.394 220.282 191.646C222.85 192.133 210.747 192.821 211.108 195.365L213.234 215.267C215.98 215.644 218.884 216.185 221.977 216.866C225.237 217.583 230.623 210.677 233.49 209.782L229.764 183.067L234.505 165.323L244.444 135.708C245.125 130.685 245.04 112.069 241.543 108.4C237.661 104.327 232.245 105.987 229.371 107.328Z" fill="#EAEAEA"/>
</g>
<path d="M217.125 100.694C220.999 100.896 224.823 99.7426 227.939 97.431C229.721 96.1126 231.274 94.5113 232.538 92.6908" stroke="#575D68" stroke-width="0.5" stroke-miterlimit="10"/>
<g opacity="0.4">
<path opacity="0.4" d="M106.039 63.4379V73.8L111.621 70.4768V60.1147L106.039 63.4379Z" fill="#FF4F12"/>
<path opacity="0.4" d="M113.16 59.4718V69.8339L118.741 66.5107V56.1487L113.16 59.4718Z" fill="#FF4F12"/>
</g>
<defs>
<linearGradient id="paint0_linear_129_5" x1="173.242" y1="141.682" x2="303.31" y2="229.446" gradientUnits="userSpaceOnUse">
<stop stop-color="white" stop-opacity="0"/>
<stop offset="0.06617" stop-color="#FEFEFE" stop-opacity="0.07095"/>
<stop offset="0.19664" stop-color="#FAFAFA" stop-opacity="0.25632"/>
<stop offset="0.37886" stop-color="#F3F3F3" stop-opacity="0.55548"/>
<stop offset="0.604" stop-color="#EBEBEB" stop-opacity="0.96282"/>
<stop offset="0.62372" stop-color="#EAEAEA"/>
</linearGradient>
<linearGradient id="paint1_linear_129_5" x1="258.511" y1="98.7096" x2="172.725" y2="220.283" gradientUnits="userSpaceOnUse">
<stop offset="0.17357" stop-color="#F6F6F6"/>
<stop offset="0.22904" stop-color="#F1EBF8"/>
<stop offset="0.369" stop-color="#E7D6FB"/>
<stop offset="0.50412" stop-color="#E1C8FD"/>
<stop offset="0.62807" stop-color="#DFC4FE"/>
<stop offset="0.63753" stop-color="#DEC3FE"/>
<stop offset="0.72223" stop-color="#DBBCFF"/>
<stop offset="0.95765" stop-color="#DABAFF"/>
</linearGradient>
<linearGradient id="paint2_linear_129_5" x1="241.841" y1="105.526" x2="197.83" y2="114.802" gradientUnits="userSpaceOnUse">
<stop stop-color="#F6F6F6"/>
<stop offset="0.68599" stop-color="#DFC4FE"/>
<stop offset="0.69379" stop-color="#DEC3FE"/>
<stop offset="0.76361" stop-color="#DBBCFF"/>
<stop offset="0.95765" stop-color="#DABAFF"/>
</linearGradient>
<linearGradient id="paint3_linear_129_5" x1="200.433" y1="98.7257" x2="149.945" y2="245.247" gradientUnits="userSpaceOnUse">
<stop offset="0.09705" stop-color="#F6F6F6"/>
<stop offset="0.12872" stop-color="#F1EBF8"/>
<stop offset="0.20864" stop-color="#E7D6FB"/>
<stop offset="0.28579" stop-color="#E1C8FD"/>
<stop offset="0.35657" stop-color="#DFC4FE"/>
<stop offset="0.37383" stop-color="#DEC3FE"/>
<stop offset="0.5283" stop-color="#DBBCFF"/>
<stop offset="0.95765" stop-color="#DABAFF"/>
</linearGradient>
</defs>
</svg>
