<svg width="336" height="329" viewBox="0 0 336 329" fill="none" xmlns="http://www.w3.org/2000/svg">
<path d="M167.526 136L334.933 232.446" stroke="#CCCCCC" stroke-width="0.5" stroke-miterlimit="10"/>
<path d="M139.77 152.029L307.211 248.509" stroke="#CCCCCC" stroke-width="0.5" stroke-miterlimit="10"/>
<path d="M112.016 168.024L279.491 264.572" stroke="#CCCCCC" stroke-width="0.5" stroke-miterlimit="10"/>
<path d="M84.2625 184.02L251.771 280.601" stroke="#CCCCCC" stroke-width="0.5" stroke-miterlimit="10"/>
<path d="M56.5085 200.049L224.051 296.664" stroke="#CCCCCC" stroke-width="0.5" stroke-miterlimit="10"/>
<path d="M28.7537 216.044L196.33 312.727" stroke="#CCCCCC" stroke-width="0.5" stroke-miterlimit="10"/>
<path d="M0.999756 232.039L168.61 328.756" stroke="#CCCCCC" stroke-width="0.5" stroke-miterlimit="10"/>
<path d="M168.541 328.518L335 232.446" stroke="#CCCCCC" stroke-width="0.5" stroke-miterlimit="10"/>
<path d="M140.616 312.455L307.075 216.383" stroke="#CCCCCC" stroke-width="0.5" stroke-miterlimit="10"/>
<path d="M112.692 296.392L279.151 200.286" stroke="#CCCCCC" stroke-width="0.5" stroke-miterlimit="10"/>
<path d="M84.804 280.329L251.262 184.223" stroke="#CCCCCC" stroke-width="0.5" stroke-miterlimit="10"/>
<path d="M56.8782 264.266L223.337 168.16" stroke="#CCCCCC" stroke-width="0.5" stroke-miterlimit="10"/>
<path d="M28.957 248.17L195.415 152.097" stroke="#CCCCCC" stroke-width="0.5" stroke-miterlimit="10"/>
<path d="M1.06592 232.107L167.524 136" stroke="#CCCCCC" stroke-width="0.5" stroke-miterlimit="10"/>
<path d="M240.102 141.625H241.455C241.958 141.626 242.448 141.792 242.85 142.096C243.251 142.401 243.542 142.828 243.679 143.313C243.742 143.106 243.775 142.892 243.778 142.677V131.903C243.778 131.287 243.533 130.696 243.098 130.26C242.662 129.825 242.071 129.58 241.455 129.58H240.102C239.486 129.58 238.895 129.825 238.459 130.26C238.023 130.696 237.778 131.287 237.778 131.903V142.677C237.781 142.892 237.815 143.106 237.878 143.313C238.014 142.828 238.305 142.401 238.707 142.096C239.108 141.792 239.598 141.626 240.102 141.625Z" fill="#F6F6F6" stroke="#575D68" stroke-width="0.5" stroke-miterlimit="10"/>
<path d="M241.867 75.6185H239.649C238.978 75.6185 238.435 76.1623 238.435 76.8332V202.653C238.435 203.324 238.978 203.867 239.649 203.867H241.867C242.538 203.867 243.082 203.324 243.082 202.653V76.8332C243.082 76.1623 242.538 75.6185 241.867 75.6185Z" fill="#F6F6F6" stroke="#575D68" stroke-width="0.5" stroke-miterlimit="10"/>
<path d="M241.454 133.337H240.102C239.598 133.336 239.108 133.171 238.707 132.866C238.305 132.562 238.014 132.135 237.878 131.65C237.815 131.856 237.781 132.07 237.778 132.286V143.059C237.778 143.675 238.023 144.266 238.459 144.702C238.895 145.138 239.486 145.383 240.102 145.383H241.454C242.071 145.383 242.662 145.138 243.098 144.702C243.533 144.266 243.778 143.675 243.778 143.059V132.286C243.775 132.07 243.742 131.856 243.679 131.65C243.542 132.135 243.251 132.562 242.85 132.866C242.448 133.171 241.958 133.336 241.454 133.337Z" fill="#F6F6F6" stroke="#575D68" stroke-width="0.5" stroke-miterlimit="10"/>
<path d="M204.364 121.108H205.717C206.221 121.109 206.71 121.275 207.112 121.579C207.513 121.884 207.804 122.311 207.941 122.796C208.004 122.59 208.037 122.376 208.04 122.16V111.387C208.04 110.77 207.796 110.179 207.36 109.744C206.924 109.308 206.333 109.063 205.717 109.063H204.364C203.748 109.063 203.157 109.308 202.721 109.744C202.285 110.179 202.041 110.77 202.041 111.387V122.16C202.044 122.376 202.077 122.59 202.14 122.796C202.277 122.311 202.568 121.884 202.969 121.579C203.371 121.275 203.86 121.109 204.364 121.108Z" fill="#F6F6F6" stroke="#575D68" stroke-width="0.5" stroke-miterlimit="10"/>
<path d="M206.129 55.1017H203.911C203.241 55.1017 202.697 55.6455 202.697 56.3163V182.136C202.697 182.807 203.241 183.351 203.911 183.351H206.129C206.8 183.351 207.344 182.807 207.344 182.136V56.3163C207.344 55.6455 206.8 55.1017 206.129 55.1017Z" fill="#F6F6F6" stroke="#575D68" stroke-width="0.5" stroke-miterlimit="10"/>
<path d="M205.717 112.821H204.364C203.86 112.819 203.37 112.654 202.969 112.349C202.568 112.045 202.276 111.618 202.14 111.133C202.077 111.339 202.044 111.553 202.041 111.769V122.542C202.041 123.158 202.285 123.749 202.721 124.185C203.157 124.621 203.748 124.866 204.364 124.866H205.717C206.333 124.866 206.924 124.621 207.36 124.185C207.795 123.749 208.04 123.158 208.04 122.542V111.769C208.037 111.553 208.004 111.339 207.941 111.133C207.804 111.618 207.513 112.045 207.112 112.349C206.71 112.654 206.221 112.819 205.717 112.821Z" fill="#F6F6F6" stroke="#575D68" stroke-width="0.5" stroke-miterlimit="10"/>
<path d="M113.864 174.616H115.217C115.72 174.617 116.21 174.782 116.612 175.087C117.013 175.392 117.304 175.819 117.441 176.304C117.504 176.097 117.537 175.883 117.54 175.668V164.894C117.54 164.278 117.295 163.687 116.86 163.251C116.424 162.816 115.833 162.571 115.217 162.571H113.864C113.248 162.571 112.657 162.815 112.221 163.251C111.785 163.687 111.54 164.278 111.54 164.894V175.668C111.543 175.883 111.577 176.097 111.639 176.304C111.776 175.819 112.067 175.391 112.469 175.087C112.87 174.782 113.36 174.617 113.864 174.616Z" fill="#F6F6F6" stroke="#575D68" stroke-width="0.5" stroke-miterlimit="10"/>
<path d="M115.629 108.609H113.411C112.74 108.609 112.197 109.153 112.197 109.824V235.644C112.197 236.314 112.74 236.858 113.411 236.858H115.629C116.3 236.858 116.844 236.314 116.844 235.644V109.824C116.844 109.153 116.3 108.609 115.629 108.609Z" fill="#F6F6F6" stroke="#575D68" stroke-width="0.5" stroke-miterlimit="10"/>
<path d="M115.216 166.328H113.864C113.36 166.327 112.87 166.162 112.469 165.857C112.067 165.553 111.776 165.125 111.639 164.641C111.577 164.847 111.543 165.061 111.54 165.276V176.05C111.54 176.666 111.785 177.257 112.221 177.693C112.657 178.129 113.248 178.373 113.864 178.373H115.216C115.833 178.373 116.424 178.129 116.859 177.693C117.295 177.257 117.54 176.666 117.54 176.05V165.276C117.537 165.061 117.504 164.847 117.441 164.641C117.304 165.126 117.013 165.553 116.611 165.857C116.21 166.162 115.72 166.327 115.216 166.328Z" fill="#F6F6F6" stroke="#575D68" stroke-width="0.5" stroke-miterlimit="10"/>
<path d="M149.405 194.448H150.757C151.261 194.45 151.751 194.615 152.152 194.919C152.554 195.224 152.845 195.651 152.982 196.136C153.044 195.93 153.078 195.716 153.081 195.5V184.727C153.081 184.111 152.836 183.52 152.4 183.084C151.965 182.648 151.374 182.403 150.757 182.403H149.405C148.788 182.403 148.197 182.648 147.762 183.084C147.326 183.52 147.081 184.111 147.081 184.727V195.5C147.084 195.716 147.118 195.93 147.18 196.136C147.317 195.651 147.608 195.224 148.01 194.919C148.411 194.615 148.901 194.449 149.405 194.448Z" fill="#F6F6F6" stroke="#575D68" stroke-width="0.5" stroke-miterlimit="10"/>
<path d="M151.17 128.442H148.952C148.281 128.442 147.737 128.986 147.737 129.657V255.476C147.737 256.147 148.281 256.691 148.952 256.691H151.17C151.841 256.691 152.384 256.147 152.384 255.476V129.657C152.384 128.986 151.841 128.442 151.17 128.442Z" fill="#F6F6F6" stroke="#575D68" stroke-width="0.5" stroke-miterlimit="10"/>
<path d="M150.757 186.161H149.405C148.901 186.16 148.411 185.994 148.01 185.69C147.608 185.385 147.317 184.958 147.18 184.473C147.118 184.679 147.084 184.893 147.081 185.109V195.882C147.081 196.499 147.326 197.09 147.762 197.525C148.197 197.961 148.788 198.206 149.405 198.206H150.757C151.373 198.206 151.964 197.961 152.4 197.525C152.836 197.09 153.081 196.499 153.081 195.882V185.109C153.078 184.893 153.044 184.679 152.982 184.473C152.845 184.958 152.554 185.385 152.152 185.69C151.751 185.994 151.261 186.16 150.757 186.161Z" fill="#F6F6F6" stroke="#575D68" stroke-width="0.5" stroke-miterlimit="10"/>
<path d="M112.195 107.767L150.21 129.95L243.872 75.8522L205.186 53.9224L112.195 107.767Z" fill="#F6F6F6" stroke="#575D68" stroke-width="0.5" stroke-miterlimit="10"/>
<path d="M112.195 107.767V115.443L150.75 137.997L243.872 83.8993V75.8522L150.21 129.95L112.195 107.767Z" fill="#F6F6F6" stroke="#575D68" stroke-width="0.5" stroke-miterlimit="10"/>
<path d="M116.441 28.7756V92.8793L121.023 95.9596L194.269 49.6638L203.219 -22.0331L196.737 -20.1916L116.441 28.7756Z" fill="#F6F6F6" stroke="#575D68" stroke-width="0.5" stroke-miterlimit="10"/>
<path d="M151.279 72.8597C151.288 73.2924 151.279 89.4576 151.279 89.4576L165.864 97.7101L181.074 89.35V86.3982L167.698 80.9627V62.7529L151.279 72.8597Z" fill="#F6F6F6" stroke="#575D68" stroke-width="0.5" stroke-miterlimit="10"/>
<path d="M152.449 71.2533C152.458 71.686 152.449 87.8512 152.449 87.8512L165.629 95.3089L181.074 86.3983L168.868 79.3562V61.1465L152.449 71.2533Z" fill="#F6F6F6" stroke="#575D68" stroke-width="0.5" stroke-miterlimit="10"/>
<path d="M120.844 28.202L121.023 95.9596L203.218 46.3178V-22.0331L120.844 28.202Z" fill="#F6F6F6" stroke="#575D68" stroke-width="0.5" stroke-miterlimit="10"/>
<path d="M168.867 1.6366V64.522L123.483 91.9116L123.318 29.3543L168.867 1.6366Z" fill="#CECECE"/>
<path d="M142.596 38.0881L130.657 45.0511L130.652 44.0648L142.592 37.1012L142.596 38.0881Z" fill="#F6F6F6"/>
<path d="M141.661 44.4762L134.032 48.9255L134.028 47.9386L141.657 43.4893L141.661 44.4762Z" fill="#F6F6F6"/>
<path d="M162.78 29.3746L140.998 42.0783L140.993 41.0921L162.776 28.3883L162.78 29.3746Z" fill="#F6F6F6"/>
<path d="M152.592 46.8322L130.809 59.536L130.804 58.5497L152.587 45.8459L152.592 46.8322Z" fill="#F6F6F6"/>
<path d="M138.298 43.6516L130.67 48.1008L130.665 47.1146L138.294 42.6653L138.298 43.6516Z" fill="#F6F6F6"/>
<path d="M145.49 45.3226L137.861 49.7719L137.857 48.785L145.486 44.3357L145.49 45.3226Z" fill="#F6F6F6"/>
<path d="M145.503 48.3932L137.874 52.8425L137.87 51.8563L145.499 47.407L145.503 48.3932Z" fill="#F6F6F6"/>
<path d="M166.122 36.3681L147.588 47.1775L147.584 46.1913L166.118 35.3818L166.122 36.3681Z" fill="#F6F6F6"/>
<path d="M142.688 59.2307L134.059 64.2638L134.053 63.0562L142.683 58.0232L142.688 59.2307Z" fill="#F6F6F6"/>
<path d="M161.663 35.8906L156.343 38.9931L156.339 38.0068L161.659 34.9043L161.663 35.8906Z" fill="#F6F6F6"/>
<path d="M138.925 58.3335L134.046 61.1798L134.04 59.9716L138.92 57.126L138.925 58.3335Z" fill="#F6F6F6"/>
<path d="M128.931 46.4176L128.327 46.7693L128.319 44.7967L128.923 44.4445L128.931 46.4176Z" fill="#F6F6F6"/>
<path d="M128.944 49.6454L128.341 49.9977L128.332 48.0245L128.935 47.6729L128.944 49.6454Z" fill="#F6F6F6"/>
<path d="M128.957 52.3803L128.051 52.908L128.042 50.9355L128.948 50.4071L128.957 52.3803Z" fill="#F6F6F6"/>
<path d="M128.97 55.4732L128.065 56.0017L128.057 54.0292L128.962 53.5007L128.97 55.4732Z" fill="#F6F6F6"/>
<path d="M128.983 58.5223L128.078 59.0501L128.07 57.0776L128.975 56.5492L128.983 58.5223Z" fill="#F6F6F6"/>
<path d="M128.997 61.3565L128.091 61.885L128.083 59.9118L128.988 59.384L128.997 61.3565Z" fill="#F6F6F6"/>
<path d="M129.01 64.4997L128.406 64.852L128.397 62.8795L129.001 62.5272L129.01 64.4997Z" fill="#F6F6F6"/>
<path d="M129.024 67.5843L128.42 67.9366L128.411 65.9635L129.015 65.6118L129.024 67.5843Z" fill="#F6F6F6"/>
<path d="M127.036 35.4906L132.245 29.5344L132.197 30.5068L127.811 35.4498L127.81 35.4779L131.923 36.058L131.875 37.0303L126.998 36.2518L127.036 35.4906Z" fill="#F6F6F6"/>
<path d="M132.558 37.2292L136.095 25.4576L136.834 25.078L133.286 36.8553L132.558 37.2292Z" fill="#F6F6F6"/>
<path d="M142.244 28.455L136.82 34.6432L136.87 33.6306L141.471 28.4656L141.473 28.4363L137.155 27.8498L137.205 26.8373L142.284 27.6337L142.244 28.455Z" fill="#F6F6F6"/>
<path d="M101.595 266.732C101.595 269.641 96.387 272 89.9625 272C83.538 272 78.3298 269.641 78.3298 266.732V265.01C78.3298 265.01 85.1441 261.464 89.9625 261.464C94.6533 261.464 101.595 265.01 101.595 265.01V266.732Z" fill="#F6F6F6" stroke="#575D68" stroke-width="0.5" stroke-miterlimit="10"/>
<path d="M89.9625 270.278C96.387 270.278 101.595 267.919 101.595 265.01C101.595 262.1 96.387 259.742 89.9625 259.742C83.538 259.742 78.3298 262.1 78.3298 265.01C78.3298 267.919 83.538 270.278 89.9625 270.278Z" fill="#F6F6F6" stroke="#575D68" stroke-width="0.5" stroke-miterlimit="10"/>
<path d="M87.7376 163.18H92.1873V263.847C92.1873 264.155 92.0648 264.451 91.8466 264.669C91.6285 264.887 91.3327 265.01 91.0243 265.01H88.9006C88.5921 265.01 88.2963 264.887 88.0782 264.669C87.8601 264.451 87.7375 264.155 87.7375 263.847V163.18H87.7376Z" fill="#F6F6F6" stroke="#575D68" stroke-width="0.5" stroke-miterlimit="10"/>
<path d="M64.4334 153.122C70.0148 149.445 79.3647 147.033 89.962 147.033C91.9239 147.033 93.8404 147.119 95.7009 147.277L98.8115 147.614V134.284L97.31 132.303C94.4937 132.014 91.6631 131.887 88.8322 131.924C71.7322 131.924 58.9998 137.706 58.9998 145.449C58.9998 148.701 60.3314 150.744 64.4334 153.122Z" fill="#F6F6F6" stroke="#575D68" stroke-width="0.5" stroke-miterlimit="10"/>
<path d="M120.924 163.751C120.924 171.495 107.062 177.772 89.962 177.772C72.862 177.772 58.9998 171.495 58.9998 163.751V161.054C58.9998 161.054 75.4591 149.73 89.962 149.73C103.532 149.73 120.924 160.544 120.924 160.544V163.751Z" fill="#F6F6F6" stroke="#575D68" stroke-width="0.5" stroke-miterlimit="10"/>
<path d="M89.962 175.076C107.062 175.076 120.924 168.798 120.924 161.054C120.924 153.311 107.062 147.033 89.962 147.033C72.862 147.033 58.9998 153.311 58.9998 161.054C58.9998 168.798 72.862 175.076 89.962 175.076Z" fill="#F6F6F6" stroke="#575D68" stroke-width="0.5" stroke-miterlimit="10"/>
<path d="M60.5334 150.08V161.504C60.5334 166.206 77.9097 173.974 77.9097 173.974L79.4438 172.44V154.02C76.5945 153.821 73.7708 153.35 71.0115 152.612C71.0115 152.612 65.6562 151.214 63.5279 148.944" fill="#F6F6F6"/>
<path d="M60.5334 150.08V161.504C60.5334 166.206 77.9097 173.974 77.9097 173.974L79.4438 172.44V154.02C76.5945 153.821 73.7708 153.35 71.0115 152.612C71.0115 152.612 65.6562 151.214 63.5279 148.944" stroke="#575D68" stroke-width="0.5" stroke-miterlimit="10"/>
<path d="M59.0807 145.726C59.0772 145.716 59.0704 145.709 59.0615 145.704C59.0527 145.699 59.0423 145.697 59.0325 145.7C59.0226 145.702 59.0139 145.707 59.0079 145.716C59.0019 145.724 58.9991 145.734 58.9999 145.744V163.038C58.9999 167.954 66.7974 172.172 77.9102 173.974V155.554C77.9102 155.554 70.5215 155.158 65.3114 152.612C62.4324 151.195 60.2036 148.732 59.0807 145.726Z" fill="#F6F6F6" stroke="#575D68" stroke-width="0.5" stroke-miterlimit="10"/>
<path d="M71.0124 152.612C77.6805 150.151 84.7333 148.897 91.841 148.908C93.8028 148.908 95.7193 148.994 97.5798 149.152L98.8119 149.272V134.284C96.124 133.958 93.4187 133.796 90.7112 133.799C75.8465 133.799 61.734 138.444 61.5128 144.396C61.399 147.456 63.7312 149.556 66.8458 151.078C68.1853 151.714 69.5799 152.228 71.0124 152.612Z" fill="#F6F6F6"/>
<path d="M71.0124 152.612C77.6805 150.151 84.7333 148.897 91.841 148.908C93.8028 148.908 95.7193 148.994 97.5798 149.152L98.8119 149.272V134.284C96.124 133.958 93.4187 133.796 90.7112 133.799C75.8465 133.799 61.734 138.444 61.5128 144.396C61.399 147.456 63.7312 149.556 66.8458 151.078C68.1853 151.714 69.5799 152.228 71.0124 152.612" stroke="#575D68" stroke-width="0.5" stroke-miterlimit="10"/>
<path d="M156.1 85.979L168.868 79.3562" stroke="#575D68" stroke-width="0.5" stroke-miterlimit="10"/>
<path d="M165.629 95.3088V97.7101" stroke="#575D68" stroke-width="0.5" stroke-miterlimit="10"/>
<path d="M123.318 29.3542L123.483 91.9115L200.878 45.2628V-17.8427L123.318 29.3542Z" stroke="#575D68" stroke-width="0.5" stroke-miterlimit="10"/>
<path d="M181.764 21.2149V43.4989L195.304 35.7385L195.176 13.1556L181.764 21.2149Z" stroke="#CECECE" stroke-width="0.5" stroke-miterlimit="10"/>
<path d="M195.303 35.7386L183.555 28.7642L171.05 36.0444L181.79 43.4754L195.303 35.7386Z" stroke="#CECECE" stroke-width="0.5" stroke-miterlimit="10"/>
<path d="M183.555 28.7642L183.949 7.19617L171.05 15.071V35.998L183.555 28.7642Z" stroke="#CECECE" stroke-width="0.5" stroke-miterlimit="10"/>
<path d="M171.05 15.1179L181.806 21.3238" stroke="#CECECE" stroke-width="0.5" stroke-miterlimit="10"/>
<path d="M185.847 8.03223L193.165 12.2546" stroke="#CECECE" stroke-width="0.5" stroke-miterlimit="10"/>
<path d="M170.552 56.4618C169.628 54.5386 168.287 56.0931 166.09 52.4501C165.022 50.6801 163.655 45.0943 163.659 43.0274C163.671 37.0202 167.464 33.8533 170.549 29.776C173.793 25.4894 178.255 25.6814 183.615 25.2708C185.598 25.0861 187.595 25.415 189.414 26.2259C191.233 27.0367 192.813 28.3022 194.001 29.9005C195.075 31.3033 195.007 32.9208 195.17 34.6852L188.534 47.0537L182.798 57.9103L172.953 61.2528L170.552 56.4618Z" fill="#DDDEDF" stroke="#575D68" stroke-width="0.5" stroke-miterlimit="10"/>
<path d="M212.53 240.169C211.442 241.715 210.727 243.492 210.44 245.36C210.283 246.395 210.105 248.529 211.114 249.233C213.879 251.158 219.137 251.361 224.531 248.933C229.925 246.506 234.711 246.629 237.004 245.833C239.296 245.036 241.572 244.381 242.667 242.124C242.852 241.734 242.982 241.32 243.054 240.894C243.116 240.542 243.076 240.179 242.938 239.849C242.8 239.519 242.57 239.235 242.276 239.032L240.218 237.608" fill="#F6F6F6"/>
<path d="M212.53 240.169C211.442 241.715 210.727 243.492 210.44 245.36C210.283 246.395 210.105 248.529 211.114 249.233C213.879 251.158 219.137 251.361 224.531 248.933C229.925 246.506 234.711 246.629 237.004 245.833C239.296 245.036 241.572 244.381 242.667 242.124C242.852 241.734 242.982 241.32 243.054 240.894C243.116 240.542 243.076 240.179 242.938 239.849C242.8 239.519 242.57 239.235 242.276 239.032L240.218 237.608" stroke="#575D68" stroke-width="0.5" stroke-miterlimit="10"/>
<path d="M173.493 255.262C173.493 255.262 171.808 260.039 171.808 261.464C171.814 261.781 171.856 262.097 171.932 262.404C172.156 263.305 172.666 264.108 173.387 264.693C174.107 265.278 174.998 265.613 175.926 265.647C177.999 265.733 181.102 265.272 185.056 262.991C192.698 258.582 191.496 256.686 195.075 255.745C200.048 254.437 204.979 249.233 202.879 247.546L201.236 245.833L173.493 255.262Z" fill="#F6F6F6" stroke="#575D68" stroke-width="0.5" stroke-miterlimit="10"/>
<path d="M207.677 58.5398C207.501 57.6396 207.256 56.7542 206.945 55.8915C206.534 54.8881 205.872 53.2542 205.45 53.1758C204.155 53.267 202.864 53.4261 201.585 53.6524C201.342 53.6897 201.119 53.8083 200.952 53.9889C200.786 54.1695 200.685 54.4014 200.668 54.6466L200.427 57.9105" fill="#F6F6F6"/>
<path d="M207.677 58.5398C207.501 57.6396 207.256 56.7542 206.945 55.8915C206.534 54.8881 205.872 53.2542 205.45 53.1758C204.155 53.267 202.864 53.4261 201.585 53.6524C201.342 53.6897 201.119 53.8083 200.952 53.9889C200.786 54.1695 200.685 54.4014 200.668 54.6466L200.427 57.9105" stroke="#575D68" stroke-width="0.5" stroke-miterlimit="10"/>
<path d="M159.135 68.6294C158.746 69.0073 156.032 69.4101 154.773 71.5269C151.868 76.4113 151.358 78.5525 149.351 83.8757C147.317 89.273 145.608 97.2058 143.749 102.666C141.806 108.376 139.834 114.35 140.689 120.321C140.83 121.308 141.216 122.466 142.186 122.695C142.894 122.863 143.496 122.207 144.207 122.056C154.231 119.922 156.976 118.472 161 115.077C161.955 114.271 163.535 114.514 164.364 113.579C164.946 112.798 165.315 111.879 165.436 110.912C166.561 105.518 167.658 100.122 168.35 94.6505C169.04 89.1982 169.499 83.5507 168.706 78.0838C168.452 75.8431 167.79 73.6679 166.753 71.6652C166.264 70.6715 165.607 69.7697 164.812 68.9995C163.676 68.1054 159.778 68.0051 159.135 68.6294Z" fill="#F6F6F6" stroke="#575D68" stroke-width="0.5" stroke-miterlimit="10"/>
<path style="mix-blend-mode:multiply" d="M159.135 68.6294C158.746 69.0073 156.032 69.4101 154.773 71.5269C151.868 76.4113 151.358 78.5525 149.351 83.8757C147.317 89.273 145.608 97.2058 143.749 102.666C141.806 108.376 139.834 114.35 140.689 120.321C140.83 121.308 141.216 122.466 142.186 122.695C142.894 122.863 143.496 122.207 144.207 122.056C154.231 119.922 156.976 118.472 161 115.077C161.955 114.271 163.535 114.514 164.364 113.579C164.946 112.798 165.315 111.879 165.436 110.912C166.561 105.518 167.658 100.122 168.35 94.6505C169.04 89.1982 169.499 83.5507 168.706 78.0838C168.452 75.8431 167.79 73.6679 166.753 71.6652C166.264 70.6715 165.607 69.7697 164.812 68.9995C163.676 68.1054 159.778 68.0051 159.135 68.6294Z" fill="url(#paint0_linear_3_25318)"/>
<path d="M195.17 34.6853C195.22 35.2957 195.317 35.9012 195.462 36.4962C196.137 39.1566 196.275 38.8423 196.277 41.6521C196.277 42.8105 195.223 44.2137 196.329 47.7667C198.182 53.7186 194.001 61.6268 190.821 64.0252C190.085 64.5798 184.176 64.5408 183.853 65.4035C183.424 66.548 185.475 68.5669 186.417 69.345C190.412 72.6435 196.77 73.0751 200.765 76.3736C202.263 77.6102 203.041 81.3729 203.856 83.1361C206.702 89.2972 204.372 94.771 205.041 102.402C205.294 106.743 205.024 111.098 204.237 115.374C203.821 117.248 200.565 119.946 199.925 122.042C199.429 123.667 199.586 123.666 199.751 125.183C200.117 128.539 204.223 131.704 206.357 134.176C210.486 138.959 214.447 144.192 215.65 150.568C216.464 154.885 215.404 159.236 216.127 163.61C218.498 177.936 221.637 191.57 221.16 206.276C220.936 213.179 220.452 223.651 222.122 230.356C223.352 235.295 224.8 235.808 229.378 236.038C230.218 236.08 236.254 236.877 239.662 237.424C239.996 237.48 240.307 237.625 240.563 237.845C240.819 238.066 241.01 238.352 241.114 238.673C241.218 238.995 241.232 239.338 241.155 239.667C241.077 239.996 240.91 240.297 240.673 240.537C238.843 242.331 236.417 243.388 233.857 243.507C226.216 243.607 222.901 247.057 217.452 247.081C215.853 247.089 213.584 247.144 212.867 246.324C209.968 243.01 213.38 238.295 212.798 235.908C210.318 225.741 205.78 219.428 205.165 210.135C204.86 205.531 205.304 200.867 204.509 196.321C203.862 192.625 202.416 189.123 200.98 185.656L191.263 162.2L187.391 163.103C187.745 169.807 189.443 176.238 189.211 182.947C189.005 188.924 186.729 194.437 186.185 200.287C184.742 215.799 186.553 231.298 184.706 246.835C188.157 246.399 191.549 245.582 194.819 244.397C197.707 243.35 199.445 243.876 201.22 245.816C201.463 246.074 201.63 246.393 201.705 246.74C201.779 247.086 201.758 247.446 201.643 247.782C200.072 252.052 194.592 252.259 191.695 254.519C189.748 256.038 187.592 257.327 186.004 259.148C184.729 260.61 181.314 262.283 178.786 262.283C173.979 262.283 172.774 260.034 173.491 255.281L173.493 255.262C175.179 238.551 171.084 233.558 169.591 222.43C167.727 208.54 171.085 194.238 168.381 180.486C167.431 175.65 165.745 170.982 164.79 166.147C162.559 154.859 164.403 143.117 167.721 132.099C168.089 131.137 168.251 130.109 168.196 129.08C168.065 128.364 167.825 127.672 167.485 127.029C166.972 125.926 166.791 124.625 165.995 123.728C164.283 121.801 160.821 121.184 158.391 114.161C155.324 105.293 152.73 81.7598 156.142 72.7646C156.564 71.5016 157.261 70.3483 158.184 69.388C159.556 68.0744 161.356 67.4688 163.064 66.7315C163.615 66.4938 164.427 66.0601 165.254 65.6945C167.006 64.9109 168.425 63.5345 169.261 61.8076C169.939 60.4226 171.309 58.0383 170.551 56.4619" fill="#F6F6F6"/>
<path d="M195.17 34.6853C195.22 35.2957 195.317 35.9012 195.462 36.4962C196.137 39.1566 196.275 38.8423 196.277 41.6521C196.277 42.8105 195.223 44.2137 196.329 47.7667C198.182 53.7186 194.001 61.6268 190.821 64.0252C190.085 64.5798 184.176 64.5408 183.853 65.4035C183.424 66.548 185.475 68.5669 186.417 69.345C190.412 72.6435 196.77 73.0751 200.765 76.3736C202.263 77.6102 203.041 81.3729 203.856 83.1361C206.702 89.2972 204.372 94.771 205.041 102.402C205.294 106.743 205.024 111.098 204.237 115.374C203.821 117.248 200.565 119.946 199.925 122.042C199.429 123.667 199.586 123.666 199.751 125.183C200.117 128.539 204.223 131.704 206.357 134.176C210.486 138.959 214.447 144.192 215.65 150.568C216.464 154.885 215.404 159.236 216.127 163.61C218.498 177.936 221.637 191.57 221.16 206.276C220.936 213.179 220.452 223.651 222.122 230.356C223.352 235.295 224.8 235.808 229.378 236.038C230.218 236.08 236.254 236.877 239.662 237.424C239.996 237.48 240.307 237.625 240.563 237.845C240.819 238.066 241.01 238.352 241.114 238.673C241.218 238.995 241.232 239.338 241.155 239.667C241.077 239.996 240.91 240.297 240.673 240.537C238.843 242.331 236.417 243.388 233.857 243.507C226.216 243.607 222.901 247.056 217.452 247.081C215.853 247.089 213.584 247.144 212.867 246.324C209.968 243.01 213.38 238.295 212.798 235.908C210.318 225.741 205.78 219.428 205.165 210.135C204.86 205.531 205.304 200.867 204.509 196.321C203.862 192.625 202.416 189.123 200.98 185.656L191.263 162.2L187.391 163.103C187.745 169.807 189.443 176.238 189.211 182.947C189.005 188.924 186.729 194.437 186.185 200.287C184.742 215.799 186.553 231.298 184.706 246.835C188.157 246.399 191.549 245.582 194.819 244.397C197.707 243.35 199.445 243.876 201.22 245.816C201.463 246.074 201.63 246.393 201.705 246.74C201.779 247.086 201.758 247.446 201.643 247.782C200.072 252.052 194.592 252.259 191.695 254.519C189.748 256.038 187.592 257.327 186.004 259.148C184.729 260.61 181.314 262.283 178.786 262.283C173.979 262.283 172.774 260.034 173.491 255.281L173.493 255.262C175.179 238.551 171.084 233.558 169.591 222.43C167.727 208.54 171.085 194.238 168.381 180.486C167.431 175.65 165.745 170.982 164.79 166.147C162.559 154.859 164.403 143.117 167.721 132.099C168.089 131.137 168.251 130.109 168.196 129.08C168.065 128.364 167.825 127.672 167.485 127.029C166.972 125.926 166.791 124.625 165.995 123.728C164.283 121.801 160.821 121.184 158.391 114.161C155.324 105.293 152.73 81.7598 156.142 72.7646C156.564 71.5016 157.261 70.3483 158.184 69.388C159.556 68.0744 161.356 67.4688 163.064 66.7315C163.615 66.4938 164.427 66.0601 165.254 65.6945C167.006 64.9109 168.425 63.5345 169.261 61.8076C169.939 60.4226 171.309 58.0383 170.551 56.4619" stroke="#575D68" stroke-width="0.5" stroke-miterlimit="10"/>
<path d="M174.17 22.442C173.135 21.3758 171.953 20.2899 170.469 20.2048C168.239 20.0769 166.421 21.9522 165.225 23.8393C164.298 25.3023 163.514 26.9755 163.682 28.6993C163.815 29.5708 164.126 30.4054 164.597 31.1505C165.068 31.8955 165.689 32.5349 166.419 33.0283C166.898 33.4574 167.467 33.7737 168.084 33.954C168.701 34.1342 169.351 34.1739 169.986 34.07C171.068 33.9238 172.102 33.5348 173.013 32.9321C173.923 32.3294 174.685 31.5286 175.243 30.5897C176.463 28.5424 177.178 25.5417 174.17 22.442Z" fill="#DDDEDF" stroke="#575D68" stroke-width="0.5" stroke-miterlimit="10"/>
<path d="M168.196 129.08C168.196 129.08 162.878 142.92 162.306 153.212C161.733 163.505 164.48 181.579 165.251 188.418C166.022 195.257 160.032 216.234 160.032 216.234C160.032 216.234 167.976 218.59 179.456 218.59C188.737 218.59 195.12 209.681 203.236 206.493C211.941 203.073 225.811 203.885 225.811 203.885C225.811 203.885 224.098 179.272 223.421 175.23C222.33 168.709 219.472 155.209 216.65 149.063C214.101 143.757 211.087 138.687 207.643 133.913C207.001 132.989 200.352 124.794 199.751 125.183C199.748 125.185 193.377 129.311 186.295 130.043C179.211 130.775 168.196 129.08 168.196 129.08Z" fill="#E9EAEB" stroke="#575D68" stroke-width="0.5" stroke-miterlimit="10"/>
<path style="mix-blend-mode:multiply" d="M199.751 125.183C199.585 123.666 199.428 123.667 199.925 122.042C200.564 119.946 203.82 117.248 204.237 115.374C205.024 111.098 205.294 106.743 205.041 102.402C204.691 98.4167 195.054 100.058 195.176 96.8441L188.461 83.7083C188.461 83.7083 181.074 91.6176 185.536 99.4645C188.183 104.119 195.63 108.411 192.922 114.555C190.214 120.7 182.797 126.008 182.797 126.008L196.132 123.107C194.688 121.511 199.945 126.961 199.751 125.183Z" fill="url(#paint1_linear_3_25318)"/>
<path d="M195.176 96.8441C203.72 106.857 215.25 113.535 228.747 113.244C229.926 113.218 231.21 113.098 232.068 112.288C232.894 111.51 233.109 110.296 233.239 109.168C234.163 101.159 233.495 92.879 227.54 83.3745C223.158 76.3807 219.19 73.8037 214.008 67.6516C211.048 64.1363 206.794 57.1298 205.699 55.2996C205.525 55.0031 205.27 54.7625 204.964 54.6062C203.037 53.6446 200.974 52.4755 198.135 49.1097C197.453 49.639 197.985 51.7506 198.405 52.5048C198.826 53.259 199.637 53.4572 200.225 54.0892C200.648 54.543 201.67 56.0504 202.116 56.4572C201.512 56.4771 200.908 56.4486 200.309 56.3722C200.052 56.3728 197.495 54.0453 196.686 55.85C197.785 57.5625 200.18 58.7652 200.984 59.9888C202.096 61.6826 202.888 63.7563 204.665 64.7307C204.924 64.8491 205.169 64.9977 205.394 65.1732C205.606 65.3908 205.777 65.6445 205.9 65.9224C206.636 67.3475 211.583 76.8627 213.339 80.7201C215.2 84.8104 217.994 89.3964 219.997 93.4229C220.077 93.5783 220.099 93.7571 220.058 93.9271C220.018 94.0971 219.918 94.2472 219.777 94.3502C219.636 94.4533 219.463 94.5025 219.289 94.4891C219.115 94.4757 218.951 94.4006 218.827 94.2772C212.4 87.7526 202.404 77.1661 200.765 76.3736" fill="#F6F6F6"/>
<path d="M195.176 96.8441C203.72 106.857 215.25 113.535 228.747 113.244C229.926 113.218 231.21 113.098 232.068 112.288C232.894 111.51 233.109 110.296 233.239 109.168C234.163 101.159 233.495 92.879 227.54 83.3745C223.158 76.3807 219.19 73.8037 214.008 67.6516C211.048 64.1363 206.794 57.1298 205.699 55.2996C205.525 55.0031 205.27 54.7625 204.964 54.6062C203.037 53.6446 200.974 52.4755 198.135 49.1097C197.453 49.639 197.985 51.7506 198.405 52.5048C198.826 53.259 199.637 53.4572 200.225 54.0892C200.648 54.543 201.67 56.0504 202.116 56.4572C201.512 56.4771 200.908 56.4486 200.309 56.3722C200.052 56.3728 197.495 54.0453 196.686 55.85C197.785 57.5625 200.18 58.7652 200.984 59.9888C202.096 61.6826 202.888 63.7563 204.665 64.7307C204.924 64.8491 205.169 64.9977 205.394 65.1732C205.606 65.3908 205.777 65.6445 205.9 65.9224C206.636 67.3475 211.583 76.8627 213.339 80.7201C215.2 84.8104 217.994 89.3964 219.997 93.4229C220.077 93.5783 220.099 93.7571 220.058 93.9271C220.018 94.0971 219.918 94.2472 219.777 94.3502C219.636 94.4533 219.463 94.5025 219.289 94.4891C219.115 94.4758 218.951 94.4006 218.827 94.2772C212.4 87.7526 202.404 77.1661 200.765 76.3736" stroke="#575D68" stroke-width="0.5" stroke-miterlimit="10"/>
<path style="mix-blend-mode:multiply" d="M168.196 129.08C168.196 129.08 162.878 142.92 162.306 153.212C161.733 163.505 164.48 181.579 165.251 188.418C166.022 195.257 160.032 216.234 160.032 216.234C160.032 216.234 167.976 218.59 179.456 218.59C188.737 218.59 195.12 209.681 203.236 206.493C211.941 203.073 225.811 203.885 225.811 203.885C225.811 203.885 224.098 179.272 223.421 175.23C222.33 168.709 219.472 155.209 216.65 149.063C214.101 143.757 211.087 138.687 207.643 133.913C207.001 132.989 200.352 124.794 199.751 125.183C199.748 125.185 193.377 129.311 186.295 130.043C179.211 130.775 168.196 129.08 168.196 129.08Z" fill="url(#paint2_linear_3_25318)"/>
<path d="M161.899 212.429C161.899 212.429 169.842 214.784 181.322 214.784C190.604 214.784 196.987 205.875 205.102 202.688C213.808 199.268 225.272 200.378 225.272 200.378" fill="#E9EAEB"/>
<path d="M161.899 212.429C161.899 212.429 169.842 214.784 181.322 214.784C190.604 214.784 196.987 205.875 205.102 202.688C213.808 199.268 225.272 200.378 225.272 200.378" stroke="#575D68" stroke-width="0.5" stroke-miterlimit="10"/>
<path d="M172.668 129.645C171.771 132.465 171.063 135.341 170.548 138.255C169.749 143.779 169.123 151.261 169.123 151.261" stroke="#575D68" stroke-width="0.5" stroke-miterlimit="10"/>
<path d="M176.411 129.804C176.166 133.1 175.929 136.48 176.851 139.654" stroke="#575D68" stroke-width="0.5" stroke-miterlimit="10"/>
<path d="M196.635 126.596C200.515 129.855 202.831 134.557 205.04 139.117" stroke="#575D68" stroke-width="0.5" stroke-miterlimit="10"/>
<path d="M191.039 129.315L192.502 132.27C193.968 135.02 195.183 137.895 196.132 140.863" stroke="#575D68" stroke-width="0.5" stroke-miterlimit="10"/>
<path d="M185.536 130.185C186.911 132.853 187.429 137.634 188.461 140.453" stroke="#575D68" stroke-width="0.5" stroke-miterlimit="10"/>
<path d="M168.197 129.08L166.09 123.687C166.09 123.687 176.987 126.598 182.798 126.008C191.04 125.17 200.044 121.801 200.044 121.801L199.752 125.183C199.752 125.183 199.3 129.315 182.124 131.144C173.274 132.087 168.197 129.08 168.197 129.08Z" fill="#E9EAEB" stroke="#575D68" stroke-width="0.5" stroke-miterlimit="10"/>
<path d="M165.044 186.01C165.044 186.01 168.147 194.276 168.871 200.656C169.025 202.008 169.28 204.617 169.448 207.208" fill="#E9EAEB"/>
<path d="M165.044 186.01C165.044 186.01 168.147 194.276 168.871 200.656C169.025 202.008 169.28 204.617 169.448 207.208" stroke="#575D68" stroke-width="0.5" stroke-miterlimit="10"/>
<path d="M217.452 160.975C216.986 168.107 216.021 175.197 214.565 182.193C212.647 191.165 207.608 201.942 207.608 201.942" fill="#E9EAEB"/>
<path d="M217.452 160.975C216.986 168.107 216.021 175.197 214.565 182.193C212.647 191.165 207.608 201.942 207.608 201.942" stroke="#575D68" stroke-width="0.5" stroke-miterlimit="10"/>
<path d="M165.254 65.6943C165.254 65.6943 164.523 69.8044 170.896 71.1833C177.269 72.5622 186.417 69.3449 186.417 69.3449" fill="#F6F6F6"/>
<path d="M165.254 65.6943C165.254 65.6943 164.523 69.8044 170.896 71.1833C177.269 72.5622 186.417 69.3449 186.417 69.3449" stroke="#575D68" stroke-width="0.5" stroke-miterlimit="10"/>
<path d="M162.104 67.0978C162.104 67.0978 161.244 71.8069 168.741 73.3868C176.238 74.9668 186.999 71.2805 186.999 71.2805" stroke="#575D68" stroke-width="0.5" stroke-miterlimit="10"/>
<path d="M195.171 33.6945C195.171 33.6945 195.64 37.241 191.039 39.8333C186.439 42.4256 183.961 47.32 185.537 50.6035C187.113 53.887 185.062 57.0576 185.062 57.0576C185.062 57.0576 185.225 52.3378 183.607 51.6966C181.989 51.0554 180.87 54.1012 179.022 55.8501C174.537 60.097 170.552 56.4619 170.552 56.4619" fill="#DDDEDF"/>
<path d="M195.171 33.6945C195.171 33.6945 195.64 37.241 191.039 39.8333C186.439 42.4256 183.961 47.32 185.537 50.6035C187.113 53.887 185.062 57.0576 185.062 57.0576C185.062 57.0576 185.225 52.3378 183.607 51.6966C181.989 51.0554 180.87 54.1012 179.022 55.8501C174.537 60.097 170.552 56.4619 170.552 56.4619" stroke="#575D68" stroke-width="0.5" stroke-miterlimit="10"/>
<path d="M167.465 33.6004C167.465 33.6004 166.963 35.0108 169.925 35.0437C172.887 35.0767 174.985 34.0886 176.191 32.1102C177.876 29.346 176.191 27.9976 176.191 27.9976" stroke="#575D68" stroke-width="0.5" stroke-miterlimit="10"/>
<path d="M218.823 94.2734C220.332 94.9573 221.527 96.1844 222.171 97.7101L218.823 94.2734Z" fill="#F6F6F6"/>
<path d="M218.823 94.2734C220.332 94.9573 221.527 96.1844 222.171 97.7101" stroke="#575D68" stroke-width="0.5" stroke-miterlimit="10"/>
<path d="M220.497 94.2734C222.006 94.9573 223.201 96.1844 223.845 97.7101L220.497 94.2734Z" fill="#F6F6F6"/>
<path d="M220.497 94.2734C222.006 94.9573 223.201 96.1844 223.845 97.7101" stroke="#575D68" stroke-width="0.5" stroke-miterlimit="10"/>
<path d="M211.45 76.8025C211.45 76.8025 211.767 74.7156 214.612 72.5036C216.675 70.8997 217.774 71.8052 217.774 71.8052" stroke="#575D68" stroke-width="0.5" stroke-miterlimit="10"/>
<path d="M152.45 109.452C154.133 107.909 155.39 105.958 156.1 103.788" stroke="#575D68" stroke-width="0.5" stroke-miterlimit="10"/>
<path d="M152.45 109.452C154.275 108.197 156.1 107.033 156.1 107.033" stroke="#575D68" stroke-width="0.5" stroke-miterlimit="10"/>
<path d="M201.883 56.392C201.883 56.392 203.405 56.5675 204.104 56.5675L201.883 56.392Z" fill="#F6F6F6"/>
<path d="M201.883 56.392C201.883 56.392 203.405 56.5675 204.104 56.5675" stroke="#575D68" stroke-width="0.5" stroke-miterlimit="10"/>
<path style="mix-blend-mode:multiply" d="M191.039 72.3266L191.379 72.0326C189.594 71.4045 187.919 70.4974 186.417 69.345C185.574 68.6487 183.857 66.9632 183.809 65.7953L169.154 61.9856C168.313 63.6288 166.938 64.9368 165.254 65.6944C164.427 66.06 163.615 66.4938 163.064 66.7314C161.356 67.4688 159.556 68.0743 158.184 69.3879C157.261 70.3482 156.564 71.5016 156.142 72.7645C152.73 81.7597 155.324 105.293 158.391 114.161C160.821 121.184 164.283 121.801 165.995 123.728C166.113 123.875 166.218 124.031 166.309 124.196C167.416 123.48 168.466 122.68 169.449 121.801C179.696 112.812 170.248 93.811 177.399 84.7037C184.55 75.5963 191.039 72.3266 191.039 72.3266Z" fill="url(#paint3_linear_3_25318)"/>
<path d="M212.798 235.552C212.798 235.552 210.534 231.733 211.808 231.512C213.081 231.291 213.486 231.948 213.688 232.63C213.89 233.313 214.178 235.472 214.178 235.472" fill="#F6F6F6"/>
<path d="M212.798 235.552C212.798 235.552 210.534 231.733 211.808 231.512C213.081 231.291 213.486 231.948 213.688 232.63C213.89 233.313 214.178 235.472 214.178 235.472" stroke="#575D68" stroke-width="0.5" stroke-miterlimit="10"/>
<path d="M174.862 249.756C174.862 249.756 172.598 245.937 173.871 245.716C175.145 245.495 175.549 246.152 175.751 246.835C175.954 247.518 176.241 249.676 176.241 249.676" fill="#F6F6F6"/>
<path d="M174.862 249.756C174.862 249.756 172.598 245.937 173.871 245.716C175.145 245.495 175.549 246.152 175.751 246.835C175.954 247.518 176.241 249.676 176.241 249.676" stroke="#575D68" stroke-width="0.5" stroke-miterlimit="10"/>
<path d="M173.872 250.063C174.69 249.711 175.587 249.586 176.469 249.701C177.352 249.816 178.187 250.166 178.887 250.715C182.187 253.238 184.854 253.687 185.764 251.259C186.674 248.832 184.706 246.835 184.706 246.835" stroke="#575D68" stroke-width="0.5" stroke-miterlimit="10"/>
<path d="M212.798 235.908C212.798 235.908 214.35 234.303 216.912 236.124C218.861 237.509 220.471 237.904 221.901 237.135C223.654 236.192 222.976 232.957 222.976 232.957" fill="#F6F6F6"/>
<path d="M212.798 235.908C212.798 235.908 214.35 234.303 216.912 236.124C218.861 237.509 220.471 237.904 221.901 237.135C223.654 236.192 222.976 232.957 222.976 232.957" stroke="#575D68" stroke-width="0.5" stroke-miterlimit="10"/>
<path d="M167.825 34.3499C165.239 39.4185 163.659 43.0276 168.147 53.4406" stroke="#575D68" stroke-width="0.5" stroke-miterlimit="10"/>
<path d="M184.996 45.0599C185.206 42.7524 187.208 41.0628 189.131 39.7695C191.053 38.4763 193.192 37.1421 193.971 34.9598C194.216 34.2569 194.303 33.5085 194.225 32.7681C194.147 32.0277 193.906 31.3137 193.52 30.6772" stroke="#575D68" stroke-width="0.5" stroke-miterlimit="10"/>
<path d="M187.155 43.1188C186.206 44.8781 186.237 47.0083 186.605 48.9731C186.973 50.938 187.651 52.8404 187.924 54.8207C188.197 56.801 188.013 58.957 186.821 60.5612C186.635 60.8403 186.381 61.0676 186.083 61.2217" stroke="#575D68" stroke-width="0.5" stroke-miterlimit="10"/>
<path d="M166.344 31.0131C166.606 31.8605 167.121 32.6074 167.82 33.1529C168.52 33.6984 169.369 34.0163 170.255 34.0637" stroke="#575D68" stroke-width="0.5" stroke-miterlimit="10"/>
<path d="M172.469 24.0604C173.54 24.708 174.394 25.6609 174.92 26.797C175.446 27.933 175.62 29.2004 175.421 30.4363" stroke="#575D68" stroke-width="0.5" stroke-miterlimit="10"/>
<path d="M240.102 141.625H241.455C241.958 141.626 242.448 141.792 242.85 142.096C243.251 142.401 243.542 142.828 243.679 143.313C243.742 143.106 243.775 142.892 243.778 142.677V131.903C243.778 131.287 243.533 130.696 243.098 130.26C242.662 129.825 242.071 129.58 241.455 129.58H240.102C239.486 129.58 238.895 129.825 238.459 130.26C238.023 130.696 237.778 131.287 237.778 131.903V142.677C237.781 142.892 237.815 143.106 237.878 143.313C238.014 142.828 238.305 142.401 238.707 142.096C239.108 141.792 239.598 141.626 240.102 141.625Z" fill="#F6F6F6" stroke="#575D68" stroke-width="0.5" stroke-miterlimit="10"/>
<path d="M241.867 75.6185H239.649C238.978 75.6185 238.435 76.1623 238.435 76.8332V202.653C238.435 203.324 238.978 203.867 239.649 203.867H241.867C242.538 203.867 243.082 203.324 243.082 202.653V76.8332C243.082 76.1623 242.538 75.6185 241.867 75.6185Z" fill="#F6F6F6" stroke="#575D68" stroke-width="0.5" stroke-miterlimit="10"/>
<path d="M241.454 133.337H240.102C239.598 133.336 239.108 133.171 238.707 132.866C238.305 132.562 238.014 132.135 237.878 131.65C237.815 131.856 237.781 132.07 237.778 132.286V143.059C237.778 143.675 238.023 144.266 238.459 144.702C238.895 145.138 239.486 145.383 240.102 145.383H241.454C242.071 145.383 242.662 145.138 243.098 144.702C243.533 144.266 243.778 143.675 243.778 143.059V132.286C243.775 132.07 243.742 131.856 243.679 131.65C243.542 132.135 243.251 132.562 242.85 132.866C242.448 133.171 241.958 133.336 241.454 133.337Z" fill="#F6F6F6" stroke="#575D68" stroke-width="0.5" stroke-miterlimit="10"/>
<path d="M204.364 121.108H205.717C206.221 121.109 206.71 121.275 207.112 121.579C207.513 121.884 207.804 122.311 207.941 122.796C208.004 122.59 208.037 122.376 208.04 122.16V111.387C208.04 110.77 207.796 110.179 207.36 109.744C206.924 109.308 206.333 109.063 205.717 109.063H204.364C203.748 109.063 203.157 109.308 202.721 109.744C202.285 110.179 202.041 110.77 202.041 111.387V122.16C202.044 122.376 202.077 122.59 202.14 122.796C202.277 122.311 202.568 121.884 202.969 121.579C203.371 121.275 203.86 121.109 204.364 121.108Z" fill="#F6F6F6" stroke="#575D68" stroke-width="0.5" stroke-miterlimit="10"/>
<path d="M206.129 55.1017H203.911C203.241 55.1017 202.697 55.6455 202.697 56.3163V182.136C202.697 182.807 203.241 183.351 203.911 183.351H206.129C206.8 183.351 207.344 182.807 207.344 182.136V56.3163C207.344 55.6455 206.8 55.1017 206.129 55.1017Z" fill="#F6F6F6" stroke="#575D68" stroke-width="0.5" stroke-miterlimit="10"/>
<path d="M205.717 112.821H204.364C203.86 112.819 203.37 112.654 202.969 112.349C202.568 112.045 202.276 111.618 202.14 111.133C202.077 111.339 202.044 111.553 202.041 111.769V122.542C202.041 123.158 202.285 123.749 202.721 124.185C203.157 124.621 203.748 124.866 204.364 124.866H205.717C206.333 124.866 206.924 124.621 207.36 124.185C207.795 123.749 208.04 123.158 208.04 122.542V111.769C208.037 111.553 208.004 111.339 207.941 111.133C207.804 111.618 207.513 112.045 207.112 112.349C206.71 112.654 206.221 112.819 205.717 112.821Z" fill="#F6F6F6" stroke="#575D68" stroke-width="0.5" stroke-miterlimit="10"/>
<path d="M113.864 174.616H115.217C115.72 174.617 116.21 174.782 116.612 175.087C117.013 175.392 117.304 175.819 117.441 176.304C117.504 176.097 117.537 175.883 117.54 175.668V164.894C117.54 164.278 117.295 163.687 116.86 163.251C116.424 162.816 115.833 162.571 115.217 162.571H113.864C113.248 162.571 112.657 162.815 112.221 163.251C111.785 163.687 111.54 164.278 111.54 164.894V175.668C111.543 175.883 111.577 176.097 111.639 176.304C111.776 175.819 112.067 175.391 112.469 175.087C112.87 174.782 113.36 174.617 113.864 174.616Z" fill="#F6F6F6" stroke="#575D68" stroke-width="0.5" stroke-miterlimit="10"/>
<path d="M115.629 108.609H113.411C112.74 108.609 112.197 109.153 112.197 109.824V235.644C112.197 236.314 112.74 236.858 113.411 236.858H115.629C116.3 236.858 116.844 236.314 116.844 235.644V109.824C116.844 109.153 116.3 108.609 115.629 108.609Z" fill="#F6F6F6" stroke="#575D68" stroke-width="0.5" stroke-miterlimit="10"/>
<path d="M115.216 166.328H113.864C113.36 166.327 112.87 166.162 112.469 165.857C112.067 165.553 111.776 165.125 111.639 164.641C111.577 164.847 111.543 165.061 111.54 165.276V176.05C111.54 176.666 111.785 177.257 112.221 177.693C112.657 178.129 113.248 178.373 113.864 178.373H115.216C115.833 178.373 116.424 178.129 116.859 177.693C117.295 177.257 117.54 176.666 117.54 176.05V165.276C117.537 165.061 117.504 164.847 117.441 164.641C117.304 165.126 117.013 165.553 116.611 165.857C116.21 166.162 115.72 166.327 115.216 166.328Z" fill="#F6F6F6" stroke="#575D68" stroke-width="0.5" stroke-miterlimit="10"/>
<path d="M149.405 194.448H150.757C151.261 194.45 151.751 194.615 152.152 194.919C152.554 195.224 152.845 195.651 152.982 196.136C153.044 195.93 153.078 195.716 153.081 195.5V184.727C153.081 184.111 152.836 183.52 152.4 183.084C151.965 182.648 151.374 182.403 150.757 182.403H149.405C148.788 182.403 148.197 182.648 147.762 183.084C147.326 183.52 147.081 184.111 147.081 184.727V195.5C147.084 195.716 147.118 195.93 147.18 196.136C147.317 195.651 147.608 195.224 148.01 194.919C148.411 194.615 148.901 194.449 149.405 194.448Z" fill="#F6F6F6" stroke="#575D68" stroke-width="0.5" stroke-miterlimit="10"/>
<path d="M151.17 128.442H148.952C148.281 128.442 147.737 128.986 147.737 129.657V255.476C147.737 256.147 148.281 256.691 148.952 256.691H151.17C151.841 256.691 152.384 256.147 152.384 255.476V129.657C152.384 128.986 151.841 128.442 151.17 128.442Z" fill="#F6F6F6" stroke="#575D68" stroke-width="0.5" stroke-miterlimit="10"/>
<path d="M150.757 186.161H149.405C148.901 186.16 148.411 185.994 148.01 185.69C147.608 185.385 147.317 184.958 147.18 184.473C147.118 184.679 147.084 184.893 147.081 185.109V195.882C147.081 196.499 147.326 197.09 147.762 197.525C148.197 197.961 148.788 198.206 149.405 198.206H150.757C151.373 198.206 151.964 197.961 152.4 197.525C152.836 197.09 153.081 196.499 153.081 195.882V185.109C153.078 184.893 153.044 184.679 152.982 184.473C152.845 184.958 152.554 185.385 152.152 185.69C151.751 185.994 151.261 186.16 150.757 186.161Z" fill="#F6F6F6" stroke="#575D68" stroke-width="0.5" stroke-miterlimit="10"/>
<path d="M112.195 107.767L150.21 129.95L243.872 75.8522L205.186 53.9224L112.195 107.767Z" fill="#F6F6F6" stroke="#575D68" stroke-width="0.5" stroke-miterlimit="10"/>
<path d="M112.195 107.767V115.443L150.75 137.997L243.872 83.8993V75.8522L150.21 129.95L112.195 107.767Z" fill="#F6F6F6" stroke="#575D68" stroke-width="0.5" stroke-miterlimit="10"/>
<path d="M116.441 28.7756V92.8793L121.023 95.9596L194.269 49.6638L203.219 -22.0331L196.737 -20.1916L116.441 28.7756Z" fill="#F6F6F6" stroke="#575D68" stroke-width="0.5" stroke-miterlimit="10"/>
<path d="M151.279 72.8597C151.288 73.2924 151.279 89.4576 151.279 89.4576L165.864 97.7101L181.074 89.35V86.3982L167.698 80.9627V62.7529L151.279 72.8597Z" fill="#F6F6F6" stroke="#575D68" stroke-width="0.5" stroke-miterlimit="10"/>
<path d="M152.449 71.2533C152.458 71.686 152.449 87.8512 152.449 87.8512L165.629 95.3089L181.074 86.3983L168.868 79.3562V61.1465L152.449 71.2533Z" fill="#F6F6F6" stroke="#575D68" stroke-width="0.5" stroke-miterlimit="10"/>
<path d="M120.844 28.202L121.023 95.9596L203.218 46.3178V-22.0331L120.844 28.202Z" fill="#F6F6F6" stroke="#575D68" stroke-width="0.5" stroke-miterlimit="10"/>
<path d="M168.867 1.6366V64.522L123.483 91.9116L123.318 29.3543L168.867 1.6366Z" fill="#CECECE"/>
<path d="M142.596 38.0881L130.657 45.0511L130.652 44.0648L142.592 37.1012L142.596 38.0881Z" fill="#CCA9FF"/>
<path d="M141.661 44.4762L134.032 48.9255L134.028 47.9386L141.657 43.4893L141.661 44.4762Z" fill="#CCA9FF"/>
<path d="M162.78 29.3746L140.998 42.0783L140.993 41.0921L162.776 28.3883L162.78 29.3746Z" fill="#CCA9FF"/>
<path d="M152.592 46.8322L130.809 59.536L130.804 58.5497L152.587 45.8459L152.592 46.8322Z" fill="#CCA9FF"/>
<path d="M138.298 43.6516L130.67 48.1008L130.665 47.1146L138.294 42.6653L138.298 43.6516Z" fill="#CCA9FF"/>
<path d="M145.49 45.3226L137.861 49.7719L137.857 48.785L145.486 44.3357L145.49 45.3226Z" fill="#CCA9FF"/>
<path d="M145.503 48.3932L137.874 52.8425L137.87 51.8563L145.499 47.407L145.503 48.3932Z" fill="#CCA9FF"/>
<path d="M166.122 36.3681L147.588 47.1775L147.584 46.1913L166.118 35.3818L166.122 36.3681Z" fill="#CCA9FF"/>
<path d="M142.688 59.2307L134.059 64.2638L134.053 63.0562L142.683 58.0232L142.688 59.2307Z" fill="#CCA9FF"/>
<path d="M161.663 35.8906L156.343 38.9931L156.339 38.0068L161.659 34.9043L161.663 35.8906Z" fill="#CCA9FF"/>
<path d="M138.925 58.3335L134.046 61.1798L134.04 59.9716L138.92 57.126L138.925 58.3335Z" fill="#CCA9FF"/>
<path d="M128.931 46.4176L128.327 46.7693L128.319 44.7967L128.923 44.4445L128.931 46.4176Z" fill="#CCA9FF"/>
<path d="M128.944 49.6454L128.341 49.9977L128.332 48.0245L128.935 47.6729L128.944 49.6454Z" fill="#CCA9FF"/>
<path d="M128.957 52.3803L128.051 52.908L128.042 50.9355L128.948 50.4071L128.957 52.3803Z" fill="#CCA9FF"/>
<path d="M128.97 55.4732L128.065 56.0017L128.057 54.0292L128.962 53.5007L128.97 55.4732Z" fill="#CCA9FF"/>
<path d="M128.983 58.5223L128.078 59.0501L128.07 57.0776L128.975 56.5492L128.983 58.5223Z" fill="#CCA9FF"/>
<path d="M128.997 61.3565L128.091 61.885L128.083 59.9118L128.988 59.384L128.997 61.3565Z" fill="#CCA9FF"/>
<path d="M129.01 64.4997L128.406 64.852L128.397 62.8795L129.001 62.5272L129.01 64.4997Z" fill="#CCA9FF"/>
<path d="M129.024 67.5843L128.42 67.9366L128.411 65.9635L129.015 65.6118L129.024 67.5843Z" fill="#CCA9FF"/>
<path d="M127.036 35.4906L132.245 29.5344L132.197 30.5068L127.811 35.4498L127.81 35.4779L131.923 36.058L131.875 37.0303L126.998 36.2518L127.036 35.4906Z" fill="#CCA9FF"/>
<path d="M132.558 37.2292L136.095 25.4576L136.834 25.078L133.286 36.8553L132.558 37.2292Z" fill="#CCA9FF"/>
<path d="M142.244 28.455L136.82 34.6432L136.87 33.6306L141.471 28.4656L141.473 28.4363L137.155 27.8498L137.205 26.8373L142.284 27.6337L142.244 28.455Z" fill="#CCA9FF"/>
<path d="M101.595 266.732C101.595 269.641 96.387 272 89.9625 272C83.538 272 78.3298 269.641 78.3298 266.732V265.01C78.3298 265.01 85.1441 261.464 89.9625 261.464C94.6533 261.464 101.595 265.01 101.595 265.01V266.732Z" fill="#F6F6F6" stroke="#575D68" stroke-width="0.5" stroke-miterlimit="10"/>
<path d="M89.9625 270.278C96.387 270.278 101.595 267.919 101.595 265.01C101.595 262.1 96.387 259.742 89.9625 259.742C83.538 259.742 78.3298 262.1 78.3298 265.01C78.3298 267.919 83.538 270.278 89.9625 270.278Z" fill="#F6F6F6" stroke="#575D68" stroke-width="0.5" stroke-miterlimit="10"/>
<path d="M87.7376 163.18H92.1873V263.847C92.1873 264.155 92.0648 264.451 91.8466 264.669C91.6285 264.887 91.3327 265.01 91.0243 265.01H88.9006C88.5921 265.01 88.2963 264.887 88.0782 264.669C87.8601 264.451 87.7375 264.155 87.7375 263.847V163.18H87.7376Z" fill="#F6F6F6" stroke="#575D68" stroke-width="0.5" stroke-miterlimit="10"/>
<path d="M64.4334 153.122C70.0148 149.445 79.3647 147.033 89.962 147.033C91.9239 147.033 93.8404 147.119 95.7009 147.277L98.8115 147.614V134.284L97.31 132.303C94.4937 132.014 91.6631 131.887 88.8322 131.924C71.7322 131.924 58.9998 137.706 58.9998 145.449C58.9998 148.701 60.3314 150.744 64.4334 153.122Z" fill="#F6F6F6" stroke="#575D68" stroke-width="0.5" stroke-miterlimit="10"/>
<path d="M120.924 163.751C120.924 171.495 107.062 177.772 89.962 177.772C72.862 177.772 58.9998 171.495 58.9998 163.751V161.054C58.9998 161.054 75.4591 149.73 89.962 149.73C103.532 149.73 120.924 160.544 120.924 160.544V163.751Z" fill="#F6F6F6" stroke="#575D68" stroke-width="0.5" stroke-miterlimit="10"/>
<path d="M89.962 175.076C107.062 175.076 120.924 168.798 120.924 161.054C120.924 153.311 107.062 147.033 89.962 147.033C72.862 147.033 58.9998 153.311 58.9998 161.054C58.9998 168.798 72.862 175.076 89.962 175.076Z" fill="#F6F6F6" stroke="#575D68" stroke-width="0.5" stroke-miterlimit="10"/>
<path d="M60.5334 150.08V161.504C60.5334 166.206 77.9097 173.974 77.9097 173.974L79.4438 172.44V154.02C76.5945 153.821 73.7708 153.35 71.0115 152.612C71.0115 152.612 65.6562 151.214 63.5279 148.944" fill="#F6F6F6"/>
<path d="M60.5334 150.08V161.504C60.5334 166.206 77.9097 173.974 77.9097 173.974L79.4438 172.44V154.02C76.5945 153.821 73.7708 153.35 71.0115 152.612C71.0115 152.612 65.6562 151.214 63.5279 148.944" stroke="#575D68" stroke-width="0.5" stroke-miterlimit="10"/>
<path d="M59.0807 145.726C59.0772 145.716 59.0704 145.709 59.0615 145.704C59.0527 145.699 59.0423 145.697 59.0325 145.7C59.0226 145.702 59.0139 145.707 59.0079 145.716C59.0019 145.724 58.9991 145.734 58.9999 145.744V163.038C58.9999 167.954 66.7974 172.172 77.9102 173.974V155.554C77.9102 155.554 70.5215 155.158 65.3114 152.612C62.4324 151.195 60.2036 148.732 59.0807 145.726Z" fill="#F6F6F6" stroke="#575D68" stroke-width="0.5" stroke-miterlimit="10"/>
<path d="M71.0124 152.612C77.6805 150.151 84.7333 148.897 91.841 148.908C93.8028 148.908 95.7193 148.994 97.5798 149.152L98.8119 149.272V134.284C96.124 133.958 93.4187 133.796 90.7112 133.799C75.8465 133.799 61.734 138.444 61.5128 144.396C61.399 147.456 63.7312 149.556 66.8458 151.078C68.1853 151.714 69.5799 152.228 71.0124 152.612Z" fill="#F6F6F6"/>
<path d="M71.0124 152.612C77.6805 150.151 84.7333 148.897 91.841 148.908C93.8028 148.908 95.7193 148.994 97.5798 149.152L98.8119 149.272V134.284C96.124 133.958 93.4187 133.796 90.7112 133.799C75.8465 133.799 61.734 138.444 61.5128 144.396C61.399 147.456 63.7312 149.556 66.8458 151.078C68.1853 151.714 69.5799 152.228 71.0124 152.612" stroke="#575D68" stroke-width="0.5" stroke-miterlimit="10"/>
<path d="M156.1 85.979L168.868 79.3562" stroke="#575D68" stroke-width="0.5" stroke-miterlimit="10"/>
<path d="M165.629 95.3088V97.7101" stroke="#575D68" stroke-width="0.5" stroke-miterlimit="10"/>
<path d="M123.318 29.3542L123.483 91.9115L200.878 45.2628V-17.8427L123.318 29.3542Z" stroke="#575D68" stroke-width="0.5" stroke-miterlimit="10"/>
<path d="M181.764 21.2149V43.4989L195.304 35.7385L195.176 13.1556L181.764 21.2149Z" stroke="#7700FF" stroke-width="0.5" stroke-miterlimit="10"/>
<path d="M195.303 35.7386L183.555 28.7642L171.05 36.0444L181.79 43.4754L195.303 35.7386Z" stroke="#7700FF" stroke-width="0.5" stroke-miterlimit="10"/>
<path d="M183.555 28.7642L183.949 7.19617L171.05 15.071V35.998L183.555 28.7642Z" stroke="#7700FF" stroke-width="0.5" stroke-miterlimit="10"/>
<path d="M171.05 15.1179L181.806 21.3238" stroke="#7700FF" stroke-width="0.5" stroke-miterlimit="10"/>
<path d="M185.847 8.03223L193.165 12.2546" stroke="#7700FF" stroke-width="0.5" stroke-miterlimit="10"/>
<path d="M170.552 56.4618C169.628 54.5386 168.287 56.0931 166.09 52.4501C165.022 50.6801 163.655 45.0943 163.659 43.0274C163.671 37.0202 167.464 33.8533 170.549 29.776C173.793 25.4894 178.255 25.6814 183.615 25.2708C185.598 25.0861 187.595 25.415 189.414 26.2259C191.233 27.0367 192.813 28.3022 194.001 29.9005C195.075 31.3033 195.007 32.9208 195.17 34.6852L188.534 47.0537L182.798 57.9103L172.953 61.2528L170.552 56.4618Z" fill="#DDDEDF" stroke="#575D68" stroke-width="0.5" stroke-miterlimit="10"/>
<path d="M212.53 240.169C211.442 241.715 210.727 243.492 210.44 245.36C210.283 246.395 210.105 248.529 211.114 249.233C213.879 251.158 219.137 251.361 224.531 248.933C229.925 246.506 234.711 246.629 237.004 245.833C239.296 245.036 241.572 244.381 242.667 242.124C242.852 241.734 242.982 241.32 243.054 240.894C243.116 240.542 243.076 240.179 242.938 239.849C242.8 239.519 242.57 239.235 242.276 239.032L240.218 237.608" fill="#F6F6F6"/>
<path d="M212.53 240.169C211.442 241.715 210.727 243.492 210.44 245.36C210.283 246.395 210.105 248.529 211.114 249.233C213.879 251.158 219.137 251.361 224.531 248.933C229.925 246.506 234.711 246.629 237.004 245.833C239.296 245.036 241.572 244.381 242.667 242.124C242.852 241.734 242.982 241.32 243.054 240.894C243.116 240.542 243.076 240.179 242.938 239.849C242.8 239.519 242.57 239.235 242.276 239.032L240.218 237.608" stroke="#575D68" stroke-width="0.5" stroke-miterlimit="10"/>
<path d="M173.493 255.262C173.493 255.262 171.808 260.039 171.808 261.464C171.814 261.781 171.856 262.097 171.932 262.404C172.156 263.305 172.666 264.108 173.387 264.693C174.107 265.278 174.998 265.613 175.926 265.647C177.999 265.733 181.102 265.272 185.056 262.991C192.698 258.582 191.496 256.686 195.075 255.745C200.048 254.437 204.979 249.233 202.879 247.546L201.236 245.833L173.493 255.262Z" fill="#F6F6F6" stroke="#575D68" stroke-width="0.5" stroke-miterlimit="10"/>
<path d="M207.677 58.5398C207.501 57.6396 207.256 56.7542 206.945 55.8915C206.534 54.8881 205.872 53.2542 205.45 53.1758C204.155 53.267 202.864 53.4261 201.585 53.6524C201.342 53.6897 201.119 53.8083 200.952 53.9889C200.786 54.1695 200.685 54.4014 200.668 54.6466L200.427 57.9105" fill="#F6F6F6"/>
<path d="M207.677 58.5398C207.501 57.6396 207.256 56.7542 206.945 55.8915C206.534 54.8881 205.872 53.2542 205.45 53.1758C204.155 53.267 202.864 53.4261 201.585 53.6524C201.342 53.6897 201.119 53.8083 200.952 53.9889C200.786 54.1695 200.685 54.4014 200.668 54.6466L200.427 57.9105" stroke="#575D68" stroke-width="0.5" stroke-miterlimit="10"/>
<path d="M159.135 68.6294C158.746 69.0073 156.032 69.4101 154.773 71.5269C151.868 76.4113 151.358 78.5525 149.351 83.8757C147.317 89.273 145.608 97.2058 143.749 102.666C141.806 108.376 139.834 114.35 140.689 120.321C140.83 121.308 141.216 122.466 142.186 122.695C142.894 122.863 143.496 122.207 144.207 122.056C154.231 119.922 156.976 118.472 161 115.077C161.955 114.271 163.535 114.514 164.364 113.579C164.946 112.798 165.315 111.879 165.436 110.912C166.561 105.518 167.658 100.122 168.35 94.6505C169.04 89.1982 169.499 83.5507 168.706 78.0838C168.452 75.8431 167.79 73.6679 166.753 71.6652C166.264 70.6715 165.607 69.7697 164.812 68.9995C163.676 68.1054 159.778 68.0051 159.135 68.6294Z" fill="#F6F6F6" stroke="#575D68" stroke-width="0.5" stroke-miterlimit="10"/>
<path style="mix-blend-mode:multiply" d="M159.135 68.6294C158.746 69.0073 156.032 69.4101 154.773 71.5269C151.868 76.4113 151.358 78.5525 149.351 83.8757C147.317 89.273 145.608 97.2058 143.749 102.666C141.806 108.376 139.834 114.35 140.689 120.321C140.83 121.308 141.216 122.466 142.186 122.695C142.894 122.863 143.496 122.207 144.207 122.056C154.231 119.922 156.976 118.472 161 115.077C161.955 114.271 163.535 114.514 164.364 113.579C164.946 112.798 165.315 111.879 165.436 110.912C166.561 105.518 167.658 100.122 168.35 94.6505C169.04 89.1982 169.499 83.5507 168.706 78.0838C168.452 75.8431 167.79 73.6679 166.753 71.6652C166.264 70.6715 165.607 69.7697 164.812 68.9995C163.676 68.1054 159.778 68.0051 159.135 68.6294Z" fill="url(#paint4_linear_3_25318)"/>
<path d="M195.17 34.6853C195.22 35.2957 195.317 35.9012 195.462 36.4962C196.137 39.1566 196.275 38.8423 196.277 41.6521C196.277 42.8105 195.223 44.2137 196.329 47.7667C198.182 53.7186 194.001 61.6268 190.821 64.0252C190.085 64.5798 184.176 64.5408 183.853 65.4035C183.424 66.548 185.475 68.5669 186.417 69.345C190.412 72.6435 196.77 73.0751 200.765 76.3736C202.263 77.6102 203.041 81.3729 203.856 83.1361C206.702 89.2972 204.372 94.771 205.041 102.402C205.294 106.743 205.024 111.098 204.237 115.374C203.821 117.248 200.565 119.946 199.925 122.042C199.429 123.667 199.586 123.666 199.751 125.183C200.117 128.539 204.223 131.704 206.357 134.176C210.486 138.959 214.447 144.192 215.65 150.568C216.464 154.885 215.404 159.236 216.127 163.61C218.498 177.936 221.637 191.57 221.16 206.276C220.936 213.179 220.452 223.651 222.122 230.356C223.352 235.295 224.8 235.808 229.378 236.038C230.218 236.08 236.254 236.877 239.662 237.424C239.996 237.48 240.307 237.625 240.563 237.845C240.819 238.066 241.01 238.352 241.114 238.673C241.218 238.995 241.232 239.338 241.155 239.667C241.077 239.996 240.91 240.297 240.673 240.537C238.843 242.331 236.417 243.388 233.857 243.507C226.216 243.607 222.901 247.057 217.452 247.081C215.853 247.089 213.584 247.144 212.867 246.324C209.968 243.01 213.38 238.295 212.798 235.908C210.318 225.741 205.78 219.428 205.165 210.135C204.86 205.531 205.304 200.867 204.509 196.321C203.862 192.625 202.416 189.123 200.98 185.656L191.263 162.2L187.391 163.103C187.745 169.807 189.443 176.238 189.211 182.947C189.005 188.924 186.729 194.437 186.185 200.287C184.742 215.799 186.553 231.298 184.706 246.835C188.157 246.399 191.549 245.582 194.819 244.397C197.707 243.35 199.445 243.876 201.22 245.816C201.463 246.074 201.63 246.393 201.705 246.74C201.779 247.086 201.758 247.446 201.643 247.782C200.072 252.052 194.592 252.259 191.695 254.519C189.748 256.038 187.592 257.327 186.004 259.148C184.729 260.61 181.314 262.283 178.786 262.283C173.979 262.283 172.774 260.034 173.491 255.281L173.493 255.262C175.179 238.551 171.084 233.558 169.591 222.43C167.727 208.54 171.085 194.238 168.381 180.486C167.431 175.65 165.745 170.982 164.79 166.147C162.559 154.859 164.403 143.117 167.721 132.099C168.089 131.137 168.251 130.109 168.196 129.08C168.065 128.364 167.825 127.672 167.485 127.029C166.972 125.926 166.791 124.625 165.995 123.728C164.283 121.801 160.821 121.184 158.391 114.161C155.324 105.293 152.73 81.7598 156.142 72.7646C156.564 71.5016 157.261 70.3483 158.184 69.388C159.556 68.0744 161.356 67.4688 163.064 66.7315C163.615 66.4938 164.427 66.0601 165.254 65.6945C167.006 64.9109 168.425 63.5345 169.261 61.8076C169.939 60.4226 171.309 58.0383 170.551 56.4619" fill="url(#paint5_linear_3_25318)"/>
<path d="M195.17 34.6853C195.22 35.2957 195.317 35.9012 195.462 36.4962C196.137 39.1566 196.275 38.8423 196.277 41.6521C196.277 42.8105 195.223 44.2137 196.329 47.7667C198.182 53.7186 194.001 61.6268 190.821 64.0252C190.085 64.5798 184.176 64.5408 183.853 65.4035C183.424 66.548 185.475 68.5669 186.417 69.345C190.412 72.6435 196.77 73.0751 200.765 76.3736C202.263 77.6102 203.041 81.3729 203.856 83.1361C206.702 89.2972 204.372 94.771 205.041 102.402C205.294 106.743 205.024 111.098 204.237 115.374C203.821 117.248 200.565 119.946 199.925 122.042C199.429 123.667 199.586 123.666 199.751 125.183C200.117 128.539 204.223 131.704 206.357 134.176C210.486 138.959 214.447 144.192 215.65 150.568C216.464 154.885 215.404 159.236 216.127 163.61C218.498 177.936 221.637 191.57 221.16 206.276C220.936 213.179 220.452 223.651 222.122 230.356C223.352 235.295 224.8 235.808 229.378 236.038C230.218 236.08 236.254 236.877 239.662 237.424C239.996 237.48 240.307 237.625 240.563 237.845C240.819 238.066 241.01 238.352 241.114 238.673C241.218 238.995 241.232 239.338 241.155 239.667C241.077 239.996 240.91 240.297 240.673 240.537C238.843 242.331 236.417 243.388 233.857 243.507C226.216 243.607 222.901 247.056 217.452 247.081C215.853 247.089 213.584 247.144 212.867 246.324C209.968 243.01 213.38 238.295 212.798 235.908C210.318 225.741 205.78 219.428 205.165 210.135C204.86 205.531 205.304 200.867 204.509 196.321C203.862 192.625 202.416 189.123 200.98 185.656L191.263 162.2L187.391 163.103C187.745 169.807 189.443 176.238 189.211 182.947C189.005 188.924 186.729 194.437 186.185 200.287C184.742 215.799 186.553 231.298 184.706 246.835C188.157 246.399 191.549 245.582 194.819 244.397C197.707 243.35 199.445 243.876 201.22 245.816C201.463 246.074 201.63 246.393 201.705 246.74C201.779 247.086 201.758 247.446 201.643 247.782C200.072 252.052 194.592 252.259 191.695 254.519C189.748 256.038 187.592 257.327 186.004 259.148C184.729 260.61 181.314 262.283 178.786 262.283C173.979 262.283 172.774 260.034 173.491 255.281L173.493 255.262C175.179 238.551 171.084 233.558 169.591 222.43C167.727 208.54 171.085 194.238 168.381 180.486C167.431 175.65 165.745 170.982 164.79 166.147C162.559 154.859 164.403 143.117 167.721 132.099C168.089 131.137 168.251 130.109 168.196 129.08C168.065 128.364 167.825 127.672 167.485 127.029C166.972 125.926 166.791 124.625 165.995 123.728C164.283 121.801 160.821 121.184 158.391 114.161C155.324 105.293 152.73 81.7598 156.142 72.7646C156.564 71.5016 157.261 70.3483 158.184 69.388C159.556 68.0744 161.356 67.4688 163.064 66.7315C163.615 66.4938 164.427 66.0601 165.254 65.6945C167.006 64.9109 168.425 63.5345 169.261 61.8076C169.939 60.4226 171.309 58.0383 170.551 56.4619" stroke="#333333" stroke-width="0.5" stroke-miterlimit="10"/>
<path d="M174.17 22.442C173.135 21.3758 171.953 20.2899 170.469 20.2048C168.239 20.0769 166.421 21.9522 165.225 23.8393C164.298 25.3023 163.514 26.9755 163.682 28.6993C163.815 29.5708 164.126 30.4054 164.597 31.1505C165.068 31.8955 165.689 32.5349 166.419 33.0283C166.898 33.4574 167.467 33.7737 168.084 33.954C168.701 34.1342 169.351 34.1739 169.986 34.07C171.068 33.9238 172.102 33.5348 173.013 32.9321C173.923 32.3294 174.685 31.5286 175.243 30.5897C176.463 28.5424 177.178 25.5417 174.17 22.442Z" fill="#DDDEDF" stroke="#575D68" stroke-width="0.5" stroke-miterlimit="10"/>
<path d="M168.196 129.08C168.196 129.08 162.878 142.92 162.306 153.212C161.733 163.505 164.48 181.579 165.251 188.418C166.022 195.257 160.032 216.234 160.032 216.234C160.032 216.234 167.976 218.59 179.456 218.59C188.737 218.59 195.12 209.681 203.236 206.493C211.941 203.073 225.811 203.885 225.811 203.885C225.811 203.885 224.098 179.272 223.421 175.23C222.33 168.709 219.472 155.209 216.65 149.063C214.101 143.757 211.087 138.687 207.643 133.913C207.001 132.989 200.352 124.794 199.751 125.183C199.748 125.185 193.377 129.311 186.295 130.043C179.211 130.775 168.196 129.08 168.196 129.08Z" fill="#FFAF9C" stroke="#575D68" stroke-width="0.5" stroke-miterlimit="10"/>
<path style="mix-blend-mode:multiply" d="M168.196 129.08C168.196 129.08 162.878 142.92 162.306 153.212C161.733 163.505 164.48 181.579 165.251 188.418C166.022 195.257 160.032 216.234 160.032 216.234C160.032 216.234 167.976 218.59 179.456 218.59C188.737 218.59 195.12 209.681 203.236 206.493C211.941 203.073 225.811 203.885 225.811 203.885C225.811 203.885 224.098 179.272 223.421 175.23C222.33 168.709 219.472 155.209 216.65 149.063C214.101 143.757 211.087 138.687 207.643 133.913C207.001 132.989 200.352 124.794 199.751 125.183C199.748 125.185 193.377 129.311 186.295 130.043C179.211 130.775 168.196 129.08 168.196 129.08Z" fill="url(#paint6_linear_3_25318)"/>
<path style="mix-blend-mode:multiply" d="M199.751 125.183C199.585 123.666 199.428 123.667 199.925 122.042C200.564 119.946 203.82 117.248 204.237 115.374C205.024 111.098 205.294 106.743 205.041 102.402C204.691 98.4167 195.054 100.058 195.176 96.8441L188.461 83.7083C188.461 83.7083 181.074 91.6176 185.536 99.4645C188.183 104.119 195.63 108.411 192.922 114.555C190.214 120.7 182.797 126.008 182.797 126.008L196.132 123.107C194.688 121.511 199.945 126.961 199.751 125.183Z" fill="url(#paint7_linear_3_25318)"/>
<path d="M195.176 96.8441C203.72 106.857 215.25 113.535 228.747 113.244C229.926 113.218 231.21 113.098 232.068 112.288C232.894 111.51 233.109 110.296 233.239 109.168C234.163 101.159 233.495 92.879 227.54 83.3745C223.158 76.3807 219.19 73.8037 214.008 67.6516C211.048 64.1363 206.794 57.1298 205.699 55.2996C205.525 55.0031 205.27 54.7625 204.964 54.6062C203.037 53.6446 200.974 52.4755 198.135 49.1097C197.453 49.639 197.985 51.7506 198.405 52.5048C198.826 53.259 199.637 53.4572 200.225 54.0892C200.648 54.543 201.67 56.0504 202.116 56.4572C201.512 56.4771 200.908 56.4486 200.309 56.3722C200.052 56.3728 197.495 54.0453 196.686 55.85C197.785 57.5625 200.18 58.7652 200.984 59.9888C202.096 61.6826 202.888 63.7563 204.665 64.7307C204.924 64.8491 205.169 64.9977 205.394 65.1732C205.606 65.3908 205.777 65.6445 205.9 65.9224C206.636 67.3475 211.583 76.8627 213.339 80.7201C215.2 84.8104 217.994 89.3964 219.997 93.4229C220.077 93.5783 220.099 93.7571 220.058 93.9271C220.018 94.0971 219.918 94.2472 219.777 94.3502C219.636 94.4533 219.463 94.5025 219.289 94.4891C219.115 94.4757 218.951 94.4006 218.827 94.2772C212.4 87.7526 202.404 77.1661 200.765 76.3736" fill="#F6F6F6"/>
<path d="M195.176 96.8441C203.72 106.857 215.25 113.535 228.747 113.244C229.926 113.218 231.21 113.098 232.068 112.288C232.894 111.51 233.109 110.296 233.239 109.168C234.163 101.159 233.495 92.879 227.54 83.3745C223.158 76.3807 219.19 73.8037 214.008 67.6516C211.048 64.1363 206.794 57.1298 205.699 55.2996C205.525 55.0031 205.27 54.7625 204.964 54.6062C203.037 53.6446 200.974 52.4755 198.135 49.1097C197.453 49.639 197.985 51.7506 198.405 52.5048C198.826 53.259 199.637 53.4572 200.225 54.0892C200.648 54.543 201.67 56.0504 202.116 56.4572C201.512 56.4771 200.908 56.4486 200.309 56.3722C200.052 56.3728 197.495 54.0453 196.686 55.85C197.785 57.5625 200.18 58.7652 200.984 59.9888C202.096 61.6826 202.888 63.7563 204.665 64.7307C204.924 64.8491 205.169 64.9977 205.394 65.1732C205.606 65.3908 205.777 65.6445 205.9 65.9224C206.636 67.3475 211.583 76.8627 213.339 80.7201C215.2 84.8104 217.994 89.3964 219.997 93.4229C220.077 93.5783 220.099 93.7571 220.058 93.9271C220.018 94.0971 219.918 94.2472 219.777 94.3502C219.636 94.4533 219.463 94.5025 219.289 94.4891C219.115 94.4758 218.951 94.4006 218.827 94.2772C212.4 87.7526 202.404 77.1661 200.765 76.3736" stroke="#575D68" stroke-width="0.5" stroke-miterlimit="10"/>
<path d="M161.899 212.429C161.899 212.429 169.842 214.784 181.322 214.784C190.604 214.784 196.987 205.875 205.102 202.688C213.808 199.268 225.272 200.378 225.272 200.378" stroke="#575D68" stroke-width="0.5" stroke-miterlimit="10"/>
<path d="M172.668 129.645C171.771 132.465 171.063 135.341 170.548 138.255C169.749 143.779 169.123 151.261 169.123 151.261" stroke="#575D68" stroke-width="0.5" stroke-miterlimit="10"/>
<path d="M176.411 129.804C176.166 133.1 175.929 136.48 176.851 139.654" stroke="#575D68" stroke-width="0.5" stroke-miterlimit="10"/>
<path d="M196.635 126.596C200.515 129.855 202.831 134.557 205.04 139.117" stroke="#575D68" stroke-width="0.5" stroke-miterlimit="10"/>
<path d="M191.039 129.315L192.502 132.27C193.968 135.02 195.183 137.895 196.132 140.863" stroke="#575D68" stroke-width="0.5" stroke-miterlimit="10"/>
<path d="M185.536 130.185C186.911 132.853 187.429 137.634 188.461 140.453" stroke="#575D68" stroke-width="0.5" stroke-miterlimit="10"/>
<path d="M168.197 129.08L166.09 123.687C166.09 123.687 176.987 126.598 182.798 126.008C191.04 125.17 200.044 121.801 200.044 121.801L199.752 125.183C199.752 125.183 199.3 129.315 182.124 131.144C173.274 132.087 168.197 129.08 168.197 129.08Z" fill="#E9EAEB" stroke="#575D68" stroke-width="0.5" stroke-miterlimit="10"/>
<path d="M165.044 186.01C165.044 186.01 168.147 194.276 168.871 200.656C169.025 202.008 169.28 204.617 169.448 207.208" stroke="#575D68" stroke-width="0.5" stroke-miterlimit="10"/>
<path d="M217.452 160.975C216.986 168.107 216.021 175.197 214.565 182.193C212.647 191.165 207.608 201.942 207.608 201.942" stroke="#575D68" stroke-width="0.5" stroke-miterlimit="10"/>
<path d="M165.254 65.6943C165.254 65.6943 164.523 69.8044 170.896 71.1833C177.269 72.5622 186.417 69.3449 186.417 69.3449" fill="#F6F6F6"/>
<path d="M165.254 65.6943C165.254 65.6943 164.523 69.8044 170.896 71.1833C177.269 72.5622 186.417 69.3449 186.417 69.3449" stroke="#575D68" stroke-width="0.5" stroke-miterlimit="10"/>
<path d="M162.104 67.0978C162.104 67.0978 161.244 71.8069 168.741 73.3868C176.238 74.9668 186.999 71.2805 186.999 71.2805" stroke="#575D68" stroke-width="0.5" stroke-miterlimit="10"/>
<path d="M195.171 33.6945C195.171 33.6945 195.64 37.241 191.039 39.8333C186.439 42.4256 183.961 47.32 185.537 50.6035C187.113 53.887 185.062 57.0576 185.062 57.0576C185.062 57.0576 185.225 52.3378 183.607 51.6966C181.989 51.0554 180.87 54.1012 179.022 55.8501C174.537 60.097 170.552 56.4619 170.552 56.4619" fill="#DDDEDF"/>
<path d="M195.171 33.6945C195.171 33.6945 195.64 37.241 191.039 39.8333C186.439 42.4256 183.961 47.32 185.537 50.6035C187.113 53.887 185.062 57.0576 185.062 57.0576C185.062 57.0576 185.225 52.3378 183.607 51.6966C181.989 51.0554 180.87 54.1012 179.022 55.8501C174.537 60.097 170.552 56.4619 170.552 56.4619" stroke="#575D68" stroke-width="0.5" stroke-miterlimit="10"/>
<path d="M167.465 33.6004C167.465 33.6004 166.963 35.0108 169.925 35.0437C172.887 35.0767 174.985 34.0886 176.191 32.1102C177.876 29.346 176.191 27.9976 176.191 27.9976" stroke="#575D68" stroke-width="0.5" stroke-miterlimit="10"/>
<path d="M218.823 94.2734C220.332 94.9573 221.527 96.1844 222.171 97.7101L218.823 94.2734Z" fill="#F6F6F6"/>
<path d="M218.823 94.2734C220.332 94.9573 221.527 96.1844 222.171 97.7101" stroke="#575D68" stroke-width="0.5" stroke-miterlimit="10"/>
<path d="M220.497 94.2734C222.006 94.9573 223.201 96.1844 223.845 97.7101L220.497 94.2734Z" fill="#F6F6F6"/>
<path d="M220.497 94.2734C222.006 94.9573 223.201 96.1844 223.845 97.7101" stroke="#575D68" stroke-width="0.5" stroke-miterlimit="10"/>
<path d="M211.45 76.8025C211.45 76.8025 211.767 74.7156 214.612 72.5036C216.675 70.8997 217.774 71.8052 217.774 71.8052" stroke="#575D68" stroke-width="0.5" stroke-miterlimit="10"/>
<path d="M152.45 109.452C154.133 107.909 155.39 105.958 156.1 103.788" stroke="#575D68" stroke-width="0.5" stroke-miterlimit="10"/>
<path d="M152.45 109.452C154.275 108.197 156.1 107.033 156.1 107.033" stroke="#575D68" stroke-width="0.5" stroke-miterlimit="10"/>
<path d="M201.883 56.392C201.883 56.392 203.405 56.5675 204.104 56.5675L201.883 56.392Z" fill="#F6F6F6"/>
<path d="M201.883 56.392C201.883 56.392 203.405 56.5675 204.104 56.5675" stroke="#575D68" stroke-width="0.5" stroke-miterlimit="10"/>
<path style="mix-blend-mode:multiply" d="M191.039 72.3266L191.379 72.0326C189.594 71.4045 187.919 70.4974 186.417 69.345C185.574 68.6487 183.857 66.9632 183.809 65.7953L169.154 61.9856C168.313 63.6288 166.938 64.9368 165.254 65.6944C164.427 66.06 163.615 66.4938 163.064 66.7314C161.356 67.4688 159.556 68.0743 158.184 69.3879C157.261 70.3482 156.564 71.5016 156.142 72.7645C152.73 81.7597 155.324 105.293 158.391 114.161C160.821 121.184 164.283 121.801 165.995 123.728C166.113 123.875 166.218 124.031 166.309 124.196C167.416 123.48 168.466 122.68 169.449 121.801C179.696 112.812 170.248 93.811 177.399 84.7037C184.55 75.5963 191.039 72.3266 191.039 72.3266Z" fill="url(#paint8_linear_3_25318)"/>
<path d="M212.798 235.552C212.798 235.552 210.534 231.733 211.808 231.512C213.081 231.291 213.486 231.948 213.688 232.63C213.89 233.313 214.178 235.472 214.178 235.472" fill="#F6F6F6"/>
<path d="M212.798 235.552C212.798 235.552 210.534 231.733 211.808 231.512C213.081 231.291 213.486 231.948 213.688 232.63C213.89 233.313 214.178 235.472 214.178 235.472" stroke="#575D68" stroke-width="0.5" stroke-miterlimit="10"/>
<path d="M174.862 249.756C174.862 249.756 172.598 245.937 173.871 245.716C175.145 245.495 175.549 246.152 175.751 246.835C175.954 247.518 176.241 249.676 176.241 249.676" fill="#F6F6F6"/>
<path d="M174.862 249.756C174.862 249.756 172.598 245.937 173.871 245.716C175.145 245.495 175.549 246.152 175.751 246.835C175.954 247.518 176.241 249.676 176.241 249.676" stroke="#575D68" stroke-width="0.5" stroke-miterlimit="10"/>
<path d="M173.872 250.063C174.69 249.711 175.587 249.586 176.469 249.701C177.352 249.816 178.187 250.166 178.887 250.715C182.187 253.238 184.854 253.687 185.764 251.259C186.674 248.832 184.706 246.835 184.706 246.835" fill="#F6F6F6"/>
<path d="M173.872 250.063C174.69 249.711 175.587 249.586 176.469 249.701C177.352 249.816 178.187 250.166 178.887 250.715C182.187 253.238 184.854 253.687 185.764 251.259C186.674 248.832 184.706 246.835 184.706 246.835" stroke="#575D68" stroke-width="0.5" stroke-miterlimit="10"/>
<path d="M212.798 235.908C212.798 235.908 214.35 234.303 216.912 236.124C218.861 237.509 220.471 237.904 221.901 237.135C223.654 236.192 222.976 232.957 222.976 232.957" fill="#F6F6F6"/>
<path d="M212.798 235.908C212.798 235.908 214.35 234.303 216.912 236.124C218.861 237.509 220.471 237.904 221.901 237.135C223.654 236.192 222.976 232.957 222.976 232.957" stroke="#575D68" stroke-width="0.5" stroke-miterlimit="10"/>
<path d="M167.825 34.3499C165.239 39.4185 163.659 43.0276 168.147 53.4406" stroke="#575D68" stroke-width="0.5" stroke-miterlimit="10"/>
<path d="M184.996 45.0599C185.206 42.7524 187.208 41.0628 189.131 39.7695C191.053 38.4763 193.192 37.1421 193.971 34.9598C194.216 34.2569 194.303 33.5085 194.225 32.7681C194.147 32.0277 193.906 31.3137 193.52 30.6772" stroke="#575D68" stroke-width="0.5" stroke-miterlimit="10"/>
<path d="M187.155 43.1188C186.206 44.8781 186.237 47.0083 186.605 48.9731C186.973 50.938 187.651 52.8404 187.924 54.8207C188.197 56.801 188.013 58.957 186.821 60.5612C186.635 60.8403 186.381 61.0676 186.083 61.2217" stroke="#575D68" stroke-width="0.5" stroke-miterlimit="10"/>
<path d="M166.344 31.0131C166.606 31.8605 167.121 32.6074 167.82 33.1529C168.52 33.6984 169.369 34.0163 170.255 34.0637" stroke="#575D68" stroke-width="0.5" stroke-miterlimit="10"/>
<path d="M172.469 24.0604C173.54 24.708 174.394 25.6609 174.92 26.797C175.446 27.933 175.62 29.2004 175.421 30.4363" stroke="#575D68" stroke-width="0.5" stroke-miterlimit="10"/>
<defs>
<linearGradient id="paint0_linear_3_25318" x1="154.513" y1="98.1642" x2="161.39" y2="119.604" gradientUnits="userSpaceOnUse">
<stop offset="0.08743" stop-color="white" stop-opacity="0"/>
<stop offset="0.90445" stop-color="#EAEAEA"/>
</linearGradient>
<linearGradient id="paint1_linear_3_25318" x1="182.797" y1="104.858" x2="205.146" y2="104.858" gradientUnits="userSpaceOnUse">
<stop offset="0.08743" stop-color="white" stop-opacity="0"/>
<stop offset="0.90445" stop-color="#EAEAEA"/>
</linearGradient>
<linearGradient id="paint2_linear_3_25318" x1="191.203" y1="203.984" x2="198.484" y2="138.452" gradientUnits="userSpaceOnUse">
<stop offset="0.08743" stop-color="white" stop-opacity="0"/>
<stop offset="0.90445" stop-color="#EAEAEA"/>
</linearGradient>
<linearGradient id="paint3_linear_3_25318" x1="175.481" y1="94.9659" x2="184.04" y2="121.649" gradientUnits="userSpaceOnUse">
<stop offset="0.08743" stop-color="white" stop-opacity="0"/>
<stop offset="0.90445" stop-color="#EAEAEA"/>
</linearGradient>
<linearGradient id="paint4_linear_3_25318" x1="154.513" y1="98.1642" x2="161.39" y2="119.604" gradientUnits="userSpaceOnUse">
<stop offset="0.08743" stop-color="white" stop-opacity="0"/>
<stop offset="0.90445" stop-color="#EAEAEA"/>
</linearGradient>
<linearGradient id="paint5_linear_3_25318" x1="206.984" y1="212.058" x2="221.288" y2="253.136" gradientUnits="userSpaceOnUse">
<stop offset="0.59588" stop-color="#F6F6F6"/>
<stop offset="0.61527" stop-color="#F1EBF8"/>
<stop offset="0.66257" stop-color="#E7D5FB"/>
<stop offset="0.71483" stop-color="#E0C6FD"/>
<stop offset="0.77528" stop-color="#DBBDFF"/>
<stop offset="0.86303" stop-color="#DABAFF"/>
</linearGradient>
<linearGradient id="paint6_linear_3_25318" x1="191.203" y1="203.984" x2="198.484" y2="138.452" gradientUnits="userSpaceOnUse">
<stop offset="0.08743" stop-color="white" stop-opacity="0"/>
<stop offset="0.90445" stop-color="#EAEAEA"/>
</linearGradient>
<linearGradient id="paint7_linear_3_25318" x1="182.797" y1="104.858" x2="205.146" y2="104.858" gradientUnits="userSpaceOnUse">
<stop offset="0.08743" stop-color="white" stop-opacity="0"/>
<stop offset="0.90445" stop-color="#EAEAEA"/>
</linearGradient>
<linearGradient id="paint8_linear_3_25318" x1="175.481" y1="94.9659" x2="184.04" y2="121.649" gradientUnits="userSpaceOnUse">
<stop offset="0.08743" stop-color="white" stop-opacity="0"/>
<stop offset="0.90445" stop-color="#EAEAEA"/>
</linearGradient>
</defs>
</svg>
