<svg width="144" height="144" viewBox="0 0 144 144" fill="none" xmlns="http://www.w3.org/2000/svg">
<circle cx="72" cy="72" r="72" fill="#FF4F12"/>
<mask id="mask0_406_29977" style="mask-type:alpha" maskUnits="userSpaceOnUse" x="0" y="0" width="144" height="144">
<circle cx="72" cy="72" r="72" fill="#FF4F12"/>
</mask>
<g mask="url(#mask0_406_29977)">
<path d="M61.5039 71.0711L91.8381 53.5488V193.727L61.5039 210.872V71.0711Z" fill="#F6F6F6" stroke="#575D68" stroke-width="0.3909" stroke-miterlimit="10"/>
<path d="M61.5039 71.0711L91.8381 53.5488L95.4179 55.0562V195.234L65.0838 212.379L61.5039 210.872V71.0711Z" fill="#F6F6F6" stroke="#575D68" stroke-width="0.3909" stroke-miterlimit="10"/>
<path d="M96.9249 446.197H90.3306C88.8233 446.197 87.5044 444.878 87.5044 443.371V31.6931C87.5044 29.6206 89.2 28.1133 91.0841 28.1133H95.9829C98.0554 28.1133 99.5626 29.809 99.5626 31.6931V443.371C99.751 444.878 98.4322 446.197 96.9249 446.197Z" fill="#F6F6F6" stroke="#575D68" stroke-width="0.3909" stroke-miterlimit="10"/>
<path d="M65.0835 212.378V73.1421L87.6928 60.3301" fill="#F6F6F6"/>
<path d="M65.0835 212.378V73.1421L87.6928 60.3301" stroke="#575D68" stroke-width="0.3909" stroke-miterlimit="10"/>
<path d="M109.36 202.014L106.346 203.898L74.6926 182.608L71.4897 82.5618L74.5043 80.6777L109.36 101.403V202.014Z" fill="#F6F6F6" stroke="#575D68" stroke-width="0.3909" stroke-miterlimit="10"/>
<path d="M106.346 203.899L71.4897 183.739V82.5625L106.157 102.534L106.346 203.899Z" fill="#F6F6F6" stroke="#575D68" stroke-width="0.3909" stroke-miterlimit="10"/>
<path d="M103.519 147.939L73.7504 130.794L73.562 88.9668L103.331 106.112L103.519 147.939Z" fill="#F6F6F6" stroke="#575D68" stroke-width="0.3909" stroke-miterlimit="10"/>
<path d="M103.519 196.738L73.939 179.593L73.7505 137.766L103.519 154.723V196.738Z" fill="#F6F6F6" stroke="#575D68" stroke-width="0.3909" stroke-miterlimit="10"/>
<path d="M97.0456 133.942C102.211 131.728 103.208 122.49 99.2732 113.308C95.3383 104.126 87.9614 98.4763 82.7964 100.69C77.6314 102.903 76.6341 112.141 80.569 121.323C84.5038 130.505 91.8806 136.155 97.0456 133.942Z" fill="#F6F6F6" stroke="#575D68" stroke-width="0.3909" stroke-miterlimit="10"/>
<path d="M95.9139 135.225C101.079 133.011 102.076 123.773 98.1414 114.591C94.2066 105.409 86.8297 99.7595 81.6647 101.973C76.4996 104.186 75.5023 113.424 79.4371 122.606C83.372 131.789 90.7489 137.438 95.9139 135.225Z" fill="#F6F6F6" stroke="#575D68" stroke-width="0.3909" stroke-miterlimit="10"/>
<path d="M103.331 109.88V106.112L73.5624 88.9668L67.7217 93.1117L97.8674 110.446L103.331 109.88Z" fill="#F6F6F6" stroke="#575D68" stroke-width="0.3909" stroke-miterlimit="10"/>
<path d="M97.8677 110.447L103.332 106.113" stroke="#575D68" stroke-width="0.3909" stroke-miterlimit="10"/>
<path d="M103.331 158.679V154.723L73.5624 137.766L67.7217 141.911L97.8674 159.244L103.331 158.679Z" fill="#F6F6F6" stroke="#575D68" stroke-width="0.3909" stroke-miterlimit="10"/>
<path d="M42.4747 46.7651L38.1413 27.9241C37.7645 26.7936 38.1413 25.4748 39.2717 24.9095L46.8082 21.1413C47.3734 20.9529 47.9386 20.9529 48.3154 21.1413L56.2287 24.9095L45.6777 31.3155L46.9966 36.4025L42.4747 46.7651Z" fill="#F6F6F6" stroke="#575D68" stroke-width="0.3909" stroke-miterlimit="10"/>
<path d="M98.6201 50.3457V47.5196L56.4162 24.9103C55.4741 24.345 54.3437 24.345 53.59 24.9103L47.5609 28.3015C46.6188 28.8667 46.0536 30.1858 46.0536 31.3163V34.1424C46.0536 35.2729 45.2999 36.5917 44.5462 37.157C43.6042 37.7222 43.039 39.041 43.039 40.1715L42.8506 51.6645C42.8506 52.795 86.1851 76.5349 86.1851 76.5349L89.9533 62.7808C90.3301 62.0271 99.1854 56.5633 98.6201 50.3457Z" fill="#F6F6F6" stroke="#575D68" stroke-width="0.3909" stroke-miterlimit="10"/>
<path d="M101.258 52.9848L97.3013 50.9121L98.6202 53.9269L101.258 52.9848Z" fill="#F6F6F6" stroke="#575D68" stroke-width="0.3909" stroke-miterlimit="10"/>
<path d="M99.1856 51.8541V49.028C99.1856 47.8975 98.432 47.3323 97.6783 47.8975L90.1419 52.0427C89.1999 52.6079 88.6346 53.9268 88.6346 55.0572V57.8834C88.6346 59.0139 87.881 60.3327 87.1274 60.8979C86.1853 61.4632 85.6201 62.782 85.6201 63.9125L85.4316 75.4055C85.4316 76.5359 86.1853 77.1013 86.9389 76.5361L100.693 68.8111C101.635 68.2459 102.2 66.927 102.2 65.7966L102.389 54.3035C102.389 53.1731 101.635 52.6079 100.881 53.1731C99.9393 53.3615 99.1856 52.9846 99.1856 51.8541Z" fill="#F6F6F6" stroke="#575D68" stroke-width="0.3909" stroke-miterlimit="10"/>
<path d="M96.9243 48.0859C97.3011 48.2743 97.6779 48.8397 97.6779 49.5933V52.6078C97.6779 53.9267 98.4315 54.4921 99.3736 53.9269C100.316 53.3616 100.881 54.1152 101.069 55.2456V65.7966C101.069 66.3618 100.692 66.9272 100.316 67.1156L85.6196 75.2171" fill="#F6F6F6"/>
<path d="M96.9243 48.0859C97.3011 48.2743 97.6779 48.8397 97.6779 49.5933V52.6078C97.6779 53.9267 98.4315 54.4921 99.3736 53.9269C100.316 53.3616 100.881 54.1152 101.069 55.2456V65.7966C101.069 66.3618 100.692 66.9272 100.316 67.1156L85.6196 75.2171" stroke="#575D68" stroke-width="0.3909" stroke-miterlimit="10"/>
<path d="M90.3306 60.1424V65.418C90.3306 66.1716 91.2726 66.7369 92.0262 66.36L98.0554 62.7802C98.4322 62.5918 98.6206 62.2149 98.6206 61.8381V56.3742C98.6206 55.6205 97.8669 55.2437 97.3017 55.6205L91.0841 59.2003C90.5189 59.3887 90.3306 59.7656 90.3306 60.1424Z" fill="#F6F6F6" stroke="#575D68" stroke-width="0.3909" stroke-miterlimit="10"/>
<path d="M46.0539 30.184L38.1406 26.0391" stroke="#575D68" stroke-width="0.3909" stroke-miterlimit="10"/>
</g>
</svg>
