<svg width="133" height="186" viewBox="0 0 133 186" fill="none" xmlns="http://www.w3.org/2000/svg">
<path d="M130.326 97.5748L97.5459 101.288L97.2277 87.1784C101.471 84.9506 108.154 75.509 107.836 62.3544C107.306 42.4103 94.6816 19.4958 79.4053 11.2211C73.4645 8.03853 68.0541 7.50811 63.7046 9.20548C61.7951 9.94808 51.2926 15.5706 51.2926 15.5706C51.2926 15.5706 52.6717 23.2088 52.7778 31.8017C49.5952 19.7079 41.7449 8.14462 32.7276 3.26468C28.1659 0.82471 24.0286 0.400374 20.6338 1.77949C19.0425 2.416 8.22179 8.25072 8.22179 8.25072C8.22179 8.25072 12.4652 13.1306 12.6774 19.2836C12.8896 28.407 16.4965 38.2729 21.8008 46.1233L13.2078 41.4555L1.64453 47.5024L14.9052 111.154L87.4678 162.924L98.819 156.877L98.5007 142.873L120.885 184.989L132.236 178.942L130.326 97.5748ZM54.369 43.7894C56.5968 53.4432 61.1585 63.097 67.0993 70.7351L46.3066 59.4901C51.0804 57.4744 54.1569 51.958 54.369 43.7894Z" fill="#EEEEEF" stroke="#575D68" stroke-width="0.5" stroke-miterlimit="10"/>
<path d="M118.763 103.622L85.9828 107.335L85.6645 93.2253C93.5148 91.3157 96.5913 81.5558 96.2731 68.4012C95.7426 48.4571 83.1185 25.5426 67.8421 17.268C52.778 9.09936 41.0025 18.3288 41.2147 37.8486C38.0321 25.7548 30.1817 14.1915 21.1644 9.31153C9.70719 3.05247 0.689915 10.2663 1.00817 25.3305C1.22034 34.4538 4.82729 44.3198 10.1316 52.1701L1.5386 47.5024L3.23601 117.201L87.2558 162.924L86.9375 148.92L120.673 184.989L118.763 103.622ZM42.8059 49.8362C45.0337 59.49 49.5954 69.1438 55.5362 76.782L34.8495 65.5369C39.5173 63.5213 42.5938 57.8987 42.8059 49.8362Z" fill="#F6F6F6" stroke="#575D68" stroke-width="0.5" stroke-miterlimit="10"/>
<path d="M118.762 103.622L130.325 97.5747" stroke="#575D68" stroke-width="0.5" stroke-miterlimit="10"/>
<path d="M85.9829 107.335L97.5462 101.394" stroke="#575D68" stroke-width="0.5" stroke-miterlimit="10"/>
<path d="M90.6499 90.5731L98.0759 86.6479" stroke="#575D68" stroke-width="0.5" stroke-miterlimit="10"/>
</svg>
