<svg width="345" height="367" viewBox="0 0 345 367" fill="none" xmlns="http://www.w3.org/2000/svg">
<path d="M192.172 155.64V-150.792L0 -258V45.1531L192.172 155.64Z" stroke="#575D68" stroke-width="0.5" stroke-miterlimit="10"/>
<path d="M181.228 149.774V-32.223" stroke="#575D68" stroke-width="0.5" stroke-miterlimit="10"/>
<path d="M169.521 143.029V-38.9683" stroke="#575D68" stroke-width="0.5" stroke-miterlimit="10"/>
<path d="M157.815 136.283V-45.7135" stroke="#575D68" stroke-width="0.5" stroke-miterlimit="10"/>
<path d="M146.11 129.538V-52.4586" stroke="#575D68" stroke-width="0.5" stroke-miterlimit="10"/>
<path d="M134.403 122.793V-59.2038" stroke="#575D68" stroke-width="0.5" stroke-miterlimit="10"/>
<path d="M122.698 116.048V-65.949" stroke="#575D68" stroke-width="0.5" stroke-miterlimit="10"/>
<path d="M110.991 109.303V-72.6942" stroke="#575D68" stroke-width="0.5" stroke-miterlimit="10"/>
<path d="M99.2856 102.557V-79.4394" stroke="#575D68" stroke-width="0.5" stroke-miterlimit="10"/>
<path d="M87.5786 95.8122V-86.1846" stroke="#575D68" stroke-width="0.5" stroke-miterlimit="10"/>
<path d="M75.8735 89.0671V-92.9298" stroke="#575D68" stroke-width="0.5" stroke-miterlimit="10"/>
<path d="M64.1665 82.3218V-99.675" stroke="#575D68" stroke-width="0.5" stroke-miterlimit="10"/>
<path d="M52.459 75.5768V-106.42" stroke="#575D68" stroke-width="0.5" stroke-miterlimit="10"/>
<path d="M40.7539 68.8315V-113.165" stroke="#575D68" stroke-width="0.5" stroke-miterlimit="10"/>
<path d="M29.0469 62.0865V-119.91" stroke="#575D68" stroke-width="0.5" stroke-miterlimit="10"/>
<path d="M17.3418 55.3412V-126.656" stroke="#575D68" stroke-width="0.5" stroke-miterlimit="10"/>
<path d="M233 170L18 295L19.5 -13L233 -21V170Z" fill="#F6F6F6" stroke="#575D68" stroke-width="0.5"/>
<path d="M334.48 39.8324C335.983 38.965 337.232 37.7171 338.1 36.2141C338.968 34.7112 339.425 33.0061 339.425 31.2705C339.425 29.5356 338.968 27.8313 338.101 26.3289C337.234 24.8264 335.986 23.5786 334.484 22.711C332.982 21.8433 331.277 21.3863 329.543 21.3859C327.808 21.3854 326.103 21.8416 324.601 22.7086L324.59 22.7149C323.086 23.5822 321.838 24.8302 320.97 26.3331C320.102 27.8361 319.645 29.5411 319.645 31.2768C319.645 33.0116 320.101 34.7159 320.968 36.2184C321.836 37.7209 323.083 38.9686 324.585 39.8363C326.088 40.704 327.792 41.161 329.527 41.1614C331.262 41.1618 332.966 40.7056 334.469 39.8387L334.48 39.8323" fill="#DDDEDF"/>
<path d="M334.48 39.8324C335.983 38.965 337.232 37.7171 338.1 36.2141C338.968 34.7112 339.425 33.0061 339.425 31.2705V31.2705C339.425 29.5356 338.968 27.8313 338.101 26.3289C337.234 24.8264 335.986 23.5786 334.484 22.711C332.982 21.8433 331.277 21.3863 329.543 21.3859C327.808 21.3854 326.103 21.8416 324.601 22.7086L324.59 22.7149C323.086 23.5822 321.838 24.8302 320.97 26.3331C320.102 27.8361 319.645 29.5411 319.645 31.2768V31.2768C319.645 33.0116 320.101 34.7159 320.968 36.2184C321.836 37.7209 323.083 38.9686 324.585 39.8363C326.088 40.704 327.792 41.161 329.527 41.1614C331.262 41.1618 332.966 40.7056 334.469 39.8387L334.48 39.8323" stroke="#575D68" stroke-width="0.5" stroke-miterlimit="10"/>
<path d="M230.634 178.04L349.189 246.51V18.2768L236.511 -46.7992L230.634 -43.2271V178.04Z" fill="#F6F6F6" stroke="#575D68" stroke-width="0.5" stroke-miterlimit="10"/>
<path d="M187.739 101.956L205.122 116.06L207.275 100.273C206.813 100.022 206.433 99.6448 206.179 99.1851C205.925 98.7253 205.808 98.2024 205.842 97.6782C206.658 88.2347 209.042 79.9639 210.937 78.4756C213.814 76.2159 221.068 75.1892 221.068 75.1892L222.325 95.0034C222.325 95.0034 218.958 107.823 216.82 112.82C215.468 115.98 212.972 122.025 211.32 126.042C211.122 126.526 210.816 126.959 210.427 127.309C210.038 127.658 209.574 127.916 209.072 128.061C208.569 128.206 208.04 128.236 207.524 128.149C207.008 128.061 206.518 127.858 206.092 127.554C201.951 124.612 195.402 119.647 192.954 116.06C189.261 110.647 187.739 101.956 187.739 101.956Z" fill="#F6F6F6" stroke="#575D68" stroke-width="0.5" stroke-miterlimit="10"/>
<path d="M210.228 79.8707C210.881 77.2634 214.955 75.4709 217.073 75.1893C224.867 74.1531 223.88 70.1224 223.88 70.1224L238.427 64.9688C238.427 64.9688 235.552 73.0626 245.589 79.0625C256.907 85.8276 258.961 88.5973 258.973 99.1381C258.99 113.608 248.866 140.118 248.866 140.118L254.442 195.287L204.2 170.416C204.2 170.416 211.165 125.587 211.533 109.692C211.533 109.692 209.596 98.8281 210.529 93.7261C211.462 88.624 212.642 84.6192 212.642 84.6192" fill="#F6F6F6"/>
<path d="M210.228 79.8707C210.881 77.2634 214.955 75.4709 217.073 75.1893C224.867 74.1531 223.88 70.1224 223.88 70.1224L238.427 64.9688C238.427 64.9688 235.552 73.0626 245.589 79.0625C256.907 85.8276 258.961 88.5973 258.973 99.1381C258.99 113.608 248.866 140.118 248.866 140.118L254.442 195.287L204.2 170.416C204.2 170.416 211.165 125.587 211.533 109.692C211.533 109.692 209.596 98.8281 210.529 93.7261C211.462 88.624 212.642 84.6192 212.642 84.6192" stroke="#575D68" stroke-width="0.5" stroke-miterlimit="10"/>
<path d="M210.228 79.8707C210.881 77.2634 214.955 75.4709 217.073 75.1893C224.867 74.1531 223.88 70.1224 223.88 70.1224L238.427 64.9688C238.427 64.9688 235.552 73.0626 245.589 79.0625C256.907 85.8276 258.961 88.5973 258.973 99.1381C258.99 113.608 248.866 140.118 248.866 140.118L254.442 195.287L204.2 170.416C204.2 170.416 211.165 125.587 211.533 109.692C211.533 109.692 209.596 98.8281 210.529 93.7261C211.462 88.624 212.642 84.6192 212.642 84.6192" fill="#F6F6F6"/>
<path d="M210.228 79.8707C210.881 77.2634 214.955 75.4709 217.073 75.1893C224.867 74.1531 223.88 70.1224 223.88 70.1224L238.427 64.9688C238.427 64.9688 235.552 73.0626 245.589 79.0625C256.907 85.8276 258.961 88.5973 258.973 99.1381C258.99 113.608 248.866 140.118 248.866 140.118L254.442 195.287L204.2 170.416C204.2 170.416 211.165 125.587 211.533 109.692C211.533 109.692 209.596 98.8281 210.529 93.7261C211.462 88.624 212.642 84.6192 212.642 84.6192" stroke="#575D68" stroke-width="0.5" stroke-miterlimit="10"/>
<path style="mix-blend-mode:multiply" d="M210.228 79.8707C210.881 77.2634 214.955 75.4709 217.073 75.1893C224.867 74.1531 223.88 70.1224 223.88 70.1224L238.427 64.9688C238.427 64.9688 235.552 73.0626 245.589 79.0625C256.907 85.8276 258.961 88.5973 258.973 99.1381C258.99 113.608 248.866 140.118 248.866 140.118L254.442 195.287L204.2 170.416C204.2 170.416 211.165 125.587 211.533 109.692C211.533 109.692 209.596 98.8281 210.529 93.7261C211.462 88.624 212.642 84.6192 212.642 84.6192" fill="url(#paint0_linear_3_36066)"/>
<path d="M224.033 79.7437C229.322 82.1814 236.081 79.9614 242.84 77.1106C238.479 73.4286 237.919 69.4014 238.067 67.0344C235.84 67.1832 233.503 67.3488 231.243 67.5138L223.881 70.1222C223.881 70.1222 224.499 72.667 220.843 74.2322C220.677 75.3758 220.901 76.542 221.48 77.5422C222.059 78.5423 222.958 79.318 224.033 79.7437Z" fill="#F6F6F6" stroke="#575D68" stroke-width="0.5" stroke-miterlimit="10"/>
<path d="M229.504 74.2155C225.742 75.5793 222.039 74.7634 221.038 69.906C220.458 67.0948 219.764 66.3966 219.644 64.0742C219.584 62.9149 219.71 61.7552 219.765 60.5957C219.888 58.5622 219.652 56.5231 219.068 54.5714C217.957 50.7606 219.62 44.6929 222.023 41.6256C222.938 40.4291 224.109 39.4521 225.45 38.7661C226.791 38.0801 228.268 37.7025 229.774 37.6608C231.526 37.6728 233.257 38.0384 234.864 38.7358C235.196 38.8861 235.54 39.0238 235.888 39.1572C236.883 39.4976 237.854 39.9003 238.798 40.3628C241.081 41.5902 242.106 44.2914 242.678 46.8195C244.211 53.5898 243.014 58.6984 240.057 64.8788C238.054 69.0666 235.437 73.2812 230.87 74.9367" fill="#F6F6F6"/>
<path d="M229.504 74.2155C225.742 75.5793 222.039 74.7634 221.038 69.906C220.458 67.0948 219.764 66.3966 219.644 64.0742C219.584 62.9149 219.71 61.7552 219.765 60.5957C219.888 58.5622 219.652 56.5231 219.068 54.5714C217.957 50.7606 219.62 44.6929 222.023 41.6256C222.938 40.4291 224.109 39.4521 225.45 38.7661C226.791 38.0801 228.268 37.7025 229.774 37.6608C231.526 37.6728 233.257 38.0384 234.864 38.7358C235.196 38.8861 235.54 39.0238 235.888 39.1572C236.883 39.4976 237.854 39.9003 238.798 40.3628C241.081 41.5902 242.106 44.2914 242.678 46.8195C244.211 53.5898 243.014 58.6984 240.057 64.8788C238.054 69.0666 235.437 73.2812 230.87 74.9367" stroke="#575D68" stroke-width="0.5" stroke-miterlimit="10"/>
<path d="M244.197 93.7264L229.285 111.739L227.829 121.394C227.771 121.778 227.806 122.169 227.929 122.537C228.053 122.904 228.262 123.237 228.539 123.508C228.816 123.779 229.154 123.98 229.524 124.095C229.894 124.21 230.287 124.235 230.669 124.169C234.196 123.611 237.628 122.566 240.867 121.062C249.178 116.951 254.393 109.045 254.393 109.045" fill="#F6F6F6"/>
<path d="M244.197 93.7264L229.285 111.739L227.829 121.394C227.771 121.778 227.806 122.169 227.929 122.537C228.053 122.904 228.262 123.237 228.539 123.508C228.816 123.779 229.154 123.98 229.524 124.095C229.894 124.21 230.287 124.235 230.669 124.169C234.196 123.611 237.628 122.566 240.867 121.062C249.178 116.951 254.393 109.045 254.393 109.045" stroke="#575D68" stroke-width="0.5" stroke-miterlimit="10"/>
<path style="mix-blend-mode:multiply" d="M244.197 93.7264L229.285 111.739L227.908 120.867C227.841 121.311 227.88 121.765 228.022 122.19C228.165 122.616 228.407 123.002 228.728 123.316C229.049 123.629 229.441 123.862 229.87 123.994C230.299 124.126 230.753 124.154 231.195 124.076C234.54 123.51 237.793 122.496 240.868 121.062C249.178 116.951 254.393 109.045 254.393 109.045" fill="url(#paint1_linear_3_36066)"/>
<path d="M238.8 40.3628C237.856 39.9003 236.884 39.4976 235.89 39.1572C235.542 39.0238 235.198 38.8861 234.866 38.7358C233.259 38.0384 231.527 37.6728 229.776 37.6608C228.27 37.7025 226.793 38.0801 225.452 38.7661C224.111 39.4521 222.94 40.4291 222.025 41.6257C220.572 43.48 219.252 47.7293 219.252 47.7293C219.984 50.9704 228.898 51.4275 233.715 49.1191C233.893 48.9663 234.11 48.8654 234.342 48.8276C234.574 48.7898 234.812 48.8164 235.03 48.9045C235.248 48.9926 235.437 49.1389 235.577 49.3274C235.717 49.5158 235.803 49.7392 235.825 49.9731C236.28 51.7646 236.51 53.6057 236.51 55.454C236.51 55.454 235.491 60.65 237.755 61.7521C238.897 62.1623 240.128 62.2554 241.319 62.0215C243.426 57.2403 243.904 51.8991 242.68 46.8195C242.108 44.2914 241.083 41.5902 238.8 40.3628Z" fill="#DDDEDF" stroke="#575D68" stroke-width="0.5" stroke-miterlimit="10"/>
<path style="mix-blend-mode:multiply" d="M238.8 40.3628C237.856 39.9003 236.884 39.4976 235.89 39.1572C235.542 39.0238 235.198 38.8861 234.866 38.7358C233.259 38.0384 231.527 37.6728 229.776 37.6608C228.27 37.7025 226.793 38.0801 225.452 38.7661C224.111 39.4521 222.94 40.4291 222.025 41.6257C220.572 43.48 219.252 47.7293 219.252 47.7293C219.984 50.9704 228.898 51.4275 233.715 49.1191C233.893 48.9663 234.11 48.8654 234.342 48.8276C234.574 48.7898 234.812 48.8164 235.03 48.9045C235.248 48.9926 235.437 49.1389 235.577 49.3274C235.717 49.5158 235.803 49.7392 235.825 49.9731C236.28 51.7646 236.51 53.6057 236.51 55.454C236.51 55.454 235.491 60.65 237.755 61.7521C238.897 62.1623 240.128 62.2554 241.319 62.0215C243.426 57.2403 243.904 51.8991 242.68 46.8195C242.108 44.2914 241.083 41.5902 238.8 40.3628Z" fill="url(#paint2_linear_3_36066)"/>
<path d="M239.366 74.5838L242.497 69.7591L243.469 66.2742C243.469 66.1311 243.425 65.9914 243.343 65.8743C243.261 65.7572 243.144 65.6684 243.009 65.6199C242.875 65.5714 242.728 65.5656 242.59 65.6033C242.452 65.6411 242.329 65.7205 242.238 65.8308L240.868 67.8982L238.843 70.3632" fill="#F6F6F6"/>
<path d="M239.366 74.5838L242.497 69.7591L243.469 66.2742C243.469 66.1311 243.425 65.9914 243.343 65.8743C243.261 65.7572 243.144 65.6684 243.009 65.6199C242.875 65.5714 242.728 65.5656 242.59 65.6033C242.452 65.6411 242.329 65.7205 242.238 65.8308L240.868 67.8982L238.843 70.3632" stroke="#575D68" stroke-width="0.5" stroke-miterlimit="10"/>
<path d="M237.218 59.3294L226.454 72.5584C226.274 72.7568 226.153 73.0021 226.106 73.2659C226.059 73.5297 226.087 73.8014 226.188 74.0499C226.288 74.2984 226.457 74.5135 226.674 74.6706C226.891 74.8277 227.148 74.9203 227.415 74.9379L232.746 75.873C233.29 75.9685 233.85 75.9182 234.369 75.7273C234.887 75.5363 235.346 75.2115 235.698 74.7859L245.814 62.564C245.936 62.4441 246.03 62.2984 246.09 62.1375C246.149 61.9766 246.171 61.8046 246.156 61.6339C246.14 61.4632 246.087 61.298 246 61.1505C245.912 61.003 245.793 60.8768 245.651 60.781L241.088 58.3637C239.399 57.3693 238.212 58.1083 237.218 59.3294Z" fill="#F6F6F6" stroke="#575D68" stroke-width="0.5" stroke-miterlimit="10"/>
<path d="M227.415 74.9378C226.375 74.3569 226.459 73.5815 226.8 73.1621L237.464 60.079C238.458 58.858 239.214 57.9365 241.334 59.1134L244.804 61.0152C245.894 61.752 245.814 62.5639 244.799 63.7905" stroke="#575D68" stroke-width="0.5" stroke-miterlimit="10"/>
<path d="M230.633 124.174C225.197 125.234 223.64 115.945 223.64 115.945C222.055 104.201 231.497 82.734 232.122 79.9616C232.747 77.1893 229.71 68.7892 229.71 68.7892C229.409 68.2443 229.299 67.6146 229.397 67.0001C229.495 66.3856 229.796 65.8215 230.251 65.3974L232.512 62.6625L232.943 62.1416C233.81 61.334 234.364 61.8898 235.085 62.8304L236.241 64.7785L239.713 69.3489V76.5829L236.525 109.988" fill="#F6F6F6"/>
<path d="M230.633 124.174C225.197 125.234 223.64 115.945 223.64 115.945C222.055 104.201 231.497 82.734 232.122 79.9616C232.747 77.1893 229.71 68.7892 229.71 68.7892C229.409 68.2443 229.299 67.6146 229.397 67.0001C229.495 66.3856 229.796 65.8215 230.251 65.3974L232.512 62.6625L232.943 62.1416C233.81 61.334 234.364 61.8898 235.085 62.8304L236.241 64.7785L239.713 69.3489V76.5829L236.525 109.988" stroke="#575D68" stroke-width="0.5" stroke-miterlimit="10"/>
<path d="M237.338 105.088C237.338 105.088 240.326 110.167 240.868 114.718C241.411 119.269 240.867 121.062 240.867 121.062" stroke="#575D68" stroke-width="0.5" stroke-miterlimit="10"/>
<path d="M238.984 103.872C238.984 103.872 241.978 106.837 242.514 113.502C242.881 118.07 242.513 119.845 242.513 119.845" stroke="#575D68" stroke-width="0.5" stroke-miterlimit="10"/>
<path d="M209.315 133.76C207.153 151.409 204.2 170.416 204.2 170.416L254.442 195.287L248.866 140.118C245.109 141.342 241.252 142.232 237.338 142.776C225.189 144.563 214.446 142.494 209.315 133.76Z" fill="#DDDEDF" stroke="#575D68" stroke-width="0.5" stroke-miterlimit="10"/>
<path d="M249.097 143.279C245.34 144.503 241.482 145.393 237.569 145.937C225.42 147.724 213.923 146.677 208.792 137.942" stroke="#575D68" stroke-width="0.5" stroke-miterlimit="10"/>
<path d="M239.869 60.7922C240.197 60.4638 240.253 59.9873 239.993 59.7278C239.734 59.4683 239.257 59.5242 238.929 59.8525C238.601 60.1808 238.545 60.6574 238.804 60.9169C239.064 61.1764 239.54 61.1205 239.869 60.7922Z" fill="#F6F6F6" stroke="#575D68" stroke-width="0.5" stroke-miterlimit="10"/>
<path d="M236.568 69.4454L234.663 66.7538L232.942 62.1411" fill="#F6F6F6"/>
<path d="M236.568 69.4454L234.663 66.7538L232.942 62.1411" stroke="#575D68" stroke-width="0.5" stroke-miterlimit="10"/>
<path d="M234.314 70.7328L232.555 67.4883L231.79 63.6539" fill="#F6F6F6"/>
<path d="M234.314 70.7328L232.555 67.4883L231.79 63.6539" stroke="#575D68" stroke-width="0.5" stroke-miterlimit="10"/>
<path d="M232.139 71.0376L230.747 68.3829L230.074 65.4038" fill="#F6F6F6"/>
<path d="M232.139 71.0376L230.747 68.3829L230.074 65.4038" stroke="#575D68" stroke-width="0.5" stroke-miterlimit="10"/>
<path d="M219.456 56.1281C220.363 56.5794 221.078 57.3406 221.472 58.2737C221.867 59.2069 221.914 60.2504 221.605 61.2152C221.367 62.0774 220.299 65.0805 221.605 65.4038C222.084 65.5482 222.585 65.6069 223.085 65.5773" fill="#F6F6F6"/>
<path d="M219.456 56.1281C220.363 56.5794 221.078 57.3406 221.472 58.2737C221.867 59.2069 221.914 60.2504 221.605 61.2152C221.367 62.0774 220.299 65.0805 221.605 65.4038C222.084 65.5482 222.585 65.6069 223.085 65.5773" stroke="#575D68" stroke-width="0.5" stroke-miterlimit="10"/>
<path d="M223.461 58.1528C224.329 58.0133 225.214 58.0133 226.082 58.1528C226.958 58.3085 227.778 58.6912 228.461 59.2629" fill="#F6F6F6"/>
<path d="M223.461 58.1528C224.329 58.0133 225.214 58.0133 226.082 58.1528C226.958 58.3085 227.778 58.6912 228.461 59.2629" stroke="#575D68" stroke-width="0.5" stroke-miterlimit="10"/>
<path d="M177.441 216.489L258.973 263.254V166.629L177.441 120.073V216.489Z" fill="#F6F6F6" stroke="#575D68" stroke-width="0.5" stroke-miterlimit="10"/>
<path d="M258.973 263.254L270.622 256.533V160.585L258.973 166.629V263.254Z" fill="#F6F6F6" stroke="#575D68" stroke-width="0.5" stroke-miterlimit="10"/>
<path d="M270.622 160.585L258.973 166.628L177.441 120.072L188.852 113.608L270.622 160.585Z" fill="#F6F6F6" stroke="#575D68" stroke-width="0.5" stroke-miterlimit="10"/>
<path d="M210.434 100.979C209.347 100.938 208.277 100.699 207.276 100.273L210.434 100.979Z" fill="#F6F6F6"/>
<path d="M210.434 100.979C209.347 100.938 208.277 100.699 207.276 100.273" stroke="#575D68" stroke-width="0.5" stroke-miterlimit="10"/>
<path d="M269.975 291.615L349.189 246.51V18.2768L236.511 -46.7992L230.634 -43.2271L344.86 21.4813L343.493 243.203L264.732 288.591L269.975 291.615Z" fill="#F6F6F6" stroke="#575D68" stroke-width="0.5" stroke-miterlimit="10"/>
<path d="M343.492 243.203L349.188 246.51" stroke="#575D68" stroke-width="0.5" stroke-miterlimit="10"/>
<path d="M344.859 21.4811L349.188 18.2771" stroke="#575D68" stroke-width="0.5" stroke-miterlimit="10"/>
<path d="M185.076 124.589L188.181 122.735L195.154 126.793L192.273 128.674L185.076 124.589Z" fill="#F6F6F6" stroke="#575D68" stroke-width="0.5" stroke-miterlimit="10"/>
<path d="M188.259 119.651V123.905L193.13 126.688V122.345L188.259 119.651Z" fill="#F6F6F6" stroke="#575D68" stroke-width="0.5" stroke-miterlimit="10"/>
<path d="M175.335 91.3304L182.215 115.393C182.388 115.996 182.677 116.559 183.068 117.05C183.458 117.541 183.942 117.95 184.49 118.253L200.755 127.249C200.811 127.28 200.875 127.294 200.939 127.288C201.003 127.283 201.064 127.259 201.114 127.219C201.164 127.179 201.201 127.125 201.221 127.064C201.24 127.003 201.242 126.937 201.224 126.876L193.65 100.406C193.494 99.8601 193.137 99.3936 192.652 99.0999L177.308 89.8219C177.078 89.6832 176.812 89.6168 176.545 89.6314C176.277 89.646 176.02 89.7408 175.807 89.9037C175.594 90.0665 175.435 90.2897 175.351 90.5442C175.267 90.7987 175.261 91.0727 175.335 91.3304Z" fill="#F6F6F6" stroke="#575D68" stroke-width="0.5" stroke-miterlimit="10"/>
<path d="M199.814 124.644L193.047 100.993C192.89 100.448 192.534 99.9812 192.048 99.6875L176.704 90.4094" fill="#F6F6F6"/>
<path d="M199.814 124.644L193.047 100.993C192.89 100.448 192.534 99.9812 192.048 99.6875L176.704 90.4094" stroke="#575D68" stroke-width="0.5" stroke-miterlimit="10"/>
<path d="M179.924 97.816C180.456 97.6216 180.651 96.8195 180.361 96.0245C180.07 95.2295 179.403 94.7426 178.871 94.937C178.339 95.1315 178.144 95.9335 178.434 96.7285C178.725 97.5235 179.392 98.0104 179.924 97.816Z" fill="#F6F6F6" stroke="#575D68" stroke-width="0.5" stroke-miterlimit="10"/>
<path d="M250.414 -15.9578L248.867 -14.9132L250.414 29.6888L308.207 64.9686L309.755 63.924V18.2767L250.414 -15.9578Z" fill="#F6F6F6" stroke="#575D68" stroke-width="0.5" stroke-miterlimit="10"/>
<path d="M248.867 -14.9132V30.7333L308.207 64.9686V19.322L248.867 -14.9132Z" fill="#F6F6F6" stroke="#575D68" stroke-width="0.5" stroke-miterlimit="10"/>
<path d="M251.852 -11.4189V30.423L305.225 61.215V19.3731L251.852 -11.4189Z" fill="#F6F6F6" stroke="#575D68" stroke-width="0.5" stroke-miterlimit="10"/>
<path d="M56.7168 272.571V23.0158L156.993 -34.55V214.318L56.7168 272.571Z" fill="#F6F6F6" stroke="#575D68" stroke-width="0.5" stroke-miterlimit="10"/>
<path d="M59.7285 270.714L60.8422 26.3522L151.431 -25.0002L152.031 217.201L59.7285 270.714Z" fill="#F6F6F6" stroke="#575D68" stroke-width="0.5" stroke-miterlimit="10"/>
<path d="M62.6543 269.017V28.4344L149.421 -21.3763V218.611L62.6543 269.017Z" fill="#F6F6F6" stroke="#575D68" stroke-width="0.5" stroke-miterlimit="10"/>
<path d="M69.005 57.3155C76.7206 57.3155 82.9753 51.0608 82.9753 43.3452C82.9753 35.6296 76.7206 29.3749 69.005 29.3749C61.2894 29.3749 55.0347 35.6296 55.0347 43.3452C55.0347 51.0608 61.2894 57.3155 69.005 57.3155Z" fill="#F6F6F6" stroke="#575D68" stroke-width="0.5" stroke-miterlimit="10"/>
<path d="M69.005 44.1221C76.7206 44.1221 82.9753 42.1279 82.9753 39.668C82.9753 37.208 76.7206 35.2139 69.005 35.2139C61.2894 35.2139 55.0347 37.208 55.0347 39.668C55.0347 42.1279 61.2894 44.1221 69.005 44.1221Z" fill="#F6F6F6" stroke="#575D68" stroke-width="0.5" stroke-miterlimit="10"/>
<path d="M86.9367 34.7506C86.9367 37.9079 78.909 40.4673 69.0064 40.4673C59.1038 40.4673 51.0762 37.9079 51.0762 34.7506V23.686C51.0762 23.686 62.3621 29.0339 69.0064 29.0339C76.4334 29.0339 86.9367 23.686 86.9367 23.686V34.7506Z" fill="#F6F6F6" stroke="#575D68" stroke-width="0.5" stroke-miterlimit="10"/>
<path d="M69.0064 29.4027C78.909 29.4027 86.9367 26.8433 86.9367 23.686C86.9367 20.5288 78.909 17.9694 69.0064 17.9694C59.1038 17.9694 51.0762 20.5288 51.0762 23.686C51.0762 26.8433 59.1038 29.4027 69.0064 29.4027Z" fill="#F6F6F6" stroke="#575D68" stroke-width="0.5" stroke-miterlimit="10"/>
<path d="M57.5615 42.2208V50.0985L63.244 54.3845H74.7691L80.4523 50.1354V42.2208" fill="#F6F6F6"/>
<path d="M57.5615 42.2208V50.0985L63.244 54.3845H74.7691L80.4523 50.1354V42.2208" stroke="#575D68" stroke-width="0.5" stroke-miterlimit="10"/>
<path d="M69.0058 56.4216C72.251 56.4216 74.8817 53.7909 74.8817 50.5457C74.8817 47.3005 72.251 44.6698 69.0058 44.6698C65.7606 44.6698 63.1299 47.3005 63.1299 50.5457C63.1299 53.7909 65.7606 56.4216 69.0058 56.4216Z" fill="#F6F6F6" stroke="#575D68" stroke-width="0.5" stroke-miterlimit="10"/>
<path d="M144.692 355.192V313.682L38.4137 250.385L20.1309 261.362L127.229 366L144.692 355.192Z" fill="#F6F6F6" stroke="#575D68" stroke-width="0.5" stroke-miterlimit="10"/>
<path d="M39.8118 274.203C39.8118 274.203 35.5647 272.282 33.3883 264.985C31.212 257.688 32.9982 238.485 32.8092 238.869C32.6202 239.253 39.6258 249.952 41.8849 261.401C43.5805 269.994 39.8118 274.203 39.8118 274.203Z" fill="#F6F6F6" stroke="#575D68" stroke-width="0.5" stroke-miterlimit="10"/>
<path d="M40.666 274.599C40.666 274.599 37.157 274.523 33.4951 270.11C29.8333 265.697 25.4019 251.867 25.3843 252.189C25.3667 252.51 33.3782 257.854 38.323 265.118C42.0342 270.571 40.666 274.599 40.666 274.599Z" fill="#F6F6F6" stroke="#575D68" stroke-width="0.5" stroke-miterlimit="10"/>
<path d="M51.9317 281.614C51.9317 281.614 47.3693 277.045 48.1238 266.524C48.8782 256.003 60.5993 231.995 60.1663 232.4C59.7332 232.805 63.5699 250.1 60.889 266.041C58.8768 278.006 51.9317 281.614 51.9317 281.614Z" fill="#F6F6F6" stroke="#575D68" stroke-width="0.5" stroke-miterlimit="10"/>
<path d="M82.7856 301.431C82.7856 301.431 80.0849 296.56 83.2057 288.013C86.3265 279.465 101.741 262.333 101.286 262.566C100.831 262.799 99.9117 278.053 93.9077 290.639C89.4015 300.086 82.7856 301.431 82.7856 301.431Z" fill="#F6F6F6" stroke="#575D68" stroke-width="0.5" stroke-miterlimit="10"/>
<path d="M51.4643 280.768C51.4643 280.768 45.581 278.108 42.5662 268C39.5514 257.891 42.0259 231.29 41.7641 231.822C41.5022 232.354 51.2067 247.175 54.3361 263.034C56.6849 274.937 51.4643 280.768 51.4643 280.768Z" fill="#F6F6F6" stroke="#575D68" stroke-width="0.5" stroke-miterlimit="10"/>
<path d="M52.1648 281.723C52.1648 281.723 47.4155 280.682 43.6161 273.707C39.8168 266.731 37.4857 246.749 37.3759 247.181C37.2661 247.614 46.7293 257.016 51.5111 268.211C55.1001 276.613 52.1648 281.723 52.1648 281.723Z" fill="#F6F6F6" stroke="#575D68" stroke-width="0.5" stroke-miterlimit="10"/>
<path d="M124.216 323.03C124.216 323.03 119.654 318.462 120.408 307.94C121.163 297.419 132.884 273.411 132.451 273.816C132.018 274.222 135.855 291.516 133.174 307.458C131.162 319.422 124.216 323.03 124.216 323.03Z" fill="#F6F6F6" stroke="#575D68" stroke-width="0.5" stroke-miterlimit="10"/>
<path d="M123.749 322.185C123.749 322.185 117.866 319.524 114.851 309.416C111.836 299.308 114.311 272.706 114.049 273.238C113.787 273.77 123.491 288.591 126.621 304.451C128.97 316.354 123.749 322.185 123.749 322.185Z" fill="#F6F6F6" stroke="#575D68" stroke-width="0.5" stroke-miterlimit="10"/>
<path d="M101.994 308.756C101.994 308.756 105.226 304.791 103.792 296.559C102.358 288.327 91.2048 270.342 91.5784 270.627C91.952 270.911 90.308 284.847 93.6927 297.197C96.233 306.466 101.994 308.756 101.994 308.756Z" fill="#F6F6F6" stroke="#575D68" stroke-width="0.5" stroke-miterlimit="10"/>
<path d="M101.216 307.869C101.216 307.869 105.568 305.182 106.911 296.935C108.254 288.687 103.61 268.04 103.87 268.432C104.129 268.823 98.0095 281.451 97.1606 294.228C96.5233 303.818 101.216 307.869 101.216 307.869Z" fill="#F6F6F6" stroke="#575D68" stroke-width="0.5" stroke-miterlimit="10"/>
<path d="M101.445 308.434C101.445 308.434 105.207 307.609 108.217 302.083C111.227 296.558 113.073 280.729 113.16 281.072C113.247 281.414 105.751 288.862 101.963 297.73C99.1202 304.385 101.445 308.434 101.445 308.434Z" fill="#F6F6F6" stroke="#575D68" stroke-width="0.5" stroke-miterlimit="10"/>
<path d="M124.448 323.14C124.448 323.14 119.698 322.099 115.899 315.123C112.1 308.148 109.768 288.165 109.659 288.598C109.549 289.031 119.012 298.433 123.794 309.627C127.383 318.029 124.448 323.14 124.448 323.14Z" fill="#F6F6F6" stroke="#575D68" stroke-width="0.5" stroke-miterlimit="10"/>
<path d="M71.8201 291.675C71.8201 291.675 67.573 289.754 65.3966 282.457C63.2203 275.16 65.0066 255.956 64.8175 256.341C64.6285 256.725 71.6341 267.423 73.8932 278.872C75.5888 287.465 71.8201 291.675 71.8201 291.675Z" fill="#F6F6F6" stroke="#575D68" stroke-width="0.5" stroke-miterlimit="10"/>
<path d="M72.3411 292.233C72.3411 292.233 68.9532 293.15 64.1947 289.951C59.4361 286.751 51.281 274.734 51.355 275.048C51.429 275.361 60.623 278.226 67.4172 283.799C72.5166 287.982 72.3411 292.233 72.3411 292.233Z" fill="#F6F6F6" stroke="#575D68" stroke-width="0.5" stroke-miterlimit="10"/>
<path d="M72.4736 291.625C72.4736 291.625 68.6659 288.025 69.0338 279.471C69.4018 270.917 78.3541 251.168 78.0121 251.506C77.6702 251.845 81.1843 265.787 79.3792 278.783C78.0244 288.537 72.4736 291.625 72.4736 291.625Z" fill="#F6F6F6" stroke="#575D68" stroke-width="0.5" stroke-miterlimit="10"/>
<path d="M84.3135 300.798C84.3135 300.798 79.277 296.293 79.4455 285.255C79.6141 274.217 90.4471 248.441 90.0185 248.89C89.5899 249.339 94.6176 267.184 92.7555 283.999C91.3578 296.619 84.3135 300.798 84.3135 300.798Z" fill="#F6F6F6" stroke="#575D68" stroke-width="0.5" stroke-miterlimit="10"/>
<path d="M82.5987 301.33C82.5987 301.33 78.7114 300.012 76.177 293.804C73.6426 287.595 73.5583 270.611 73.4257 270.964C73.293 271.317 80.3522 280.092 83.3158 289.932C85.5401 297.318 82.5987 301.33 82.5987 301.33Z" fill="#F6F6F6" stroke="#575D68" stroke-width="0.5" stroke-miterlimit="10"/>
<path d="M20.1309 305.926V261.362L127.229 323.281V366L20.1309 305.926Z" fill="#F6F6F6" stroke="#575D68" stroke-width="0.5" stroke-miterlimit="10"/>
<path d="M127.229 323.524L144.692 313.682V355.192L127.229 366V323.524Z" fill="#F6F6F6" stroke="#575D68" stroke-width="0.5" stroke-miterlimit="10"/>
<path d="M142.098 6.39685L69.0898 121.034" stroke="#575D68" stroke-width="0.5" stroke-miterlimit="10"/>
<path d="M100.457 54.4709L66.0352 108.52" stroke="#575D68" stroke-width="0.5" stroke-miterlimit="10"/>
<path d="M142.1 23.7886L95.6699 96.693" stroke="#575D68" stroke-width="0.5" stroke-miterlimit="10"/>
<path d="M142.098 42.0967L69.0898 156.734" stroke="#575D68" stroke-width="0.5" stroke-miterlimit="10"/>
<path d="M126.291 80.2251L69.0898 170.042" stroke="#575D68" stroke-width="0.5" stroke-miterlimit="10"/>
<path d="M135.959 175.661L100.809 230.854" stroke="#575D68" stroke-width="0.5" stroke-miterlimit="10"/>
<path d="M137.67 186.282L100.809 244.162" stroke="#575D68" stroke-width="0.5" stroke-miterlimit="10"/>
<path d="M149.422 97.7947L136.646 105.895V148.908L149.422 141.537V97.7947Z" fill="#F6F6F6" stroke="#575D68" stroke-width="0.5" stroke-miterlimit="10"/>
<path d="M144.352 104.871L147.65 105.659C148.633 105.875 149.523 106.393 150.197 107.139C150.872 107.886 151.296 108.824 151.411 109.823C151.424 109.969 151.431 110.115 151.431 110.263V132.139C151.431 133.215 151.15 134.272 150.617 135.206C150.084 136.141 149.317 136.92 148.391 137.467C147.465 138.015 146.412 138.312 145.337 138.328C144.261 138.345 143.2 138.081 142.258 137.563C142.071 137.46 141.915 137.309 141.806 137.125C141.698 136.942 141.641 136.732 141.641 136.519V134.211C141.641 134.012 141.691 133.815 141.787 133.639C141.883 133.464 142.021 133.316 142.19 133.208C142.358 133.1 142.551 133.037 142.75 133.023C142.95 133.009 143.149 133.046 143.331 133.13C143.808 133.35 144.333 133.447 144.858 133.411C145.382 133.375 145.889 133.208 146.332 132.925C146.775 132.641 147.139 132.251 147.392 131.79C147.644 131.329 147.776 130.812 147.776 130.286V112.999C147.776 109.809 143.422 109.476 143.422 109.476C143.254 109.368 143.116 109.22 143.02 109.044C142.924 108.869 142.874 108.672 142.874 108.473V106.593C142.874 105.676 143.168 104.343 144.352 104.871Z" fill="#F6F6F6" stroke="#575D68" stroke-width="0.5" stroke-miterlimit="10"/>
<g opacity="0.32">
<path style="mix-blend-mode:multiply" opacity="0.32" d="M266.502 12.6514C266.807 8.5235 268.09 4.52739 270.244 0.992593C270.997 -0.141257 272.103 -1.11135 272.914 -0.141228C273.42 0.710303 273.695 1.67871 273.713 2.66888C274.009 5.51752 274.048 8.38699 273.829 11.2426C273.966 9.8066 274.968 8.84805 275.717 9.43748C276.335 9.9249 276.657 11.2143 276.62 12.4153C276.56 13.5531 276.301 14.6716 275.854 15.7197C275.041 17.6097 274.022 19.4041 272.815 21.0704C271.343 23.251 269.304 28.1728 267.585 24.4737C266.251 21.6054 266.145 16.1316 266.502 12.6514Z" fill="url(#paint3_linear_3_36066)"/>
<path style="mix-blend-mode:multiply" opacity="0.32" d="M269.121 25.4209C268.973 20.4591 268.273 15.5292 267.033 10.7224C266.807 9.5705 266.356 8.47423 265.708 7.49593C264.604 6.14612 263.047 6.67619 261.891 7.92617C261.49 8.3234 261.256 8.85922 261.238 9.42346C261.255 9.8007 261.339 10.1719 261.487 10.5194L262.589 13.536C260.896 12.948 259.089 12.7678 257.314 13.0103C256.605 13.0601 255.921 13.2915 255.328 13.6822C254.735 14.0729 254.252 14.6099 253.926 15.2413C252.82 17.3414 252.954 20.8398 253.896 23.1403C254.257 24.0846 254.803 24.9478 255.5 25.6803C256.197 26.4128 257.032 27 257.957 27.4079C259.321 28.0095 260.82 28.2372 262.301 28.0677C263.782 27.8981 265.191 27.3374 266.384 26.4431" fill="url(#paint4_linear_3_36066)"/>
<path style="mix-blend-mode:multiply" opacity="0.32" d="M271.443 12.4914C271.686 12.3745 271.983 12.3017 272.154 12.624C272.268 12.9289 272.309 13.2566 272.273 13.5803C272.218 15.1757 272.047 16.7651 271.762 18.3359C271.876 17.657 272.333 17.3058 272.729 17.3847C273.169 17.5563 273.544 17.8606 273.803 18.2552C274.56 19.037 275.011 20.0649 275.074 21.1514C275.096 22.4513 274.446 23.4901 274.267 24.755C275.119 24.7726 275.934 25.1111 276.548 25.7029C277.015 26.1001 277.329 26.6475 277.436 27.2511C277.526 28.2713 277.323 29.296 276.851 30.2046C276.315 31.4518 275.714 32.7795 274.859 33.1682C272.181 34.3847 267.149 30.685 266.048 26.0015C264.647 20.0455 268.499 13.9085 271.443 12.4914Z" fill="url(#paint5_linear_3_36066)"/>
<path style="mix-blend-mode:multiply" opacity="0.32" d="M271.16 21.9184C271.187 21.4572 271.096 20.9965 270.894 20.5809C270.532 19.943 270.185 20.2598 269.884 20.5745C268.959 21.5501 268.117 22.602 267.369 23.7191L264.981 20.2933C264.727 19.8455 264.369 19.465 263.937 19.1835C263.673 19.1026 263.392 19.0908 263.122 19.1491C262.852 19.2074 262.601 19.3339 262.394 19.5165C261.344 20.2129 260.423 21.0859 259.671 22.097C259.32 22.5222 259.057 23.0122 258.895 23.5391C258.602 25.0501 258.863 26.616 259.629 27.9506C260.797 30.1803 262.384 31.7117 264.082 32.2473L263.594 33.2494C262.931 34.6136 263.086 36.7008 263.936 37.6563C265.83 39.7842 268.662 41.4291 270.255 39.2982C271.983 36.9876 271.091 24.8055 271.16 21.9184Z" fill="url(#paint6_linear_3_36066)"/>
<path style="mix-blend-mode:multiply" opacity="0.32" d="M272.904 20.2987C274.549 19.9258 276.259 20.6186 277.637 22.2167C277.968 22.5792 278.216 23.0092 278.365 23.4771C278.514 23.945 278.559 24.4396 278.498 24.9267C278.385 25.4763 278.086 25.9703 277.652 26.3251C276.805 27.1236 275.784 27.7146 274.669 28.052C275.196 27.9338 275.706 28.8515 275.629 29.7803C275.625 30.0919 275.542 30.3973 275.387 30.6676C275.232 30.9379 275.01 31.164 274.743 31.3244C274.526 31.3941 274.295 31.4103 274.071 31.3718C273.846 31.3333 273.634 31.2411 273.453 31.1031C272.536 30.4568 271.726 29.672 271.051 28.7768C270.032 27.5742 267.954 26.2621 268.951 23.6903C269.296 22.8534 269.834 22.11 270.521 21.5205C271.208 20.9311 272.024 20.5124 272.904 20.2987Z" fill="url(#paint7_linear_3_36066)"/>
<path style="mix-blend-mode:multiply" opacity="0.32" d="M268.886 25.5473C270.819 24.2291 272.45 22.5154 273.672 20.5198C274.104 19.9014 274.41 19.2039 274.572 18.4671C274.793 17.049 274.505 15.5982 273.758 14.3723C273.583 14.0883 273.351 13.816 273.121 13.9374C272.965 14.0616 272.847 14.2265 272.78 14.4137L271.915 16.1822C271.826 14.2098 271.581 12.2475 271.183 10.3135C270.911 9.00199 270.521 7.64713 269.814 7.02375C268.886 6.20565 267.684 7.00457 267.042 8.46461C266.425 10.1393 266.156 11.9222 266.252 13.7043C266.272 16.8046 266.883 19.8727 268.053 22.7437" fill="url(#paint8_linear_3_36066)"/>
<path style="mix-blend-mode:multiply" opacity="0.32" d="M273.817 25.6748C273.924 25.928 273.951 26.2082 273.894 26.4772C273.869 26.5495 273.828 26.615 273.773 26.6685C273.718 26.722 273.652 26.762 273.579 26.7853C273.025 27.0204 272.427 27.1328 271.825 27.1149C272.083 27.1123 272.285 27.5464 272.326 27.9948C272.348 28.4439 272.308 28.8938 272.208 29.3321C272.063 30.1175 271.857 31.0017 271.414 31.2634C270.962 31.5299 270.486 31.0129 270.012 31.0525C270.152 31.9365 270.173 32.8352 270.076 33.7249C270.06 34.1722 269.926 34.6073 269.688 34.9861C269.358 35.3757 268.92 35.1421 268.552 34.8969C267.907 34.5417 267.415 33.9633 267.168 33.2705C266.277 30.5676 266.699 24.3727 268.148 22.2935C269.991 19.6493 272.809 22.7177 273.817 25.6748Z" fill="url(#paint9_linear_3_36066)"/>
<path style="mix-blend-mode:multiply" opacity="0.32" d="M270.29 27.2148C270.501 27.113 270.676 26.9503 270.793 26.7479C270.91 26.5454 270.964 26.3125 270.947 26.0792C270.916 25.8639 270.837 25.6585 270.715 25.4786C270.261 24.7168 269.747 23.9929 269.177 23.3139L269.962 20.0623C270.087 19.6228 270.156 19.1697 270.17 18.7132C270.147 18.1512 270.017 17.5989 269.785 17.0864C269.432 16.2001 268.97 15.3613 268.409 14.5894C268.257 14.3375 268.035 14.1358 267.769 14.0096C267.182 13.8282 266.662 14.7282 266.352 15.6365C265.756 17.4652 265.507 19.3892 265.62 21.3092C265.14 20.9279 264.66 20.5467 264.18 20.1656C263.453 22.2219 262.869 27.6003 264.222 29.3796C265.276 30.766 269.039 27.9015 270.29 27.2148Z" fill="url(#paint10_linear_3_36066)"/>
<g opacity="0.32">
<path style="mix-blend-mode:multiply" opacity="0.32" d="M298.41 36.745C298.996 36.6267 299.604 36.676 300.163 36.8871C300.722 37.0983 301.211 37.4628 301.572 37.9388C301.795 38.1757 301.964 38.4587 302.065 38.7678C302.167 39.0769 302.2 39.4045 302.161 39.7276C302.088 40.0966 301.892 40.4301 301.605 40.6733C301.047 41.219 300.371 41.6301 299.629 41.8751C299.979 41.7872 300.324 42.3891 300.278 43.0087C300.277 43.2174 300.222 43.4225 300.121 43.6048C300.019 43.7872 299.873 43.941 299.697 44.052C299.554 44.1024 299.401 44.1174 299.251 44.0957C299.101 44.074 298.959 44.0162 298.836 43.9274C298.223 43.5135 297.679 43.0051 297.224 42.421C296.539 41.6384 295.148 40.8015 295.797 39.072C296.023 38.5082 296.376 38.0045 296.83 37.6007C297.283 37.1969 297.824 36.9039 298.41 36.745Z" fill="url(#paint11_linear_3_36066)"/>
<path style="mix-blend-mode:multiply" opacity="0.32" d="M296.646 38.6267C297.789 38.8991 298.989 38.7873 300.062 38.3087C300.403 38.1851 300.693 37.9501 300.885 37.6416C301.251 36.8041 301.331 35.8691 301.112 34.9816C301.063 34.7362 300.982 34.4688 300.837 34.418C300.749 34.387 300.659 34.4469 300.574 34.5056L299.817 35.0345C300.098 33.8542 300.286 32.6533 300.378 31.4433C300.489 30.6042 300.419 29.7509 300.172 28.9413C299.802 28.0199 299.02 27.8453 298.433 28.3187C297.781 29.0047 297.336 29.8614 297.15 30.7897C296.638 32.7031 296.469 34.6923 296.652 36.6646" fill="url(#paint12_linear_3_36066)"/>
<path style="mix-blend-mode:multiply" opacity="0.32" d="M299.72 41.6661C299.746 41.8546 299.71 42.0465 299.618 42.213C299.544 42.2935 299.449 42.2615 299.366 42.223C298.94 42.0198 298.552 41.7444 298.219 41.409C298.301 41.5311 298.357 41.6693 298.382 41.8144C298.407 41.9595 298.402 42.1083 298.365 42.251C298.304 42.5239 298.195 42.7839 298.043 43.019C297.807 43.4261 297.515 43.8601 297.192 43.766C296.863 43.6702 296.664 43.0694 296.364 42.8185C296.298 43.4082 296.144 43.9845 295.906 44.5281C295.783 44.7983 295.625 45.0552 295.431 45.0916C295.154 45.1436 294.926 44.7427 294.744 44.375C294.424 43.8172 294.235 43.1941 294.191 42.5525C294.143 40.3429 295.557 36.7118 296.841 36.2534C298.474 35.6705 299.647 39.2296 299.72 41.6661Z" fill="url(#paint13_linear_3_36066)"/>
<path style="mix-blend-mode:multiply" opacity="0.32" d="M297.25 40.5788C297.482 40.6552 297.797 40.6493 297.868 40.25C297.888 40.0793 297.877 39.9064 297.836 39.7394C297.693 38.9806 297.51 38.2298 297.287 37.4902L298.379 35.9123C298.546 35.6944 298.674 35.4497 298.758 35.1886C298.851 34.7815 298.873 34.3614 298.823 33.9469C298.764 33.1494 298.634 32.3587 298.436 31.5838C298.384 31.3239 298.286 31.0753 298.148 30.8489C297.819 30.3937 297.329 30.6545 296.968 31.0425C296.209 31.9398 295.69 33.0146 295.459 34.1668C295.233 33.649 295.007 33.1313 294.781 32.6136C293.948 33.4776 292.586 36.5042 293.091 38.4042C293.486 39.8847 296.348 40.2811 297.25 40.5788Z" fill="url(#paint14_linear_3_36066)"/>
</g>
<path style="mix-blend-mode:multiply" opacity="0.32" d="M283.554 12.6537C283.155 12.075 282.529 11.583 282.167 12.2466C282.019 12.596 281.943 12.9717 281.943 13.3512C281.837 15.0725 281.97 16.8002 282.338 18.4849C281.896 17.0736 281.068 15.8029 280.163 16.0841C279.291 16.3554 278.719 18.0856 278.824 19.6359C278.893 20.9844 279.425 22.2679 280.33 23.2697C281.043 23.9425 281.896 24.4475 282.829 24.7479C282.321 24.7785 281.97 25.9769 282.251 26.719C282.894 26.8829 283.57 26.8686 284.205 26.6776C284.84 26.4865 285.412 26.1259 285.857 25.6345C287.061 24.1481 286.703 24.7284 286.599 22.338C286.442 18.9002 285.392 15.5626 283.554 12.6537Z" fill="url(#paint15_linear_3_36066)"/>
<path style="mix-blend-mode:multiply" opacity="0.32" d="M285.219 22.1001C285.38 22.2116 285.515 22.3557 285.617 22.5232C285.718 22.6907 285.783 22.8778 285.807 23.0721C285.88 23.5491 285.683 24.1544 285.403 24.1372C285.601 24.2675 285.821 24.1212 286.033 24.0963C286.101 24.0991 286.169 24.1166 286.23 24.1478C286.292 24.179 286.346 24.223 286.389 24.2769C286.432 24.3309 286.462 24.3934 286.479 24.4603C286.495 24.5272 286.497 24.5969 286.484 24.6646C286.471 24.7912 286.436 24.9146 286.381 25.0293C285.372 27.3909 283.846 29.0469 282.203 29.5624C281.977 29.6523 281.735 29.6955 281.492 29.6894C281.249 29.6833 281.009 29.6279 280.788 29.5267C280.51 29.3497 280.274 29.1136 280.098 28.8352C279.922 28.5569 279.809 28.243 279.768 27.9161L281.074 27.2536C281.106 27.2409 281.135 27.221 281.158 27.1954C281.181 27.1699 281.199 27.1394 281.208 27.1063C281.221 27.0301 281.212 26.952 281.184 26.8804C281.155 26.8089 281.107 26.7465 281.045 26.7002C279.9 25.6935 279.417 22.8696 280.052 20.8831C280.103 20.6764 280.2 20.4838 280.336 20.3194C280.956 19.7136 282.119 20.5537 282.72 20.9779C283.541 21.5569 284.411 21.5711 285.219 22.1001Z" fill="url(#paint16_linear_3_36066)"/>
<path style="mix-blend-mode:multiply" opacity="0.32" d="M284.109 17.3657C284.075 17.3639 284.042 17.3709 284.012 17.3863C283.982 17.4017 283.957 17.4247 283.939 17.4531C283.892 17.5538 283.868 17.664 283.87 17.7752C283.804 18.7397 283.964 19.7062 284.335 20.5986C284.111 21.0442 283.642 20.5766 283.379 20.9498C283.289 21.1077 283.235 21.2839 283.222 21.4654C283.138 22.0757 283.221 22.6973 283.462 23.2643C283.712 23.757 284.125 24.1483 284.63 24.3721L286.037 25.1448C286.133 25.1973 286.239 25.2488 286.33 25.1742C286.396 25.105 286.445 25.0215 286.472 24.9301C286.973 23.644 286.889 21.952 287.051 20.4225C287.141 19.8079 287.2 19.1891 287.228 18.5686C287.271 17.9939 287.122 17.4211 286.805 16.9398C286.779 16.9045 286.741 16.879 286.698 16.8676C286.617 16.8575 286.548 16.9657 286.489 17.0665L285.965 17.9693C285.931 18.0276 285.89 18.0904 285.844 18.0796C285.789 18.0668 285.761 17.9631 285.734 17.8775C285.596 17.4243 285.267 17.1869 284.986 17.3385C284.841 17.417 284.912 18.0325 284.953 18.179C284.924 17.9683 284.825 17.7734 284.672 17.6258C284.519 17.4782 284.321 17.3866 284.109 17.3657Z" fill="url(#paint17_linear_3_36066)"/>
<path style="mix-blend-mode:multiply" opacity="0.32" d="M285.57 35.0045C285.57 35.0045 288.161 28.2968 291.335 26.5662C294.508 24.8356 296.664 25.3264 296.664 25.3264C296.664 25.3264 290.511 37.1071 287.993 37.3149C285.475 37.5226 285.57 35.0045 285.57 35.0045Z" fill="url(#paint18_linear_3_36066)"/>
<path style="mix-blend-mode:multiply" opacity="0.32" d="M285.442 37.5393C285.514 33.3956 286.379 29.3041 287.989 25.4856C289.364 22.3993 291.037 19.4547 292.985 16.694C292.985 16.694 291.382 30.5542 288.87 34.5728C286.357 38.5915 285.442 37.5393 285.442 37.5393Z" fill="url(#paint19_linear_3_36066)"/>
<path style="mix-blend-mode:multiply" opacity="0.32" d="M262.178 11.1558C259.305 10.3355 256.872 8.41632 255.405 5.81415C254.073 3.32818 253.088 0.672309 252.475 -2.08008C252.475 -2.08008 261.113 2.37194 262.305 6.27239C263.498 10.1728 262.178 11.1558 262.178 11.1558Z" fill="url(#paint20_linear_3_36066)"/>
<path style="mix-blend-mode:multiply" opacity="0.32" d="M266.663 11.6329C266.663 11.6329 263.393 14.5897 259.442 13.0235C257.038 12.0632 254.803 10.7254 252.821 9.06068C252.821 9.06068 260.551 5.35767 263.677 7.53252C266.802 9.70737 266.663 11.6329 266.663 11.6329Z" fill="url(#paint21_linear_3_36066)"/>
<path style="mix-blend-mode:multiply" opacity="0.32" d="M294.733 21.2616C294.733 21.2616 297.087 20.4432 298.613 21.8696C299.532 22.7297 300.283 23.7536 300.827 24.8888C300.827 24.8888 296.105 25.2786 295.138 23.7104C294.171 22.1422 294.733 21.2616 294.733 21.2616Z" fill="url(#paint22_linear_3_36066)"/>
<path style="mix-blend-mode:multiply" opacity="0.32" d="M294.522 21.73C294.522 21.73 296.641 17.8802 299.979 17.2326C301.889 16.8359 303.859 16.8215 305.775 17.19C305.775 17.19 300.269 23.7301 297.487 23.5132C294.705 23.2962 294.522 21.73 294.522 21.73Z" fill="url(#paint23_linear_3_36066)"/>
<path style="mix-blend-mode:multiply" opacity="0.32" d="M292.693 36.9654C292.693 36.9654 292.04 42.5501 290.238 45.1997C288.437 47.8494 286.956 48.5724 286.956 48.5724C286.956 48.5724 289.147 37.9908 290.756 36.6415C292.366 35.2921 292.693 36.9654 292.693 36.9654Z" fill="url(#paint24_linear_3_36066)"/>
<path style="mix-blend-mode:multiply" opacity="0.32" d="M291.089 37.3093C291.963 37.5798 292.745 38.086 293.349 38.7722C293.953 39.4584 294.356 40.2981 294.513 41.1987C294.97 43.226 295.178 45.3014 295.133 47.379C295.133 47.379 290.402 44.3201 290.256 41.251C290.11 38.1818 291.089 37.3093 291.089 37.3093Z" fill="url(#paint25_linear_3_36066)"/>
<path style="mix-blend-mode:multiply" opacity="0.32" d="M285.213 38.8734C284.215 38.6702 283.269 38.2649 282.433 37.6824C281.597 37.0998 280.89 36.3524 280.353 35.4862C279.37 33.8015 278.63 31.9866 278.154 30.095C278.154 30.095 284.311 32.7552 285.218 35.4328C286.125 38.1105 285.213 38.8734 285.213 38.8734Z" fill="url(#paint26_linear_3_36066)"/>
<path style="mix-blend-mode:multiply" opacity="0.32" d="M284.662 37.6857C284.662 37.6857 282.413 39.9427 279.605 39.0565C277.904 38.5168 276.306 37.6968 274.876 36.6304C274.876 36.6304 280.252 33.6061 282.489 34.9652C284.727 36.3243 284.662 37.6857 284.662 37.6857Z" fill="url(#paint27_linear_3_36066)"/>
</g>
<path d="M202.047 -7.98673C202.047 0.824944 209.2 2.20363 214.924 -5.50476L214.934 -5.51761C217.599 -9.11407 219.098 -13.4404 219.23 -17.9145C219.23 -26.7262 211.312 -28.2523 205.587 -20.5439C202.929 -16.9646 202.047 -12.0783 202.047 -7.98673Z" fill="#F6F6F6" stroke="#575D68" stroke-width="0.5" stroke-miterlimit="10"/>
<path d="M204.581 -1.32156C207.752 1.31187 213.857 0.633343 217.459 -4.21685C217.459 -4.21685 221.228 -7.97497 221.234 -15.5258C221.238 -19.6319 220.189 -21.9139 218.438 -23.5976C216.521 -25.4413 213.485 -25.5187 211.172 -24.2067C209.533 -23.3329 208.19 -21.9931 207.313 -20.3566" fill="#F6F6F6"/>
<path d="M204.581 -1.32156C207.752 1.31187 213.857 0.633343 217.459 -4.21685C217.459 -4.21685 221.228 -7.97497 221.234 -15.5258C221.238 -19.6319 220.189 -21.9139 218.438 -23.5976C216.521 -25.4413 213.485 -25.5187 211.172 -24.2067C209.533 -23.3329 208.19 -21.9931 207.313 -20.3566" stroke="#575D68" stroke-width="0.5" stroke-miterlimit="10"/>
<path style="mix-blend-mode:multiply" d="M51.0771 34.7507V275.047L166.888 349.656L289.912 276.421L86.9382 23.6859L65.0496 18.2328L51.0771 34.7507Z" fill="url(#paint28_linear_3_36066)"/>
<path d="M69.005 57.3155C76.7206 57.3155 82.9753 51.0608 82.9753 43.3452C82.9753 35.6296 76.7206 29.3749 69.005 29.3749C61.2894 29.3749 55.0347 35.6296 55.0347 43.3452C55.0347 51.0608 61.2894 57.3155 69.005 57.3155Z" fill="#FF4F12" stroke="#575D68" stroke-width="0.5" stroke-miterlimit="10"/>
<path d="M69.005 44.1221C76.7206 44.1221 82.9753 42.1279 82.9753 39.668C82.9753 37.208 76.7206 35.2139 69.005 35.2139C61.2894 35.2139 55.0347 37.208 55.0347 39.668C55.0347 42.1279 61.2894 44.1221 69.005 44.1221Z" fill="#F6F6F6" stroke="#575D68" stroke-width="0.5" stroke-miterlimit="10"/>
<path d="M86.9367 34.7506C86.9367 37.9079 78.909 40.4673 69.0064 40.4673C59.1038 40.4673 51.0762 37.9079 51.0762 34.7506V23.686C51.0762 23.686 62.3621 29.0339 69.0064 29.0339C76.4334 29.0339 86.9367 23.686 86.9367 23.686V34.7506Z" fill="#F6F6F6" stroke="#575D68" stroke-width="0.5" stroke-miterlimit="10"/>
<path d="M69.0064 29.4027C78.909 29.4027 86.9367 26.8433 86.9367 23.686C86.9367 20.5288 78.909 17.9694 69.0064 17.9694C59.1038 17.9694 51.0762 20.5288 51.0762 23.686C51.0762 26.8433 59.1038 29.4027 69.0064 29.4027Z" fill="#F6F6F6" stroke="#575D68" stroke-width="0.5" stroke-miterlimit="10"/>
<path d="M57.5615 42.2208V50.0985L63.244 54.3845H74.7691L80.4523 50.1354V42.2208" fill="#F6F6F6"/>
<path d="M57.5615 42.2208V50.0985L63.244 54.3845H74.7691L80.4523 50.1354V42.2208" stroke="#575D68" stroke-width="0.5" stroke-miterlimit="10"/>
<path d="M69.0058 56.4216C72.251 56.4216 74.8817 53.7909 74.8817 50.5457C74.8817 47.3005 72.251 44.6698 69.0058 44.6698C65.7606 44.6698 63.1299 47.3005 63.1299 50.5457C63.1299 53.7909 65.7606 56.4216 69.0058 56.4216Z" fill="#F6F6F6" stroke="#575D68" stroke-width="0.5" stroke-miterlimit="10"/>
<path d="M69.0061 54.4778C71.0424 54.4778 72.6932 52.8269 72.6932 50.7906C72.6932 48.7542 71.0424 47.1034 69.0061 47.1034C66.9697 47.1034 65.3188 48.7542 65.3188 50.7906C65.3188 52.8269 66.9697 54.4778 69.0061 54.4778Z" fill="#FF4F12" stroke="#575D68" stroke-width="0.5" stroke-miterlimit="10"/>
<defs>
<linearGradient id="paint0_linear_3_36066" x1="204.2" y1="130.128" x2="258.973" y2="130.128" gradientUnits="userSpaceOnUse">
<stop offset="0.00777" stop-color="white" stop-opacity="0"/>
<stop offset="0.10635" stop-color="#FBFBFB" stop-opacity="0.10125"/>
<stop offset="0.30369" stop-color="#F5F5F5" stop-opacity="0.27901"/>
<stop offset="0.49638" stop-color="#F0F0F0" stop-opacity="0.41887"/>
<stop offset="0.6805" stop-color="#EDEDED" stop-opacity="0.51892"/>
<stop offset="0.85243" stop-color="#EBEBEB" stop-opacity="0.57928"/>
<stop offset="1" stop-color="#EAEAEA" stop-opacity="0.6"/>
</linearGradient>
<linearGradient id="paint1_linear_3_36066" x1="224.964" y1="115.255" x2="251.854" y2="103.239" gradientUnits="userSpaceOnUse">
<stop offset="0.3472" stop-color="white" stop-opacity="0"/>
<stop offset="0.40125" stop-color="#FBFBFB" stop-opacity="0.12803"/>
<stop offset="0.47508" stop-color="#F5F5F5" stop-opacity="0.2725"/>
<stop offset="0.55423" stop-color="#F1F1F1" stop-opacity="0.39198"/>
<stop offset="0.63915" stop-color="#EEEEEE" stop-opacity="0.48433"/>
<stop offset="0.73258" stop-color="#ECECEC" stop-opacity="0.54967"/>
<stop offset="0.84103" stop-color="#EAEAEA" stop-opacity="0.58813"/>
<stop offset="1" stop-color="#EAEAEA" stop-opacity="0.6"/>
</linearGradient>
<linearGradient id="paint2_linear_3_36066" x1="219.252" y1="49.8947" x2="243.347" y2="49.8947" gradientUnits="userSpaceOnUse">
<stop offset="0.00777" stop-color="white" stop-opacity="0"/>
<stop offset="0.10635" stop-color="#FBFBFB" stop-opacity="0.10125"/>
<stop offset="0.30369" stop-color="#F5F5F5" stop-opacity="0.27901"/>
<stop offset="0.49638" stop-color="#F0F0F0" stop-opacity="0.41887"/>
<stop offset="0.6805" stop-color="#EDEDED" stop-opacity="0.51892"/>
<stop offset="0.85243" stop-color="#EBEBEB" stop-opacity="0.57928"/>
<stop offset="1" stop-color="#EAEAEA" stop-opacity="0.6"/>
</linearGradient>
<linearGradient id="paint3_linear_3_36066" x1="266.977" y1="7.82026" x2="277.344" y2="12.3394" gradientUnits="userSpaceOnUse">
<stop stop-color="#EAEAEA" stop-opacity="0"/>
<stop offset="0.08667" stop-color="#E0E0E0" stop-opacity="0.17789"/>
<stop offset="0.22597" stop-color="#D1D1D1" stop-opacity="0.42721"/>
<stop offset="0.36713" stop-color="#C5C5C5" stop-opacity="0.63392"/>
<stop offset="0.5082" stop-color="#BBBBBB" stop-opacity="0.79434"/>
<stop offset="0.64929" stop-color="#B4B4B4" stop-opacity="0.90874"/>
<stop offset="0.79044" stop-color="#B0B0B0" stop-opacity="0.97723"/>
<stop offset="0.93199" stop-color="#AFAFAF"/>
</linearGradient>
<linearGradient id="paint4_linear_3_36066" x1="256.018" y1="10.426" x2="272.528" y2="17.6231" gradientUnits="userSpaceOnUse">
<stop stop-color="#EAEAEA" stop-opacity="0"/>
<stop offset="0.08667" stop-color="#E0E0E0" stop-opacity="0.17789"/>
<stop offset="0.22597" stop-color="#D1D1D1" stop-opacity="0.42721"/>
<stop offset="0.36713" stop-color="#C5C5C5" stop-opacity="0.63392"/>
<stop offset="0.5082" stop-color="#BBBBBB" stop-opacity="0.79434"/>
<stop offset="0.64929" stop-color="#B4B4B4" stop-opacity="0.90874"/>
<stop offset="0.79044" stop-color="#B0B0B0" stop-opacity="0.97723"/>
<stop offset="0.93199" stop-color="#AFAFAF"/>
</linearGradient>
<linearGradient id="paint5_linear_3_36066" x1="267.19" y1="17.3758" x2="280.015" y2="22.9664" gradientUnits="userSpaceOnUse">
<stop stop-color="#EAEAEA" stop-opacity="0"/>
<stop offset="0.08667" stop-color="#E0E0E0" stop-opacity="0.17789"/>
<stop offset="0.22597" stop-color="#D1D1D1" stop-opacity="0.42721"/>
<stop offset="0.36713" stop-color="#C5C5C5" stop-opacity="0.63392"/>
<stop offset="0.5082" stop-color="#BBBBBB" stop-opacity="0.79434"/>
<stop offset="0.64929" stop-color="#B4B4B4" stop-opacity="0.90874"/>
<stop offset="0.79044" stop-color="#B0B0B0" stop-opacity="0.97723"/>
<stop offset="0.93199" stop-color="#AFAFAF"/>
</linearGradient>
<linearGradient id="paint6_linear_3_36066" x1="260.51" y1="19.7735" x2="275.907" y2="26.4853" gradientUnits="userSpaceOnUse">
<stop stop-color="#EAEAEA" stop-opacity="0"/>
<stop offset="0.08667" stop-color="#E0E0E0" stop-opacity="0.17789"/>
<stop offset="0.22597" stop-color="#D1D1D1" stop-opacity="0.42721"/>
<stop offset="0.36713" stop-color="#C5C5C5" stop-opacity="0.63392"/>
<stop offset="0.5082" stop-color="#BBBBBB" stop-opacity="0.79434"/>
<stop offset="0.64929" stop-color="#B4B4B4" stop-opacity="0.90874"/>
<stop offset="0.79044" stop-color="#B0B0B0" stop-opacity="0.97723"/>
<stop offset="0.93199" stop-color="#AFAFAF"/>
</linearGradient>
<linearGradient id="paint7_linear_3_36066" x1="274.703" y1="19.9236" x2="269.101" y2="28.1429" gradientUnits="userSpaceOnUse">
<stop stop-color="#EAEAEA" stop-opacity="0"/>
<stop offset="0.08667" stop-color="#E0E0E0" stop-opacity="0.17789"/>
<stop offset="0.22597" stop-color="#D1D1D1" stop-opacity="0.42721"/>
<stop offset="0.36713" stop-color="#C5C5C5" stop-opacity="0.63392"/>
<stop offset="0.5082" stop-color="#BBBBBB" stop-opacity="0.79434"/>
<stop offset="0.64929" stop-color="#B4B4B4" stop-opacity="0.90874"/>
<stop offset="0.79044" stop-color="#B0B0B0" stop-opacity="0.97723"/>
<stop offset="0.93199" stop-color="#AFAFAF"/>
</linearGradient>
<linearGradient id="paint8_linear_3_36066" x1="271.888" y1="8.41968" x2="262.967" y2="21.5097" gradientUnits="userSpaceOnUse">
<stop stop-color="#EAEAEA" stop-opacity="0"/>
<stop offset="0.08667" stop-color="#E0E0E0" stop-opacity="0.17789"/>
<stop offset="0.22597" stop-color="#D1D1D1" stop-opacity="0.42721"/>
<stop offset="0.36713" stop-color="#C5C5C5" stop-opacity="0.63392"/>
<stop offset="0.5082" stop-color="#BBBBBB" stop-opacity="0.79434"/>
<stop offset="0.64929" stop-color="#B4B4B4" stop-opacity="0.90874"/>
<stop offset="0.79044" stop-color="#B0B0B0" stop-opacity="0.97723"/>
<stop offset="0.93199" stop-color="#AFAFAF"/>
</linearGradient>
<linearGradient id="paint9_linear_3_36066" x1="271.392" y1="21.9396" x2="264.462" y2="32.1077" gradientUnits="userSpaceOnUse">
<stop stop-color="#EAEAEA" stop-opacity="0"/>
<stop offset="0.08667" stop-color="#E0E0E0" stop-opacity="0.17789"/>
<stop offset="0.22597" stop-color="#D1D1D1" stop-opacity="0.42721"/>
<stop offset="0.36713" stop-color="#C5C5C5" stop-opacity="0.63392"/>
<stop offset="0.5082" stop-color="#BBBBBB" stop-opacity="0.79434"/>
<stop offset="0.64929" stop-color="#B4B4B4" stop-opacity="0.90874"/>
<stop offset="0.79044" stop-color="#B0B0B0" stop-opacity="0.97723"/>
<stop offset="0.93199" stop-color="#AFAFAF"/>
</linearGradient>
<linearGradient id="paint10_linear_3_36066" x1="269.383" y1="15.0734" x2="261.063" y2="27.2806" gradientUnits="userSpaceOnUse">
<stop stop-color="#EAEAEA" stop-opacity="0"/>
<stop offset="0.08667" stop-color="#E0E0E0" stop-opacity="0.17789"/>
<stop offset="0.22597" stop-color="#D1D1D1" stop-opacity="0.42721"/>
<stop offset="0.36713" stop-color="#C5C5C5" stop-opacity="0.63392"/>
<stop offset="0.5082" stop-color="#BBBBBB" stop-opacity="0.79434"/>
<stop offset="0.64929" stop-color="#B4B4B4" stop-opacity="0.90874"/>
<stop offset="0.79044" stop-color="#B0B0B0" stop-opacity="0.97723"/>
<stop offset="0.93199" stop-color="#AFAFAF"/>
</linearGradient>
<linearGradient id="paint11_linear_3_36066" x1="299.616" y1="36.4329" x2="295.972" y2="42.0282" gradientUnits="userSpaceOnUse">
<stop stop-color="#EAEAEA" stop-opacity="0"/>
<stop offset="0.08667" stop-color="#E0E0E0" stop-opacity="0.17789"/>
<stop offset="0.22597" stop-color="#D1D1D1" stop-opacity="0.42721"/>
<stop offset="0.36713" stop-color="#C5C5C5" stop-opacity="0.63392"/>
<stop offset="0.5082" stop-color="#BBBBBB" stop-opacity="0.79434"/>
<stop offset="0.64929" stop-color="#B4B4B4" stop-opacity="0.90874"/>
<stop offset="0.79044" stop-color="#B0B0B0" stop-opacity="0.97723"/>
<stop offset="0.93199" stop-color="#AFAFAF"/>
</linearGradient>
<linearGradient id="paint12_linear_3_36066" x1="301.107" y1="30.7012" x2="294.438" y2="33.956" gradientUnits="userSpaceOnUse">
<stop stop-color="#EAEAEA" stop-opacity="0"/>
<stop offset="0.08667" stop-color="#E0E0E0" stop-opacity="0.17789"/>
<stop offset="0.22597" stop-color="#D1D1D1" stop-opacity="0.42721"/>
<stop offset="0.36713" stop-color="#C5C5C5" stop-opacity="0.63392"/>
<stop offset="0.5082" stop-color="#BBBBBB" stop-opacity="0.79434"/>
<stop offset="0.64929" stop-color="#B4B4B4" stop-opacity="0.90874"/>
<stop offset="0.79044" stop-color="#B0B0B0" stop-opacity="0.97723"/>
<stop offset="0.93199" stop-color="#AFAFAF"/>
</linearGradient>
<linearGradient id="paint13_linear_3_36066" x1="298.952" y1="37.8535" x2="293.04" y2="40.7386" gradientUnits="userSpaceOnUse">
<stop stop-color="#EAEAEA" stop-opacity="0"/>
<stop offset="0.08667" stop-color="#E0E0E0" stop-opacity="0.17789"/>
<stop offset="0.22597" stop-color="#D1D1D1" stop-opacity="0.42721"/>
<stop offset="0.36713" stop-color="#C5C5C5" stop-opacity="0.63392"/>
<stop offset="0.5082" stop-color="#BBBBBB" stop-opacity="0.79434"/>
<stop offset="0.64929" stop-color="#B4B4B4" stop-opacity="0.90874"/>
<stop offset="0.79044" stop-color="#B0B0B0" stop-opacity="0.97723"/>
<stop offset="0.93199" stop-color="#AFAFAF"/>
</linearGradient>
<linearGradient id="paint14_linear_3_36066" x1="298.987" y1="32.3882" x2="291.889" y2="35.8519" gradientUnits="userSpaceOnUse">
<stop stop-color="#EAEAEA" stop-opacity="0"/>
<stop offset="0.08667" stop-color="#E0E0E0" stop-opacity="0.17789"/>
<stop offset="0.22597" stop-color="#D1D1D1" stop-opacity="0.42721"/>
<stop offset="0.36713" stop-color="#C5C5C5" stop-opacity="0.63392"/>
<stop offset="0.5082" stop-color="#BBBBBB" stop-opacity="0.79434"/>
<stop offset="0.64929" stop-color="#B4B4B4" stop-opacity="0.90874"/>
<stop offset="0.79044" stop-color="#B0B0B0" stop-opacity="0.97723"/>
<stop offset="0.93199" stop-color="#AFAFAF"/>
</linearGradient>
<linearGradient id="paint15_linear_3_36066" x1="282.565" y1="11.9261" x2="283.818" y2="26.785" gradientUnits="userSpaceOnUse">
<stop stop-color="#EAEAEA" stop-opacity="0"/>
<stop offset="0.08667" stop-color="#E0E0E0" stop-opacity="0.17789"/>
<stop offset="0.22597" stop-color="#D1D1D1" stop-opacity="0.42721"/>
<stop offset="0.36713" stop-color="#C5C5C5" stop-opacity="0.63392"/>
<stop offset="0.5082" stop-color="#BBBBBB" stop-opacity="0.79434"/>
<stop offset="0.64929" stop-color="#B4B4B4" stop-opacity="0.90874"/>
<stop offset="0.79044" stop-color="#B0B0B0" stop-opacity="0.97723"/>
<stop offset="0.93199" stop-color="#AFAFAF"/>
</linearGradient>
<linearGradient id="paint16_linear_3_36066" x1="282.993" y1="19.9211" x2="283.801" y2="29.4949" gradientUnits="userSpaceOnUse">
<stop stop-color="#EAEAEA" stop-opacity="0"/>
<stop offset="0.08667" stop-color="#E0E0E0" stop-opacity="0.17789"/>
<stop offset="0.22597" stop-color="#D1D1D1" stop-opacity="0.42721"/>
<stop offset="0.36713" stop-color="#C5C5C5" stop-opacity="0.63392"/>
<stop offset="0.5082" stop-color="#BBBBBB" stop-opacity="0.79434"/>
<stop offset="0.64929" stop-color="#B4B4B4" stop-opacity="0.90874"/>
<stop offset="0.79044" stop-color="#B0B0B0" stop-opacity="0.97723"/>
<stop offset="0.93199" stop-color="#AFAFAF"/>
</linearGradient>
<linearGradient id="paint17_linear_3_36066" x1="285.142" y1="16.9924" x2="285.838" y2="25.2405" gradientUnits="userSpaceOnUse">
<stop stop-color="#EAEAEA" stop-opacity="0"/>
<stop offset="0.08667" stop-color="#E0E0E0" stop-opacity="0.17789"/>
<stop offset="0.22597" stop-color="#D1D1D1" stop-opacity="0.42721"/>
<stop offset="0.36713" stop-color="#C5C5C5" stop-opacity="0.63392"/>
<stop offset="0.5082" stop-color="#BBBBBB" stop-opacity="0.79434"/>
<stop offset="0.64929" stop-color="#B4B4B4" stop-opacity="0.90874"/>
<stop offset="0.79044" stop-color="#B0B0B0" stop-opacity="0.97723"/>
<stop offset="0.93199" stop-color="#AFAFAF"/>
</linearGradient>
<linearGradient id="paint18_linear_3_36066" x1="288.821" y1="27.5301" x2="294.611" y2="30.054" gradientUnits="userSpaceOnUse">
<stop stop-color="#EAEAEA" stop-opacity="0"/>
<stop offset="0.08667" stop-color="#E0E0E0" stop-opacity="0.17789"/>
<stop offset="0.22597" stop-color="#D1D1D1" stop-opacity="0.42721"/>
<stop offset="0.36713" stop-color="#C5C5C5" stop-opacity="0.63392"/>
<stop offset="0.5082" stop-color="#BBBBBB" stop-opacity="0.79434"/>
<stop offset="0.64929" stop-color="#B4B4B4" stop-opacity="0.90874"/>
<stop offset="0.79044" stop-color="#B0B0B0" stop-opacity="0.97723"/>
<stop offset="0.93199" stop-color="#AFAFAF"/>
</linearGradient>
<linearGradient id="paint19_linear_3_36066" x1="284.705" y1="28.4622" x2="293.881" y2="27.7169" gradientUnits="userSpaceOnUse">
<stop stop-color="#EAEAEA" stop-opacity="0"/>
<stop offset="0.08667" stop-color="#E0E0E0" stop-opacity="0.17789"/>
<stop offset="0.22597" stop-color="#D1D1D1" stop-opacity="0.42721"/>
<stop offset="0.36713" stop-color="#C5C5C5" stop-opacity="0.63392"/>
<stop offset="0.5082" stop-color="#BBBBBB" stop-opacity="0.79434"/>
<stop offset="0.64929" stop-color="#B4B4B4" stop-opacity="0.90874"/>
<stop offset="0.79044" stop-color="#B0B0B0" stop-opacity="0.97723"/>
<stop offset="0.93199" stop-color="#AFAFAF"/>
</linearGradient>
<linearGradient id="paint20_linear_3_36066" x1="256.996" y1="9.39668" x2="260.055" y2="0.556011" gradientUnits="userSpaceOnUse">
<stop stop-color="#EAEAEA" stop-opacity="0"/>
<stop offset="0.08667" stop-color="#E0E0E0" stop-opacity="0.17789"/>
<stop offset="0.22597" stop-color="#D1D1D1" stop-opacity="0.42721"/>
<stop offset="0.36713" stop-color="#C5C5C5" stop-opacity="0.63392"/>
<stop offset="0.5082" stop-color="#BBBBBB" stop-opacity="0.79434"/>
<stop offset="0.64929" stop-color="#B4B4B4" stop-opacity="0.90874"/>
<stop offset="0.79044" stop-color="#B0B0B0" stop-opacity="0.97723"/>
<stop offset="0.93199" stop-color="#AFAFAF"/>
</linearGradient>
<linearGradient id="paint21_linear_3_36066" x1="262.37" y1="16.9088" x2="252.8" y2="9.10098" gradientUnits="userSpaceOnUse">
<stop stop-color="#EAEAEA" stop-opacity="0"/>
<stop offset="0.08667" stop-color="#E0E0E0" stop-opacity="0.17789"/>
<stop offset="0.22597" stop-color="#D1D1D1" stop-opacity="0.42721"/>
<stop offset="0.36713" stop-color="#C5C5C5" stop-opacity="0.63392"/>
<stop offset="0.5082" stop-color="#BBBBBB" stop-opacity="0.79434"/>
<stop offset="0.64929" stop-color="#B4B4B4" stop-opacity="0.90874"/>
<stop offset="0.79044" stop-color="#B0B0B0" stop-opacity="0.97723"/>
<stop offset="0.93199" stop-color="#AFAFAF"/>
</linearGradient>
<linearGradient id="paint22_linear_3_36066" x1="297.499" y1="20.5798" x2="298.671" y2="25.4124" gradientUnits="userSpaceOnUse">
<stop stop-color="#EAEAEA" stop-opacity="0"/>
<stop offset="0.08667" stop-color="#E0E0E0" stop-opacity="0.17789"/>
<stop offset="0.22597" stop-color="#D1D1D1" stop-opacity="0.42721"/>
<stop offset="0.36713" stop-color="#C5C5C5" stop-opacity="0.63392"/>
<stop offset="0.5082" stop-color="#BBBBBB" stop-opacity="0.79434"/>
<stop offset="0.64929" stop-color="#B4B4B4" stop-opacity="0.90874"/>
<stop offset="0.79044" stop-color="#B0B0B0" stop-opacity="0.97723"/>
<stop offset="0.93199" stop-color="#AFAFAF"/>
</linearGradient>
<linearGradient id="paint23_linear_3_36066" x1="297.084" y1="15.5941" x2="305.031" y2="18.9297" gradientUnits="userSpaceOnUse">
<stop stop-color="#EAEAEA" stop-opacity="0"/>
<stop offset="0.08667" stop-color="#E0E0E0" stop-opacity="0.17789"/>
<stop offset="0.22597" stop-color="#D1D1D1" stop-opacity="0.42721"/>
<stop offset="0.36713" stop-color="#C5C5C5" stop-opacity="0.63392"/>
<stop offset="0.5082" stop-color="#BBBBBB" stop-opacity="0.79434"/>
<stop offset="0.64929" stop-color="#B4B4B4" stop-opacity="0.90874"/>
<stop offset="0.79044" stop-color="#B0B0B0" stop-opacity="0.97723"/>
<stop offset="0.93199" stop-color="#AFAFAF"/>
</linearGradient>
<linearGradient id="paint24_linear_3_36066" x1="291.725" y1="43.4034" x2="287.826" y2="42.8129" gradientUnits="userSpaceOnUse">
<stop stop-color="#EAEAEA" stop-opacity="0"/>
<stop offset="0.08667" stop-color="#E0E0E0" stop-opacity="0.17789"/>
<stop offset="0.22597" stop-color="#D1D1D1" stop-opacity="0.42721"/>
<stop offset="0.36713" stop-color="#C5C5C5" stop-opacity="0.63392"/>
<stop offset="0.5082" stop-color="#BBBBBB" stop-opacity="0.79434"/>
<stop offset="0.64929" stop-color="#B4B4B4" stop-opacity="0.90874"/>
<stop offset="0.79044" stop-color="#B0B0B0" stop-opacity="0.97723"/>
<stop offset="0.93199" stop-color="#AFAFAF"/>
</linearGradient>
<linearGradient id="paint25_linear_3_36066" x1="295.279" y1="37.4464" x2="295.042" y2="47.4143" gradientUnits="userSpaceOnUse">
<stop stop-color="#EAEAEA" stop-opacity="0"/>
<stop offset="0.08667" stop-color="#E0E0E0" stop-opacity="0.17789"/>
<stop offset="0.22597" stop-color="#D1D1D1" stop-opacity="0.42721"/>
<stop offset="0.36713" stop-color="#C5C5C5" stop-opacity="0.63392"/>
<stop offset="0.5082" stop-color="#BBBBBB" stop-opacity="0.79434"/>
<stop offset="0.64929" stop-color="#B4B4B4" stop-opacity="0.90874"/>
<stop offset="0.79044" stop-color="#B0B0B0" stop-opacity="0.97723"/>
<stop offset="0.93199" stop-color="#AFAFAF"/>
</linearGradient>
<linearGradient id="paint26_linear_3_36066" x1="281.5" y1="37.8861" x2="283.219" y2="31.4288" gradientUnits="userSpaceOnUse">
<stop stop-color="#EAEAEA" stop-opacity="0"/>
<stop offset="0.08667" stop-color="#E0E0E0" stop-opacity="0.17789"/>
<stop offset="0.22597" stop-color="#D1D1D1" stop-opacity="0.42721"/>
<stop offset="0.36713" stop-color="#C5C5C5" stop-opacity="0.63392"/>
<stop offset="0.5082" stop-color="#BBBBBB" stop-opacity="0.79434"/>
<stop offset="0.64929" stop-color="#B4B4B4" stop-opacity="0.90874"/>
<stop offset="0.79044" stop-color="#B0B0B0" stop-opacity="0.97723"/>
<stop offset="0.93199" stop-color="#AFAFAF"/>
</linearGradient>
<linearGradient id="paint27_linear_3_36066" x1="281.702" y1="41.6679" x2="274.902" y2="36.6032" gradientUnits="userSpaceOnUse">
<stop stop-color="#EAEAEA" stop-opacity="0"/>
<stop offset="0.08667" stop-color="#E0E0E0" stop-opacity="0.17789"/>
<stop offset="0.22597" stop-color="#D1D1D1" stop-opacity="0.42721"/>
<stop offset="0.36713" stop-color="#C5C5C5" stop-opacity="0.63392"/>
<stop offset="0.5082" stop-color="#BBBBBB" stop-opacity="0.79434"/>
<stop offset="0.64929" stop-color="#B4B4B4" stop-opacity="0.90874"/>
<stop offset="0.79044" stop-color="#B0B0B0" stop-opacity="0.97723"/>
<stop offset="0.93199" stop-color="#AFAFAF"/>
</linearGradient>
<linearGradient id="paint28_linear_3_36066" x1="206.366" y1="340.887" x2="53.6434" y2="63.4937" gradientUnits="userSpaceOnUse">
<stop offset="0.04675" stop-color="#F6F6F6" stop-opacity="0"/>
<stop offset="0.14434" stop-color="#F6F0ED" stop-opacity="0.19132"/>
<stop offset="0.26697" stop-color="#F7E9E3" stop-opacity="0.40338"/>
<stop offset="0.39146" stop-color="#F7E3DB" stop-opacity="0.58622"/>
<stop offset="0.51535" stop-color="#F7DED4" stop-opacity="0.73552"/>
<stop offset="0.63846" stop-color="#F8DACF" stop-opacity="0.85136"/>
<stop offset="0.76068" stop-color="#F8D7CB" stop-opacity="0.93395"/>
<stop offset="0.88167" stop-color="#F8D6C9" stop-opacity="0.98346"/>
<stop offset="1" stop-color="#F8D5C8"/>
</linearGradient>
</defs>
</svg>
