<svg width="345" height="480" viewBox="0 0 345 480" fill="none" xmlns="http://www.w3.org/2000/svg">
<path d="M436.071 230.428L436.415 -143.277L-393.941 -625L-461.728 -586.009L-393.941 -255.544L373.878 194.014" fill="#F6F6F6"/>
<path d="M436.071 230.428L436.415 -143.277L-393.941 -625L-461.728 -586.009L-393.941 -255.544L373.878 194.014" stroke="#575D68" stroke-width="0.4" stroke-miterlimit="10"/>
<path d="M-461.666 -216.621L374.213 265.975L373.939 -107.803L-461.666 -586.199V-216.621Z" fill="#F6F6F6" stroke="#575D68" stroke-width="0.4" stroke-miterlimit="10"/>
<path d="M-367.026 -474.247L-375.405 -469.661L-367.026 -309.128L225.076 42.2075L233.455 37.6209V-127.497L-367.026 -474.247Z" fill="#F6F6F6" stroke="#575D68" stroke-width="0.4" stroke-miterlimit="10"/>
<path d="M-375.405 -469.661V-304.541L225.076 42.2075V-122.911L-375.405 -469.661Z" fill="#F6F6F6" stroke="#575D68" stroke-width="0.4" stroke-miterlimit="10"/>
<path d="M168.357 -17.9075V-0.907566L205.19 20.4165V4.00406L168.357 -17.9075Z" fill="#DDDEDF"/>
<path d="M-471.19 -139.052L-413.949 -172.075L129.384 141.872V252.035L72.1426 285.059L-471.19 -28.8879V-139.052Z" fill="#F6F6F6" stroke="#575D68" stroke-width="0.4" stroke-miterlimit="10"/>
<path d="M-135.5 52.3967L-112.551 -18.9873L-80.918 -37.2373L127.221 77.9835L128.589 141.532L74.0939 174.954L-135.5 52.3967Z" fill="#F6F6F6" stroke="#575D68" stroke-width="0.4" stroke-miterlimit="10"/>
<path d="M74.094 174.954L94.9112 101.225L-112.551 -18.9872" fill="#F6F6F6"/>
<path d="M74.094 174.954L94.9112 101.225L-112.551 -18.9872" stroke="#575D68" stroke-width="0.4" stroke-miterlimit="10"/>
<path d="M94.9099 101.224L121.77 85.564" stroke="#575D68" stroke-width="0.4" stroke-miterlimit="10"/>
<path d="M-111.093 -14.1506L-132.29 51.2034L72.5127 170.942L91.6196 103.178L-111.093 -14.1506Z" fill="#F6F6F6" stroke="#575D68" stroke-width="0.4" stroke-miterlimit="10"/>
<path d="M-87.0017 0.0273438L-122.319 20.2763L81.7099 138.085" fill="#F6F6F6"/>
<path d="M-87.0017 0.0273438L-122.319 20.2763L81.7099 138.085" stroke="#575D68" stroke-width="0.4" stroke-miterlimit="10"/>
<path d="M-204.212 117.757L-123.233 70.7456L58.3297 175.599L-21.6003 222.837L-204.212 117.757Z" fill="#F6F6F6" stroke="#575D68" stroke-width="0.4" stroke-miterlimit="10"/>
<path d="M72.5955 190.449L72.6052 283.925" stroke="#575D68" stroke-width="0.4" stroke-miterlimit="10"/>
<path d="M-7.32544 226.243L68.9396 181.416L67.7064 268.736L65.2404 270.499L-7.32544 226.243Z" fill="#F6F6F6" stroke="#575D68" stroke-width="0.4" stroke-miterlimit="10"/>
<path d="M-9.7915 228.007L66.4746 183.179L65.2416 270.499L-9.7915 228.007Z" fill="#F6F6F6" stroke="#575D68" stroke-width="0.4" stroke-miterlimit="10"/>
<path d="M40.3745 101.621C49.7728 101.621 57.3916 96.8095 57.3916 90.8737C57.3916 84.9379 49.7728 80.126 40.3745 80.126C30.9762 80.126 23.3574 84.9379 23.3574 90.8737C23.3574 96.8095 30.9762 101.621 40.3745 101.621Z" fill="#F6F6F6" stroke="#575D68" stroke-width="0.4" stroke-miterlimit="10"/>
<path d="M47.1812 88.7054C48.6649 88.7054 49.8677 87.5026 49.8677 86.0188C49.8677 84.5351 48.6649 83.3323 47.1812 83.3323C45.6974 83.3323 44.4946 84.5351 44.4946 86.0188C44.4946 87.5026 45.6974 88.7054 47.1812 88.7054Z" fill="#F6F6F6" stroke="#575D68" stroke-width="0.4" stroke-miterlimit="10"/>
<path d="M44.1061 91.8108C46.5175 91.8108 48.4723 89.856 48.4723 87.4446C48.4723 85.0332 46.5175 83.0784 44.1061 83.0784C41.6947 83.0784 39.7397 85.0332 39.7397 87.4446C39.7397 89.856 41.6947 91.8108 44.1061 91.8108Z" fill="#F6F6F6" stroke="#575D68" stroke-width="0.4" stroke-miterlimit="10"/>
<path d="M46.559 89.0339C46.559 89.8968 46.389 90.7513 46.0588 91.5486C45.7286 92.3459 45.2446 93.0703 44.6344 93.6805C44.0242 94.2906 43.2998 94.7746 42.5026 95.1049C41.7053 95.4351 40.8507 95.6051 39.9878 95.6051C36.3586 95.6051 31.4001 92.7972 32.724 89.4181C33.2176 87.9118 33.8848 86.468 34.7119 85.1159C35.5359 84.0065 36.6885 83.1851 38.0061 82.7685C39.3236 82.3518 40.7389 82.3611 42.0509 82.795C43.3628 83.2289 44.5046 84.0652 45.314 85.1853C46.1233 86.3053 46.559 87.652 46.559 89.0339Z" fill="#F6F6F6" stroke="#575D68" stroke-width="0.4" stroke-miterlimit="10"/>
<path d="M41.7216 91.8634C41.5495 93.136 40.879 94.2881 39.8574 95.0663C38.8359 95.8445 37.547 96.185 36.2744 96.0129C33.6243 95.6546 31.4934 91.7631 31.4934 91.7631C31.9685 90.4739 32.5596 89.2304 33.2594 88.048C33.9416 87.2587 34.8606 86.711 35.8793 86.4862C36.8981 86.2614 37.9621 86.3716 38.9131 86.8004C39.8642 87.2292 40.6514 87.9537 41.1574 88.866C41.6635 89.7782 41.8613 90.8295 41.7216 91.8634Z" fill="#F6F6F6" stroke="#575D68" stroke-width="0.4" stroke-miterlimit="10"/>
<path d="M33.6883 96.513C35.2804 96.513 36.5711 95.2223 36.5711 93.6302C36.5711 92.038 35.2804 90.7473 33.6883 90.7473C32.0961 90.7473 30.8054 92.038 30.8054 93.6302C30.8054 95.2223 32.0961 96.513 33.6883 96.513Z" fill="#F6F6F6" stroke="#575D68" stroke-width="0.4" stroke-miterlimit="10"/>
<path d="M31.494 96.311C32.2901 96.311 32.9353 95.6291 32.9353 94.788C32.9353 93.9468 32.2901 93.2649 31.494 93.2649C30.6979 93.2649 30.0525 93.9468 30.0525 94.788C30.0525 95.6291 30.6979 96.311 31.494 96.311Z" fill="#F6F6F6" stroke="#575D68" stroke-width="0.4" stroke-miterlimit="10"/>
<path d="M51.9745 147.408C59.7576 147.408 66.0671 143.423 66.0671 138.508C66.0671 133.592 59.7576 129.607 51.9745 129.607C44.1913 129.607 37.8818 133.592 37.8818 138.508C37.8818 143.423 44.1913 147.408 51.9745 147.408Z" fill="#F6F6F6" stroke="#575D68" stroke-width="0.4" stroke-miterlimit="10"/>
<path d="M42.969 140.997L51.416 145.852C51.5207 145.912 51.6394 145.944 51.7601 145.944C51.8809 145.944 51.9995 145.912 52.104 145.851C52.2086 145.791 52.2955 145.704 52.3558 145.599C52.4162 145.495 52.4479 145.376 52.4479 145.255V137.823L43.488 132.883C43.4347 132.853 43.3747 132.838 43.3139 132.839C43.253 132.84 43.1934 132.857 43.141 132.888C43.0886 132.919 43.0452 132.963 43.0151 133.016C42.9849 133.068 42.969 133.128 42.969 133.189V140.997Z" fill="#F6F6F6" stroke="#575D68" stroke-width="0.4" stroke-miterlimit="10"/>
<path d="M60.514 128.87L52.4477 137.823L43.5473 132.915C43.5032 132.891 43.4677 132.854 43.4453 132.809C43.4229 132.764 43.4148 132.713 43.422 132.663C43.4292 132.614 43.4514 132.567 43.4857 132.53C43.5199 132.494 43.5645 132.468 43.6136 132.457L60.4524 128.764C60.4657 128.761 60.4796 128.763 60.4921 128.768C60.5046 128.774 60.5149 128.783 60.5218 128.795C60.5286 128.806 60.5316 128.82 60.5302 128.834C60.5288 128.847 60.5231 128.86 60.514 128.87Z" fill="#F6F6F6" stroke="#575D68" stroke-width="0.4" stroke-miterlimit="10"/>
<path d="M60.9548 129.052V137.196C60.9548 137.598 60.7972 137.984 60.5161 138.271L53.1499 145.791C53.0902 145.846 53.0156 145.883 52.9353 145.897C52.855 145.911 52.7724 145.9 52.6977 145.868C52.6229 145.835 52.5593 145.782 52.5147 145.714C52.47 145.645 52.4463 145.566 52.4463 145.484V137.823L60.5047 128.879C60.5396 128.84 60.5855 128.813 60.6363 128.8C60.6871 128.788 60.7403 128.792 60.7891 128.811C60.8378 128.829 60.8798 128.862 60.9093 128.905C60.9389 128.948 60.9548 128.999 60.9548 129.052Z" fill="#F6F6F6" stroke="#575D68" stroke-width="0.4" stroke-miterlimit="10"/>
<path d="M52.4463 139.777L60.955 130.821" stroke="#575D68" stroke-width="0.4" stroke-miterlimit="10"/>
<path d="M52.4463 141.813L60.955 132.856" stroke="#575D68" stroke-width="0.4" stroke-miterlimit="10"/>
<path d="M52.4463 144.255L60.955 135.299" stroke="#575D68" stroke-width="0.4" stroke-miterlimit="10"/>
<path d="M53.4388 131.748C53.4388 132.196 53.2608 132.626 52.9438 132.943C52.6268 133.26 52.1969 133.438 51.7487 133.438C51.3004 133.438 50.8705 133.26 50.5536 132.943C50.2366 132.626 50.0586 132.196 50.0586 131.748C50.0586 130.814 51.7487 128.844 51.7487 128.844C51.7487 128.844 53.4388 130.814 53.4388 131.748Z" fill="#F6F6F6" stroke="#575D68" stroke-width="0.4" stroke-miterlimit="10"/>
<path d="M6.35915 83.6042C15.7574 83.6042 23.3763 78.7923 23.3763 72.8565C23.3763 66.9208 15.7574 62.1089 6.35915 62.1089C-3.03915 62.1089 -10.658 66.9208 -10.658 72.8565C-10.658 78.7923 -3.03915 83.6042 6.35915 83.6042Z" fill="#F6F6F6" stroke="#575D68" stroke-width="0.4" stroke-miterlimit="10"/>
<path d="M-6.44272 74.0745L3.49692 79.5815C3.64547 79.6638 3.81264 79.7065 3.98246 79.7054C4.15228 79.7044 4.31908 79.6596 4.46661 79.5755L19.0942 71.2352C19.0989 70.4959 18.8966 69.7699 18.5103 69.1395C18.124 68.5091 17.5691 67.9992 16.9083 67.6676L9.54588 63.9735C8.95523 63.6772 8.29974 63.5332 7.63925 63.5547C6.97876 63.5762 6.33422 63.7625 5.7641 64.0967L-5.81443 70.8835C-6.1909 71.1041 -6.50309 71.4195 -6.72003 71.7981C-6.93697 72.1767 -7.05103 72.6055 -7.05103 73.0419C-7.05102 73.2527 -6.9946 73.4595 -6.88761 73.6411C-6.78062 73.8227 -6.62707 73.9724 -6.44272 74.0745Z" fill="#F6F6F6" stroke="#575D68" stroke-width="0.4" stroke-miterlimit="10"/>
<path d="M7.74048 65.9248C7.66585 66.2734 4.90869 74.1849 4.90869 74.1849L7.74048 65.9248Z" fill="#F6F6F6"/>
<path d="M7.74048 65.9248C7.66585 66.2734 4.90869 74.1849 4.90869 74.1849" stroke="#575D68" stroke-width="0.4" stroke-miterlimit="10"/>
<path d="M10.7057 66.7488C10.6311 67.0974 8.72803 72.4597 8.72803 72.4597L10.7057 66.7488Z" fill="#F6F6F6"/>
<path d="M10.7057 66.7488C10.6311 67.0974 8.72803 72.4597 8.72803 72.4597" stroke="#575D68" stroke-width="0.4" stroke-miterlimit="10"/>
<path d="M13.5869 67.3213C13.5123 67.6699 12.4622 70.615 12.4622 70.615L13.5869 67.3213Z" fill="#F6F6F6"/>
<path d="M13.5869 67.3213C13.5123 67.6699 12.4622 70.615 12.4622 70.615" stroke="#575D68" stroke-width="0.4" stroke-miterlimit="10"/>
<path d="M3.96985 67.3213C3.89522 67.6699 1.99219 73.0322 1.99219 73.0322L3.96985 67.3213Z" fill="#F6F6F6"/>
<path d="M3.96985 67.3213C3.89522 67.6699 1.99219 73.0322 1.99219 73.0322" stroke="#575D68" stroke-width="0.4" stroke-miterlimit="10"/>
<path d="M-5.15747 72.8566L2.97958 77.075C3.33054 77.2569 3.72178 77.3473 4.11698 77.3378C4.51219 77.3283 4.89857 77.2191 5.24038 77.0205L16.2632 70.6151" fill="#F6F6F6"/>
<path d="M-5.15747 72.8566L2.97958 77.075C3.33054 77.2569 3.72177 77.3473 4.11698 77.3378C4.51219 77.3283 4.89857 77.2191 5.24038 77.0205L16.2632 70.6151" stroke="#575D68" stroke-width="0.4" stroke-miterlimit="10"/>
<path d="M8.10207 124.759C17.5004 124.759 25.1192 119.947 25.1192 114.011C25.1192 108.075 17.5004 103.263 8.10207 103.263C-1.29623 103.263 -8.91504 108.075 -8.91504 114.011C-8.91504 119.947 -1.29623 124.759 8.10207 124.759Z" fill="#F6F6F6" stroke="#575D68" stroke-width="0.4" stroke-miterlimit="10"/>
<path d="M6.50821 103.129L-7.82568 111.405L8.72531 120.96L6.50821 103.129Z" fill="#F6F6F6" stroke="#575D68" stroke-width="0.4" stroke-miterlimit="10"/>
<path d="M8.72531 123.303V120.96L-7.82568 111.405V114.366L8.72531 123.303Z" fill="#F6F6F6" stroke="#575D68" stroke-width="0.4" stroke-miterlimit="10"/>
<path d="M24.5376 111.176L7.98657 101.621L10.2038 119.452L24.5376 111.176Z" fill="#F6F6F6" stroke="#575D68" stroke-width="0.4" stroke-miterlimit="10"/>
<path d="M10.2034 119.452V122.135L24.5371 113.943V111.176L10.2034 119.452Z" fill="#F6F6F6" stroke="#575D68" stroke-width="0.4" stroke-miterlimit="10"/>
<path d="M10.2038 122.135L8.28774 106.404L7.98657 101.621" fill="#F6F6F6"/>
<path d="M10.2038 122.135L8.28774 106.404L7.98657 101.621" stroke="#575D68" stroke-width="0.4" stroke-miterlimit="10"/>
<path d="M1.98926 106.798L6.32039 108.523" stroke="#575D68" stroke-width="0.4" stroke-miterlimit="10"/>
<path d="M-0.174561 108.797L6.02062 111.265" stroke="#575D68" stroke-width="0.4" stroke-miterlimit="10"/>
<path d="M-3.27344 110.811L6.32092 114.633" stroke="#575D68" stroke-width="0.4" stroke-miterlimit="10"/>
<path d="M10.2563 109.167L14.2404 106.745" stroke="#575D68" stroke-width="0.4" stroke-miterlimit="10"/>
<path d="M10.552 112.1L16.2508 108.636" stroke="#575D68" stroke-width="0.4" stroke-miterlimit="10"/>
<path d="M10.2957 115.785L19.1211 110.422" stroke="#575D68" stroke-width="0.4" stroke-miterlimit="10"/>
<path d="M70.4912 121.6C79.8895 121.6 87.5083 116.789 87.5083 110.853C87.5083 104.917 79.8895 100.105 70.4912 100.105C61.0929 100.105 53.4741 104.917 53.4741 110.853C53.4741 116.789 61.0929 121.6 70.4912 121.6Z" fill="#F6F6F6" stroke="#575D68" stroke-width="0.4" stroke-miterlimit="10"/>
<path d="M68.899 99.9714L54.5664 108.247L71.1163 117.802L68.899 99.9714Z" fill="#F6F6F6" stroke="#575D68" stroke-width="0.4" stroke-miterlimit="10"/>
<path d="M71.1163 120.145V117.802L54.5664 108.247V111.207L71.1163 120.145Z" fill="#F6F6F6" stroke="#575D68" stroke-width="0.4" stroke-miterlimit="10"/>
<path d="M86.9271 108.018L70.376 98.462L72.5943 116.294L86.9271 108.018Z" fill="#F6F6F6" stroke="#575D68" stroke-width="0.4" stroke-miterlimit="10"/>
<path d="M72.5928 116.294V118.977L86.9256 110.786V108.018L72.5928 116.294Z" fill="#F6F6F6" stroke="#575D68" stroke-width="0.4" stroke-miterlimit="10"/>
<path d="M72.5943 118.977L70.6771 103.246L70.376 98.462" fill="#F6F6F6"/>
<path d="M72.5943 118.977L70.6771 103.246L70.376 98.462" stroke="#575D68" stroke-width="0.4" stroke-miterlimit="10"/>
<path d="M64.3784 103.639L68.7095 105.364" stroke="#575D68" stroke-width="0.4" stroke-miterlimit="10"/>
<path d="M62.2146 105.639L68.4099 108.106" stroke="#575D68" stroke-width="0.4" stroke-miterlimit="10"/>
<path d="M59.1157 107.652L68.7101 111.474" stroke="#575D68" stroke-width="0.4" stroke-miterlimit="10"/>
<path d="M72.6455 106.008L76.6295 103.587" stroke="#575D68" stroke-width="0.4" stroke-miterlimit="10"/>
<path d="M72.9412 108.941L78.64 105.478" stroke="#575D68" stroke-width="0.4" stroke-miterlimit="10"/>
<path d="M72.6848 112.626L81.5104 107.263" stroke="#575D68" stroke-width="0.4" stroke-miterlimit="10"/>
<path d="M299.503 261.686L336.044 283.802L365.853 266.501V191.215L332.589 209.684L299.503 190.585V261.686Z" fill="#F6F6F6" stroke="#575D68" stroke-width="0.4" stroke-miterlimit="10"/>
<path d="M299.503 190.585L332.678 171.393L365.853 191.215L332.589 209.684L299.503 190.585Z" fill="#F6F6F6" stroke="#575D68" stroke-width="0.4" stroke-miterlimit="10"/>
<path d="M303.519 192.903L332.678 176.034L361.826 193.45" fill="#F6F6F6"/>
<path d="M303.519 192.903L332.678 176.034L361.826 193.45" stroke="#575D68" stroke-width="0.4" stroke-miterlimit="10"/>
<path d="M333.047 132.818H332.309C331.208 132.818 330.315 133.711 330.315 134.812V196.42C330.315 197.522 331.208 198.415 332.309 198.415H333.047C334.149 198.415 335.041 197.522 335.041 196.42V134.812C335.041 133.711 334.149 132.818 333.047 132.818Z" fill="#F6F6F6" stroke="#575D68" stroke-width="0.4" stroke-miterlimit="10"/>
<path d="M363.914 102.553C363.914 134.491 349.93 160.382 332.678 160.382C315.427 160.382 301.443 134.491 301.443 102.553C301.443 70.6154 332.331 8.45789 332.331 8.45789C332.331 8.45789 363.914 70.6154 363.914 102.553Z" fill="#F6F6F6" stroke="#575D68" stroke-width="0.4" stroke-miterlimit="10"/>
<path d="M336.045 283.802V223.779" stroke="#575D68" stroke-width="0.4" stroke-miterlimit="10"/>
<path d="M143.44 86.8927C143.629 87.3318 144.976 95.5163 144.976 95.5163C144.551 95.803 144.065 95.987 143.557 96.0537C143.049 96.1204 142.532 96.0679 142.047 95.9006C141.438 95.6806 140.889 95.3228 140.441 94.855" fill="#F6F6F6"/>
<path d="M143.44 86.8927C143.629 87.3318 144.976 95.5163 144.976 95.5163C144.551 95.803 144.065 95.987 143.557 96.0537C143.049 96.1204 142.532 96.0679 142.047 95.9006C141.438 95.6806 140.889 95.3228 140.441 94.855" stroke="#575D68" stroke-width="0.4" stroke-miterlimit="10"/>
<path d="M168.383 93.2976L153.157 125.575C153.025 125.881 153.012 126.225 153.119 126.541C153.227 126.856 153.447 127.121 153.738 127.283L172.412 137.724C172.637 137.85 172.886 137.927 173.143 137.951C173.4 137.974 173.659 137.944 173.903 137.861C174.148 137.778 174.372 137.645 174.562 137.47C174.752 137.296 174.903 137.083 175.005 136.846L189.045 104.399C189.205 104.03 189.223 103.616 189.097 103.234C188.971 102.853 188.709 102.531 188.361 102.33L170.029 92.7503C169.887 92.6683 169.729 92.6174 169.566 92.6008C169.403 92.5842 169.238 92.6024 169.083 92.6541C168.927 92.7058 168.784 92.7898 168.664 92.9007C168.543 93.0116 168.447 93.1469 168.383 93.2976Z" fill="#F6F6F6" stroke="#575D68" stroke-width="0.4" stroke-miterlimit="10"/>
<path d="M169.186 95.2826L155.837 123.185C155.695 123.514 155.681 123.884 155.796 124.223C155.912 124.563 156.149 124.847 156.462 125.022L172.334 133.896C172.562 134.024 172.814 134.102 173.074 134.126C173.334 134.15 173.595 134.119 173.843 134.035C174.09 133.951 174.317 133.817 174.509 133.64C174.701 133.463 174.853 133.248 174.957 133.009L187.3 104.485C187.391 104.274 187.401 104.038 187.329 103.82C187.257 103.603 187.108 103.419 186.91 103.305L170.511 94.842C170.397 94.776 170.27 94.735 170.139 94.7216C170.008 94.7082 169.875 94.7228 169.75 94.7645C169.624 94.8061 169.509 94.8738 169.412 94.9631C169.315 95.0524 169.238 95.1613 169.186 95.2826Z" fill="#F6F6F6" stroke="#575D68" stroke-width="0.4" stroke-miterlimit="10"/>
<path d="M172.695 118.865C177.183 118.865 180.821 115.227 180.821 110.739C180.821 106.251 177.183 102.612 172.695 102.612C168.206 102.612 164.568 106.251 164.568 110.739C164.568 115.227 168.206 118.865 172.695 118.865Z" fill="#F6F6F6" stroke="#575D68" stroke-width="0.4" stroke-miterlimit="10"/>
<path d="M169.104 115.199L168.392 107.852L170.338 107.664L170.764 112.062L178.657 107.739L179.595 109.454L169.104 115.199Z" fill="#DDDEDF"/>
<path d="M153.8 123.978C153.8 123.978 159.697 121.172 159.647 120.889C160.452 119.765 161.351 118.712 162.334 117.74C162.422 117.646 162.48 117.529 162.503 117.403C162.525 117.276 162.51 117.146 162.46 117.028C162.411 116.91 162.327 116.808 162.221 116.736C162.115 116.664 161.99 116.624 161.862 116.622C161.214 116.582 160.563 116.651 159.938 116.826C158.801 117.232 155.723 120.234 155.723 120.234" fill="#F6F6F6"/>
<path d="M153.8 123.978C153.8 123.978 159.697 121.172 159.647 120.889C160.452 119.765 161.351 118.712 162.334 117.74C162.422 117.646 162.48 117.529 162.503 117.403C162.525 117.276 162.51 117.146 162.46 117.028C162.411 116.91 162.327 116.808 162.221 116.736C162.115 116.664 161.99 116.624 161.862 116.622C161.214 116.582 160.563 116.651 159.938 116.826C158.801 117.232 155.723 120.234 155.723 120.234" stroke="#575D68" stroke-width="0.4" stroke-miterlimit="10"/>
<path d="M158.579 118.088L160.527 115.625L167.025 112.65C167.025 112.65 168.753 110.352 168.308 109.675C168.041 109.269 166.362 109.675 166.362 109.675L160.641 111.39L159.268 109.675H153.799L144.506 116.655L131.576 123.979L141.646 131.188L153.799 123.979" fill="#F6F6F6"/>
<path d="M158.579 118.088L160.527 115.625L167.025 112.65C167.025 112.65 168.753 110.352 168.308 109.675C168.041 109.269 166.362 109.675 166.362 109.675L160.641 111.39L159.268 109.675H153.799L144.506 116.655L131.576 123.979L141.646 131.188L153.799 123.979" stroke="#575D68" stroke-width="0.4" stroke-miterlimit="10"/>
<path d="M137.462 295.467L141.982 322.181L141.473 323.162C141.233 323.623 141.143 324.147 141.216 324.661C141.288 325.175 141.519 325.654 141.876 326.031C142.233 326.408 142.699 326.665 143.208 326.765C143.718 326.865 144.246 326.803 144.719 326.589C146.672 325.706 148.623 324.844 149.949 324.315C152.463 323.443 155.198 323.443 157.712 324.315C161.674 325.26 157.663 331.432 155.155 333.29L148.636 336.219L133.482 344.628L119.599 340.481L114.107 294.271" fill="#F6F6F6"/>
<path d="M137.462 295.467L141.982 322.181L141.473 323.162C141.233 323.623 141.143 324.147 141.216 324.661C141.288 325.175 141.519 325.654 141.876 326.031C142.233 326.408 142.699 326.665 143.208 326.765C143.718 326.865 144.246 326.803 144.719 326.589C146.672 325.706 148.623 324.844 149.949 324.315C152.463 323.443 155.198 323.443 157.712 324.315C161.674 325.26 157.663 331.432 155.155 333.29L148.636 336.219L133.482 344.628L119.599 340.481L114.107 294.271" stroke="#575D68" stroke-width="0.4" stroke-miterlimit="10"/>
<path d="M155.04 128.432C151.781 123.693 147.025 120.185 141.534 118.471L130.556 115.044C129.489 112.702 129.259 110.065 129.904 107.574L130.059 106.973L136.235 108.638C137.163 108.638 138.107 106.77 138.511 106.139C139.537 104.532 140.432 102.837 141.294 101.138C142.01 99.7288 142.778 98.2734 143.358 96.8152C143.731 95.3525 143.823 93.8322 143.629 92.3352C143.632 89.3718 144.534 86.4792 146.216 84.0395C146.101 80.4651 146.298 76.8723 144.75 73.5545C143.66 71.3865 142.114 69.4801 140.218 67.9665C136.459 64.7708 129.436 62.9885 124.67 64.2606C115.408 66.7325 111.854 73.5723 112.049 82.5719C112.254 92.0648 115.698 106.386 104.074 110.617C98.6251 112.596 91.6971 120.514 90.7075 130.412C89.7178 140.309 107.533 197.713 107.533 197.713C107.533 197.713 101.594 226.416 103.574 238.292C105.553 250.169 109.836 272.009 109.836 272.009C109.836 272.009 108.913 310.985 111.559 320.004C109.121 324.22 107.838 329.005 107.838 333.875V340.978L122.506 350.648C126.627 351.243 141.198 351.758 149.256 349.972C149.99 349.799 150.649 349.397 151.139 348.824C151.629 348.25 151.924 347.536 151.982 346.785C152.039 346.033 151.856 345.282 151.458 344.641C151.061 344.001 150.47 343.503 149.771 343.22L130.297 335.286C130.297 335.286 134.255 321.43 137.225 311.533C140.194 301.635 159.989 278.871 159.989 278.871L157.521 220.946L151.617 181.121L155.04 128.432Z" fill="#F6F6F6" stroke="#575D68" stroke-width="0.4" stroke-miterlimit="10"/>
<path d="M138.125 153.982L145.484 158.035C147.793 159.307 150.105 160.576 152.447 161.786C157.467 164.508 162.765 166.68 168.25 168.266C171.226 169.063 180.585 171.568 182.459 168.41C185.198 163.793 185.877 137.964 186.911 129.383C187.571 125.844 188.546 122.37 189.823 119.003L187.376 108.253L182.306 119.205L179.593 126.239L172.694 151.932L153.736 127.283" fill="#F6F6F6"/>
<path d="M138.125 153.982L145.484 158.035C147.793 159.307 150.105 160.576 152.447 161.786C157.467 164.508 162.765 166.68 168.25 168.266C171.226 169.063 180.585 171.568 182.459 168.41C185.198 163.793 185.877 137.964 186.911 129.383C187.571 125.844 188.546 122.37 189.823 119.003L187.376 108.253L182.306 119.205L179.593 126.239L172.694 151.932L153.736 127.283" stroke="#575D68" stroke-width="0.4" stroke-miterlimit="10"/>
<path d="M179.665 127.886L179.126 115.373C179.126 115.373 179.206 113.107 179.812 112.887C180.271 112.721 181.414 114 181.414 114L183.027 120.341L185.186 122.166" fill="#F6F6F6"/>
<path d="M179.665 127.886L179.126 115.373C179.126 115.373 179.206 113.107 179.812 112.887C180.271 112.721 181.414 114 181.414 114L183.027 120.341L185.186 122.166" stroke="#575D68" stroke-width="0.4" stroke-miterlimit="10"/>
<path d="M129.868 335.252C125.274 335.095 120.814 333.664 116.988 331.118C111.683 327.348 111.13 319.969 111.13 319.969C112.89 315.747 132.031 270.972 133.025 271.464L131.628 270.773C131.394 270.688 131.184 270.548 131.016 270.364C130.848 270.18 130.727 269.959 130.663 269.718C127.871 262.974 125.14 256.431 122.613 249.57C121.547 246.678 120.482 243.784 119.502 240.862C119.163 239.851 118.163 237.986 118.38 236.876" fill="#F6F6F6"/>
<path d="M129.868 335.252C125.274 335.095 120.814 333.664 116.988 331.118C111.683 327.348 111.13 319.969 111.13 319.969C112.89 315.747 132.031 270.972 133.025 271.464L131.628 270.773C131.394 270.688 131.184 270.548 131.016 270.364C130.848 270.18 130.727 269.959 130.663 269.718C127.871 262.974 125.14 256.431 122.613 249.57C121.547 246.678 120.482 243.784 119.502 240.862C119.163 239.851 118.163 237.986 118.38 236.876" stroke="#575D68" stroke-width="0.4" stroke-miterlimit="10"/>
<path d="M109.342 89.6309C109.156 89.1945 108.971 88.7575 108.789 88.3196C107.434 85.0721 105.853 81.8177 105.547 78.2616C105.256 74.195 106.547 70.1731 109.152 67.0367C111.696 64.1737 114.981 62.0677 118.645 60.9501C122.567 59.5556 126.648 58.6537 130.793 58.2651C132.496 58.0727 134.219 58.2052 135.872 58.6555C137.398 59.1905 138.819 59.9917 140.066 61.0218C141.5 62.069 142.757 63.3388 143.79 64.7829C144.874 66.5346 145.675 68.4467 146.164 70.4484C147.237 74.207 148.026 78.0412 148.522 81.9185C143.263 81.9567 138.36 79.4579 133.7 77.0207C134.354 78.4191 134.666 79.953 134.611 81.4958C134.556 83.0387 134.134 84.5462 133.381 85.8941C133.186 85.615 132.901 85.4103 132.575 85.3133C132.248 85.2163 131.898 85.2326 131.582 85.3598C130.953 85.6341 130.437 86.1148 130.118 86.7223C128.398 89.5982 129.236 93.2303 129.315 96.5804C129.414 97.7015 129.196 98.8279 128.685 99.8308C128.355 100.387 127.846 100.814 127.241 101.044C127.193 101.061 125.37 101.612 123.582 102.027C121.038 102.641 118.364 102.422 115.954 101.401C114.157 100.6 112.223 99.3384 111.81 97.4027C111.404 96.1115 111.082 94.7954 110.846 93.4627C110.777 92.9558 110.621 92.4647 110.385 92.0113C110.028 91.2201 109.681 90.4266 109.342 89.6309Z" fill="#DDDEDF" stroke="#575D68" stroke-width="0.4" stroke-miterlimit="10"/>
<path style="mix-blend-mode:multiply" d="M109.342 89.6309C109.156 89.1945 108.971 88.7575 108.789 88.3196C107.434 85.0721 105.853 81.8177 105.547 78.2616C105.256 74.195 106.547 70.1731 109.152 67.0367C111.696 64.1737 114.981 62.0677 118.645 60.9501C122.567 59.5556 126.648 58.6537 130.793 58.2651C132.496 58.0727 134.219 58.2052 135.872 58.6555C137.398 59.1905 138.819 59.9917 140.066 61.0218C141.5 62.069 142.757 63.3388 143.79 64.7829C144.874 66.5346 145.675 68.4467 146.164 70.4484C147.237 74.207 148.026 78.0412 148.522 81.9185C143.263 81.9567 138.36 79.4579 133.7 77.0207C134.354 78.4191 134.666 79.953 134.611 81.4958C134.556 83.0387 134.134 84.5462 133.381 85.8941C133.186 85.615 132.901 85.4103 132.575 85.3133C132.248 85.2163 131.898 85.2326 131.582 85.3598C130.953 85.6341 130.437 86.1148 130.118 86.7223C128.398 89.5982 129.236 93.2303 129.315 96.5804C129.414 97.7015 129.196 98.8279 128.685 99.8308C128.355 100.387 127.846 100.814 127.241 101.044C127.193 101.061 125.37 101.612 123.582 102.027C121.038 102.641 118.364 102.422 115.954 101.401C114.157 100.6 112.223 99.3384 111.81 97.4027C111.404 96.1115 111.082 94.7954 110.846 93.4627C110.777 92.9558 110.621 92.4647 110.385 92.0113C110.028 91.2201 109.681 90.4266 109.342 89.6309Z" fill="url(#paint0_linear_3_37791)"/>
<path d="M106.775 104.836C108.296 103.67 109.884 102.594 111.531 101.612L129.134 110.897L133.561 116.229L121.485 111.94L105.897 109.528L106.775 104.836Z" fill="#F6F6F6" stroke="#575D68" stroke-width="0.4" stroke-miterlimit="10"/>
<path d="M106.775 104.836C108.296 103.67 109.884 102.594 111.531 101.612L129.134 110.897L133.561 116.229L121.485 111.94L105.897 109.528L106.775 104.836Z" fill="url(#paint1_linear_3_37791)"/>
<path d="M107.105 197.679L115.963 200.151C120.491 201.415 125.202 201.899 129.893 201.583L153.987 199.956" fill="#F6F6F6"/>
<path d="M107.105 197.679L115.963 200.151C120.491 201.415 125.202 201.899 129.893 201.583L153.987 199.956" stroke="#575D68" stroke-width="0.4" stroke-miterlimit="10"/>
<path d="M106.687 201.676L115.545 204.149C120.073 205.413 124.784 205.897 129.475 205.58L153.569 203.953" fill="#F6F6F6"/>
<path d="M106.687 201.676L115.545 204.149C120.073 205.413 124.784 205.897 129.475 205.58L153.569 203.953" stroke="#575D68" stroke-width="0.4" stroke-miterlimit="10"/>
<path d="M120.806 200.894L107.41 178.518" stroke="#575D68" stroke-width="0.4" stroke-miterlimit="10"/>
<path d="M118.011 189.689L121.551 200.67" stroke="#575D68" stroke-width="0.4" stroke-miterlimit="10"/>
<path d="M153.568 203.953C153.449 203.961 155.912 221.618 155.912 221.618L151.511 227.567L149.109 218.829L145.559 204.895" fill="#F6F6F6"/>
<path d="M153.568 203.953C153.449 203.961 155.912 221.618 155.912 221.618L151.511 227.567L149.109 218.829L145.559 204.895" stroke="#575D68" stroke-width="0.4" stroke-miterlimit="10"/>
<path d="M151.511 227.567L155.155 274.566L138.333 296.963C133.798 302.999 130.105 309.624 127.354 316.655L122.803 328.283" fill="#F6F6F6"/>
<path d="M151.511 227.567L155.155 274.566L138.333 296.963C133.798 302.999 130.105 309.624 127.354 316.655L122.803 328.283" stroke="#575D68" stroke-width="0.4" stroke-miterlimit="10"/>
<path d="M172.694 151.932C172.694 151.932 175.374 155.16 175.563 156.125L172.694 151.932Z" fill="#F6F6F6"/>
<path d="M172.694 151.932C172.694 151.932 175.374 155.16 175.563 156.125" stroke="#575D68" stroke-width="0.4" stroke-miterlimit="10"/>
<path d="M171.547 150.441L173.369 147.033C174.749 146.406 176.252 146.097 177.766 146.13C181.786 146.094 186.71 149.158 186.71 149.158V155.2C186.288 156.192 185.572 157.031 184.659 157.604C183.949 157.63 182.49 155.159 180.664 154.948C178.704 154.721 176.731 154.62 174.759 154.646L171.547 150.441Z" fill="#F6F6F6" stroke="#575D68" stroke-width="0.4" stroke-miterlimit="10"/>
<path d="M171.547 150.441L173.369 147.033C174.749 146.406 176.252 146.097 177.766 146.13C181.786 146.094 186.71 149.158 186.71 149.158V155.2C186.288 156.192 185.572 157.031 184.659 157.604C183.949 157.63 182.49 155.159 180.664 154.948C178.704 154.721 176.731 154.62 174.759 154.646L171.547 150.441Z" fill="url(#paint2_linear_3_37791)"/>
<path d="M173.611 153.059C173.611 153.059 178.394 153.09 180.288 153.059C183.627 153.003 185.579 156.125 185.579 156.125" fill="#F6F6F6"/>
<path d="M173.611 153.059C173.611 153.059 178.394 153.09 180.288 153.059C183.627 153.003 185.579 156.125 185.579 156.125" stroke="#575D68" stroke-width="0.4" stroke-miterlimit="10"/>
<path d="M185.943 111.355C185.958 111.74 186.713 117.207 186.713 117.207L186.328 119.393" fill="#F6F6F6"/>
<path d="M185.943 111.355C185.958 111.74 186.713 117.207 186.713 117.207L186.328 119.393" stroke="#575D68" stroke-width="0.4" stroke-miterlimit="10"/>
<path d="M184.412 114.554C184.427 114.939 184.797 117.583 184.797 117.583L184.412 119.771" fill="#F6F6F6"/>
<path d="M184.412 114.554C184.427 114.939 184.797 117.583 184.797 117.583L184.412 119.771" stroke="#575D68" stroke-width="0.4" stroke-miterlimit="10"/>
<path d="M154.59 114.554L160.643 111.39" stroke="#575D68" stroke-width="0.4" stroke-miterlimit="10"/>
<path d="M153.047 112.118L155.842 110.897L159.269 109.675" fill="#F6F6F6"/>
<path d="M153.047 112.118L155.842 110.897L159.269 109.675" stroke="#575D68" stroke-width="0.4" stroke-miterlimit="10"/>
<path d="M107.558 337.27L111.94 340.372C119.377 345.635 123.582 350.173 137.395 349.068C140.924 348.889 144.432 348.415 147.882 347.651C152.174 346.188 149.343 343.186 149.343 343.186" stroke="#575D68" stroke-width="0.4" stroke-miterlimit="10"/>
<path d="M139.725 339.268C139.725 339.268 153.986 331.966 155.156 330.929C160.755 325.964 157.713 324.315 157.713 324.315" stroke="#575D68" stroke-width="0.4" stroke-miterlimit="10"/>
<path d="M134.088 330.302C137.372 328.71 140.046 326.089 141.705 322.839L134.088 330.302Z" fill="#F6F6F6"/>
<path d="M134.088 330.302C137.372 328.71 140.046 326.089 141.705 322.839" stroke="#575D68" stroke-width="0.4" stroke-miterlimit="10"/>
<path style="mix-blend-mode:multiply" d="M114.107 148.986C112.843 130.135 121.483 111.94 121.483 111.94L107.324 108.907C106.326 109.627 105.231 110.202 104.073 110.617C98.6244 112.597 91.6963 120.514 90.7067 130.412C89.7964 139.516 105.121 189.867 107.532 197.714L118.011 200.894C121.52 201.858 127.18 201.535 130.814 201.337L138.98 200.894C138.98 200.894 115.79 174.096 114.107 148.986Z" fill="url(#paint3_linear_3_37791)"/>
<path d="M151.616 181.121L129.521 154.028L135.819 153.058C135.819 153.058 152.102 160.557 152.447 161.787C152.793 163.016 151.616 181.121 151.616 181.121Z" fill="url(#paint4_linear_3_37791)"/>
<path style="mix-blend-mode:multiply" d="M137.134 220.494L118.379 236.876L130.663 269.718L133.025 271.464C130.128 276.766 110.661 316.946 111.558 320.004C111.043 320.896 113.129 326.571 113.129 326.571L142.874 266.684C142.874 266.684 136.632 221.249 137.134 220.494Z" fill="url(#paint5_linear_3_37791)"/>
<path style="mix-blend-mode:multiply" d="M111.476 249.867C111.885 248.733 118.379 236.876 118.379 236.876L130.663 269.718L133.025 271.464L122.804 292.415L111.476 249.867Z" fill="url(#paint6_linear_3_37791)"/>
<path d="M267.852 9.60931L291.969 23.5719C292.737 24.015 293.375 24.6525 293.818 25.4203C294.262 26.1882 294.495 27.0593 294.495 27.946V73.1976C294.5 73.93 294.343 74.6544 294.036 75.3194C293.729 75.9843 293.279 76.5734 292.718 77.0449C291.226 78.3069 285.927 81.4723 285.927 81.4723L264.456 65.6058C263.647 65.1752 262.972 64.5331 262.5 63.7481C262.029 62.9631 261.78 62.0646 261.78 61.149L256.295 14.4713C256.295 14.4713 261.17 10.7132 262.461 9.826C263.246 9.27979 264.17 8.96919 265.125 8.9308C266.08 8.89242 267.026 9.12781 267.852 9.60931Z" fill="#F6F6F6" stroke="#575D68" stroke-width="0.4" stroke-miterlimit="10"/>
<path d="M261.177 13.5079L285.701 27.6563C286.469 28.0994 287.107 28.737 287.55 29.5048C287.994 30.2726 288.227 31.1437 288.227 32.0304V77.2821C288.227 78.1539 288.002 79.0109 287.572 79.7696C287.143 80.5284 286.524 81.1629 285.777 81.6116C285.029 82.0603 284.178 82.3079 283.307 82.3302C282.435 82.3525 281.573 82.1488 280.803 81.7388L258.188 69.6902C257.379 69.2597 256.704 68.6175 256.232 67.8325C255.761 67.0475 255.512 66.149 255.512 65.2334V16.7798C255.512 16.1168 255.687 15.4656 256.018 14.8914C256.35 14.3172 256.826 13.8404 257.4 13.5088C257.974 13.1772 258.626 13.0026 259.289 13.0024C259.952 13.0023 260.603 13.1766 261.177 13.5079Z" fill="#F6F6F6" stroke="#575D68" stroke-width="0.4" stroke-miterlimit="10"/>
<path d="M262.029 15.5881L284.599 28.9348C285.311 29.3618 285.9 29.9667 286.308 30.6901C286.715 31.4135 286.928 32.2306 286.924 33.061V75.7485C286.941 76.5591 286.746 77.36 286.358 78.0719C285.97 78.7838 285.402 79.3817 284.711 79.8066C284.021 80.2315 283.231 80.4686 282.421 80.4942C281.611 80.5198 280.807 80.3331 280.091 79.9527L259.278 68.5868C258.528 68.171 257.904 67.5614 257.471 66.8218C257.038 66.0821 256.811 65.2397 256.815 64.3825V18.6745C256.802 18.0581 256.953 17.4493 257.253 16.9105C257.552 16.3717 257.99 15.9222 258.521 15.6081C259.051 15.294 259.656 15.1266 260.272 15.1231C260.889 15.1196 261.495 15.2801 262.029 15.5881Z" fill="#F6F6F6" stroke="#575D68" stroke-width="0.4" stroke-miterlimit="10"/>
<path d="M289.952 36.0074L293.087 34.552" stroke="#575D68" stroke-width="0.4" stroke-miterlimit="10"/>
<path d="M289.952 39.1479L293.087 37.6925" stroke="#575D68" stroke-width="0.4" stroke-miterlimit="10"/>
<path d="M289.952 42.2882L293.087 40.8329" stroke="#575D68" stroke-width="0.4" stroke-miterlimit="10"/>
<path d="M289.952 45.4286L293.087 43.9733" stroke="#575D68" stroke-width="0.4" stroke-miterlimit="10"/>
<path d="M289.952 48.5693L293.087 47.1139" stroke="#575D68" stroke-width="0.4" stroke-miterlimit="10"/>
<path d="M289.952 51.7096L293.087 50.2543" stroke="#575D68" stroke-width="0.4" stroke-miterlimit="10"/>
<path d="M289.952 54.8501L293.087 53.3948" stroke="#575D68" stroke-width="0.4" stroke-miterlimit="10"/>
<path d="M273.495 60.4902L266.772 56.6788C266.529 56.4926 266.333 56.2534 266.198 55.9795C266.062 55.7056 265.992 55.4044 265.991 55.0989C265.979 54.9767 265.994 54.8533 266.034 54.7372C266.074 54.6211 266.138 54.5149 266.223 54.4259L269.125 51.9666L273.495 60.4902Z" fill="#DDDEDF" stroke="#575D68" stroke-width="0.4" stroke-miterlimit="10"/>
<path d="M266.77 56.6788C266.406 56.4059 266.111 56.0504 265.91 55.6416C265.709 55.2328 265.608 54.7823 265.615 54.3268L265.514 41.6267C265.5 39.9106 265.429 38.6681 266.291 37.9371L269.528 35.1934L275.397 46.6512L266.222 54.4259C266.137 54.5149 266.073 54.621 266.033 54.7371C265.993 54.8532 265.978 54.9766 265.99 55.0989C265.99 55.4043 266.061 55.7056 266.196 55.9795C266.332 56.2534 266.528 56.4926 266.77 56.6788Z" fill="#DDDEDF" stroke="#575D68" stroke-width="0.4" stroke-miterlimit="10"/>
<path style="mix-blend-mode:multiply" d="M175.002 136.846L285.929 81.4723L256.296 14.4716L168.381 93.298L156.46 125.022L175.002 136.846Z" fill="url(#paint7_linear_3_37791)"/>
<path d="M168.382 93.2976L153.156 125.575C153.024 125.881 153.011 126.225 153.119 126.541C153.226 126.856 153.446 127.121 153.737 127.283L172.411 137.724C172.636 137.85 172.885 137.927 173.142 137.951C173.399 137.974 173.658 137.944 173.903 137.861C174.147 137.778 174.371 137.645 174.561 137.47C174.751 137.296 174.902 137.083 175.004 136.846L189.045 104.399C189.204 104.03 189.223 103.616 189.096 103.234C188.97 102.853 188.708 102.531 188.36 102.33L170.028 92.7503C169.886 92.6683 169.729 92.6174 169.565 92.6008C169.402 92.5842 169.238 92.6024 169.082 92.6541C168.927 92.7058 168.784 92.7898 168.663 92.9007C168.542 93.0116 168.447 93.1469 168.382 93.2976Z" fill="#DDDEDF" stroke="#575D68" stroke-width="0.4" stroke-miterlimit="10"/>
<path d="M143.439 86.8927C143.628 87.3318 144.975 95.5163 144.975 95.5163C144.55 95.803 144.064 95.987 143.556 96.0537C143.048 96.1204 142.531 96.0679 142.047 95.9006C141.438 95.6806 140.888 95.3228 140.44 94.855" fill="#F6F6F6"/>
<path d="M143.439 86.8927C143.628 87.3318 144.975 95.5163 144.975 95.5163C144.55 95.803 144.064 95.987 143.556 96.0537C143.048 96.1204 142.531 96.0679 142.047 95.9006C141.438 95.6806 140.888 95.3228 140.44 94.855" stroke="#575D68" stroke-width="0.4" stroke-miterlimit="10"/>
<path d="M169.185 95.2826L155.836 123.185C155.695 123.514 155.68 123.884 155.796 124.223C155.911 124.563 156.148 124.847 156.461 125.022L172.334 133.896C172.561 134.024 172.813 134.102 173.073 134.126C173.333 134.15 173.595 134.119 173.842 134.035C174.089 133.951 174.316 133.817 174.508 133.64C174.7 133.463 174.853 133.248 174.956 133.009L187.299 104.485C187.39 104.274 187.4 104.038 187.328 103.82C187.257 103.603 187.107 103.419 186.909 103.305L170.511 94.842C170.396 94.776 170.27 94.735 170.138 94.7216C170.007 94.7082 169.874 94.7228 169.749 94.7645C169.624 94.8061 169.509 94.8738 169.412 94.9631C169.314 95.0524 169.237 95.1613 169.185 95.2826Z" fill="#F6F6F6" stroke="#575D68" stroke-width="0.4" stroke-miterlimit="10"/>
<path d="M176.868 103.766C175.489 102.941 173.896 102.542 172.291 102.622C170.685 102.702 169.14 103.256 167.849 104.214C166.559 105.172 165.582 106.492 165.041 108.005C164.5 109.519 164.421 111.159 164.812 112.718C165.203 114.276 166.048 115.684 167.24 116.763C168.431 117.842 169.916 118.543 171.506 118.778C173.096 119.013 174.72 118.771 176.172 118.083C177.625 117.395 178.841 116.292 179.666 114.913C180.774 113.064 181.101 110.85 180.576 108.76C180.051 106.669 178.717 104.873 176.868 103.766ZM169.102 115.199L168.391 107.852L170.337 107.664L170.763 112.061L178.655 107.739L179.594 109.453L169.102 115.199Z" fill="#7800FF"/>
<path d="M153.8 123.978C153.8 123.978 159.696 121.172 159.646 120.889C160.451 119.765 161.35 118.712 162.333 117.74C162.421 117.646 162.479 117.529 162.502 117.403C162.524 117.276 162.51 117.146 162.46 117.028C162.41 116.91 162.327 116.808 162.221 116.736C162.114 116.664 161.99 116.624 161.861 116.622C161.213 116.582 160.563 116.651 159.937 116.826C158.8 117.232 155.723 120.234 155.723 120.234" fill="#F6F6F6"/>
<path d="M153.8 123.978C153.8 123.978 159.696 121.172 159.646 120.889C160.451 119.765 161.35 118.712 162.333 117.74C162.421 117.646 162.479 117.529 162.502 117.403C162.524 117.276 162.51 117.146 162.46 117.028C162.41 116.91 162.327 116.808 162.221 116.736C162.114 116.664 161.99 116.624 161.861 116.622C161.213 116.582 160.563 116.651 159.937 116.826C158.8 117.232 155.723 120.234 155.723 120.234" stroke="#575D68" stroke-width="0.4" stroke-miterlimit="10"/>
<path d="M158.578 118.088L160.526 115.625L167.024 112.65C167.024 112.65 168.752 110.352 168.307 109.675C168.04 109.269 166.362 109.675 166.362 109.675L160.64 111.39L159.267 109.675H153.798L144.506 116.655L131.575 123.979L141.645 131.188L153.798 123.979" fill="#F6F6F6"/>
<path d="M158.578 118.088L160.526 115.625L167.024 112.65C167.024 112.65 168.752 110.352 168.307 109.675C168.04 109.269 166.362 109.675 166.362 109.675L160.64 111.39L159.267 109.675H153.798L144.506 116.655L131.575 123.979L141.645 131.188L153.798 123.979" stroke="#575D68" stroke-width="0.4" stroke-miterlimit="10"/>
<path d="M137.461 295.467L141.981 322.181L141.472 323.162C141.232 323.623 141.143 324.147 141.215 324.661C141.287 325.175 141.518 325.654 141.875 326.031C142.232 326.408 142.698 326.665 143.208 326.765C143.717 326.865 144.245 326.803 144.719 326.589C146.671 325.706 148.623 324.844 149.949 324.315C152.463 323.443 155.197 323.443 157.711 324.315C161.674 325.26 157.662 331.432 155.155 333.29L148.636 336.219L133.481 344.628L119.598 340.481L114.106 294.271" fill="#F6F6F6"/>
<path d="M137.461 295.467L141.981 322.181L141.472 323.162C141.232 323.623 141.143 324.147 141.215 324.661C141.287 325.175 141.518 325.654 141.875 326.031C142.232 326.408 142.698 326.665 143.208 326.765C143.717 326.865 144.245 326.803 144.719 326.589C146.671 325.706 148.623 324.844 149.949 324.315C152.463 323.443 155.197 323.443 157.711 324.315C161.674 325.26 157.662 331.432 155.155 333.29L148.636 336.219L133.481 344.628L119.598 340.481L114.106 294.271" stroke="#575D68" stroke-width="0.4" stroke-miterlimit="10"/>
<path d="M155.039 128.432C151.78 123.693 147.024 120.185 141.534 118.471L130.556 115.044C129.488 112.702 129.258 110.065 129.903 107.574L130.058 106.973L136.234 108.638C137.162 108.638 138.107 106.77 138.51 106.139C139.537 104.532 140.431 102.837 141.294 101.138C142.009 99.7288 142.778 98.2734 143.357 96.8152C143.73 95.3525 143.822 93.8322 143.629 92.3352C143.632 89.3718 144.534 86.4792 146.216 84.0395C146.1 80.4651 146.297 76.8723 144.749 73.5545C143.659 71.3865 142.113 69.4801 140.217 67.9665C136.458 64.7708 129.435 62.9885 124.669 64.2606C115.408 66.7325 111.854 73.5723 112.048 82.5719C112.253 92.0648 115.697 106.386 104.073 110.617C98.6244 112.596 91.6964 120.514 90.7067 130.412C89.7171 140.309 107.532 197.713 107.532 197.713C107.532 197.713 101.594 226.416 103.573 238.292C105.553 250.169 109.835 272.009 109.835 272.009C109.835 272.009 108.912 310.985 111.558 320.004C109.121 324.22 107.837 329.005 107.837 333.875V340.978L122.505 350.648C126.626 351.243 141.197 351.758 149.255 349.972C149.989 349.799 150.648 349.397 151.139 348.824C151.629 348.25 151.924 347.536 151.981 346.785C152.038 346.033 151.855 345.282 151.458 344.641C151.06 344.001 150.469 343.503 149.77 343.22L130.296 335.286C130.296 335.286 134.255 321.43 137.224 311.533C140.193 301.635 159.988 278.871 159.988 278.871L157.521 220.946L151.616 181.121L155.039 128.432Z" fill="#F6F6F6" stroke="#575D68" stroke-width="0.4" stroke-miterlimit="10"/>
<path d="M138.124 153.982L145.483 158.035C147.792 159.307 150.104 160.576 152.446 161.786C157.466 164.508 162.764 166.68 168.249 168.266C171.226 169.063 180.584 171.568 182.458 168.41C185.197 163.793 185.876 137.964 186.911 129.383C187.571 125.844 188.545 122.37 189.822 119.003L187.375 108.253L182.306 119.205L179.593 126.239L172.693 151.932L153.735 127.283" fill="#F6F6F6"/>
<path d="M138.124 153.982L145.483 158.035C147.792 159.307 150.104 160.576 152.446 161.786C157.466 164.508 162.764 166.68 168.249 168.266C171.226 169.063 180.584 171.568 182.458 168.41C185.197 163.793 185.876 137.964 186.911 129.383C187.571 125.844 188.545 122.37 189.822 119.003L187.375 108.253L182.306 119.205L179.593 126.239L172.693 151.932L153.735 127.283" stroke="#575D68" stroke-width="0.4" stroke-miterlimit="10"/>
<path d="M179.664 127.886L179.125 115.373C179.125 115.373 179.205 113.107 179.812 112.887C180.27 112.721 181.414 114 181.414 114L183.026 120.341L185.185 122.166" fill="#F6F6F6"/>
<path d="M179.664 127.886L179.125 115.373C179.125 115.373 179.205 113.107 179.812 112.887C180.27 112.721 181.414 114 181.414 114L183.026 120.341L185.185 122.166" stroke="#575D68" stroke-width="0.4" stroke-miterlimit="10"/>
<path d="M129.867 335.252C125.273 335.095 120.814 333.664 116.987 331.118C111.683 327.348 111.129 319.969 111.129 319.969C112.889 315.747 132.03 270.972 133.025 271.464L131.627 270.773C131.393 270.688 131.184 270.548 131.016 270.364C130.848 270.18 130.727 269.959 130.663 269.718C127.871 262.974 125.14 256.431 122.612 249.57C121.546 246.678 120.481 243.784 119.501 240.862C119.163 239.851 118.162 237.986 118.379 236.876" fill="#F6F6F6"/>
<path d="M129.867 335.252C125.273 335.095 120.814 333.664 116.987 331.118C111.683 327.348 111.129 319.969 111.129 319.969C112.889 315.747 132.03 270.972 133.025 271.464L131.627 270.773C131.393 270.688 131.184 270.548 131.016 270.364C130.848 270.18 130.727 269.959 130.663 269.718C127.871 262.974 125.14 256.431 122.612 249.57C121.546 246.678 120.481 243.784 119.501 240.862C119.163 239.851 118.162 237.986 118.379 236.876" stroke="#575D68" stroke-width="0.4" stroke-miterlimit="10"/>
<path d="M109.341 89.6309C109.155 89.1945 108.971 88.7575 108.788 88.3196C107.433 85.0721 105.853 81.8177 105.547 78.2616C105.255 74.195 106.546 70.1731 109.151 67.0367C111.696 64.1737 114.98 62.0677 118.644 60.9501C122.567 59.5556 126.648 58.6537 130.793 58.2651C132.495 58.0727 134.218 58.2052 135.871 58.6555C137.398 59.1905 138.818 59.9917 140.065 61.0218C141.499 62.069 142.756 63.3388 143.789 64.7829C144.874 66.5346 145.675 68.4467 146.163 70.4484C147.237 74.207 148.025 78.0412 148.522 81.9185C143.262 81.9567 138.359 79.4579 133.699 77.0207C134.353 78.4191 134.666 79.953 134.61 81.4958C134.555 83.0387 134.133 84.5462 133.381 85.8941C133.185 85.615 132.901 85.4103 132.574 85.3133C132.247 85.2163 131.897 85.2326 131.581 85.3598C130.952 85.6341 130.436 86.1148 130.117 86.7223C128.397 89.5982 129.235 93.2303 129.314 96.5804C129.413 97.7015 129.195 98.8279 128.684 99.8308C128.354 100.387 127.845 100.814 127.24 101.044C127.192 101.061 125.369 101.612 123.582 102.027C121.037 102.641 118.363 102.422 115.953 101.401C114.156 100.6 112.222 99.3384 111.81 97.4027C111.403 96.1115 111.081 94.7954 110.845 93.4627C110.776 92.9558 110.62 92.4647 110.384 92.0113C110.028 91.2201 109.68 90.4266 109.341 89.6309Z" fill="#DDDEDF" stroke="#575D68" stroke-width="0.4" stroke-miterlimit="10"/>
<path style="mix-blend-mode:multiply" d="M109.341 89.6309C109.155 89.1945 108.971 88.7575 108.788 88.3196C107.433 85.0721 105.853 81.8177 105.547 78.2616C105.255 74.195 106.546 70.1731 109.151 67.0367C111.696 64.1737 114.98 62.0677 118.644 60.9501C122.567 59.5556 126.648 58.6537 130.793 58.2651C132.495 58.0727 134.218 58.2052 135.871 58.6555C137.398 59.1905 138.818 59.9917 140.065 61.0218C141.499 62.069 142.756 63.3388 143.789 64.7829C144.874 66.5346 145.675 68.4467 146.163 70.4484C147.237 74.207 148.025 78.0412 148.522 81.9185C143.262 81.9567 138.359 79.4579 133.699 77.0207C134.353 78.4191 134.666 79.953 134.61 81.4958C134.555 83.0387 134.133 84.5462 133.381 85.8941C133.185 85.615 132.901 85.4103 132.574 85.3133C132.247 85.2163 131.897 85.2326 131.581 85.3598C130.952 85.6341 130.436 86.1148 130.117 86.7223C128.397 89.5982 129.235 93.2303 129.314 96.5804C129.413 97.7015 129.195 98.8279 128.684 99.8308C128.354 100.387 127.845 100.814 127.24 101.044C127.192 101.061 125.369 101.612 123.582 102.027C121.037 102.641 118.363 102.422 115.953 101.401C114.156 100.6 112.222 99.3384 111.81 97.4027C111.403 96.1115 111.081 94.7954 110.845 93.4627C110.776 92.9558 110.62 92.4647 110.384 92.0113C110.028 91.2201 109.68 90.4266 109.341 89.6309Z" fill="url(#paint8_linear_3_37791)"/>
<path d="M106.774 104.836C108.295 103.67 109.883 102.594 111.53 101.612L129.134 110.897L133.56 116.229L121.484 111.94L105.896 109.528L106.774 104.836Z" fill="#F6F6F6" stroke="#575D68" stroke-width="0.4" stroke-miterlimit="10"/>
<path style="mix-blend-mode:multiply" d="M106.774 104.836C108.295 103.67 109.883 102.594 111.53 101.612L129.134 110.897L133.56 116.229L121.484 111.94L105.896 109.528L106.774 104.836Z" fill="url(#paint9_linear_3_37791)"/>
<path d="M107.104 197.679L115.962 200.151C120.491 201.415 125.201 201.899 129.892 201.583L153.986 199.956" fill="#F6F6F6"/>
<path d="M107.104 197.679L115.962 200.151C120.491 201.415 125.201 201.899 129.892 201.583L153.986 199.956" stroke="#575D68" stroke-width="0.4" stroke-miterlimit="10"/>
<path d="M106.686 201.676L115.544 204.149C120.073 205.413 124.783 205.897 129.474 205.58L153.568 203.953" fill="#F6F6F6"/>
<path d="M106.686 201.676L115.544 204.149C120.073 205.413 124.783 205.897 129.474 205.58L153.568 203.953" stroke="#575D68" stroke-width="0.4" stroke-miterlimit="10"/>
<path d="M120.805 200.894L107.409 178.518" stroke="#575D68" stroke-width="0.4" stroke-miterlimit="10"/>
<path d="M118.011 189.689L121.55 200.67" stroke="#575D68" stroke-width="0.4" stroke-miterlimit="10"/>
<path d="M153.567 203.953C153.448 203.961 155.911 221.618 155.911 221.618L151.51 227.567L149.109 218.829L145.558 204.895" fill="#F6F6F6"/>
<path d="M153.567 203.953C153.448 203.961 155.911 221.618 155.911 221.618L151.51 227.567L149.109 218.829L145.558 204.895" stroke="#575D68" stroke-width="0.4" stroke-miterlimit="10"/>
<path d="M151.51 227.567L155.155 274.566L138.332 296.963C133.798 302.999 130.104 309.624 127.353 316.655L122.802 328.283" fill="#F6F6F6"/>
<path d="M151.51 227.567L155.155 274.566L138.332 296.963C133.798 302.999 130.104 309.624 127.353 316.655L122.802 328.283" stroke="#575D68" stroke-width="0.4" stroke-miterlimit="10"/>
<path d="M172.694 151.932C172.694 151.932 175.373 155.16 175.562 156.125L172.694 151.932Z" fill="#F6F6F6"/>
<path d="M172.694 151.932C172.694 151.932 175.373 155.16 175.562 156.125" stroke="#575D68" stroke-width="0.4" stroke-miterlimit="10"/>
<path d="M171.546 150.441L173.368 147.033C174.748 146.406 176.251 146.097 177.765 146.13C181.785 146.094 186.709 149.158 186.709 149.158V155.2C186.287 156.192 185.571 157.031 184.658 157.604C183.948 157.63 182.489 155.159 180.663 154.948C178.703 154.721 176.73 154.62 174.758 154.646L171.546 150.441Z" fill="#F6F6F6" stroke="#575D68" stroke-width="0.4" stroke-miterlimit="10"/>
<path style="mix-blend-mode:multiply" d="M171.546 150.441L173.368 147.033C174.748 146.406 176.251 146.097 177.765 146.13C181.785 146.094 186.709 149.158 186.709 149.158V155.2C186.287 156.192 185.571 157.031 184.658 157.604C183.948 157.63 182.489 155.159 180.663 154.948C178.703 154.721 176.73 154.62 174.758 154.646L171.546 150.441Z" fill="url(#paint10_linear_3_37791)"/>
<path d="M173.611 153.059C173.611 153.059 178.394 153.09 180.287 153.059C183.627 153.003 185.578 156.125 185.578 156.125" fill="#F6F6F6"/>
<path d="M173.611 153.059C173.611 153.059 178.394 153.09 180.287 153.059C183.627 153.003 185.578 156.125 185.578 156.125" stroke="#575D68" stroke-width="0.4" stroke-miterlimit="10"/>
<path d="M185.942 111.355C185.957 111.74 186.713 117.207 186.713 117.207L186.327 119.393" fill="#F6F6F6"/>
<path d="M185.942 111.355C185.957 111.74 186.713 117.207 186.713 117.207L186.327 119.393" stroke="#575D68" stroke-width="0.4" stroke-miterlimit="10"/>
<path d="M184.411 114.554C184.426 114.939 184.796 117.583 184.796 117.583L184.411 119.771" fill="#F6F6F6"/>
<path d="M184.411 114.554C184.426 114.939 184.796 117.583 184.796 117.583L184.411 119.771" stroke="#575D68" stroke-width="0.4" stroke-miterlimit="10"/>
<path d="M154.589 114.554L160.642 111.39" stroke="#575D68" stroke-width="0.4" stroke-miterlimit="10"/>
<path d="M153.047 112.118L155.841 110.897L159.269 109.675" fill="#F6F6F6"/>
<path d="M153.047 112.118L155.841 110.897L159.269 109.675" stroke="#575D68" stroke-width="0.4" stroke-miterlimit="10"/>
<path d="M107.557 337.27L111.939 340.372C119.377 345.635 123.582 350.173 137.394 349.068C140.923 348.889 144.431 348.415 147.881 347.651C152.173 346.188 149.342 343.186 149.342 343.186" stroke="#575D68" stroke-width="0.4" stroke-miterlimit="10"/>
<path d="M139.725 339.268C139.725 339.268 153.985 331.966 155.156 330.929C160.754 325.964 157.712 324.315 157.712 324.315" stroke="#575D68" stroke-width="0.4" stroke-miterlimit="10"/>
<path d="M134.088 330.302C137.371 328.71 140.045 326.089 141.704 322.839L134.088 330.302Z" fill="#F6F6F6"/>
<path d="M134.088 330.302C137.371 328.71 140.045 326.089 141.704 322.839" stroke="#575D68" stroke-width="0.4" stroke-miterlimit="10"/>
<path style="mix-blend-mode:multiply" d="M114.106 148.986C112.843 130.135 121.482 111.94 121.482 111.94L107.323 108.907C106.325 109.627 105.231 110.202 104.072 110.617C98.6237 112.597 91.6956 120.514 90.7059 130.412C89.7957 139.516 105.121 189.867 107.531 197.714L118.011 200.894C121.519 201.858 127.179 201.535 130.813 201.337L138.979 200.894C138.979 200.894 115.789 174.096 114.106 148.986Z" fill="url(#paint11_linear_3_37791)"/>
<path style="mix-blend-mode:multiply" d="M151.616 181.121L129.52 154.028L135.819 153.058C135.819 153.058 152.102 160.557 152.447 161.787C152.792 163.016 151.616 181.121 151.616 181.121Z" fill="url(#paint12_linear_3_37791)"/>
<path style="mix-blend-mode:multiply" d="M137.133 220.494L118.379 236.876L130.662 269.718L133.024 271.464C130.127 276.766 110.66 316.946 111.558 320.004C111.042 320.896 113.128 326.571 113.128 326.571L142.873 266.684C142.873 266.684 136.632 221.249 137.133 220.494Z" fill="url(#paint13_linear_3_37791)"/>
<path style="mix-blend-mode:multiply" d="M111.476 249.867C111.885 248.733 118.379 236.876 118.379 236.876L130.662 269.718L133.024 271.464L122.803 292.415L111.476 249.867Z" fill="url(#paint14_linear_3_37791)"/>
<path d="M267.851 9.60931L291.968 23.5719C292.736 24.015 293.374 24.6525 293.818 25.4203C294.261 26.1882 294.495 27.0593 294.495 27.946V73.1976C294.499 73.93 294.342 74.6544 294.035 75.3194C293.728 75.9843 293.278 76.5734 292.718 77.0449C291.226 78.3069 285.927 81.4723 285.927 81.4723L264.455 65.6058C263.647 65.1752 262.971 64.5331 262.5 63.7481C262.028 62.9631 261.779 62.0646 261.779 61.149L256.294 14.4713C256.294 14.4713 261.169 10.7132 262.461 9.826C263.245 9.27979 264.169 8.96919 265.124 8.9308C266.079 8.89242 267.025 9.12781 267.851 9.60931Z" fill="url(#paint15_linear_3_37791)" stroke="#333333" stroke-width="0.4" stroke-miterlimit="10"/>
<path d="M261.176 13.5079L285.7 27.6563C286.468 28.0994 287.106 28.737 287.55 29.5048C287.993 30.2726 288.227 31.1437 288.227 32.0304V77.2821C288.227 78.1539 288.001 79.0109 287.571 79.7696C287.142 80.5284 286.523 81.1629 285.776 81.6116C285.028 82.0603 284.177 82.3079 283.306 82.3302C282.434 82.3525 281.572 82.1488 280.802 81.7388L258.187 69.6902C257.379 69.2597 256.703 68.6175 256.232 67.8325C255.76 67.0475 255.511 66.149 255.511 65.2334V16.7798C255.511 16.1168 255.686 15.4656 256.017 14.8914C256.349 14.3172 256.825 13.8404 257.4 13.5088C257.974 13.1772 258.625 13.0026 259.288 13.0024C259.951 13.0023 260.602 13.1766 261.176 13.5079Z" fill="#F6F6F6" stroke="#575D68" stroke-width="0.4" stroke-miterlimit="10"/>
<path d="M262.028 15.5881L284.598 28.9348C285.311 29.3618 285.899 29.9667 286.307 30.6901C286.715 31.4135 286.927 32.2306 286.923 33.061V75.7485C286.94 76.5591 286.745 77.36 286.357 78.0719C285.969 78.7838 285.401 79.3817 284.711 79.8066C284.02 80.2315 283.231 80.4686 282.42 80.4942C281.61 80.5198 280.807 80.3331 280.091 79.9527L259.277 68.5868C258.527 68.171 257.903 67.5614 257.47 66.8218C257.037 66.0821 256.811 65.2397 256.815 64.3825V18.6745C256.802 18.0581 256.953 17.4493 257.252 16.9105C257.552 16.3717 257.989 15.9222 258.52 15.6081C259.05 15.294 259.655 15.1266 260.271 15.1231C260.888 15.1196 261.494 15.2801 262.028 15.5881Z" fill="url(#paint16_linear_3_37791)" stroke="#333333" stroke-width="0.4" stroke-miterlimit="10"/>
<path d="M289.952 36.0074L293.086 34.552" stroke="#575D68" stroke-width="0.4" stroke-miterlimit="10"/>
<path d="M289.952 39.1479L293.086 37.6925" stroke="#575D68" stroke-width="0.4" stroke-miterlimit="10"/>
<path d="M289.952 42.2882L293.086 40.8329" stroke="#575D68" stroke-width="0.4" stroke-miterlimit="10"/>
<path d="M289.952 45.4286L293.086 43.9733" stroke="#575D68" stroke-width="0.4" stroke-miterlimit="10"/>
<path d="M289.952 48.5693L293.086 47.1139" stroke="#575D68" stroke-width="0.4" stroke-miterlimit="10"/>
<path d="M289.952 51.7096L293.086 50.2543" stroke="#575D68" stroke-width="0.4" stroke-miterlimit="10"/>
<path d="M289.952 54.8501L293.086 53.3948" stroke="#575D68" stroke-width="0.4" stroke-miterlimit="10"/>
<path d="M273.494 60.46L266.771 56.6488C266.529 56.4626 266.332 56.2234 266.197 55.9496C266.062 55.6757 265.991 55.3745 265.99 55.069C265.978 54.9468 265.993 54.8235 266.033 54.7074C266.073 54.5913 266.138 54.4851 266.222 54.3961L269.124 51.9369L273.494 60.46Z" fill="#FF4F12"/>
<path d="M266.769 56.6489C266.405 56.3761 266.11 56.0207 265.909 55.6119C265.708 55.2031 265.607 54.7525 265.614 54.2971L265.513 41.5976C265.5 39.8817 265.428 38.6392 266.29 37.9083L269.527 35.1647L275.395 46.6219L266.221 54.3962C266.136 54.4852 266.072 54.5914 266.032 54.7075C265.992 54.8236 265.977 54.9469 265.989 55.0691C265.99 55.3746 266.06 55.6758 266.196 55.9497C266.331 56.2236 266.527 56.4628 266.769 56.6489Z" fill="#7700FF"/>
<defs>
<linearGradient id="paint0_linear_3_37791" x1="109.72" y1="108.02" x2="142.221" y2="50.5774" gradientUnits="userSpaceOnUse">
<stop offset="0.05308" stop-color="#B3B3B3"/>
<stop offset="0.34387" stop-color="#B4B4B4" stop-opacity="0.98776"/>
<stop offset="0.48432" stop-color="#B7B7B7" stop-opacity="0.94552"/>
<stop offset="0.59252" stop-color="#BDBDBD" stop-opacity="0.87272"/>
<stop offset="0.68421" stop-color="#C5C5C5" stop-opacity="0.76925"/>
<stop offset="0.76544" stop-color="#CFCFCF" stop-opacity="0.63489"/>
<stop offset="0.8393" stop-color="#DBDBDB" stop-opacity="0.46935"/>
<stop offset="0.9076" stop-color="#EAEAEA" stop-opacity="0.27235"/>
<stop offset="0.96978" stop-color="#FBFBFB" stop-opacity="0.05039"/>
<stop offset="0.98237" stop-color="white" stop-opacity="0"/>
</linearGradient>
<linearGradient id="paint1_linear_3_37791" x1="138.806" y1="115.391" x2="93.6454" y2="100.652" gradientUnits="userSpaceOnUse">
<stop stop-color="#EAEAEA"/>
<stop offset="0.13134" stop-color="#EAEAEA" stop-opacity="0.98494"/>
<stop offset="0.24815" stop-color="#EBEBEB" stop-opacity="0.93862"/>
<stop offset="0.35954" stop-color="#EDEDED" stop-opacity="0.86078"/>
<stop offset="0.4675" stop-color="#EFEFEF" stop-opacity="0.75135"/>
<stop offset="0.57309" stop-color="#F2F2F2" stop-opacity="0.6101"/>
<stop offset="0.67687" stop-color="#F6F6F6" stop-opacity="0.43687"/>
<stop offset="0.77741" stop-color="#FAFAFA" stop-opacity="0.23535"/>
<stop offset="0.87617" stop-color="white" stop-opacity="0.01"/>
<stop offset="0.87782" stop-color="white" stop-opacity="0"/>
</linearGradient>
<linearGradient id="paint2_linear_3_37791" x1="171.547" y1="151.867" x2="186.71" y2="151.867" gradientUnits="userSpaceOnUse">
<stop stop-color="#EAEAEA"/>
<stop offset="0.13134" stop-color="#EAEAEA" stop-opacity="0.98494"/>
<stop offset="0.24815" stop-color="#EBEBEB" stop-opacity="0.93862"/>
<stop offset="0.35954" stop-color="#EDEDED" stop-opacity="0.86078"/>
<stop offset="0.4675" stop-color="#EFEFEF" stop-opacity="0.75135"/>
<stop offset="0.57309" stop-color="#F2F2F2" stop-opacity="0.6101"/>
<stop offset="0.67687" stop-color="#F6F6F6" stop-opacity="0.43687"/>
<stop offset="0.77741" stop-color="#FAFAFA" stop-opacity="0.23535"/>
<stop offset="0.87617" stop-color="white" stop-opacity="0.01"/>
<stop offset="0.87782" stop-color="white" stop-opacity="0"/>
</linearGradient>
<linearGradient id="paint3_linear_3_37791" x1="110.717" y1="215.344" x2="119.409" y2="110.663" gradientUnits="userSpaceOnUse">
<stop stop-color="#EAEAEA"/>
<stop offset="0.13134" stop-color="#EAEAEA" stop-opacity="0.98494"/>
<stop offset="0.24815" stop-color="#EBEBEB" stop-opacity="0.93862"/>
<stop offset="0.35954" stop-color="#EDEDED" stop-opacity="0.86078"/>
<stop offset="0.4675" stop-color="#EFEFEF" stop-opacity="0.75135"/>
<stop offset="0.57309" stop-color="#F2F2F2" stop-opacity="0.6101"/>
<stop offset="0.67687" stop-color="#F6F6F6" stop-opacity="0.43687"/>
<stop offset="0.77741" stop-color="#FAFAFA" stop-opacity="0.23535"/>
<stop offset="0.87617" stop-color="white" stop-opacity="0.01"/>
<stop offset="0.87782" stop-color="white" stop-opacity="0"/>
</linearGradient>
<linearGradient id="paint4_linear_3_37791" x1="157.133" y1="175.866" x2="114.303" y2="138.453" gradientUnits="userSpaceOnUse">
<stop stop-color="#EAEAEA"/>
<stop offset="0.13134" stop-color="#EAEAEA" stop-opacity="0.98494"/>
<stop offset="0.24815" stop-color="#EBEBEB" stop-opacity="0.93862"/>
<stop offset="0.35954" stop-color="#EDEDED" stop-opacity="0.86078"/>
<stop offset="0.4675" stop-color="#EFEFEF" stop-opacity="0.75135"/>
<stop offset="0.57309" stop-color="#F2F2F2" stop-opacity="0.6101"/>
<stop offset="0.67687" stop-color="#F6F6F6" stop-opacity="0.43687"/>
<stop offset="0.77741" stop-color="#FAFAFA" stop-opacity="0.23535"/>
<stop offset="0.87617" stop-color="white" stop-opacity="0.01"/>
<stop offset="0.87782" stop-color="white" stop-opacity="0"/>
</linearGradient>
<linearGradient id="paint5_linear_3_37791" x1="105.608" y1="329.64" x2="146.045" y2="203.796" gradientUnits="userSpaceOnUse">
<stop stop-color="#EAEAEA"/>
<stop offset="0.13134" stop-color="#EAEAEA" stop-opacity="0.98494"/>
<stop offset="0.24815" stop-color="#EBEBEB" stop-opacity="0.93862"/>
<stop offset="0.35954" stop-color="#EDEDED" stop-opacity="0.86078"/>
<stop offset="0.4675" stop-color="#EFEFEF" stop-opacity="0.75135"/>
<stop offset="0.57309" stop-color="#F2F2F2" stop-opacity="0.6101"/>
<stop offset="0.67687" stop-color="#F6F6F6" stop-opacity="0.43687"/>
<stop offset="0.77741" stop-color="#FAFAFA" stop-opacity="0.23535"/>
<stop offset="0.87617" stop-color="white" stop-opacity="0.01"/>
<stop offset="0.87782" stop-color="white" stop-opacity="0"/>
</linearGradient>
<linearGradient id="paint6_linear_3_37791" x1="101.574" y1="264.901" x2="143.711" y2="264.334" gradientUnits="userSpaceOnUse">
<stop offset="0.2076" stop-color="white" stop-opacity="0"/>
<stop offset="0.3339" stop-color="#FAFAFA" stop-opacity="0.26031"/>
<stop offset="0.45988" stop-color="#F5F5F5" stop-opacity="0.48603"/>
<stop offset="0.58189" stop-color="#F1F1F1" stop-opacity="0.67051"/>
<stop offset="0.69921" stop-color="#EEEEEE" stop-opacity="0.81403"/>
<stop offset="0.81056" stop-color="#ECECEC" stop-opacity="0.91668"/>
<stop offset="0.91352" stop-color="#EAEAEA" stop-opacity="0.97865"/>
<stop offset="1" stop-color="#EAEAEA"/>
</linearGradient>
<linearGradient id="paint7_linear_3_37791" x1="172.418" y1="124.056" x2="276.344" y2="43.939" gradientUnits="userSpaceOnUse">
<stop offset="0.07994" stop-color="#F8D5C8"/>
<stop offset="0.31502" stop-color="#F8D5C8" stop-opacity="0.99051"/>
<stop offset="0.44235" stop-color="#F8D6CA" stop-opacity="0.95843"/>
<stop offset="0.54391" stop-color="#F8D8CC" stop-opacity="0.90339"/>
<stop offset="0.63188" stop-color="#F8DBD0" stop-opacity="0.82525"/>
<stop offset="0.71105" stop-color="#F7DED5" stop-opacity="0.72385"/>
<stop offset="0.78397" stop-color="#F7E2DA" stop-opacity="0.59891"/>
<stop offset="0.85207" stop-color="#F7E7E1" stop-opacity="0.45028"/>
<stop offset="0.91632" stop-color="#F7EDE9" stop-opacity="0.27786"/>
<stop offset="0.97537" stop-color="#F6F3F2" stop-opacity="0.08847"/>
<stop offset="1" stop-color="#F6F6F6" stop-opacity="0"/>
</linearGradient>
<linearGradient id="paint8_linear_3_37791" x1="109.72" y1="108.02" x2="142.22" y2="50.5774" gradientUnits="userSpaceOnUse">
<stop offset="0.05308" stop-color="#B3B3B3"/>
<stop offset="0.34387" stop-color="#B4B4B4" stop-opacity="0.98776"/>
<stop offset="0.48432" stop-color="#B7B7B7" stop-opacity="0.94552"/>
<stop offset="0.59252" stop-color="#BDBDBD" stop-opacity="0.87272"/>
<stop offset="0.68421" stop-color="#C5C5C5" stop-opacity="0.76925"/>
<stop offset="0.76544" stop-color="#CFCFCF" stop-opacity="0.63489"/>
<stop offset="0.8393" stop-color="#DBDBDB" stop-opacity="0.46935"/>
<stop offset="0.9076" stop-color="#EAEAEA" stop-opacity="0.27235"/>
<stop offset="0.96978" stop-color="#FBFBFB" stop-opacity="0.05039"/>
<stop offset="0.98237" stop-color="white" stop-opacity="0"/>
</linearGradient>
<linearGradient id="paint9_linear_3_37791" x1="138.805" y1="115.391" x2="93.6446" y2="100.652" gradientUnits="userSpaceOnUse">
<stop stop-color="#EAEAEA"/>
<stop offset="0.13134" stop-color="#EAEAEA" stop-opacity="0.98494"/>
<stop offset="0.24815" stop-color="#EBEBEB" stop-opacity="0.93862"/>
<stop offset="0.35954" stop-color="#EDEDED" stop-opacity="0.86078"/>
<stop offset="0.4675" stop-color="#EFEFEF" stop-opacity="0.75135"/>
<stop offset="0.57309" stop-color="#F2F2F2" stop-opacity="0.6101"/>
<stop offset="0.67687" stop-color="#F6F6F6" stop-opacity="0.43687"/>
<stop offset="0.77741" stop-color="#FAFAFA" stop-opacity="0.23535"/>
<stop offset="0.87617" stop-color="white" stop-opacity="0.01"/>
<stop offset="0.87782" stop-color="white" stop-opacity="0"/>
</linearGradient>
<linearGradient id="paint10_linear_3_37791" x1="171.546" y1="151.867" x2="186.709" y2="151.867" gradientUnits="userSpaceOnUse">
<stop stop-color="#EAEAEA"/>
<stop offset="0.13134" stop-color="#EAEAEA" stop-opacity="0.98494"/>
<stop offset="0.24815" stop-color="#EBEBEB" stop-opacity="0.93862"/>
<stop offset="0.35954" stop-color="#EDEDED" stop-opacity="0.86078"/>
<stop offset="0.4675" stop-color="#EFEFEF" stop-opacity="0.75135"/>
<stop offset="0.57309" stop-color="#F2F2F2" stop-opacity="0.6101"/>
<stop offset="0.67687" stop-color="#F6F6F6" stop-opacity="0.43687"/>
<stop offset="0.77741" stop-color="#FAFAFA" stop-opacity="0.23535"/>
<stop offset="0.87617" stop-color="white" stop-opacity="0.01"/>
<stop offset="0.87782" stop-color="white" stop-opacity="0"/>
</linearGradient>
<linearGradient id="paint11_linear_3_37791" x1="110.716" y1="215.344" x2="119.408" y2="110.663" gradientUnits="userSpaceOnUse">
<stop stop-color="#EAEAEA"/>
<stop offset="0.13134" stop-color="#EAEAEA" stop-opacity="0.98494"/>
<stop offset="0.24815" stop-color="#EBEBEB" stop-opacity="0.93862"/>
<stop offset="0.35954" stop-color="#EDEDED" stop-opacity="0.86078"/>
<stop offset="0.4675" stop-color="#EFEFEF" stop-opacity="0.75135"/>
<stop offset="0.57309" stop-color="#F2F2F2" stop-opacity="0.6101"/>
<stop offset="0.67687" stop-color="#F6F6F6" stop-opacity="0.43687"/>
<stop offset="0.77741" stop-color="#FAFAFA" stop-opacity="0.23535"/>
<stop offset="0.87617" stop-color="white" stop-opacity="0.01"/>
<stop offset="0.87782" stop-color="white" stop-opacity="0"/>
</linearGradient>
<linearGradient id="paint12_linear_3_37791" x1="157.132" y1="175.866" x2="114.302" y2="138.453" gradientUnits="userSpaceOnUse">
<stop stop-color="#EAEAEA"/>
<stop offset="0.13134" stop-color="#EAEAEA" stop-opacity="0.98494"/>
<stop offset="0.24815" stop-color="#EBEBEB" stop-opacity="0.93862"/>
<stop offset="0.35954" stop-color="#EDEDED" stop-opacity="0.86078"/>
<stop offset="0.4675" stop-color="#EFEFEF" stop-opacity="0.75135"/>
<stop offset="0.57309" stop-color="#F2F2F2" stop-opacity="0.6101"/>
<stop offset="0.67687" stop-color="#F6F6F6" stop-opacity="0.43687"/>
<stop offset="0.77741" stop-color="#FAFAFA" stop-opacity="0.23535"/>
<stop offset="0.87617" stop-color="white" stop-opacity="0.01"/>
<stop offset="0.87782" stop-color="white" stop-opacity="0"/>
</linearGradient>
<linearGradient id="paint13_linear_3_37791" x1="105.608" y1="329.64" x2="146.044" y2="203.796" gradientUnits="userSpaceOnUse">
<stop stop-color="#EAEAEA"/>
<stop offset="0.13134" stop-color="#EAEAEA" stop-opacity="0.98494"/>
<stop offset="0.24815" stop-color="#EBEBEB" stop-opacity="0.93862"/>
<stop offset="0.35954" stop-color="#EDEDED" stop-opacity="0.86078"/>
<stop offset="0.4675" stop-color="#EFEFEF" stop-opacity="0.75135"/>
<stop offset="0.57309" stop-color="#F2F2F2" stop-opacity="0.6101"/>
<stop offset="0.67687" stop-color="#F6F6F6" stop-opacity="0.43687"/>
<stop offset="0.77741" stop-color="#FAFAFA" stop-opacity="0.23535"/>
<stop offset="0.87617" stop-color="white" stop-opacity="0.01"/>
<stop offset="0.87782" stop-color="white" stop-opacity="0"/>
</linearGradient>
<linearGradient id="paint14_linear_3_37791" x1="101.573" y1="264.901" x2="143.71" y2="264.334" gradientUnits="userSpaceOnUse">
<stop offset="0.2076" stop-color="white" stop-opacity="0"/>
<stop offset="0.3339" stop-color="#FAFAFA" stop-opacity="0.26031"/>
<stop offset="0.45988" stop-color="#F5F5F5" stop-opacity="0.48603"/>
<stop offset="0.58189" stop-color="#F1F1F1" stop-opacity="0.67051"/>
<stop offset="0.69921" stop-color="#EEEEEE" stop-opacity="0.81403"/>
<stop offset="0.81056" stop-color="#ECECEC" stop-opacity="0.91668"/>
<stop offset="0.91352" stop-color="#EAEAEA" stop-opacity="0.97865"/>
<stop offset="1" stop-color="#EAEAEA"/>
</linearGradient>
<linearGradient id="paint15_linear_3_37791" x1="256.294" y1="45.1992" x2="294.495" y2="45.1992" gradientUnits="userSpaceOnUse">
<stop offset="0.00053" stop-color="#F6F6F6"/>
<stop offset="0.86303" stop-color="#DABAFF"/>
</linearGradient>
<linearGradient id="paint16_linear_3_37791" x1="260.685" y1="18.5893" x2="297.154" y2="116.846" gradientUnits="userSpaceOnUse">
<stop offset="0.00053" stop-color="#F6F6F6"/>
<stop offset="0.24322" stop-color="#F4F1F7"/>
<stop offset="0.51927" stop-color="#EDE4F9"/>
<stop offset="0.81057" stop-color="#E3CDFC"/>
<stop offset="1" stop-color="#DABAFF"/>
</linearGradient>
</defs>
</svg>
