<svg width="175" height="177" viewBox="0 0 175 177" fill="none" xmlns="http://www.w3.org/2000/svg">
<path d="M162.321 58.1914L82.5997 86.5319L81.0789 1.19024C43.6998 -1.37161 10.8829 22.1654 8.8819 58.1914C6.88087 94.2175 35.8557 139.93 73.3149 159.064C95.9666 170.593 137.908 163.788 137.908 163.788C137.908 163.788 145.912 158.744 149.194 156.422C163.601 146.495 173.046 132.005 174.567 109.028C175.607 91.2553 170.485 73.8027 162.321 58.1914Z" fill="#DDDEDF" stroke="#575D68" stroke-width="0.5" stroke-miterlimit="10"/>
<path d="M149.915 64.8363L70.4339 93.4971L68.9131 8.15538C30.4934 5.35335 3.11935 32.573 1.11832 68.6791C-0.882704 104.705 22.6494 146.655 60.1086 165.789C107.093 189.807 157.839 170.273 161.361 115.753C162.561 97.9803 158.159 80.4476 149.915 64.8363Z" fill="#E9EAEB" stroke="#575D68" stroke-width="0.5" stroke-miterlimit="10"/>
<path d="M68.9131 8.15546L80.9993 1.19043" stroke="#575D68" stroke-width="0.5" stroke-miterlimit="10"/>
<path d="M70.3535 93.177L82.5198 86.5322" stroke="#575D68" stroke-width="0.5" stroke-miterlimit="10"/>
<path d="M150.075 64.7561L162.321 58.1914" stroke="#575D68" stroke-width="0.5" stroke-miterlimit="10"/>
</svg>
