<svg width="340" height="364" viewBox="0 0 340 364" fill="none" xmlns="http://www.w3.org/2000/svg">
<path d="M331.927 -111.777H3.38745V343.524H331.927V-111.777Z" fill="#F6F6F6"/>
<path d="M-46 7.9373L224.06 -148L602.122 70.2946L601.886 327.675L224.097 109.508L-46 266.091" stroke="#575D68" stroke-width="0.5" stroke-miterlimit="10"/>
<path d="M224.062 109.481V-148" stroke="#575D68" stroke-width="0.5" stroke-miterlimit="10"/>
<path d="M219.969 291.595C264.509 291.595 300.616 269.705 300.616 242.701C300.616 215.697 264.509 193.807 219.969 193.807C175.428 193.807 139.321 215.697 139.321 242.701C139.321 269.705 175.428 291.595 219.969 291.595Z" fill="#F6F6F6" stroke="#575D68" stroke-width="0.5" stroke-miterlimit="10"/>
<path d="M219.985 288.947C262.983 288.947 297.839 267.815 297.839 241.747C297.839 215.679 262.983 194.546 219.985 194.546C176.988 194.546 142.131 215.679 142.131 241.747C142.131 267.815 176.988 288.947 219.985 288.947Z" fill="#F6F6F6" stroke="#575D68" stroke-width="0.5" stroke-miterlimit="10"/>
<path d="M13.5771 232.763V207.858L56.7465 232.763V257.669L13.5771 232.763Z" fill="#F6F6F6" stroke="#575D68" stroke-width="0.5" stroke-miterlimit="10"/>
<path d="M13.5771 207.858L186.116 108.236L229.286 133.142L56.7465 232.763L13.5771 207.858Z" fill="#F6F6F6" stroke="#575D68" stroke-width="0.5" stroke-miterlimit="10"/>
<path d="M56.7466 257.669L229.286 158.047V133.142L56.7466 232.763V257.669Z" fill="#F6F6F6" stroke="#575D68" stroke-width="0.5" stroke-miterlimit="10"/>
<path d="M60.1008 234.004V252.683L226.312 156.602V138.033L60.1008 234.004Z" fill="#F6F6F6" stroke="#575D68" stroke-width="0.5" stroke-miterlimit="10"/>
<path d="M60.1008 239.214L79.8021 227.778V237.776L60.1008 248.808V239.214Z" fill="#F6F6F6" stroke="#575D68" stroke-width="0.5" stroke-miterlimit="10"/>
<path d="M79.8022 237.776L80.9984 238.592L84.629 236.397V219.842L79.8022 222.629C79.6737 222.703 79.8022 237.776 79.8022 237.776Z" fill="#F6F6F6" stroke="#575D68" stroke-width="0.5" stroke-miterlimit="10"/>
<path d="M80.9978 238.592V222.128" stroke="#575D68" stroke-width="0.5" stroke-miterlimit="10"/>
<path d="M79.8029 227.778L74.4822 225.701" stroke="#575D68" stroke-width="0.5" stroke-miterlimit="10"/>
<path d="M90.4302 216.492L90.5023 231.031L93.3397 229.498V214.827L90.4302 216.492Z" fill="#F6F6F6" stroke="#575D68" stroke-width="0.5" stroke-miterlimit="10"/>
<path d="M90.5024 231.031L84.6292 227.778V219.841L90.4303 216.492L90.5024 231.031Z" fill="#F6F6F6" stroke="#575D68" stroke-width="0.5" stroke-miterlimit="10"/>
<path d="M99.9546 219.108V223.761L126.298 208.619V203.89L99.9546 219.108Z" fill="#F6F6F6" stroke="#575D68" stroke-width="0.5" stroke-miterlimit="10"/>
<path d="M99.9536 223.761L93.3396 219.841V215.476L99.9536 219.108V223.761Z" fill="#F6F6F6" stroke="#575D68" stroke-width="0.5" stroke-miterlimit="10"/>
<path d="M226.314 156.602L211.07 146.835" stroke="#575D68" stroke-width="0.5" stroke-miterlimit="10"/>
<path d="M126.298 203.89L119.36 199.789" stroke="#575D68" stroke-width="0.5" stroke-miterlimit="10"/>
<path d="M56.7507 177.153V189.489C56.7507 189.709 56.8085 189.925 56.9182 190.116C57.0278 190.307 57.1857 190.466 57.3759 190.576L82.4235 205.164C82.6524 205.298 82.9127 205.368 83.1777 205.367C83.4426 205.366 83.7026 205.295 83.931 205.161L138.168 173.31C138.479 173.126 138.737 172.865 138.916 172.552C139.096 172.239 139.19 171.884 139.19 171.523L138.885 161.252C138.638 161.489 138.362 161.694 138.064 161.861L83.1782 192.745L56.7507 177.153Z" fill="#F6F6F6" stroke="#575D68" stroke-width="0.5" stroke-miterlimit="10"/>
<path d="M113.923 146.097L138.59 160.484C138.68 160.537 138.755 160.612 138.806 160.702C138.858 160.792 138.885 160.894 138.885 160.998C138.885 161.102 138.858 161.204 138.806 161.294C138.754 161.384 138.68 161.459 138.59 161.512L84.0087 193.278C83.7568 193.424 83.4705 193.501 83.1791 193.501C82.8877 193.5 82.6016 193.423 82.3502 193.275L57.3534 178.63C57.1413 178.505 56.9656 178.328 56.844 178.114C56.7223 177.9 56.659 177.658 56.6604 177.413C56.6618 177.167 56.7279 176.926 56.8519 176.713C56.976 176.501 57.1537 176.325 57.3672 176.203L110.223 146.036C110.793 145.728 111.433 145.572 112.081 145.583C112.729 145.593 113.363 145.77 113.923 146.097V146.097Z" fill="#F6F6F6" stroke="#575D68" stroke-width="0.5" stroke-miterlimit="10"/>
<path d="M113.824 183.196C113.305 184.447 112.333 185.456 111.103 186.023C109.986 186.413 108.979 185.843 108.979 184.325C108.979 182.123 110.901 179.445 112.836 179.445C114.413 179.445 114.623 181.401 113.824 183.196Z" fill="#F6F6F6" stroke="#575D68" stroke-width="0.5" stroke-miterlimit="10"/>
<path d="M83.1797 193.761V199.162" stroke="#575D68" stroke-width="0.5" stroke-miterlimit="10"/>
<path d="M133.054 166.982V170.744L135.756 172.775V164.327L133.054 166.982Z" fill="#F6F6F6" stroke="#575D68" stroke-width="0.5" stroke-miterlimit="10"/>
<path d="M131.926 175.693L84.3059 203.499V194.728L128.717 168.89" fill="#F6F6F6"/>
<path d="M131.926 175.693L84.3059 203.499V194.728L128.717 168.89" stroke="#575D68" stroke-width="0.5" stroke-miterlimit="10"/>
<path d="M87.9473 193.809C88.2445 193.57 88.5594 193.354 88.8893 193.164C89.3745 192.882 89.7305 192.826 89.9568 192.966C90.1663 193.086 90.2913 193.383 90.2925 193.835C90.2977 194.271 90.198 194.701 90.002 195.091C89.7419 195.605 89.3387 196.033 88.8411 196.323C88.718 196.402 88.5852 196.464 88.4461 196.507L88.4514 198.542L87.9605 198.827L87.9473 193.809ZM88.4446 195.972C88.588 195.931 88.7248 195.869 88.8509 195.789C89.1419 195.627 89.3838 195.389 89.5511 195.1C89.7183 194.812 89.8049 194.484 89.8016 194.15C89.7999 193.48 89.4436 193.362 88.902 193.677C88.7373 193.768 88.5823 193.876 88.4394 193.998L88.4446 195.972Z" fill="#575D68"/>
<path d="M90.7875 197.184L90.7864 196.777L91.1744 196.046C92.1079 194.312 92.5296 193.433 92.5332 192.691C92.5318 192.194 92.3501 191.839 91.8029 192.157C91.4786 192.38 91.2121 192.677 91.0252 193.024L90.8659 192.648C91.1143 192.201 91.4708 191.822 91.903 191.548C92.693 191.089 93.0277 191.619 93.0296 192.32C93.032 193.224 92.543 194.24 91.7726 195.684L91.4802 196.216V196.231L93.1278 195.274L93.1292 195.824L90.7875 197.184Z" fill="#575D68"/>
<path d="M96.1173 191.584C96.1217 193.25 95.6615 194.437 94.849 194.909C94.1325 195.326 93.6447 194.711 93.6292 193.097C93.6248 191.455 94.1529 190.243 94.8976 189.81C95.6707 189.361 96.1132 190.025 96.1173 191.584ZM94.1258 192.817C94.1292 194.09 94.4245 194.643 94.8759 194.381C95.3838 194.086 95.6243 193.154 95.621 191.903C95.6178 190.697 95.3844 190.04 94.871 190.339C94.4363 190.591 94.1223 191.483 94.1258 192.817Z" fill="#575D68"/>
<path d="M96.6977 192.99C96.9796 193.037 97.2691 192.979 97.511 192.827C97.7613 192.68 97.9692 192.472 98.1142 192.221C98.2593 191.97 98.3364 191.685 98.338 191.395C98.3305 190.713 97.8671 190.688 97.3874 190.967L97.111 191.127L97.1097 190.63L97.3861 190.469C97.6175 190.334 97.8127 190.145 97.9549 189.918C98.097 189.691 98.1819 189.432 98.2022 189.165C98.2011 188.773 98.0139 188.535 97.557 188.8C97.2627 188.996 97.0131 189.252 96.8244 189.55L96.6933 189.144C96.9415 188.767 97.2684 188.448 97.6514 188.21C98.3736 187.79 98.7025 188.173 98.704 188.768C98.6827 189.35 98.4419 189.902 98.0299 190.314L98.0299 190.329C98.4816 190.188 98.8497 190.427 98.8515 191.112C98.838 191.569 98.7085 192.015 98.4753 192.408C98.242 192.801 97.9127 193.128 97.5182 193.358C97.2389 193.549 96.8985 193.628 96.5637 193.581L96.6977 192.99Z" fill="#575D68"/>
<path d="M208.389 134.368C208.371 134.215 208.333 134.065 208.277 133.921L208.277 133.92L208.276 133.919C208.046 133.396 207.669 132.951 207.19 132.638L193.394 122.856C192.029 121.888 190.597 120.952 189.099 120.049L187.575 119.129C184.486 117.267 178.211 114.435 175.681 113.315C175.404 113.189 175.094 113.16 174.799 113.233C174.504 113.305 174.241 113.474 174.054 113.713C173.383 114.549 172.553 115.244 171.613 115.759C170.453 116.415 169.206 116.903 167.909 117.208C167.554 117.291 167.243 117.504 167.039 117.806C166.835 118.107 166.751 118.475 166.806 118.835V118.835C166.83 118.979 166.905 119.11 167.016 119.205L167.115 119.29C170.055 121.837 173.03 124.476 176.792 126.648L178.485 127.625C180.175 128.601 184.708 130.721 186.54 131.606L200.57 138.078C202.264 138.847 204.171 139.011 205.971 138.543L206.048 138.522C206.843 138.32 207.542 137.846 208.025 137.182C208.43 136.585 208.565 135.769 208.389 134.368Z" fill="#F6F6F6" stroke="#575D68" stroke-width="0.5" stroke-miterlimit="10"/>
<path d="M188.36 122.126C188.636 119.861 185.615 117.63 181.612 117.142C177.609 116.654 174.14 118.095 173.864 120.359C173.588 122.624 176.61 124.855 180.612 125.343C184.615 125.831 188.084 124.39 188.36 122.126Z" fill="#F6F6F6" stroke="#575D68" stroke-width="0.5" stroke-miterlimit="10"/>
<path d="M186.558 121.866C186.763 120.182 184.516 118.523 181.54 118.16C178.564 117.798 175.985 118.868 175.78 120.552C175.574 122.236 177.821 123.895 180.797 124.258C183.773 124.621 186.352 123.55 186.558 121.866Z" fill="#F6F6F6" stroke="#575D68" stroke-width="0.5" stroke-miterlimit="10"/>
<path d="M175.971 118.286C177.378 117.557 178.979 117.291 180.545 117.526C180.844 117.566 181.107 117.458 181.145 117.291L181.149 117.272C181.19 117.089 180.943 116.903 180.614 116.866C178.755 116.627 176.867 116.963 175.204 117.828C173.656 118.722 173.119 119.976 173.597 121.109C173.68 121.222 173.795 121.31 173.926 121.361C174.057 121.412 174.2 121.425 174.339 121.398L174.349 121.396C174.624 121.362 174.779 121.206 174.699 121.039C174.247 120.095 174.673 119.035 175.971 118.286Z" fill="#F6F6F6" stroke="#575D68" stroke-width="0.5" stroke-miterlimit="10"/>
<path d="M186.134 124.2C184.698 124.899 183.08 125.137 181.504 124.879C181.206 124.834 180.937 124.937 180.89 125.102L180.885 125.121C180.835 125.303 181.073 125.493 181.402 125.535C183.273 125.801 185.182 125.499 186.881 124.668C188.48 123.804 189.082 122.566 188.66 121.429C188.58 121.315 188.469 121.225 188.339 121.172C188.21 121.119 188.068 121.104 187.93 121.13L187.919 121.131C187.642 121.161 187.479 121.313 187.55 121.481C187.956 122.428 187.475 123.476 186.134 124.2Z" fill="#F6F6F6" stroke="#575D68" stroke-width="0.5" stroke-miterlimit="10"/>
<path d="M182.857 121.621C182.922 121.094 182.218 120.574 181.286 120.461C180.354 120.347 179.547 120.682 179.482 121.21C179.418 121.737 180.121 122.256 181.053 122.37C181.985 122.483 182.793 122.148 182.857 121.621Z" fill="#F6F6F6" stroke="#575D68" stroke-width="0.5" stroke-miterlimit="10"/>
<path d="M168.459 117.062C169.461 117.576 171.432 117.311 172.925 116.449C174.442 115.574 174.892 114.414 173.946 113.844C173.292 114.619 172.501 115.268 171.613 115.759C170.62 116.322 169.56 116.76 168.459 117.062Z" fill="#F6F6F6" stroke="#575D68" stroke-width="0.5" stroke-miterlimit="10"/>
<path d="M188.776 128.231C188.832 127.773 188.221 127.321 187.411 127.223C186.601 127.124 185.9 127.415 185.844 127.873C185.788 128.331 186.399 128.783 187.209 128.882C188.019 128.98 188.72 128.689 188.776 128.231Z" fill="#F6F6F6" stroke="#575D68" stroke-width="0.5" stroke-miterlimit="10"/>
<path d="M191.684 127.041C191.74 126.583 191.128 126.132 190.319 126.033C189.509 125.934 188.807 126.226 188.751 126.684C188.696 127.142 189.307 127.593 190.117 127.692C190.926 127.791 191.628 127.499 191.684 127.041Z" fill="#F6F6F6" stroke="#575D68" stroke-width="0.5" stroke-miterlimit="10"/>
<path d="M193.862 125.295C193.918 124.837 193.307 124.386 192.497 124.287C191.687 124.188 190.986 124.48 190.93 124.938C190.874 125.396 191.485 125.847 192.295 125.946C193.105 126.045 193.806 125.753 193.862 125.295Z" fill="#F6F6F6" stroke="#575D68" stroke-width="0.5" stroke-miterlimit="10"/>
<path d="M194.696 126.847C194.735 126.527 194.308 126.212 193.743 126.143C193.177 126.074 192.687 126.278 192.648 126.597C192.609 126.917 193.036 127.232 193.602 127.301C194.167 127.37 194.657 127.167 194.696 126.847Z" fill="#F6F6F6" stroke="#575D68" stroke-width="0.5" stroke-miterlimit="10"/>
<path d="M193.416 128.244C193.455 127.924 193.028 127.609 192.463 127.54C191.898 127.471 191.408 127.674 191.369 127.994C191.33 128.314 191.756 128.629 192.322 128.698C192.887 128.767 193.377 128.563 193.416 128.244Z" fill="#F6F6F6" stroke="#575D68" stroke-width="0.5" stroke-miterlimit="10"/>
<path d="M190.961 129.004C191 128.684 190.574 128.369 190.008 128.3C189.443 128.231 188.953 128.434 188.914 128.754C188.875 129.074 189.302 129.389 189.867 129.458C190.433 129.527 190.922 129.323 190.961 129.004Z" fill="#F6F6F6" stroke="#575D68" stroke-width="0.5" stroke-miterlimit="10"/>
<path d="M188.778 127.987C188.834 127.529 188.222 127.078 187.413 126.979C186.603 126.88 185.901 127.172 185.845 127.63C185.79 128.088 186.401 128.539 187.211 128.638C188.02 128.737 188.722 128.445 188.778 127.987Z" fill="#F6F6F6" stroke="#575D68" stroke-width="0.5" stroke-miterlimit="10"/>
<path d="M191.684 126.797C191.74 126.339 191.128 125.888 190.319 125.789C189.509 125.69 188.807 125.982 188.751 126.44C188.696 126.898 189.307 127.349 190.117 127.448C190.926 127.547 191.628 127.255 191.684 126.797Z" fill="#F6F6F6" stroke="#575D68" stroke-width="0.5" stroke-miterlimit="10"/>
<path d="M193.862 125.051C193.918 124.593 193.307 124.142 192.497 124.043C191.687 123.945 190.986 124.236 190.93 124.694C190.874 125.152 191.485 125.604 192.295 125.702C193.105 125.801 193.806 125.51 193.862 125.051Z" fill="#F6F6F6" stroke="#575D68" stroke-width="0.5" stroke-miterlimit="10"/>
<path d="M194.696 126.603C194.735 126.283 194.308 125.968 193.743 125.899C193.177 125.83 192.687 126.034 192.648 126.354C192.609 126.673 193.036 126.989 193.602 127.057C194.167 127.126 194.657 126.923 194.696 126.603Z" fill="#F6F6F6" stroke="#575D68" stroke-width="0.5" stroke-miterlimit="10"/>
<path d="M193.416 128C193.455 127.68 193.028 127.365 192.463 127.296C191.898 127.227 191.408 127.43 191.369 127.75C191.33 128.07 191.756 128.385 192.322 128.454C192.887 128.523 193.377 128.32 193.416 128Z" fill="#F6F6F6" stroke="#575D68" stroke-width="0.5" stroke-miterlimit="10"/>
<path d="M190.961 128.76C191 128.44 190.574 128.125 190.008 128.056C189.443 127.987 188.953 128.19 188.914 128.51C188.875 128.83 189.302 129.145 189.867 129.214C190.432 129.283 190.922 129.08 190.961 128.76Z" fill="#F6F6F6" stroke="#575D68" stroke-width="0.5" stroke-miterlimit="10"/>
<path d="M182.857 121.415C182.922 120.888 182.218 120.368 181.286 120.255C180.354 120.141 179.547 120.476 179.482 121.004C179.418 121.531 180.121 122.05 181.053 122.164C181.985 122.277 182.793 121.942 182.857 121.415Z" fill="#F6F6F6" stroke="#575D68" stroke-width="0.5" stroke-miterlimit="10"/>
<path d="M200.435 136.455C202.129 137.224 204.035 137.388 205.836 136.92L205.912 136.899C206.706 136.716 207.425 136.295 207.973 135.693C208.756 134.723 208.45 133.531 207.19 132.638" fill="#F6F6F6"/>
<path d="M200.435 136.455C202.129 137.224 204.035 137.388 205.836 136.92L205.912 136.899C206.706 136.716 207.425 136.295 207.973 135.693C208.756 134.723 208.45 133.531 207.19 132.638" stroke="#575D68" stroke-width="0.5" stroke-miterlimit="10"/>
<path d="M-6.67236 14.916V171.849L-3.52905 172.75L183.565 61.9958L186.708 -94.0363L183.565 -94.9365L-6.67236 14.916Z" fill="#F6F6F6" stroke="#575D68" stroke-width="0.5" stroke-miterlimit="10"/>
<path d="M-3.53003 15.817V172.75L186.708 62.8968V-94.0362L-3.53003 15.817Z" fill="#F6F6F6" stroke="#575D68" stroke-width="0.5" stroke-miterlimit="10"/>
<path d="M0.13208 17.4476V157.057L183.813 49.5342V-88.6256L0.13208 17.4476Z" stroke="#575D68" stroke-width="0.5" stroke-miterlimit="10"/>
<path d="M103.45 106.15C102.796 107.727 101.571 108.999 100.021 109.713C98.6132 110.205 97.3435 109.486 97.3435 107.573C97.3435 104.798 99.7663 101.423 102.204 101.423C104.192 101.423 104.456 103.888 103.45 106.15Z" fill="#F6F6F6" stroke="#575D68" stroke-width="0.5" stroke-miterlimit="10"/>
<path d="M102.624 105.599C103.32 104.035 103.407 102.374 102.738 101.498C102.564 101.449 102.385 101.423 102.204 101.423C99.7662 101.423 97.3433 104.798 97.3433 107.573C97.313 108.163 97.483 108.746 97.8256 109.226C98.2773 109.35 98.7565 109.328 99.1945 109.162C100.745 108.448 101.97 107.176 102.624 105.599Z" fill="#F6F6F6" stroke="#575D68" stroke-width="0.5" stroke-miterlimit="10"/>
<g opacity="0.26">
<g opacity="0.26">
<g opacity="0.26">
<path opacity="0.26" d="M187.7 6.08807L0.00948441 121.173L-2.94312 9.55183L184.748 -105.533L187.7 6.08807Z" fill="#F6F6F6"/>
<path style="mix-blend-mode:multiply" opacity="0.26" d="M187.7 6.08807L0.00948441 121.173L-2.94312 9.55183L184.748 -105.533L187.7 6.08807Z" fill="url(#paint0_linear_134_9)"/>
<path opacity="0.26" d="M-3.91577 99.0667L115.618 25.7728C115.618 25.7728 105.697 7.86726 100.557 4.88065C95.4162 1.89404 88.6289 23.4791 82.8842 30.7673C77.1395 38.0555 67.1313 4.11311 57.3742 5.18043C47.6171 6.24775 -3.91577 99.0667 -3.91577 99.0667Z" fill="#AFAFAF"/>
<path style="mix-blend-mode:multiply" opacity="0.26" d="M-3.91577 99.0667L115.618 25.7728C115.618 25.7728 105.697 7.86726 100.557 4.88065C95.4162 1.89404 88.6289 23.4791 82.8842 30.7673C77.1395 38.0555 67.1313 4.11311 57.3742 5.18043C47.6171 6.24775 -3.91577 99.0667 -3.91577 99.0667Z" fill="url(#paint1_linear_134_9)"/>
<path opacity="0.26" d="M96.4648 24.8815C96.4648 24.8815 103.054 4.772 106.572 0.535226C110.09 -3.70155 114.381 5.44852 123.446 -0.234251C132.511 -5.91702 139.48 -16.9309 141.673 -18.4969C143.865 -20.063 187.063 -18.0352 187.063 -18.0352L89.9238 41.5267C90.336 41.274 96.4648 24.8815 96.4648 24.8815Z" fill="#AFAFAF"/>
<path style="mix-blend-mode:multiply" opacity="0.26" d="M96.4648 24.8815C96.4648 24.8815 103.054 4.772 106.572 0.535226C110.09 -3.70155 114.381 5.44852 123.446 -0.234251C132.511 -5.91702 139.48 -16.9309 141.673 -18.4969C143.865 -20.063 187.063 -18.0352 187.063 -18.0352L89.9238 41.5267C90.336 41.274 96.4648 24.8815 96.4648 24.8815Z" fill="url(#paint2_linear_134_9)"/>
<path opacity="0.26" d="M23.0618 84.4228C23.0618 84.4228 62.6495 18.5989 67.4872 11.4647C72.3249 4.33057 96.8426 12.7671 103.354 16.1337C109.866 19.5002 112.949 30.4957 131.437 0.995404C149.925 -28.5049 162.484 -39.326 172.443 -32.3399C182.401 -25.3538 187.063 -18.0352 187.063 -18.0352L23.0618 84.4228Z" fill="#AFAFAF"/>
<path opacity="0.26" d="M2.97564 180.513C3.78452 179.422 202.208 58.3514 202.208 58.3514L187.063 -18.0351L-6.39038 100.583L2.97564 180.513Z" fill="#F6F6F6"/>
<path opacity="0.26" d="M2.97564 180.513C3.78452 179.422 202.208 58.3514 202.208 58.3514L187.063 -18.0351L-6.39038 100.583L2.97564 180.513Z" fill="#AFAFAF"/>
<path opacity="0.26" d="M94.8961 38.4776C94.8961 38.4776 119.965 32.3834 121.012 53.5313C122.211 77.7485 67.998 140.643 67.998 140.643L118.01 109.978C118.01 109.978 134.96 64.5432 125.233 45.4558C118.053 31.3663 94.8961 38.4776 94.8961 38.4776Z" fill="#F6F6F6"/>
<path style="mix-blend-mode:multiply" opacity="0.26" d="M186.752 -17.8413L187.063 -18.0351C187.063 -18.0351 182.401 -25.3537 172.443 -32.3399C162.484 -39.326 149.925 -28.505 131.437 0.995406C112.949 30.4957 109.866 19.5002 103.354 16.1336C96.8425 12.767 72.3247 4.3305 67.4871 11.4647C63.2775 17.6726 32.7603 68.3118 24.9057 81.3587L-6.39038 100.583L2.97564 180.513C3.7845 179.422 202.208 58.3513 202.208 58.3513L186.752 -17.8413Z" fill="url(#paint3_linear_134_9)"/>
<path style="mix-blend-mode:multiply" opacity="0.26" d="M5.33163 142.869C5.33163 142.869 95.5221 89.8324 101.832 85.585L108.143 81.3377C106.695 76.71 103.308 74.9937 99.3766 75.1103C90.5866 75.3711 80.8445 81.4701 71.502 84.9676C63.5311 87.9516 55.534 89.1775 47.5795 95.3296C42.3882 99.3446 37.3144 105.39 32.1024 107.448C27.0016 109.462 22.6297 107.287 17.6137 108.578C12.9381 109.781 8.07639 113.88 3.38854 117.88C0.00847441 120.764 -4.08923 125.068 -4.49395 130.011C-4.55801 131.217 -4.46189 132.426 -4.20809 133.608L-2.52898 143.238C-2.35912 144.212 -2.15913 145.243 -1.56622 145.64C-0.728049 146.202 0.574328 145.309 1.58226 145.433C2.47698 145.542 3.0838 146.447 3.99697 146.493C4.91014 146.538 5.6442 143.998 5.33163 142.869Z" fill="url(#paint4_linear_134_9)"/>
<path style="mix-blend-mode:multiply" opacity="0.26" d="M36.3126 124.284C39.841 121.392 43.4544 118.45 46.9971 117.242C48.1296 116.98 49.196 116.487 50.1299 115.795C51.3022 114.805 52.2541 113.134 53.1525 111.541C56.0799 106.351 59.1823 100.834 62.7699 96.5765C66.6391 91.9848 71.4492 90.1813 75.6578 88.6344C77.1391 88.0321 78.7002 87.6486 80.2919 87.496C81.7509 87.477 83.2047 87.6709 84.6077 88.0716L91.0353 89.5848C93.6169 90.1925 96.5869 90.7772 97.5917 94.0756L38.9863 130.01C32.9273 133.725 25.0051 140.501 19.0513 142.234C13.0145 143.99 22.3412 135.052 24.4868 133.29C28.4044 130.073 32.4004 127.49 36.3126 124.284Z" fill="url(#paint5_linear_134_9)"/>
<path style="mix-blend-mode:multiply" opacity="0.26" d="M64.0677 65.9358C66.5329 62.1793 68.7622 57.8473 71.6564 55.0935C76.1184 50.8479 80.6711 51.6322 84.8942 51.879C91.1241 52.2432 97.8109 50.9596 104.614 48.0935C106.867 47.144 109.163 46.0139 111.306 45.8181C113.448 45.6223 115.47 46.5111 116.232 49.0136C99.712 65.9323 82.8795 82.8822 65.4717 93.6459C58.9753 97.6858 52.0519 100.995 44.8278 103.512C41.7362 104.581 29.8448 110.629 31.7367 103.352C33.6694 95.9171 42.9478 88.4432 47.0349 84.5542C52.8878 78.9851 59.0001 73.6581 64.0677 65.9358Z" fill="url(#paint6_linear_134_9)"/>
<path style="mix-blend-mode:multiply" opacity="0.26" d="M146.295 25.9366C147.588 24.2603 148.883 22.5871 150.18 20.9171C151.074 19.7645 152.035 18.5575 153.043 18.1193C153.883 17.7537 154.632 17.9818 155.447 17.8185C158.082 17.291 160.556 13.1269 162.961 10.0098C170.999 -0.403981 180.407 1.31367 187.58 2.52835C188.181 9.20919 183.396 13.6028 179.22 16.687C173.593 20.8582 167.74 24.7153 161.688 28.2406C158.081 30.3323 154.451 32.2645 150.893 35.0875C145.166 39.632 139.167 46.6789 133.826 46.5609C133.622 46.5868 133.415 46.5539 133.229 46.466C133.043 46.3781 132.886 46.2389 132.777 46.0648C132.211 44.9715 133.408 42.8085 134.436 41.4512C138.374 36.2504 142.327 31.0789 146.295 25.9366Z" fill="url(#paint7_linear_134_9)"/>
<path style="mix-blend-mode:multiply" opacity="0.26" d="M141.731 68.2501C144.561 65.8934 147.509 65.1781 150.476 62.5216C154.314 59.0188 157.674 55.0262 160.47 50.6466C162.355 47.7394 164.089 44.5939 166.145 41.9755C171.156 35.5917 177.174 33.3685 182.739 31.4894C183.891 31.1006 185.089 30.7114 186.033 31.1213C186.878 31.4878 187.426 32.4548 187.951 33.3984L198.476 52.3202C199.013 53.1267 199.22 54.1083 199.054 55.0628C198.695 56.8647 197.168 58.0246 195.95 58.7149C187.556 63.4725 179.162 68.4224 170.768 73.5647L127.901 99.8494C120.291 104.515 127.526 90.3028 129.307 86.8398C132.73 80.1844 136.779 72.3747 141.731 68.2501Z" fill="url(#paint8_linear_134_9)"/>
<path style="mix-blend-mode:multiply" opacity="0.26" d="M170.535 27.3997C170.331 27.2704 170.099 27.1946 169.858 27.1794C169.618 27.1642 169.378 27.2101 169.16 27.3127C168.508 27.6703 167.975 28.6429 167.445 29.4641C164.361 34.2431 160.037 35.2136 156.415 38.8156C153.793 41.4232 151.683 45.2682 149.245 48.3845C145.722 52.8882 141.655 55.7059 137.791 59.1393C133.926 62.5727 129.905 67.1905 127.942 73.0411C133.719 71.6931 139.749 66.5493 145.663 62.4316C155.991 55.2402 166.38 50.9855 176.716 44.0599C179.904 41.9241 186.725 37.6088 183.368 33.1704C180.696 29.638 174.208 29.0519 170.535 27.3997Z" fill="url(#paint9_linear_134_9)"/>
</g>
</g>
</g>
<path d="M185.4 138.22V143.796C185.4 144.191 185.296 144.578 185.098 144.919C184.9 145.259 184.616 145.542 184.274 145.738L161.08 159.233C160.645 159.482 160.151 159.611 159.649 159.606C159.148 159.601 158.657 159.462 158.227 159.204L141.401 149.223C141.074 149.028 140.804 148.751 140.617 148.42C140.43 148.089 140.331 147.715 140.331 147.335V142.119" fill="#DDDEDF"/>
<path d="M185.4 138.22V143.796C185.4 144.191 185.296 144.578 185.098 144.919C184.9 145.259 184.616 145.542 184.274 145.738L161.08 159.233C160.645 159.482 160.151 159.611 159.649 159.606C159.148 159.601 158.657 159.462 158.227 159.204L141.401 149.223C141.074 149.028 140.804 148.751 140.617 148.42C140.43 148.089 140.331 147.715 140.331 147.335V142.119" stroke="#575D68" stroke-width="0.5" stroke-miterlimit="10"/>
<path d="M141.003 143.272L158.502 153.368C158.854 153.571 159.252 153.68 159.659 153.684C160.065 153.688 160.465 153.588 160.821 153.392L184.703 139.655C184.913 139.54 185.088 139.37 185.21 139.165C185.333 138.959 185.398 138.725 185.4 138.485C185.401 138.246 185.339 138.011 185.219 137.804C185.099 137.597 184.925 137.426 184.717 137.308L166.006 127.036C165.801 126.92 165.57 126.86 165.335 126.862C165.099 126.864 164.869 126.928 164.666 127.047L140.994 140.951C140.791 141.07 140.623 141.24 140.507 141.444C140.391 141.648 140.33 141.879 140.331 142.114C140.332 142.349 140.395 142.579 140.512 142.783C140.63 142.986 140.799 143.155 141.003 143.272Z" fill="#F6F6F6" stroke="#575D68" stroke-width="0.5" stroke-miterlimit="10"/>
<path d="M156.432 142.921L165.627 143.393L166.634 137.407L161.954 137.153L161.568 139.956L156.747 139.856L156.432 142.921Z" fill="#FF4F12" stroke="#575D68" stroke-width="0.5" stroke-miterlimit="10"/>
<path d="M-6.67188 14.7241V171.656L-3.52857 172.557L183.566 61.8038L186.709 -94.2283L183.566 -95.1292L-6.67188 14.7241Z" fill="#DDDEDF" stroke="#575D68" stroke-width="0.5" stroke-miterlimit="10"/>
<path d="M-3.52954 15.6243V172.557L186.708 62.7048V-94.2282L-3.52954 15.6243Z" fill="#E9EAEB" stroke="#575D68" stroke-width="0.5" stroke-miterlimit="10"/>
<path d="M0.132568 17.2549V156.864L183.813 49.3422V-88.8183L0.132568 17.2549Z" fill="#F6F6F6" stroke="#575D68" stroke-width="0.5" stroke-miterlimit="10"/>
<path d="M103.45 105.957C102.796 107.534 101.572 108.806 100.021 109.52C98.6137 110.012 97.344 109.293 97.344 107.381C97.344 104.605 99.7668 101.23 102.205 101.23C104.193 101.23 104.456 103.696 103.45 105.957Z" fill="#DDDEDF" stroke="#575D68" stroke-width="0.5" stroke-miterlimit="10"/>
<path d="M102.624 105.407C103.32 103.842 103.407 102.182 102.738 101.306C102.565 101.256 102.385 101.231 102.205 101.23C99.7666 101.23 97.3438 104.605 97.3438 107.381C97.3135 107.971 97.4835 108.553 97.8261 109.034C98.2778 109.158 98.757 109.135 99.195 108.969C100.746 108.256 101.97 106.984 102.624 105.407V105.407Z" fill="#E9EAEB" stroke="#575D68" stroke-width="0.5" stroke-miterlimit="10"/>
<g opacity="0.26">
<g opacity="0.26">
<g opacity="0.26">
<path opacity="0.26" d="M187.701 5.89549L0.00997269 120.98L-2.94263 9.35994L184.748 -105.725L187.701 5.89549Z" fill="#F6F6F6"/>
<path style="mix-blend-mode:multiply" opacity="0.26" d="M187.701 5.89549L0.00997269 120.98L-2.94263 9.35994L184.748 -105.725L187.701 5.89549Z" fill="url(#paint10_linear_134_9)"/>
<path style="mix-blend-mode:multiply" opacity="0.26" d="M-3.91528 98.8743L115.619 25.5803C115.619 25.5803 105.697 7.67479 100.557 4.68818C95.4167 1.70156 88.6294 23.2866 82.8847 30.5748C77.1399 37.863 67.1317 3.92063 57.3746 4.98796C47.6176 6.05529 -3.91528 98.8743 -3.91528 98.8743Z" fill="url(#paint11_linear_134_9)"/>
<path style="mix-blend-mode:multiply" opacity="0.26" d="M96.4653 24.689C96.4653 24.689 103.054 4.57953 106.572 0.342751C110.09 -3.89403 114.382 5.25605 123.446 -0.42672C132.511 -6.10949 139.48 -17.1234 141.673 -18.6894C143.866 -20.2554 187.063 -18.2276 187.063 -18.2276L89.9243 41.3342C90.3365 41.0815 96.4653 24.689 96.4653 24.689Z" fill="url(#paint12_linear_134_9)"/>
<path style="mix-blend-mode:multiply" opacity="0.26" d="M23.0623 84.2305C23.0623 84.2305 62.6499 18.4065 67.4877 11.2724C72.3254 4.13823 96.8431 12.5748 103.355 15.9413C109.867 19.3078 112.95 30.3034 131.438 0.803061C149.926 -28.6973 162.485 -39.5183 172.443 -32.5322C182.402 -25.5461 187.063 -18.2275 187.063 -18.2275L23.0623 84.2305Z" fill="url(#paint13_linear_134_9)"/>
<path opacity="0.26" d="M2.97613 180.321C3.78501 179.23 202.208 58.1591 202.208 58.1591L187.063 -18.2275L-6.38989 100.391L2.97613 180.321Z" fill="#F6F6F6"/>
<path style="mix-blend-mode:multiply" opacity="0.26" d="M2.97613 180.321C3.78501 179.23 202.208 58.1591 202.208 58.1591L187.063 -18.2275L-6.38989 100.391L2.97613 180.321Z" fill="url(#paint14_linear_134_9)"/>
<path opacity="0.26" d="M94.8966 38.2852C94.8966 38.2852 119.965 32.191 121.012 53.3389C122.211 77.5561 67.9985 140.451 67.9985 140.451L118.011 109.786C118.011 109.786 134.961 64.3508 125.234 45.2635C118.053 31.1739 94.8966 38.2852 94.8966 38.2852Z" fill="#F6F6F6"/>
<path style="mix-blend-mode:multiply" opacity="0.26" d="M5.33209 142.676C5.33209 142.676 95.5226 89.6399 101.833 85.3925L108.143 81.1451C106.696 76.5175 103.308 74.8011 99.377 74.9178C90.5871 75.1785 80.8449 81.2775 71.5025 84.7751C63.5316 87.7591 55.5344 88.985 47.58 95.1371C42.3887 99.1521 37.3148 105.197 32.1029 107.255C27.0021 109.269 22.6301 107.095 17.6142 108.386C12.9385 109.589 8.07685 113.688 3.389 117.687C0.0089623 120.571 -4.08874 124.876 -4.49346 129.818C-4.55753 131.024 -4.4614 132.234 -4.2076 133.415L-2.52849 143.045C-2.35863 144.019 -2.15864 145.05 -1.56574 145.448C-0.727561 146.01 0.574815 145.117 1.58275 145.24C2.47747 145.35 3.08429 146.255 3.99746 146.3C4.91063 146.346 5.64466 143.805 5.33209 142.676Z" fill="url(#paint15_linear_134_9)"/>
<path style="mix-blend-mode:multiply" opacity="0.26" d="M36.313 124.092C39.8415 121.2 43.4549 118.258 46.9976 117.05C48.1301 116.788 49.1965 116.295 50.1304 115.603C51.3027 114.613 52.2546 112.942 53.153 111.349C56.0804 106.159 59.1828 100.642 62.7704 96.3843C66.6396 91.7926 71.4497 89.989 75.6583 88.4422C77.1396 87.8399 78.7007 87.4564 80.2924 87.3038C81.7513 87.2847 83.2052 87.4786 84.6082 87.8793L91.0358 89.3925C93.6174 90.0003 96.5874 90.585 97.5922 93.8833L38.9868 129.818C32.9277 133.533 25.0056 140.309 19.0518 142.041C13.015 143.798 22.3417 134.859 24.4872 133.097C28.4049 129.88 32.4009 127.298 36.313 124.092Z" fill="url(#paint16_linear_134_9)"/>
<path style="mix-blend-mode:multiply" opacity="0.26" d="M64.0682 65.7436C66.5334 61.987 68.7627 57.655 71.6569 54.9013C76.1189 50.6557 80.6716 51.4399 84.8947 51.6868C91.1246 52.051 97.8114 50.7673 104.614 47.9013C106.868 46.9518 109.164 45.8216 111.306 45.6258C113.449 45.4301 115.47 46.3188 116.232 48.8214C99.7124 65.74 82.88 82.69 65.4722 93.4537C58.9758 97.4936 52.0524 100.802 44.8283 103.319C41.7367 104.389 29.8453 110.437 31.7372 103.16C33.6699 95.7249 42.9483 88.251 47.0354 84.362C52.8883 78.7928 59.0006 73.4658 64.0682 65.7436Z" fill="url(#paint17_linear_134_9)"/>
<path style="mix-blend-mode:multiply" opacity="0.26" d="M146.295 25.7443C147.589 24.068 148.884 22.3948 150.18 20.7248C151.075 19.5722 152.036 18.3651 153.043 17.927C153.883 17.5614 154.632 17.7895 155.448 17.6261C158.083 17.0987 160.556 12.9345 162.962 9.81748C170.999 -0.59631 180.408 1.12133 187.58 2.33601C188.181 9.01685 183.396 13.4104 179.221 16.4946C173.594 20.6659 167.741 24.523 161.688 28.0483C158.081 30.1399 154.451 32.0721 150.894 34.8952C145.167 39.4397 139.168 46.4866 133.827 46.3686C133.623 46.3944 133.416 46.3615 133.23 46.2736C133.044 46.1857 132.887 46.0466 132.777 45.8725C132.211 44.7792 133.409 42.6161 134.436 41.2588C138.374 36.0581 142.327 30.8866 146.295 25.7443Z" fill="url(#paint18_linear_134_9)"/>
<path style="mix-blend-mode:multiply" opacity="0.26" d="M141.732 68.0578C144.561 65.7011 147.51 64.9858 150.477 62.3293C154.315 58.8265 157.675 54.8339 160.471 50.4543C162.355 47.547 164.09 44.4016 166.145 41.7832C171.156 35.3993 177.174 33.1761 182.739 31.2971C183.891 30.9082 185.089 30.519 186.034 30.9289C186.878 31.2955 187.427 32.2625 187.952 33.206L198.477 52.1278C199.013 52.9344 199.22 53.916 199.055 54.8704C198.696 56.6723 197.168 57.8322 195.95 58.5226C187.556 63.2801 179.162 68.23 170.769 73.3723L127.901 99.6571C120.292 104.323 127.527 90.1105 129.308 86.6475C132.73 79.9921 136.78 72.1823 141.732 68.0578Z" fill="url(#paint19_linear_134_9)"/>
<path style="mix-blend-mode:multiply" opacity="0.26" d="M170.535 27.2073C170.332 27.0779 170.099 27.0021 169.859 26.9869C169.619 26.9717 169.378 27.0176 169.16 27.1203C168.508 27.4778 167.975 28.4504 167.445 29.2716C164.361 34.0507 160.037 35.0211 156.416 38.6231C153.794 41.2307 151.683 45.0757 149.245 48.192C145.722 52.6957 141.656 55.5134 137.791 58.9468C133.927 62.3803 129.905 66.9981 127.943 72.8486C133.719 71.5007 139.749 66.3568 145.663 62.2391C155.991 55.0477 166.38 50.793 176.716 43.8674C179.904 41.7316 186.725 37.4163 183.368 32.978C180.696 29.4456 174.209 28.8595 170.535 27.2073Z" fill="url(#paint20_linear_134_9)"/>
</g>
</g>
</g>
<path d="M56.7529 177.153V189.489C56.7529 189.709 56.8107 189.925 56.9204 190.116C57.03 190.307 57.1879 190.465 57.3781 190.576L82.4256 205.164C82.6546 205.297 82.9149 205.367 83.1799 205.367C83.4448 205.366 83.7048 205.295 83.9332 205.161L138.171 173.309C138.482 173.126 138.739 172.865 138.919 172.552C139.098 172.239 139.192 171.884 139.192 171.523L138.887 161.252C138.641 161.489 138.365 161.693 138.066 161.86L83.1804 192.745L56.7529 177.153Z" fill="#DDDEDF" stroke="#575D68" stroke-width="0.5" stroke-miterlimit="10"/>
<path d="M131.928 175.693L84.3081 203.499V194.728L128.72 168.89" fill="#DDDEDF"/>
<path d="M131.928 175.693L84.3081 203.499V194.728L128.72 168.89" stroke="#575D68" stroke-width="0.5" stroke-miterlimit="10"/>
<path d="M114.122 145.445L138.789 159.832C138.879 159.885 138.954 159.96 139.005 160.05C139.057 160.14 139.084 160.242 139.084 160.346C139.084 160.45 139.057 160.552 139.005 160.642C138.953 160.732 138.879 160.807 138.789 160.86L84.2077 192.626C83.9558 192.772 83.6695 192.849 83.3781 192.849C83.0867 192.848 82.8006 192.771 82.5492 192.623L57.5524 177.978C57.3403 177.853 57.1646 177.676 57.0429 177.462C56.9213 177.248 56.858 177.006 56.8594 176.76C56.8608 176.515 56.9268 176.273 57.0509 176.061C57.175 175.849 57.3527 175.673 57.5662 175.551L110.422 145.384C110.992 145.076 111.632 144.92 112.28 144.931C112.928 144.941 113.562 145.118 114.122 145.445V145.445Z" fill="#E9EAEB" stroke="#575D68" stroke-width="0.5" stroke-miterlimit="10"/>
<path d="M113.824 183.196C113.306 184.447 112.334 185.456 111.103 186.023C109.987 186.413 108.979 185.843 108.979 184.325C108.979 182.123 110.902 179.445 112.836 179.445C114.414 179.445 114.623 181.401 113.824 183.196Z" fill="#FF4F12" stroke="#575D68" stroke-width="0.5" stroke-miterlimit="10"/>
<path d="M83.1782 193.761V199.162" stroke="#575D68" stroke-width="0.5" stroke-miterlimit="10"/>
<path d="M133.056 166.981V170.744L135.759 172.775V164.327L133.056 166.981Z" fill="#7700FF" stroke="#333333" stroke-width="0.5" stroke-miterlimit="10"/>
<path d="M87.9492 193.809C88.2465 193.57 88.5614 193.354 88.8913 193.164C89.3765 192.882 89.7325 192.826 89.9588 192.966C90.1682 193.086 90.2932 193.383 90.2945 193.835C90.2996 194.271 90.2 194.701 90.004 195.091C89.7438 195.605 89.3407 196.033 88.843 196.323C88.72 196.402 88.5872 196.464 88.448 196.507L88.4534 198.542L87.9625 198.827L87.9492 193.809ZM88.4466 195.972C88.59 195.931 88.7267 195.869 88.8529 195.789C89.1439 195.627 89.3857 195.389 89.553 195.1C89.7203 194.812 89.8069 194.484 89.8036 194.15C89.8018 193.48 89.4456 193.362 88.9039 193.677C88.7393 193.768 88.5843 193.876 88.4414 193.998L88.4466 195.972Z" fill="#FF4F12"/>
<path d="M90.7894 197.184L90.7883 196.777L91.1764 196.046C92.1098 194.312 92.5315 193.433 92.5351 192.691C92.5338 192.194 92.352 191.839 91.8048 192.157C91.4806 192.38 91.214 192.677 91.0272 193.024L90.8679 192.648C91.1162 192.201 91.4728 191.822 91.9049 191.548C92.6949 191.089 93.0297 191.619 93.0315 192.32C93.0339 193.224 92.5449 194.24 91.7746 195.684L91.4821 196.216V196.231L93.1297 195.274L93.1312 195.824L90.7894 197.184Z" fill="#FF4F12"/>
<path d="M96.1193 191.584C96.1237 193.25 95.6634 194.437 94.8509 194.909C94.1344 195.326 93.6467 194.711 93.6311 193.097C93.6268 191.455 94.1548 190.243 94.8996 189.81C95.6726 189.361 96.1152 190.025 96.1193 191.584ZM94.1278 192.817C94.1312 194.09 94.4264 194.643 94.8778 194.381C95.3857 194.086 95.6262 193.154 95.623 191.903C95.6198 190.697 95.3864 190.04 94.8729 190.339C94.4383 190.591 94.1243 191.483 94.1278 192.817Z" fill="#FF4F12"/>
<path d="M96.6996 192.99C96.9816 193.037 97.2711 192.979 97.513 192.827C97.7633 192.68 97.9712 192.472 98.1162 192.221C98.2612 191.97 98.3383 191.685 98.34 191.395C98.3324 190.713 97.869 190.688 97.3893 190.967L97.113 191.127L97.1117 190.63L97.388 190.469C97.6195 190.334 97.8147 190.145 97.9568 189.918C98.099 189.691 98.1839 189.432 98.2041 189.165C98.2031 188.773 98.0159 188.535 97.559 188.8C97.2647 188.996 97.015 189.252 96.8263 189.55L96.6952 189.144C96.9435 188.767 97.2703 188.448 97.6533 188.21C98.3756 187.79 98.7044 188.173 98.706 188.768C98.6847 189.35 98.4438 189.902 98.0318 190.314L98.0319 190.329C98.4836 190.188 98.8517 190.427 98.8535 191.112C98.84 191.569 98.7105 192.015 98.4772 192.408C98.244 192.801 97.9146 193.128 97.5201 193.358C97.2408 193.549 96.9004 193.628 96.5657 193.581L96.6996 192.99Z" fill="#FF4F12"/>
<path d="M-6.67188 14.9157V171.849L-3.52857 172.75L183.566 61.9955L186.709 -94.0366L183.566 -94.9369L-6.67188 14.9157Z" fill="#DDDEDF" stroke="#575D68" stroke-width="0.5" stroke-miterlimit="10"/>
<path d="M-3.52954 15.8167V172.75L186.708 62.8965V-94.0366L-3.52954 15.8167Z" fill="#E9EAEB" stroke="#575D68" stroke-width="0.5" stroke-miterlimit="10"/>
<path d="M-0.219482 17.7211V157.33L183.461 49.8076V-88.3522L-0.219482 17.7211Z" fill="#F6F6F6" stroke="#575D68" stroke-width="0.5" stroke-miterlimit="10"/>
<path d="M103.45 106.15C102.796 107.726 101.572 108.999 100.021 109.712C98.6137 110.204 97.344 109.486 97.344 107.573C97.344 104.798 99.7668 101.423 102.205 101.423C104.193 101.423 104.456 103.888 103.45 106.15Z" fill="#DDDEDF" stroke="#575D68" stroke-width="0.5" stroke-miterlimit="10"/>
<path d="M102.624 105.599C103.32 104.034 103.407 102.374 102.738 101.498C102.565 101.448 102.385 101.423 102.205 101.422C99.7666 101.422 97.3438 104.797 97.3438 107.573C97.3135 108.163 97.4835 108.745 97.8261 109.226C98.2778 109.35 98.757 109.327 99.195 109.161C100.746 108.448 101.97 107.176 102.624 105.599Z" fill="#E9EAEB" stroke="#575D68" stroke-width="0.5" stroke-miterlimit="10"/>
<path d="M185.4 138.253V143.83C185.4 144.224 185.295 144.611 185.098 144.952C184.9 145.293 184.616 145.576 184.274 145.771L161.08 159.267C160.644 159.516 160.151 159.645 159.649 159.64C159.148 159.634 158.657 159.496 158.227 159.238L141.4 149.257C141.074 149.061 140.804 148.785 140.617 148.454C140.429 148.123 140.331 147.749 140.331 147.368V142.153" fill="#F6F6F6"/>
<path d="M185.4 138.253V143.83C185.4 144.224 185.295 144.611 185.098 144.952C184.9 145.293 184.616 145.576 184.274 145.771L161.08 159.267C160.644 159.516 160.151 159.645 159.649 159.64C159.148 159.634 158.657 159.496 158.227 159.238L141.4 149.257C141.074 149.061 140.804 148.785 140.617 148.454C140.429 148.123 140.331 147.749 140.331 147.368V142.153" stroke="#575D68" stroke-width="0.5" stroke-miterlimit="10"/>
<path d="M141.003 143.306L158.502 153.401C158.854 153.604 159.252 153.713 159.658 153.718C160.065 153.722 160.465 153.621 160.821 153.426L184.703 139.688C184.913 139.573 185.088 139.404 185.21 139.198C185.333 138.993 185.398 138.758 185.399 138.519C185.401 138.28 185.338 138.044 185.218 137.837C185.098 137.63 184.925 137.459 184.717 137.342L166.006 127.069C165.801 126.954 165.57 126.894 165.334 126.896C165.099 126.898 164.869 126.962 164.666 127.081L140.994 140.984C140.791 141.103 140.623 141.273 140.507 141.477C140.391 141.682 140.33 141.913 140.331 142.148C140.332 142.382 140.394 142.613 140.512 142.816C140.63 143.019 140.799 143.188 141.003 143.306V143.306Z" fill="#F6F6F6" stroke="#575D68" stroke-width="0.5" stroke-miterlimit="10"/>
<path d="M156.432 142.955L165.627 143.427L166.634 137.441L161.954 137.187L161.568 139.99L156.746 139.89L156.432 142.955Z" fill="#F6F6F6" stroke="#575D68" stroke-width="0.5" stroke-miterlimit="10"/>
<mask id="mask0_134_9" style="mask-type:alpha" maskUnits="userSpaceOnUse" x="-1" y="-89" width="185" height="247">
<path d="M-0.222656 17.7214V157.331L183.458 49.808V-88.3518L-0.222656 17.7214Z" fill="#F6F6F6" stroke="#575D68" stroke-width="0.5" stroke-miterlimit="10"/>
</mask>
<g mask="url(#mask0_134_9)">
<path d="M-0.222656 17.7214V157.331L183.458 49.808V-88.3518L-0.222656 17.7214Z" fill="#F6F6F6" stroke="#575D68" stroke-width="0.5" stroke-miterlimit="10"/>
<g style="mix-blend-mode:multiply">
<g opacity="0.2">
<g style="mix-blend-mode:multiply">
<path d="M186.312 4.00746L-1.37919 119.092L-4.33179 7.47121L183.359 -107.614L186.312 4.00746Z" fill="#F6F6F6"/>
</g>
<path style="mix-blend-mode:multiply" d="M186.312 4.00746L-1.37919 119.092L-4.33179 7.47121L183.359 -107.614L186.312 4.00746Z" fill="url(#paint21_linear_134_9)"/>
<path style="mix-blend-mode:multiply" d="M-5.30469 96.9861L114.229 23.6922C114.229 23.6922 104.308 5.78663 99.1676 2.80002C94.0273 -0.186584 87.24 21.3985 81.4953 28.6867C75.7505 35.9748 65.7423 2.03248 55.9852 3.0998C46.2281 4.16712 -5.30469 96.9861 -5.30469 96.9861Z" fill="url(#paint22_linear_134_9)"/>
<path style="mix-blend-mode:multiply" d="M95.0761 22.8009C95.0761 22.8009 101.665 2.69138 105.183 -1.5454C108.701 -5.78218 112.992 3.36789 122.057 -2.31488C131.122 -7.99765 138.091 -19.0115 140.284 -20.5776C142.476 -22.1436 185.674 -20.1158 185.674 -20.1158L88.5352 39.4461C88.9473 39.1933 95.0761 22.8009 95.0761 22.8009Z" fill="url(#paint23_linear_134_9)"/>
<g style="mix-blend-mode:multiply">
<path d="M1.58697 178.432C2.39585 177.341 200.819 56.2708 200.819 56.2708L185.674 -20.1158L-7.77905 98.5025L1.58697 178.432Z" fill="#F6F6F6"/>
</g>
<path style="mix-blend-mode:multiply" fill-rule="evenodd" clip-rule="evenodd" d="M185.673 -20.1158L200.818 56.2708C200.818 56.2708 2.39512 177.341 1.58624 178.433L-7.77979 98.5025L23.4833 79.3332C31.2924 66.3618 61.8831 15.5996 66.0978 9.38416C70.9356 2.25001 95.4533 10.6866 101.965 14.0531C103.033 14.6052 104.009 15.3625 104.975 16.1128C109.902 19.937 114.592 23.577 130.048 -1.08516C148.536 -30.5855 161.095 -41.4065 171.053 -34.4204C181.012 -27.4343 185.673 -20.1158 185.673 -20.1158Z" fill="url(#paint24_linear_134_9)"/>
<g style="mix-blend-mode:multiply">
<path d="M93.5074 36.397C93.5074 36.397 118.576 30.3027 119.623 51.4506C120.822 75.6678 66.6094 138.563 66.6094 138.563L116.621 107.897C116.621 107.897 133.572 62.4625 123.844 43.3752C116.664 29.2857 93.5074 36.397 93.5074 36.397Z" fill="#F6F6F6"/>
</g>
<path style="mix-blend-mode:multiply" d="M3.94272 140.788C3.94272 140.788 94.1332 87.7518 100.444 83.5044L106.754 79.257C105.306 74.6293 101.919 72.913 97.9877 73.0296C89.1977 73.2904 79.4555 79.3894 70.1131 82.8869C62.1422 85.871 54.1451 87.0968 46.1906 93.2489C40.9993 97.2639 35.9254 103.309 30.7135 105.367C25.6127 107.381 21.2408 105.206 16.2248 106.497C11.5492 107.701 6.68747 111.799 1.99963 115.799C-1.38044 118.683 -5.47814 122.988 -5.88286 127.93C-5.94693 129.136 -5.85081 130.346 -5.597 131.527L-3.9179 141.157C-3.74803 142.131 -3.54804 143.162 -2.95514 143.56C-2.11697 144.121 -0.814588 143.229 0.193342 143.352C1.08806 143.461 1.69488 144.367 2.60805 144.412C3.52123 144.458 4.25529 141.917 3.94272 140.788Z" fill="url(#paint25_linear_134_9)"/>
<path style="mix-blend-mode:multiply" d="M34.9239 122.203C38.4523 119.312 42.0658 116.37 45.6084 115.161C46.7409 114.899 47.8073 114.407 48.7413 113.714C49.9135 112.725 50.8655 111.054 51.7638 109.461C54.6912 104.271 57.7936 98.7535 61.3813 94.4959C65.2504 89.9042 70.0605 88.1007 74.2691 86.5538C75.7504 85.9515 77.3115 85.568 78.9033 85.4154C80.3622 85.3963 81.8161 85.5902 83.219 85.9909L89.6466 87.5041C92.2283 88.1119 95.1983 88.6966 96.2031 91.995L37.5976 127.93C31.5386 131.645 23.6165 138.42 17.6626 140.153C11.6259 141.91 20.9525 132.971 23.0981 131.209C27.0157 127.992 31.0118 125.409 34.9239 122.203Z" fill="url(#paint26_linear_134_9)"/>
<path style="mix-blend-mode:multiply" d="M62.679 63.8552C65.1442 60.0986 67.3736 55.7666 70.2677 53.0129C74.7298 48.7673 79.2824 49.5516 83.5055 49.7984C89.7355 50.1626 96.4223 48.8789 103.225 46.0129C105.478 45.0634 107.774 43.9333 109.917 43.7375C112.06 43.5417 114.081 44.4304 114.843 46.933C98.3233 63.8517 81.4908 80.8016 64.083 91.5653C57.5867 95.6052 50.6632 98.9139 43.4391 101.431C40.3475 102.501 28.4561 108.549 30.348 101.271C32.2808 93.8365 41.5591 86.3626 45.6462 82.4736C51.4991 76.9044 57.6114 71.5774 62.679 63.8552Z" fill="url(#paint27_linear_134_9)"/>
<path style="mix-blend-mode:multiply" d="M144.906 23.856C146.199 22.1797 147.494 20.5065 148.791 18.8365C149.686 17.6839 150.647 16.4769 151.654 16.0387C152.494 15.6731 153.243 15.9012 154.059 15.7379C156.693 15.2104 159.167 11.0463 161.573 7.9292C169.61 -2.48459 179.018 -0.766944 186.191 0.447743C186.792 7.12858 182.007 11.5221 177.831 14.6063C172.205 18.7776 166.351 22.6347 160.299 26.16C156.692 28.2517 153.062 30.1838 149.504 33.0069C143.777 37.5514 137.778 44.5983 132.437 44.4803C132.233 44.5062 132.026 44.4732 131.84 44.3854C131.654 44.2975 131.497 44.1583 131.388 43.9842C130.822 42.8909 132.019 40.7279 133.047 39.3706C136.985 34.1698 140.938 28.9983 144.906 23.856Z" fill="url(#paint28_linear_134_9)"/>
<path style="mix-blend-mode:multiply" d="M140.343 66.1695C143.172 63.8128 146.121 63.0975 149.088 60.441C152.925 56.9382 156.286 52.9456 159.082 48.566C160.966 45.6588 162.701 42.5133 164.756 39.8949C169.767 33.5111 175.785 31.2879 181.35 29.4088C182.502 29.0199 183.7 28.6307 184.645 29.0407C185.489 29.4072 186.038 30.3742 186.562 31.3178L197.088 50.2396C197.624 51.0461 197.831 52.0277 197.665 52.9822C197.306 54.784 195.779 55.944 194.561 56.6343C186.167 61.3918 177.773 66.3417 169.379 71.484L126.512 97.7688C118.903 102.434 126.138 88.2222 127.918 84.7592C131.341 78.1038 135.39 70.2941 140.343 66.1695Z" fill="url(#paint29_linear_134_9)"/>
<path style="mix-blend-mode:multiply" d="M169.146 25.319C168.943 25.1897 168.71 25.1139 168.47 25.0987C168.229 25.0835 167.989 25.1293 167.771 25.232C167.119 25.5896 166.586 26.5621 166.056 27.3834C162.972 32.1624 158.648 33.1328 155.027 36.7348C152.405 39.3425 150.294 43.1874 147.856 46.3037C144.333 50.8075 140.267 53.6251 136.402 57.0586C132.537 60.492 128.516 65.1098 126.553 70.9604C132.33 69.6124 138.36 64.4686 144.274 60.3508C154.602 53.1595 164.991 48.9047 175.327 41.9792C178.515 39.8433 185.336 35.5281 181.979 31.0897C179.307 27.5573 172.82 26.9712 169.146 25.319Z" fill="url(#paint30_linear_134_9)"/>
</g>
</g>
</g>
<path d="M262.47 173.493C262.47 173.493 262.222 175.556 261.81 176.546C261.397 177.537 260.49 178.939 260.49 179.682C260.49 180.425 261.48 181.167 261.48 181.167H262.883" fill="#F6F6F6"/>
<path d="M262.47 173.493C262.47 173.493 262.222 175.556 261.81 176.546C261.397 177.537 260.49 178.939 260.49 179.682C260.49 180.425 261.48 181.167 261.48 181.167H262.883" stroke="#575D68" stroke-width="0.5" stroke-miterlimit="10"/>
<path d="M143.149 322.931L139.518 348.099C139.436 348.924 139.848 349.666 140.591 349.996C141.086 350.244 141.664 350.244 142.159 350.079L142.241 349.996C142.901 349.749 143.314 349.171 143.396 348.511L147.852 323.013L145.377 321.693L143.149 322.931Z" fill="#F6F6F6" stroke="#575D68" stroke-width="0.5" stroke-miterlimit="10"/>
<path d="M171.453 336.133L168.317 361.301C168.235 362.126 168.647 362.869 169.39 363.199C169.885 363.446 170.462 363.446 170.958 363.199L171.04 363.116C171.7 362.869 172.113 362.291 172.195 361.631L176.156 336.051L173.681 334.813L171.453 336.133Z" fill="#F6F6F6" stroke="#575D68" stroke-width="0.5" stroke-miterlimit="10"/>
<path d="M338.962 190.492L342.593 215.659C342.676 216.484 342.263 217.227 341.521 217.557C341.025 217.805 340.448 217.805 339.953 217.64L339.87 217.557C339.21 217.309 338.797 216.732 338.715 216.072L334.259 190.574L336.735 189.254L338.962 190.492Z" fill="#F6F6F6" stroke="#575D68" stroke-width="0.5" stroke-miterlimit="10"/>
<path d="M142.49 314.019V322.353C142.49 323.756 143.232 325.076 144.47 325.819L170.71 340.755C172.361 341.745 174.506 341.745 176.156 340.755L375.352 224.819C377.002 223.828 377.992 222.095 377.992 220.198V213.844L142.49 314.019Z" fill="#F6F6F6" stroke="#575D68" stroke-width="0.5" stroke-miterlimit="10"/>
<path d="M346.555 174.153C346.555 174.153 342.676 171.842 340.366 172.09C336.405 172.585 334.342 176.381 334.342 181.909C334.342 186.035 336.157 189.584 338.798 191.069L369.742 209.14L372.465 188.676L346.555 174.153Z" fill="#F6F6F6" stroke="#575D68" stroke-width="0.5" stroke-miterlimit="10"/>
<path d="M142.656 300.899C142.656 300.899 334.507 189.254 335.91 189.336C337.313 189.419 377.911 213.844 377.911 213.844L181.851 327.139L142.656 300.899Z" fill="#F6F6F6" stroke="#575D68" stroke-width="0.5" stroke-miterlimit="10"/>
<path d="M209.576 243.137C210.566 243.632 220.551 247.511 220.551 247.511L250.009 236.371L262.469 224.076" fill="#DDDEDF"/>
<path d="M209.576 243.137C210.566 243.632 220.551 247.511 220.551 247.511L250.009 236.371L262.469 224.076" stroke="#575D68" stroke-width="0.5" stroke-miterlimit="10"/>
<path d="M303.316 212.028L296.384 227.046L276.498 265.004L242.336 278.784L216.591 263.271L212.217 260.548L201.655 266.654C201.16 262.859 199.757 254.029 199.51 247.428C199.427 244.375 198.684 240.497 199.922 237.691C200.747 235.711 202.233 233.978 203.966 232.575C204.708 231.997 207.101 232.245 207.926 231.832C210.402 230.429 211.557 228.862 214.115 228.779C215.6 228.779 217.086 228.862 218.488 229.109C220.881 229.439 223.357 230.512 225.75 230.76C228.225 231.007 233.094 232.245 233.094 232.245C234.167 228.202 252.485 208.15 252.485 208.15C254.301 206.417 256.446 204.932 258.757 203.859L274.847 196.598C274.847 196.598 273.857 195.195 272.042 194.782C269.566 194.287 266.018 194.7 265.606 193.627C264.615 191.234 285.327 189.666 285.327 189.666L286.07 190.739C287.638 193.214 289.37 194.37 292.836 193.792C295.559 193.379 298.365 193.627 300.923 194.535L310 197.67" fill="#F6F6F6"/>
<path d="M303.316 212.028L296.384 227.046L276.498 265.004L242.336 278.784L216.591 263.271L212.217 260.548L201.655 266.654C201.16 262.859 199.757 254.029 199.51 247.428C199.427 244.375 198.684 240.497 199.922 237.691C200.747 235.711 202.233 233.978 203.966 232.575C204.708 231.997 207.101 232.245 207.926 231.832C210.402 230.429 211.557 228.862 214.115 228.779C215.6 228.779 217.086 228.862 218.488 229.109C220.881 229.439 223.357 230.512 225.75 230.76C228.225 231.007 233.094 232.245 233.094 232.245C234.167 228.202 252.485 208.15 252.485 208.15C254.301 206.417 256.446 204.932 258.757 203.859L274.847 196.598C274.847 196.598 273.857 195.195 272.042 194.782C269.566 194.287 266.018 194.7 265.606 193.627C264.615 191.234 285.327 189.666 285.327 189.666L286.07 190.739C287.638 193.214 289.37 194.37 292.836 193.792C295.559 193.379 298.365 193.627 300.923 194.535L310 197.67" stroke="#575D68" stroke-width="0.5" stroke-miterlimit="10"/>
<path d="M303.316 212.028L296.384 227.046L276.498 265.004L242.336 278.784L216.591 263.271L212.217 260.548L201.655 266.654C201.16 262.859 199.757 254.029 199.51 247.428C199.427 244.375 198.684 240.497 199.922 237.691C200.747 235.711 202.233 233.978 203.966 232.575C204.708 231.997 207.101 232.245 207.926 231.832C210.402 230.429 211.557 228.862 214.115 228.779C215.6 228.779 217.086 228.862 218.488 229.109C220.881 229.439 223.357 230.512 225.75 230.76C228.225 231.007 233.094 232.245 233.094 232.245C234.167 228.202 252.485 208.15 252.485 208.15C254.301 206.417 256.446 204.932 258.757 203.859L274.847 196.598C274.847 196.598 273.857 195.195 272.042 194.782C269.566 194.287 266.018 194.7 265.606 193.627C264.615 191.234 285.327 189.666 285.327 189.666L286.07 190.739C287.638 193.214 289.37 194.37 292.836 193.792C295.559 193.379 298.365 193.627 300.923 194.535L310 197.67" fill="url(#paint31_linear_134_9)"/>
<g style="mix-blend-mode:multiply">
<path d="M303.316 212.028L296.384 227.046L276.498 265.004L242.336 278.784L216.591 263.271L212.217 260.548L201.655 266.654C201.16 262.859 199.757 254.029 199.51 247.428C199.427 244.375 198.684 240.497 199.922 237.691C200.747 235.711 202.233 233.978 203.966 232.575C204.708 231.997 207.101 232.245 207.926 231.832C210.402 230.429 211.557 228.862 214.115 228.779C215.6 228.779 217.086 228.862 218.488 229.109C220.881 229.439 223.357 230.512 225.75 230.76C228.225 231.007 233.094 232.245 233.094 232.245C234.167 228.202 252.485 208.15 252.485 208.15C254.301 206.417 256.446 204.932 258.757 203.859L274.847 196.598C274.847 196.598 273.857 195.195 272.042 194.782C269.566 194.287 266.018 194.7 265.606 193.627C264.615 191.234 285.327 189.666 285.327 189.666L286.07 190.739C287.638 193.214 289.37 194.37 292.836 193.792C295.559 193.379 298.365 193.627 300.923 194.535L310 197.67" fill="url(#paint32_linear_134_9)"/>
</g>
<path d="M204.295 265.087C204.295 265.087 201.242 245.86 201.737 242.972C202.232 240.084 202.727 237.939 205.78 236.701C210.071 234.968 234.826 251.306 234.826 251.306L233.093 252.297C233.093 252.297 228.637 249.821 225.172 247.593C221.706 245.365 211.226 240.002 209.989 239.672C208.256 239.177 206.853 238.021 205.203 239.342C204.377 240.002 203.552 242.972 204.047 246.438C204.542 249.904 204.707 252.544 205.203 255.432C205.45 256.835 206.605 263.849 206.605 263.849L205.203 264.674" fill="#F6F6F6"/>
<path d="M204.295 265.087C204.295 265.087 201.242 245.86 201.737 242.972C202.232 240.084 202.727 237.939 205.78 236.701C210.071 234.968 234.826 251.306 234.826 251.306L233.093 252.297C233.093 252.297 228.637 249.821 225.172 247.593C221.706 245.365 211.226 240.002 209.989 239.672C208.256 239.177 206.853 238.021 205.203 239.342C204.377 240.002 203.552 242.972 204.047 246.438C204.542 249.904 204.707 252.544 205.203 255.432C205.45 256.835 206.605 263.849 206.605 263.849L205.203 264.674" stroke="#575D68" stroke-width="0.5" stroke-miterlimit="10"/>
<path d="M262.469 224.158L261.644 225.479C257.6 231.75 251.989 236.866 245.305 240.249C242.17 241.817 239.694 242.972 239.694 242.972C234.001 245.118 214.857 237.031 214.279 236.783C214.279 236.783 214.444 235.216 216.672 233.318C218.9 231.42 222.118 230.017 222.118 230.017" stroke="#575D68" stroke-width="0.5" stroke-miterlimit="10"/>
<path d="M173.516 332.008L377.992 213.844L383.603 172.503C384.016 169.367 380.633 167.057 377.91 168.707L186.966 278.702C182.593 281.177 179.704 285.551 179.044 290.502L173.516 332.008Z" fill="#F6F6F6" stroke="#575D68" stroke-width="0.5" stroke-miterlimit="10"/>
<path d="M383.606 173.493L192.662 283.488C188.288 285.964 185.4 290.337 184.74 295.288L182.677 310.884" fill="#F6F6F6"/>
<path d="M383.606 173.493L192.662 283.488C188.288 285.964 185.4 290.337 184.74 295.288L182.677 310.884" stroke="#575D68" stroke-width="0.5" stroke-miterlimit="10"/>
<path d="M150.329 297.021C150.329 297.021 146.45 294.71 144.14 294.958C140.179 295.453 138.116 299.249 138.116 304.777C138.116 308.903 139.931 312.451 142.572 313.937L173.516 331.925L176.239 311.461L150.329 297.021Z" fill="#F6F6F6" stroke="#575D68" stroke-width="0.5" stroke-miterlimit="10"/>
<path d="M284.666 191.152C285.987 188.181 289.287 179.847 289.205 173.658C289.122 167.469 283.016 163.096 280.128 161.363C279.138 160.785 278.065 160.455 276.91 160.373C273.527 160.208 262.469 165.324 262.469 165.324C262.469 165.324 261.644 169.532 261.809 171.1C262.057 173.411 262.964 175.473 262.469 177.371C260.241 185.953 264.532 191.069 265.522 193.462C265.687 193.957 266.76 194.122 268.081 194.205C271.134 194.122 274.187 193.792 277.157 193.05" fill="#F6F6F6"/>
<path d="M284.666 191.152C285.987 188.181 289.287 179.847 289.205 173.658C289.122 167.469 283.016 163.096 280.128 161.363C279.138 160.785 278.065 160.455 276.91 160.373C273.527 160.208 262.469 165.324 262.469 165.324C262.469 165.324 261.644 169.532 261.809 171.1C262.057 173.411 262.964 175.473 262.469 177.371C260.241 185.953 264.532 191.069 265.522 193.462C265.687 193.957 266.76 194.122 268.081 194.205C271.134 194.122 274.187 193.792 277.157 193.05" stroke="#575D68" stroke-width="0.5" stroke-miterlimit="10"/>
<path d="M283.842 163.756C283.594 163.591 263.378 166.727 263.46 167.717C263.625 168.955 266.101 170.77 267.008 171.595C270.887 175.143 268.659 180.589 267.338 182.322C267.338 182.322 265.111 185.375 263.955 185.128C263.048 184.88 262.222 184.385 261.975 184.138C262.552 187.521 262.883 189.171 263.213 192.967C263.213 193.38 266.348 194.287 266.761 194.122C268.246 193.545 269.071 185.21 271.299 181.827C276.085 174.483 276.745 182.322 276.003 186.448C275.59 188.676 276.415 190.326 278.808 190.739C279.798 190.904 280.871 190.822 281.861 190.739C282.439 190.657 283.099 190.574 283.594 190.326C284.419 189.914 285.08 189.089 285.575 188.346C286.235 187.356 286.565 186.448 286.977 185.375C288.215 181.662 289.205 177.701 289.123 173.741C289.205 169.45 286.4 166.067 283.842 163.756Z" fill="#DDDEDF" stroke="#575D68" stroke-width="0.5" stroke-miterlimit="10"/>
<g style="mix-blend-mode:multiply">
<path d="M283.84 163.756C283.593 163.591 263.376 166.727 263.459 167.717C263.624 168.955 266.099 170.77 267.007 171.595C267.502 172.008 267.832 172.503 268.162 172.915C268.245 172.915 268.41 172.998 268.492 172.998C271.133 173.906 273.938 174.071 276.579 174.978C278.064 175.391 279.467 176.134 280.292 177.454C280.705 178.114 280.87 178.939 280.952 179.764C281.035 180.92 280.87 182.157 280.54 183.23C280.127 184.385 279.55 185.458 279.137 186.613C278.724 187.768 278.642 189.089 279.22 190.161C279.385 190.409 279.467 190.574 279.715 190.822C280.457 190.822 281.2 190.822 282.025 190.739C282.603 190.657 283.263 190.574 283.758 190.326C284.583 189.914 285.243 189.089 285.738 188.346C286.398 187.356 286.729 186.448 287.141 185.375C288.379 181.662 289.369 177.701 289.287 173.741C289.204 169.45 286.398 166.067 283.84 163.756Z" fill="url(#paint33_linear_134_9)"/>
</g>
<path d="M261.067 164.499C261.974 167.057 264.285 168.294 266.513 169.45C272.206 172.42 278.395 173.658 281.778 172.75C283.924 172.173 286.234 171.43 287.224 170.77C292.175 167.057 287.967 161.776 284.171 160.373C280.541 159.053 274.434 158.475 270.639 158.475C267.338 158.475 265.11 159.63 260.819 158.475C260.572 159.135 260.242 162.188 261.067 164.499Z" fill="#DDDEDF" stroke="#575D68" stroke-width="0.5" stroke-miterlimit="10"/>
<g style="mix-blend-mode:multiply">
<path d="M287.388 165.407C286.48 166.149 284.087 166.809 281.942 167.387C278.559 168.295 272.37 167.057 266.676 164.086C264.448 162.931 262.138 161.776 261.23 159.135C261.148 158.888 261.065 158.64 260.983 158.393C260.9 158.393 260.818 158.31 260.653 158.31C260.488 159.053 260.157 162.106 260.983 164.416C261.89 166.974 264.201 168.212 266.429 169.367C272.122 172.338 278.311 173.576 281.694 172.668C283.84 172.09 286.15 171.348 287.14 170.688C289.864 168.625 289.863 166.149 288.626 164.086C288.378 164.581 287.883 164.994 287.388 165.407Z" fill="url(#paint34_linear_134_9)"/>
</g>
<path d="M271.299 181.827C271.299 181.827 270.969 180.177 271.629 179.022C272.372 177.701 274.682 176.959 275.095 180.012C275.425 182.487 274.27 184.88 273.032 185.623C271.794 186.366 270.721 184.88 270.721 184.88" fill="#F6F6F6"/>
<path d="M271.299 181.827C271.299 181.827 270.969 180.177 271.629 179.022C272.372 177.701 274.682 176.959 275.095 180.012C275.425 182.487 274.27 184.88 273.032 185.623C271.794 186.366 270.721 184.88 270.721 184.88" stroke="#575D68" stroke-width="0.5" stroke-miterlimit="10"/>
<path d="M274.763 196.515C274.763 196.515 280.126 198.578 284.417 197.423C288.708 196.268 288.791 193.792 288.791 193.792" fill="#F6F6F6"/>
<path d="M274.763 196.515C274.763 196.515 280.126 198.578 284.417 197.423C288.708 196.268 288.791 193.792 288.791 193.792" stroke="#575D68" stroke-width="0.5" stroke-miterlimit="10"/>
<path d="M273.526 198.661C273.526 198.661 279.88 201.466 284.996 199.898C290.112 198.331 290.194 194.865 290.194 194.865" stroke="#575D68" stroke-width="0.5" stroke-miterlimit="10"/>
<path d="M258.755 203.777C258.755 203.777 263.541 204.767 266.429 209.14C269.317 213.514 268.245 220.197 268.245 220.197" fill="#F6F6F6"/>
<path d="M258.755 203.777C258.755 203.777 263.541 204.767 266.429 209.14C269.317 213.514 268.245 220.197 268.245 220.197" stroke="#575D68" stroke-width="0.5" stroke-miterlimit="10"/>
<path d="M303.231 195.36L317.837 196.433L332.607 189.584H341.849L324.108 205.345C324.108 205.345 303.891 211.946 303.231 211.946" fill="#F6F6F6"/>
<path d="M303.231 195.36L317.837 196.433L332.607 189.584H341.849L324.108 205.345C324.108 205.345 303.891 211.946 303.231 211.946" stroke="#575D68" stroke-width="0.5" stroke-miterlimit="10"/>
<path d="M303.231 195.36L317.837 196.433L332.607 189.584H341.849L324.108 205.345C324.108 205.345 303.891 211.946 303.231 211.946" fill="url(#paint35_linear_134_9)"/>
<path d="M303.15 195.195C303.15 195.195 304.965 196.928 305.543 200.063C306.12 203.199 305.543 206.335 305.543 206.335" stroke="#575D68" stroke-width="0.5" stroke-miterlimit="10"/>
<path d="M214.363 236.701C214.363 236.701 210.402 233.318 209.577 233.07C208.752 232.823 207.761 231.833 207.761 231.833C207.761 231.833 209.577 231.007 210.154 231.007C210.732 231.007 212.63 232.163 212.63 232.163L214.363 233.318" fill="#F6F6F6"/>
<path d="M214.363 236.701C214.363 236.701 210.402 233.318 209.577 233.07C208.752 232.823 207.761 231.833 207.761 231.833C207.761 231.833 209.577 231.007 210.154 231.007C210.732 231.007 212.63 232.163 212.63 232.163L214.363 233.318" stroke="#575D68" stroke-width="0.5" stroke-miterlimit="10"/>
<path d="M211.061 229.687L213.289 229.852L216.094 231.007" fill="#F6F6F6"/>
<path d="M211.061 229.687L213.289 229.852L216.094 231.007" stroke="#575D68" stroke-width="0.5" stroke-miterlimit="10"/>
<path d="M215.105 228.779L217.911 229.935" stroke="#575D68" stroke-width="0.5" stroke-miterlimit="10"/>
<path d="M233.011 232.163C233.011 232.163 232.434 233.07 232.846 234.803" stroke="#575D68" stroke-width="0.5" stroke-miterlimit="10"/>
<path d="M206.604 248.666L208.667 251.802L212.133 260.548" stroke="#575D68" stroke-width="0.5" stroke-miterlimit="10"/>
<path d="M209.08 245.447L208.667 251.801" stroke="#575D68" stroke-width="0.5" stroke-miterlimit="10"/>
<path d="M71.104 234.764C73.2494 237.075 76.1375 238.478 78.448 240.623C79.6858 241.778 80.676 243.099 81.2536 244.666C81.8312 246.234 81.8312 247.967 81.0885 249.535C80.9235 249.865 80.7585 250.113 80.5109 250.278C79.9333 250.608 79.1082 250.278 78.7781 249.782C78.3655 249.205 78.283 248.545 78.283 247.885C78.283 247.224 78.283 246.482 78.0354 245.904C77.7054 245.162 76.9627 244.501 76.1375 244.419C75.8074 244.336 75.2299 244.171 75.3949 243.841" fill="#E9EAEB"/>
<path d="M71.104 234.764C73.2494 237.075 76.1375 238.478 78.448 240.623C79.6858 241.778 80.676 243.099 81.2536 244.666C81.8312 246.234 81.8312 247.967 81.0885 249.535C80.9235 249.865 80.7585 250.113 80.5109 250.278C79.9333 250.608 79.1082 250.278 78.7781 249.782C78.3655 249.205 78.283 248.545 78.283 247.885C78.283 247.224 78.283 246.482 78.0354 245.904C77.7054 245.162 76.9627 244.501 76.1375 244.419C75.8074 244.336 75.2299 244.171 75.3949 243.841" stroke="#575D68" stroke-width="0.5" stroke-miterlimit="10"/>
<path d="M81.2513 255.394C81.0863 255.146 80.7562 255.064 80.5087 254.981C79.9311 254.816 79.2709 254.733 78.6107 254.816C77.7031 254.898 76.7954 255.394 76.1352 256.054C75.9702 256.301 75.7227 256.549 75.7227 256.879C75.7227 258.034 78.5282 258.447 79.4359 258.364C80.5911 258.364 81.994 256.384 81.2513 255.394Z" fill="#E9EAEB" stroke="#575D68" stroke-width="0.5" stroke-miterlimit="10"/>
<path d="M47.2542 256.631C47.2542 256.961 47.2542 263.563 47.2542 263.563L51.4626 265.791C53.0304 266.616 55.0107 266.451 56.331 265.296C56.6611 265.048 56.9912 264.8 57.3213 264.553C57.4863 264.47 57.6513 264.305 57.7338 264.14C58.724 263.068 57.7338 261.335 56.331 261.747C55.2583 261.995 54.5982 262.408 54.5982 262.408L50.5548 260.097" fill="#E9EAEB"/>
<path d="M47.2542 256.631C47.2542 256.961 47.2542 263.563 47.2542 263.563L51.4626 265.791C53.0304 266.616 55.0107 266.451 56.331 265.296C56.6611 265.048 56.9912 264.8 57.3213 264.553C57.4863 264.47 57.6513 264.305 57.7338 264.14C58.724 263.068 57.7338 261.335 56.331 261.747C55.2583 261.995 54.5982 262.408 54.5982 262.408L50.5548 260.097" stroke="#575D68" stroke-width="0.5" stroke-miterlimit="10"/>
<path d="M79.8491 257.374C80.0141 257.786 80.0142 258.116 79.7666 258.446C78.9414 259.189 76.961 259.189 76.1359 258.529C75.1456 257.621 73.1652 256.384 72.8352 255.393C72.5876 254.733 72.4226 253.826 72.2576 252.918C71.9275 250.938 69.452 250.195 68.1318 251.68L68.0493 251.763C66.3989 253.661 64.4185 255.146 62.108 256.054L53.5263 259.767C53.5263 259.767 52.5361 261.087 52.206 263.81C51.6284 267.771 49.7305 268.596 47.6676 268.926C45.6872 269.256 48.2452 271.402 48.9053 271.649C49.1529 271.732 49.4004 271.814 49.648 271.814C49.813 271.814 50.0606 271.649 50.2257 271.567C51.1334 271.072 52.206 270.742 53.2787 270.742C53.3613 270.742 53.5263 270.741 53.6088 270.824C53.6914 270.907 53.6913 270.989 53.7738 271.072C53.9389 271.732 54.0214 272.392 53.7738 273.052C53.5263 273.547 53.1138 273.877 52.7012 274.125C51.2984 275.197 50.3081 275.362 48.4927 274.95C46.9249 274.62 45.5221 273.877 44.3669 272.804L41.8914 270.494C40.8187 269.504 40.4061 267.853 40.9012 266.451L40.9837 266.038C41.5613 263.48 41.8089 260.757 41.8089 258.116C41.7264 256.054 41.8089 253.165 42.139 249.947C42.3865 247.307 43.4593 244.996 44.6145 242.603C45.5222 240.623 46.9249 238.065 45.6046 236.002C45.1095 235.259 44.4494 234.682 43.9543 233.939C42.469 232.041 41.9739 229.483 42.304 227.09C42.634 224.697 43.7894 222.469 45.2747 220.571C46.76 218.756 48.6578 217.106 50.8857 216.363C51.7109 216.033 52.7836 215.95 53.4437 216.528C53.6913 216.776 53.8564 217.023 54.0214 217.353C54.5165 218.673 54.0214 220.241 53.2787 221.396C52.5361 222.552 51.3809 223.542 50.3907 224.532C48.7403 226.182 47.42 228.41 47.6676 230.721C47.9151 232.784 49.318 234.517 49.4005 236.58C49.483 238.147 49.7305 240.705 52.1235 239.798C55.2591 238.56 59.6325 236.745 60.8702 236.25C65.8213 234.022 72.4226 226.513 74.4855 225.275C76.5484 224.12 80.2617 232.289 78.3639 239.055C77.3737 242.521 76.796 246.069 76.7135 249.7C76.7135 250.772 76.4659 252.34 76.8785 253.33C77.1261 254.073 77.9513 254.651 78.3639 255.311" fill="#E9EAEB"/>
<path d="M79.8491 257.374C80.0141 257.786 80.0142 258.116 79.7666 258.446C78.9414 259.189 76.961 259.189 76.1359 258.529C75.1456 257.621 73.1652 256.384 72.8352 255.393C72.5876 254.733 72.4226 253.826 72.2576 252.918C71.9275 250.938 69.452 250.195 68.1318 251.68L68.0493 251.763C66.3989 253.661 64.4185 255.146 62.108 256.054L53.5263 259.767C53.5263 259.767 52.5361 261.087 52.206 263.81C51.6284 267.771 49.7305 268.596 47.6676 268.926C45.6872 269.256 48.2452 271.402 48.9053 271.649C49.1529 271.732 49.4004 271.814 49.648 271.814C49.813 271.814 50.0606 271.649 50.2257 271.567C51.1334 271.072 52.206 270.742 53.2787 270.742C53.3613 270.742 53.5263 270.741 53.6088 270.824C53.6914 270.907 53.6913 270.989 53.7738 271.072C53.9389 271.732 54.0214 272.392 53.7738 273.052C53.5263 273.547 53.1138 273.877 52.7012 274.125C51.2984 275.197 50.3081 275.362 48.4927 274.95C46.9249 274.62 45.5221 273.877 44.3669 272.804L41.8914 270.494C40.8187 269.504 40.4061 267.853 40.9012 266.451L40.9837 266.038C41.5613 263.48 41.8089 260.757 41.8089 258.116C41.7264 256.054 41.8089 253.165 42.139 249.947C42.3865 247.307 43.4593 244.996 44.6145 242.603C45.5222 240.623 46.9249 238.065 45.6046 236.002C45.1095 235.259 44.4494 234.682 43.9543 233.939C42.469 232.041 41.9739 229.483 42.304 227.09C42.634 224.697 43.7894 222.469 45.2747 220.571C46.76 218.756 48.6578 217.106 50.8857 216.363C51.7109 216.033 52.7836 215.95 53.4437 216.528C53.6913 216.776 53.8564 217.023 54.0214 217.353C54.5165 218.673 54.0214 220.241 53.2787 221.396C52.5361 222.552 51.3809 223.542 50.3907 224.532C48.7403 226.182 47.42 228.41 47.6676 230.721C47.9151 232.784 49.318 234.517 49.4005 236.58C49.483 238.147 49.7305 240.705 52.1235 239.798C55.2591 238.56 59.6325 236.745 60.8702 236.25C65.8213 234.022 72.4226 226.513 74.4855 225.275C76.5484 224.12 80.2617 232.289 78.3639 239.055C77.3737 242.521 76.796 246.069 76.7135 249.7C76.7135 250.772 76.4659 252.34 76.8785 253.33C77.1261 254.073 77.9513 254.651 78.3639 255.311" stroke="#575D68" stroke-width="0.5" stroke-miterlimit="10"/>
<path d="M75.1456 236.58C77.9512 235.259 78.8589 234.599 79.519 233.609C79.9316 233.032 80.5092 232.536 81.0868 231.959C82.077 230.886 82.8197 229.731 83.2323 228.328C84.2225 225.522 83.6449 222.552 81.6645 220.406C81.2519 219.994 80.9218 219.581 80.3442 219.334C79.6841 219.004 78.9413 218.921 78.1987 219.004C77.291 219.004 76.3009 219.086 75.3932 219.416C74.6506 219.746 73.9904 220.241 73.4128 220.819C71.5149 222.717 70.7722 224.862 70.3596 227.42C70.2771 227.833 70.1946 228.328 70.2771 228.741" fill="#E9EAEB"/>
<path d="M75.1456 236.58C77.9512 235.259 78.8589 234.599 79.519 233.609C79.9316 233.032 80.5092 232.536 81.0868 231.959C82.077 230.886 82.8197 229.731 83.2323 228.328C84.2225 225.522 83.6449 222.552 81.6645 220.406C81.2519 219.994 80.9218 219.581 80.3442 219.334C79.6841 219.004 78.9413 218.921 78.1987 219.004C77.291 219.004 76.3009 219.086 75.3932 219.416C74.6506 219.746 73.9904 220.241 73.4128 220.819C71.5149 222.717 70.7722 224.862 70.3596 227.42C70.2771 227.833 70.1946 228.328 70.2771 228.741" stroke="#575D68" stroke-width="0.5" stroke-miterlimit="10"/>
<path d="M45.7705 243.676L46.8432 245.987" stroke="#575D68" stroke-width="0.5" stroke-miterlimit="10"/>
<path d="M47.5024 243.676L45.0269 245.492" stroke="#575D68" stroke-width="0.5" stroke-miterlimit="10"/>
<path d="M72.918 221.727C72.918 220.324 73.1654 218.921 73.6605 217.601C73.7431 217.436 73.8256 217.271 73.9081 217.188C74.1557 217.023 74.4857 217.271 74.7333 217.518C75.806 218.673 76.5487 220.076 77.0438 221.562" fill="#E9EAEB"/>
<path d="M72.918 221.727C72.918 220.324 73.1654 218.921 73.6605 217.601C73.7431 217.436 73.8256 217.271 73.9081 217.188C74.1557 217.023 74.4857 217.271 74.7333 217.518C75.806 218.673 76.5487 220.076 77.0438 221.562" stroke="#575D68" stroke-width="0.5" stroke-miterlimit="10"/>
<path d="M79.6013 223.46C80.7566 222.634 82.0768 222.057 83.3971 221.727C83.5621 221.727 83.7271 221.644 83.8921 221.727C84.1397 221.892 84.1398 222.222 84.0572 222.552C83.7272 224.037 82.9845 225.523 82.0768 226.76" fill="#E9EAEB"/>
<path d="M79.6013 223.46C80.7566 222.634 82.0768 222.057 83.3971 221.727C83.5621 221.727 83.7271 221.644 83.8921 221.727C84.1397 221.892 84.1398 222.222 84.0572 222.552C83.7272 224.037 82.9845 225.523 82.0768 226.76" stroke="#575D68" stroke-width="0.5" stroke-miterlimit="10"/>
<defs>
<linearGradient id="paint0_linear_134_9" x1="92.6852" y1="19.3491" x2="51.3034" y2="-48.1402" gradientUnits="userSpaceOnUse">
<stop stop-color="#EAEAEA" stop-opacity="0"/>
<stop offset="0.093" stop-color="#E0E0E0" stop-opacity="0.17789"/>
<stop offset="0.24246" stop-color="#D1D1D1" stop-opacity="0.42721"/>
<stop offset="0.39392" stop-color="#C5C5C5" stop-opacity="0.63392"/>
<stop offset="0.54529" stop-color="#BBBBBB" stop-opacity="0.79434"/>
<stop offset="0.69667" stop-color="#B4B4B4" stop-opacity="0.90874"/>
<stop offset="0.84812" stop-color="#B0B0B0" stop-opacity="0.97723"/>
<stop offset="1" stop-color="#AFAFAF"/>
</linearGradient>
<linearGradient id="paint1_linear_134_9" x1="54.4135" y1="7.9931" x2="110.921" y2="100.151" gradientUnits="userSpaceOnUse">
<stop stop-color="#EAEAEA" stop-opacity="0"/>
<stop offset="0.08667" stop-color="#E0E0E0" stop-opacity="0.17789"/>
<stop offset="0.22597" stop-color="#D1D1D1" stop-opacity="0.42721"/>
<stop offset="0.36713" stop-color="#C5C5C5" stop-opacity="0.63392"/>
<stop offset="0.5082" stop-color="#BBBBBB" stop-opacity="0.79434"/>
<stop offset="0.64929" stop-color="#B4B4B4" stop-opacity="0.90874"/>
<stop offset="0.79044" stop-color="#B0B0B0" stop-opacity="0.97723"/>
<stop offset="0.93199" stop-color="#AFAFAF"/>
</linearGradient>
<linearGradient id="paint2_linear_134_9" x1="134.131" y1="-10.0772" x2="142.636" y2="-0.661485" gradientUnits="userSpaceOnUse">
<stop stop-color="#EAEAEA" stop-opacity="0"/>
<stop offset="0.093" stop-color="#E0E0E0" stop-opacity="0.17789"/>
<stop offset="0.24246" stop-color="#D1D1D1" stop-opacity="0.42721"/>
<stop offset="0.39392" stop-color="#C5C5C5" stop-opacity="0.63392"/>
<stop offset="0.54529" stop-color="#BBBBBB" stop-opacity="0.79434"/>
<stop offset="0.69667" stop-color="#B4B4B4" stop-opacity="0.90874"/>
<stop offset="0.84812" stop-color="#B0B0B0" stop-opacity="0.97723"/>
<stop offset="1" stop-color="#AFAFAF"/>
</linearGradient>
<linearGradient id="paint3_linear_134_9" x1="97.859" y1="69.3584" x2="97.5837" y2="13.1974" gradientUnits="userSpaceOnUse">
<stop stop-color="#EAEAEA" stop-opacity="0"/>
<stop offset="0.08667" stop-color="#E0E0E0" stop-opacity="0.17789"/>
<stop offset="0.22597" stop-color="#D1D1D1" stop-opacity="0.42721"/>
<stop offset="0.36713" stop-color="#C5C5C5" stop-opacity="0.63392"/>
<stop offset="0.5082" stop-color="#BBBBBB" stop-opacity="0.79434"/>
<stop offset="0.64929" stop-color="#B4B4B4" stop-opacity="0.90874"/>
<stop offset="0.79044" stop-color="#B0B0B0" stop-opacity="0.97723"/>
<stop offset="0.93199" stop-color="#AFAFAF"/>
</linearGradient>
<linearGradient id="paint4_linear_134_9" x1="51.7909" y1="105.361" x2="42.9758" y2="90.9841" gradientUnits="userSpaceOnUse">
<stop stop-color="#EAEAEA" stop-opacity="0"/>
<stop offset="0.08667" stop-color="#E0E0E0" stop-opacity="0.17789"/>
<stop offset="0.22597" stop-color="#D1D1D1" stop-opacity="0.42721"/>
<stop offset="0.36713" stop-color="#C5C5C5" stop-opacity="0.63392"/>
<stop offset="0.5082" stop-color="#BBBBBB" stop-opacity="0.79434"/>
<stop offset="0.64929" stop-color="#B4B4B4" stop-opacity="0.90874"/>
<stop offset="0.79044" stop-color="#B0B0B0" stop-opacity="0.97723"/>
<stop offset="0.93199" stop-color="#AFAFAF"/>
</linearGradient>
<linearGradient id="paint5_linear_134_9" x1="56.6574" y1="92.8876" x2="69.1553" y2="113.27" gradientUnits="userSpaceOnUse">
<stop offset="0.37313" stop-color="#AFAFAF"/>
<stop offset="0.45336" stop-color="#B8B8B8" stop-opacity="0.85056"/>
<stop offset="0.79206" stop-color="#DCDCDC" stop-opacity="0.24241"/>
<stop offset="0.94297" stop-color="#EAEAEA" stop-opacity="0"/>
</linearGradient>
<linearGradient id="paint6_linear_134_9" x1="73.3249" y1="55.743" x2="83.0989" y2="71.6833" gradientUnits="userSpaceOnUse">
<stop stop-color="#AFAFAF"/>
<stop offset="0.14315" stop-color="#B0B0B0" stop-opacity="0.97553"/>
<stop offset="0.29484" stop-color="#B5B5B5" stop-opacity="0.90281"/>
<stop offset="0.45046" stop-color="#BCBCBC" stop-opacity="0.78176"/>
<stop offset="0.60885" stop-color="#C6C6C6" stop-opacity="0.61212"/>
<stop offset="0.76937" stop-color="#D3D3D3" stop-opacity="0.39373"/>
<stop offset="0.92936" stop-color="#E2E2E2" stop-opacity="0.1305"/>
<stop offset="1" stop-color="#EAEAEA" stop-opacity="0"/>
</linearGradient>
<linearGradient id="paint7_linear_134_9" x1="158.404" y1="11.7402" x2="167.196" y2="22.6372" gradientUnits="userSpaceOnUse">
<stop stop-color="#AFAFAF"/>
<stop offset="0.49512" stop-color="#CDCDCD" stop-opacity="0.49405"/>
<stop offset="1" stop-color="#EAEAEA" stop-opacity="0"/>
</linearGradient>
<linearGradient id="paint8_linear_134_9" x1="161.014" y1="46.9295" x2="172.923" y2="66.3509" gradientUnits="userSpaceOnUse">
<stop stop-color="#AFAFAF"/>
<stop offset="0.49512" stop-color="#CDCDCD" stop-opacity="0.49405"/>
<stop offset="1" stop-color="#EAEAEA" stop-opacity="0"/>
</linearGradient>
<linearGradient id="paint9_linear_134_9" x1="155.943" y1="38.6646" x2="163.678" y2="51.913" gradientUnits="userSpaceOnUse">
<stop stop-color="#AFAFAF"/>
<stop offset="0.49512" stop-color="#CDCDCD" stop-opacity="0.49405"/>
<stop offset="1" stop-color="#EAEAEA" stop-opacity="0"/>
</linearGradient>
<linearGradient id="paint10_linear_134_9" x1="21.6216" y1="-106.814" x2="118.404" y2="49.7206" gradientUnits="userSpaceOnUse">
<stop stop-color="#7800FF"/>
<stop offset="0.14047" stop-color="#973CFD"/>
<stop offset="0.31529" stop-color="#BA80FA"/>
<stop offset="0.46185" stop-color="#D3B3F9"/>
<stop offset="0.57242" stop-color="#E3D1F7"/>
<stop offset="0.63425" stop-color="#E9DDF7"/>
</linearGradient>
<linearGradient id="paint11_linear_134_9" x1="77.1128" y1="91.4223" x2="18.2902" y2="8.39398" gradientUnits="userSpaceOnUse">
<stop offset="0.12583" stop-color="#E9DDF7"/>
<stop offset="0.12755" stop-color="#E9DCF7"/>
<stop offset="0.26176" stop-color="#CBA3F9"/>
<stop offset="0.39594" stop-color="#B271FB"/>
<stop offset="0.52733" stop-color="#9D48FC"/>
<stop offset="0.65523" stop-color="#8D29FE"/>
<stop offset="0.77873" stop-color="#8112FE"/>
<stop offset="0.89587" stop-color="#7A05FF"/>
<stop offset="1" stop-color="#7800FF"/>
</linearGradient>
<linearGradient id="paint12_linear_134_9" x1="144.155" y1="45.4187" x2="130.1" y2="-38.6507" gradientUnits="userSpaceOnUse">
<stop offset="0.12583" stop-color="#E9DDF7"/>
<stop offset="0.35689" stop-color="#E8DBF7"/>
<stop offset="0.48205" stop-color="#E4D3F7"/>
<stop offset="0.58183" stop-color="#DDC5F8"/>
<stop offset="0.66825" stop-color="#D3B2F9"/>
<stop offset="0.74607" stop-color="#C699F9"/>
<stop offset="0.81769" stop-color="#B67AFB"/>
<stop offset="0.88455" stop-color="#A355FC"/>
<stop offset="0.94592" stop-color="#8E2BFD"/>
<stop offset="1" stop-color="#7800FF"/>
</linearGradient>
<linearGradient id="paint13_linear_134_9" x1="83.5795" y1="7.23635" x2="136.416" y2="70.2233" gradientUnits="userSpaceOnUse">
<stop offset="0.12583" stop-color="#E9DDF7"/>
<stop offset="0.12755" stop-color="#E9DCF7"/>
<stop offset="0.26176" stop-color="#CBA3F9"/>
<stop offset="0.39594" stop-color="#B271FB"/>
<stop offset="0.52733" stop-color="#9D48FC"/>
<stop offset="0.65523" stop-color="#8D29FE"/>
<stop offset="0.77873" stop-color="#8112FE"/>
<stop offset="0.89587" stop-color="#7A05FF"/>
<stop offset="1" stop-color="#7800FF"/>
</linearGradient>
<linearGradient id="paint14_linear_134_9" x1="51.1052" y1="9.98505" x2="120.665" y2="122.545" gradientUnits="userSpaceOnUse">
<stop offset="0.06272" stop-color="#7800FF"/>
<stop offset="1" stop-color="#E9DDF7"/>
</linearGradient>
<linearGradient id="paint15_linear_134_9" x1="60.8726" y1="138.452" x2="36.4065" y2="59.0677" gradientUnits="userSpaceOnUse">
<stop offset="0.02513" stop-color="#E9DDF7"/>
<stop offset="0.19512" stop-color="#D3B2F9"/>
<stop offset="0.59134" stop-color="#A253FC"/>
<stop offset="0.86834" stop-color="#8417FE"/>
<stop offset="1" stop-color="#7800FF"/>
</linearGradient>
<linearGradient id="paint16_linear_134_9" x1="63.4266" y1="137.665" x2="44.3051" y2="75.622" gradientUnits="userSpaceOnUse">
<stop offset="0.02513" stop-color="#E9DDF7"/>
<stop offset="0.19512" stop-color="#D3B2F9"/>
<stop offset="0.59134" stop-color="#A253FC"/>
<stop offset="0.86834" stop-color="#8417FE"/>
<stop offset="1" stop-color="#7800FF"/>
</linearGradient>
<linearGradient id="paint17_linear_134_9" x1="77.8911" y1="86.0925" x2="53.4251" y2="30.133" gradientUnits="userSpaceOnUse">
<stop offset="0.02513" stop-color="#E9DDF7"/>
<stop offset="0.19512" stop-color="#D3B2F9"/>
<stop offset="0.59134" stop-color="#A253FC"/>
<stop offset="0.86834" stop-color="#8417FE"/>
<stop offset="1" stop-color="#7800FF"/>
</linearGradient>
<linearGradient id="paint18_linear_134_9" x1="188.804" y1="84.2536" x2="127.118" y2="-45.3643" gradientUnits="userSpaceOnUse">
<stop offset="0.02513" stop-color="#E9DDF7"/>
<stop offset="0.19512" stop-color="#D3B2F9"/>
<stop offset="0.59134" stop-color="#A253FC"/>
<stop offset="0.86834" stop-color="#8417FE"/>
<stop offset="1" stop-color="#7800FF"/>
</linearGradient>
<linearGradient id="paint19_linear_134_9" x1="169.77" y1="93.3128" x2="108.084" y2="-36.3051" gradientUnits="userSpaceOnUse">
<stop offset="0.02513" stop-color="#E9DDF7"/>
<stop offset="0.19512" stop-color="#D3B2F9"/>
<stop offset="0.59134" stop-color="#A253FC"/>
<stop offset="0.86834" stop-color="#8417FE"/>
<stop offset="1" stop-color="#7800FF"/>
</linearGradient>
<linearGradient id="paint20_linear_134_9" x1="173.986" y1="91.3059" x2="112.3" y2="-38.3119" gradientUnits="userSpaceOnUse">
<stop offset="0.02513" stop-color="#E9DDF7"/>
<stop offset="0.19512" stop-color="#D3B2F9"/>
<stop offset="0.59134" stop-color="#A253FC"/>
<stop offset="0.86834" stop-color="#8417FE"/>
<stop offset="1" stop-color="#7800FF"/>
</linearGradient>
<linearGradient id="paint21_linear_134_9" x1="20.2325" y1="-108.703" x2="117.015" y2="47.8324" gradientUnits="userSpaceOnUse">
<stop stop-color="#7800FF"/>
<stop offset="0.14047" stop-color="#973CFD"/>
<stop offset="0.31529" stop-color="#BA80FA"/>
<stop offset="0.46185" stop-color="#D3B3F9"/>
<stop offset="0.57242" stop-color="#E3D1F7"/>
<stop offset="0.63425" stop-color="#E9DDF7"/>
</linearGradient>
<linearGradient id="paint22_linear_134_9" x1="75.7234" y1="89.5342" x2="16.9008" y2="6.50584" gradientUnits="userSpaceOnUse">
<stop offset="0.12583" stop-color="#E9DDF7"/>
<stop offset="0.12755" stop-color="#E9DCF7"/>
<stop offset="0.26176" stop-color="#CBA3F9"/>
<stop offset="0.39594" stop-color="#B271FB"/>
<stop offset="0.52733" stop-color="#9D48FC"/>
<stop offset="0.65523" stop-color="#8D29FE"/>
<stop offset="0.77873" stop-color="#8112FE"/>
<stop offset="0.89587" stop-color="#7A05FF"/>
<stop offset="1" stop-color="#7800FF"/>
</linearGradient>
<linearGradient id="paint23_linear_134_9" x1="142.765" y1="43.5306" x2="128.711" y2="-40.5389" gradientUnits="userSpaceOnUse">
<stop offset="0.12583" stop-color="#E9DDF7"/>
<stop offset="0.35689" stop-color="#E8DBF7"/>
<stop offset="0.48205" stop-color="#E4D3F7"/>
<stop offset="0.58183" stop-color="#DDC5F8"/>
<stop offset="0.66825" stop-color="#D3B2F9"/>
<stop offset="0.74607" stop-color="#C699F9"/>
<stop offset="0.81769" stop-color="#B67AFB"/>
<stop offset="0.88455" stop-color="#A355FC"/>
<stop offset="0.94592" stop-color="#8E2BFD"/>
<stop offset="1" stop-color="#7800FF"/>
</linearGradient>
<linearGradient id="paint24_linear_134_9" x1="49.7153" y1="8.09676" x2="119.275" y2="120.657" gradientUnits="userSpaceOnUse">
<stop offset="0.06272" stop-color="#7800FF"/>
<stop offset="1" stop-color="#E9DDF7"/>
</linearGradient>
<linearGradient id="paint25_linear_134_9" x1="59.4832" y1="136.564" x2="35.0172" y2="57.1796" gradientUnits="userSpaceOnUse">
<stop offset="0.02513" stop-color="#E9DDF7"/>
<stop offset="0.19512" stop-color="#D3B2F9"/>
<stop offset="0.59134" stop-color="#A253FC"/>
<stop offset="0.86834" stop-color="#8417FE"/>
<stop offset="1" stop-color="#7800FF"/>
</linearGradient>
<linearGradient id="paint26_linear_134_9" x1="62.0374" y1="135.777" x2="42.916" y2="73.7336" gradientUnits="userSpaceOnUse">
<stop offset="0.02513" stop-color="#E9DDF7"/>
<stop offset="0.19512" stop-color="#D3B2F9"/>
<stop offset="0.59134" stop-color="#A253FC"/>
<stop offset="0.86834" stop-color="#8417FE"/>
<stop offset="1" stop-color="#7800FF"/>
</linearGradient>
<linearGradient id="paint27_linear_134_9" x1="76.502" y1="84.2042" x2="52.036" y2="28.2446" gradientUnits="userSpaceOnUse">
<stop offset="0.02513" stop-color="#E9DDF7"/>
<stop offset="0.19512" stop-color="#D3B2F9"/>
<stop offset="0.59134" stop-color="#A253FC"/>
<stop offset="0.86834" stop-color="#8417FE"/>
<stop offset="1" stop-color="#7800FF"/>
</linearGradient>
<linearGradient id="paint28_linear_134_9" x1="187.414" y1="82.3653" x2="125.729" y2="-47.2525" gradientUnits="userSpaceOnUse">
<stop offset="0.02513" stop-color="#E9DDF7"/>
<stop offset="0.19512" stop-color="#D3B2F9"/>
<stop offset="0.59134" stop-color="#A253FC"/>
<stop offset="0.86834" stop-color="#8417FE"/>
<stop offset="1" stop-color="#7800FF"/>
</linearGradient>
<linearGradient id="paint29_linear_134_9" x1="168.38" y1="91.4245" x2="106.695" y2="-38.1933" gradientUnits="userSpaceOnUse">
<stop offset="0.02513" stop-color="#E9DDF7"/>
<stop offset="0.19512" stop-color="#D3B2F9"/>
<stop offset="0.59134" stop-color="#A253FC"/>
<stop offset="0.86834" stop-color="#8417FE"/>
<stop offset="1" stop-color="#7800FF"/>
</linearGradient>
<linearGradient id="paint30_linear_134_9" x1="172.597" y1="89.4177" x2="110.911" y2="-40.2002" gradientUnits="userSpaceOnUse">
<stop offset="0.02513" stop-color="#E9DDF7"/>
<stop offset="0.19512" stop-color="#D3B2F9"/>
<stop offset="0.59134" stop-color="#A253FC"/>
<stop offset="0.86834" stop-color="#8417FE"/>
<stop offset="1" stop-color="#7800FF"/>
</linearGradient>
<linearGradient id="paint31_linear_134_9" x1="242.627" y1="219.152" x2="275.621" y2="251.849" gradientUnits="userSpaceOnUse">
<stop offset="0.0986871" stop-color="white" stop-opacity="0"/>
<stop offset="0.1883" stop-color="#FBFBFB" stop-opacity="0.1017"/>
<stop offset="0.5973" stop-color="#EEEEEE" stop-opacity="0.5656"/>
<stop offset="0.9802" stop-color="#EAEAEA"/>
</linearGradient>
<linearGradient id="paint32_linear_134_9" x1="253.183" y1="240.089" x2="209.785" y2="267.04" gradientUnits="userSpaceOnUse">
<stop offset="0.4666" stop-color="white" stop-opacity="0"/>
<stop offset="0.5188" stop-color="#FBFBFB" stop-opacity="0.1017"/>
<stop offset="0.7571" stop-color="#EEEEEE" stop-opacity="0.5656"/>
<stop offset="0.9802" stop-color="#EAEAEA"/>
</linearGradient>
<linearGradient id="paint33_linear_134_9" x1="263.455" y1="177.328" x2="289.209" y2="177.328" gradientUnits="userSpaceOnUse">
<stop stop-color="white" stop-opacity="0"/>
<stop offset="0.0037895" stop-color="white" stop-opacity="0.01"/>
<stop offset="0.1624" stop-color="#F3F3F3" stop-opacity="0.1657"/>
<stop offset="0.3837" stop-color="#ECECEC" stop-opacity="0.3915"/>
<stop offset="0.9802" stop-color="#EAEAEA"/>
</linearGradient>
<linearGradient id="paint34_linear_134_9" x1="253.466" y1="156.46" x2="290.721" y2="172.511" gradientUnits="userSpaceOnUse">
<stop stop-color="white" stop-opacity="0"/>
<stop offset="0.0037895" stop-color="white" stop-opacity="0.01"/>
<stop offset="0.1624" stop-color="#F3F3F3" stop-opacity="0.1657"/>
<stop offset="0.3837" stop-color="#ECECEC" stop-opacity="0.3915"/>
<stop offset="0.9802" stop-color="#EAEAEA"/>
</linearGradient>
<linearGradient id="paint35_linear_134_9" x1="332.123" y1="191.988" x2="300.318" y2="206.454" gradientUnits="userSpaceOnUse">
<stop offset="0.0101021" stop-color="white" stop-opacity="0"/>
<stop offset="0.1087" stop-color="#FBFBFB" stop-opacity="0.1017"/>
<stop offset="0.5588" stop-color="#EEEEEE" stop-opacity="0.5656"/>
<stop offset="0.9802" stop-color="#EAEAEA"/>
</linearGradient>
</defs>
</svg>
