<svg width="345" height="480" viewBox="0 0 345 480" fill="none" xmlns="http://www.w3.org/2000/svg">
<g clip-path="url(#clip0_480_8246)">
<rect width="345" height="480" rx="6" fill="#F6F6F6"/>
<g clip-path="url(#clip1_480_8246)">
<path d="M499.337 471.916L-68.2715 498L-75.8945 -190.314L498.341 107.563L499.337 471.916Z" fill="#DDDEDF"/>
<path d="M-10.0156 85.3753L110.193 153.692L273.296 61.4469L151.928 -8.39062L-10.0156 85.3753Z" fill="#F6F6F6" stroke="#575D68" stroke-width="0.4" stroke-miterlimit="10"/>
<path d="M69.002 109.214L128.567 74.7969L131.852 76.948L72.7756 111.393L69.002 109.214Z" fill="#F6F6F6" stroke="#575D68" stroke-width="0.4" stroke-miterlimit="10"/>
<path d="M191.429 213.392L210.51 202.549L121.057 150.947L99.6175 163.305L-4.10027 104.742L-128.359 176.053C-124.766 179.496 -101.929 198.88 -100.764 199.877L2.45064 141.004L183.312 245.719L356 345L382.939 323.641L191.429 213.392Z" fill="#F6F6F6" stroke="#575D68" stroke-width="0.4" stroke-miterlimit="10"/>
<path d="M111.476 133.832L171.04 99.4141L174.326 101.565L115.249 136.01L111.476 133.832Z" fill="#F6F6F6" stroke="#575D68" stroke-width="0.4" stroke-miterlimit="10"/>
<path d="M312.82 249.857L298.243 258.256L236.349 222.169L250.581 213.771L312.82 249.857Z" fill="#F6F6F6" stroke="#575D68" stroke-width="0.4" stroke-miterlimit="10"/>
<path d="M323.118 235.402L319.299 237.773L257.456 201.524L260.984 199.596L323.118 235.402Z" fill="#F6F6F6" stroke="#575D68" stroke-width="0.4" stroke-miterlimit="10"/>
<path d="M250.582 213.77L257.457 201.523L319.3 237.772L312.821 249.856L250.582 213.77Z" fill="#F6F6F6" stroke="#575D68" stroke-width="0.4" stroke-miterlimit="10"/>
<path d="M323.118 235.402V257.629L298.242 272.099V258.256L312.82 249.857L319.298 237.773L323.118 235.402Z" fill="#F6F6F6" stroke="#575D68" stroke-width="0.4" stroke-miterlimit="10"/>
<path d="M298.243 258.255V272.098L236.349 236.205V222.168L298.243 258.255Z" fill="#F6F6F6" stroke="#575D68" stroke-width="0.4" stroke-miterlimit="10"/>
<path d="M318.96 238.459L257.087 202.33" stroke="#575D68" stroke-width="0.4" stroke-miterlimit="10"/>
<path d="M318.313 239.648L256.41 203.518" stroke="#575D68" stroke-width="0.4" stroke-miterlimit="10"/>
<path d="M317.668 240.839L255.735 204.707" stroke="#575D68" stroke-width="0.4" stroke-miterlimit="10"/>
<path d="M317.021 242.028L255.059 205.895" stroke="#575D68" stroke-width="0.4" stroke-miterlimit="10"/>
<path d="M316.374 243.219L254.382 207.084" stroke="#575D68" stroke-width="0.4" stroke-miterlimit="10"/>
<path d="M315.729 244.409L253.707 208.271" stroke="#575D68" stroke-width="0.4" stroke-miterlimit="10"/>
<path d="M315.082 245.6L253.03 209.461" stroke="#575D68" stroke-width="0.4" stroke-miterlimit="10"/>
<path d="M314.435 246.789L252.354 210.648" stroke="#575D68" stroke-width="0.4" stroke-miterlimit="10"/>
<path d="M313.79 247.978L251.679 211.836" stroke="#575D68" stroke-width="0.4" stroke-miterlimit="10"/>
<path d="M313.144 249.169L251.002 213.025" stroke="#575D68" stroke-width="0.4" stroke-miterlimit="10"/>
<path d="M312.157 250.297L249.919 214.363" stroke="#575D68" stroke-width="0.4" stroke-miterlimit="10"/>
<path d="M310.706 251.128L248.505 215.176" stroke="#575D68" stroke-width="0.4" stroke-miterlimit="10"/>
<path d="M309.254 251.956L247.091 215.986" stroke="#575D68" stroke-width="0.4" stroke-miterlimit="10"/>
<path d="M307.803 252.787L245.678 216.799" stroke="#575D68" stroke-width="0.4" stroke-miterlimit="10"/>
<path d="M306.352 253.617L244.264 217.611" stroke="#575D68" stroke-width="0.4" stroke-miterlimit="10"/>
<path d="M304.9 254.446L242.85 218.422" stroke="#575D68" stroke-width="0.4" stroke-miterlimit="10"/>
<path d="M303.446 255.276L241.434 219.234" stroke="#575D68" stroke-width="0.4" stroke-miterlimit="10"/>
<path d="M301.994 256.107L240.02 220.047" stroke="#575D68" stroke-width="0.4" stroke-miterlimit="10"/>
<path d="M300.543 256.936L238.605 220.857" stroke="#575D68" stroke-width="0.4" stroke-miterlimit="10"/>
<path d="M299.091 257.766L237.191 221.67" stroke="#575D68" stroke-width="0.4" stroke-miterlimit="10"/>
<path d="M293.909 239.707V236.289L280.517 244.397L280.495 247.909L281.779 247.07L281.807 244.956L290.742 239.48L292.574 238.357L292.539 240.538L293.909 239.707Z" fill="#F6F6F6" stroke="#575D68" stroke-width="0.4" stroke-miterlimit="10"/>
<path d="M293.909 236.288L292.011 235.127L278.494 243.164V246.757L280.496 247.908L280.517 244.396L293.909 236.288Z" fill="#F6F6F6" stroke="#575D68" stroke-width="0.4" stroke-miterlimit="10"/>
<path d="M290.743 239.479L292.541 240.536L292.576 238.355L290.743 239.479Z" fill="#F6F6F6" stroke="#575D68" stroke-width="0.4" stroke-miterlimit="10"/>
<path d="M280.518 244.381L278.495 243.148" stroke="#575D68" stroke-width="0.4" stroke-miterlimit="10"/>
<path d="M272.037 226.922V223.504L258.644 231.612L258.623 235.124L259.906 234.285L259.935 232.171L268.87 226.695L270.702 225.572L270.667 227.753L272.037 226.922Z" fill="#F6F6F6" stroke="#575D68" stroke-width="0.4" stroke-miterlimit="10"/>
<path d="M272.037 223.505L270.138 222.344L256.622 230.381V233.974L258.623 235.125L258.644 231.613L272.037 223.505Z" fill="#F6F6F6" stroke="#575D68" stroke-width="0.4" stroke-miterlimit="10"/>
<path d="M268.869 226.696L270.667 227.753L270.702 225.572L268.869 226.696Z" fill="#F6F6F6" stroke="#575D68" stroke-width="0.4" stroke-miterlimit="10"/>
<path d="M258.645 231.598L256.622 230.365" stroke="#575D68" stroke-width="0.4" stroke-miterlimit="10"/>
<path d="M142.052 -103.887L142.902 146.174" stroke="#575D68" stroke-width="0.4"/>
<path d="M4.11523 83.6654V81.2227L111.24 143.365V145.724L4.11523 83.6654Z" fill="#F6F6F6" stroke="#575D68" stroke-width="0.4" stroke-miterlimit="10"/>
<path d="M111.239 143.365L112.84 142.477V144.81L111.239 145.725V143.365Z" fill="#F6F6F6" stroke="#575D68" stroke-width="0.4" stroke-miterlimit="10"/>
<path d="M112.841 142.476L5.77113 80.2871L4.11523 81.2229L111.24 143.365L112.841 142.476Z" fill="#F6F6F6" stroke="#575D68" stroke-width="0.4" stroke-miterlimit="10"/>
<path d="M-74.0551 -126.576L-351 33.6461L-133.608 157.014L139.081 -1.04161L-74.0551 -126.576Z" stroke="#575D68" stroke-width="0.4" stroke-miterlimit="10"/>
<path d="M29.1084 42.1657L38.6219 47.9281L46.3829 43.4202V23.8043L37.7226 28.6168L29.1084 23.6406V42.1657Z" fill="#F6F6F6" stroke="#575D68" stroke-width="0.4" stroke-miterlimit="10"/>
<path d="M29.1084 23.6412L37.7456 18.6406L46.3829 23.8049L37.7226 28.6174L29.1084 23.6412Z" fill="#F6F6F6" stroke="#575D68" stroke-width="0.4" stroke-miterlimit="10"/>
<path d="M37.9901 8.58984H37.5002C37.2957 8.58984 37.1299 8.75574 37.1299 8.96039V25.3107C37.1299 25.5153 37.2957 25.6812 37.5002 25.6812H37.9901C38.1946 25.6812 38.3604 25.5153 38.3604 25.3107V8.96039C38.3604 8.75574 38.1946 8.58984 37.9901 8.58984Z" fill="#F6F6F6" stroke="#575D68" stroke-width="0.4" stroke-miterlimit="10"/>
<path d="M45.8773 0.704244C45.8773 9.02572 42.2362 15.7717 37.7448 15.7717C33.2533 15.7717 29.6123 9.02573 29.6123 0.704244C29.6123 -7.61724 37.6543 -23.8125 37.6543 -23.8125C37.6543 -23.8125 45.8773 -7.61722 45.8773 0.704244Z" fill="#F6F6F6" stroke="#575D68" stroke-width="0.4" stroke-miterlimit="10"/>
<path d="M38.6201 47.9282V32.2891" stroke="#575D68" stroke-width="0.4" stroke-miterlimit="10"/>
<path d="M0.431641 18.0127L0.846937 29.8753C0.852373 30.0305 0.917803 30.1775 1.02943 30.2854C1.14106 30.3932 1.29018 30.4536 1.44535 30.4536V30.4536C1.60415 30.4536 1.75645 30.3904 1.86873 30.278C1.98102 30.1657 2.04409 30.0133 2.04409 29.8544V17.5469L0.431641 18.0127Z" fill="#F6F6F6" stroke="#575D68" stroke-width="0.4" stroke-miterlimit="10"/>
<path d="M-19.723 20.6857L-12.7805 24.694C-11.9995 25.1449 -11.1137 25.3823 -10.212 25.3823C-9.31041 25.3823 -8.42465 25.1449 -7.64366 24.694L2.82813 18.648V17.5954L-10.212 11.1191L-19.723 16.6104C-20.2609 16.921 -20.8722 17.2401 -20.8722 17.2401C-20.8722 17.2401 -20.9202 18.5645 -20.8864 18.8937C-20.8498 19.2638 -20.725 19.6197 -20.5226 19.9315C-20.3202 20.2433 -20.046 20.5019 -19.723 20.6857V20.6857Z" fill="#F6F6F6" stroke="#575D68" stroke-width="0.4" stroke-miterlimit="10"/>
<path d="M-19.7224 19.6349L-12.7799 23.6432C-11.9989 24.0941 -11.1132 24.3315 -10.2115 24.3315C-9.30989 24.3315 -8.42413 24.0941 -7.64314 23.6432L2.82865 17.5972L-10.2115 10.0684L-19.7224 15.5596C-20.08 15.766 -20.3769 16.063 -20.5833 16.4206C-20.7897 16.7783 -20.8984 17.1842 -20.8984 17.5972C-20.8984 18.0103 -20.7897 18.4161 -20.5833 18.7738C-20.3769 19.1315 -20.08 19.4285 -19.7224 19.6349Z" fill="#F6F6F6" stroke="#575D68" stroke-width="0.4" stroke-miterlimit="10"/>
<path d="M-10.2119 10.0677L-7.36349 -3.64317C-7.19249 -4.48102 -6.82485 -5.26614 -6.29091 -5.93379C-5.75698 -6.60143 -5.07205 -7.1325 -4.29264 -7.48305C-3.51324 -7.83361 -2.66173 -7.99366 -1.80834 -7.95C-0.954951 -7.90633 -0.124151 -7.66014 0.615462 -7.23186L1.84773 -6.51835C3.60502 -5.50078 4.98726 -3.94284 5.78893 -2.07615C6.5906 -0.20946 6.7689 1.86632 6.29733 3.84255L2.82829 17.5965L-10.2119 10.0677Z" fill="#F6F6F6" stroke="#575D68" stroke-width="0.4" stroke-miterlimit="10"/>
<path d="M7.36346 27.3708L6.94812 51.3405C6.93683 51.9923 6.67228 52.5089 6.34976 52.5089C6.01908 52.5089 5.75098 51.9669 5.75098 51.2982V26.4297L7.36346 27.3708Z" fill="#F6F6F6" stroke="#575D68" stroke-width="0.4" stroke-miterlimit="10"/>
<path d="M-58.1611 22.6368L-20.9034 44.148L8.85499 26.939L-28.3554 5.42773L-58.1611 22.6368Z" fill="#F6F6F6" stroke="#575D68" stroke-width="0.4" stroke-miterlimit="10"/>
<path d="M-58.1611 22.6367V24.9834L-20.894 46.4947L8.85499 28.7633V26.9389L-20.9034 44.148L-58.1611 22.6367Z" fill="#F6F6F6" stroke="#575D68" stroke-width="0.4" stroke-miterlimit="10"/>
<path d="M-146.149 123.378L12.4236 31.9061C13.4211 31.3289 14.5542 31.0284 15.7063 31.0353C16.8585 31.0421 17.988 31.3562 18.9785 31.9452L29.6258 38.2294L29.82 56.2552L-128.36 150.604L-153.487 136.055V127.498L-146.149 123.378Z" fill="#F6F6F6" stroke="#575D68" stroke-width="0.4" stroke-miterlimit="10"/>
<path d="M22.4755 33.2536L16.0325 29.9007C15.3011 29.4538 14.4641 29.21 13.6074 29.1942C12.7506 29.1784 11.9052 29.3912 11.1579 29.8108C10.4106 30.2304 9.78854 30.8416 9.35555 31.5816C8.92257 32.3216 8.69434 33.1636 8.69434 34.0211V34.0211L29.2344 45.7157L22.4755 33.2536Z" fill="#F6F6F6" stroke="#575D68" stroke-width="0.4" stroke-miterlimit="10"/>
<path d="M-132.801 120.773L27.173 27.6738L32.2252 30.6992L-128.2 123.242L-132.801 120.773Z" fill="#F6F6F6" stroke="#575D68" stroke-width="0.4" stroke-miterlimit="10"/>
<path d="M-137.915 121.045L21.5446 29.1759C22.9526 28.3657 24.4986 27.824 26.1041 27.5781L27.1727 27.673L-132.801 120.773L-135.824 121.953L-137.915 121.045Z" fill="#F6F6F6" stroke="#575D68" stroke-width="0.4" stroke-miterlimit="10"/>
<path d="M-128.358 150.605L-128.199 123.242L32.2266 30.6992V57.8424L-128.358 150.605Z" fill="#F6F6F6" stroke="#575D68" stroke-width="0.4" stroke-miterlimit="10"/>
<path d="M92.8362 -1.04297L94.2274 4.83386L94.8116 4.57366C95.2286 4.38796 95.9561 4.02923 96.5403 3.73691C96.8092 3.60254 97.1101 3.54562 97.4095 3.57254C97.7089 3.59945 97.9949 3.70912 98.2356 3.88931C98.6923 4.2303 99.2471 4.63028 99.6182 4.84955L98.2907 6.63654L93.2792 9.55963L88.8867 7.92554L86.0859 -0.877436" fill="#DDDEDF"/>
<path d="M92.8362 -1.04297L94.2274 4.83386L94.8116 4.57366C95.2286 4.38796 95.9561 4.02923 96.5403 3.73691C96.8092 3.60254 97.1101 3.54562 97.4095 3.57254C97.7089 3.59945 97.9949 3.70912 98.2356 3.88931C98.6923 4.2303 99.2471 4.63028 99.6182 4.84955L98.2907 6.63654L93.2792 9.55963L88.8867 7.92554L86.0859 -0.877436" stroke="#575D68" stroke-width="0.4" stroke-miterlimit="10"/>
<path d="M98.002 -47.3335C97.1535 -48.5684 95.9152 -49.4824 94.4858 -49.9289L91.6275 -50.8219L89.8212 -52.4911H93.106C93.5112 -52.4911 94.7302 -55.0347 94.9039 -55.4527C95.3822 -56.7126 95.6072 -58.0546 95.5662 -59.4017C95.5776 -60.1568 95.4229 -60.905 95.113 -61.5935C94.8031 -62.282 94.3456 -62.8938 93.773 -63.3855C93.2486 -63.7668 92.645 -64.0248 92.0071 -64.1402C91.3692 -64.2556 90.7136 -64.2255 90.089 -64.052C87.6821 -63.4066 86.7584 -61.6254 86.8089 -59.2825C86.8623 -56.8091 87.759 -53.0778 84.7326 -51.9753C83.314 -51.4596 81.5102 -49.3965 81.2525 -46.8177C80.9949 -44.2389 85.6332 -29.2821 85.6332 -29.2821C85.6332 -29.2821 84.0871 -21.8037 84.6024 -18.7092C85.1178 -15.6147 85.6332 -12.0044 85.6332 -12.0044C85.6332 -12.0044 85.3969 -3.2276 86.0858 -0.877758L87.0659 9.1467L94.6031 11.341C95.3753 11.4525 96.1632 11.3266 96.8622 10.9799C97.5613 10.6331 98.1385 10.0819 98.5174 9.39938L91.5599 6.56278C91.5599 6.56278 92.5906 2.9525 93.3637 0.37373C94.1368 -2.20504 99.2904 -8.13624 99.2904 -8.13624L98.648 -23.2289L97.8865 -31.9472L98.002 -47.3335Z" fill="#DDDEDF" stroke="#575D68" stroke-width="0.4" stroke-miterlimit="10"/>
<path d="M88.5683 -19.0684C88.4889 -18.6606 91.9845 -9.66299 91.9845 -9.66299L87.4561 1.20607" fill="#DDDEDF"/>
<path d="M88.5683 -19.0684C88.4889 -18.6606 91.9845 -9.66299 91.9845 -9.66299L87.4561 1.20607" stroke="#575D68" stroke-width="0.4" stroke-miterlimit="10"/>
<path d="M-133.608 157.012L139.08 -1.0432L139.008 -551.58L-78.7061 -676.947L-351 -519.567V33.6449L-133.608 157.012Z" fill="#F6F6F6" stroke="#575D68" stroke-width="0.4" stroke-miterlimit="10"/>
<path d="M23.7869 -106.532L71.3858 -134.107V3.7549L23.7822 31.5044L23.7869 -106.532Z" fill="#F6F6F6" stroke="#575D68" stroke-width="0.4" stroke-miterlimit="10"/>
<path d="M68.7867 -132.602V1.0422L23.7822 27.2759V31.5044L71.3858 3.7549V-134.107L68.7867 -132.602Z" fill="#F6F6F6" stroke="#575D68" stroke-width="0.4" stroke-miterlimit="10"/>
<path d="M-47.4035 -65.4075L0.194737 -92.9824V44.8799L-47.4082 72.6287L-47.4035 -65.4075Z" fill="#F6F6F6" stroke="#575D68" stroke-width="0.4" stroke-miterlimit="10"/>
<path d="M-2.40375 -91.4768V42.1664L-47.4082 68.4008V72.6287L0.194737 44.8799V-92.9824L-2.40375 -91.4768Z" fill="#F6F6F6" stroke="#575D68" stroke-width="0.4" stroke-miterlimit="10"/>
<path d="M37.2429 -11.8574L29.2295 3.47606" stroke="#575D68" stroke-width="0.4" stroke-miterlimit="10"/>
<path d="M43.7886 -17.9863L27.0361 14.0686" stroke="#575D68" stroke-width="0.4" stroke-miterlimit="10"/>
<path d="M64.1305 -50.2812L27.2305 20.325" stroke="#575D68" stroke-width="0.4" stroke-miterlimit="10"/>
<path d="M67.0653 89.0368C67.0653 93.1896 63.9498 98.8774 59.8044 99.4158C59.8044 99.4158 57.9995 98.4812 56.8815 97.9084C54.5812 96.7299 53.6827 93.5988 54.8156 90.1946C56.0273 86.5537 59.2108 83.9252 62.0648 83.7243C63.0373 83.6437 64.0096 83.883 64.8338 84.4059C65.2587 84.6794 67.7881 86.0599 67.7881 86.0599C67.3598 86.9971 67.1145 88.0075 67.0653 89.0368V89.0368Z" fill="#DDDEDF" stroke="#575D68" stroke-width="0.4" stroke-miterlimit="10"/>
<path d="M128.058 53.7595C128.058 57.9122 124.942 63.6 120.797 64.1384C120.797 64.1384 118.992 63.2037 117.874 62.6309C115.573 61.4524 114.675 58.3214 115.808 54.9173C117.02 51.2764 120.203 48.6478 123.057 48.4469C124.03 48.3664 125.002 48.6057 125.826 49.1285C126.251 49.402 128.78 50.7825 128.78 50.7825C128.352 51.7196 128.107 52.7301 128.058 53.7595V53.7595Z" fill="#DDDEDF" stroke="#575D68" stroke-width="0.4" stroke-miterlimit="10"/>
<path d="M130.417 39.5215L113.71 43.4086L97.0064 41.2274L68.1911 55.7061L54.794 78.7673L54.6429 90.0965H51.1148L46.9307 95.1901L54.3308 97.1346C55.3663 96.9183 56.3737 96.584 57.3332 96.1383C57.1846 94.7107 57.3519 93.2678 57.8233 91.9122C59.1785 87.8401 62.739 84.9002 65.931 84.6754C68.9114 84.4656 71.2984 86.6476 71.5036 90.1305C72.0518 89.8897 72.3697 89.7493 72.3697 89.7493C72.8783 89.2126 117.436 63.936 117.436 63.936L118.545 63.1799C117.597 61.4719 117.45 59.0664 118.288 56.5461C119.644 52.474 123.204 49.5341 126.396 49.3094C129.177 49.1137 131.44 50.9998 131.899 54.081L132.711 53.5274L133.248 53.0367C134.103 52.1439 134.702 51.037 134.982 49.8323V46.0691C134.983 45.0372 134.741 44.0196 134.276 43.0988C133.81 42.178 133.134 41.3801 132.303 40.7698C131.698 40.3188 131.068 39.902 130.417 39.5215V39.5215Z" fill="#F6F6F6" stroke="#575D68" stroke-width="0.4" stroke-miterlimit="10"/>
<path d="M131.259 55.4871C131.259 59.6398 128.002 64.2135 123.856 64.7518C119.564 65.3093 117.499 61.1837 119.01 56.6449C120.221 53.004 123.405 50.3755 126.259 50.1746C129.047 49.9783 131.259 52.119 131.259 55.4871Z" fill="#DDDEDF" stroke="#575D68" stroke-width="0.4" stroke-miterlimit="10"/>
<path d="M70.8297 91.1004C70.8297 95.2532 67.5719 99.8269 63.4265 100.365C59.1341 100.923 57.0696 96.797 58.5801 92.2582C59.7917 88.6173 62.9752 85.9888 65.8293 85.7878C68.6169 85.5916 70.8297 87.7323 70.8297 91.1004Z" fill="#DDDEDF" stroke="#575D68" stroke-width="0.4" stroke-miterlimit="10"/>
<path d="M69.3872 91.5507C69.3872 94.7629 66.8672 98.3007 63.6607 98.7171C60.3405 99.1483 58.7436 95.9571 59.912 92.4462C60.8492 89.6299 63.3116 87.5967 65.5193 87.4413C67.6756 87.2895 69.3872 88.9454 69.3872 91.5507Z" fill="#F6F6F6" stroke="#575D68" stroke-width="0.4" stroke-miterlimit="10"/>
<path d="M129.815 55.9394C129.815 59.1516 127.295 62.6895 124.088 63.1059C120.768 63.5371 119.171 60.3458 120.34 56.8349C121.277 54.0186 123.739 51.9854 125.947 51.8299C128.103 51.6781 129.815 53.3341 129.815 55.9394Z" fill="#F6F6F6" stroke="#575D68" stroke-width="0.4" stroke-miterlimit="10"/>
<path d="M16.7227 69.8848V73.855C16.7224 75.0718 17.0413 76.2675 17.6473 77.3224C18.2534 78.3773 19.1255 79.2546 20.1764 79.8667C26.5337 83.5691 40.0645 91.2818 46.9311 95.1901C47.3569 95.4325 47.8389 95.5588 48.3289 95.5564C48.8188 95.554 49.2995 95.4231 49.723 95.1765C50.1465 94.93 50.498 94.5766 50.7423 94.1515C50.9865 93.7265 51.1151 93.2448 51.1151 92.7545V90.0965L16.7227 69.8848Z" fill="#F6F6F6" stroke="#575D68" stroke-width="0.4" stroke-miterlimit="10"/>
<path d="M81.3381 24.72L64.3684 21.1467C61.6453 20.5733 58.807 20.9926 56.3655 22.329L37.1254 32.8604C33.9849 34.5794 31.3312 37.0671 29.4123 40.0911L18.1348 57.8631L54.7954 78.7664L66.4979 61.1773C68.3623 58.3749 70.8588 56.0503 73.786 54.3909L94.1098 42.8693C95.9941 41.8072 98.1985 41.4624 100.317 41.8985C105.082 42.8658 114.526 44.144 114.526 44.144C114.526 44.144 114.686 44.0165 114.588 43.9644C109.247 41.1066 81.3381 24.72 81.3381 24.72Z" fill="#F6F6F6" stroke="#575D68" stroke-width="0.4" stroke-miterlimit="10"/>
<path d="M31.3623 40.4557L23.291 53.5138L56.3957 72.9504L64.8078 60.596C65.0759 60.2402 65.2652 59.8313 65.3631 59.3966C65.4609 58.9618 65.4651 58.5112 65.3754 58.0747C65.2857 57.6382 65.1041 57.2258 64.8427 56.865C64.5813 56.5043 64.2461 56.2033 63.8594 55.9823L35.508 39.4991C34.8234 39.1078 34.0165 38.9889 33.2482 39.1662C32.4799 39.3434 31.8066 39.8039 31.3623 40.4557V40.4557Z" fill="#DDDEDF" stroke="#575D68" stroke-width="0.4" stroke-miterlimit="10"/>
<path d="M18.1348 57.8633V68.6075L54.6446 90.0958L54.7954 78.767L18.1348 57.8633Z" fill="#F6F6F6" stroke="#575D68" stroke-width="0.4" stroke-miterlimit="10"/>
<path d="M16.7227 69.8843L18.1338 68.6074L54.6437 90.0956H51.1155L16.7227 69.8843Z" fill="#F6F6F6" stroke="#575D68" stroke-width="0.4" stroke-miterlimit="10"/>
<path d="M81.3379 24.7207L91.9887 21.8469C95.1941 20.982 98.6109 21.4181 101.497 23.0606L130.418 39.5213L114.525 44.1448L81.3379 24.7207Z" fill="#F6F6F6" stroke="#575D68" stroke-width="0.4" stroke-miterlimit="10"/>
<path d="M60.5501 73.9502L69.1407 59.6557C69.1747 59.5991 69.2263 59.5553 69.2877 59.531C69.349 59.5067 69.4166 59.5031 69.4801 59.521C69.5437 59.5389 69.5995 59.5771 69.6392 59.6299C69.6789 59.6826 69.7001 59.747 69.6997 59.813L69.638 68.966C69.6358 69.2885 69.5474 69.6044 69.382 69.8811C69.2166 70.1578 68.9801 70.3851 68.6973 70.5394L61.2004 74.6292C61.1066 74.6804 60.9984 74.6993 60.8928 74.6829C60.7871 74.6665 60.6898 74.6158 60.6158 74.5386C60.5419 74.4613 60.4954 74.3618 60.4835 74.2555C60.4716 74.1492 60.495 74.0419 60.5501 73.9502Z" fill="#DDDEDF" stroke="#575D68" stroke-width="0.4" stroke-miterlimit="10"/>
<path d="M72.4733 68.712L86.2715 60.7729C86.4218 60.6864 86.5466 60.5618 86.6334 60.4117C86.7202 60.2615 86.7659 60.0911 86.7659 59.9176V50.9396C86.7659 50.7663 86.7203 50.5959 86.6335 50.4458C86.5468 50.2957 86.4221 50.1712 86.272 50.0847C86.1218 49.9982 85.9516 49.9528 85.7783 49.9531C85.6051 49.9534 85.435 49.9995 85.2852 50.0865L71.6055 58.0349C71.3317 58.194 71.1061 58.4243 70.9525 58.7013C70.799 58.9783 70.7232 59.2917 70.7333 59.6083L70.9967 67.8883C71.0021 68.0585 71.0515 68.2245 71.14 68.37C71.2286 68.5155 71.3533 68.6355 71.502 68.7185C71.6506 68.8014 71.8183 68.8444 71.9885 68.8433C72.1587 68.8422 72.3257 68.797 72.4733 68.712V68.712Z" fill="#DDDEDF" stroke="#575D68" stroke-width="0.4" stroke-miterlimit="10"/>
<path d="M89.1768 58.0343V48.2226C89.1768 48.0186 89.2295 47.8181 89.3298 47.6405C89.4301 47.4629 89.5746 47.3143 89.7492 47.2091L95.8047 43.562C96.9123 42.9186 98.226 42.7298 99.4698 43.0355L111.7 45.4395C111.784 45.4561 111.861 45.498 111.921 45.5595C111.98 45.6211 112.02 45.6994 112.034 45.7841C112.047 45.8687 112.035 45.9555 111.998 46.0329C111.961 46.1103 111.902 46.1746 111.827 46.2171L90.1582 58.6044C90.0585 58.6614 89.9455 58.6912 89.8306 58.6908C89.7157 58.6904 89.6029 58.6598 89.5035 58.602C89.4042 58.5443 89.3216 58.4615 89.2643 58.3618C89.2069 58.2622 89.1768 58.1492 89.1768 58.0343V58.0343Z" fill="#DDDEDF" stroke="#575D68" stroke-width="0.4" stroke-miterlimit="10"/>
<path d="M70.3389 23.5918L81.1567 25.9222L110.194 42.8384L98.0431 39.7135L70.3389 23.5918Z" fill="#DDDEDF" stroke="#575D68" stroke-width="0.4" stroke-miterlimit="10"/>
<path d="M131.852 47.6823L134.983 46.0681C134.984 44.5105 134.432 43.0032 133.427 41.8145L131.852 47.6823Z" fill="#DDDEDF" stroke="#575D68" stroke-width="0.4" stroke-miterlimit="10"/>
<path d="M88.0771 47.9297V78.1668" stroke="#575D68" stroke-width="0.4" stroke-miterlimit="10"/>
<path d="M116.112 62.4141L72.7275 87.432" stroke="#575D68" stroke-width="0.4" stroke-miterlimit="10"/>
<path d="M498.342 213.557L499.338 -590.536L262.703 -722L262.78 77.9537L498.342 213.557Z" fill="#F6F6F6" stroke="#575D68" stroke-width="0.4" stroke-miterlimit="10"/>
<path d="M210.514 -47.2138V202.549L344.415 125.134V-89.9766L240.19 -29.7788V-64.1637L210.514 -47.2138Z" fill="#F6F6F6" stroke="#575D68" stroke-width="0.4" stroke-miterlimit="10"/>
<path d="M121.059 -98.5859V150.948L210.512 202.55V-47.2133L121.059 -98.5859Z" fill="#F6F6F6" stroke="#575D68" stroke-width="0.4" stroke-miterlimit="10"/>
<path d="M199.154 195.549L199.109 52.5735L132.327 13.9473V157.013L199.154 195.549Z" fill="#F6F6F6" stroke="#575D68" stroke-width="0.4" stroke-miterlimit="10"/>
<path d="M160.288 37.8496L189.105 54.4456L189.109 158.943L160.288 142.304V37.8496Z" fill="#F6F6F6" stroke="#575D68" stroke-width="0.4" stroke-miterlimit="10"/>
<path d="M161.637 40.4062V143.195L188.006 158.314V123.434L185.744 121.969V114.575L188.006 115.795V104.273L185.773 102.982V93.1505L188.006 94.4511V55.7152L161.637 40.4062Z" fill="#F6F6F6" stroke="#575D68" stroke-width="0.4" stroke-miterlimit="10"/>
<path d="M192.113 56.3281L199.112 60.399L199.144 164.763L192.113 160.679V56.3281Z" fill="#F6F6F6" stroke="#575D68" stroke-width="0.4" stroke-miterlimit="10"/>
<path d="M193.465 58.8848V161.479L199.145 164.763L199.109 62.1612L193.465 58.8848Z" fill="#F6F6F6" stroke="#575D68" stroke-width="0.4" stroke-miterlimit="10"/>
<path d="M186.799 117.832L185.079 118.598V100.861L186.796 100.075C187.103 99.6226 187.277 99.0929 187.297 98.5465C187.317 98.0001 187.183 97.4591 186.91 96.9854L186.796 96.7871L184.257 97.9653C183.979 98.1745 183.753 98.4455 183.598 98.7569C183.442 99.0684 183.361 99.4117 183.361 99.7598V118.848C183.361 119.249 183.469 119.643 183.672 119.988C183.876 120.334 184.168 120.619 184.518 120.813C184.869 121.007 185.265 121.104 185.665 121.093C186.066 121.082 186.456 120.964 186.796 120.751V120.751L186.825 120.718C187.017 120.529 187.169 120.304 187.272 120.055C187.376 119.806 187.427 119.539 187.425 119.269C187.423 119 187.366 118.734 187.258 118.487C187.151 118.24 186.995 118.017 186.799 117.832H186.799Z" fill="#F6F6F6" stroke="#575D68" stroke-width="0.4" stroke-miterlimit="10"/>
<path d="M172.282 149.299L145.615 164.764" stroke="#575D68" stroke-width="0.4" stroke-miterlimit="10"/>
<path d="M172.282 149.299L145.615 164.764" stroke="#575D68" stroke-width="0.4" stroke-miterlimit="10"/>
<path d="M158.948 141.508L132.281 156.973" stroke="#575D68" stroke-width="0.4" stroke-miterlimit="10"/>
<path d="M152.354 168.551L179.118 153.176" stroke="#575D68" stroke-width="0.4" stroke-miterlimit="10"/>
<path d="M185.766 157.098L159.107 172.489" stroke="#575D68" stroke-width="0.4" stroke-miterlimit="10"/>
<path d="M192.413 160.855L165.754 176.247" stroke="#575D68" stroke-width="0.4" stroke-miterlimit="10"/>
<path d="M199.095 164.752L172.437 180.144" stroke="#575D68" stroke-width="0.4" stroke-miterlimit="10"/>
<path d="M199.131 172.447L179.119 184.001" stroke="#575D68" stroke-width="0.4" stroke-miterlimit="10"/>
<path d="M199.132 180.174L185.767 187.89" stroke="#575D68" stroke-width="0.4" stroke-miterlimit="10"/>
<path d="M199.131 187.859L192.411 191.739" stroke="#575D68" stroke-width="0.4" stroke-miterlimit="10"/>
<path d="M139.032 160.88L165.778 145.475" stroke="#575D68" stroke-width="0.4" stroke-miterlimit="10"/>
<path d="M132.326 157.013L159.035 141.362V29.1855" fill="#F6F6F6"/>
<path d="M132.326 157.013L159.035 141.362V29.1855" stroke="#575D68" stroke-width="0.4" stroke-miterlimit="10"/>
<path d="M238.757 174.855V203.168" stroke="#575D68" stroke-width="0.4" stroke-miterlimit="10"/>
<path d="M238.843 179.486C242.19 179.486 244.903 176.77 244.903 173.421C244.903 170.071 242.19 167.355 238.843 167.355C235.496 167.355 232.782 170.071 232.782 173.421C232.782 176.77 235.496 179.486 238.843 179.486Z" fill="#F6F6F6" stroke="#575D68" stroke-width="0.4" stroke-miterlimit="10"/>
<path d="M238.446 204.614C238.446 204.614 234.631 203.056 233.2 199.947C232.427 198.407 231.872 196.766 231.553 195.072C231.553 195.072 235.739 196.92 237.622 200.701C238.266 201.899 238.552 203.258 238.446 204.614V204.614Z" fill="#F6F6F6" stroke="#575D68" stroke-width="0.4" stroke-miterlimit="10"/>
<path d="M238.609 204.613C238.609 204.613 237.019 200.809 238.208 197.599C238.752 195.964 239.522 194.413 240.495 192.99C240.495 192.99 242.142 197.261 240.797 201.266C240.403 202.568 239.644 203.73 238.609 204.613V204.613Z" fill="#F6F6F6" stroke="#575D68" stroke-width="0.4" stroke-miterlimit="10"/>
<path d="M238.756 204.299C238.756 204.299 240.044 200.382 243.043 198.736C244.524 197.857 246.121 197.189 247.787 196.752C247.787 196.752 246.237 201.059 242.599 203.203C241.45 203.929 240.115 204.31 238.756 204.299V204.299Z" fill="#F6F6F6" stroke="#575D68" stroke-width="0.4" stroke-miterlimit="10"/>
<path d="M261.863 162.291V190.603" stroke="#575D68" stroke-width="0.4" stroke-miterlimit="10"/>
<path d="M261.949 166.921C265.296 166.921 268.01 164.206 268.01 160.856C268.01 157.506 265.296 154.791 261.949 154.791C258.602 154.791 255.889 157.506 255.889 160.856C255.889 164.206 258.602 166.921 261.949 166.921Z" fill="#F6F6F6" stroke="#575D68" stroke-width="0.4" stroke-miterlimit="10"/>
<path d="M261.554 192.05C261.554 192.05 257.739 190.491 256.307 187.383C255.534 185.842 254.98 184.202 254.66 182.508C254.66 182.508 258.846 184.355 260.729 188.136C261.373 189.335 261.659 190.693 261.554 192.05V192.05Z" fill="#F6F6F6" stroke="#575D68" stroke-width="0.4" stroke-miterlimit="10"/>
<path d="M261.717 192.048C261.717 192.048 260.126 188.244 261.315 185.035C261.859 183.4 262.629 181.848 263.602 180.426C263.602 180.426 265.25 184.697 263.904 188.701C263.51 190.004 262.751 191.165 261.717 192.048V192.048Z" fill="#F6F6F6" stroke="#575D68" stroke-width="0.4" stroke-miterlimit="10"/>
<path d="M261.863 191.735C261.863 191.735 263.151 187.817 266.15 186.171C267.632 185.292 269.228 184.625 270.894 184.188C270.894 184.188 269.344 188.495 265.707 190.639C264.557 191.365 263.223 191.745 261.863 191.735V191.735Z" fill="#F6F6F6" stroke="#575D68" stroke-width="0.4" stroke-miterlimit="10"/>
<path d="M285.589 147.814V176.126" stroke="#575D68" stroke-width="0.4" stroke-miterlimit="10"/>
<path d="M285.675 152.445C289.022 152.445 291.735 149.729 291.735 146.38C291.735 143.03 289.022 140.314 285.675 140.314C282.328 140.314 279.614 143.03 279.614 146.38C279.614 149.729 282.328 152.445 285.675 152.445Z" fill="#F6F6F6" stroke="#575D68" stroke-width="0.4" stroke-miterlimit="10"/>
<path d="M285.279 177.573C285.279 177.573 281.464 176.015 280.033 172.906C279.26 171.366 278.705 169.725 278.386 168.031C278.386 168.031 282.572 169.879 284.455 173.66C285.099 174.858 285.385 176.217 285.279 177.573Z" fill="#F6F6F6" stroke="#575D68" stroke-width="0.4" stroke-miterlimit="10"/>
<path d="M285.441 177.572C285.441 177.572 283.85 173.768 285.039 170.558C285.583 168.923 286.353 167.372 287.326 165.949C287.326 165.949 288.973 170.22 287.628 174.224C287.234 175.527 286.475 176.689 285.441 177.572V177.572Z" fill="#F6F6F6" stroke="#575D68" stroke-width="0.4" stroke-miterlimit="10"/>
<path d="M285.589 177.258C285.589 177.258 286.877 173.341 289.876 171.695C291.357 170.816 292.954 170.148 294.62 169.711C294.62 169.711 293.07 174.018 289.432 176.162C288.283 176.888 286.948 177.269 285.589 177.258V177.258Z" fill="#F6F6F6" stroke="#575D68" stroke-width="0.4" stroke-miterlimit="10"/>
<path d="M310.391 133.496V161.808" stroke="#575D68" stroke-width="0.4" stroke-miterlimit="10"/>
<path d="M310.477 138.126C313.824 138.126 316.537 135.411 316.537 132.061C316.537 128.711 313.824 125.996 310.477 125.996C307.129 125.996 304.416 128.711 304.416 132.061C304.416 135.411 307.129 138.126 310.477 138.126Z" fill="#F6F6F6" stroke="#575D68" stroke-width="0.4" stroke-miterlimit="10"/>
<path d="M310.082 163.255C310.082 163.255 306.267 161.696 304.836 158.588C304.063 157.047 303.508 155.407 303.188 153.713C303.188 153.713 307.374 155.56 309.258 159.341C309.901 160.54 310.188 161.898 310.082 163.255V163.255Z" fill="#F6F6F6" stroke="#575D68" stroke-width="0.4" stroke-miterlimit="10"/>
<path d="M310.243 163.254C310.243 163.254 308.653 159.449 309.842 156.24C310.386 154.605 311.156 153.053 312.128 151.631C312.128 151.631 313.776 155.902 312.43 159.906C312.037 161.209 311.278 162.371 310.243 163.254V163.254Z" fill="#F6F6F6" stroke="#575D68" stroke-width="0.4" stroke-miterlimit="10"/>
<path d="M310.392 162.94C310.392 162.94 311.679 159.022 314.678 157.377C316.16 156.498 317.757 155.83 319.423 155.393C319.423 155.393 317.873 159.7 314.235 161.844C313.085 162.57 311.751 162.95 310.392 162.94V162.94Z" fill="#F6F6F6" stroke="#575D68" stroke-width="0.4" stroke-miterlimit="10"/>
<path d="M334.24 119.711V148.023" stroke="#575D68" stroke-width="0.4" stroke-miterlimit="10"/>
<path d="M334.326 124.341C337.673 124.341 340.387 121.626 340.387 118.276C340.387 114.926 337.673 112.211 334.326 112.211C330.979 112.211 328.266 114.926 328.266 118.276C328.266 121.626 330.979 124.341 334.326 124.341Z" fill="#F6F6F6" stroke="#575D68" stroke-width="0.4" stroke-miterlimit="10"/>
<path d="M333.931 149.47C333.931 149.47 330.116 147.911 328.684 144.803C327.911 143.262 327.357 141.621 327.037 139.928C327.037 139.928 331.223 141.775 333.106 145.556C333.75 146.755 334.036 148.113 333.931 149.47V149.47Z" fill="#F6F6F6" stroke="#575D68" stroke-width="0.4" stroke-miterlimit="10"/>
<path d="M334.094 149.468C334.094 149.468 332.503 145.664 333.692 142.455C334.236 140.819 335.006 139.268 335.979 137.846C335.979 137.846 337.627 142.117 336.281 146.121C335.887 147.423 335.128 148.585 334.094 149.468Z" fill="#F6F6F6" stroke="#575D68" stroke-width="0.4" stroke-miterlimit="10"/>
<path d="M334.24 149.154C334.24 149.154 335.528 145.237 338.527 143.591C340.008 142.712 341.605 142.045 343.271 141.607C343.271 141.607 341.721 145.915 338.084 148.059C336.934 148.785 335.6 149.165 334.24 149.154V149.154Z" fill="#F6F6F6" stroke="#575D68" stroke-width="0.4" stroke-miterlimit="10"/>
<path d="M137.743 93.6474V111.032L138.399 111.455L147.045 105.727L147.701 88.6827L147.045 88.2598L137.743 93.6474Z" fill="#F6F6F6" stroke="#575D68" stroke-width="0.4" stroke-miterlimit="10"/>
<path d="M138.399 94.0693V111.454L147.701 106.149V88.6816L138.399 94.0693Z" fill="#F6F6F6" stroke="#575D68" stroke-width="0.4" stroke-miterlimit="10"/>
<path d="M143.957 94.8393L142.217 95.8299L142.233 93.3539L143.974 92.3633L143.957 94.8393Z" fill="#F6F6F6" stroke="#575D68" stroke-width="0.4" stroke-miterlimit="10"/>
<path d="M143.728 94.3707C143.995 93.7525 143.929 93.1285 143.58 92.977C143.23 92.8254 142.73 93.2038 142.462 93.822C142.195 94.4402 142.261 95.0642 142.61 95.2157C142.96 95.3673 143.46 94.9889 143.728 94.3707Z" fill="#F6F6F6" stroke="#575D68" stroke-width="0.4" stroke-miterlimit="10"/>
<path d="M143.5 94.2709C143.67 93.8767 143.628 93.4789 143.405 93.3823C143.182 93.2857 142.863 93.5269 142.693 93.9211C142.522 94.3152 142.564 94.7131 142.787 94.8097C143.01 94.9063 143.329 94.6651 143.5 94.2709Z" fill="#575D68"/>
<path d="M141.272 94.5495L141.266 95.6112L142.22 95.5117L142.233 93.6719L141.272 94.5495Z" fill="#F6F6F6" stroke="#575D68" stroke-width="0.4" stroke-miterlimit="10"/>
<path d="M144.927 92.4688L144.92 93.5304L143.96 94.521L143.971 92.6812L144.927 92.4688Z" fill="#F6F6F6" stroke="#575D68" stroke-width="0.4" stroke-miterlimit="10"/>
<path d="M147.769 94.7373L138.41 100.064L138.416 99.0923L147.776 93.7656L147.769 94.7373Z" fill="#F6F6F6" stroke="#575D68" stroke-width="0.4" stroke-miterlimit="10"/>
<path d="M144.023 99.0211L143.112 99.5394L143.12 98.3289L144.03 97.8105L144.023 99.0211Z" fill="#F6F6F6" stroke="#575D68" stroke-width="0.4" stroke-miterlimit="10"/>
<path d="M145.226 98.3357L144.315 98.8541L144.324 97.6434L145.234 97.125L145.226 98.3357Z" fill="#F6F6F6" stroke="#575D68" stroke-width="0.4" stroke-miterlimit="10"/>
<path d="M146.432 97.6499L145.521 98.1683L145.529 96.9578L146.44 96.4395L146.432 97.6499Z" fill="#F6F6F6" stroke="#575D68" stroke-width="0.4" stroke-miterlimit="10"/>
<path d="M144.012 100.517L143.102 101.036L143.11 99.8249L144.021 99.3066L144.012 100.517Z" fill="#F6F6F6" stroke="#575D68" stroke-width="0.4" stroke-miterlimit="10"/>
<path d="M145.216 99.8316L144.306 100.35L144.313 99.1394L145.225 98.6211L145.216 99.8316Z" fill="#F6F6F6" stroke="#575D68" stroke-width="0.4" stroke-miterlimit="10"/>
<path d="M146.422 99.1461L145.511 99.6644L145.519 98.4539L146.43 97.9355L146.422 99.1461Z" fill="#F6F6F6" stroke="#575D68" stroke-width="0.4" stroke-miterlimit="10"/>
<path d="M144.003 102.062L143.092 102.58L143.1 101.37L144.011 100.852L144.003 102.062Z" fill="#F6F6F6" stroke="#575D68" stroke-width="0.4" stroke-miterlimit="10"/>
<path d="M145.206 101.375L144.295 101.893L144.303 100.682L145.214 100.164L145.206 101.375Z" fill="#F6F6F6" stroke="#575D68" stroke-width="0.4" stroke-miterlimit="10"/>
<path d="M146.412 100.69L145.501 101.208L145.509 99.9968L146.42 99.4785L146.412 100.69Z" fill="#F6F6F6" stroke="#575D68" stroke-width="0.4" stroke-miterlimit="10"/>
<path d="M143.992 103.711L143.081 104.229L143.088 103.018L143.999 102.5L143.992 103.711Z" fill="#F6F6F6" stroke="#575D68" stroke-width="0.4" stroke-miterlimit="10"/>
<path d="M142.846 104.361L141.936 104.879L141.944 103.669L142.855 103.15L142.846 104.361Z" fill="#F6F6F6" stroke="#575D68" stroke-width="0.4" stroke-miterlimit="10"/>
<path d="M141.649 105.043L139.657 106.177L139.665 104.966L141.657 103.832L141.649 105.043Z" fill="#F6F6F6" stroke="#575D68" stroke-width="0.4" stroke-miterlimit="10"/>
<path d="M145.196 103.025L144.285 103.543L144.293 102.333L145.204 101.814L145.196 103.025Z" fill="#F6F6F6" stroke="#575D68" stroke-width="0.4" stroke-miterlimit="10"/>
<path d="M146.401 102.34L145.49 102.858L145.498 101.648L146.408 101.129L146.401 102.34Z" fill="#F6F6F6" stroke="#575D68" stroke-width="0.4" stroke-miterlimit="10"/>
<path d="M142.664 102.498L139.859 104.094L139.882 100.681L142.686 99.084L142.664 102.498Z" fill="#F6F6F6" stroke="#575D68" stroke-width="0.4" stroke-miterlimit="10"/>
<path d="M141.659 106.085L139.637 107.236L139.639 106.965L141.661 105.814L141.659 106.085Z" fill="#575D68"/>
<path d="M141.655 106.675L139.633 107.825L139.634 107.555L141.657 106.404L141.655 106.675Z" fill="#575D68"/>
<path d="M141.65 107.263L139.628 108.414L139.63 108.143L141.652 106.992L141.65 107.263Z" fill="#575D68"/>
<path d="M141.646 107.853L139.624 109.003L139.626 108.733L141.648 107.582L141.646 107.853Z" fill="#575D68"/>
<path d="M141.644 108.441L139.622 109.592L139.623 109.321L141.646 108.17L141.644 108.441Z" fill="#575D68"/>
<path d="M141.641 109.03L139.618 110.181L139.62 109.911L141.642 108.76L141.641 109.03Z" fill="#575D68"/>
<path d="M146.376 106.335L141.911 108.876L141.932 105.661L146.397 103.119L146.376 106.335Z" fill="#575D68"/>
<path d="M145.241 96.1768L141.103 98.5316L141.109 97.5606L145.247 95.2051L145.241 96.1768Z" fill="#575D68"/>
<path d="M147.772 94.3252L145.091 95.851L145.092 95.7035L147.773 94.1777L147.772 94.3252Z" fill="#575D68"/>
<path d="M141.165 98.0807L138.412 99.6479L138.413 99.5105L141.165 97.9434L141.165 98.0807Z" fill="#575D68"/>
<path d="M137.743 93.6474V111.032L138.399 111.455L147.045 105.727L147.701 88.6827L147.045 88.2598L137.743 93.6474Z" fill="#F6F6F6" stroke="#575D68" stroke-width="0.4" stroke-miterlimit="10"/>
<path d="M138.399 94.0693V111.454L147.701 106.149V88.6816L138.399 94.0693Z" fill="#F6F6F6" stroke="#575D68" stroke-width="0.4" stroke-miterlimit="10"/>
<path d="M143.957 94.8393L142.217 95.8299L142.233 93.3539L143.974 92.3633L143.957 94.8393Z" fill="#F6F6F6" stroke="#575D68" stroke-width="0.4" stroke-miterlimit="10"/>
<path d="M143.728 94.3707C143.995 93.7525 143.929 93.1285 143.58 92.977C143.23 92.8254 142.73 93.2038 142.462 93.822C142.195 94.4402 142.261 95.0642 142.61 95.2157C142.96 95.3673 143.46 94.9889 143.728 94.3707Z" fill="#F6F6F6" stroke="#575D68" stroke-width="0.4" stroke-miterlimit="10"/>
<path d="M143.5 94.2709C143.67 93.8767 143.628 93.4789 143.405 93.3823C143.182 93.2857 142.863 93.5269 142.693 93.9211C142.522 94.3152 142.564 94.7131 142.787 94.8097C143.01 94.9063 143.329 94.6651 143.5 94.2709Z" fill="#FF4F12"/>
<path d="M141.272 94.5495L141.266 95.6112L142.22 95.5117L142.233 93.6719L141.272 94.5495Z" fill="#F6F6F6" stroke="#575D68" stroke-width="0.4" stroke-miterlimit="10"/>
<path d="M144.927 92.4688L144.92 93.5304L143.96 94.521L143.971 92.6812L144.927 92.4688Z" fill="#F6F6F6" stroke="#575D68" stroke-width="0.4" stroke-miterlimit="10"/>
<path d="M147.769 94.7373L138.41 100.064L138.416 99.0923L147.776 93.7656L147.769 94.7373Z" fill="#F6F6F6" stroke="#575D68" stroke-width="0.4" stroke-miterlimit="10"/>
<path d="M144.023 99.0211L143.112 99.5394L143.12 98.3289L144.03 97.8105L144.023 99.0211Z" fill="#F6F6F6" stroke="#575D68" stroke-width="0.4" stroke-miterlimit="10"/>
<path d="M145.226 98.3357L144.315 98.8541L144.324 97.6434L145.234 97.125L145.226 98.3357Z" fill="#F6F6F6" stroke="#575D68" stroke-width="0.4" stroke-miterlimit="10"/>
<path d="M146.432 97.6499L145.521 98.1683L145.529 96.9578L146.44 96.4395L146.432 97.6499Z" fill="#F6F6F6" stroke="#575D68" stroke-width="0.4" stroke-miterlimit="10"/>
<path d="M144.012 100.517L143.102 101.036L143.11 99.8249L144.021 99.3066L144.012 100.517Z" fill="#F6F6F6" stroke="#575D68" stroke-width="0.4" stroke-miterlimit="10"/>
<path d="M145.216 99.8316L144.306 100.35L144.313 99.1394L145.225 98.6211L145.216 99.8316Z" fill="#F6F6F6" stroke="#575D68" stroke-width="0.4" stroke-miterlimit="10"/>
<path d="M146.422 99.1461L145.511 99.6644L145.519 98.4539L146.43 97.9355L146.422 99.1461Z" fill="#F6F6F6" stroke="#575D68" stroke-width="0.4" stroke-miterlimit="10"/>
<path d="M144.003 102.062L143.092 102.58L143.1 101.37L144.011 100.852L144.003 102.062Z" fill="#F6F6F6" stroke="#575D68" stroke-width="0.4" stroke-miterlimit="10"/>
<path d="M145.206 101.375L144.295 101.893L144.303 100.682L145.214 100.164L145.206 101.375Z" fill="#F6F6F6" stroke="#575D68" stroke-width="0.4" stroke-miterlimit="10"/>
<path d="M146.412 100.69L145.501 101.208L145.509 99.9968L146.42 99.4785L146.412 100.69Z" fill="#F6F6F6" stroke="#575D68" stroke-width="0.4" stroke-miterlimit="10"/>
<path d="M143.992 103.711L143.081 104.229L143.088 103.018L143.999 102.5L143.992 103.711Z" fill="#F6F6F6" stroke="#575D68" stroke-width="0.4" stroke-miterlimit="10"/>
<path d="M142.846 104.361L141.936 104.879L141.944 103.669L142.855 103.15L142.846 104.361Z" fill="#F6F6F6" stroke="#575D68" stroke-width="0.4" stroke-miterlimit="10"/>
<path d="M141.649 105.043L139.657 106.177L139.665 104.966L141.657 103.832L141.649 105.043Z" fill="#F6F6F6" stroke="#575D68" stroke-width="0.4" stroke-miterlimit="10"/>
<path d="M145.196 103.025L144.285 103.543L144.293 102.333L145.204 101.814L145.196 103.025Z" fill="#F6F6F6" stroke="#575D68" stroke-width="0.4" stroke-miterlimit="10"/>
<path d="M146.401 102.34L145.49 102.858L145.498 101.648L146.408 101.129L146.401 102.34Z" fill="#F6F6F6" stroke="#575D68" stroke-width="0.4" stroke-miterlimit="10"/>
<path d="M142.664 102.498L139.859 104.094L139.882 100.681L142.686 99.084L142.664 102.498Z" fill="#F6F6F6" stroke="#575D68" stroke-width="0.4" stroke-miterlimit="10"/>
<path d="M141.659 106.085L139.637 107.236L139.639 106.965L141.661 105.814L141.659 106.085Z" fill="#575D68"/>
<path d="M141.655 106.675L139.633 107.825L139.634 107.555L141.657 106.404L141.655 106.675Z" fill="#575D68"/>
<path d="M141.65 107.263L139.628 108.414L139.63 108.143L141.652 106.992L141.65 107.263Z" fill="#575D68"/>
<path d="M141.646 107.853L139.624 109.003L139.626 108.733L141.648 107.582L141.646 107.853Z" fill="#575D68"/>
<path d="M141.644 108.441L139.622 109.592L139.623 109.321L141.646 108.17L141.644 108.441Z" fill="#575D68"/>
<path d="M141.641 109.03L139.618 110.181L139.62 109.911L141.642 108.76L141.641 109.03Z" fill="#575D68"/>
<path d="M146.376 106.335L141.911 108.876L141.932 105.661L146.397 103.119L146.376 106.335Z" fill="#575D68"/>
<path d="M145.241 96.1768L141.103 98.5316L141.109 97.5606L145.247 95.2051L145.241 96.1768Z" fill="#575D68"/>
<path d="M147.772 94.3252L145.091 95.851L145.092 95.7035L147.773 94.1777L147.772 94.3252Z" fill="#575D68"/>
<path d="M141.165 98.0807L138.412 99.6479L138.413 99.5105L141.165 97.9434L141.165 98.0807Z" fill="#575D68"/>
<path d="M162.932 93.5115C162.191 94.3248 161.271 94.9545 160.245 95.3507C160.49 94.2753 161 93.2783 161.728 92.4505C162.457 91.6227 163.38 90.9905 164.415 90.6113C164.152 91.6801 163.645 92.6729 162.932 93.5115V93.5115Z" fill="#F6F6F6" stroke="#575D68" stroke-width="0.4" stroke-miterlimit="10"/>
<path d="M162.267 93.249C161.797 94.2442 161.102 95.1163 160.238 95.7966C160.156 94.6966 160.351 93.5938 160.805 92.5885C161.258 91.5832 161.956 90.7075 162.834 90.041C162.896 91.1399 162.702 92.2381 162.267 93.249V93.249Z" fill="#F6F6F6" stroke="#575D68" stroke-width="0.4" stroke-miterlimit="10"/>
<path d="M169.935 105.409L166.072 103.219L163.296 101.132H161.662L161.252 101.645L159.543 101.132C159.543 101.132 159.041 101.011 158.961 101.132C158.828 101.334 159.345 102.022 159.345 102.022L161.286 102.911L162.225 104.099L163.296 105.409L166.927 107.564" fill="#F6F6F6"/>
<path d="M169.935 105.409L166.072 103.219L163.296 101.132H161.662L161.252 101.645L159.543 101.132C159.543 101.132 159.041 101.011 158.961 101.132C158.828 101.334 159.345 102.022 159.345 102.022L161.286 102.911L162.225 104.099L163.296 105.409L166.927 107.564" stroke="#575D68" stroke-width="0.4" stroke-miterlimit="10"/>
<path d="M160.643 102.617L160.875 103.878L162.224 104.1" fill="#F6F6F6"/>
<path d="M160.643 102.617L160.875 103.878L162.224 104.1" stroke="#575D68" stroke-width="0.4" stroke-miterlimit="10"/>
<path d="M149.28 96.6621L157.169 116.442L165.058 96.6621H149.28Z" fill="#F6F6F6" stroke="#575D68" stroke-width="0.4" stroke-miterlimit="10"/>
<path d="M157.169 100.471C161.525 100.471 165.057 98.7654 165.057 96.662C165.057 94.5586 161.525 92.8535 157.169 92.8535C152.812 92.8535 149.28 94.5586 149.28 96.662C149.28 98.7654 152.812 100.471 157.169 100.471Z" fill="#F6F6F6" stroke="#575D68" stroke-width="0.4" stroke-miterlimit="10"/>
<path d="M149.281 96.6621L157.17 116.442L165.059 96.6621H149.281Z" fill="#F6F6F6" stroke="#575D68" stroke-width="0.4" stroke-miterlimit="10"/>
<path d="M157.17 100.471C161.526 100.471 165.058 98.7654 165.058 96.662C165.058 94.5586 161.526 92.8535 157.17 92.8535C152.813 92.8535 149.281 94.5586 149.281 96.662C149.281 98.7654 152.813 100.471 157.17 100.471Z" fill="#F6F6F6" stroke="#575D68" stroke-width="0.4" stroke-miterlimit="10"/>
<path d="M163.054 106.729C164.027 105.313 165.448 104.264 167.088 103.751L170.368 102.727C170.774 102.352 172.424 101.426 172.243 100.741C172.074 100.107 169.293 99.6298 168.688 99.5766C168.373 99.5845 168.062 99.5108 167.785 99.3625C167.127 98.9043 167.417 97.6754 167.254 97.2879C166.897 96.321 166.807 95.2752 166.996 94.2615C167.575 90.2854 169.942 86.2743 175.02 87.7409C175.11 87.7661 175.197 87.7997 175.281 87.8415C175.715 88.0845 176.092 88.4184 176.385 88.8204C176.678 89.2225 176.882 89.6831 176.981 90.171C177.788 93.7291 173.38 99.622 178.28 101.403C179.907 101.995 181.977 104.362 182.273 107.321C182.569 110.28 177.405 125.523 177.405 125.523C177.405 125.523 179.02 136.024 178.429 139.575C177.838 143.126 177.246 147.268 177.246 147.268L178.612 161.732L177.866 162.408L179.057 166.443C179.199 167.944 178.757 168.624 176.279 169.429L176.216 169.627C176.036 170.188 175.688 170.68 175.22 171.037C174.752 171.394 174.186 171.599 173.598 171.624L173.065 171.495C171.503 171.118 169.872 171.134 168.319 171.542L166.92 171.91C166.156 171.968 165.389 171.865 164.667 171.608C163.946 171.351 163.286 170.946 162.73 170.419C162.563 170.251 162.442 170.042 162.379 169.813C162.316 169.584 162.314 169.343 162.371 169.112C162.429 168.882 162.545 168.671 162.708 168.498C162.872 168.326 163.077 168.199 163.303 168.129L167.238 166.931C167.815 166.739 168.305 166.35 168.623 165.832C168.941 165.313 169.065 164.699 168.974 164.098C168.836 163.21 168.636 162.332 168.376 161.472C167.489 158.513 161.575 151.707 161.575 151.707L162.312 134.389L163.186 124.385L163.054 106.729Z" fill="#F6F6F6" stroke="#575D68" stroke-width="0.4" stroke-miterlimit="10"/>
<path d="M167.977 114.378L165.779 115.59C165.089 115.97 164.398 116.349 163.699 116.711C162.199 117.525 160.616 118.174 158.977 118.648C158.088 118.887 155.293 119.636 154.733 118.691C153.776 117.078 153.949 114.333 153.811 112.533C153.634 110.224 154.058 107.895 153.058 105.729C153.022 105.638 152.969 105.556 152.902 105.486C152.817 105.423 152.725 105.369 152.627 105.327C152.379 105.158 152.178 104.928 152.045 104.659C151.808 104.268 151.513 103.882 151.297 103.484C151.101 102.962 150.943 102.427 150.824 101.883C150.494 101.255 150.358 100.543 150.435 99.8379C151.003 100.684 151.762 101.384 152.651 101.881C152.99 102.036 153.321 102.21 153.642 102.4C154.965 103.29 155.098 105.155 155.478 106.552L157.65 113.765L163.697 105.995" fill="#F6F6F6"/>
<path d="M167.977 114.378L165.779 115.59C165.089 115.97 164.398 116.349 163.699 116.711C162.199 117.525 160.616 118.174 158.977 118.648C158.088 118.887 155.293 119.636 154.733 118.691C153.776 117.078 153.949 114.333 153.811 112.533C153.634 110.224 154.058 107.895 153.058 105.729C153.022 105.638 152.969 105.556 152.902 105.486C152.817 105.423 152.725 105.369 152.627 105.327C152.379 105.158 152.178 104.928 152.045 104.659C151.808 104.268 151.513 103.882 151.297 103.484C151.101 102.962 150.943 102.427 150.824 101.883C150.494 101.255 150.358 100.543 150.435 99.8379C151.003 100.684 151.762 101.384 152.651 101.881C152.99 102.036 153.321 102.21 153.642 102.4C154.965 103.29 155.098 105.155 155.478 106.552L157.65 113.765L163.697 105.995" stroke="#575D68" stroke-width="0.4" stroke-miterlimit="10"/>
<path d="M155.012 105.292L155.02 101.533C155.02 101.533 154.898 100.866 154.71 100.828C154.567 100.798 154.284 101.226 154.284 101.226L153.848 102.811" fill="#F6F6F6"/>
<path d="M155.012 105.292L155.02 101.533C155.02 101.533 154.898 100.866 154.71 100.828C154.567 100.798 154.284 101.226 154.284 101.226L153.848 102.811" stroke="#575D68" stroke-width="0.4" stroke-miterlimit="10"/>
<path d="M168.975 164.098C170.164 164.241 171.367 164.241 172.556 164.098C173.545 163.759 174.436 163.186 175.154 162.426L169.958 149.954C169.958 149.954 173.969 139.63 173.878 139.162" fill="#F6F6F6"/>
<path d="M168.975 164.098C170.164 164.241 171.367 164.241 172.556 164.098C173.545 163.759 174.436 163.186 175.154 162.426L169.958 149.954C169.958 149.954 173.969 139.63 173.878 139.162" stroke="#575D68" stroke-width="0.4" stroke-miterlimit="10"/>
<path d="M157.169 95.4936C158.443 95.4936 159.477 94.4597 159.477 93.1843C159.477 91.9089 158.443 90.875 157.169 90.875C155.894 90.875 154.861 91.9089 154.861 93.1843C154.861 94.4597 155.894 95.4936 157.169 95.4936Z" fill="#DDDEDF" stroke="#575D68" stroke-width="0.4" stroke-miterlimit="10"/>
<path d="M154.325 96.4587C155.6 96.4587 156.633 95.4247 156.633 94.1493C156.633 92.8738 155.6 91.8398 154.325 91.8398C153.051 91.8398 152.018 92.8738 152.018 94.1493C152.018 95.4247 153.051 96.4587 154.325 96.4587Z" fill="#DDDEDF" stroke="#575D68" stroke-width="0.4" stroke-miterlimit="10"/>
<path d="M159.918 96.2809C161.192 96.2809 162.226 95.247 162.226 93.9715C162.226 92.6961 161.192 91.6621 159.918 91.6621C158.644 91.6621 157.61 92.6961 157.61 93.9715C157.61 95.247 158.644 96.2809 159.918 96.2809Z" fill="#DDDEDF" stroke="#575D68" stroke-width="0.4" stroke-miterlimit="10"/>
<path d="M151.589 98.5893C152.863 98.5893 153.897 97.5554 153.897 96.28C153.897 95.0046 152.863 93.9707 151.589 93.9707C150.314 93.9707 149.281 95.0046 149.281 96.28C149.281 97.5554 150.314 98.5893 151.589 98.5893Z" fill="#DDDEDF" stroke="#575D68" stroke-width="0.4" stroke-miterlimit="10"/>
<path d="M162.64 98.5893C163.914 98.5893 164.947 97.5554 164.947 96.28C164.947 95.0046 163.914 93.9707 162.64 93.9707C161.365 93.9707 160.332 95.0046 160.332 96.28C160.332 97.5554 161.365 98.5893 162.64 98.5893Z" fill="#DDDEDF" stroke="#575D68" stroke-width="0.4" stroke-miterlimit="10"/>
<path d="M158.143 94.7402C157.859 95.8035 157.331 96.7861 156.603 97.6103C156.326 96.5428 156.32 95.4229 156.586 94.3526C156.852 93.2823 157.382 92.2956 158.127 91.4824C158.384 92.5524 158.39 93.6677 158.143 94.7402V94.7402Z" fill="#F6F6F6" stroke="#575D68" stroke-width="0.4" stroke-miterlimit="10"/>
<path d="M157.433 94.8125C157.473 95.9124 157.257 97.0066 156.802 98.0086C156.224 97.0694 155.89 96.0005 155.831 94.8991C155.771 93.7978 155.988 92.6992 156.461 91.7031C157.022 92.6502 157.354 93.7147 157.433 94.8125V94.8125Z" fill="#F6F6F6" stroke="#575D68" stroke-width="0.4" stroke-miterlimit="10"/>
<path d="M163.884 99.0476C162.863 99.4576 161.761 99.6245 160.665 99.535C161.353 98.6732 162.245 97.9971 163.26 97.5685C164.276 97.1399 165.382 96.9723 166.479 97.081C165.778 97.9291 164.89 98.6023 163.884 99.0476V99.0476Z" fill="#F6F6F6" stroke="#575D68" stroke-width="0.4" stroke-miterlimit="10"/>
<path d="M155.058 99.228C156.332 99.228 157.365 98.1941 157.365 96.9186C157.365 95.6432 156.332 94.6094 155.058 94.6094C153.783 94.6094 152.75 95.6432 152.75 96.9186C152.75 98.1941 153.783 99.228 155.058 99.228Z" fill="#DDDEDF" stroke="#575D68" stroke-width="0.4" stroke-miterlimit="10"/>
<path d="M159.477 99.4741C160.751 99.4741 161.784 98.4402 161.784 97.1648C161.784 95.8894 160.751 94.8555 159.477 94.8555C158.202 94.8555 157.169 95.8894 157.169 97.1648C157.169 98.4402 158.202 99.4741 159.477 99.4741Z" fill="#DDDEDF" stroke="#575D68" stroke-width="0.4" stroke-miterlimit="10"/>
<path d="M157.285 100.468C157.287 99.7249 157.167 98.9861 156.93 98.2813C156.55 97.2485 155.935 96.3184 155.134 95.5645C154.975 96.6535 155.071 97.7647 155.416 98.81C155.624 99.3927 155.913 99.9432 156.275 100.445C156.569 100.461 156.866 100.471 157.169 100.471C157.208 100.471 157.246 100.469 157.285 100.468Z" fill="#F6F6F6" stroke="#575D68" stroke-width="0.4" stroke-miterlimit="10"/>
<path d="M156.376 98.7317C155.71 97.856 154.849 97.1476 153.862 96.6621C154.03 97.7499 154.448 98.7837 155.084 99.682C155.276 99.9392 155.488 100.181 155.718 100.405C156.189 100.447 156.673 100.472 157.17 100.472C157.205 100.472 157.238 100.469 157.272 100.469C157.061 99.849 156.759 99.2634 156.376 98.7317Z" fill="#F6F6F6" stroke="#575D68" stroke-width="0.4" stroke-miterlimit="10"/>
<path d="M162.843 98.6229C161.988 99.3147 160.983 99.798 159.909 100.034C160.314 99.0085 160.968 98.1001 161.813 97.392C162.658 96.684 163.667 96.1987 164.747 95.9805C164.326 96.9971 163.674 97.9017 162.843 98.6229Z" fill="#F6F6F6" stroke="#575D68" stroke-width="0.4" stroke-miterlimit="10"/>
<path d="M176.981 90.1703C176.884 89.6985 176.69 89.2519 176.412 88.8588C176.134 88.4657 175.778 88.1345 175.366 87.8862C174.819 87.6054 174.216 87.4539 173.602 87.4434C172.508 88.1633 171.493 88.9965 170.573 89.929C170.573 90.1375 171.023 92.1115 171.023 92.981C170.959 93.7848 170.808 94.5793 170.573 95.3506L171.473 95.9805C171.584 95.7034 171.801 95.4818 172.075 95.3638C172.349 95.2458 172.659 95.241 172.937 95.3506C173.946 95.763 173.834 98.3185 174.733 98.3064C175.165 98.2367 175.576 98.0705 175.935 97.8201C176.029 95.3759 177.473 92.3397 176.981 90.1703Z" fill="#F6F6F6" stroke="#575D68" stroke-width="0.4" stroke-miterlimit="10"/>
<path style="mix-blend-mode:multiply" d="M176.981 90.1703C176.884 89.6985 176.69 89.2519 176.412 88.8588C176.134 88.4657 175.778 88.1345 175.366 87.8862C174.819 87.6054 174.216 87.4539 173.602 87.4434C172.508 88.1633 171.493 88.9965 170.573 89.929C170.573 90.1375 171.023 92.1115 171.023 92.981C170.959 93.7848 170.808 94.5793 170.573 95.3506L171.473 95.9805C171.584 95.7034 171.801 95.4818 172.075 95.3638C172.349 95.2458 172.659 95.241 172.937 95.3506C173.946 95.763 173.834 98.3185 174.733 98.3064C175.165 98.2367 175.576 98.0705 175.935 97.8201C176.029 95.3759 177.473 92.3397 176.981 90.1703Z" fill="url(#paint0_linear_480_8246)"/>
<path d="M174.316 92.7203L172.135 92.068C171.097 91.8512 170.133 91.3693 169.336 90.669C168.975 90.2579 168.781 89.7264 168.791 89.1792C168.802 88.6321 169.017 88.1088 169.394 87.7124C169.883 87.2149 170.367 87.244 170.913 87.0684C171.568 86.8103 172.258 86.6535 172.96 86.6035C173.595 86.615 174.219 86.7696 174.786 87.0558C175.354 87.3421 175.849 87.7526 176.236 88.2569C177.05 89.2945 177.702 91.1585 177.266 92.4774C177.217 92.6541 177.124 92.8157 176.997 92.9474C176.869 93.0791 176.711 93.1769 176.536 93.2317C176.254 93.2728 175.966 93.2394 175.701 93.1347L174.316 92.7203Z" fill="#DDDEDF" stroke="#575D68" stroke-width="0.4" stroke-miterlimit="10"/>
<path d="M169.128 88.0449C169.163 88.4191 169.284 88.7801 169.481 89.0999C169.678 89.4197 169.947 89.6895 170.265 89.8885C171.296 90.4168 173.897 91.7042 175.651 91.703C176.223 91.6278 176.783 91.4801 177.318 91.2637" fill="#DDDEDF"/>
<path d="M169.128 88.0449C169.163 88.4191 169.284 88.7801 169.481 89.0999C169.678 89.4197 169.947 89.6895 170.265 89.8885C171.296 90.4168 173.897 91.7042 175.651 91.703C176.223 91.6278 176.783 91.4801 177.318 91.2637" stroke="#575D68" stroke-width="0.4" stroke-miterlimit="10"/>
<path d="M170.367 102.727C170.367 102.727 173.857 103.199 175.153 102.727C177.082 102.025 177.404 101.078 177.404 101.078" fill="#F6F6F6"/>
<path d="M170.367 102.727C170.367 102.727 173.857 103.199 175.153 102.727C177.082 102.025 177.404 101.078 177.404 101.078" stroke="#575D68" stroke-width="0.4" stroke-miterlimit="10"/>
<path d="M159.909 111.178C160.607 112.316 161.38 113.406 162.224 114.441C163.377 115.791 166.243 116.972 166.243 116.972L169.933 111.909" fill="#F6F6F6"/>
<path d="M159.909 111.178C160.607 112.316 161.38 113.406 162.224 114.441C163.377 115.791 166.243 116.972 166.243 116.972L169.933 111.909" stroke="#575D68" stroke-width="0.4" stroke-miterlimit="10"/>
<path style="mix-blend-mode:multiply" d="M182.273 107.321C182.263 107.224 182.247 107.129 182.233 107.033C175.742 110.569 173.059 112.514 171.93 117.59C170.63 123.441 166.479 128.954 166.479 128.954L178.397 133.974C178.08 129.911 177.405 125.522 177.405 125.522C177.405 125.522 182.569 110.28 182.273 107.321Z" fill="url(#paint1_linear_480_8246)"/>
<path style="mix-blend-mode:multiply" d="M179.057 166.443L177.865 162.408L178.612 161.732L177.246 147.268C177.246 147.268 177.837 143.126 178.428 139.575C178.586 138.187 178.607 136.788 178.493 135.396C177.245 136.037 176.188 136.998 175.431 138.18C173.122 141.554 169.957 149.954 169.957 149.954L175.744 163.495L176.144 169.8C176.167 169.742 176.196 169.687 176.215 169.627L176.278 169.43C178.756 168.624 179.199 167.944 179.057 166.443Z" fill="url(#paint2_linear_480_8246)"/>
<path d="M162.33 134.86C162.535 134.86 170.042 135.085 172.556 134.86C174.539 134.58 176.482 134.07 178.346 133.34" fill="#F6F6F6"/>
<path d="M162.33 134.86C162.535 134.86 170.042 135.085 172.556 134.86C174.539 134.58 176.482 134.07 178.346 133.34" stroke="#575D68" stroke-width="0.4" stroke-miterlimit="10"/>
<path d="M174.585 162.951C174.563 162.97 175.548 166.504 175.745 167.038C175.942 167.573 176.279 169.429 176.279 169.429" fill="#F6F6F6"/>
<path d="M174.585 162.951C174.563 162.97 175.548 166.504 175.745 167.038C175.942 167.573 176.279 169.429 176.279 169.429" stroke="#575D68" stroke-width="0.4" stroke-miterlimit="10"/>
<path d="M164.977 167.619C164.977 167.619 166.048 167.77 165.654 168.754C165.261 169.739 165.514 170.301 166.329 170.329C167.144 170.357 168.914 169.879 170.91 167.798C172.906 165.716 174.086 164.873 174.451 165.716C174.817 166.56 172.934 168.838 173.749 169.176C174.564 169.514 175.744 167.038 175.744 167.038" fill="#F6F6F6"/>
<path d="M164.977 167.619C164.977 167.619 166.048 167.77 165.654 168.754C165.261 169.739 165.514 170.301 166.329 170.329C167.144 170.357 168.914 169.879 170.91 167.798C172.906 165.716 174.086 164.873 174.451 165.716C174.817 166.56 172.934 168.838 173.749 169.176C174.564 169.514 175.744 167.038 175.744 167.038" stroke="#575D68" stroke-width="0.4" stroke-miterlimit="10"/>
<g style="mix-blend-mode:multiply">
<path d="M143.199 94.0124L169.2 89C169.2 89 169.999 90.9751 169.999 93.3734C169.999 100.357 166.644 103.813 166.644 103.813L166.084 104.095C165.285 104.448 164.646 104.871 164.007 105.436L163.368 106L142.001 95L143.199 94.0124Z" fill="url(#paint3_linear_480_8246)"/>
</g>
<circle cx="155.5" cy="96.5" r="16.5" stroke="#FF4F12" stroke-width="2"/>
</g>
</g>
<circle cx="67.5" cy="185.5" r="57.5" fill="#FF4F12"/>
<path d="M49.1309 159.481V221.89L51.5687 223.597L82.7733 202.875L85.2112 141.441L82.7733 139.979L49.1309 159.481Z" fill="#F6F6F6" stroke="#575D68" stroke-width="0.3909" stroke-miterlimit="10"/>
<path d="M51.5684 160.944V223.597L85.2108 204.338V141.441L51.5684 160.944Z" fill="#F6F6F6" stroke="#575D68" stroke-width="0.3909" stroke-miterlimit="10"/>
<path d="M71.5595 163.626L65.4648 167.283V158.263L71.8035 154.85L71.5595 163.626Z" fill="#F6F6F6" stroke="#575D68" stroke-width="0.3909" stroke-miterlimit="10"/>
<path d="M70.7017 161.757C71.665 159.533 71.4445 157.297 70.209 156.761C68.9736 156.226 67.1911 157.595 66.2277 159.819C65.2644 162.043 65.4849 164.28 66.7204 164.815C67.9558 165.35 69.7383 163.981 70.7017 161.757Z" fill="#F6F6F6" stroke="#575D68" stroke-width="0.3909" stroke-miterlimit="10"/>
<path d="M70.0309 161.468C70.6196 160.109 70.3957 158.703 69.5309 158.329C68.6661 157.954 67.4878 158.752 66.8991 160.111C66.3103 161.47 66.534 162.876 67.3988 163.251C68.2636 163.625 69.4422 162.827 70.0309 161.468Z" fill="#575D68"/>
<path d="M62.0526 162.652L61.8086 166.552L65.4654 166.065V159.482L62.0526 162.652Z" fill="#F6F6F6" stroke="#575D68" stroke-width="0.3909" stroke-miterlimit="10"/>
<path d="M75.2154 155.094V158.994L71.5586 162.407L71.8026 155.825L75.2154 155.094Z" fill="#F6F6F6" stroke="#575D68" stroke-width="0.3909" stroke-miterlimit="10"/>
<path d="M85.4542 163.381L51.5684 182.397V178.984L85.4542 159.725V163.381Z" fill="#F6F6F6" stroke="#575D68" stroke-width="0.3909" stroke-miterlimit="10"/>
<path d="M71.8021 178.74L68.6328 180.69V176.302L71.8021 174.352V178.74Z" fill="#F6F6F6" stroke="#575D68" stroke-width="0.3909" stroke-miterlimit="10"/>
<path d="M76.1908 176.302L73.0215 178.009V173.864L76.1908 171.914V176.302Z" fill="#F6F6F6" stroke="#575D68" stroke-width="0.3909" stroke-miterlimit="10"/>
<path d="M80.5788 173.865L77.166 175.571L77.41 171.183L80.5788 169.477V173.865Z" fill="#F6F6F6" stroke="#575D68" stroke-width="0.3909" stroke-miterlimit="10"/>
<path d="M71.8021 184.105L68.6328 186.055V181.667L71.8021 179.717V184.105Z" fill="#F6F6F6" stroke="#575D68" stroke-width="0.3909" stroke-miterlimit="10"/>
<path d="M76.1897 181.665L72.7764 183.616L73.0204 179.227L76.1897 177.277V181.665Z" fill="#F6F6F6" stroke="#575D68" stroke-width="0.3909" stroke-miterlimit="10"/>
<path d="M80.5788 179.228L77.166 180.934V176.79L80.5788 174.84V179.228Z" fill="#F6F6F6" stroke="#575D68" stroke-width="0.3909" stroke-miterlimit="10"/>
<path d="M71.802 189.712L68.3887 191.663L68.6327 187.275L71.802 185.324V189.712Z" fill="#F6F6F6" stroke="#575D68" stroke-width="0.3909" stroke-miterlimit="10"/>
<path d="M76.1897 187.273L72.7764 188.979V184.591L76.1897 182.885V187.273Z" fill="#F6F6F6" stroke="#575D68" stroke-width="0.3909" stroke-miterlimit="10"/>
<path d="M80.5788 184.836L77.166 186.542V182.154L80.5788 180.447V184.836Z" fill="#F6F6F6" stroke="#575D68" stroke-width="0.3909" stroke-miterlimit="10"/>
<path d="M71.802 195.562L68.3887 197.512V193.124L71.802 191.174V195.562Z" fill="#F6F6F6" stroke="#575D68" stroke-width="0.3909" stroke-miterlimit="10"/>
<path d="M67.6585 198L64.2451 199.95L64.4891 195.562L67.6585 193.611V198Z" fill="#F6F6F6" stroke="#575D68" stroke-width="0.3909" stroke-miterlimit="10"/>
<path d="M63.2713 200.437L56.2012 204.581V200.193L63.2713 196.049V200.437Z" fill="#F6F6F6" stroke="#575D68" stroke-width="0.3909" stroke-miterlimit="10"/>
<path d="M76.1897 193.125L72.7764 195.075V190.687L76.1897 188.736V193.125Z" fill="#F6F6F6" stroke="#575D68" stroke-width="0.3909" stroke-miterlimit="10"/>
<path d="M80.3353 190.685L77.166 192.635V188.247L80.5788 186.297L80.3353 190.685Z" fill="#F6F6F6" stroke="#575D68" stroke-width="0.3909" stroke-miterlimit="10"/>
<path d="M66.9261 191.174L56.9307 197.025V184.592L67.1695 178.984L66.9261 191.174Z" fill="#F6F6F6" stroke="#575D68" stroke-width="0.3909" stroke-miterlimit="10"/>
<path d="M63.2696 204.094L55.9561 208.239V207.263L63.2696 203.119V204.094Z" fill="#575D68"/>
<path d="M63.2696 206.29L55.9561 210.434V209.459L63.2696 205.314V206.29Z" fill="#575D68"/>
<path d="M63.2696 208.483L55.9561 212.627V211.652L63.2696 207.508V208.483Z" fill="#575D68"/>
<path d="M63.2696 210.432L55.9561 214.576V213.602L63.2696 209.457V210.432Z" fill="#575D68"/>
<path d="M63.2696 212.626L55.9561 216.77V215.795L63.2696 211.65V212.626Z" fill="#575D68"/>
<path d="M63.2696 214.821L55.9561 218.965V217.99L63.2696 213.846V214.821Z" fill="#575D68"/>
<path d="M80.3352 205.069L64.2451 214.333V202.631L80.3352 193.367V205.069Z" fill="#575D68"/>
<path d="M76.1914 168.503L61.3203 177.035V173.379L76.1914 165.09V168.503Z" fill="#575D68"/>
<path d="M85.4545 161.921L75.7031 167.284V166.796L85.4545 161.189V161.921Z" fill="#575D68"/>
<path d="M61.5638 175.327L51.5684 180.934V180.447L61.5638 174.84V175.327Z" fill="#575D68"/>
<defs>
<linearGradient id="paint0_linear_480_8246" x1="170.573" y1="92.8749" x2="177.083" y2="92.8749" gradientUnits="userSpaceOnUse">
<stop stop-color="#EAEAEA"/>
<stop offset="0.13909" stop-color="#EAEAEA" stop-opacity="0.98494"/>
<stop offset="0.26279" stop-color="#EBEBEB" stop-opacity="0.93862"/>
<stop offset="0.38074" stop-color="#EDEDED" stop-opacity="0.86078"/>
<stop offset="0.49507" stop-color="#EFEFEF" stop-opacity="0.75135"/>
<stop offset="0.60689" stop-color="#F2F2F2" stop-opacity="0.6101"/>
<stop offset="0.71679" stop-color="#F6F6F6" stop-opacity="0.43687"/>
<stop offset="0.82326" stop-color="#FAFAFA" stop-opacity="0.23535"/>
<stop offset="0.92785" stop-color="white" stop-opacity="0.01"/>
<stop offset="0.9296" stop-color="white" stop-opacity="0"/>
</linearGradient>
<linearGradient id="paint1_linear_480_8246" x1="166.479" y1="120.504" x2="182.285" y2="120.504" gradientUnits="userSpaceOnUse">
<stop stop-color="#EAEAEA"/>
<stop offset="0.13909" stop-color="#EAEAEA" stop-opacity="0.98494"/>
<stop offset="0.26279" stop-color="#EBEBEB" stop-opacity="0.93862"/>
<stop offset="0.38074" stop-color="#EDEDED" stop-opacity="0.86078"/>
<stop offset="0.49507" stop-color="#EFEFEF" stop-opacity="0.75135"/>
<stop offset="0.60689" stop-color="#F2F2F2" stop-opacity="0.6101"/>
<stop offset="0.71679" stop-color="#F6F6F6" stop-opacity="0.43687"/>
<stop offset="0.82326" stop-color="#FAFAFA" stop-opacity="0.23535"/>
<stop offset="0.92785" stop-color="white" stop-opacity="0.01"/>
<stop offset="0.9296" stop-color="white" stop-opacity="0"/>
</linearGradient>
<linearGradient id="paint2_linear_480_8246" x1="169.957" y1="152.598" x2="179.08" y2="152.598" gradientUnits="userSpaceOnUse">
<stop stop-color="#EAEAEA"/>
<stop offset="0.13909" stop-color="#EAEAEA" stop-opacity="0.98494"/>
<stop offset="0.26279" stop-color="#EBEBEB" stop-opacity="0.93862"/>
<stop offset="0.38074" stop-color="#EDEDED" stop-opacity="0.86078"/>
<stop offset="0.49507" stop-color="#EFEFEF" stop-opacity="0.75135"/>
<stop offset="0.60689" stop-color="#F2F2F2" stop-opacity="0.6101"/>
<stop offset="0.71679" stop-color="#F6F6F6" stop-opacity="0.43687"/>
<stop offset="0.82326" stop-color="#FAFAFA" stop-opacity="0.23535"/>
<stop offset="0.92785" stop-color="white" stop-opacity="0.01"/>
<stop offset="0.9296" stop-color="white" stop-opacity="0"/>
</linearGradient>
<linearGradient id="paint3_linear_480_8246" x1="139.09" y1="97.4529" x2="199.946" y2="97.4529" gradientUnits="userSpaceOnUse">
<stop offset="0.087618" stop-color="#F8D5C8"/>
<stop offset="0.4351" stop-color="#F8D6CA" stop-opacity="0.5282"/>
<stop offset="0.5882" stop-color="#F8DCD1" stop-opacity="0.3204"/>
<stop offset="0.7031" stop-color="#F7E5DE" stop-opacity="0.1643"/>
<stop offset="0.7985" stop-color="#F6F1F0" stop-opacity="0.034922"/>
<stop offset="0.8242" stop-color="#F6F6F6" stop-opacity="0"/>
</linearGradient>
<clipPath id="clip0_480_8246">
<rect width="345" height="480" rx="6" fill="white"/>
</clipPath>
<clipPath id="clip1_480_8246">
<rect width="916" height="1047" fill="white" transform="translate(-315 -567)"/>
</clipPath>
</defs>
</svg>
