<svg width="164" height="493" viewBox="0 0 164 493" fill="none" xmlns="http://www.w3.org/2000/svg">
<path opacity="0.1" d="M123.648 137.85C114.613 127.877 99.0602 120.669 82.1747 117.607L78.8667 127.038C90.9631 129.21 102.072 134.295 108.54 141.405C117.97 151.823 114.465 163.228 101.331 169.449C105.726 171.967 110.169 174.485 114.514 177.052C132.239 168.116 136.732 152.267 123.648 137.85Z" fill="#7800FF"/>
<path opacity="0.1" d="M95.3564 144.96C91.1104 140.27 83.8032 136.962 75.8541 135.629L73.6323 141.998C78.619 142.689 83.26 144.664 85.8768 147.577C89.6292 151.724 87.9505 156.267 82.2726 158.538C84.9881 160.118 87.6543 161.648 90.3698 163.228C99.1088 159.229 101.479 151.774 95.3564 144.96Z" fill="#7800FF"/>
<path opacity="0.1" d="M151.447 129.556C137.326 113.954 113.183 102.697 86.8178 97.7598L83.5098 107.289C105.036 111.288 124.736 120.422 136.289 133.16C152.879 151.478 147.398 171.622 125.181 183.076C127.995 184.755 130.809 186.483 133.574 188.211C135.006 189.149 136.388 190.087 137.721 191.075C165.123 176.954 171.937 152.169 151.447 129.556Z" fill="#7800FF"/>
<path d="M63.3008 30.9664L65.1448 32.086L64.9473 80.5582C64.9473 81.4802 70.1501 85.6952 71.138 86.2221L73.1796 88.9881C73.1796 88.9881 74.4968 88.132 75.4188 87.4734C75.9457 87.1441 76.2092 86.5514 76.2092 85.9586V36.1693C76.2092 35.4448 75.7481 34.7204 74.892 34.3252L66.8572 29.7151C65.4083 29.1223 63.3008 30.9664 63.3008 30.9664Z" fill="#F6F6F6" stroke="#575D68" stroke-width="0.5" stroke-miterlimit="10"/>
<path d="M62.7767 31.6909L62.5791 81.7437C62.5791 82.6657 63.1718 83.5878 64.1597 84.0488L71.7994 88.9223C72.6555 89.3834 73.7751 88.8565 73.7751 88.0662V37.3548C73.7751 36.6303 73.3141 35.9059 72.4579 35.5107L64.4231 30.9006C63.6987 30.5713 62.7767 30.9665 62.7767 31.6909Z" fill="#F6F6F6" stroke="#575D68" stroke-width="0.5" stroke-miterlimit="10"/>
<path opacity="0.05" d="M62.7767 31.6909L62.5791 81.7437C62.5791 82.6657 63.1718 83.5878 64.1597 84.0488L71.7994 88.9223C72.6555 89.3834 73.7751 88.8565 73.7751 88.0662V37.3548C73.7751 36.6303 73.3141 35.9059 72.4579 35.5107L64.4231 30.9006C63.6987 30.5713 62.7767 30.9665 62.7767 31.6909Z" fill="#575D68"/>
<path d="M51.1839 420.851L29.7139 394.968L30.6359 393.98L51.6449 419.007L58.4942 414.726L64.0264 418.151L85.694 394.573L86.8136 395.298L64.4215 419.929L58.4942 416.307L51.1839 420.851Z" fill="#F6F6F6" stroke="#575D68" stroke-width="0.5" stroke-miterlimit="10"/>
<path d="M73.179 60.602L58.3608 51.1841L42.7522 60.0751L41.9619 58.8238L58.4267 49.6035L73.8376 59.5482L73.179 60.602Z" fill="#F6F6F6" stroke="#575D68" stroke-width="0.5" stroke-miterlimit="10"/>
<path d="M58.6916 458.192H57.6379C56.189 458.192 55.0693 457.073 55.0693 455.624V10.2853C55.0693 8.8364 56.189 7.7168 57.6379 7.7168H58.6916C60.1405 7.7168 61.2601 8.8364 61.2601 10.2853V455.624C61.2601 457.007 60.0746 458.192 58.6916 458.192Z" fill="#F6F6F6" stroke="#575D68" stroke-width="0.5" stroke-miterlimit="10"/>
<path opacity="0.05" d="M58.6929 7.7168H57.6391C56.9806 7.7168 56.4537 7.98023 55.9927 8.37539C56.5195 8.8364 56.9147 9.56085 56.9147 10.3512V455.689C56.9147 456.48 56.5854 457.138 55.9927 457.665C56.4537 458.06 57.0464 458.324 57.6391 458.324H58.6929C60.1418 458.324 61.2614 457.204 61.2614 455.755V10.2853C61.2614 8.8364 60.0759 7.7168 58.6929 7.7168Z" fill="#575D68"/>
<path d="M58.1644 15.489C62.1654 15.489 65.4089 12.2455 65.4089 8.24449C65.4089 4.24347 62.1654 1 58.1644 1C54.1634 1 50.9199 4.24347 50.9199 8.24449C50.9199 12.2455 54.1634 15.489 58.1644 15.489Z" fill="#F6F6F6" stroke="#575D68" stroke-width="0.5" stroke-miterlimit="10"/>
<path opacity="0.05" d="M61.3939 1.78906C62.3817 3.04038 62.9744 4.55514 62.9744 6.26747C62.9744 10.2849 59.7474 13.512 55.73 13.512C54.5445 13.512 53.4249 13.2485 52.437 12.7216C53.7542 14.3681 55.7958 15.4877 58.1009 15.4877C62.1183 15.4877 65.3454 12.2606 65.3454 8.24324C65.4113 5.4113 63.7648 3.04038 61.3939 1.78906Z" fill="#575D68"/>
<path d="M115.726 459.971L87.1435 393.914L83.2578 297.036L80.36 224.525V224.459V224.393L78.1208 168.808L78.1867 168.677L78.1208 168.611L73.7741 59.4825L67.3858 63.4341L61.3268 53.6211V56.914L66.2004 64.0927L58.2314 68.9004L50.1308 63.8292C51.7114 61.5242 53.4237 59.0215 55.0043 56.7823V54.2797C54.4116 55.1358 51.7772 59.0874 48.9453 63.1048L41.8984 58.6922L37.8151 169.467L37.2224 186.459L29.5828 394.77L1 459.905L9.0348 464.779L37.8151 433.364L49.6697 488.554L57.968 492.703L67.3858 487.368L78.8453 433.232L107.494 464.449L115.726 459.971ZM113.421 458.127L104.399 452.858L82.2699 416.899L86.6166 396.219L113.421 458.127ZM61.3268 240.924L67.9786 244.81L58.8241 261.735L58.6266 200.091L78.7794 224.657L68.5713 243.624L61.3268 239.146C61.3268 239.804 61.3926 240.924 61.3268 240.924ZM69.6909 321.404L58.9559 343.071L58.8241 266.28L81.8748 296.838L70.2836 320.218L61.2609 314.357V315.937L69.6909 321.404ZM83.5871 394.968L72.6545 401.29L58.9559 379.03L59.0876 348.208L85.1019 394.309L61.2609 380.216C61.2609 380.545 61.3268 381.73 61.2609 381.862L83.5871 394.968ZM55.0702 380.216L31.2292 393.651L57.6387 348.274L57.7045 379.03L43.5449 400.566L32.8099 394.375L55.1361 381.862C55.0702 381.73 55.0702 380.545 55.0702 380.216ZM55.0043 315.015L46.1792 320.547L34.7856 298.814L57.507 266.411L57.5728 342.215L46.772 321.733L54.9384 316.596C55.0043 316.596 55.0702 315.345 55.0043 315.015ZM48.8795 133.837L41.3715 123.036L57.3094 102.949L57.3752 146.153L49.6039 134.957L55.0043 132.125V130.61L48.8795 133.837ZM65.8711 134.825L58.7583 148.129L58.6924 148.063L58.6266 102.62L74.3668 118.953L66.4638 133.64L61.195 130.544V132.059L65.8711 134.825ZM56.3215 342.61L33.9953 329.899L45.7182 322.523L56.3215 342.61ZM57.7045 381.533L57.6387 409.128L44.6645 401.159L57.7045 381.533ZM59.0217 381.599L71.5349 401.949L59.0217 409.194V381.599ZM59.1534 345.508V344.849L83.2578 330.163L85.7605 392.663L59.1534 345.508ZM60.7341 342.478L70.8763 322.128L82.0065 329.438L60.7341 342.478ZM69.0981 245.534L77.9232 250.737L60.6682 261.143L69.0981 245.534ZM58.7583 197.589V177.107L68.0444 182.77L58.7583 197.589ZM69.164 183.429L75.7499 187.446L61.0634 196.403L69.164 183.429ZM58.7583 175.526V150.697L76.6061 169.006L68.703 181.585L58.7583 175.526ZM67.0565 135.484L73.9059 139.435L60.8658 147.009L67.0565 135.484ZM67.6493 134.364L74.8937 120.797L75.6182 138.974L67.6493 134.364ZM59.1534 101.237L59.2852 100.974L73.7741 92.0827L74.762 117.504L59.1534 101.237ZM72.1277 91.5558L60.6682 98.6028L66.7272 88.197L72.1277 91.5558ZM67.4516 86.9457L73.1814 77.0669L73.7082 90.9631L67.4516 86.9457ZM42.1618 90.6997L42.6887 77.001L48.4843 86.9457L42.1618 90.6997ZM49.077 88.0653L54.9384 98.1417L43.94 91.0948L49.077 88.0653ZM42.096 91.49L56.3874 100.644L56.7825 101.369L40.9764 121.324L42.096 91.49ZM47.694 134.496L40.3836 138.316L40.9105 124.683L47.694 134.496ZM48.4184 135.55L56.5191 147.207L42.1618 138.777L48.4184 135.55ZM57.4411 175.789L46.9695 181.322L39.3299 169.928L57.3752 151.092L57.4411 175.789ZM57.4411 177.304V196.864L47.7599 182.441L57.4411 177.304ZM55.5312 196.469L39.7909 186.656L46.5085 183.1L55.5312 196.469ZM57.507 261.669L48.0233 244.941L55.0043 240.924V239.409L47.3647 243.822L37.4858 226.435L57.4411 200.552L57.507 261.669ZM55.597 260.945L37.8151 250.803L46.8378 245.6L55.597 260.945ZM46.2451 244.48L36.3004 250.21L37.0907 228.411L46.2451 244.48ZM56.8484 263.25L57.4411 264.238L34.5222 296.904L36.1687 251.461L56.8484 263.25ZM45.1255 321.272L33.4026 328.648L34.3905 300.921L45.1255 321.272ZM57.6387 344.849V345.64L31.0975 391.543L33.3367 331.019L57.6387 344.849ZM30.9658 395.1V394.77L42.8204 401.62L35.0491 414.133L30.9658 395.1ZM43.94 402.278L57.1118 410.247L38.5396 430.598L35.3784 415.977L43.94 402.278ZM72.2594 403.069L80.8869 417.097L78.055 430.4L59.6145 410.313L72.2594 403.069ZM73.379 402.41L85.497 395.363L81.282 415.187L73.379 402.41ZM83.192 328.648L71.4032 320.943L82.0065 299.604L83.192 328.648ZM59.0217 264.238L59.4169 263.448L80.0966 250.934L81.8089 294.467L59.0217 264.238ZM80.0966 250.473L69.7567 244.349L79.1746 226.896L80.0966 250.473ZM59.4169 198.972L59.4827 198.906L77.5939 187.842L78.977 222.813L59.4169 198.972ZM77.5939 186.985L69.8884 182.244L77.0012 170.85L77.5939 186.985ZM59.4827 149.578L59.6145 149.248L75.6182 139.896L76.7378 167.228L59.4827 149.578ZM72.5887 61.8535L73.0497 72.6543L68.0444 64.5537L72.5887 61.8535ZM72.8521 74.9594L66.2662 86.2213L61.195 82.7966C61.195 83.3235 61.195 84.6407 61.195 84.6407L65.6076 87.3409L58.6266 99.3931L58.5607 70.2834L66.8589 65.2781L72.8521 74.9594ZM57.2435 69.9541L57.3094 99.5248L50.1966 87.3409L55.0702 84.4431C55.0702 84.1796 55.0702 83.1259 55.0702 82.7966L49.538 86.1554L42.7545 74.6301C43.5449 73.3788 46.2451 69.4931 49.3404 65.0147L57.2435 69.9541ZM48.2209 64.2902C46.1792 67.2539 44.1376 70.2834 42.8204 72.1933L43.2156 61.129L48.2209 64.2902ZM40.3178 139.304L57.3094 149.248L39.264 168.084L40.3178 139.304ZM39.1323 172.101L45.7841 181.98L38.6054 185.8L39.1323 172.101ZM56.9801 198.906L37.1565 224.591L38.5396 187.446L56.9801 198.906ZM30.0438 397.075L34.0612 415.648L11.0106 452.726L3.43679 457.797L30.0438 397.075ZM8.83719 463.132L3.10749 459.707L11.9326 453.78L34.4563 417.623L37.4858 431.849L8.83719 463.132ZM38.9347 432.244L57.7045 411.696V491.122L50.8552 487.697L38.9347 432.244ZM66.2004 486.578L58.8241 490.727L59.0217 411.696L77.7257 432.047L66.2004 486.578ZM81.8748 418.809L103.345 453.714L103.411 453.846L113.421 459.707L107.691 462.869L79.1087 431.717L81.8748 418.809Z" fill="#F6F6F6" stroke="#575D68" stroke-width="0.5" stroke-miterlimit="10"/>
<path d="M41.8257 34.1931L43.6697 35.3127L43.4722 83.7849C43.4722 84.7069 46.8968 87.3413 47.8847 87.8682L49.9263 90.6342C49.9263 90.6342 51.2435 89.7781 52.1655 89.1195C52.6924 88.7902 52.9558 88.1974 52.9558 87.6047V37.7495C52.9558 37.025 52.4948 36.3006 51.6386 35.9054L45.382 32.8759C43.9331 32.3491 41.8257 34.1931 41.8257 34.1931Z" fill="#F6F6F6" stroke="#575D68" stroke-width="0.5" stroke-miterlimit="10"/>
<path opacity="0.05" d="M41.8257 34.1931L43.6697 35.3127L43.4722 83.7849C43.4722 84.7069 46.8968 87.3413 47.8847 87.8682L49.9263 90.6342C49.9263 90.6342 51.2435 89.7781 52.1655 89.1195C52.6924 88.7902 52.9558 88.1974 52.9558 87.6047V37.7495C52.9558 37.025 52.4948 36.3006 51.6386 35.9054L45.382 32.8759C43.9331 32.3491 41.8257 34.1931 41.8257 34.1931Z" fill="#575D68"/>
<path d="M41.3016 34.8524L41.104 84.9053C41.104 85.8273 41.6968 86.7493 42.6846 87.2103L48.5461 90.5033C49.4023 90.9643 50.5219 90.4374 50.5219 89.6471V38.9357C50.5219 38.2113 50.0609 37.4868 49.2047 37.0916L42.9481 34.0621C42.2236 33.7328 41.3016 34.1939 41.3016 34.8524Z" fill="#F6F6F6" stroke="#575D68" stroke-width="0.5" stroke-miterlimit="10"/>
<path d="M49.6697 134.299C49.077 135.55 48.2209 136.34 47.2988 136.999C45.8499 138.053 41.9643 140.16 41.9643 140.16C41.9643 140.16 41.4374 136.999 40.0543 135.945C36.4321 132.982 34.588 127.252 35.9711 122.905C36.1028 122.51 33.666 122.181 33.666 122.181C33.666 122.181 37.7493 119.876 38.6054 119.349C40.7129 118.097 43.5449 118.427 46.1134 120.666C50.1966 124.025 51.6455 130.215 49.6697 134.299Z" fill="#F6F6F6" stroke="#575D68" stroke-width="0.5" stroke-miterlimit="10"/>
<path opacity="0.05" d="M49.6697 134.299C49.077 135.55 48.2209 136.34 47.2988 136.999C45.8499 138.053 41.9643 140.16 41.9643 140.16C41.9643 140.16 41.4374 136.999 40.0543 135.945C36.4321 132.982 34.588 127.252 35.9711 122.905C36.1028 122.51 33.666 122.181 33.666 122.181C33.666 122.181 37.7493 119.876 38.6054 119.349C40.7129 118.097 43.5449 118.427 46.1134 120.666C50.1966 124.025 51.6455 130.215 49.6697 134.299Z" fill="#575D68"/>
<path d="M44.6639 137.262C42.8857 141.081 38.6707 141.74 35.1143 138.908C31.4921 136.01 29.5822 130.281 30.9652 125.868C32.48 121.192 37.0901 120.072 41.1733 123.563C45.1249 126.922 46.5738 133.178 44.6639 137.262Z" fill="#F6F6F6" stroke="#575D68" stroke-width="0.5" stroke-miterlimit="10"/>
<path d="M90.7617 171.904C89.3128 180.729 88.4566 189.62 81.0804 190.871C80.0925 191.003 78.6436 194.954 78.6436 194.954C78.6436 194.954 70.082 189.949 69.0941 189.488C65.0108 187.381 62.8375 182.046 64.1547 175.263C65.9328 165.911 73.5067 157.942 80.817 157.415C83.4514 157.217 85.4271 158.008 87.337 159.325C89.1152 160.576 94.9108 163.803 94.9108 163.803C94.9108 163.803 91.1568 169.204 90.7617 171.904Z" fill="#F6F6F6" stroke="#575D68" stroke-width="0.5" stroke-miterlimit="10"/>
<path d="M99.7187 177.106C98.2698 185.931 91.3546 194.163 83.9784 195.415C76.2729 196.732 71.2676 189.948 73.1117 180.399C74.8899 171.047 82.4636 163.078 89.774 162.551C96.8209 161.958 101.168 168.478 99.7187 177.106Z" fill="#F6F6F6" stroke="#575D68" stroke-width="0.5" stroke-miterlimit="10"/>
<path d="M90.7617 171.904C89.3128 180.729 88.4566 189.62 81.0804 190.871C80.0925 191.003 78.6436 194.954 78.6436 194.954C78.6436 194.954 70.082 189.949 69.0941 189.488C65.0108 187.381 62.8375 182.046 64.1547 175.263C65.9328 165.911 73.5067 157.942 80.817 157.415C83.4514 157.217 85.4271 158.008 87.337 159.325C89.1152 160.576 94.9108 163.803 94.9108 163.803C94.9108 163.803 91.1568 169.204 90.7617 171.904Z" fill="#F6F6F6" stroke="#575D68" stroke-width="0.5" stroke-miterlimit="10"/>
<path opacity="0.05" d="M90.7617 171.904C89.3128 180.729 88.4566 189.62 81.0804 190.871C80.0925 191.003 78.6436 194.954 78.6436 194.954C78.6436 194.954 70.082 189.949 69.0941 189.488C65.0108 187.381 62.8375 182.046 64.1547 175.263C65.9328 165.911 73.5067 157.942 80.817 157.415C83.4514 157.217 85.4271 158.008 87.337 159.325C89.1152 160.576 94.9108 163.803 94.9108 163.803C94.9108 163.803 91.1568 169.204 90.7617 171.904Z" fill="#575D68"/>
<path d="M99.7187 177.106C98.2698 185.931 91.3546 194.163 83.9784 195.415C76.2729 196.732 71.2676 189.948 73.1117 180.399C74.8899 171.047 82.4636 163.078 89.774 162.551C96.8209 161.958 101.168 168.478 99.7187 177.106Z" fill="#F6F6F6" stroke="#575D68" stroke-width="0.5" stroke-miterlimit="10"/>
<path d="M79.8948 126.858C79.0386 132.258 78.4459 137.725 73.9675 138.515C73.3747 138.647 72.4527 141.018 72.4527 141.018C72.4527 141.018 67.184 137.922 66.5913 137.659C64.0886 136.342 62.7715 133.049 63.5618 128.9C64.6814 123.17 69.2915 118.296 73.7699 117.901C75.4164 117.769 76.6018 118.23 77.7873 119.087C78.9069 119.877 82.3974 121.853 82.3974 121.853C82.3974 121.853 80.1582 125.211 79.8948 126.858Z" fill="#F6F6F6" stroke="#575D68" stroke-width="0.5" stroke-miterlimit="10"/>
<path opacity="0.05" d="M79.8948 126.858C79.0386 132.258 78.4459 137.725 73.9675 138.515C73.3747 138.647 72.4527 141.018 72.4527 141.018C72.4527 141.018 67.184 137.922 66.5913 137.659C64.0886 136.342 62.7715 133.049 63.5618 128.9C64.6814 123.17 69.2915 118.296 73.7699 117.901C75.4164 117.769 76.6018 118.23 77.7873 119.087C78.9069 119.877 82.3974 121.853 82.3974 121.853C82.3974 121.853 80.1582 125.211 79.8948 126.858Z" fill="#575D68"/>
<path d="M85.4271 130.085C84.5709 135.486 80.2901 140.557 75.7458 141.347C71.004 142.138 67.9745 137.988 69.0282 132.127C70.1478 126.397 74.7579 121.524 79.2363 121.129C83.583 120.799 86.2833 124.751 85.4271 130.085Z" fill="#F6F6F6" stroke="#575D68" stroke-width="0.5" stroke-miterlimit="10"/>
<path d="M78.4461 112.961L71.3992 121.062C71.3992 121.062 66.1305 118.427 66.1305 116.979L65.7354 64.4231C65.7354 62.7766 66.5915 61.196 68.0404 60.3398L76.9972 55.0711C80.4219 53.0953 84.7686 58.5616 84.7686 58.5616L80.8171 108.878C80.8171 110.524 79.9609 112.105 78.4461 112.961Z" fill="#F6F6F6" stroke="#575D68" stroke-width="0.5" stroke-miterlimit="10"/>
<path opacity="0.05" d="M78.4461 112.961L71.3992 121.062C71.3992 121.062 66.1305 118.427 66.1305 116.979L65.7354 64.4231C65.7354 62.7766 66.5915 61.196 68.0404 60.3398L76.9972 55.0711C80.4219 53.0953 84.7686 58.5616 84.7686 58.5616L80.8171 108.878C80.8171 110.524 79.9609 112.105 78.4461 112.961Z" fill="#575D68"/>
<path d="M83.1204 115.728L73.5709 121.326C72.3195 122.05 70.8047 121.194 70.7389 119.745L70.3438 67.1899C70.3438 65.5435 71.1999 63.9629 72.6488 63.1067L81.6056 57.838C83.1204 56.9818 85.0303 58.0356 85.0303 59.8137L85.3596 111.645C85.4913 113.291 84.5693 114.872 83.1204 115.728Z" fill="#F6F6F6" stroke="#575D68" stroke-width="0.5" stroke-miterlimit="10"/>
<path d="M66.2644 107.428C65.4082 109.273 64.0911 110.458 62.708 111.446C60.6006 112.961 55.5294 115.595 55.5294 115.595C55.5294 115.595 53.9488 111.38 51.973 109.799C46.5726 105.387 43.7407 96.8252 45.914 90.3051C46.1116 89.7124 42.0283 89.7124 42.0283 89.7124C42.0283 89.7124 48.5484 85.7609 49.8656 84.9047C53.0268 82.9948 57.2417 83.5217 61.1274 86.8805C66.9889 92.0175 69.1622 101.304 66.2644 107.428Z" fill="#F6F6F6" stroke="#575D68" stroke-width="0.5" stroke-miterlimit="10"/>
<path d="M58.7546 111.84C56.0544 117.57 49.7978 118.558 44.4632 114.277C39.0628 109.93 36.165 101.303 38.2725 94.8487C40.5117 87.8676 47.4928 86.1553 53.4859 91.3582C59.4132 96.4293 61.6524 105.715 58.7546 111.84Z" fill="#F6F6F6" stroke="#575D68" stroke-width="0.5" stroke-miterlimit="10"/>
<path d="M66.2644 107.428C65.4082 109.273 64.0911 110.458 62.708 111.446C60.6006 112.961 55.5294 115.595 55.5294 115.595C55.5294 115.595 53.9488 111.38 51.973 109.799C46.5726 105.387 43.7407 96.8252 45.914 90.3051C46.1116 89.7124 42.0283 89.7124 42.0283 89.7124C42.0283 89.7124 48.5484 85.7609 49.8656 84.9047C53.0268 82.9948 57.2417 83.5217 61.1274 86.8805C66.9889 92.0175 69.1622 101.304 66.2644 107.428Z" fill="#F6F6F6" stroke="#575D68" stroke-width="0.5" stroke-miterlimit="10"/>
<path opacity="0.05" d="M66.2644 107.428C65.4082 109.273 64.0911 110.458 62.708 111.446C60.6006 112.961 55.5294 115.595 55.5294 115.595C55.5294 115.595 53.9488 111.38 51.973 109.799C46.5726 105.387 43.7407 96.8252 45.914 90.3051C46.1116 89.7124 42.0283 89.7124 42.0283 89.7124C42.0283 89.7124 48.5484 85.7609 49.8656 84.9047C53.0268 82.9948 57.2417 83.5217 61.1274 86.8805C66.9889 92.0175 69.1622 101.304 66.2644 107.428Z" fill="#575D68"/>
<path d="M58.7546 111.84C56.0544 117.57 49.7978 118.558 44.4632 114.277C39.0628 109.93 36.165 101.303 38.2725 94.8487C40.5117 87.8676 47.4928 86.1553 53.4859 91.3582C59.4132 96.4293 61.6524 105.715 58.7546 111.84Z" fill="#F6F6F6" stroke="#575D68" stroke-width="0.5" stroke-miterlimit="10"/>
<path d="M63.2414 222.379C61.8695 225.195 59.8477 227.072 57.7538 228.589C54.5045 230.972 46.634 235.015 46.634 235.015C46.634 235.015 44.1791 228.517 41.0742 225.989C32.6983 219.202 28.366 205.844 31.6875 195.807C31.9763 194.941 25.6943 194.941 25.6943 194.941C25.6943 194.941 35.8032 188.803 37.8971 187.504C42.8071 184.543 49.3779 185.337 55.2988 190.609C64.3967 198.479 67.7182 212.92 63.2414 222.379Z" fill="#EEEEEF" stroke="#575D68" stroke-width="0.5" stroke-miterlimit="10"/>
<path d="M51.6877 229.167C47.4998 238.048 37.8242 239.565 29.5927 232.922C21.2169 226.135 16.7401 212.849 19.9894 202.812C23.4552 191.981 34.2139 189.382 43.6007 197.469C52.6986 205.339 56.0923 219.708 51.6877 229.167Z" fill="#F6F6F6" stroke="#575D68" stroke-width="0.5" stroke-miterlimit="10"/>
</svg>
