<svg width="345" height="480" viewBox="0 0 345 480" fill="none" xmlns="http://www.w3.org/2000/svg">
<path d="M-299 -17.7736L248.867 304.937L885.086 -61.6669V-263.181V-735H-299V-17.7736Z" fill="#F6F6F6" stroke="#575D68" stroke-width="0.5" stroke-miterlimit="10"/>
<path d="M249.316 304.566V-530.9" stroke="#575D68" stroke-width="0.5" stroke-miterlimit="10"/>
<path d="M-12.229 274.914V-153.788L93.7555 -215.031L93.9256 213.769L-12.229 274.914Z" fill="#F6F6F6" stroke="#575D68" stroke-width="0.5" stroke-miterlimit="10"/>
<path d="M92.756 170.401L90.5219 196.57L92.7024 219.883L89.0053 242.285C87.3117 247.787 86.197 253.719 88.7191 258.894L88.9463 259.36L88.7642 273.45C88.568 275.022 88.7784 276.618 89.3751 278.086C89.9718 279.553 90.935 280.843 92.1726 281.832C93.2602 282.702 94.5297 283.314 95.8867 283.625C97.2437 283.936 98.6533 283.937 100.011 283.628L122.113 278.595L125.16 276.127C125.745 275.653 126.187 275.025 126.434 274.314C126.681 273.603 126.725 272.837 126.561 272.102C126.396 271.367 126.03 270.693 125.503 270.155C124.976 269.617 124.309 269.237 123.578 269.058L114.526 266.84C112.764 266.409 111.113 265.611 109.68 264.499C108.247 263.388 107.064 261.987 106.208 260.388L106.134 260.249L124.985 226.522L126.446 186.969" fill="#DDDEDF"/>
<path d="M92.756 170.401L90.5219 196.57L92.7024 219.883L89.0053 242.285C87.3117 247.787 86.197 253.719 88.7191 258.894L88.9463 259.36L88.7642 273.45C88.568 275.022 88.7784 276.618 89.3751 278.086C89.9718 279.553 90.935 280.843 92.1726 281.832C93.2602 282.702 94.5297 283.314 95.8867 283.625C97.2437 283.936 98.6533 283.937 100.011 283.628L122.113 278.595L125.16 276.127C125.745 275.653 126.187 275.025 126.434 274.314C126.681 273.603 126.725 272.837 126.561 272.102C126.396 271.367 126.03 270.693 125.503 270.155C124.976 269.617 124.309 269.237 123.578 269.058L114.526 266.84C112.764 266.409 111.113 265.611 109.68 264.499C108.247 263.388 107.064 261.987 106.208 260.388L106.134 260.249L124.985 226.522L126.446 186.969" stroke="#575D68" stroke-width="0.5" stroke-miterlimit="10"/>
<path style="mix-blend-mode:multiply" d="M92.756 170.401L90.5219 196.57L92.7024 219.883L89.0053 242.285C87.3117 247.787 86.197 253.719 88.7191 258.894L88.9463 259.36L88.7642 273.45C88.568 275.022 88.7784 276.618 89.3751 278.086C89.9718 279.553 90.935 280.843 92.1726 281.832C93.2602 282.702 94.5297 283.314 95.8867 283.625C97.2437 283.936 98.6533 283.937 100.011 283.628L122.113 278.595L125.228 276.072C125.807 275.603 126.243 274.982 126.488 274.278C126.733 273.575 126.776 272.817 126.614 272.09C126.451 271.363 126.088 270.696 125.567 270.164C125.045 269.632 124.386 269.256 123.662 269.079L114.526 266.84C112.764 266.409 111.113 265.611 109.68 264.499C108.247 263.388 107.064 261.987 106.208 260.388L106.134 260.249L124.985 226.522L126.446 186.969" fill="url(#paint0_linear_129_6)"/>
<path style="mix-blend-mode:multiply" d="M113.153 223.993L107.841 219.01L113.497 210.17C113.497 210.17 106.051 183.233 103.876 175.87L92.7559 170.401L90.5219 196.57L92.7024 219.883L89.0053 242.285C87.3117 247.787 86.197 253.719 88.7191 258.894L88.8288 259.119L100.488 246.712L113.153 223.993Z" fill="url(#paint1_linear_129_6)"/>
<path style="mix-blend-mode:multiply" d="M123.609 269.066L114.526 266.84C112.764 266.409 111.113 265.611 109.68 264.499C108.247 263.388 107.064 261.987 106.208 260.388C103.254 261.764 100.124 262.721 96.9059 263.234C94.6268 263.562 92.303 263.369 90.1094 262.669L88.8021 273.143C88.4593 275.55 89.0389 277.998 90.4246 279.996C91.4883 281.477 92.965 282.611 94.67 283.257C96.375 283.903 98.2325 284.032 100.01 283.628L122.112 278.595L125.185 276.106C125.768 275.634 126.207 275.009 126.454 274.301C126.7 273.592 126.744 272.829 126.58 272.097C126.416 271.365 126.051 270.694 125.526 270.158C125.001 269.623 124.337 269.244 123.609 269.066Z" fill="url(#paint2_linear_129_6)"/>
<path d="M88.9463 259.36C93.5926 260.771 98.5042 261.08 103.291 260.261" stroke="#575D68" stroke-width="0.5" stroke-miterlimit="10"/>
<path d="M119.985 185.719C122.041 196.647 126.873 225.335 126.873 225.335C126.873 225.335 117.787 248.966 117.751 259.05L120.358 266.089L120.927 295.224C120.996 295.858 121.189 296.471 121.496 297.03C121.803 297.588 122.218 298.08 122.716 298.477C123.214 298.874 123.786 299.169 124.398 299.344C125.011 299.519 125.652 299.571 126.285 299.497L150.932 297.783C155.11 298.357 162.525 293.374 167.034 288.801C168.505 287.31 164.509 283.604 162.416 283.638L149.494 285.074L145.679 283.488C144.172 282.863 142.947 281.707 142.235 280.24C141.524 278.772 141.375 277.094 141.818 275.524C142.784 272.099 144.03 267.694 145.096 263.963C146.297 263.181 147.394 262.251 148.362 261.194C152.79 256.341 153.88 232.937 156.567 227.814C156.974 227.039 157.165 226.169 157.121 225.295L164.205 177.322L164.109 176.303L125.463 178.992C125.463 178.992 122.914 182.067 119.985 185.719Z" fill="#DDDEDF" stroke="#575D68" stroke-width="0.5" stroke-miterlimit="10"/>
<path style="mix-blend-mode:multiply" d="M119.985 185.719C122.04 196.647 126.872 225.335 126.872 225.335C126.872 225.335 117.675 249.714 117.75 259.05L120.357 266.089L120.927 295.224C120.995 295.858 121.189 296.471 121.496 297.029C121.803 297.588 122.217 298.08 122.715 298.477C123.213 298.874 123.785 299.169 124.398 299.344C125.01 299.519 125.651 299.571 126.284 299.497L150.932 297.783C155.11 298.357 162.525 293.374 167.034 288.801C168.504 287.309 164.509 283.604 162.415 283.638L149.493 285.074L144.876 283.155C143.591 282.622 142.545 281.636 141.938 280.384C141.331 279.132 141.204 277.701 141.581 276.361C142.574 272.839 143.94 268.006 145.095 263.963C146.296 263.181 147.394 262.251 148.362 261.194C152.79 256.341 153.879 232.937 156.566 227.814C156.973 227.039 157.164 226.169 157.12 225.295L164.205 177.322L164.109 176.303L125.463 178.992C125.463 178.992 122.913 182.067 119.985 185.719Z" fill="url(#paint3_linear_129_6)"/>
<path style="mix-blend-mode:multiply" d="M167.034 288.801C168.504 287.309 164.509 283.604 162.415 283.638L149.494 285.073L144.876 283.155C143.591 282.622 142.546 281.636 141.938 280.384C141.331 279.132 141.204 277.7 141.582 276.361C142.371 273.562 143.394 269.938 144.362 266.536C139.48 268.268 134.405 269.398 129.25 269.9C126.424 270.235 123.566 270.184 120.753 269.749L120.927 295.224C120.996 295.858 121.189 296.471 121.496 297.029C121.803 297.588 122.217 298.08 122.715 298.477C123.213 298.874 123.785 299.169 124.398 299.344C125.01 299.519 125.652 299.571 126.284 299.497L150.932 297.783C155.11 298.357 162.525 293.373 167.034 288.801Z" fill="url(#paint4_linear_129_6)"/>
<path style="mix-blend-mode:multiply" d="M152.327 226.701L144.814 222.776L149.023 216.08L138.771 184.692L128.281 178.796L125.463 178.992C125.463 178.992 122.913 182.067 119.984 185.72C122.04 196.647 126.872 225.335 126.872 225.335C126.872 225.335 117.285 248.367 117.75 259.05L119.946 264.98L133.878 255.697L152.327 226.701Z" fill="url(#paint5_linear_129_6)"/>
<path d="M145.095 263.963C145.095 263.963 141.822 266.435 134.628 266.963C130.054 267.299 122.786 265.891 122.786 265.891" fill="#DDDEDF"/>
<path d="M145.095 263.963C145.095 263.963 141.822 266.435 134.628 266.963C130.054 267.299 122.786 265.891 122.786 265.891" stroke="#575D68" stroke-width="0.5" stroke-miterlimit="10"/>
<path d="M163.49 23.6411L215.842 54.432L243.309 39.2658L189.597 8.32983L163.49 23.6411Z" fill="#F6F6F6" stroke="#575D68" stroke-width="0.5" stroke-miterlimit="10"/>
<path d="M215.842 54.432V147.115L243.309 130.451V39.2659L215.842 54.432Z" fill="#F6F6F6" stroke="#575D68" stroke-width="0.5" stroke-miterlimit="10"/>
<path d="M208.821 19.0698V-574.981L216.136 -571.797V23.8104L212.556 25.832L208.821 19.0698Z" fill="#F6F6F6" stroke="#575D68" stroke-width="0.5" stroke-miterlimit="10"/>
<path d="M205.163 21.1336V-574.981L212.479 -571.797V14.628L212.441 25.832L205.163 21.1336Z" fill="#F6F6F6" stroke="#575D68" stroke-width="0.5" stroke-miterlimit="10"/>
<path d="M163.49 23.6411V115.505L215.842 147.115V54.4321L163.49 23.6411Z" fill="#F6F6F6" stroke="#575D68" stroke-width="0.5" stroke-miterlimit="10"/>
<path d="M167.596 34.4309V107.85L141.021 123.161V50.0097L167.596 34.4309Z" fill="#F6F6F6" stroke="#575D68" stroke-width="0.5" stroke-miterlimit="10"/>
<path d="M165.104 106.223L206.329 131.387V56.8561L165.104 32.804V106.223Z" fill="#F6F6F6" stroke="#575D68" stroke-width="0.5" stroke-miterlimit="10"/>
<path d="M199.709 58.0909L206.237 61.8596V59.3981L199.708 55.6301L199.709 58.0909Z" fill="#F6F6F6" stroke="#575D68" stroke-width="0.5" stroke-miterlimit="10"/>
<path d="M199.709 62.748L206.238 66.5159L206.237 64.0552L199.709 60.2872V62.748Z" fill="#F6F6F6" stroke="#575D68" stroke-width="0.5" stroke-miterlimit="10"/>
<path d="M199.71 66.8779L206.238 70.6458V68.185L199.709 64.4171L199.71 66.8779Z" fill="#F6F6F6" stroke="#575D68" stroke-width="0.5" stroke-miterlimit="10"/>
<path d="M195.401 55.9491L197.247 57.0146L197.246 54.5538L195.401 53.4884V55.9491Z" fill="#F6F6F6" stroke="#575D68" stroke-width="0.5" stroke-miterlimit="10"/>
<path d="M182.913 48.74L194.13 55.2152V52.7545L182.912 46.2793L182.913 48.74Z" fill="#F6F6F6" stroke="#575D68" stroke-width="0.5" stroke-miterlimit="10"/>
<path d="M186.894 87.9715L203.732 97.6344V95.1736L186.894 85.5107L186.894 87.9715Z" fill="#F6F6F6" stroke="#575D68" stroke-width="0.5" stroke-miterlimit="10"/>
<path d="M186.894 92.2706L203.732 101.933V99.4719L186.894 89.8091L186.894 92.2706Z" fill="#F6F6F6" stroke="#575D68" stroke-width="0.5" stroke-miterlimit="10"/>
<path d="M186.894 97.2562L203.732 106.919V104.458L186.894 94.7954L186.894 97.2562Z" fill="#F6F6F6" stroke="#575D68" stroke-width="0.5" stroke-miterlimit="10"/>
<path d="M186.894 101.441L203.732 111.103V108.642L186.894 98.9799L186.894 101.441Z" fill="#F6F6F6" stroke="#575D68" stroke-width="0.5" stroke-miterlimit="10"/>
<path d="M186.894 105.439L203.732 115.102V112.641L186.894 102.979L186.894 105.439Z" fill="#F6F6F6" stroke="#575D68" stroke-width="0.5" stroke-miterlimit="10"/>
<path d="M186.894 109.915L203.732 119.578V117.117L186.894 107.454L186.894 109.915Z" fill="#F6F6F6" stroke="#575D68" stroke-width="0.5" stroke-miterlimit="10"/>
<path d="M186.894 113.914L203.732 123.576V121.116L186.894 111.453L186.894 113.914Z" fill="#F6F6F6" stroke="#575D68" stroke-width="0.5" stroke-miterlimit="10"/>
<path d="M195.402 60.6054L197.247 61.6708V59.2101L195.402 58.1447V60.6054Z" fill="#F6F6F6" stroke="#575D68" stroke-width="0.5" stroke-miterlimit="10"/>
<path d="M182.913 53.3971L194.131 59.8715L194.13 57.4107L182.913 50.9355V53.3971Z" fill="#F6F6F6" stroke="#575D68" stroke-width="0.5" stroke-miterlimit="10"/>
<path d="M195.402 64.7353L197.248 65.8006V63.3399L195.402 62.2745V64.7353Z" fill="#F6F6F6" stroke="#575D68" stroke-width="0.5" stroke-miterlimit="10"/>
<path d="M183.099 64.1534L184.944 65.2188V62.7581L183.098 61.6926L183.099 64.1534Z" fill="#F6F6F6" stroke="#575D68" stroke-width="0.5" stroke-miterlimit="10"/>
<path d="M183.099 68.8104L184.945 69.8759L184.945 67.4144L183.099 66.3489V68.8104Z" fill="#F6F6F6" stroke="#575D68" stroke-width="0.5" stroke-miterlimit="10"/>
<path d="M183.1 72.9395L184.945 74.0049V71.5441L183.099 70.4788L183.1 72.9395Z" fill="#F6F6F6" stroke="#575D68" stroke-width="0.5" stroke-miterlimit="10"/>
<path d="M183.099 77.2644L184.944 78.3299V75.8691L183.098 74.8037L183.099 77.2644Z" fill="#F6F6F6" stroke="#575D68" stroke-width="0.5" stroke-miterlimit="10"/>
<path d="M183.099 81.9215L184.945 82.9869L184.945 80.5261L183.099 79.4607V81.9215Z" fill="#F6F6F6" stroke="#575D68" stroke-width="0.5" stroke-miterlimit="10"/>
<path d="M183.1 86.0513L184.945 87.1167V84.656L183.099 83.5906L183.1 86.0513Z" fill="#F6F6F6" stroke="#575D68" stroke-width="0.5" stroke-miterlimit="10"/>
<path d="M183.099 90.5072L184.944 91.5727V89.1119L183.098 88.0465L183.099 90.5072Z" fill="#F6F6F6" stroke="#575D68" stroke-width="0.5" stroke-miterlimit="10"/>
<path d="M183.099 95.1643L184.945 96.2297L184.945 93.7681L183.099 92.7028V95.1643Z" fill="#F6F6F6" stroke="#575D68" stroke-width="0.5" stroke-miterlimit="10"/>
<path d="M183.1 99.2941L184.945 100.36V97.898L183.099 96.8325L183.1 99.2941Z" fill="#F6F6F6" stroke="#575D68" stroke-width="0.5" stroke-miterlimit="10"/>
<path d="M183.099 103.318L184.944 104.383V101.923L183.098 100.857L183.099 103.318Z" fill="#F6F6F6" stroke="#575D68" stroke-width="0.5" stroke-miterlimit="10"/>
<path d="M183.099 107.975L184.945 109.04L184.945 106.58L183.099 105.514V107.975Z" fill="#F6F6F6" stroke="#575D68" stroke-width="0.5" stroke-miterlimit="10"/>
<path d="M183.1 112.105L184.945 113.17V110.71L183.099 109.644L183.1 112.105Z" fill="#F6F6F6" stroke="#575D68" stroke-width="0.5" stroke-miterlimit="10"/>
<path d="M182.914 57.5262L194.131 64.0013V61.5406L182.913 55.0654L182.914 57.5262Z" fill="#F6F6F6" stroke="#575D68" stroke-width="0.5" stroke-miterlimit="10"/>
<path d="M187.696 64.417C187.696 64.417 185.137 65.2277 189.291 66.2242C192.287 66.9429 196.882 68.7596 198.987 70.4591C201.132 72.1917 202.584 74.2761 204.522 72.4541" fill="#F6F6F6"/>
<path d="M187.696 64.417C187.696 64.417 185.137 65.2277 189.291 66.2242C192.287 66.9429 196.882 68.7596 198.987 70.4591C201.132 72.1917 202.584 74.2761 204.522 72.4541" stroke="#575D68" stroke-width="0.5" stroke-miterlimit="10"/>
<path d="M187.693 69.0795C187.693 69.0795 185.143 69.8191 189.282 70.9133C192.266 71.7024 196.842 73.6214 198.938 75.3608C201.074 77.1339 202.52 79.2386 204.449 77.4798" fill="#F6F6F6"/>
<path d="M187.693 69.0795C187.693 69.0795 185.143 69.8191 189.282 70.9133C192.266 71.7024 196.842 73.6214 198.938 75.3608C201.074 77.1339 202.52 79.2386 204.449 77.4798" stroke="#575D68" stroke-width="0.5" stroke-miterlimit="10"/>
<path d="M187.69 73.0967C187.69 73.0967 185.148 73.7754 189.273 74.9533C192.247 75.8026 196.807 77.8089 198.895 79.5824C201.023 81.3901 202.463 83.512 204.385 81.8073" fill="#F6F6F6"/>
<path d="M187.69 73.0967C187.69 73.0967 185.148 73.7754 189.273 74.9533C192.247 75.8026 196.807 77.8089 198.895 79.5824C201.023 81.3901 202.463 83.512 204.385 81.8073" stroke="#575D68" stroke-width="0.5" stroke-miterlimit="10"/>
<path d="M187.687 77.8402C187.687 77.8402 185.155 78.4475 189.264 79.7234C192.226 80.6433 196.766 82.7519 198.845 84.5652C200.964 86.4135 202.398 88.5553 204.31 86.914" fill="#F6F6F6"/>
<path d="M187.687 77.8402C187.687 77.8402 185.155 78.4475 189.264 79.7234C192.226 80.6433 196.766 82.7519 198.845 84.5652C200.964 86.4135 202.398 88.5553 204.31 86.914" stroke="#575D68" stroke-width="0.5" stroke-miterlimit="10"/>
<path d="M187.684 82.5244C187.684 82.5244 185.162 83.0617 189.254 84.4336C192.205 85.4226 196.726 87.6313 198.796 89.4836C200.906 91.3714 202.333 93.5328 204.237 91.9536" fill="#F6F6F6"/>
<path d="M187.684 82.5244C187.684 82.5244 185.162 83.0617 189.254 84.4336C192.205 85.4226 196.726 87.6313 198.796 89.4836C200.906 91.3714 202.333 93.5328 204.237 91.9536" stroke="#575D68" stroke-width="0.5" stroke-miterlimit="10"/>
<path d="M184.596 58.7638L183.505 66.5841L185.178 72.9363L191.599 68.6766L186.057 64.8219C186.057 64.8219 186.641 61.6684 186.286 60.6764C185.817 59.9612 185.248 59.3171 184.596 58.7638Z" fill="#F6F6F6" stroke="#575D68" stroke-width="0.5" stroke-miterlimit="10"/>
<path d="M188.21 94.2028C187.868 93.4935 187.478 85.6971 187.229 79.8359C187.044 77.4163 186.345 75.064 185.177 72.9363L186.491 65.85L188.637 61.6133L190.03 59.1728L194.312 58.4368L195.315 59.2242L197.152 60.667L198.81 61.1359L199.71 62.6757L201.093 65.2188L197.495 64.3194L195.696 69.9886L195.834 77.2287L197.495 83.7226L188.21 94.2028Z" fill="#F6F6F6" stroke="#575D68" stroke-width="0.5" stroke-miterlimit="10"/>
<path d="M189.536 67.8489C189.667 64.9422 192.443 60.7206 192.443 60.7206L195.314 59.2241" fill="#F6F6F6"/>
<path d="M189.536 67.8489C189.667 64.9422 192.443 60.7206 192.443 60.7206L195.314 59.2241" stroke="#575D68" stroke-width="0.5" stroke-miterlimit="10"/>
<path d="M198.81 61.1357L195.315 61.8038C194.382 63.605 193.562 65.4621 192.859 67.3644C192.654 68.2271 192.654 69.1258 192.859 69.9885" fill="#F6F6F6"/>
<path d="M198.81 61.1357L195.315 61.8038C194.382 63.605 193.562 65.4621 192.859 67.3644C192.654 68.2271 192.654 69.1258 192.859 69.9885" stroke="#575D68" stroke-width="0.5" stroke-miterlimit="10"/>
<path d="M115.552 66.9492C115.552 66.9492 101.572 56.0144 115.921 42.2502C121.835 36.5774 125.55 35.5401 135.521 34.3775C147.611 32.9678 146.418 43.2415 146.418 50.4247C146.418 52.383 148.178 55.3635 148.117 58.5155C148.021 63.5298 146.034 68.978 145.57 71.4349C145.426 72.2062 145.025 72.9062 144.433 73.4214C143.841 73.9365 143.092 74.2368 142.308 74.2734L130.887 74.8039L116.197 71.6327L115.552 66.9492Z" fill="#F6F6F6" stroke="#575D68" stroke-width="0.5" stroke-miterlimit="10"/>
<path d="M117.726 184.787C123.25 186.388 147.611 189.446 147.611 189.446L165.935 181.417L164.241 172.394L165.935 171.677L159.349 146.335L159.751 92.7617L137.621 78.8201L130.476 77.6439H123.25C123.25 77.6439 118.458 74.8039 113.515 76.5996C111.043 77.4975 103.454 83.7224 103.454 83.7224C103.454 83.7224 97.5197 99.4097 97.0707 103.899C96.6566 108.041 97.847 124.154 96.7115 138.838C95.7863 149.882 94.127 160.853 91.7444 171.677C91.7444 171.677 117.704 184.66 117.726 184.787Z" fill="#DDDEDF" stroke="#575D68" stroke-width="0.5" stroke-miterlimit="10"/>
<path d="M137.621 78.8203C137.621 78.8203 116.319 75.4852 113.251 76.5998C110.779 77.4977 103.19 83.7226 103.19 83.7226C103.19 83.7226 97.2558 99.4099 96.8069 103.899L130.212 123.161L149.789 124.086L151.832 121.904L159.488 92.7618L137.621 78.8203Z" fill="#F6F6F6" stroke="#575D68" stroke-width="0.5" stroke-miterlimit="10"/>
<path d="M126.295 71.1363C127.847 70.4096 128.396 68.8286 128.522 67.2798C128.833 63.4579 131.641 61.3572 132.699 57.9214C132.94 56.9144 133.42 55.9801 134.098 55.1972C134.444 54.8133 134.9 54.5448 135.404 54.4281C135.907 54.3114 136.435 54.3521 136.915 54.5447C137.244 54.745 137.53 55.0082 137.757 55.3193C137.984 55.6304 138.148 55.9832 138.238 56.3575C138.335 56.6667 138.443 57.0256 138.743 57.1484C138.902 57.1926 139.07 57.1805 139.22 57.1141C139.371 57.0477 139.493 56.9312 139.567 56.7844C139.706 56.4864 139.777 56.1612 139.775 55.8324C139.911 53.9516 140.322 52.101 140.995 50.3395C141.588 48.8072 142.876 48.1149 143.846 46.8125C145.121 45.1015 147.153 41.6932 145.63 39.5542C145.079 38.7802 136.519 29.4042 128.644 34.1287C123.423 34.896 120.224 38.123 115.921 42.2502C103.536 54.13 111.244 62.9589 113.586 65.1537C114.027 65.5664 114.36 66.0807 114.557 66.6519C114.952 67.7285 115.216 68.8488 115.344 69.9885C115.344 69.9885 122.748 72.7973 126.295 71.1363Z" fill="#AFAFAF" stroke="#575D68" stroke-width="0.5" stroke-miterlimit="10"/>
<path d="M127.669 28.9279C127.669 28.9279 136.823 26.2948 142.256 25.7897C147.689 25.2846 148.745 33.4581 146.519 38.8434C144.907 42.7431 135.319 51.7907 130.152 56.486C127.97 58.4642 125.398 59.963 122.601 60.8857C119.21 62.0106 115.409 62.9746 112.58 61.8038C110.038 60.7517 107.335 55.0986 106.295 52.5512C105.427 50.4247 101.349 43.1646 109.185 32.6223C115.552 24.0561 126.106 24.624 130.069 31.9416" fill="#F6F6F6"/>
<path d="M127.669 28.9279C127.669 28.9279 136.823 26.2948 142.256 25.7897C147.689 25.2846 148.745 33.4581 146.519 38.8434C144.907 42.7431 135.319 51.7907 130.152 56.486C127.97 58.4642 125.398 59.963 122.601 60.8857C119.21 62.0106 115.409 62.9746 112.58 61.8038C110.038 60.7517 107.335 55.0986 106.295 52.5512C105.427 50.4247 101.349 43.1646 109.185 32.6223C115.552 24.0561 126.106 24.624 130.069 31.9416" stroke="#575D68" stroke-width="0.5" stroke-miterlimit="10"/>
<path d="M113.156 76.5999L116.198 71.6323L130.887 74.8036L137.622 78.8203L123.25 80.5994L113.156 76.5999Z" fill="#DDDEDF" stroke="#575D68" stroke-width="0.5" stroke-miterlimit="10"/>
<path d="M181.022 42.0912V109.754" stroke="#575D68" stroke-width="0.5" stroke-miterlimit="10"/>
<path d="M114.895 33.85C117.236 31.4173 120.264 29.7575 123.574 29.0929C124.303 28.8872 125.081 28.9435 125.773 29.2519C125.896 29.3181 126.004 29.4086 126.091 29.5178C126.178 29.6271 126.242 29.753 126.279 29.8877C126.389 30.4017 125.948 30.8626 125.512 31.1559C124.918 31.5107 124.263 31.7499 123.58 31.8609C121.957 32.2806 116.373 34.906 112.313 42.2501C108.254 49.5942 117.279 62.2165 117.279 62.2165" stroke="#575D68" stroke-width="0.5" stroke-miterlimit="10"/>
<path d="M142.256 25.7897C143.06 26.2231 143.759 26.8269 144.304 27.5588C144.85 28.2908 145.229 29.1332 145.415 30.027C146.108 34.3179 145.152 37.4668 142.256 41.3424C139.36 45.218 134.561 50.1677 128.148 55.4607" stroke="#575D68" stroke-width="0.5" stroke-miterlimit="10"/>
<path d="M112.58 61.8039C112.58 61.8039 107.957 52.1465 107.42 45.5988C106.901 39.2663 109.6 35.1138 114.375 31.3811" stroke="#575D68" stroke-width="0.5" stroke-miterlimit="10"/>
<path d="M155.012 89.9417L163.059 94.7447L183.099 111.253L186.975 83.7225C191.163 83.4533 195.233 82.2233 198.87 80.1278L199.376 79.8359L200.572 121.455L194.596 132.725L159.489 134.081L145.631 138.887" fill="#DDDEDF"/>
<path d="M155.012 89.9417L163.059 94.7447L183.099 111.253L186.975 83.7225C191.163 83.4533 195.233 82.2233 198.87 80.1278L199.376 79.8359L200.572 121.455L194.596 132.725L159.489 134.081L145.631 138.887" stroke="#575D68" stroke-width="0.5" stroke-miterlimit="10"/>
<path d="M142.264 153.615L159.35 146.334L162.708 155.619L145.63 163.203L142.264 153.615Z" fill="#F6F6F6" stroke="#575D68" stroke-width="0.5" stroke-miterlimit="10"/>
<path d="M142.264 153.615L145.337 177.164L149.152 178.166L164.241 172.394" stroke="#575D68" stroke-width="0.5" stroke-miterlimit="10"/>
<path d="M146.557 165.189L149.153 178.166" stroke="#575D68" stroke-width="0.5" stroke-miterlimit="10"/>
<path d="M110.277 111.668L109.447 131.232L110.949 162.249C111.003 163.354 110.9 164.461 110.642 165.538L107.357 179.291" stroke="#575D68" stroke-width="0.5" stroke-miterlimit="10"/>
<path d="M114.239 113.304L113.409 132.868L114.885 163.336C114.956 164.805 114.818 166.277 114.477 167.708L111.319 180.926" stroke="#575D68" stroke-width="0.5" stroke-miterlimit="10"/>
<path d="M166.142 94.5282C166.142 93.9548 165.678 93.4901 165.104 93.4901C164.531 93.4901 164.066 93.9548 164.066 94.5282V100.74C164.066 101.314 164.531 101.778 165.104 101.778C165.678 101.778 166.142 101.314 166.142 100.74V94.5282Z" fill="#F6F6F6" stroke="#575D68" stroke-width="0.5" stroke-miterlimit="10"/>
<path d="M186.383 114.564L183.099 111.252L189.667 114.149" fill="#DDDEDF"/>
<path d="M186.383 114.564L183.099 111.252L189.667 114.149" stroke="#575D68" stroke-width="0.5" stroke-miterlimit="10"/>
<path d="M133.476 59.6132C133.476 59.6132 132.646 62.3123 134.099 63.8694C135.057 64.8348 136.285 65.4865 137.621 65.738" stroke="#575D68" stroke-width="0.5" stroke-miterlimit="10"/>
<path d="M139.737 105.498C139.737 105.498 143.443 95.9879 146.557 94.2027C149.672 92.4176 155.012 89.9417 155.012 89.9417L163.059 94.7446L178.667 107.602L173.963 120.174L147.612 124.085" fill="#F6F6F6"/>
<path d="M139.737 105.498C139.737 105.498 143.443 95.9879 146.557 94.2027C149.672 92.4176 155.012 89.9417 155.012 89.9417L163.059 94.7446L178.667 107.602L173.963 120.174L147.612 124.085" stroke="#575D68" stroke-width="0.5" stroke-miterlimit="10"/>
<path d="M142.264 131.232L159.488 134.08" stroke="#575D68" stroke-width="0.5" stroke-miterlimit="10"/>
<path d="M166.142 50.382C166.142 49.8087 165.678 49.3439 165.104 49.3439C164.531 49.3439 164.066 49.8087 164.066 50.382V56.594C164.066 57.1674 164.531 57.6321 165.104 57.6321C165.678 57.6321 166.142 57.1674 166.142 56.594V50.382Z" fill="#F6F6F6" stroke="#575D68" stroke-width="0.5" stroke-miterlimit="10"/>
<path d="M122.803 268.211C122.803 268.211 131.317 269.669 136.77 268.69C142.222 267.712 144.363 266.536 144.363 266.536" stroke="#575D68" stroke-width="0.5" stroke-miterlimit="10"/>
<path d="M88.7195 261.281C88.7195 261.281 97.2234 262.797 102.682 261.855" stroke="#575D68" stroke-width="0.5" stroke-miterlimit="10"/>
<path d="M92.7555 170.401L90.5214 196.57L92.7019 219.883L89.0048 242.285C87.3112 247.787 86.1965 253.719 88.7186 258.894L88.9458 259.36L88.7637 273.45C88.5675 275.022 88.7779 276.618 89.3746 278.086C89.9713 279.553 90.9345 280.843 92.1721 281.832C93.2597 282.702 94.5292 283.314 95.8862 283.625C97.2432 283.936 98.6528 283.937 100.01 283.628L122.112 278.595L125.16 276.127C125.745 275.653 126.186 275.025 126.434 274.314C126.681 273.603 126.725 272.837 126.56 272.102C126.396 271.367 126.029 270.693 125.502 270.155C124.975 269.617 124.308 269.237 123.577 269.058L114.526 266.84C112.764 266.409 111.113 265.611 109.68 264.499C108.247 263.388 107.064 261.987 106.208 260.388L106.134 260.249L124.984 226.522L126.446 186.969" fill="#DDDEDF"/>
<path d="M92.7555 170.401L90.5214 196.57L92.7019 219.883L89.0048 242.285C87.3112 247.787 86.1965 253.719 88.7186 258.894L88.9458 259.36L88.7637 273.45C88.5675 275.022 88.7779 276.618 89.3746 278.086C89.9713 279.553 90.9345 280.843 92.1721 281.832C93.2597 282.702 94.5292 283.314 95.8862 283.625C97.2432 283.936 98.6528 283.937 100.01 283.628L122.112 278.595L125.16 276.127C125.745 275.653 126.186 275.025 126.434 274.314C126.681 273.603 126.725 272.837 126.56 272.102C126.396 271.367 126.029 270.693 125.502 270.155C124.975 269.617 124.308 269.237 123.577 269.058L114.526 266.84C112.764 266.409 111.113 265.611 109.68 264.499C108.247 263.388 107.064 261.987 106.208 260.388L106.134 260.249L124.984 226.522L126.446 186.969" stroke="#575D68" stroke-width="0.5" stroke-miterlimit="10"/>
<path style="mix-blend-mode:multiply" d="M92.7555 170.401L90.5214 196.57L92.7019 219.883L89.0048 242.285C87.3112 247.787 86.1965 253.719 88.7186 258.894L88.9458 259.36L88.7637 273.45C88.5675 275.022 88.7779 276.618 89.3746 278.086C89.9713 279.553 90.9345 280.843 92.1721 281.832C93.2597 282.702 94.5292 283.314 95.8862 283.625C97.2432 283.936 98.6528 283.937 100.01 283.628L122.112 278.595L125.227 276.072C125.806 275.603 126.243 274.982 126.487 274.278C126.732 273.575 126.776 272.817 126.613 272.09C126.45 271.363 126.088 270.696 125.566 270.164C125.045 269.632 124.385 269.256 123.662 269.079L114.526 266.84C112.764 266.409 111.113 265.611 109.68 264.499C108.247 263.388 107.064 261.987 106.208 260.388L106.134 260.249L124.984 226.522L126.446 186.969" fill="url(#paint6_linear_129_6)"/>
<path style="mix-blend-mode:multiply" d="M113.152 223.993L107.84 219.01L113.497 210.17C113.497 210.17 106.051 183.233 103.876 175.87L92.7554 170.401L90.5214 196.57L92.7019 219.883L89.0048 242.285C87.3112 247.787 86.1965 253.719 88.7186 258.894L88.8283 259.119L100.487 246.712L113.152 223.993Z" fill="url(#paint7_linear_129_6)"/>
<path style="mix-blend-mode:multiply" d="M123.608 269.066L114.525 266.84C112.764 266.409 111.113 265.611 109.679 264.499C108.246 263.388 107.063 261.987 106.207 260.388C103.254 261.764 100.123 262.721 96.9054 263.234C94.6264 263.562 92.3026 263.369 90.1089 262.669L88.8016 273.143C88.4589 275.55 89.0384 277.998 90.4241 279.996C91.4878 281.477 92.9645 282.611 94.6695 283.257C96.3745 283.903 98.232 284.032 100.01 283.628L122.112 278.595L125.185 276.106C125.768 275.634 126.207 275.009 126.453 274.301C126.7 273.592 126.744 272.829 126.58 272.097C126.416 271.365 126.051 270.694 125.526 270.158C125.001 269.623 124.337 269.244 123.608 269.066Z" fill="url(#paint8_linear_129_6)"/>
<path d="M88.9458 259.36C93.5922 260.771 98.5037 261.08 103.29 260.261" stroke="#575D68" stroke-width="0.5" stroke-miterlimit="10"/>
<path d="M119.985 185.719C122.04 196.647 126.872 225.335 126.872 225.335C126.872 225.335 117.787 248.966 117.75 259.05L120.357 266.089L120.927 295.224C120.995 295.858 121.189 296.471 121.496 297.03C121.803 297.588 122.217 298.08 122.715 298.477C123.213 298.874 123.785 299.169 124.398 299.344C125.01 299.519 125.651 299.571 126.284 299.497L150.932 297.783C155.11 298.357 162.525 293.374 167.034 288.801C168.504 287.31 164.509 283.604 162.415 283.638L149.493 285.074L145.678 283.488C144.171 282.863 142.946 281.707 142.235 280.24C141.523 278.772 141.375 277.094 141.817 275.524C142.783 272.099 144.029 267.694 145.095 263.963C146.296 263.181 147.394 262.251 148.362 261.194C152.79 256.341 153.879 232.937 156.566 227.814C156.973 227.039 157.165 226.169 157.12 225.295L164.205 177.322L164.109 176.303L125.463 178.992C125.463 178.992 122.913 182.067 119.985 185.719Z" fill="#DDDEDF" stroke="#575D68" stroke-width="0.5" stroke-miterlimit="10"/>
<path style="mix-blend-mode:multiply" d="M119.984 185.719C122.04 196.647 126.872 225.335 126.872 225.335C126.872 225.335 117.675 249.714 117.75 259.05L120.357 266.089L120.926 295.224C120.995 295.858 121.188 296.471 121.495 297.029C121.802 297.588 122.217 298.08 122.715 298.477C123.213 298.874 123.785 299.169 124.397 299.344C125.01 299.519 125.651 299.571 126.284 299.497L150.931 297.783C155.109 298.357 162.524 293.374 167.033 288.801C168.504 287.309 164.508 283.604 162.415 283.638L149.493 285.074L144.876 283.155C143.59 282.622 142.545 281.636 141.938 280.384C141.33 279.132 141.204 277.701 141.581 276.361C142.574 272.839 143.939 268.006 145.095 263.963C146.296 263.181 147.393 262.251 148.361 261.194C152.789 256.341 153.879 232.937 156.566 227.814C156.973 227.039 157.164 226.169 157.12 225.295L164.204 177.322L164.108 176.303L125.462 178.992C125.462 178.992 122.913 182.067 119.984 185.719Z" fill="url(#paint9_linear_129_6)"/>
<path style="mix-blend-mode:multiply" d="M167.034 288.801C168.504 287.309 164.509 283.604 162.415 283.638L149.493 285.073L144.876 283.155C143.59 282.622 142.545 281.636 141.938 280.384C141.331 279.132 141.204 277.7 141.581 276.361C142.37 273.562 143.394 269.938 144.361 266.536C139.48 268.268 134.405 269.398 129.25 269.9C126.424 270.235 123.565 270.184 120.753 269.749L120.926 295.224C120.995 295.858 121.188 296.471 121.495 297.029C121.802 297.588 122.217 298.08 122.715 298.477C123.213 298.874 123.785 299.169 124.397 299.344C125.01 299.519 125.651 299.571 126.284 299.497L150.931 297.783C155.11 298.357 162.524 293.373 167.034 288.801Z" fill="url(#paint10_linear_129_6)"/>
<path style="mix-blend-mode:multiply" d="M152.327 226.701L144.814 222.776L149.022 216.08L138.771 184.692L128.281 178.796L125.462 178.992C125.462 178.992 122.913 182.067 119.984 185.72C122.04 196.647 126.872 225.335 126.872 225.335C126.872 225.335 117.284 248.367 117.75 259.05L119.946 264.98L133.877 255.697L152.327 226.701Z" fill="url(#paint11_linear_129_6)"/>
<path d="M145.094 263.963C145.094 263.963 141.822 266.435 134.628 266.963C130.054 267.299 122.786 265.891 122.786 265.891" fill="#DDDEDF"/>
<path d="M145.094 263.963C145.094 263.963 141.822 266.435 134.628 266.963C130.054 267.299 122.786 265.891 122.786 265.891" stroke="#575D68" stroke-width="0.5" stroke-miterlimit="10"/>
<path d="M163.49 23.6411L215.842 54.432L243.308 39.2658L189.597 8.32983L163.49 23.6411Z" fill="#F6F6F6" stroke="#575D68" stroke-width="0.5" stroke-miterlimit="10"/>
<path d="M215.842 54.432V147.115L243.308 130.451V39.2659L215.842 54.432Z" fill="#F6F6F6" stroke="#575D68" stroke-width="0.5" stroke-miterlimit="10"/>
<path d="M208.821 19.0698V-574.981L216.136 -571.797V23.8104L212.556 25.832L208.821 19.0698Z" fill="#F6F6F6" stroke="#575D68" stroke-width="0.5" stroke-miterlimit="10"/>
<path d="M205.163 21.1336V-574.981L212.478 -571.797V14.628L212.441 25.832L205.163 21.1336Z" fill="#F6F6F6" stroke="#575D68" stroke-width="0.5" stroke-miterlimit="10"/>
<path d="M163.49 23.6411V115.505L215.842 147.115V54.4321L163.49 23.6411Z" fill="#F6F6F6" stroke="#575D68" stroke-width="0.5" stroke-miterlimit="10"/>
<path d="M167.596 34.4309V107.85L141.021 123.161V50.0097L167.596 34.4309Z" fill="#F6F6F6" stroke="#575D68" stroke-width="0.5" stroke-miterlimit="10"/>
<path d="M165.104 106.223L206.328 131.387V56.8561L165.104 32.804V106.223Z" fill="#F6F6F6" stroke="#575D68" stroke-width="0.5" stroke-miterlimit="10"/>
<path d="M199.709 58.0909L206.236 61.8596V59.3981L199.708 55.6301L199.709 58.0909Z" fill="#B988FF" stroke="#575D68" stroke-width="0.5" stroke-miterlimit="10"/>
<path d="M199.709 62.748L206.237 66.5159L206.237 64.0552L199.709 60.2872V62.748Z" fill="#B988FF" stroke="#575D68" stroke-width="0.5" stroke-miterlimit="10"/>
<path d="M199.71 66.8778L206.237 70.6457V68.1849L199.709 64.417L199.71 66.8778Z" fill="#B988FF" stroke="#575D68" stroke-width="0.5" stroke-miterlimit="10"/>
<path d="M195.401 55.9491L197.247 57.0146L197.246 54.5538L195.401 53.4884V55.9491Z" fill="#B988FF" stroke="#575D68" stroke-width="0.5" stroke-miterlimit="10"/>
<path d="M182.912 48.74L194.13 55.2152V52.7545L182.912 46.2793L182.912 48.74Z" fill="#B988FF" stroke="#575D68" stroke-width="0.5" stroke-miterlimit="10"/>
<path d="M186.894 87.9715L203.732 97.6344V95.1736L186.893 85.5107L186.894 87.9715Z" fill="#B988FF" stroke="#575D68" stroke-width="0.5" stroke-miterlimit="10"/>
<path d="M186.894 92.2706L203.732 101.933V99.4719L186.893 89.8091L186.894 92.2706Z" fill="#B988FF" stroke="#575D68" stroke-width="0.5" stroke-miterlimit="10"/>
<path d="M186.894 97.2562L203.732 106.919V104.458L186.893 94.7954L186.894 97.2562Z" fill="#B988FF" stroke="#575D68" stroke-width="0.5" stroke-miterlimit="10"/>
<path d="M186.894 101.441L203.732 111.103V108.642L186.893 98.9799L186.894 101.441Z" fill="#B988FF" stroke="#575D68" stroke-width="0.5" stroke-miterlimit="10"/>
<path d="M186.894 105.439L203.732 115.102V112.641L186.893 102.979L186.894 105.439Z" fill="#B988FF" stroke="#575D68" stroke-width="0.5" stroke-miterlimit="10"/>
<path d="M186.894 109.915L203.732 119.578V117.117L186.893 107.454L186.894 109.915Z" fill="#B988FF" stroke="#575D68" stroke-width="0.5" stroke-miterlimit="10"/>
<path d="M186.894 113.914L203.732 123.576V121.116L186.893 111.453L186.894 113.914Z" fill="#B988FF" stroke="#575D68" stroke-width="0.5" stroke-miterlimit="10"/>
<path d="M195.402 60.6054L197.247 61.6708V59.2101L195.402 58.1447V60.6054Z" fill="#B988FF" stroke="#575D68" stroke-width="0.5" stroke-miterlimit="10"/>
<path d="M182.913 53.3971L194.131 59.8715L194.13 57.4107L182.913 50.9355V53.3971Z" fill="#B988FF" stroke="#575D68" stroke-width="0.5" stroke-miterlimit="10"/>
<path d="M195.402 64.7353L197.248 65.8006V63.3399L195.402 62.2745V64.7353Z" fill="#B988FF" stroke="#575D68" stroke-width="0.5" stroke-miterlimit="10"/>
<path d="M183.099 64.1534L184.944 65.2188V62.7581L183.098 61.6926L183.099 64.1534Z" fill="#B988FF" stroke="#575D68" stroke-width="0.5" stroke-miterlimit="10"/>
<path d="M183.099 68.8104L184.945 69.8759L184.944 67.4144L183.099 66.3489V68.8104Z" fill="#B988FF" stroke="#575D68" stroke-width="0.5" stroke-miterlimit="10"/>
<path d="M183.1 72.9395L184.945 74.0049V71.5441L183.099 70.4788L183.1 72.9395Z" fill="#B988FF" stroke="#575D68" stroke-width="0.5" stroke-miterlimit="10"/>
<path d="M183.099 77.2644L184.944 78.3299V75.8691L183.098 74.8037L183.099 77.2644Z" fill="#B988FF" stroke="#575D68" stroke-width="0.5" stroke-miterlimit="10"/>
<path d="M183.099 81.9215L184.945 82.9869L184.944 80.5261L183.099 79.4607V81.9215Z" fill="#B988FF" stroke="#575D68" stroke-width="0.5" stroke-miterlimit="10"/>
<path d="M183.1 86.0513L184.945 87.1167V84.656L183.099 83.5906L183.1 86.0513Z" fill="#B988FF" stroke="#575D68" stroke-width="0.5" stroke-miterlimit="10"/>
<path d="M183.099 90.5072L184.944 91.5727V89.1119L183.098 88.0465L183.099 90.5072Z" fill="#B988FF" stroke="#575D68" stroke-width="0.5" stroke-miterlimit="10"/>
<path d="M183.099 95.1643L184.945 96.2297L184.944 93.7681L183.099 92.7028V95.1643Z" fill="#B988FF" stroke="#575D68" stroke-width="0.5" stroke-miterlimit="10"/>
<path d="M183.1 99.2941L184.945 100.36V97.898L183.099 96.8325L183.1 99.2941Z" fill="#B988FF" stroke="#575D68" stroke-width="0.5" stroke-miterlimit="10"/>
<path d="M183.099 103.318L184.944 104.383V101.923L183.098 100.857L183.099 103.318Z" fill="#B988FF" stroke="#575D68" stroke-width="0.5" stroke-miterlimit="10"/>
<path d="M183.099 107.975L184.945 109.04L184.944 106.58L183.099 105.514V107.975Z" fill="#B988FF" stroke="#575D68" stroke-width="0.5" stroke-miterlimit="10"/>
<path d="M183.1 112.105L184.945 113.17V110.71L183.099 109.644L183.1 112.105Z" fill="#B988FF" stroke="#575D68" stroke-width="0.5" stroke-miterlimit="10"/>
<path d="M182.913 57.5262L194.131 64.0013V61.5406L182.913 55.0654L182.913 57.5262Z" fill="#B988FF" stroke="#575D68" stroke-width="0.5" stroke-miterlimit="10"/>
<path d="M187.696 64.417C187.696 64.417 185.136 65.2277 189.291 66.2242C192.287 66.9429 196.882 68.7596 198.986 70.4591C201.132 72.1917 202.584 74.2761 204.522 72.4541" fill="#F6F6F6"/>
<path d="M187.696 64.417C187.696 64.417 185.136 65.2277 189.291 66.2242C192.287 66.9429 196.882 68.7596 198.986 70.4591C201.132 72.1917 202.584 74.2761 204.522 72.4541" stroke="#575D68" stroke-width="0.5" stroke-miterlimit="10"/>
<path d="M187.693 69.0795C187.693 69.0795 185.143 69.8191 189.282 70.9133C192.266 71.7024 196.842 73.6214 198.938 75.3608C201.074 77.1339 202.52 79.2386 204.448 77.4798" fill="#F6F6F6"/>
<path d="M187.693 69.0795C187.693 69.0795 185.143 69.8191 189.282 70.9133C192.266 71.7024 196.842 73.6214 198.938 75.3608C201.074 77.1339 202.52 79.2386 204.448 77.4798" stroke="#575D68" stroke-width="0.5" stroke-miterlimit="10"/>
<path d="M187.69 73.0967C187.69 73.0967 185.148 73.7754 189.273 74.9533C192.247 75.8026 196.807 77.8089 198.894 79.5824C201.023 81.3901 202.463 83.512 204.384 81.8073" fill="#F6F6F6"/>
<path d="M187.69 73.0967C187.69 73.0967 185.148 73.7754 189.273 74.9533C192.247 75.8026 196.807 77.8089 198.894 79.5824C201.023 81.3901 202.463 83.512 204.384 81.8073" stroke="#575D68" stroke-width="0.5" stroke-miterlimit="10"/>
<path d="M187.687 77.8402C187.687 77.8402 185.155 78.4475 189.263 79.7234C192.225 80.6433 196.766 82.7519 198.845 84.5652C200.964 86.4135 202.398 88.5553 204.31 86.914" fill="#F6F6F6"/>
<path d="M187.687 77.8402C187.687 77.8402 185.155 78.4475 189.263 79.7234C192.225 80.6433 196.766 82.7519 198.845 84.5652C200.964 86.4135 202.398 88.5553 204.31 86.914" stroke="#575D68" stroke-width="0.5" stroke-miterlimit="10"/>
<path d="M187.684 82.5244C187.684 82.5244 185.162 83.0617 189.254 84.4336C192.204 85.4226 196.726 87.6313 198.796 89.4836C200.905 91.3714 202.333 93.5328 204.236 91.9536" fill="#F6F6F6"/>
<path d="M187.684 82.5244C187.684 82.5244 185.162 83.0617 189.254 84.4336C192.204 85.4226 196.726 87.6313 198.796 89.4836C200.905 91.3714 202.333 93.5328 204.236 91.9536" stroke="#575D68" stroke-width="0.5" stroke-miterlimit="10"/>
<path d="M184.595 58.7638L183.505 66.5841L185.177 72.9363L191.598 68.6766L186.057 64.8219C186.057 64.8219 186.641 61.6684 186.285 60.6764C185.816 59.9612 185.247 59.3171 184.595 58.7638Z" fill="#F6F6F6" stroke="#575D68" stroke-width="0.5" stroke-miterlimit="10"/>
<path d="M188.21 94.2028C187.868 93.4935 187.478 85.6971 187.229 79.8359C187.044 77.4163 186.344 75.064 185.177 72.9363L186.491 65.85L188.636 61.6133L190.03 59.1728L194.311 58.4368L195.314 59.2242L197.152 60.667L198.81 61.1359L199.71 62.6757L201.093 65.2188L197.495 64.3194L195.696 69.9886L195.834 77.2287L197.495 83.7226L188.21 94.2028Z" fill="#F6F6F6" stroke="#575D68" stroke-width="0.5" stroke-miterlimit="10"/>
<path d="M189.536 67.8489C189.667 64.9422 192.443 60.7206 192.443 60.7206L195.314 59.2241" fill="#F6F6F6"/>
<path d="M189.536 67.8489C189.667 64.9422 192.443 60.7206 192.443 60.7206L195.314 59.2241" stroke="#575D68" stroke-width="0.5" stroke-miterlimit="10"/>
<path d="M198.81 61.1357L195.314 61.8038C194.382 63.605 193.562 65.4621 192.858 67.3644C192.653 68.2271 192.653 69.1258 192.858 69.9885" fill="#F6F6F6"/>
<path d="M198.81 61.1357L195.314 61.8038C194.382 63.605 193.562 65.4621 192.858 67.3644C192.653 68.2271 192.653 69.1258 192.858 69.9885" stroke="#575D68" stroke-width="0.5" stroke-miterlimit="10"/>
<path d="M115.551 66.9492C115.551 66.9492 101.571 56.0144 115.921 42.2502C121.835 36.5774 125.549 35.5401 135.521 34.3775C147.611 32.9678 146.418 43.2415 146.418 50.4247C146.418 52.383 148.177 55.3635 148.117 58.5155C148.021 63.5298 146.034 68.978 145.57 71.4349C145.425 72.2062 145.024 72.9062 144.432 73.4214C143.84 73.9365 143.091 74.2368 142.307 74.2734L130.886 74.8039L116.197 71.6327L115.551 66.9492Z" fill="#F6F6F6" stroke="#575D68" stroke-width="0.5" stroke-miterlimit="10"/>
<path d="M117.726 184.787C123.25 186.388 147.611 189.446 147.611 189.446L165.934 181.417L164.24 172.394L165.934 171.677L159.349 146.335L159.751 92.7617L137.621 78.8201L130.476 77.6439H123.25C123.25 77.6439 118.457 74.8039 113.514 76.5996C111.043 77.4975 103.453 83.7224 103.453 83.7224C103.453 83.7224 97.5192 99.4097 97.0702 103.899C96.6561 108.041 97.8465 124.154 96.711 138.838C95.7858 149.882 94.1265 160.853 91.7439 171.677C91.7439 171.677 117.703 184.66 117.726 184.787Z" fill="#DDDEDF" stroke="#575D68" stroke-width="0.5" stroke-miterlimit="10"/>
<path d="M137.621 78.8203C137.621 78.8203 116.318 75.4852 113.25 76.5998C110.779 77.4977 103.19 83.7226 103.19 83.7226C103.19 83.7226 97.2555 99.4099 96.8066 103.899L130.212 123.161L149.788 124.086L151.832 121.904L159.487 92.7618L137.621 78.8203Z" fill="#FFA08A" stroke="#575D68" stroke-width="0.5" stroke-miterlimit="10"/>
<path d="M126.295 71.1363C127.847 70.4096 128.395 68.8286 128.521 67.2798C128.832 63.4579 131.641 61.3572 132.698 57.9214C132.94 56.9144 133.419 55.9801 134.097 55.1972C134.444 54.8133 134.899 54.5448 135.403 54.4281C135.907 54.3114 136.434 54.3521 136.914 54.5447C137.243 54.745 137.53 55.0082 137.757 55.3193C137.984 55.6304 138.147 55.9832 138.238 56.3575C138.335 56.6667 138.443 57.0256 138.743 57.1484C138.901 57.1926 139.07 57.1805 139.22 57.1141C139.37 57.0477 139.493 56.9312 139.566 56.7844C139.705 56.4864 139.777 56.1612 139.774 55.8324C139.911 53.9516 140.322 52.101 140.995 50.3395C141.588 48.8072 142.875 48.1149 143.846 46.8125C145.121 45.1015 147.153 41.6932 145.63 39.5542C145.078 38.7802 136.519 29.4042 128.644 34.1287C123.422 34.896 120.223 38.123 115.921 42.2502C103.536 54.13 111.243 62.9589 113.586 65.1537C114.027 65.5664 114.36 66.0807 114.556 66.6519C114.952 67.7285 115.216 68.8488 115.344 69.9885C115.344 69.9885 122.747 72.7973 126.295 71.1363Z" fill="#AFAFAF" stroke="#575D68" stroke-width="0.5" stroke-miterlimit="10"/>
<path d="M127.668 28.9279C127.668 28.9279 136.823 26.2948 142.255 25.7897C147.688 25.2846 148.745 33.4581 146.518 38.8434C144.906 42.7431 135.319 51.7907 130.152 56.486C127.97 58.4642 125.397 59.963 122.6 60.8857C119.209 62.0106 115.408 62.9746 112.58 61.8038C110.037 60.7517 107.335 55.0986 106.295 52.5512C105.427 50.4247 101.349 43.1646 109.185 32.6223C115.552 24.0561 126.105 24.624 130.069 31.9416" fill="#FFA08A"/>
<path d="M127.668 28.9279C127.668 28.9279 136.823 26.2948 142.255 25.7897C147.688 25.2846 148.745 33.4581 146.518 38.8434C144.906 42.7431 135.319 51.7907 130.152 56.486C127.97 58.4642 125.397 59.963 122.6 60.8857C119.209 62.0106 115.408 62.9746 112.58 61.8038C110.037 60.7517 107.335 55.0986 106.295 52.5512C105.427 50.4247 101.349 43.1646 109.185 32.6223C115.552 24.0561 126.105 24.624 130.069 31.9416" stroke="#575D68" stroke-width="0.5" stroke-miterlimit="10"/>
<path d="M113.155 76.5999L116.198 71.6323L130.886 74.8036L137.621 78.8203L123.25 80.5994L113.155 76.5999Z" fill="#DDDEDF" stroke="#575D68" stroke-width="0.5" stroke-miterlimit="10"/>
<path style="mix-blend-mode:multiply" d="M113.155 76.5999L116.198 71.6323L130.886 74.8036L137.621 78.8203L123.25 80.5994L113.155 76.5999Z" fill="url(#paint12_linear_129_6)"/>
<path d="M181.021 42.0912V109.754" stroke="#575D68" stroke-width="0.5" stroke-miterlimit="10"/>
<path d="M114.894 33.85C117.235 31.4173 120.264 29.7575 123.574 29.0929C124.302 28.8872 125.08 28.9435 125.772 29.2519C125.895 29.3181 126.003 29.4086 126.09 29.5178C126.178 29.6271 126.242 29.753 126.279 29.8877C126.388 30.4017 125.948 30.8626 125.511 31.1559C124.918 31.5107 124.263 31.7499 123.58 31.8609C121.956 32.2806 116.373 34.906 112.313 42.2501C108.253 49.5942 117.279 62.2165 117.279 62.2165" stroke="#575D68" stroke-width="0.5" stroke-miterlimit="10"/>
<path d="M142.256 25.7897C143.059 26.2231 143.758 26.8269 144.304 27.5588C144.85 28.2908 145.229 29.1332 145.415 30.027C146.107 34.3179 145.152 37.4668 142.256 41.3424C139.36 45.218 134.561 50.1677 128.148 55.4607" stroke="#575D68" stroke-width="0.5" stroke-miterlimit="10"/>
<path d="M112.578 61.8039C112.578 61.8039 107.955 52.1465 107.419 45.5988C106.9 39.2663 109.599 35.1138 114.374 31.3811" stroke="#575D68" stroke-width="0.5" stroke-miterlimit="10"/>
<path d="M155.012 89.9417L163.058 94.7447L183.098 111.253L186.974 83.7225C191.162 83.4533 195.233 82.2233 198.869 80.1278L199.376 79.8359L200.572 121.455L194.596 132.725L159.488 134.081L145.63 138.887" fill="#DDDEDF"/>
<path d="M155.012 89.9417L163.058 94.7447L183.098 111.253L186.974 83.7225C191.162 83.4533 195.233 82.2233 198.869 80.1278L199.376 79.8359L200.572 121.455L194.596 132.725L159.488 134.081L145.63 138.887" stroke="#575D68" stroke-width="0.5" stroke-miterlimit="10"/>
<path d="M142.263 153.615L159.349 146.334L162.708 155.619L145.63 163.203L142.263 153.615Z" fill="#FFA08A" stroke="#575D68" stroke-width="0.5" stroke-miterlimit="10"/>
<path d="M142.263 153.615L145.336 177.164L149.152 178.166L164.241 172.394" stroke="#575D68" stroke-width="0.5" stroke-miterlimit="10"/>
<path d="M146.557 165.189L149.152 178.166" stroke="#575D68" stroke-width="0.5" stroke-miterlimit="10"/>
<path d="M110.276 111.668L109.445 131.232L110.948 162.249C111.001 163.354 110.898 164.461 110.641 165.538L107.355 179.291" stroke="#575D68" stroke-width="0.5" stroke-miterlimit="10"/>
<path d="M114.238 113.304L113.408 132.868L114.884 163.336C114.955 164.805 114.818 166.277 114.476 167.708L111.318 180.926" stroke="#575D68" stroke-width="0.5" stroke-miterlimit="10"/>
<path d="M166.142 94.5282C166.142 93.9548 165.677 93.4901 165.104 93.4901C164.531 93.4901 164.066 93.9548 164.066 94.5282V100.74C164.066 101.314 164.531 101.778 165.104 101.778C165.677 101.778 166.142 101.314 166.142 100.74V94.5282Z" fill="#F6F6F6" stroke="#575D68" stroke-width="0.5" stroke-miterlimit="10"/>
<path d="M186.382 114.564L183.098 111.252L189.666 114.149" fill="#DDDEDF"/>
<path d="M186.382 114.564L183.098 111.252L189.666 114.149" stroke="#575D68" stroke-width="0.5" stroke-miterlimit="10"/>
<path d="M133.476 59.6132C133.476 59.6132 132.646 62.3123 134.099 63.8694C135.057 64.8348 136.285 65.4865 137.621 65.738" stroke="#575D68" stroke-width="0.5" stroke-miterlimit="10"/>
<path d="M139.737 105.498C139.737 105.498 143.442 95.9879 146.557 94.2027C149.671 92.4176 155.011 89.9417 155.011 89.9417L163.058 94.7446L178.666 107.602L173.963 120.174L147.611 124.085" fill="#FFA08A"/>
<path d="M139.737 105.498C139.737 105.498 143.442 95.9879 146.557 94.2027C149.671 92.4176 155.011 89.9417 155.011 89.9417L163.058 94.7446L178.666 107.602L173.963 120.174L147.611 124.085" stroke="#575D68" stroke-width="0.5" stroke-miterlimit="10"/>
<path d="M142.263 131.232L159.488 134.08" stroke="#575D68" stroke-width="0.5" stroke-miterlimit="10"/>
<path d="M166.142 50.382C166.142 49.8087 165.677 49.3439 165.104 49.3439C164.531 49.3439 164.066 49.8087 164.066 50.382V56.594C164.066 57.1674 164.531 57.6321 165.104 57.6321C165.677 57.6321 166.142 57.1674 166.142 56.594V50.382Z" fill="#F6F6F6" stroke="#575D68" stroke-width="0.5" stroke-miterlimit="10"/>
<path d="M122.802 268.211C122.802 268.211 131.316 269.669 136.769 268.69C142.221 267.712 144.362 266.536 144.362 266.536" stroke="#575D68" stroke-width="0.5" stroke-miterlimit="10"/>
<path d="M88.719 261.281C88.719 261.281 97.2229 262.797 102.682 261.855" stroke="#575D68" stroke-width="0.5" stroke-miterlimit="10"/>
<path d="M290 55.8521V66L308 56.2814V46L290 55.8521Z" fill="#F6F6F6" stroke="#575D68" stroke-width="0.5" stroke-miterlimit="10"/>
<path d="M282 78.3447V89L299 78.7955V68L282 78.3447Z" fill="#F6F6F6" stroke="#575D68" stroke-width="0.5" stroke-miterlimit="10"/>
<path d="M272 224.852V235L290 225.281V215L272 224.852Z" fill="#F6F6F6" stroke="#575D68" stroke-width="0.5" stroke-miterlimit="10"/>
<path d="M264 247.852V258L281 248.281V238L264 247.852Z" fill="#F6F6F6" stroke="#575D68" stroke-width="0.5" stroke-miterlimit="10"/>
<path d="M274 128.345V139L292 128.795V118L274 128.345Z" fill="#F6F6F6" stroke="#575D68" stroke-width="0.5" stroke-miterlimit="10"/>
<path d="M290 138.852V149L308 139.281V129L290 138.852Z" fill="#F6F6F6" stroke="#575D68" stroke-width="0.5" stroke-miterlimit="10"/>
<path d="M59 26.3447V37L76 26.7955V16L59 26.3447Z" fill="#F6F6F6" stroke="#575D68" stroke-width="0.5" stroke-miterlimit="10"/>
<path d="M34 147.345V158L52 147.795V137L34 147.345Z" fill="#F6F6F6" stroke="#575D68" stroke-width="0.5" stroke-miterlimit="10"/>
<path d="M25 170.852V181L43 171.281V161L25 170.852Z" fill="#F6F6F6" stroke="#575D68" stroke-width="0.5" stroke-miterlimit="10"/>
<path d="M25 47.3447V58L43 47.7955V37L25 47.3447Z" fill="#F6F6F6" stroke="#575D68" stroke-width="0.5" stroke-miterlimit="10"/>
<path d="M16 69.8521V80L34 70.2814V60L16 69.8521Z" fill="#F6F6F6" stroke="#575D68" stroke-width="0.5" stroke-miterlimit="10"/>
<path d="M51 76.3447V87L69 76.7955V66L51 76.3447Z" fill="#F6F6F6" stroke="#575D68" stroke-width="0.5" stroke-miterlimit="10"/>
<path d="M67 86.3595V96L84 86.7673V77L67 86.3595Z" fill="#F6F6F6" stroke="#575D68" stroke-width="0.5" stroke-miterlimit="10"/>
<defs>
<linearGradient id="paint0_linear_129_6" x1="87.2392" y1="227.13" x2="126.712" y2="227.13" gradientUnits="userSpaceOnUse">
<stop stop-color="#EAEAEA"/>
<stop offset="0.12859" stop-color="#EAEAEA" stop-opacity="0.98494"/>
<stop offset="0.24295" stop-color="#EBEBEB" stop-opacity="0.93862"/>
<stop offset="0.352" stop-color="#EDEDED" stop-opacity="0.86078"/>
<stop offset="0.4577" stop-color="#EFEFEF" stop-opacity="0.75135"/>
<stop offset="0.56108" stop-color="#F2F2F2" stop-opacity="0.6101"/>
<stop offset="0.66269" stop-color="#F6F6F6" stop-opacity="0.43687"/>
<stop offset="0.76112" stop-color="#FAFAFA" stop-opacity="0.23535"/>
<stop offset="0.85781" stop-color="white" stop-opacity="0.01"/>
<stop offset="0.85943" stop-color="white" stop-opacity="0"/>
</linearGradient>
<linearGradient id="paint1_linear_129_6" x1="102.406" y1="189.799" x2="99.4967" y2="252.962" gradientUnits="userSpaceOnUse">
<stop stop-color="#EAEAEA"/>
<stop offset="0.12859" stop-color="#EAEAEA" stop-opacity="0.98494"/>
<stop offset="0.24295" stop-color="#EBEBEB" stop-opacity="0.93862"/>
<stop offset="0.352" stop-color="#EDEDED" stop-opacity="0.86078"/>
<stop offset="0.4577" stop-color="#EFEFEF" stop-opacity="0.75135"/>
<stop offset="0.56108" stop-color="#F2F2F2" stop-opacity="0.6101"/>
<stop offset="0.66269" stop-color="#F6F6F6" stop-opacity="0.43687"/>
<stop offset="0.76112" stop-color="#FAFAFA" stop-opacity="0.23535"/>
<stop offset="0.85781" stop-color="white" stop-opacity="0.01"/>
<stop offset="0.85943" stop-color="white" stop-opacity="0"/>
</linearGradient>
<linearGradient id="paint2_linear_129_6" x1="110.839" y1="278.524" x2="99.6615" y2="265.07" gradientUnits="userSpaceOnUse">
<stop stop-color="#EAEAEA"/>
<stop offset="0.14963" stop-color="#EAEAEA" stop-opacity="0.98494"/>
<stop offset="0.28269" stop-color="#EBEBEB" stop-opacity="0.93862"/>
<stop offset="0.40958" stop-color="#EDEDED" stop-opacity="0.86078"/>
<stop offset="0.53256" stop-color="#EFEFEF" stop-opacity="0.75135"/>
<stop offset="0.65285" stop-color="#F2F2F2" stop-opacity="0.6101"/>
<stop offset="0.77107" stop-color="#F6F6F6" stop-opacity="0.43687"/>
<stop offset="0.88561" stop-color="#FAFAFA" stop-opacity="0.23535"/>
<stop offset="0.99812" stop-color="white" stop-opacity="0.01"/>
<stop offset="1" stop-color="white" stop-opacity="0"/>
</linearGradient>
<linearGradient id="paint3_linear_129_6" x1="145.787" y1="194.479" x2="140.943" y2="291.398" gradientUnits="userSpaceOnUse">
<stop stop-color="#EAEAEA"/>
<stop offset="0.12859" stop-color="#EAEAEA" stop-opacity="0.98494"/>
<stop offset="0.24295" stop-color="#EBEBEB" stop-opacity="0.93862"/>
<stop offset="0.352" stop-color="#EDEDED" stop-opacity="0.86078"/>
<stop offset="0.4577" stop-color="#EFEFEF" stop-opacity="0.75135"/>
<stop offset="0.56108" stop-color="#F2F2F2" stop-opacity="0.6101"/>
<stop offset="0.66269" stop-color="#F6F6F6" stop-opacity="0.43687"/>
<stop offset="0.76112" stop-color="#FAFAFA" stop-opacity="0.23535"/>
<stop offset="0.85781" stop-color="white" stop-opacity="0.01"/>
<stop offset="0.85943" stop-color="white" stop-opacity="0"/>
</linearGradient>
<linearGradient id="paint4_linear_129_6" x1="146.175" y1="298.409" x2="137.89" y2="270.851" gradientUnits="userSpaceOnUse">
<stop stop-color="#EAEAEA"/>
<stop offset="0.14963" stop-color="#EAEAEA" stop-opacity="0.98494"/>
<stop offset="0.28269" stop-color="#EBEBEB" stop-opacity="0.93862"/>
<stop offset="0.40958" stop-color="#EDEDED" stop-opacity="0.86078"/>
<stop offset="0.53256" stop-color="#EFEFEF" stop-opacity="0.75135"/>
<stop offset="0.65285" stop-color="#F2F2F2" stop-opacity="0.6101"/>
<stop offset="0.77107" stop-color="#F6F6F6" stop-opacity="0.43687"/>
<stop offset="0.88561" stop-color="#FAFAFA" stop-opacity="0.23535"/>
<stop offset="0.99812" stop-color="white" stop-opacity="0.01"/>
<stop offset="1" stop-color="white" stop-opacity="0"/>
</linearGradient>
<linearGradient id="paint5_linear_129_6" x1="136.844" y1="192.434" x2="133.493" y2="259.499" gradientUnits="userSpaceOnUse">
<stop stop-color="#EAEAEA"/>
<stop offset="0.12859" stop-color="#EAEAEA" stop-opacity="0.98494"/>
<stop offset="0.24295" stop-color="#EBEBEB" stop-opacity="0.93862"/>
<stop offset="0.352" stop-color="#EDEDED" stop-opacity="0.86078"/>
<stop offset="0.4577" stop-color="#EFEFEF" stop-opacity="0.75135"/>
<stop offset="0.56108" stop-color="#F2F2F2" stop-opacity="0.6101"/>
<stop offset="0.66269" stop-color="#F6F6F6" stop-opacity="0.43687"/>
<stop offset="0.76112" stop-color="#FAFAFA" stop-opacity="0.23535"/>
<stop offset="0.85781" stop-color="white" stop-opacity="0.01"/>
<stop offset="0.85943" stop-color="white" stop-opacity="0"/>
</linearGradient>
<linearGradient id="paint6_linear_129_6" x1="87.2388" y1="227.13" x2="126.712" y2="227.13" gradientUnits="userSpaceOnUse">
<stop stop-color="#EAEAEA"/>
<stop offset="0.12859" stop-color="#EAEAEA" stop-opacity="0.98494"/>
<stop offset="0.24295" stop-color="#EBEBEB" stop-opacity="0.93862"/>
<stop offset="0.352" stop-color="#EDEDED" stop-opacity="0.86078"/>
<stop offset="0.4577" stop-color="#EFEFEF" stop-opacity="0.75135"/>
<stop offset="0.56108" stop-color="#F2F2F2" stop-opacity="0.6101"/>
<stop offset="0.66269" stop-color="#F6F6F6" stop-opacity="0.43687"/>
<stop offset="0.76112" stop-color="#FAFAFA" stop-opacity="0.23535"/>
<stop offset="0.85781" stop-color="white" stop-opacity="0.01"/>
<stop offset="0.85943" stop-color="white" stop-opacity="0"/>
</linearGradient>
<linearGradient id="paint7_linear_129_6" x1="102.405" y1="189.799" x2="99.4962" y2="252.962" gradientUnits="userSpaceOnUse">
<stop stop-color="#EAEAEA"/>
<stop offset="0.12859" stop-color="#EAEAEA" stop-opacity="0.98494"/>
<stop offset="0.24295" stop-color="#EBEBEB" stop-opacity="0.93862"/>
<stop offset="0.352" stop-color="#EDEDED" stop-opacity="0.86078"/>
<stop offset="0.4577" stop-color="#EFEFEF" stop-opacity="0.75135"/>
<stop offset="0.56108" stop-color="#F2F2F2" stop-opacity="0.6101"/>
<stop offset="0.66269" stop-color="#F6F6F6" stop-opacity="0.43687"/>
<stop offset="0.76112" stop-color="#FAFAFA" stop-opacity="0.23535"/>
<stop offset="0.85781" stop-color="white" stop-opacity="0.01"/>
<stop offset="0.85943" stop-color="white" stop-opacity="0"/>
</linearGradient>
<linearGradient id="paint8_linear_129_6" x1="110.838" y1="278.524" x2="99.661" y2="265.07" gradientUnits="userSpaceOnUse">
<stop stop-color="#EAEAEA"/>
<stop offset="0.14963" stop-color="#EAEAEA" stop-opacity="0.98494"/>
<stop offset="0.28269" stop-color="#EBEBEB" stop-opacity="0.93862"/>
<stop offset="0.40958" stop-color="#EDEDED" stop-opacity="0.86078"/>
<stop offset="0.53256" stop-color="#EFEFEF" stop-opacity="0.75135"/>
<stop offset="0.65285" stop-color="#F2F2F2" stop-opacity="0.6101"/>
<stop offset="0.77107" stop-color="#F6F6F6" stop-opacity="0.43687"/>
<stop offset="0.88561" stop-color="#FAFAFA" stop-opacity="0.23535"/>
<stop offset="0.99812" stop-color="white" stop-opacity="0.01"/>
<stop offset="1" stop-color="white" stop-opacity="0"/>
</linearGradient>
<linearGradient id="paint9_linear_129_6" x1="145.787" y1="194.479" x2="140.943" y2="291.398" gradientUnits="userSpaceOnUse">
<stop stop-color="#EAEAEA"/>
<stop offset="0.12859" stop-color="#EAEAEA" stop-opacity="0.98494"/>
<stop offset="0.24295" stop-color="#EBEBEB" stop-opacity="0.93862"/>
<stop offset="0.352" stop-color="#EDEDED" stop-opacity="0.86078"/>
<stop offset="0.4577" stop-color="#EFEFEF" stop-opacity="0.75135"/>
<stop offset="0.56108" stop-color="#F2F2F2" stop-opacity="0.6101"/>
<stop offset="0.66269" stop-color="#F6F6F6" stop-opacity="0.43687"/>
<stop offset="0.76112" stop-color="#FAFAFA" stop-opacity="0.23535"/>
<stop offset="0.85781" stop-color="white" stop-opacity="0.01"/>
<stop offset="0.85943" stop-color="white" stop-opacity="0"/>
</linearGradient>
<linearGradient id="paint10_linear_129_6" x1="146.175" y1="298.409" x2="137.89" y2="270.851" gradientUnits="userSpaceOnUse">
<stop stop-color="#EAEAEA"/>
<stop offset="0.14963" stop-color="#EAEAEA" stop-opacity="0.98494"/>
<stop offset="0.28269" stop-color="#EBEBEB" stop-opacity="0.93862"/>
<stop offset="0.40958" stop-color="#EDEDED" stop-opacity="0.86078"/>
<stop offset="0.53256" stop-color="#EFEFEF" stop-opacity="0.75135"/>
<stop offset="0.65285" stop-color="#F2F2F2" stop-opacity="0.6101"/>
<stop offset="0.77107" stop-color="#F6F6F6" stop-opacity="0.43687"/>
<stop offset="0.88561" stop-color="#FAFAFA" stop-opacity="0.23535"/>
<stop offset="0.99812" stop-color="white" stop-opacity="0.01"/>
<stop offset="1" stop-color="white" stop-opacity="0"/>
</linearGradient>
<linearGradient id="paint11_linear_129_6" x1="136.844" y1="192.434" x2="133.492" y2="259.499" gradientUnits="userSpaceOnUse">
<stop stop-color="#EAEAEA"/>
<stop offset="0.12859" stop-color="#EAEAEA" stop-opacity="0.98494"/>
<stop offset="0.24295" stop-color="#EBEBEB" stop-opacity="0.93862"/>
<stop offset="0.352" stop-color="#EDEDED" stop-opacity="0.86078"/>
<stop offset="0.4577" stop-color="#EFEFEF" stop-opacity="0.75135"/>
<stop offset="0.56108" stop-color="#F2F2F2" stop-opacity="0.6101"/>
<stop offset="0.66269" stop-color="#F6F6F6" stop-opacity="0.43687"/>
<stop offset="0.76112" stop-color="#FAFAFA" stop-opacity="0.23535"/>
<stop offset="0.85781" stop-color="white" stop-opacity="0.01"/>
<stop offset="0.85943" stop-color="white" stop-opacity="0"/>
</linearGradient>
<linearGradient id="paint12_linear_129_6" x1="113.155" y1="76.1159" x2="137.621" y2="76.1159" gradientUnits="userSpaceOnUse">
<stop stop-color="#EAEAEA"/>
<stop offset="0.12859" stop-color="#EAEAEA" stop-opacity="0.98494"/>
<stop offset="0.24295" stop-color="#EBEBEB" stop-opacity="0.93862"/>
<stop offset="0.352" stop-color="#EDEDED" stop-opacity="0.86078"/>
<stop offset="0.4577" stop-color="#EFEFEF" stop-opacity="0.75135"/>
<stop offset="0.56108" stop-color="#F2F2F2" stop-opacity="0.6101"/>
<stop offset="0.66269" stop-color="#F6F6F6" stop-opacity="0.43687"/>
<stop offset="0.76112" stop-color="#FAFAFA" stop-opacity="0.23535"/>
<stop offset="0.85781" stop-color="white" stop-opacity="0.01"/>
<stop offset="0.85943" stop-color="white" stop-opacity="0"/>
</linearGradient>
</defs>
</svg>
