<svg width="345" height="480" viewBox="0 0 345 480" fill="none" xmlns="http://www.w3.org/2000/svg">
<g clip-path="url(#clip0_480_8245)">
<rect width="345" height="480" rx="6" fill="#F6F6F6"/>
<path d="M483.554 -172H-109.863V566H483.554V-172Z" fill="#DDDEDF"/>
<path d="M531.58 9.83483C524.322 5.00199 517.185 -0.0268108 510.328 -5.41797L-274.652 446.867C-273.638 448.073 -253.713 467.11 -244.382 474.975L546.565 19.577C541.55 16.3601 536.54 13.1367 531.58 9.83483Z" fill="#F6F6F6" stroke="#575D68" stroke-width="0.4" stroke-miterlimit="10"/>
<path d="M237.694 89.8355L267.158 106.797L392.26 33.9219L363.493 16.9648L237.694 89.8355Z" fill="#F6F6F6" stroke="#575D68" stroke-width="0.4" stroke-miterlimit="10"/>
<path d="M216.878 60.6467L224.599 65.4345L349.596 -7.76677L342.466 -11.6602L216.878 60.6467Z" fill="#F6F6F6" stroke="#575D68" stroke-width="0.4" stroke-miterlimit="10"/>
<path d="M363.492 16.9638L349.596 -7.76758L224.599 65.4337L237.694 89.8345L363.492 16.9638Z" fill="#F6F6F6" stroke="#575D68" stroke-width="0.4" stroke-miterlimit="10"/>
<path d="M216.878 60.6465V105.531L267.157 134.752V106.797L237.694 89.8351L224.599 65.4343L216.878 60.6465Z" fill="#F6F6F6" stroke="#575D68" stroke-width="0.4" stroke-miterlimit="10"/>
<path d="M267.157 106.797V134.753L392.26 62.2693V33.9219L267.157 106.797Z" fill="#F6F6F6" stroke="#575D68" stroke-width="0.4" stroke-miterlimit="10"/>
<path d="M225.289 66.8175L350.347 -6.14062" stroke="#575D68" stroke-width="0.4" stroke-miterlimit="10"/>
<path d="M226.595 69.2213L351.713 -3.74023" stroke="#575D68" stroke-width="0.4" stroke-miterlimit="10"/>
<path d="M227.901 71.6232L353.08 -1.3418" stroke="#575D68" stroke-width="0.4" stroke-miterlimit="10"/>
<path d="M229.207 74.027L354.446 1.05859" stroke="#575D68" stroke-width="0.4" stroke-miterlimit="10"/>
<path d="M230.514 76.4289L355.813 3.45703" stroke="#575D68" stroke-width="0.4" stroke-miterlimit="10"/>
<path d="M231.819 78.8327L357.179 5.85742" stroke="#575D68" stroke-width="0.4" stroke-miterlimit="10"/>
<path d="M233.126 81.2365L358.546 8.25781" stroke="#575D68" stroke-width="0.4" stroke-miterlimit="10"/>
<path d="M234.432 83.6384L359.912 10.6562" stroke="#575D68" stroke-width="0.4" stroke-miterlimit="10"/>
<path d="M235.738 86.0422L361.279 13.0566" stroke="#575D68" stroke-width="0.4" stroke-miterlimit="10"/>
<path d="M237.044 88.446L362.645 15.457" stroke="#575D68" stroke-width="0.4" stroke-miterlimit="10"/>
<path d="M239.03 90.7272L364.828 18.1621" stroke="#575D68" stroke-width="0.4" stroke-miterlimit="10"/>
<path d="M241.965 92.4022L367.686 19.8008" stroke="#575D68" stroke-width="0.4" stroke-miterlimit="10"/>
<path d="M244.899 94.0792L370.544 21.4414" stroke="#575D68" stroke-width="0.4" stroke-miterlimit="10"/>
<path d="M247.834 95.7543L373.403 23.0801" stroke="#575D68" stroke-width="0.4" stroke-miterlimit="10"/>
<path d="M250.77 97.4313L376.262 24.7207" stroke="#575D68" stroke-width="0.4" stroke-miterlimit="10"/>
<path d="M253.704 99.1064L379.121 26.3594" stroke="#575D68" stroke-width="0.4" stroke-miterlimit="10"/>
<path d="M256.639 100.781L381.979 27.998" stroke="#575D68" stroke-width="0.4" stroke-miterlimit="10"/>
<path d="M259.573 102.458L384.838 29.6387" stroke="#575D68" stroke-width="0.4" stroke-miterlimit="10"/>
<path d="M262.508 104.134L387.696 31.2773" stroke="#575D68" stroke-width="0.4" stroke-miterlimit="10"/>
<path d="M265.442 105.809L390.554 32.916" stroke="#575D68" stroke-width="0.4" stroke-miterlimit="10"/>
<path d="M275.916 69.3362V62.4336L302.986 78.8065L303.029 85.9004L300.434 84.2045L300.378 79.9375L282.318 68.8777L278.614 66.61L278.684 71.0152L275.916 69.3362Z" fill="#F6F6F6" stroke="#575D68" stroke-width="0.4" stroke-miterlimit="10"/>
<path d="M275.916 62.4345L279.754 60.0898L307.074 76.3189V83.577L303.029 85.9013L302.986 78.8073L275.916 62.4345Z" fill="#F6F6F6" stroke="#575D68" stroke-width="0.4" stroke-miterlimit="10"/>
<path d="M282.318 68.879L278.684 71.0164L278.614 66.6113L282.318 68.879Z" fill="#F6F6F6" stroke="#575D68" stroke-width="0.4" stroke-miterlimit="10"/>
<path d="M302.985 78.7758L307.074 76.2871" stroke="#575D68" stroke-width="0.4" stroke-miterlimit="10"/>
<path d="M320.126 43.5237V36.6211L347.196 52.9951L347.239 60.0879L344.644 58.392L344.588 54.125L326.528 43.0652L322.824 40.7975L322.894 45.2026L320.126 43.5237Z" fill="#F6F6F6" stroke="#575D68" stroke-width="0.4" stroke-miterlimit="10"/>
<path d="M320.126 36.622L323.964 34.2773L351.284 50.5064V57.7645L347.239 60.0888L347.196 52.996L320.126 36.622Z" fill="#F6F6F6" stroke="#575D68" stroke-width="0.4" stroke-miterlimit="10"/>
<path d="M326.528 43.0665L322.894 45.204L322.824 40.7988L326.528 43.0665Z" fill="#F6F6F6" stroke="#575D68" stroke-width="0.4" stroke-miterlimit="10"/>
<path d="M54.6885 195.334L84.1518 212.295L209.254 139.421L180.487 122.463L54.6885 195.334Z" fill="#F6F6F6" stroke="#575D68" stroke-width="0.4" stroke-miterlimit="10"/>
<path d="M33.8721 166.145L41.5932 170.934L166.59 97.7313L159.46 93.8379L33.8721 166.145Z" fill="#F6F6F6" stroke="#575D68" stroke-width="0.4" stroke-miterlimit="10"/>
<path d="M180.487 122.462L166.59 97.7305L41.5928 170.933L54.6877 195.333L180.487 122.462Z" fill="#F6F6F6" stroke="#575D68" stroke-width="0.4" stroke-miterlimit="10"/>
<path d="M33.8721 166.145V211.029L84.1515 240.25V212.295L54.6881 195.333L41.5932 170.933L33.8721 166.145Z" fill="#F6F6F6" stroke="#575D68" stroke-width="0.4" stroke-miterlimit="10"/>
<path d="M84.1514 212.294V240.25L209.254 168.051V139.42L84.1514 212.294Z" fill="#F6F6F6" stroke="#575D68" stroke-width="0.4" stroke-miterlimit="10"/>
<path d="M42.2832 172.316L167.341 99.3574" stroke="#575D68" stroke-width="0.4" stroke-miterlimit="10"/>
<path d="M43.5889 174.719L168.707 101.758" stroke="#575D68" stroke-width="0.4" stroke-miterlimit="10"/>
<path d="M44.8955 177.121L170.074 104.156" stroke="#575D68" stroke-width="0.4" stroke-miterlimit="10"/>
<path d="M46.2012 179.525L171.44 106.557" stroke="#575D68" stroke-width="0.4" stroke-miterlimit="10"/>
<path d="M47.5078 181.927L172.807 108.955" stroke="#575D68" stroke-width="0.4" stroke-miterlimit="10"/>
<path d="M48.8135 184.331L174.173 111.355" stroke="#575D68" stroke-width="0.4" stroke-miterlimit="10"/>
<path d="M50.1201 186.735L175.54 113.756" stroke="#575D68" stroke-width="0.4" stroke-miterlimit="10"/>
<path d="M51.4258 189.136L176.906 116.154" stroke="#575D68" stroke-width="0.4" stroke-miterlimit="10"/>
<path d="M52.7324 191.54L178.274 118.555" stroke="#575D68" stroke-width="0.4" stroke-miterlimit="10"/>
<path d="M54.0381 193.944L179.64 120.955" stroke="#575D68" stroke-width="0.4" stroke-miterlimit="10"/>
<path d="M56.0234 196.225L181.821 123.66" stroke="#575D68" stroke-width="0.4" stroke-miterlimit="10"/>
<path d="M58.958 197.9L184.679 125.299" stroke="#575D68" stroke-width="0.4" stroke-miterlimit="10"/>
<path d="M61.8926 199.577L187.538 126.939" stroke="#575D68" stroke-width="0.4" stroke-miterlimit="10"/>
<path d="M64.8271 201.252L190.396 128.578" stroke="#575D68" stroke-width="0.4" stroke-miterlimit="10"/>
<path d="M67.7627 202.929L193.256 130.219" stroke="#575D68" stroke-width="0.4" stroke-miterlimit="10"/>
<path d="M70.6973 204.604L196.114 131.857" stroke="#575D68" stroke-width="0.4" stroke-miterlimit="10"/>
<path d="M73.6318 206.279L198.972 133.496" stroke="#575D68" stroke-width="0.4" stroke-miterlimit="10"/>
<path d="M76.5664 207.956L201.831 135.137" stroke="#575D68" stroke-width="0.4" stroke-miterlimit="10"/>
<path d="M79.501 209.632L204.689 136.775" stroke="#575D68" stroke-width="0.4" stroke-miterlimit="10"/>
<path d="M82.4355 211.307L207.548 138.414" stroke="#575D68" stroke-width="0.4" stroke-miterlimit="10"/>
<path d="M92.9102 174.834V167.932L119.98 184.306L120.023 191.398L117.428 189.702L117.372 185.435L99.3122 174.377L95.6084 172.108L95.6786 176.513L92.9102 174.834Z" fill="#F6F6F6" stroke="#575D68" stroke-width="0.4" stroke-miterlimit="10"/>
<path d="M92.9102 167.933L96.7475 165.588L124.069 181.817V189.076L120.023 191.399L119.98 184.307L92.9102 167.933Z" fill="#F6F6F6" stroke="#575D68" stroke-width="0.4" stroke-miterlimit="10"/>
<path d="M99.3122 174.378L95.6786 176.514L95.6084 172.109L99.3122 174.378Z" fill="#F6F6F6" stroke="#575D68" stroke-width="0.4" stroke-miterlimit="10"/>
<path d="M119.979 184.274L124.068 181.785" stroke="#575D68" stroke-width="0.4" stroke-miterlimit="10"/>
<path d="M137.12 149.022V142.119L164.19 158.493L164.233 165.586L161.638 163.89L161.582 159.623L143.522 148.564L139.818 146.296L139.889 150.701L137.12 149.022Z" fill="#F6F6F6" stroke="#575D68" stroke-width="0.4" stroke-miterlimit="10"/>
<path d="M137.12 142.12L140.959 139.775L168.279 156.006V163.264L164.233 165.587L164.19 158.494L137.12 142.12Z" fill="#F6F6F6" stroke="#575D68" stroke-width="0.4" stroke-miterlimit="10"/>
<path d="M143.522 148.566L139.889 150.702L139.818 146.297L143.522 148.566Z" fill="#F6F6F6" stroke="#575D68" stroke-width="0.4" stroke-miterlimit="10"/>
<path d="M164.189 158.461L168.278 155.973" stroke="#575D68" stroke-width="0.4" stroke-miterlimit="10"/>
<path d="M130.531 90.6513C131.106 91.3107 131.716 91.9393 132.357 92.5345C133.326 93.2366 134.671 93.3802 135.473 94.2682C136.427 95.3246 136.22 96.954 135.942 98.35C135.818 98.8259 135.776 99.3191 135.816 99.8091C136.019 101.249 137.519 102.075 138.396 103.234C138.92 103.936 139.212 104.785 139.23 105.661C139.248 106.537 138.991 107.396 138.496 108.119C138.038 108.719 137.416 109.174 136.706 109.43C135.995 109.685 135.226 109.73 134.491 109.558C133.894 109.409 133.338 109.117 132.735 108.998C132.007 108.854 131.248 108.969 130.52 108.832C129.883 108.689 129.295 108.383 128.813 107.944C128.33 107.505 127.97 106.949 127.768 106.328C127.382 105.071 127.502 103.712 128.104 102.542C128.464 101.942 128.777 101.314 129.039 100.664C129.602 98.8313 128.455 96.9727 127.814 95.1654C127.423 94.0599 127.216 92.8975 127.203 91.7248C127.182 89.7382 129.256 89.5033 130.531 90.6513Z" fill="#DDDEDF" stroke="#575D68" stroke-width="0.4" stroke-miterlimit="10"/>
<g style="mix-blend-mode:multiply">
<path d="M130.531 90.6513C131.106 91.3107 131.716 91.9393 132.357 92.5345C133.326 93.2366 134.671 93.3802 135.473 94.2682C136.427 95.3246 136.22 96.954 135.942 98.35C135.818 98.8259 135.776 99.3191 135.816 99.8091C136.019 101.249 137.519 102.075 138.396 103.234C138.92 103.936 139.212 104.785 139.23 105.661C139.248 106.537 138.991 107.396 138.496 108.119C138.038 108.719 137.416 109.174 136.706 109.43C135.995 109.685 135.226 109.73 134.491 109.558C133.894 109.409 133.338 109.117 132.735 108.998C132.007 108.854 131.248 108.969 130.52 108.832C129.883 108.689 129.295 108.383 128.813 107.944C128.33 107.505 127.97 106.949 127.768 106.328C127.382 105.071 127.502 103.712 128.104 102.542C128.464 101.942 128.777 101.314 129.039 100.664C129.602 98.8313 128.455 96.9727 127.814 95.1654C127.423 94.0599 127.216 92.8975 127.203 91.7248C127.182 89.7382 129.256 89.5033 130.531 90.6513Z" fill="#DDDEDF"/>
</g>
<path d="M157.546 184.844C157.156 185.882 156.89 186.963 156.753 188.063L153.592 207.285C153.481 207.883 153.467 208.495 153.551 209.097C154.123 211.667 155.377 214.035 157.181 215.953C157.553 216.28 157.876 216.658 158.14 217.076C159.339 219.349 157.927 221.009 155.765 221.59C154.093 222.032 152.329 221.977 150.688 221.433C150.34 221.315 150.026 221.115 149.771 220.85C149.516 220.585 149.329 220.263 149.224 219.911C148.615 218.168 148.148 216.38 147.826 214.562C147.632 213.024 147.767 211.693 146.814 210.307C146.584 210.017 146.377 209.711 146.191 209.392C145.87 208.46 145.89 207.444 146.248 206.526C146.313 206.197 146.44 205.883 146.622 205.602C146.888 205.243 147.514 205.297 147.729 204.974C148.073 204.46 147.821 203.64 147.774 203.021C147.666 201.615 147.631 200.201 147.644 198.791C147.671 195.967 147.924 193.15 148.402 190.367L147.892 190.723" fill="#F6F6F6"/>
<path d="M157.546 184.844C157.156 185.882 156.89 186.963 156.753 188.063L153.592 207.285C153.481 207.883 153.467 208.495 153.551 209.097C154.123 211.667 155.377 214.035 157.181 215.953C157.553 216.28 157.876 216.658 158.14 217.076C159.339 219.349 157.927 221.009 155.765 221.59C154.093 222.032 152.329 221.977 150.688 221.433C150.34 221.315 150.026 221.115 149.771 220.85C149.516 220.585 149.329 220.263 149.224 219.911C148.615 218.168 148.148 216.38 147.826 214.562C147.632 213.024 147.767 211.693 146.814 210.307C146.584 210.017 146.377 209.711 146.191 209.392C145.87 208.46 145.89 207.444 146.248 206.526C146.313 206.197 146.44 205.883 146.622 205.602C146.888 205.243 147.514 205.297 147.729 204.974C148.073 204.46 147.821 203.64 147.774 203.021C147.666 201.615 147.631 200.201 147.644 198.791C147.671 195.967 147.924 193.15 148.402 190.367L147.892 190.723" stroke="#575D68" stroke-width="0.4" stroke-miterlimit="10"/>
<path d="M165.064 181.459C165.064 181.978 163.013 204.349 163.013 204.349C163.134 205.915 163.48 207.456 164.039 208.923C164.974 210.34 166.194 211.546 167.621 212.466C168.235 212.967 168.729 213.6 169.065 214.318C169.233 214.656 169.312 215.032 169.295 215.409C169.277 215.786 169.164 216.153 168.966 216.475C168.654 217.062 168.204 217.564 167.654 217.938C167.104 218.311 166.471 218.546 165.81 218.62C164.589 218.687 163.366 218.506 162.216 218.088C161.808 217.942 161.436 217.711 161.125 217.409C160.814 217.108 160.571 216.743 160.412 216.34C159.602 214.145 158.664 211.999 157.604 209.914C157.189 209.402 156.895 208.803 156.746 208.161C156.598 207.519 156.597 206.852 156.745 206.21C157.184 204.646 155.553 194.285 155.553 194.285" fill="#F6F6F6"/>
<path d="M165.064 181.459C165.064 181.978 163.013 204.349 163.013 204.349C163.134 205.915 163.48 207.456 164.039 208.923C164.974 210.34 166.194 211.546 167.621 212.466C168.235 212.967 168.729 213.6 169.065 214.318C169.233 214.656 169.312 215.032 169.295 215.409C169.277 215.786 169.164 216.153 168.966 216.475C168.654 217.062 168.204 217.564 167.654 217.938C167.104 218.311 166.471 218.546 165.81 218.62C164.589 218.687 163.366 218.506 162.216 218.088C161.808 217.942 161.436 217.711 161.125 217.409C160.814 217.108 160.571 216.743 160.412 216.34C159.602 214.145 158.664 211.999 157.604 209.914C157.189 209.402 156.895 208.803 156.746 208.161C156.598 207.519 156.597 206.852 156.745 206.21C157.184 204.646 155.553 194.285 155.553 194.285" stroke="#575D68" stroke-width="0.4" stroke-miterlimit="10"/>
<path d="M166.284 191.361C166.751 191.082 167.151 190.704 167.456 190.253C167.761 189.803 167.964 189.29 168.049 188.753C168.117 187.579 167.514 186.305 168.092 185.281C168.855 183.933 171.158 184.004 171.724 182.562C171.842 182.201 171.885 181.82 171.851 181.441C171.74 178.502 170.775 175.324 171.728 172.664C171.865 172.317 171.905 171.939 171.846 171.571C171.786 171.203 171.627 170.857 171.388 170.571C168.754 167.834 166.581 164.688 164.955 161.255C164.279 159.212 163.465 157.218 162.519 155.285C161.055 152.807 159.146 152.236 156.365 151.66C154.307 151.225 152.295 150.597 150.356 149.783C148.237 148.904 146.488 148.535 144.68 147.906C143.726 147.578 142.871 147.014 142.195 146.265C141.519 145.517 141.044 144.609 140.814 143.628C140.349 141.553 140.163 139.425 140.261 137.302C140.299 134.951 141.066 132.67 142.457 130.775C143.267 129.129 143.567 127.279 143.319 125.462C142.971 124.241 142.735 122.991 142.612 121.727C142.666 120.677 144.302 119.728 145.071 119.032L151.419 113.284C152.067 112.72 152.681 112.117 153.256 111.478C153.85 110.79 154.156 109.916 154.756 109.281C155.204 108.808 155.728 108.393 156.188 107.927C157.347 106.75 158.442 105.508 159.524 104.26C161.334 102.173 163.013 99.8929 164.995 97.9633C166.778 96.3213 168.436 94.5475 169.952 92.6569C168.835 91.2107 168.076 89.5205 167.736 87.7246C167.805 88.0533 163.545 90.8165 163.094 91.1638C161.425 92.4496 159.782 93.7684 158.165 95.1202C155.629 97.2199 153.2 99.4468 150.889 101.792C150.434 102.262 149.929 102.679 149.381 103.035L135.728 111.853C135.215 112.246 134.614 112.507 133.978 112.614C133.427 112.66 132.198 112.291 131.658 109.922C130.619 105.367 120.669 106.139 122.454 108.009C122.784 108.327 123.047 108.708 123.226 109.13C123.406 109.552 123.498 110.006 123.498 110.465C123.498 110.923 123.405 111.377 123.225 111.799C123.045 112.221 122.782 112.602 122.452 112.92C120.932 114.744 118.095 114.702 116.138 116.046C115.065 116.841 114.247 117.932 113.786 119.185C112.886 121.42 112.96 123.717 112.569 126.053C112.29 127.715 112.001 129.375 111.85 131.054C111.492 135.021 110.609 139.862 112.787 143.55C113.641 144.815 114.615 145.996 115.693 147.077C116.682 148.023 117.526 149.108 118.2 150.298C118.377 151.104 118.237 151.947 117.808 152.652C114.613 160.094 115.971 169.865 122.49 174.671C125.906 176.995 129.967 178.181 134.097 178.063C135.784 178.07 141.751 177.037 141.751 177.037C140.893 184.15 139.92 191.27 138.584 198.308C138.323 199.687 137.966 201.045 137.665 202.415C137.448 203.405 137.695 203.701 138.817 204.227C139.908 204.654 141.069 204.873 142.24 204.874C143.219 204.997 144.212 204.933 145.167 204.684C145.802 204.427 146.418 204.126 147.012 203.785C149.879 202.381 153.501 202.746 156.051 200.825C157.188 199.81 158.185 198.648 159.015 197.369C160.167 195.878 161.521 194.555 163.037 193.436C163.89 192.808 165.211 192.164 166.284 191.361Z" fill="#F6F6F6" stroke="#575D68" stroke-width="0.4" stroke-miterlimit="10"/>
<path style="mix-blend-mode:multiply" d="M166.284 191.361C166.751 191.082 167.151 190.704 167.456 190.253C167.761 189.803 167.964 189.29 168.049 188.753C168.117 187.579 167.514 186.305 168.092 185.281C168.855 183.933 171.158 184.004 171.724 182.562C171.842 182.201 171.885 181.82 171.851 181.441C171.74 178.502 170.775 175.324 171.728 172.664C171.865 172.317 171.905 171.939 171.846 171.571C171.786 171.203 171.627 170.857 171.388 170.571C168.754 167.834 166.581 164.688 164.955 161.255C164.279 159.212 163.465 157.218 162.519 155.285C161.055 152.807 159.146 152.236 156.365 151.66C154.307 151.225 152.295 150.597 150.356 149.783C148.237 148.904 146.488 148.535 144.68 147.906C143.726 147.578 142.871 147.014 142.195 146.265C141.519 145.517 141.044 144.609 140.814 143.628C140.349 141.553 140.163 139.425 140.261 137.302C140.299 134.951 141.066 132.67 142.457 130.775C143.267 129.129 143.567 127.279 143.319 125.462C142.971 124.241 142.735 122.991 142.612 121.727C142.666 120.677 144.302 119.728 145.071 119.032L151.419 113.284C152.067 112.72 152.681 112.117 153.256 111.478C153.85 110.79 154.156 109.916 154.756 109.281C155.204 108.808 155.728 108.393 156.188 107.927C157.347 106.75 158.442 105.508 159.524 104.26C161.334 102.173 163.013 99.8929 164.995 97.9633C166.778 96.3213 168.436 94.5475 169.952 92.6569C168.835 91.2107 168.076 89.5205 167.736 87.7246C167.805 88.0533 163.545 90.8165 163.094 91.1638C161.425 92.4496 159.782 93.7684 158.165 95.1202C155.629 97.2199 153.2 99.4468 150.889 101.792C150.434 102.262 149.929 102.679 149.381 103.035L135.728 111.853C135.215 112.246 134.614 112.507 133.978 112.614C133.427 112.66 132.198 112.291 131.658 109.922C130.619 105.367 120.669 106.139 122.454 108.009C122.784 108.327 123.047 108.708 123.226 109.13C123.406 109.552 123.498 110.006 123.498 110.465C123.498 110.923 123.405 111.377 123.225 111.799C123.045 112.221 122.782 112.602 122.452 112.92C120.932 114.744 118.095 114.702 116.138 116.046C115.065 116.841 114.247 117.932 113.786 119.185C112.886 121.42 112.96 123.717 112.569 126.053C112.29 127.715 112.001 129.375 111.85 131.054C111.492 135.021 110.609 139.862 112.787 143.55C113.641 144.815 114.615 145.996 115.693 147.077C116.682 148.023 117.526 149.108 118.2 150.298C118.377 151.104 118.237 151.947 117.808 152.652C114.613 160.094 115.971 169.865 122.49 174.671C125.906 176.995 129.967 178.181 134.097 178.063C135.784 178.07 141.751 177.037 141.751 177.037C140.893 184.15 139.92 191.27 138.584 198.308C138.323 199.687 137.966 201.045 137.665 202.415C137.448 203.405 137.695 203.701 138.817 204.227C139.908 204.654 141.069 204.873 142.24 204.874C143.219 204.997 144.212 204.933 145.167 204.684C145.802 204.427 146.418 204.126 147.012 203.785C149.879 202.381 153.501 202.746 156.051 200.825C157.188 199.81 158.185 198.648 159.015 197.369C160.167 195.878 161.521 194.555 163.037 193.436C163.89 192.808 165.211 192.164 166.284 191.361Z" fill="url(#paint0_linear_480_8245)"/>
<path d="M135.051 99.9121C134.676 98.4705 134.107 97.0866 133.36 95.7984C133.06 95.2906 130.966 92.523 130.931 92.3592C130.893 91.8621 130.891 91.363 130.924 90.8656C130.865 90.4157 130.699 89.9866 130.439 89.6145C130.18 89.2424 129.834 88.9383 129.432 88.728C128.624 88.3152 127.737 88.079 126.83 88.035C123.531 87.7249 116.508 88.1691 117.123 93.1138C117.276 93.6817 117.314 94.2741 117.237 94.857C117.015 95.6431 116.197 96.0683 115.582 96.607C114.847 97.2563 114.36 98.1401 114.202 99.1082C114 100.383 114.624 100.808 115.093 101.766C115.43 102.457 115.199 103.382 115.745 103.98C116.276 104.56 117.273 104.393 117.894 104.875C118.098 105.046 118.249 105.272 118.329 105.526C118.409 105.781 118.414 106.052 118.344 106.309C118.036 107.48 116.852 107.638 115.936 108.078C115.531 108.309 115.181 108.625 114.912 109.005C114.642 109.385 114.458 109.819 114.374 110.277C114.289 110.735 114.306 111.206 114.422 111.657C114.539 112.109 114.752 112.529 115.048 112.889C115.421 113.271 115.882 113.557 116.391 113.72C116.9 113.884 117.442 113.92 117.968 113.827C119.569 113.579 119.651 112.719 120.474 111.612C120.714 111.262 121.062 111 121.465 110.866C121.666 110.803 121.881 110.798 122.086 110.852C122.29 110.906 122.475 111.016 122.619 111.169C123.028 111.658 122.788 112.78 123.158 113.444C123.616 114.28 124.261 114.998 125.042 115.543C125.763 115.99 126.566 116.287 127.404 116.417C128.242 116.546 129.098 116.505 129.919 116.296C133.747 115.496 131.69 110.074 131.657 109.921C133.242 110.355 134.495 110.105 135.004 108.644C135.877 105.801 135.893 102.764 135.051 99.9121V99.9121Z" fill="#F6F6F6" stroke="#575D68" stroke-width="0.4" stroke-miterlimit="10"/>
<path d="M130.914 92.2089C130.859 91.7673 130.956 91.3129 130.924 90.8656C130.865 90.4158 130.699 89.9866 130.439 89.6145C130.18 89.2424 129.834 88.9383 129.432 88.728C128.624 88.3152 127.737 88.079 126.83 88.035C123.531 87.7249 116.508 88.1691 117.123 93.1139C117.276 93.6817 117.314 94.2741 117.237 94.8571C117.015 95.6431 116.197 96.0683 115.582 96.607C114.847 97.2563 114.36 98.1401 114.202 99.1082C114 100.383 114.624 100.808 115.093 101.766C115.43 102.457 115.199 103.382 115.745 103.98C116.276 104.56 117.273 104.393 117.894 104.875C118.098 105.046 118.249 105.272 118.329 105.526C118.409 105.781 118.414 106.052 118.344 106.31C118.036 107.48 116.852 107.638 115.936 108.078C115.531 108.309 115.182 108.625 114.912 109.005C114.642 109.385 114.459 109.819 114.374 110.277C114.289 110.735 114.306 111.206 114.422 111.657C114.539 112.109 114.752 112.529 115.048 112.889C115.421 113.271 115.882 113.557 116.391 113.721C116.9 113.884 117.442 113.921 117.968 113.827C119.57 113.579 119.651 112.719 120.474 111.612C120.714 111.262 121.062 111 121.465 110.866C121.649 110.812 121.844 110.805 122.031 110.846C122.218 110.887 122.393 110.974 122.537 111.1C122.709 111.198 122.851 111.344 123.028 111.432C123.353 111.556 123.711 111.56 124.039 111.443C125.725 110.996 127.276 109.333 126.818 107.65C126.516 106.539 125.481 105.817 124.764 104.917C124.377 104.452 124.09 103.912 123.923 103.331C123.756 102.749 123.711 102.14 123.793 101.54C123.888 100.943 124.154 100.385 124.559 99.9349C124.964 99.4849 125.49 99.1619 126.075 99.0049C126.504 98.9706 126.925 98.8626 127.317 98.6858C127.562 98.5071 127.765 98.2775 127.913 98.0129C128.58 97.1799 128.897 96.1206 128.799 95.0583C128.684 94.702 128.591 94.3393 128.52 93.9719C128.499 93.5899 128.619 93.2133 128.856 92.9131C129.093 92.6128 129.432 92.4095 129.808 92.3413C130.084 92.3008 130.366 92.3367 130.641 92.2902C130.734 92.2723 130.826 92.2451 130.914 92.2089Z" fill="#DDDEDF" stroke="#575D68" stroke-width="0.4" stroke-miterlimit="10"/>
<g style="mix-blend-mode:multiply">
<path d="M130.914 92.2089C130.859 91.7673 130.956 91.3129 130.924 90.8656C130.865 90.4158 130.699 89.9866 130.439 89.6145C130.18 89.2424 129.834 88.9383 129.432 88.728C128.624 88.3152 127.737 88.079 126.83 88.035C123.531 87.7249 116.508 88.1691 117.123 93.1139C117.276 93.6817 117.314 94.2741 117.237 94.8571C117.015 95.6431 116.197 96.0683 115.582 96.607C114.847 97.2563 114.36 98.1401 114.202 99.1082C114 100.383 114.624 100.808 115.093 101.766C115.43 102.457 115.199 103.382 115.745 103.98C116.276 104.56 117.273 104.393 117.894 104.875C118.098 105.046 118.249 105.272 118.329 105.526C118.409 105.781 118.414 106.052 118.344 106.31C118.036 107.48 116.852 107.638 115.936 108.078C115.531 108.309 115.182 108.625 114.912 109.005C114.642 109.385 114.459 109.819 114.374 110.277C114.289 110.735 114.306 111.206 114.422 111.657C114.539 112.109 114.752 112.529 115.048 112.889C115.421 113.271 115.882 113.557 116.391 113.721C116.9 113.884 117.442 113.921 117.968 113.827C119.57 113.579 119.651 112.719 120.474 111.612C120.714 111.262 121.062 111 121.465 110.866C121.649 110.812 121.844 110.805 122.031 110.846C122.218 110.887 122.393 110.974 122.537 111.1C122.709 111.198 122.851 111.344 123.028 111.432C123.353 111.556 123.711 111.56 124.039 111.443C125.725 110.996 127.276 109.333 126.818 107.65C126.516 106.539 125.481 105.817 124.764 104.917C124.377 104.452 124.09 103.912 123.923 103.331C123.756 102.749 123.711 102.14 123.793 101.54C123.888 100.943 124.154 100.385 124.559 99.9349C124.964 99.4849 125.49 99.1619 126.075 99.0049C126.504 98.9706 126.925 98.8626 127.317 98.6858C127.562 98.5071 127.765 98.2775 127.913 98.0129C128.58 97.1799 128.897 96.1206 128.799 95.0583C128.684 94.702 128.591 94.3393 128.52 93.9719C128.499 93.5899 128.619 93.2133 128.856 92.9131C129.093 92.6128 129.432 92.4095 129.808 92.3413C130.084 92.3008 130.366 92.3367 130.641 92.2902C130.734 92.2723 130.826 92.2451 130.914 92.2089Z" fill="#DDDEDF"/>
</g>
<path d="M168.093 185.282C166.928 180.392 165.399 175.597 163.518 170.935C162.082 167.74 161.28 164.296 161.158 160.795" stroke="#575D68" stroke-width="0.4" stroke-miterlimit="10"/>
<path d="M154.437 201.75C153.311 196.853 152.494 191.89 151.992 186.891C151.762 181.375 151.999 175.849 152.7 170.373" stroke="#575D68" stroke-width="0.4" stroke-miterlimit="10"/>
<path d="M141.941 205.038C142.716 203.86 143.344 202.593 143.812 201.264C145.138 197.495 145.124 193.407 145.095 189.412" stroke="#575D68" stroke-width="0.4" stroke-miterlimit="10"/>
<path d="M171.501 174.23C169.256 170.975 165.94 168.377 164.593 164.66" stroke="#575D68" stroke-width="0.4" stroke-miterlimit="10"/>
<path d="M121.701 125.562C121.857 128.988 121.81 132.419 121.56 135.839C121.262 139.161 121.159 141.786 121.129 142.757C121.119 143.022 121.208 143.281 121.378 143.485C123.261 145.836 125.464 147.914 127.922 149.657C129.841 150.85 131.838 151.912 133.9 152.836" fill="#F6F6F6"/>
<path d="M121.701 125.562C121.857 128.988 121.81 132.419 121.56 135.839C121.262 139.161 121.159 141.786 121.129 142.757C121.119 143.022 121.208 143.281 121.378 143.485C123.261 145.836 125.464 147.914 127.922 149.657C129.841 150.85 131.838 151.912 133.9 152.836" stroke="#575D68" stroke-width="0.4" stroke-miterlimit="10"/>
<path d="M118.2 150.299L129.941 155.277" stroke="#575D68" stroke-width="0.4" stroke-miterlimit="10"/>
<path d="M147.729 204.975C147.729 204.975 149.14 209.141 149.799 209.611C150.458 210.082 149.423 207.798 150.27 207.293C151.364 206.954 152.512 206.822 153.655 206.902" fill="#F6F6F6"/>
<path d="M147.729 204.975C147.729 204.975 149.14 209.141 149.799 209.611C150.458 210.082 149.423 207.798 150.27 207.293C151.364 206.954 152.512 206.822 153.655 206.902" stroke="#575D68" stroke-width="0.4" stroke-miterlimit="10"/>
<path d="M147.729 212.717C147.729 212.717 149.515 218.63 150.692 219.062C151.634 219.395 152.635 219.529 153.632 219.456C154.628 219.383 155.599 219.105 156.483 218.639C157.125 218.222 157.687 217.693 158.14 217.076" fill="#F6F6F6"/>
<path d="M147.729 212.717C147.729 212.717 149.515 218.63 150.692 219.062C151.634 219.395 152.635 219.529 153.632 219.456C154.628 219.383 155.599 219.105 156.483 218.639C157.125 218.222 157.687 217.693 158.14 217.076" stroke="#575D68" stroke-width="0.4" stroke-miterlimit="10"/>
<path d="M156.955 204.359C156.955 204.359 158.366 208.525 159.025 208.996C159.684 209.467 158.806 207.383 159.495 206.678C159.955 206.188 160.529 205.82 161.166 205.607C161.803 205.394 162.484 205.344 163.145 205.46" fill="#F6F6F6"/>
<path d="M156.955 204.359C156.955 204.359 158.366 208.525 159.025 208.996C159.684 209.467 158.806 207.383 159.495 206.678C159.955 206.188 160.529 205.82 161.166 205.607C161.803 205.394 162.484 205.344 163.145 205.46" stroke="#575D68" stroke-width="0.4" stroke-miterlimit="10"/>
<path d="M159.655 214.461C161.158 216.576 164.575 216.491 166.621 215.26C167.264 214.844 167.825 214.314 168.279 213.697" fill="#F6F6F6"/>
<path d="M159.655 214.461C161.158 216.576 164.575 216.491 166.621 215.26C167.264 214.844 167.825 214.314 168.279 213.697" stroke="#575D68" stroke-width="0.4" stroke-miterlimit="10"/>
<path style="mix-blend-mode:multiply" d="M171.388 170.571C168.754 167.834 166.582 164.688 164.955 161.256C164.279 159.213 163.465 157.218 162.519 155.285C161.925 154.212 161.031 153.337 159.946 152.766C159.07 159.585 165.926 178.359 168.415 184.875C169.364 183.934 171.223 183.84 171.724 182.563C171.842 182.201 171.886 181.82 171.851 181.441C171.741 178.502 170.775 175.324 171.728 172.664C171.865 172.317 171.906 171.94 171.846 171.571C171.786 171.203 171.628 170.857 171.388 170.571Z" fill="url(#paint1_linear_480_8245)"/>
<path style="mix-blend-mode:multiply" d="M149.485 162.677C149.485 162.175 120.286 151.184 120.286 151.184L117.585 153.234C114.698 160.597 116.137 169.988 122.49 174.672C125.906 176.995 129.967 178.182 134.096 178.064C135.784 178.071 141.751 177.037 141.751 177.037C140.893 184.15 139.919 191.27 138.584 198.308C138.322 199.687 137.966 201.045 137.665 202.416C137.448 203.406 137.694 203.702 138.816 204.228C139.907 204.654 141.068 204.873 142.24 204.874C142.348 204.881 142.458 204.886 142.567 204.892C144.547 199.137 145.359 189.956 145.953 186.897C146.804 182.505 149.485 163.179 149.485 162.677Z" fill="url(#paint2_linear_480_8245)"/>
<path d="M137.402 159.336C135.174 158.308 133.023 157.124 130.895 155.905C130.313 155.572 129.778 155.405 129.704 154.695C129.655 153.964 129.797 153.233 130.115 152.574C130.207 152.337 130.345 152.12 130.52 151.936C131.224 151.264 132.335 152.13 133.045 152.457C133.957 152.919 134.927 153.256 135.929 153.459C136.555 153.514 137.171 153.649 137.763 153.86C138.23 154.094 138.66 154.396 139.041 154.754L143.686 158.726C144.172 159.315 144.609 159.943 144.992 160.604C144.845 160.716 144.673 160.79 144.49 160.821C144.308 160.852 144.121 160.838 143.945 160.78C141.724 160.397 139.574 159.682 137.565 158.66L137.985 159.333C137.853 159.497 137.593 159.424 137.402 159.336Z" fill="#F6F6F6" stroke="#575D68" stroke-width="0.4" stroke-miterlimit="10"/>
<path style="mix-blend-mode:multiply" d="M124.068 146.298C123.739 146.118 123.504 143.06 128.65 140.966C132.058 139.375 134.982 136.906 137.12 133.813C137.12 133.813 129.145 134.064 126.642 131.177C124.139 128.291 122.023 120.955 122.023 120.955L121.128 142.756L124.068 146.298Z" fill="url(#paint3_linear_480_8245)"/>
<path style="mix-blend-mode:multiply" d="M169.131 75.3828C169.131 75.3828 160.685 79.1309 130.927 92.3235C130.58 92.3691 130.238 92.4469 129.905 92.556C126.176 93.8199 124.461 98.6989 126.073 103.453C127.364 107.261 130.399 109.828 133.471 110.053C134.173 109.911 171.103 96.7123 171.103 96.7123L169.131 75.3828Z" fill="url(#paint4_linear_480_8245)"/>
<path d="M164.144 81.8169L169.64 96.4057C169.692 96.5451 169.779 96.669 169.892 96.7659C170.006 96.8628 170.141 96.9296 170.287 96.9601C170.433 96.9906 170.584 96.9838 170.727 96.9404C170.869 96.8969 170.998 96.8182 171.102 96.7116L175.211 92.498C175.458 92.2441 175.631 91.9267 175.709 91.5809C175.787 91.235 175.768 90.8743 175.654 90.5386L170.625 75.7299C170.576 75.5845 170.49 75.454 170.377 75.351C170.263 75.2479 170.125 75.1755 169.975 75.1407C169.825 75.1059 169.669 75.1098 169.522 75.1521C169.374 75.1943 169.24 75.2735 169.131 75.3822L164.539 79.9806C164.304 80.2163 164.141 80.5149 164.071 80.8405C164.001 81.1662 164.026 81.5051 164.144 81.8169V81.8169Z" fill="#F6F6F6" stroke="#575D68" stroke-width="0.4" stroke-miterlimit="10"/>
<path d="M170.361 75.3828L165.769 79.9812C165.533 80.217 165.371 80.5155 165.301 80.8412C165.23 81.1668 165.256 81.5058 165.373 81.8176L170.869 96.4064" fill="#F6F6F6"/>
<path d="M170.361 75.3828L165.769 79.9812C165.533 80.217 165.371 80.5155 165.301 80.8412C165.23 81.1668 165.256 81.5058 165.373 81.8176L170.869 96.4064" stroke="#575D68" stroke-width="0.4" stroke-miterlimit="10"/>
<g style="mix-blend-mode:multiply">
<path d="M168.456 79.3588L169.218 81.5195C169.244 81.594 169.289 81.6607 169.348 81.7134C169.407 81.7661 169.478 81.8032 169.555 81.8211C169.632 81.839 169.712 81.8373 169.788 81.8161C169.864 81.7948 169.934 81.7548 169.99 81.6996L171.212 80.5067C171.277 80.4437 171.322 80.3635 171.342 80.2756C171.362 80.1877 171.357 80.0959 171.326 80.011L170.523 77.7779C170.495 77.7021 170.449 77.6345 170.388 77.5817C170.327 77.5289 170.254 77.4927 170.175 77.4764C170.096 77.4602 170.014 77.4645 169.937 77.489C169.86 77.5135 169.791 77.5573 169.736 77.6162L168.555 78.8814C168.497 78.9442 168.456 79.022 168.439 79.1061C168.421 79.1903 168.427 79.2777 168.456 79.3588V79.3588Z" fill="#DDDEDF"/>
<path d="M168.456 79.3588L169.218 81.5195C169.244 81.594 169.289 81.6607 169.348 81.7134C169.407 81.7661 169.478 81.8032 169.555 81.8211C169.632 81.839 169.712 81.8373 169.788 81.8161C169.864 81.7948 169.934 81.7548 169.99 81.6996L171.212 80.5067C171.277 80.4437 171.322 80.3635 171.342 80.2756C171.362 80.1877 171.357 80.0959 171.326 80.011L170.523 77.7779C170.495 77.7021 170.449 77.6345 170.388 77.5817C170.327 77.5289 170.254 77.4927 170.175 77.4764C170.096 77.4602 170.014 77.4645 169.937 77.489C169.86 77.5135 169.791 77.5573 169.736 77.6162L168.555 78.8814C168.497 78.9442 168.456 79.022 168.439 79.1061C168.421 79.1903 168.427 79.2777 168.456 79.3588V79.3588Z" stroke="#575D68" stroke-width="0.4" stroke-miterlimit="10"/>
</g>
<path d="M174.36 87.613C174.576 88.0356 174.816 88.4458 175.078 88.8418C175.187 88.0006 175.308 87.1543 175.374 86.3084C175.437 86.0387 175.436 85.758 175.371 85.4888C175.205 85.0287 175.346 84.3685 174.874 84.0265C174.795 83.9841 174.729 83.9216 174.682 83.8452C174.664 83.7946 174.657 83.7407 174.661 83.6871C174.695 83.3653 174.687 83.0405 174.639 82.7206C174.611 82.5608 174.536 82.4133 174.422 82.2979C174.308 82.1825 174.161 82.1047 174.002 82.0751C174.035 81.6923 174.051 81.3085 174.052 80.9238C174.059 80.8394 174.044 80.7547 174.009 80.6777C173.917 80.5144 173.688 80.5068 173.501 80.52C173.226 80.5182 172.954 80.5807 172.708 80.7025C172.563 80.7983 172.435 80.9157 172.326 81.0506C171.779 81.6709 170.471 82.9898 172.151 82.9759L172.904 82.9695L172.65 84.3127C172.617 84.435 172.613 84.5635 172.639 84.6875C172.739 85.028 173.195 85.0767 173.549 85.0589C173.295 85.0717 173.32 86.3589 173.479 86.5724C173.52 86.6337 173.578 86.6819 173.645 86.7113C173.713 86.7407 173.787 86.75 173.86 86.7383C174.025 86.6972 174.13 86.5158 174.297 86.4859C173.943 86.5492 174.097 87.0739 174.36 87.613Z" fill="#F6F6F6" stroke="#575D68" stroke-width="0.4" stroke-miterlimit="10"/>
<circle cx="170.5" cy="87.5" r="16.5" stroke="#FF4F12" stroke-width="2"/>
</g>
<path d="M69.3011 279.001C100.948 279.001 126.602 253.285 126.602 221.562C126.602 189.839 100.948 164.123 69.3011 164.123C37.6546 164.123 12 189.839 12 221.562C12 253.285 37.6546 279.001 69.3011 279.001Z" fill="#FF4F12"/>
<mask id="mask0_480_8245" style="mask-type:alpha" maskUnits="userSpaceOnUse" x="12" y="164" width="115" height="115">
<path d="M69.6986 278.878C101.345 278.878 127 253.162 127 221.439C127 189.716 101.345 164 69.6986 164C38.052 164 12.3975 189.716 12.3975 221.439C12.3975 253.162 38.052 278.878 69.6986 278.878Z" fill="#FF4F12"/>
</mask>
<g mask="url(#mask0_480_8245)">
<path d="M80.6862 269.501L55.8568 255.338C53.8127 254.193 52.5502 252.024 52.5502 249.674L52.1895 178.26C52.1895 175.006 55.6764 172.957 58.4419 174.584L83.1511 188.686C85.616 190.132 87.1792 192.724 87.1792 195.616L87.6 265.463C87.6 269.018 83.7523 271.248 80.6862 269.501Z" fill="#E9EAEB" stroke="#575D68" stroke-width="0.4" stroke-miterlimit="10"/>
<path d="M80.6865 269.139L55.9773 255.037C53.9934 253.892 52.791 251.783 52.791 249.553L52.3701 178.321C52.3701 176.633 54.2338 175.548 55.6767 176.392L82.0092 191.458C84.0532 192.664 85.3759 194.833 85.3759 197.183L85.7967 266.186C85.8568 268.777 82.9711 270.465 80.6865 269.139Z" fill="#DDDEDF" stroke="#575D68" stroke-width="0.4" stroke-miterlimit="10"/>
<path d="M76.5386 191.037V192.243C76.5386 193.388 75.3362 194.051 74.3743 193.508L63.4325 187.241C62.1098 186.457 61.2681 185.071 61.2681 183.504V181.937C61.2681 181.636 61.0878 181.395 60.8473 181.275L55.9175 178.442C54.8353 177.839 53.5127 178.623 53.5127 179.828L53.9335 248.108C53.9335 250.458 55.196 252.628 57.2401 253.833L81.6488 267.754C83.0315 268.537 84.7149 267.513 84.7149 265.946L84.294 197.847C84.294 195.859 83.2119 194.051 81.5285 193.086L77.26 190.616C76.8993 190.495 76.5386 190.676 76.5386 191.037Z" fill="#F6F6F6" stroke="#575D68" stroke-width="0.4" stroke-miterlimit="10"/>
<path d="M64.6939 185.31C64.6939 185.431 64.8142 185.551 64.9344 185.612L72.5095 190.071C73.1708 190.433 73.1708 189.71 72.75 189.469L65.1148 184.888C64.8743 184.828 64.6338 185.009 64.6939 185.31Z" fill="#DDDEDF" stroke="#575D68" stroke-width="0.4" stroke-miterlimit="10"/>
<path d="M86.6979 207.85C87.0586 207.609 87.4794 207.85 87.4794 208.272V214.84C87.4794 215.322 87.239 215.744 86.8782 215.985C86.5175 216.166 86.0967 215.925 86.0967 215.564V208.934C86.0967 208.513 86.3372 208.091 86.6979 207.85Z" fill="#F6F6F6" stroke="#575D68" stroke-width="0.4" stroke-miterlimit="10"/>
<path d="M72.7507 189.529L65.1155 184.949C65.0554 184.889 64.9952 184.889 64.9351 184.889C64.875 184.949 64.875 185.069 64.875 185.13C64.875 185.25 64.9952 185.371 65.1155 185.431L72.6906 189.891C72.8108 189.951 72.931 190.011 72.9912 190.011C73.0513 189.951 72.9311 189.65 72.7507 189.529Z" fill="#DDDEDF" stroke="#575D68" stroke-width="0.4" stroke-miterlimit="10"/>
<path d="M87 207.971C87.3607 207.73 87.7815 207.971 87.7815 208.393V214.961C87.7815 215.444 87.5411 215.865 87.1803 216.106C86.8196 216.287 86.3988 216.046 86.3988 215.685V209.056C86.3387 208.634 86.5791 208.212 87 207.971Z" fill="#F6F6F6" stroke="#575D68" stroke-width="0.4" stroke-miterlimit="10"/>
<path d="M86.5181 248.83C86.8187 248.649 87.1193 248.83 87.1193 249.131V256.544C87.1193 256.905 86.9389 257.267 86.6383 257.448C86.3978 257.629 86.0371 257.387 86.0371 257.086V249.674C86.0371 249.312 86.2175 249.011 86.5181 248.83Z" fill="#F6F6F6" stroke="#575D68" stroke-width="0.4" stroke-miterlimit="10"/>
<path d="M86.9982 256.363C86.9982 256.544 86.878 256.785 86.6976 256.785C86.5173 256.845 86.3369 256.665 86.3369 256.424C86.3369 256.182 86.5173 255.941 86.6976 255.941C86.878 256.002 86.9982 256.182 86.9982 256.363Z" fill="#F6F6F6" stroke="#575D68" stroke-width="0.4" stroke-miterlimit="10"/>
<path d="M64.6939 185.31C64.6939 185.431 64.8142 185.551 64.9344 185.612L72.5095 190.071C73.1708 190.433 73.1708 189.71 72.75 189.469L65.1148 184.888C64.8743 184.828 64.6338 185.009 64.6939 185.31Z" fill="#DDDEDF"/>
<path d="M58.4425 213.093C58.5627 213.515 58.683 213.936 58.8633 214.358C59.4044 215.624 60.3062 216.889 60.4264 218.155C60.5467 218.999 60.1859 219.601 60.1258 220.385C59.9455 221.59 60.3062 223.217 61.0276 224.543C61.7491 225.929 62.8913 226.953 63.9134 227.315C64.5747 227.556 65.3563 227.496 65.8973 228.34C66.4985 229.123 66.739 229.846 67.4604 230.509C68.1819 231.172 68.9634 231.714 69.745 231.775C70.6468 231.895 70.9474 230.63 71.9093 231.112C72.3903 231.353 72.8712 231.775 73.3522 232.196C74.0736 232.799 74.8552 233.341 75.5766 233.703C75.757 233.824 75.9975 233.884 76.1177 233.824C76.2379 233.763 76.2981 233.643 76.3582 233.522C76.7189 232.498 76.5986 230.871 77.3802 230.509C77.7409 230.328 78.2219 230.569 78.6427 230.449C79.4243 230.268 79.6648 229.063 79.7249 227.857C79.785 225.688 79.4243 222.855 77.9213 220.807C77.0796 219.661 75.9975 218.878 75.4564 217.492C74.7951 215.925 75.3361 214.599 75.2159 213.093C75.0957 211.767 74.4945 210.26 73.8933 208.934C73.4123 207.85 72.8712 206.705 72.0897 206.102C71.4885 205.62 70.8271 205.56 70.2861 204.957C69.9254 204.535 69.6248 203.872 69.264 203.45C68.5426 202.727 67.1598 201.944 66.4384 201.582C65.4765 201.16 64.5146 201.16 63.7931 201.522C62.2901 202.185 61.208 204.174 61.5086 206.946C61.5687 207.307 61.6288 207.669 61.5687 207.97C61.3883 209.296 59.8252 209.236 59.1639 209.899C58.3222 210.321 58.1419 211.646 58.4425 213.093Z" fill="#F6F6F6" stroke="#575D68" stroke-width="0.4" stroke-miterlimit="10"/>
<path d="M58.4425 213.093C58.5627 213.515 58.683 213.936 58.8633 214.358C59.4044 215.624 60.3062 216.889 60.4264 218.155C60.5467 218.999 60.1859 219.601 60.1258 220.385C59.9455 221.59 60.3062 223.217 61.0276 224.543C61.7491 225.929 62.8913 226.953 63.9134 227.315C64.5747 227.556 65.3563 227.496 65.8973 228.34C66.4985 229.123 66.739 229.846 67.4604 230.509C68.1819 231.172 68.9634 231.714 69.745 231.775C70.6468 231.895 70.9474 230.63 71.9093 231.112C72.3903 231.353 72.8712 231.775 73.3522 232.196C74.0736 232.799 74.8552 233.341 75.5766 233.703C75.757 233.824 75.9975 233.884 76.1177 233.824C76.2379 233.763 76.2981 233.643 76.3582 233.522C76.7189 232.498 76.5986 230.871 77.3802 230.509C77.7409 230.328 78.2219 230.569 78.6427 230.449C79.4243 230.268 79.6648 229.063 79.7249 227.857C79.785 225.688 79.4243 222.855 77.9213 220.807C77.0796 219.661 75.9975 218.878 75.4564 217.492C74.7951 215.925 75.3361 214.599 75.2159 213.093C75.0957 211.767 74.4945 210.26 73.8933 208.934C73.4123 207.85 72.8712 206.705 72.0897 206.102C71.4885 205.62 70.8271 205.56 70.2861 204.957C69.9254 204.535 69.6248 203.872 69.264 203.45C68.5426 202.727 67.1598 201.944 66.4384 201.582C65.4765 201.16 64.5146 201.16 63.7931 201.522C62.2901 202.185 61.208 204.174 61.5086 206.946C61.5687 207.307 61.6288 207.669 61.5687 207.97C61.3883 209.296 59.8252 209.236 59.1639 209.899C58.3222 210.321 58.1419 211.646 58.4425 213.093Z" fill="#DDDEDF"/>
<path d="M82.3708 253.831C82.3708 253.831 82.0702 244.128 80.2065 240.874C77.6213 236.414 72.0302 232.798 72.0302 232.798L65.9581 229.484C65.9581 229.484 58.383 226.471 57.6014 230.388C56.8199 234.245 56.7598 240.151 56.7598 240.151" fill="#F6F6F6"/>
<path d="M82.3708 253.831C82.3708 253.831 82.0702 244.128 80.2065 240.874C77.6213 236.414 72.0302 232.798 72.0302 232.798L65.9581 229.484C65.9581 229.484 58.383 226.471 57.6014 230.388C56.8199 234.245 56.7598 240.151 56.7598 240.151" stroke="#575D68" stroke-width="0.4" stroke-miterlimit="10"/>
<path d="M65.8383 223.459L66.0187 229.305C66.0788 230.329 66.3794 231.414 66.9205 232.438C67.3413 233.222 68.0026 234.126 68.7842 234.668L68.8443 234.728C70.6479 235.934 72.1509 234.789 72.0307 232.438L71.7902 225.508C71.7902 225.508 65.7782 224.182 65.8383 223.459Z" fill="#F6F6F6" stroke="#575D68" stroke-width="0.4" stroke-miterlimit="10"/>
<path d="M74.3752 219.963C74.5555 224.965 72.0906 227.918 70.4072 229.304C69.6257 229.967 68.3031 229.244 67.4614 227.737C65.6578 224.483 62.8923 218.758 62.7119 213.756" fill="#F6F6F6"/>
<path d="M74.3752 219.963C74.5555 224.965 72.0906 227.918 70.4072 229.304C69.6257 229.967 68.3031 229.244 67.4614 227.737C65.6578 224.483 62.8923 218.758 62.7119 213.756" stroke="#575D68" stroke-width="0.4" stroke-miterlimit="10"/>
<path d="M69.2036 210.32C69.384 211.164 69.8048 212.007 70.3459 212.61C70.7667 213.092 71.3078 213.273 71.6685 213.936C72.0293 214.659 71.9691 215.503 72.39 216.346C72.8108 217.19 73.4721 217.853 74.0132 218.516L74.1936 220.685L62.4702 214.418L61.9893 210.862C62.0494 211.224 62.1696 211.646 62.4101 212.007C62.7708 212.49 63.1917 212.791 63.5524 212.791C63.9732 212.731 64.3339 212.67 64.6345 212.369C64.9351 212.068 65.1155 211.586 65.0554 210.983C65.0554 210.742 64.9952 210.441 65.0554 210.199C65.2357 209.597 66.0173 210.742 66.3179 211.043C66.9792 211.706 67.7608 212.007 68.362 211.766C68.9632 211.525 69.2638 210.802 69.2036 209.838" fill="#F6F6F6"/>
<path d="M69.2036 210.32C69.384 211.164 69.8048 212.007 70.3459 212.61C70.7667 213.092 71.3078 213.273 71.6685 213.936C72.0293 214.659 71.9691 215.503 72.39 216.346C72.8108 217.19 73.4721 217.853 74.0132 218.516L74.1936 220.685L62.4702 214.418L61.9893 210.862C62.0494 211.224 62.1696 211.646 62.4101 212.007C62.7708 212.49 63.1917 212.791 63.5524 212.791C63.9732 212.731 64.3339 212.67 64.6345 212.369C64.9351 212.068 65.1155 211.586 65.0554 210.983C65.0554 210.742 64.9952 210.441 65.0554 210.199C65.2357 209.597 66.0173 210.742 66.3179 211.043C66.9792 211.706 67.7608 212.007 68.362 211.766C68.9632 211.525 69.2638 210.802 69.2036 209.838" fill="#F6F6F6"/>
<path d="M62.4702 214.419L61.9893 210.864C62.0494 211.225 62.1696 211.647 62.4101 212.009C62.7708 212.491 63.1917 212.792 63.5524 212.792C63.9732 212.732 64.3339 212.672 64.6345 212.37C64.9351 212.069 65.1155 211.587 65.0554 210.984C65.0554 210.743 64.9952 210.442 65.0554 210.201C65.2357 209.598 66.0173 210.743 66.3179 211.044C66.9792 211.707 67.7608 212.009 68.362 211.768C68.9632 211.527 69.2638 210.803 69.2036 209.839C69.2036 209.658 69.2036 209.538 69.2036 209.417C69.2638 209.357 69.3239 209.297 69.384 209.297C69.9852 209.176 70.406 209.658 70.8269 209.056C71.0673 208.634 71.1876 207.911 71.1876 207.188" stroke="#575D68" stroke-width="0.4" stroke-miterlimit="10"/>
<path d="M69.2051 210.32C69.3854 211.164 69.8063 212.008 70.3474 212.61C70.7682 213.092 71.3093 213.273 71.67 213.936C72.0307 214.659 71.9706 215.503 72.3914 216.347C72.8123 217.19 73.4736 217.853 74.0147 218.516V219.842C74.0147 219.842 74.9165 218.697 75.2772 220.806C75.6379 222.795 75.0968 224.181 74.4956 223.82C73.8343 223.458 73.9545 222.916 73.9545 222.916" fill="#F6F6F6"/>
<path d="M69.2051 210.32C69.3854 211.164 69.8063 212.008 70.3474 212.61C70.7682 213.092 71.3093 213.273 71.67 213.936C72.0307 214.659 71.9706 215.503 72.3914 216.347C72.8123 217.19 73.4736 217.853 74.0147 218.516V219.842C74.0147 219.842 74.9165 218.697 75.2772 220.806C75.6379 222.795 75.0968 224.181 74.4956 223.82C73.8343 223.458 73.9545 222.916 73.9545 222.916" stroke="#575D68" stroke-width="0.4" stroke-miterlimit="10"/>
<path d="M69.4453 216.768C69.4453 216.768 70.1667 216.346 71.1888 217.189C72.2108 218.033 72.9323 219.178 72.9323 219.178" fill="#F6F6F6"/>
<path d="M69.4453 216.768C69.4453 216.768 70.1667 216.346 71.1888 217.189C72.2108 218.033 72.9323 219.178 72.9323 219.178" stroke="#575D68" stroke-width="0.4" stroke-miterlimit="10"/>
<path d="M67.7008 215.865C67.7008 215.865 66.9193 214.66 65.8972 214.359C64.8752 214.058 64.2139 214.54 64.2139 214.54" fill="#F6F6F6"/>
<path d="M67.7008 215.865C67.7008 215.865 66.9193 214.66 65.8972 214.359C64.8752 214.058 64.2139 214.54 64.2139 214.54" stroke="#575D68" stroke-width="0.4" stroke-miterlimit="10"/>
<path d="M63.0718 214.479C63.0718 214.479 62.0497 212.31 61.8093 214.058C61.5688 215.745 62.2301 217.794 62.8914 218.095C63.4926 218.397 63.3724 217.734 63.3724 217.734" fill="#F6F6F6"/>
<path d="M63.0718 214.479C63.0718 214.479 62.0497 212.31 61.8093 214.058C61.5688 215.745 62.2301 217.794 62.8914 218.095C63.4926 218.397 63.3724 217.734 63.3724 217.734" stroke="#575D68" stroke-width="0.4" stroke-miterlimit="10"/>
<path d="M56.6395 201.883L55.3769 201.22L55.3168 198.75C55.1966 196.038 56.8198 194.712 58.924 195.797L60.8478 196.821L60.908 198.448L58.924 197.424C57.5413 196.701 56.4591 197.544 56.5192 199.413L56.6395 201.883Z" fill="#FF4F12"/>
<path d="M80.7458 214.72L79.4833 214.057L79.4232 211.526C79.3631 209.718 78.1607 207.609 76.7779 206.886L74.8541 205.862L74.7939 204.234L76.7178 205.259C78.822 206.344 80.5654 209.477 80.6857 212.189L80.7458 214.72Z" fill="#FF4F12"/>
<path d="M77.3228 240.03L75.399 239.006L75.3389 237.378L77.2627 238.403C78.6455 239.126 79.7276 238.282 79.6675 236.414L79.6074 233.943L80.8699 234.606L80.93 237.077C81.0502 239.849 79.427 241.175 77.3228 240.03Z" fill="#FF4F12"/>
<path d="M61.4489 231.593L59.5251 230.569C57.4209 229.484 55.6774 226.35 55.5572 223.639L55.4971 221.107L56.7596 221.77L56.8197 224.301C56.8798 226.109 58.0822 228.219 59.465 228.942L61.3888 229.966L61.4489 231.593Z" fill="#FF4F12"/>
</g>
<defs>
<linearGradient id="paint0_linear_480_8245" x1="111.367" y1="146.324" x2="171.867" y2="146.324" gradientUnits="userSpaceOnUse">
<stop offset="0.20439" stop-color="white" stop-opacity="0"/>
<stop offset="0.38521" stop-color="#F8F8F8" stop-opacity="0.3322"/>
<stop offset="0.55787" stop-color="#F2F2F2" stop-opacity="0.61849"/>
<stop offset="0.70144" stop-color="#EEEEEE" stop-opacity="0.82518"/>
<stop offset="0.81044" stop-color="#EBEBEB" stop-opacity="0.95242"/>
<stop offset="0.87213" stop-color="#EAEAEA"/>
</linearGradient>
<linearGradient id="paint1_linear_480_8245" x1="160.744" y1="154.446" x2="172.653" y2="184.529" gradientUnits="userSpaceOnUse">
<stop offset="0.20439" stop-color="white" stop-opacity="0"/>
<stop offset="0.38521" stop-color="#F8F8F8" stop-opacity="0.3322"/>
<stop offset="0.55787" stop-color="#F2F2F2" stop-opacity="0.61849"/>
<stop offset="0.70144" stop-color="#EEEEEE" stop-opacity="0.82518"/>
<stop offset="0.81044" stop-color="#EBEBEB" stop-opacity="0.95242"/>
<stop offset="0.87213" stop-color="#EAEAEA"/>
</linearGradient>
<linearGradient id="paint2_linear_480_8245" x1="151.603" y1="156.446" x2="126.881" y2="182.427" gradientUnits="userSpaceOnUse">
<stop offset="0.11117" stop-color="white" stop-opacity="0"/>
<stop offset="0.31724" stop-color="#F8F8F8" stop-opacity="0.3322"/>
<stop offset="0.514" stop-color="#F2F2F2" stop-opacity="0.61849"/>
<stop offset="0.67761" stop-color="#EEEEEE" stop-opacity="0.82518"/>
<stop offset="0.80183" stop-color="#EBEBEB" stop-opacity="0.95242"/>
<stop offset="0.87213" stop-color="#EAEAEA"/>
</linearGradient>
<linearGradient id="paint3_linear_480_8245" x1="137.371" y1="126.429" x2="112.396" y2="138.981" gradientUnits="userSpaceOnUse">
<stop stop-color="white" stop-opacity="0"/>
<stop offset="0.23617" stop-color="#F8F8F8" stop-opacity="0.3322"/>
<stop offset="0.46168" stop-color="#F2F2F2" stop-opacity="0.61849"/>
<stop offset="0.64919" stop-color="#EEEEEE" stop-opacity="0.82518"/>
<stop offset="0.79156" stop-color="#EBEBEB" stop-opacity="0.95242"/>
<stop offset="0.87213" stop-color="#EAEAEA"/>
</linearGradient>
<linearGradient id="paint4_linear_480_8245" x1="125.467" y1="92.7177" x2="171.103" y2="92.7177" gradientUnits="userSpaceOnUse">
<stop offset="0.06531" stop-color="#F8D5C8"/>
<stop offset="1" stop-color="#F8D5C8"/>
</linearGradient>
<clipPath id="clip0_480_8245">
<rect width="345" height="480" rx="6" fill="white"/>
</clipPath>
</defs>
</svg>
