<svg width="340" height="596" viewBox="0 0 340 596" fill="none" xmlns="http://www.w3.org/2000/svg">
<path d="M259.821 464.02L139.198 395.317C129.374 389.722 123.233 379.284 123.165 367.958L121.118 21.576C121.05 5.88405 137.97 -4.07692 151.615 3.70082L271.693 72.063C283.769 78.9538 291.273 91.7121 291.342 105.63L293.388 444.371C293.457 461.632 274.831 472.548 259.821 464.02Z" fill="#E9EAEB" stroke="#575D68" stroke-width="0.5" stroke-miterlimit="10"/>
<path d="M259.958 462.383L139.881 394.021C130.261 388.563 124.325 378.398 124.257 367.345L122.21 21.8497C122.142 13.5262 131.148 8.27279 138.38 12.3663L266.576 85.3679C276.605 91.0989 282.814 101.742 282.882 113.272L284.86 447.92C284.86 460.678 271.079 468.728 259.958 462.383Z" fill="#DDDEDF" stroke="#575D68" stroke-width="0.5" stroke-miterlimit="10"/>
<path d="M239.558 83.4566L239.627 89.1875C239.627 94.5774 233.827 97.9887 229.12 95.3279L175.972 65.1038C169.422 61.4196 165.397 54.4606 165.397 47.024L165.329 39.5192C165.329 38.1547 164.578 36.9266 163.419 36.2443L139.335 22.531C134.15 19.529 127.668 23.3497 127.668 29.3535L129.647 360.18C129.715 371.642 135.855 382.149 145.816 387.812L264.393 455.287C271.079 459.108 279.334 454.264 279.266 446.554L277.287 116.478C277.219 106.858 272.034 98.0569 263.71 93.2811L242.833 81.4098C241.401 80.6593 239.558 81.7509 239.558 83.4566Z" fill="#F6F6F6" stroke="#575D68" stroke-width="0.5" stroke-miterlimit="10"/>
<path d="M182.044 55.6895C182.18 56.3717 182.522 56.9175 183.067 57.2586L219.909 79.0227C223.048 80.7283 223.048 77.317 221.137 76.089L184.091 54.052C182.931 53.3698 181.839 54.3249 182.044 55.6895Z" fill="#DDDEDF" stroke="#575D68" stroke-width="0.5" stroke-miterlimit="10"/>
<path d="M289.159 165.056L289.363 164.919C290.932 164.032 292.911 165.124 292.911 166.966V198.896C292.911 201.147 291.751 203.194 289.841 204.354C288.203 205.377 286.088 204.149 286.088 202.239V170.309C286.088 168.126 287.248 166.147 289.159 165.056Z" fill="#F6F6F6" stroke="#575D68" stroke-width="0.5" stroke-miterlimit="10"/>
<path d="M221.137 76.1575L184.091 54.0523C183.75 53.8477 183.409 53.8477 183.067 53.8477C182.863 54.1888 182.795 54.5981 182.863 55.0757C182.999 55.758 183.34 56.3038 183.886 56.6449L220.728 78.4089C221.41 78.7501 221.956 78.8865 222.365 78.8865C222.638 78.0678 222.161 76.7715 221.137 76.1575Z" fill="#DDDEDF" stroke="#575D68" stroke-width="0.5" stroke-miterlimit="10"/>
<path d="M290.523 165.601L290.728 165.464C292.297 164.577 294.275 165.669 294.275 167.511V199.441C294.275 201.692 293.116 203.739 291.205 204.899C289.568 205.922 287.453 204.694 287.453 202.784V170.854C287.453 168.739 288.613 166.76 290.523 165.601Z" fill="#F6F6F6" stroke="#575D68" stroke-width="0.5" stroke-miterlimit="10"/>
<path d="M288.203 363.659L288.34 363.591C289.568 362.84 291.137 363.795 291.137 365.228V401.32C291.137 403.093 290.25 404.663 288.749 405.618C287.453 406.436 285.815 405.481 285.815 403.98V367.889C285.815 366.115 286.771 364.546 288.203 363.659Z" fill="#F6F6F6" stroke="#575D68" stroke-width="0.5" stroke-miterlimit="10"/>
<path d="M290.455 400.434C290.455 401.389 289.909 402.413 289.09 402.617C288.203 402.89 287.385 402.14 287.385 400.912C287.385 399.684 288.203 398.66 289.09 398.66C289.909 398.66 290.455 399.479 290.455 400.434Z" fill="#F6F6F6" stroke="#575D68" stroke-width="0.5" stroke-miterlimit="10"/>
<path d="M182.044 55.6895C182.18 56.3717 182.522 56.9175 183.067 57.2586L219.909 79.0227C223.048 80.7283 223.048 77.317 221.137 76.089L184.091 54.052C182.931 53.3698 181.839 54.3249 182.044 55.6895Z" fill="#DDDEDF"/>
<path d="M72.2748 340L69 341.91L74.5945 477.27L264.603 594.687L267.81 592.299V453.459L72.2748 340Z" fill="#E9EAEB" stroke="#575D68" stroke-width="0.5" stroke-miterlimit="10"/>
<path d="M69 341.91V481.432L264.603 594.687V455.301L69 341.91Z" fill="#F6F6F6" stroke="#575D68" stroke-width="0.5" stroke-miterlimit="10"/>
<path d="M76.3684 355.965V476.861L255.529 581.792L255.12 458.986L76.3684 355.965Z" fill="#F6F6F6" stroke="#575D68" stroke-width="0.5" stroke-miterlimit="10"/>
<path d="M264.603 455.301L267.81 453.459" stroke="#575D68" stroke-width="0.5" stroke-miterlimit="10"/>
<path d="M4.20661 38L1 39.8421L6.52629 379.402L131.379 458.748L134.654 456.36V113.321L4.20661 38Z" fill="#E9EAEB" stroke="#575D68" stroke-width="0.5" stroke-miterlimit="10"/>
<path d="M1 39.8418V383.563L131.379 458.748V115.163L1 39.8418Z" fill="#F6F6F6" stroke="#575D68" stroke-width="0.5" stroke-miterlimit="10"/>
<path d="M131.379 115.162L134.654 113.32" stroke="#575D68" stroke-width="0.5" stroke-miterlimit="10"/>
<path d="M15.3958 132.971V149.754C15.3958 149.754 88.2609 191.713 87.8515 191.577C87.4422 191.44 87.8515 174.861 87.8515 174.861L15.3958 132.971Z" fill="#E9EAEB"/>
<path d="M15.3958 166.469V183.252L116.984 241.79V225.006L15.3958 166.469Z" fill="#E9EAEB"/>
<path d="M15.3958 297.736V314.52C15.3958 314.52 88.2609 356.479 87.8515 356.342C87.4422 356.206 87.8515 339.627 87.8515 339.627L15.3958 297.736Z" fill="#E9EAEB"/>
<path d="M15.3958 331.234V348.018L95.7657 393.866V377.15L15.3958 331.234Z" fill="#E9EAEB"/>
<path d="M15.3958 199.9V216.684C15.3958 216.684 73.8652 250.865 73.4559 250.729C73.0465 250.592 73.4559 234.013 73.4559 234.013L15.3958 199.9Z" fill="#E9EAEB"/>
<path d="M15.3958 361.322V378.106C15.3958 378.106 73.8652 412.287 73.4559 412.15C73.0465 412.014 73.4559 395.435 73.4559 395.435L15.3958 361.322Z" fill="#E9EAEB"/>
<path d="M15.3958 233.398V250.182L102.384 301.147V284.431L15.3958 233.398Z" fill="#E9EAEB"/>
<path d="M15.3958 266.83V283.614C15.3958 283.614 88.3973 325.777 87.9197 325.641C87.5104 325.504 87.9197 308.925 87.9197 308.925L15.3958 266.83Z" fill="#E9EAEB"/>
<path d="M15.4639 74.3633V119.324L54.4208 141.77V96.8096L15.4639 74.3633Z" fill="#E9EAEB"/>
<path d="M1 39.8418V56.3524L131.379 130.855V115.163L1 39.8418Z" fill="#F6F6F6" stroke="#575D68" stroke-width="0.5" stroke-miterlimit="10"/>
<path d="M16.146 54.3732C16.2143 57.1022 14.6451 58.8761 12.5301 58.6032C10.4833 58.3303 8.50474 56.0106 8.09538 53.2816C7.68603 50.3478 9.25522 48.0282 11.6431 48.3693C14.0993 48.6422 16.0778 51.4395 16.146 54.3732Z" fill="#F6F6F6" stroke="#575D68" stroke-width="0.5" stroke-miterlimit="10"/>
<path d="M15.5323 54.9884C15.6005 57.7174 14.0313 59.4913 11.9163 59.2184C9.86952 58.9455 7.89097 56.6258 7.48161 53.8968C7.07226 50.9631 8.64145 48.6434 11.0294 48.9845C13.4173 49.2574 15.3958 52.0547 15.5323 54.9884Z" fill="#F6F6F6" stroke="#575D68" stroke-width="0.5" stroke-miterlimit="10"/>
<path d="M21.2633 56.1484L20.3081 56.626L20.9221 59.8326L33.6121 68.0197L34.4991 67.3375V63.7897L21.2633 56.1484Z" fill="#F6F6F6" stroke="#575D68" stroke-width="0.5" stroke-miterlimit="10"/>
<path d="M20.3081 56.6952V60.5158L33.4075 67.816C33.5439 67.8842 33.6121 67.816 33.6121 67.6795V64.2682L20.4446 56.627C20.3763 56.627 20.3081 56.627 20.3081 56.6952Z" fill="#F6F6F6" stroke="#575D68" stroke-width="0.5" stroke-miterlimit="10"/>
<path d="M339.077 308.65L337.9 395.937L332.506 400.645L201.477 314.73L193.729 324.047L185.196 330.128L190.983 305.315L185.196 225.579L192.16 221.166L339.077 308.65Z" fill="#EEEEEF" stroke="#575D68" stroke-width="0.5" stroke-miterlimit="10"/>
<path d="M333.389 312.964L332.212 400.35L195.788 319.045L185.098 330.323L185.294 312.866L185.392 309.629L185 225.48L333.389 312.964Z" fill="#F6F6F6" stroke="#575D68" stroke-width="0.5" stroke-miterlimit="10"/>
<path d="M333.389 312.966L339.077 308.65" stroke="#575D68" stroke-width="0.5379" stroke-miterlimit="10"/>
<path d="M132.43 272.758L138.161 269.688V247.037L132.43 249.766V272.758Z" fill="#E9EAEB" stroke="#575D68" stroke-width="0.5" stroke-miterlimit="10"/>
<path d="M73.0058 120L64 125.526L73.074 230.799L106.982 224.317V172.124L73.0058 120Z" fill="#E9EAEB" stroke="#575D68" stroke-width="0.5" stroke-miterlimit="10"/>
<path d="M144.711 246.15L106.914 224.318L97.9082 177.651L106.914 172.057L144.711 193.889V246.15Z" fill="#E9EAEB" stroke="#575D68" stroke-width="0.5" stroke-miterlimit="10"/>
<path d="M154.058 251.471L145.052 256.997L135.705 199.347L144.711 193.889L154.058 199.21V251.471Z" fill="#E9EAEB" stroke="#575D68" stroke-width="0.5" stroke-miterlimit="10"/>
<path d="M64 125.525V236.324L97.9082 229.774V177.65L64 125.525Z" fill="#F6F6F6" stroke="#575D68" stroke-width="0.5596" stroke-miterlimit="10"/>
<path d="M135.705 251.607L97.9082 229.843V177.582L135.705 199.346V251.607Z" fill="#F6F6F6" stroke="#575D68" stroke-width="0.5596" stroke-miterlimit="10"/>
<path d="M145.052 256.996L135.705 251.607V199.346L144.984 204.736L145.052 256.996Z" fill="#F6F6F6" stroke="#575D68" stroke-width="0.5596" stroke-miterlimit="10"/>
<path d="M154.058 199.211L144.984 204.737" stroke="#575D68" stroke-width="0.5596" stroke-miterlimit="10"/>
<path d="M121.31 243.352V266.207L132.43 272.757V249.765L121.31 243.352Z" fill="#E9EAEB" stroke="#575D68" stroke-width="0.5" stroke-miterlimit="10"/>
<path d="M265.422 92L273.66 118.186L292.785 129.367L278.76 141.234L281.997 164.086L278.172 166.243L261.597 143.98L247.67 146.922L252.77 126.523L238.255 102.298L242.08 100.14L257.576 109.065L261.597 94.2557L265.422 92Z" fill="#F8D5C8" stroke="#575D68" stroke-width="0.5" stroke-miterlimit="10"/>
<path d="M261.597 94.2559L269.836 120.344L288.96 131.623L274.935 143.49L278.172 166.243L261.597 143.98L246.493 148.394L248.945 128.779L238.255 102.298L253.751 111.321L261.597 94.2559Z" fill="#F8D5C8" stroke="#575D68" stroke-width="0.5" stroke-miterlimit="10"/>
<path d="M273.563 118.186L269.836 120.343" stroke="#575D68" stroke-width="0.5" stroke-miterlimit="10"/>
<path d="M278.76 141.234L274.935 143.49" stroke="#575D68" stroke-width="0.5" stroke-miterlimit="10"/>
<path d="M288.96 131.623L292.785 129.367" stroke="#575D68" stroke-width="0.5" stroke-miterlimit="10"/>
<path d="M265.422 161.83L273.66 188.016L292.785 199.197L278.76 211.064L281.997 233.916L278.172 236.172L261.597 213.908L247.67 216.851L252.77 196.353L238.255 172.128L242.08 169.97L257.576 178.895L261.597 164.086L265.422 161.83Z" fill="#F8D5C8" stroke="#575D68" stroke-width="0.5" stroke-miterlimit="10"/>
<path d="M261.597 164.086L269.836 190.272L288.96 201.453L274.935 213.32L278.172 236.172L261.597 213.908L246.493 218.224L248.945 198.609L238.255 172.128L253.751 181.151L261.597 164.086Z" fill="#F8D5C8" stroke="#575D68" stroke-width="0.5" stroke-miterlimit="10"/>
<path d="M273.563 188.016L269.836 190.271" stroke="#575D68" stroke-width="0.5" stroke-miterlimit="10"/>
<path d="M278.76 211.064L274.935 213.32" stroke="#575D68" stroke-width="0.5" stroke-miterlimit="10"/>
<path d="M288.96 201.453L292.785 199.197" stroke="#575D68" stroke-width="0.5" stroke-miterlimit="10"/>
<path d="M265.422 231.758L273.66 257.846L292.785 269.027L278.76 280.894L281.997 303.745L278.172 306.001L261.597 283.738L247.67 286.68L252.77 266.182L238.255 242.056L242.08 239.8L257.576 248.725L261.597 233.915L265.422 231.758Z" fill="#F8D5C8" stroke="#575D68" stroke-width="0.5" stroke-miterlimit="10"/>
<path d="M261.597 233.916L269.836 260.102L288.96 271.283L274.935 283.15L278.172 306.002L261.597 283.739L246.493 288.054L248.945 268.439L238.255 242.056L253.751 250.981L261.597 233.916Z" fill="#F8D5C8" stroke="#575D68" stroke-width="0.5" stroke-miterlimit="10"/>
<path d="M273.563 257.846L269.836 260.101" stroke="#575D68" stroke-width="0.5" stroke-miterlimit="10"/>
<path d="M278.76 280.895L274.935 283.15" stroke="#575D68" stroke-width="0.5" stroke-miterlimit="10"/>
<path d="M288.96 271.283L292.785 269.027" stroke="#575D68" stroke-width="0.5" stroke-miterlimit="10"/>
<path fill-rule="evenodd" clip-rule="evenodd" d="M172.147 339.886C172.806 336.92 172.065 334.118 168.851 332.306L158.058 326.209C157.399 325.797 156.328 325.385 155.834 325.303C154.68 325.056 150.89 327.857 146.936 330.164C146.936 330.164 148.089 344.335 140.427 352.491C137.955 354.716 136.802 355.21 135.401 354.469C134.742 354.057 133.671 352.326 133.671 349.031L133.424 317.97C133.424 314.015 132.6 311.791 130.293 310.473L113.321 300.833C112.497 300.339 111.179 300.339 110.767 300.751C110.355 301.08 104.999 304.211 103.846 304.87C103.764 304.952 103.764 305.035 103.846 305.117C105.411 305.859 114.639 310.72 115.051 320.606L115.216 343.676C115.298 348.701 114.639 349.278 113.238 348.537C109.613 346.477 100.55 321.925 95.0302 296.631C93.9592 291.688 92.8881 289.381 90.1693 287.815L79.3762 281.719C78.2228 281.059 77.3989 280.895 76.8221 281.059C76.4926 281.142 68.748 285.179 68.5832 285.508C68.2536 286.085 69.819 288.886 69.819 289.793C69.819 293.912 79.541 310.802 93.2177 345.653C102.281 369.299 107.471 385.859 118.923 392.285C121.477 393.768 123.619 399.124 124.773 399.206C125.432 399.206 133.012 395.004 133.341 394.592C134.001 393.933 134.083 392.697 134.083 391.132L134.001 377.043C134.001 372.594 134.577 372.018 136.802 373.253C138.367 374.16 141.168 376.879 147.677 389.484C155.092 404.232 156.328 409.67 160.448 412.059L165.885 423.017C168.769 421.699 173.96 419.144 174.619 418.403C175.278 417.661 175.443 416.096 174.948 413.624C173.96 408.681 170.417 400.277 165.721 390.143C163.166 384.376 159.377 377.62 158.223 374.654C156.575 370.782 157.07 369.711 158.141 367.651C157.894 367.651 170.829 348.289 172.147 339.886Z" fill="#E9DDF7" stroke="#575D68" stroke-width="0.5" stroke-miterlimit="10"/>
<path fill-rule="evenodd" clip-rule="evenodd" d="M164.402 344.005C165.062 341.039 164.32 338.237 161.107 336.425L150.314 330.328C147.595 328.763 146.359 330.163 145.618 332.058C145.618 332.058 140.262 348.371 132.6 356.61C130.128 358.835 128.975 359.329 127.574 358.588C126.915 358.176 125.844 356.446 125.844 353.15L125.597 322.089C125.597 318.134 124.773 315.91 122.466 314.592L105.576 304.952C103.846 303.963 102.857 305.282 102.857 307.012C102.857 310.802 106.812 313.85 107.306 324.726L107.471 347.795C107.554 352.82 106.895 353.397 105.494 352.656C101.869 350.596 92.8059 326.044 87.2858 300.75C86.2147 295.807 85.1437 293.5 82.4248 291.934L71.6317 285.838C68.5833 284.107 67.9242 285.838 68.0066 288.145C68.0066 292.264 71.8789 314.921 85.4732 349.772C94.5361 373.418 107.224 390.637 118.676 397.064C125.515 400.936 126.338 399.206 126.338 395.333L126.256 381.245C126.256 376.796 126.833 376.219 129.057 377.455C130.623 378.361 133.424 381.08 139.933 393.686C147.348 408.433 148.584 413.871 152.703 416.26L163.496 422.357C166.545 424.087 168.11 422.769 167.204 417.826C166.215 412.882 162.672 404.479 157.976 394.345C155.422 388.578 151.632 381.822 150.479 378.856C148.831 374.983 149.325 373.912 150.396 371.852C150.149 371.852 163.084 352.408 164.402 344.005Z" fill="#E9DDF7" stroke="#575D68" stroke-width="0.5" stroke-miterlimit="10"/>
<path d="M196.31 463.693C196.31 469.082 194.877 473.176 192.489 475.7C189.419 478.907 186.008 479.521 186.008 479.521L164.175 433.469C164.175 433.469 165.199 432.718 168.883 430.74C171.748 429.239 175.501 429.443 179.526 431.763C188.805 437.085 196.241 451.344 196.31 463.693Z" fill="#F8D5C8" stroke="#575D68" stroke-width="0.5" stroke-miterlimit="10"/>
<path d="M186.502 479.227C193.885 476.08 195.366 462.963 189.811 449.931C184.256 436.898 173.768 428.884 166.385 432.03C159.002 435.177 157.52 448.294 163.075 461.327C168.63 474.359 179.119 482.374 186.502 479.227Z" fill="#F8D5C8" stroke="#575D68" stroke-width="0.5" stroke-miterlimit="10"/>
<path d="M122.353 494.871L203.61 545.29L207.021 542.971L169.292 448.205L165.744 450.184L154.487 467.308L149.78 455.164L146.027 457.279L122.353 494.871Z" fill="#F6F6F6" stroke="#575D68" stroke-width="0.5" stroke-miterlimit="10"/>
<path d="M118.6 496.236L203.61 545.29L165.744 450.184L150.735 468.741L146.027 457.279L118.6 496.236Z" fill="#DDDEDF" stroke="#575D68" stroke-width="0.5" stroke-miterlimit="10"/>
<path d="M137.499 469.833L143.639 469.355L150.598 479.384L159.74 471.675L165.744 481.636L170.52 474.54L183.756 495.486L165.744 450.184L150.735 468.741L146.027 457.279L137.294 469.696L137.499 469.833Z" fill="#F6F6F6" stroke="#575D68" stroke-width="0.5" stroke-miterlimit="10"/>
</svg>
