<svg width="345" height="480" viewBox="0 0 345 480" fill="none" xmlns="http://www.w3.org/2000/svg">
<g clip-path="url(#clip0_480_8247)">
<rect width="345" height="480" rx="6" fill="#F6F6F6"/>
<g clip-path="url(#clip1_480_8247)">
<path d="M614 504H-159V-340L612.657 186.263L614 504Z" fill="#DDDEDF"/>
<path d="M93.572 185.555L218.953 114.151L93.7589 41.6763L106.21 34.6096L47.8409 0.975806L33.8515 9.03055L-2.13023 -11.2637C-3.94726 -10.0759 -5.75578 -8.87469 -7.55579 -7.66006C-11.4937 -5.00692 -15.3997 -2.30743 -19.2739 0.438393L88.4627 62.7467L-131.844 189.656C-131.867 193.832 -131.898 198.009 -131.937 202.186C-131.956 203.966 -131.977 205.745 -132 207.524L103.948 71.7022L176.513 113.669L22.5677 201.863L90.2602 241.132L-28.1007 309.44L0.781685 398.671L163.585 307.079L233.648 266.069L93.572 185.555Z" fill="#F6F6F6" stroke="#575D68" stroke-width="0.4" stroke-miterlimit="10"/>
<path d="M172.968 65.4418L163.456 70.9164L123.069 47.3952L132.356 41.9219L172.968 65.4418Z" fill="#F6F6F6" stroke="#575D68" stroke-width="0.4" stroke-miterlimit="10"/>
<path d="M179.688 56.0213L177.195 57.5668L136.843 33.9401L139.144 32.6836L179.688 56.0213Z" fill="#F6F6F6" stroke="#575D68" stroke-width="0.4" stroke-miterlimit="10"/>
<path d="M132.355 41.9219L136.842 33.9395L177.194 57.5661L172.967 65.4419L132.355 41.9219Z" fill="#F6F6F6" stroke="#575D68" stroke-width="0.4" stroke-miterlimit="10"/>
<path d="M179.688 56.0215V70.5085L163.456 79.9402V70.9173L172.968 65.4427L177.195 57.5669L179.688 56.0215Z" fill="#F6F6F6" stroke="#575D68" stroke-width="0.4" stroke-miterlimit="10"/>
<path d="M163.456 70.9177V79.9406L123.069 56.5454V47.3965L163.456 70.9177Z" fill="#F6F6F6" stroke="#575D68" stroke-width="0.4" stroke-miterlimit="10"/>
<path d="M176.973 58.013L136.601 34.4648" stroke="#575D68" stroke-width="0.4" stroke-miterlimit="10"/>
<path d="M176.552 58.7895L136.16 35.2402" stroke="#575D68" stroke-width="0.4" stroke-miterlimit="10"/>
<path d="M176.131 59.5641L135.72 36.0137" stroke="#575D68" stroke-width="0.4" stroke-miterlimit="10"/>
<path d="M175.708 60.3405L135.277 36.7891" stroke="#575D68" stroke-width="0.4" stroke-miterlimit="10"/>
<path d="M175.287 61.1151L134.837 37.5625" stroke="#575D68" stroke-width="0.4" stroke-miterlimit="10"/>
<path d="M174.866 61.8916L134.396 38.3379" stroke="#575D68" stroke-width="0.4" stroke-miterlimit="10"/>
<path d="M174.443 62.666L133.954 39.1113" stroke="#575D68" stroke-width="0.4" stroke-miterlimit="10"/>
<path d="M174.022 63.4425L133.514 39.8867" stroke="#575D68" stroke-width="0.4" stroke-miterlimit="10"/>
<path d="M173.6 64.2173L133.071 40.6602" stroke="#575D68" stroke-width="0.4" stroke-miterlimit="10"/>
<path d="M173.179 64.9936L132.631 41.4355" stroke="#575D68" stroke-width="0.4" stroke-miterlimit="10"/>
<path d="M172.539 65.7298L131.928 42.3086" stroke="#575D68" stroke-width="0.4" stroke-miterlimit="10"/>
<path d="M171.59 66.2708L131.004 42.8379" stroke="#575D68" stroke-width="0.4" stroke-miterlimit="10"/>
<path d="M170.644 66.8119L130.082 43.3672" stroke="#575D68" stroke-width="0.4" stroke-miterlimit="10"/>
<path d="M169.695 67.353L129.158 43.8965" stroke="#575D68" stroke-width="0.4" stroke-miterlimit="10"/>
<path d="M168.749 67.894L128.236 44.4258" stroke="#575D68" stroke-width="0.4" stroke-miterlimit="10"/>
<path d="M167.801 68.4351L127.312 44.9551" stroke="#575D68" stroke-width="0.4" stroke-miterlimit="10"/>
<path d="M166.854 68.9742L126.391 45.4824" stroke="#575D68" stroke-width="0.4" stroke-miterlimit="10"/>
<path d="M165.906 69.5153L125.467 46.0117" stroke="#575D68" stroke-width="0.4" stroke-miterlimit="10"/>
<path d="M164.959 70.0563L124.545 46.541" stroke="#575D68" stroke-width="0.4" stroke-miterlimit="10"/>
<path d="M164.011 70.5973L123.621 47.0703" stroke="#575D68" stroke-width="0.4" stroke-miterlimit="10"/>
<path d="M160.627 58.8254V56.5977L151.889 61.8823L151.875 64.1717L152.712 63.6244L152.731 62.247L158.561 58.6776L159.757 57.9455L159.734 59.367L160.627 58.8254Z" fill="#F6F6F6" stroke="#575D68" stroke-width="0.4" stroke-miterlimit="10"/>
<path d="M160.628 56.5986L159.389 55.8418L150.569 61.0801V63.4224L151.875 64.1726L151.889 61.8832L160.628 56.5986Z" fill="#F6F6F6" stroke="#575D68" stroke-width="0.4" stroke-miterlimit="10"/>
<path d="M158.562 58.6794L159.735 59.3687L159.757 57.9473L158.562 58.6794Z" fill="#F6F6F6" stroke="#575D68" stroke-width="0.4" stroke-miterlimit="10"/>
<path d="M151.889 61.8735L150.569 61.0703" stroke="#575D68" stroke-width="0.4" stroke-miterlimit="10"/>
<path d="M146.356 50.4953V48.2676L137.618 53.5522L137.604 55.8416L138.441 55.2943L138.459 53.9169L144.29 50.3476L145.485 49.6154L145.463 51.0369L146.356 50.4953Z" fill="#F6F6F6" stroke="#575D68" stroke-width="0.4" stroke-miterlimit="10"/>
<path d="M146.357 48.2685L145.118 47.5117L136.298 52.75V55.0924L137.604 55.8426L137.618 53.5532L146.357 48.2685Z" fill="#F6F6F6" stroke="#575D68" stroke-width="0.4" stroke-miterlimit="10"/>
<path d="M144.29 50.3493L145.463 51.0387L145.486 49.6172L144.29 50.3493Z" fill="#F6F6F6" stroke="#575D68" stroke-width="0.4" stroke-miterlimit="10"/>
<path d="M137.618 53.5435L136.298 52.7402" stroke="#575D68" stroke-width="0.4" stroke-miterlimit="10"/>
<path d="M151.38 212.961V151.426L204.618 183.025V244.561" stroke="#666666" stroke-width="0.4"/>
<path d="M294.019 41.7829L294.669 -482.314L140.264 -568L140.314 -46.6012L294.019 41.7829Z" fill="#F6F6F6" stroke="#575D68" stroke-width="0.4" stroke-miterlimit="10"/>
<path d="M106.209 -128.184V34.6076L193.58 -15.8508V-156.057L125.572 -116.821V-139.232L106.209 -128.184Z" fill="#F6F6F6" stroke="#575D68" stroke-width="0.4" stroke-miterlimit="10"/>
<path d="M47.8398 -161.668V0.974597L106.209 34.6081V-128.184L47.8398 -161.668Z" fill="#F6F6F6" stroke="#575D68" stroke-width="0.4" stroke-miterlimit="10"/>
<path d="M98.7971 30.0455L98.768 -63.1443L55.1924 -88.3203V4.92806L98.7971 30.0455Z" fill="#F6F6F6" stroke="#575D68" stroke-width="0.4" stroke-miterlimit="10"/>
<path d="M73.4355 -72.7402L92.2389 -61.9232L92.2415 6.18709L73.4355 -4.65857V-72.7402Z" fill="#F6F6F6" stroke="#575D68" stroke-width="0.4" stroke-miterlimit="10"/>
<path d="M74.3164 -71.0742V-4.07815L91.5222 5.7765V-16.9579L90.0468 -17.9127V-22.7324L91.5222 -21.9368V-29.4469L90.0649 -30.288V-36.6963L91.5222 -35.8486V-61.0961L74.3164 -71.0742Z" fill="#F6F6F6" stroke="#575D68" stroke-width="0.4" stroke-miterlimit="10"/>
<path d="M94.2041 -60.6973L98.7705 -58.044L98.7921 9.97901L94.2041 7.31735V-60.6973Z" fill="#F6F6F6" stroke="#575D68" stroke-width="0.4" stroke-miterlimit="10"/>
<path d="M95.085 -59.0293V7.84032L98.7914 9.98066L98.7676 -56.8937L95.085 -59.0293Z" fill="#F6F6F6" stroke="#575D68" stroke-width="0.4" stroke-miterlimit="10"/>
<path d="M81.2628 -0.0996094L63.8623 9.98059" stroke="#575D68" stroke-width="0.4" stroke-miterlimit="10"/>
<path d="M81.2628 -0.0996094L63.8623 9.98059" stroke="#575D68" stroke-width="0.4" stroke-miterlimit="10"/>
<path d="M72.5626 -5.17773L55.1621 4.90252" stroke="#575D68" stroke-width="0.4" stroke-miterlimit="10"/>
<path d="M68.2588 12.449L85.7227 2.42773" stroke="#575D68" stroke-width="0.4" stroke-miterlimit="10"/>
<path d="M90.0609 4.98242L72.666 15.0145" stroke="#575D68" stroke-width="0.4" stroke-miterlimit="10"/>
<path d="M94.3988 7.43359L77.0039 17.4656" stroke="#575D68" stroke-width="0.4" stroke-miterlimit="10"/>
<path d="M98.7592 9.97266L81.3643 20.0046" stroke="#575D68" stroke-width="0.4" stroke-miterlimit="10"/>
<path d="M98.7814 14.9883L85.7236 22.519" stroke="#575D68" stroke-width="0.4" stroke-miterlimit="10"/>
<path d="M98.7823 20.0234L90.0615 25.0529" stroke="#575D68" stroke-width="0.4" stroke-miterlimit="10"/>
<path d="M98.7811 25.0332L94.3965 27.5618" stroke="#575D68" stroke-width="0.4" stroke-miterlimit="10"/>
<path d="M59.5674 7.44702L77.019 -2.59375" stroke="#575D68" stroke-width="0.4" stroke-miterlimit="10"/>
<path d="M55.1914 4.92948L72.6187 -5.27143V-78.3867" fill="#F6F6F6"/>
<path d="M55.1914 4.92948L72.6187 -5.27143V-78.3867" stroke="#575D68" stroke-width="0.4" stroke-miterlimit="10"/>
<path d="M294.019 41.7832L376.79 -7.2943L376.817 -527.852L294.668 -482.313L294.019 41.7832Z" fill="#F6F6F6" stroke="#575D68" stroke-width="0.4" stroke-miterlimit="10"/>
<path d="M201.014 -144.281L201.143 -19.7721L255.062 11.2725L254.932 -113.237L201.014 -144.281Z" fill="#F6F6F6" stroke="#575D68" stroke-width="0.4" stroke-miterlimit="10"/>
<path d="M230.193 -5.6179L230.132 -65.2994L228.016 -66.5176L228.08 -4.26306L255.04 11.2595L255.036 8.89856L230.193 -5.6179Z" fill="#F6F6F6" stroke="#575D68" stroke-width="0.4" stroke-miterlimit="10"/>
<path d="M294.192 -97.7793L376.817 -145.082L534.896 -54.9995V92.1713L233.647 266.058V117.844L140.214 63.93L356.571 -60.9094L294.192 -97.7793Z" fill="#F6F6F6" stroke="#575D68" stroke-width="0.4" stroke-miterlimit="10"/>
<path d="M140.214 63.9414V212.205L233.647 266.069V117.855L140.214 63.9414Z" fill="#F6F6F6" stroke="#575D68" stroke-width="0.4" stroke-miterlimit="10"/>
<path d="M233.647 117.855L534.896 -54.9883" stroke="#575D68" stroke-width="0.4" stroke-miterlimit="10"/>
<path d="M103.972 93.918H102.303C101.935 93.918 101.637 94.2163 101.637 94.5843V122.447C101.637 122.815 101.935 123.113 102.303 123.113H103.972C104.34 123.113 104.638 122.815 104.638 122.447V94.5843C104.638 94.2163 104.34 93.918 103.972 93.918Z" fill="#F6F6F6" stroke="#575D68" stroke-width="0.4" stroke-miterlimit="10"/>
<path d="M115.3 62.5462C117.136 59.4433 117.77 55.7753 117.083 52.2364C116.395 48.6975 114.434 45.5333 111.57 43.3426C112.503 41.7625 113.001 39.9637 113.015 38.1288C113.028 36.2939 112.556 34.4881 111.646 32.8945C110.736 31.301 109.42 29.9764 107.833 29.0551C106.245 28.1337 104.442 27.6484 102.607 27.6484C100.771 27.6484 98.9682 28.1337 97.3808 29.055C95.7933 29.9763 94.4779 31.301 93.5678 32.8945C92.6577 34.4881 92.1854 36.2939 92.1987 38.1288C92.2121 39.9637 92.7106 41.7625 93.6438 43.3426C90.7797 45.5333 88.8184 48.6975 88.131 52.2364C87.4436 55.7753 88.0778 59.4433 89.9136 62.5462C86.3795 65.2072 83.7716 68.9114 82.4589 73.1351C81.1461 77.3588 81.1949 81.8883 82.5983 86.0828C84.0017 90.2773 86.6887 93.9245 90.2793 96.5088C93.8699 99.0931 98.1824 100.484 102.607 100.484C107.031 100.484 111.344 99.0931 114.934 96.5088C118.525 93.9245 121.212 90.2773 122.615 86.0828C124.019 81.8883 124.067 77.3588 122.755 73.1351C121.442 68.9114 118.834 65.2072 115.3 62.5462V62.5462Z" fill="#F6F6F6" stroke="#575D68" stroke-width="0.4" stroke-miterlimit="10"/>
<path d="M58.5353 122.992H56.8668C56.4986 122.992 56.2002 123.291 56.2002 123.659V151.521C56.2002 151.889 56.4986 152.187 56.8668 152.187H58.5353C58.9034 152.187 59.2019 151.889 59.2019 151.521V123.659C59.2019 123.291 58.9034 122.992 58.5353 122.992Z" fill="#F6F6F6" stroke="#575D68" stroke-width="0.4" stroke-miterlimit="10"/>
<path d="M69.8634 91.6204C71.6992 88.5175 72.3334 84.8494 71.646 81.3106C70.9586 77.7717 68.9973 74.6075 66.1332 72.4169C67.0664 70.8367 67.565 69.038 67.5783 67.2031C67.5917 65.3682 67.1193 63.5623 66.2093 61.9688C65.2992 60.3752 63.9837 59.0506 62.3962 58.1293C60.8088 57.208 59.0059 56.7227 57.1703 56.7227C55.3347 56.7227 53.5317 57.208 51.9443 58.1293C50.3568 59.0506 49.0413 60.3752 48.1312 61.9688C47.2212 63.5623 46.7488 65.3681 46.7622 67.203C46.7755 69.0379 47.2741 70.8367 48.2072 72.4168C45.3432 74.6074 43.3818 77.7717 42.6944 81.3106C42.007 84.8495 42.6413 88.5175 44.4771 91.6204C40.943 94.2813 38.3351 97.9856 37.0224 102.209C35.7096 106.433 35.7583 110.962 37.1617 115.157C38.5651 119.351 41.2522 122.999 44.8428 125.583C48.4334 128.167 52.7458 129.558 57.1702 129.558C61.5947 129.558 65.9071 128.167 69.4977 125.583C73.0883 122.999 75.7753 119.351 77.1787 115.157C78.5822 110.962 78.6309 106.433 77.3182 102.209C76.0054 97.9856 73.3975 94.2813 69.8634 91.6204V91.6204Z" fill="#F6F6F6" stroke="#575D68" stroke-width="0.4" stroke-miterlimit="10"/>
<path d="M187.669 218.373L190.913 220L191.279 219.716L191.425 200.943L187.905 199.033L187.539 199.318L187.669 218.373Z" fill="#F6F6F6" stroke="#575D68" stroke-width="0.4" stroke-miterlimit="10"/>
<path d="M187.669 218.371L190.913 219.998L191.059 201.226L187.539 199.355L187.669 218.371Z" fill="#F6F6F6" stroke="#575D68" stroke-width="0.4" stroke-miterlimit="10"/>
<path d="M186.717 202.885V214.732C186.717 215.044 186.802 215.351 186.963 215.619C187.124 215.886 187.356 216.105 187.632 216.251C187.908 216.398 188.219 216.466 188.531 216.449C188.843 216.431 189.145 216.33 189.403 216.154V216.154C189.527 216.07 189.628 215.957 189.699 215.824C189.769 215.692 189.805 215.545 189.805 215.395V214.828C189.805 214.754 189.785 214.682 189.747 214.62C189.709 214.557 189.654 214.506 189.589 214.472C189.523 214.439 189.45 214.424 189.377 214.429C189.304 214.434 189.233 214.459 189.173 214.502C189.087 214.563 188.985 214.6 188.88 214.607C188.774 214.615 188.668 214.593 188.574 214.544C188.48 214.496 188.401 214.422 188.345 214.331C188.29 214.241 188.261 214.137 188.261 214.031V203.924C188.261 203.729 188.312 203.537 188.408 203.368C188.505 203.199 188.644 203.058 188.811 202.959L189.06 202.811C189.207 202.725 189.328 202.601 189.412 202.453C189.497 202.306 189.541 202.138 189.541 201.968V201.968C189.541 201.798 189.497 201.63 189.412 201.482C189.327 201.334 189.205 201.21 189.058 201.124C188.911 201.037 188.744 200.991 188.574 200.988C188.403 200.986 188.235 201.029 188.086 201.111L187.605 201.378C187.336 201.527 187.112 201.745 186.955 202.01C186.799 202.276 186.717 202.578 186.717 202.885V202.885Z" fill="#F6F6F6" stroke="#575D68" stroke-width="0.4" stroke-miterlimit="10"/>
<path d="M153.272 154.104V217.003L192.399 239.418L191.98 175.697L153.272 154.104Z" fill="#F6F6F6" stroke="#575D68" stroke-width="0.4" stroke-miterlimit="10"/>
<path d="M154.55 153.33V216.23L192.39 238.026L191.954 173.404L154.55 153.33Z" fill="#F6F6F6" stroke="#575D68" stroke-width="0.4" stroke-miterlimit="10"/>
<path d="M202.486 266.296L202.472 177.45L218.089 168.379V257.389L202.486 266.296Z" fill="#F6F6F6" stroke="#575D68" stroke-width="0.4" stroke-miterlimit="10"/>
<path d="M124.661 132.747V221.555L140.214 212.205L140.147 123.537L124.661 132.747Z" fill="#F6F6F6" stroke="#575D68" stroke-width="0.4" stroke-miterlimit="10"/>
<path d="M124.661 132.747L140.147 123.537L218.089 168.379L202.471 177.45L124.661 132.747Z" fill="#F6F6F6" stroke="#575D68" stroke-width="0.4" stroke-miterlimit="10"/>
<path d="M124.661 221.555L134.571 227.208V148.71L193.581 181.734V261.161L202.486 266.297L202.471 177.451L124.661 132.748V221.555Z" fill="#F6F6F6" stroke="#575D68" stroke-width="0.4" stroke-miterlimit="10"/>
<path d="M134.57 227.207L150.171 217.944V157.439L134.57 148.709V227.207Z" fill="#F6F6F6" stroke="#575D68" stroke-width="0.4" stroke-miterlimit="10"/>
<path d="M168.958 225.989V167.953L171.375 169.306V227.373L168.958 225.989Z" fill="#F6F6F6" stroke="#575D68" stroke-width="0.4" stroke-miterlimit="10"/>
<path d="M172.584 169.983V226.562L171.376 227.374V169.307L172.584 169.983Z" fill="#F6F6F6" stroke="#575D68" stroke-width="0.4" stroke-miterlimit="10"/>
<path d="M257.857 117.433L257.989 243.157L310.017 213.299L309.886 87.5254L257.857 117.433Z" fill="#F6F6F6" stroke="#575D68" stroke-width="0.4" stroke-miterlimit="10"/>
<path d="M309.885 87.5254L307.446 88.9279L307.574 211.957L257.985 240.479L257.988 243.157L310.016 213.299L309.885 87.5254Z" fill="#F6F6F6" stroke="#575D68" stroke-width="0.4" stroke-miterlimit="10"/>
<path d="M309.951 150.773L307.548 149.195L290.503 159.045L290.504 161.898L309.951 150.773Z" fill="#F6F6F6" stroke="#575D68" stroke-width="0.4" stroke-miterlimit="10"/>
<path d="M285.747 227.226L283.275 225.932L283.315 102.799L285.747 101.4V227.226Z" fill="#F6F6F6" stroke="#575D68" stroke-width="0.4" stroke-miterlimit="10"/>
<path d="M309.95 150.773L290.503 161.899L290.478 98.6367L285.747 101.4V164.623L257.984 180.488V185.541L285.747 169.344V227.226L290.528 224.482L290.505 166.565L309.956 155.727L309.95 150.773Z" fill="#F6F6F6" stroke="#575D68" stroke-width="0.4" stroke-miterlimit="10"/>
<path d="M283.315 163.016L257.984 177.743V180.488L285.747 164.623L283.315 163.016Z" fill="#F6F6F6" stroke="#575D68" stroke-width="0.4" stroke-miterlimit="10"/>
<path d="M327.506 77.6626L327.637 203.387L379.665 173.529L379.534 47.7559L327.506 77.6626Z" fill="#F6F6F6" stroke="#575D68" stroke-width="0.4" stroke-miterlimit="10"/>
<path d="M379.534 47.7559L377.094 49.158L377.222 172.187L327.634 200.709L327.636 203.387L379.664 173.529L379.534 47.7559Z" fill="#F6F6F6" stroke="#575D68" stroke-width="0.4" stroke-miterlimit="10"/>
<path d="M379.6 111.004L360.153 122.129L360.128 58.8672L355.397 61.6303V124.854L327.635 140.719V145.772L355.397 129.574V187.456L360.178 184.713L360.155 126.795L379.606 115.957L379.6 111.004Z" fill="#F6F6F6" stroke="#575D68" stroke-width="0.4" stroke-miterlimit="10"/>
<path d="M352.965 123.246L327.635 137.973V140.718L355.397 124.854L352.965 123.246Z" fill="#F6F6F6" stroke="#575D68" stroke-width="0.4" stroke-miterlimit="10"/>
<path d="M146.178 60.4883L238.767 114.917" stroke="#575D68" stroke-width="0.4" stroke-miterlimit="10"/>
<path d="M178.385 41.9199L271.288 96.259" stroke="#575D68" stroke-width="0.4" stroke-miterlimit="10"/>
<path d="M210.593 23.3496L303.81 77.5987" stroke="#575D68" stroke-width="0.4" stroke-miterlimit="10"/>
<path d="M242.8 4.78125L336.33 58.9403" stroke="#575D68" stroke-width="0.4" stroke-miterlimit="10"/>
<path d="M275.007 -13.7871L368.851 40.282" stroke="#575D68" stroke-width="0.4" stroke-miterlimit="10"/>
<path d="M307.214 -32.3574L401.372 21.6216" stroke="#575D68" stroke-width="0.4" stroke-miterlimit="10"/>
<path d="M339.422 -50.9258L433.893 2.96332" stroke="#575D68" stroke-width="0.4" stroke-miterlimit="10"/>
<path d="M124.638 16.5586V35.012" stroke="#575D68" stroke-width="0.4" stroke-miterlimit="10"/>
<path d="M124.695 19.5762C126.879 19.5762 128.649 17.8063 128.649 15.6231C128.649 13.4398 126.879 11.6699 124.695 11.6699C122.511 11.6699 120.74 13.4398 120.74 15.6231C120.74 17.8063 122.511 19.5762 124.695 19.5762Z" fill="#F6F6F6" stroke="#575D68" stroke-width="0.4" stroke-miterlimit="10"/>
<path d="M124.437 35.9537C124.437 35.9537 121.947 34.9378 121.013 32.9117C120.509 31.9077 120.147 30.8383 119.938 29.7344C119.938 29.7344 122.67 30.9386 123.899 33.403C124.319 34.1841 124.505 35.0695 124.437 35.9537V35.9537Z" fill="#F6F6F6" stroke="#575D68" stroke-width="0.4" stroke-miterlimit="10"/>
<path d="M124.542 35.9542C124.542 35.9542 123.504 33.4748 124.28 31.383C124.635 30.3171 125.137 29.306 125.772 28.3789C125.772 28.3789 126.847 31.1627 125.969 33.7726C125.713 34.6215 125.217 35.3787 124.542 35.9542V35.9542Z" fill="#F6F6F6" stroke="#575D68" stroke-width="0.4" stroke-miterlimit="10"/>
<path d="M124.639 35.7491C124.639 35.7491 125.479 33.1959 127.436 32.1232C128.402 31.5503 129.444 31.115 130.532 30.8301C130.532 30.8301 129.52 33.6376 127.147 35.0349C126.396 35.5082 125.526 35.7562 124.639 35.7491Z" fill="#F6F6F6" stroke="#575D68" stroke-width="0.4" stroke-miterlimit="10"/>
<path d="M139.719 8.36914V26.8225" stroke="#575D68" stroke-width="0.4" stroke-miterlimit="10"/>
<path d="M139.776 11.3869C141.96 11.3869 143.73 9.61698 143.73 7.43369C143.73 5.25039 141.96 3.48047 139.776 3.48047C137.592 3.48047 135.821 5.25039 135.821 7.43369C135.821 9.61698 137.592 11.3869 139.776 11.3869Z" fill="#F6F6F6" stroke="#575D68" stroke-width="0.4" stroke-miterlimit="10"/>
<path d="M139.517 27.7642C139.517 27.7642 137.027 26.7484 136.093 24.7223C135.589 23.7183 135.227 22.6489 135.019 21.5449C135.019 21.5449 137.75 22.7492 138.979 25.2136C139.399 25.9947 139.586 26.88 139.517 27.7642Z" fill="#F6F6F6" stroke="#575D68" stroke-width="0.4" stroke-miterlimit="10"/>
<path d="M139.622 27.7649C139.622 27.7649 138.584 25.2854 139.36 23.1936C139.715 22.1277 140.218 21.1166 140.852 20.1895C140.852 20.1895 141.928 22.9733 141.049 25.5832C140.793 26.4321 140.297 27.1894 139.622 27.7649Z" fill="#F6F6F6" stroke="#575D68" stroke-width="0.4" stroke-miterlimit="10"/>
<path d="M139.719 27.5597C139.719 27.5597 140.559 25.0065 142.516 23.9338C143.483 23.3608 144.525 22.9256 145.612 22.6406C145.612 22.6406 144.6 25.4482 142.227 26.8454C141.476 27.3188 140.606 27.5667 139.719 27.5597V27.5597Z" fill="#F6F6F6" stroke="#575D68" stroke-width="0.4" stroke-miterlimit="10"/>
<path d="M155.273 92.0297L212.964 125.331C216.022 127.272 216.629 128.935 216.629 132.333L216.627 154C216.627 155.3 216.246 156.261 215.625 156.778C214.824 157.315 213.975 157.777 213.089 158.159L155.271 123.468C152.014 121.632 151.606 119.165 151.606 116.467L150.357 93.5065C150.917 92.6117 152.249 91.9963 153.224 91.6811C153.571 91.591 153.933 91.5754 154.286 91.6355C154.639 91.6956 154.976 91.8299 155.273 92.0297V92.0297Z" fill="#F6F6F6" stroke="#575D68" stroke-width="0.4" stroke-miterlimit="10"/>
<path style="mix-blend-mode:multiply" d="M155.273 92.0297L212.964 125.331C216.022 127.272 216.629 128.935 216.629 132.333L216.627 154C216.627 155.3 216.246 156.261 215.625 156.778C214.824 157.315 213.975 157.777 213.089 158.159L155.271 123.468C152.014 121.632 151.606 119.165 151.606 116.467L150.357 93.5065C150.917 92.6117 152.249 91.9963 153.224 91.6811C153.571 91.591 153.933 91.5754 154.286 91.6355C154.639 91.6956 154.976 91.8299 155.273 92.0297V92.0297Z" fill="url(#paint0_linear_480_8247)"/>
<path style="mix-blend-mode:multiply" d="M155.273 92.0297L212.964 125.331C216.022 127.272 216.629 128.935 216.629 132.333L216.627 154C216.627 155.3 216.246 156.261 215.625 156.778C214.824 157.315 213.975 157.777 213.089 158.159L155.271 123.468C152.014 121.632 151.606 119.165 151.606 116.467L150.357 93.5065C150.917 92.6117 152.249 91.9963 153.224 91.6811C153.571 91.591 153.933 91.5754 154.286 91.6355C154.639 91.6956 154.976 91.8299 155.273 92.0297V92.0297Z" fill="url(#paint1_linear_480_8247)"/>
<path d="M153.431 93.0512L211.121 126.353C214.179 128.293 214.787 129.957 214.787 133.354L214.785 155.021C214.785 157.72 213.144 158.96 211.119 157.791L153.429 124.49C150.172 122.653 149.763 120.186 149.764 117.488L149.765 95.821C149.765 93.1227 151.407 91.8826 153.431 93.0512Z" fill="#F6F6F6" stroke="#575D68" stroke-width="0.4" stroke-miterlimit="10"/>
<path style="mix-blend-mode:multiply" d="M153.431 93.0512L211.121 126.353C214.179 128.293 214.787 129.957 214.787 133.354L214.785 155.021C214.785 157.72 213.144 158.96 211.119 157.791L153.429 124.49C150.172 122.653 149.763 120.186 149.764 117.488L149.765 95.821C149.765 93.1227 151.407 91.8826 153.431 93.0512Z" fill="url(#paint2_linear_480_8247)"/>
<g style="mix-blend-mode:multiply">
<path fill-rule="evenodd" clip-rule="evenodd" d="M172.772 121.888C172.766 121.86 172.753 121.835 172.735 121.813C172.721 121.795 172.702 121.782 172.68 121.777C172.246 121.713 171.827 121.567 171.448 121.345C170.56 120.833 170.137 120.268 170.137 118.448C170.137 116.992 170.267 116.382 171.448 117.064C171.86 117.309 172.241 117.603 172.584 117.938C172.616 117.969 172.651 117.969 172.666 117.938C172.775 117.679 172.934 117.25 173.052 116.934V116.934C173.068 116.89 173.083 116.848 173.098 116.81C173.107 116.785 173.107 116.757 173.099 116.732C173.091 116.702 173.076 116.675 173.055 116.653C172.547 116.139 171.976 115.692 171.356 115.321C169.495 114.247 168.666 114.941 168.666 117.572C168.665 120.24 169.495 121.909 171.356 122.983C171.921 123.317 172.54 123.55 173.184 123.672C173.219 123.672 173.238 123.63 173.225 123.575L172.772 121.888ZM158.379 108.12C158.379 108.07 158.41 108.047 158.447 108.069L162.269 110.275C162.293 110.292 162.313 110.317 162.324 110.346C162.335 110.374 162.337 110.406 162.33 110.436L161.857 111.684C161.844 111.717 161.816 111.719 161.788 111.7L161.782 111.696L159.81 110.558L159.81 116.029C159.81 116.079 159.78 116.102 159.743 116.08L158.446 115.332C158.426 115.317 158.409 115.298 158.397 115.275C158.386 115.253 158.379 115.228 158.379 115.203L158.379 108.12ZM162.65 114.099C162.65 111.362 163.359 110.705 165.178 111.755C167.012 112.813 167.727 114.292 167.726 117.029C167.726 119.808 167.011 120.475 165.177 119.417C163.358 118.367 162.65 116.877 162.65 114.099V114.099ZM164.091 114.958C164.09 116.887 164.349 117.344 165.177 117.822C166.022 118.31 166.286 118.154 166.286 116.225C166.286 114.17 165.999 113.822 165.178 113.348C164.373 112.883 164.091 112.903 164.091 114.958V114.958Z" fill="#8C8C8C"/>
<path fill-rule="evenodd" clip-rule="evenodd" d="M172.772 121.888C172.766 121.86 172.753 121.835 172.735 121.813C172.721 121.795 172.702 121.782 172.68 121.777C172.246 121.713 171.827 121.567 171.448 121.345C170.56 120.833 170.137 120.268 170.137 118.448C170.137 116.992 170.267 116.382 171.448 117.064C171.86 117.309 172.241 117.603 172.584 117.938C172.616 117.969 172.651 117.969 172.666 117.938C172.775 117.679 172.934 117.25 173.052 116.934V116.934C173.068 116.89 173.083 116.848 173.098 116.81C173.107 116.785 173.107 116.757 173.099 116.732C173.091 116.702 173.076 116.675 173.055 116.653C172.547 116.139 171.976 115.692 171.356 115.321C169.495 114.247 168.666 114.941 168.666 117.572C168.665 120.24 169.495 121.909 171.356 122.983C171.921 123.317 172.54 123.55 173.184 123.672C173.219 123.672 173.238 123.63 173.225 123.575L172.772 121.888ZM158.379 108.12C158.379 108.07 158.41 108.047 158.447 108.069L162.269 110.275C162.293 110.292 162.313 110.317 162.324 110.346C162.335 110.374 162.337 110.406 162.33 110.436L161.857 111.684C161.844 111.717 161.816 111.719 161.788 111.7L161.782 111.696L159.81 110.558L159.81 116.029C159.81 116.079 159.78 116.102 159.743 116.08L158.446 115.332C158.426 115.317 158.409 115.298 158.397 115.275C158.386 115.253 158.379 115.228 158.379 115.203L158.379 108.12ZM162.65 114.099C162.65 111.362 163.359 110.705 165.178 111.755C167.012 112.813 167.727 114.292 167.726 117.029C167.726 119.808 167.011 120.475 165.177 119.417C163.358 118.367 162.65 116.877 162.65 114.099V114.099ZM164.091 114.958C164.09 116.887 164.349 117.344 165.177 117.822C166.022 118.31 166.286 118.154 166.286 116.225C166.286 114.17 165.999 113.822 165.178 113.348C164.373 112.883 164.091 112.903 164.091 114.958V114.958Z" stroke="#575D68" stroke-width="0.4" stroke-miterlimit="10"/>
</g>
<path fill-rule="evenodd" clip-rule="evenodd" d="M183.662 128.174C183.655 128.146 183.643 128.121 183.625 128.099C183.611 128.081 183.592 128.068 183.57 128.063C183.135 127.999 182.717 127.853 182.338 127.631C181.45 127.119 181.026 126.554 181.026 124.734C181.026 123.279 181.156 122.668 182.338 123.35C182.75 123.595 183.131 123.889 183.473 124.224C183.506 124.255 183.541 124.256 183.555 124.225C183.665 123.966 183.824 123.536 183.941 123.22C183.958 123.176 183.973 123.135 183.987 123.096C183.997 123.071 183.997 123.043 183.989 123.018C183.981 122.988 183.966 122.961 183.945 122.939C183.436 122.425 182.866 121.978 182.246 121.607C180.385 120.533 179.556 121.227 179.555 123.858C179.555 126.526 180.384 128.195 182.245 129.269C182.81 129.603 183.429 129.836 184.074 129.958C184.109 129.958 184.128 129.916 184.114 129.861L183.662 128.174ZM173.849 116.959C173.802 116.932 173.769 116.975 173.785 117.043L175.754 125.324C175.476 125.948 175.167 126.594 174.814 127.31C174.806 127.341 174.807 127.374 174.817 127.404C174.828 127.433 174.848 127.459 174.874 127.478L176.275 128.286C176.28 128.29 176.285 128.293 176.291 128.294C176.297 128.295 176.303 128.295 176.309 128.294C176.315 128.292 176.32 128.29 176.325 128.286C176.329 128.282 176.333 128.277 176.335 128.271C177.529 125.659 178.481 122.942 179.178 120.156C179.183 120.126 179.18 120.096 179.169 120.068C179.158 120.04 179.139 120.017 179.114 119.999L177.813 119.248C177.807 119.243 177.801 119.241 177.793 119.24C177.786 119.239 177.779 119.24 177.772 119.243C177.765 119.246 177.76 119.251 177.756 119.257C177.751 119.262 177.749 119.269 177.748 119.277C177.426 120.665 177.025 122.033 176.547 123.375L175.224 117.812C175.216 117.774 175.194 117.739 175.161 117.717L173.849 116.959ZM184.796 130.542L186.127 131.311C186.132 131.315 186.139 131.318 186.146 131.319C186.152 131.32 186.159 131.319 186.166 131.316C186.172 131.314 186.178 131.31 186.182 131.304C186.187 131.299 186.189 131.293 186.19 131.286C186.419 130.431 186.6 129.564 186.731 128.689C186.864 127.85 186.944 127.029 186.992 126.249L188.293 127L188.293 132.47C188.293 132.496 188.3 132.521 188.311 132.543C188.323 132.566 188.34 132.585 188.361 132.6L189.657 133.348C189.694 133.37 189.724 133.347 189.724 133.297L189.725 126.214C189.724 126.189 189.718 126.164 189.706 126.141C189.695 126.119 189.678 126.1 189.657 126.085L185.701 123.801C185.665 123.78 185.635 123.801 185.634 123.849C185.598 124.913 185.511 126.079 185.347 127.303C185.2 128.342 184.994 129.373 184.731 130.389C184.727 130.418 184.731 130.448 184.742 130.475C184.754 130.502 184.772 130.525 184.796 130.542V130.542ZM196.858 130.242C196.821 130.22 196.791 130.243 196.791 130.293L196.79 137.376C196.791 137.401 196.797 137.426 196.809 137.448C196.82 137.471 196.837 137.49 196.858 137.505L198.154 138.253C198.191 138.275 198.221 138.252 198.221 138.202L198.222 132.731L200.193 133.869L200.2 133.873C200.227 133.892 200.255 133.89 200.268 133.857L200.741 132.609C200.748 132.579 200.746 132.547 200.735 132.519C200.724 132.49 200.705 132.465 200.68 132.448L196.858 130.242ZM190.538 126.714C190.522 126.646 190.555 126.603 190.602 126.63L191.914 127.387C191.947 127.41 191.969 127.444 191.977 127.483L193.3 133.046C193.778 131.704 194.179 130.335 194.501 128.947C194.502 128.94 194.504 128.933 194.509 128.927C194.513 128.921 194.519 128.917 194.525 128.914C194.532 128.911 194.539 128.91 194.546 128.91C194.554 128.911 194.56 128.914 194.566 128.918L195.867 129.67C195.892 129.687 195.911 129.711 195.922 129.739C195.933 129.766 195.936 129.797 195.931 129.826C195.234 132.613 194.282 135.329 193.088 137.942C193.086 137.947 193.082 137.952 193.078 137.956C193.073 137.96 193.068 137.963 193.062 137.964C193.056 137.966 193.05 137.966 193.044 137.965C193.038 137.963 193.033 137.961 193.028 137.957L191.627 137.148C191.601 137.13 191.581 137.104 191.57 137.074C191.56 137.044 191.559 137.012 191.567 136.981C191.92 136.265 192.229 135.618 192.507 134.995L190.538 126.714ZM204.81 134.832L206.106 135.58C206.126 135.594 206.143 135.613 206.155 135.636C206.166 135.658 206.172 135.683 206.172 135.708V135.719L206.171 142.376C206.171 142.415 206.154 142.441 206.126 142.438C205.237 142.336 204.379 142.051 203.606 141.6C202.053 140.703 201.424 139.429 201.394 137.085C201.392 137.079 201.393 132.96 201.393 132.96V132.949C201.393 132.899 201.422 132.876 201.46 132.898L202.755 133.646C202.776 133.66 202.793 133.68 202.805 133.702C202.816 133.725 202.823 133.75 202.823 133.775L202.823 137.87C202.852 139.124 203.08 139.552 203.865 140.005C204.137 140.169 204.433 140.288 204.743 140.356L204.743 134.883C204.743 134.833 204.773 134.81 204.81 134.832V134.832Z" fill="#F6F6F6" stroke="#575D68" stroke-width="0.4" stroke-miterlimit="10"/>
</g>
</g>
<path d="M69.5 263C101.256 263 127 237.256 127 205.5C127 173.744 101.256 148 69.5 148C37.7436 148 12 173.744 12 205.5C12 237.256 37.7436 263 69.5 263Z" fill="#FF4F12"/>
<mask id="mask0_480_8247" style="mask-type:alpha" maskUnits="userSpaceOnUse" x="12" y="148" width="115" height="115">
<path d="M69.5 263C101.256 263 127 237.256 127 205.5C127 173.744 101.256 148 69.5 148C37.7436 148 12 173.744 12 205.5C12 237.256 37.7436 263 69.5 263Z" fill="#FF4F12"/>
</mask>
<g mask="url(#mask0_480_8247)">
<path d="M82.1717 179.54L89.3601 192.699V201.105L76.8109 193.856L76.75 176.434L82.1717 179.54Z" fill="#F6F6F6" stroke="#575D68" stroke-width="0.4" stroke-miterlimit="10"/>
<path d="M89.4206 251.18L49.641 228.336L49.5801 160.777L82.1713 179.54V188.556L89.3597 192.698L89.4206 251.18Z" fill="#F6F6F6" stroke="#575D68" stroke-width="0.4" stroke-miterlimit="10"/>
<path d="M59.5705 186.606L54.0879 183.5V174.91L59.5096 178.078L59.5705 186.606Z" fill="#DDDEDF"/>
<path d="M84.851 201.167L62.1895 188.13V179.602L84.851 192.638V201.167Z" fill="#DDDEDF"/>
<path d="M84.8516 209.025L54.1488 191.297L54.0879 187.033L84.8516 204.76V209.025Z" fill="#DDDEDF"/>
<path d="M84.8512 218.284L54.1484 200.618V196.354L84.8512 214.02V218.284Z" fill="#DDDEDF"/>
<path d="M84.9121 228.702L54.1484 211.036V206.771L84.9121 224.438V228.702Z" fill="#DDDEDF"/>
<path d="M84.9121 238.997L54.1484 221.331V217.066L84.9121 234.733V238.997Z" fill="#DDDEDF"/>
<path d="M67.8094 223.776C66.9565 223.289 66.0427 222.497 65.1899 221.4C63.0578 218.781 61.4739 216.588 59.4636 213.725C57.8188 211.349 56.9659 208.851 56.8441 206.171C56.6613 202.881 56.6613 200.079 56.8441 196.972C56.9659 194.413 57.8188 192.951 59.4636 192.464C61.4739 191.855 63.0578 191.55 65.1899 191.368C66.9565 191.246 68.6622 192.22 70.4289 194.413C72.561 197.033 74.1449 199.226 76.1552 202.089C77.8 204.465 78.6528 206.963 78.7747 209.643C78.9574 212.933 78.9574 215.735 78.7747 218.842C78.6528 221.4 77.8 222.862 76.1552 223.35C74.1449 223.959 72.561 224.263 70.4289 224.446C69.576 224.507 68.7231 224.263 67.8094 223.776ZM57.8797 197.642C57.7579 200.688 57.7579 203.429 57.8797 206.658C58.0015 208.912 58.6716 210.861 60.0728 212.872C62.0221 215.735 63.606 217.806 65.6772 220.426C67.1393 222.253 68.5404 223.045 70.0024 222.923C72.0736 222.74 73.6575 222.436 75.6069 221.827C76.9471 221.4 77.6781 220.243 77.739 218.111C77.8609 215.065 77.8609 212.323 77.739 209.095C77.6172 206.841 76.9471 204.891 75.546 202.881C73.5966 200.018 72.0127 197.947 69.9415 195.327C68.4795 193.5 67.0784 192.708 65.6163 192.83C63.5451 193.012 61.9612 193.317 60.0118 193.926C58.6716 194.353 58.0015 195.51 57.8797 197.642Z" fill="#FF4F12"/>
<path d="M57.8785 197.641C57.7567 200.687 57.7567 203.428 57.8785 206.657C58.0003 208.911 58.6704 210.86 60.0715 212.871C62.0209 215.734 63.6048 217.805 65.676 220.425C67.1381 222.252 68.5392 223.044 70.0012 222.922C72.0724 222.739 73.6563 222.435 75.6057 221.826C76.9459 221.399 77.6769 220.242 77.7378 218.11C77.8597 215.064 77.8597 212.322 77.7378 209.094C77.616 206.84 76.9459 204.89 75.5448 202.88C73.5954 200.017 72.0115 197.946 69.9403 195.326C68.4783 193.499 67.0771 192.707 65.6151 192.829C63.5439 193.011 61.96 193.316 60.0106 193.925C58.6704 194.352 58.0003 195.509 57.8785 197.641Z" fill="#F6F6F6"/>
<path d="M67.124 215.176L62.7988 202.932L64.3827 203.784L67.1849 211.643L71.9366 203.967L73.5813 204.881L67.124 215.176Z" fill="#FF4F12"/>
</g>
<path d="M69.5 263C101.256 263 127 237.256 127 205.5C127 173.744 101.256 148 69.5 148C37.7436 148 12 173.744 12 205.5C12 237.256 37.7436 263 69.5 263Z" stroke="#FF4F12" stroke-miterlimit="10"/>
<defs>
<linearGradient id="paint0_linear_480_8247" x1="219.429" y1="160.764" x2="130.551" y2="69.2139" gradientUnits="userSpaceOnUse">
<stop offset="0.08762" stop-color="#F8D5C8"/>
<stop offset="0.30899" stop-color="#F8D5C8" stop-opacity="0.99047"/>
<stop offset="0.42966" stop-color="#F8D6CA" stop-opacity="0.95829"/>
<stop offset="0.52611" stop-color="#F8D8CC" stop-opacity="0.90309"/>
<stop offset="0.60977" stop-color="#F8DBD0" stop-opacity="0.82473"/>
<stop offset="0.68512" stop-color="#F7DED5" stop-opacity="0.72305"/>
<stop offset="0.7545" stop-color="#F7E2DA" stop-opacity="0.59793"/>
<stop offset="0.81933" stop-color="#F7E7E1" stop-opacity="0.44914"/>
<stop offset="0.88057" stop-color="#F7EDE9" stop-opacity="0.27637"/>
<stop offset="0.93688" stop-color="#F6F3F2" stop-opacity="0.08665"/>
<stop offset="0.95987" stop-color="#F6F6F6" stop-opacity="0"/>
</linearGradient>
<linearGradient id="paint1_linear_480_8247" x1="219.429" y1="160.764" x2="130.551" y2="69.2139" gradientUnits="userSpaceOnUse">
<stop offset="0.08762" stop-color="#F8D5C8"/>
<stop offset="0.30899" stop-color="#F8D5C8" stop-opacity="0.99047"/>
<stop offset="0.42966" stop-color="#F8D6CA" stop-opacity="0.95829"/>
<stop offset="0.52611" stop-color="#F8D8CC" stop-opacity="0.90309"/>
<stop offset="0.60977" stop-color="#F8DBD0" stop-opacity="0.82473"/>
<stop offset="0.68512" stop-color="#F7DED5" stop-opacity="0.72305"/>
<stop offset="0.7545" stop-color="#F7E2DA" stop-opacity="0.59793"/>
<stop offset="0.81933" stop-color="#F7E7E1" stop-opacity="0.44914"/>
<stop offset="0.88057" stop-color="#F7EDE9" stop-opacity="0.27637"/>
<stop offset="0.93688" stop-color="#F6F3F2" stop-opacity="0.08665"/>
<stop offset="0.95987" stop-color="#F6F6F6" stop-opacity="0"/>
</linearGradient>
<linearGradient id="paint2_linear_480_8247" x1="219.418" y1="166.033" x2="141.981" y2="81.3312" gradientUnits="userSpaceOnUse">
<stop offset="0.08762" stop-color="#F8D5C8"/>
<stop offset="0.41138" stop-color="#F8D5C8" stop-opacity="0.9924"/>
<stop offset="0.52936" stop-color="#F8D6CA" stop-opacity="0.96491"/>
<stop offset="0.61369" stop-color="#F8D8CC" stop-opacity="0.91707"/>
<stop offset="0.68202" stop-color="#F8DACF" stop-opacity="0.84868"/>
<stop offset="0.74059" stop-color="#F8DDD3" stop-opacity="0.75966"/>
<stop offset="0.79252" stop-color="#F7E1D8" stop-opacity="0.64967"/>
<stop offset="0.83953" stop-color="#F7E5DE" stop-opacity="0.51858"/>
<stop offset="0.88276" stop-color="#F7EAE5" stop-opacity="0.36601"/>
<stop offset="0.92139" stop-color="#F6EFED" stop-opacity="0.19922"/>
<stop offset="0.95725" stop-color="#F6F6F5" stop-opacity="0.0147"/>
<stop offset="0.95987" stop-color="#F6F6F6" stop-opacity="0"/>
</linearGradient>
<clipPath id="clip0_480_8247">
<rect width="345" height="480" rx="6" fill="white"/>
</clipPath>
<clipPath id="clip1_480_8247">
<rect width="872" height="1192" fill="white" transform="translate(-164 -712)"/>
</clipPath>
</defs>
</svg>
