<svg width="266" height="132" viewBox="0 0 266 132" fill="none" xmlns="http://www.w3.org/2000/svg">
<path d="M9.86768 83.9687L45.1658 42.819L87.8277 68.1173L132.331 23.1247L162.746 117.753L255.434 12.4771" stroke="#575D68" stroke-width="0.5" stroke-miterlimit="10"/>
<path d="M265.359 17.9211C264.879 21.924 263.278 24.6459 261.357 26.087C261.197 26.167 260.957 26.4072 260.957 26.4072L257.195 28.4087C257.195 28.4087 254.073 26.087 253.033 25.1263C249.271 21.6838 247.51 15.039 248.39 9.67512C248.71 7.83379 248.63 4.23119 248.63 4.23119L253.673 1.42916C253.673 1.42916 253.833 1.34911 253.913 1.34911C254.713 1.02888 255.594 0.948817 256.554 1.02888C261.757 1.66934 266.479 9.27483 265.359 17.9211Z" fill="#F8D5C8" stroke="#575D68" stroke-width="0.5" stroke-miterlimit="10"/>
<path d="M261.197 20.3229C260.076 29.2893 253.753 31.9312 248.79 27.448C245.028 24.0055 243.268 17.3607 244.148 11.9968C245.028 6.71303 248.31 2.87025 252.312 3.3506C257.595 4.07112 262.317 11.5966 261.197 20.3229Z" fill="#F8D5C8" stroke="#575D68" stroke-width="0.5" stroke-miterlimit="10"/>
<path d="M175.473 119.274C174.992 123.277 173.392 125.999 171.471 127.44C171.311 127.52 171.07 127.76 171.07 127.76L167.308 129.762C167.308 129.762 164.187 127.44 163.146 126.479C159.384 123.037 157.623 116.392 158.504 111.028C158.824 109.187 158.744 105.584 158.744 105.584L163.787 102.782C163.787 102.782 163.947 102.702 164.027 102.702C164.827 102.382 165.708 102.302 166.668 102.382C171.871 103.022 176.593 110.628 175.473 119.274Z" fill="#F8D5C8" stroke="#575D68" stroke-width="0.5" stroke-miterlimit="10"/>
<path d="M171.311 121.676C170.19 130.642 163.867 133.284 158.904 128.801C155.142 125.359 153.381 118.714 154.262 113.35C155.142 108.066 158.424 104.223 162.426 104.704C167.709 105.424 172.351 112.95 171.311 121.676Z" fill="#F8D5C8" stroke="#575D68" stroke-width="0.5" stroke-miterlimit="10"/>
<path d="M142.896 25.2062C142.416 29.2091 140.815 31.9311 138.894 33.3721C138.734 33.4522 138.494 33.6924 138.494 33.6924L134.732 35.6938C134.732 35.6938 131.61 33.3721 130.57 32.4114C126.808 28.969 125.047 22.3242 125.927 16.9603C126.247 15.1189 126.167 11.5163 126.167 11.5163L131.21 8.71432C131.21 8.71432 131.37 8.63426 131.45 8.63426C132.251 8.31403 133.131 8.23397 134.091 8.31403C139.294 8.95449 144.017 16.56 142.896 25.2062Z" fill="#F8D5C8" stroke="#575D68" stroke-width="0.5" stroke-miterlimit="10"/>
<path d="M138.734 27.608C137.613 36.5745 131.29 39.2164 126.327 34.7332C122.566 31.2907 120.805 24.6459 121.685 19.282C122.566 13.9982 125.847 10.1554 129.849 10.6358C135.132 11.3563 139.854 18.8817 138.734 27.608Z" fill="#F8D5C8" stroke="#575D68" stroke-width="0.5" stroke-miterlimit="10"/>
<path d="M98.8735 68.0373C98.3933 72.0402 96.7925 74.7622 94.8715 76.2032C94.7114 76.2833 94.4713 76.5234 94.4713 76.5234L90.7093 78.5249C90.7093 78.5249 87.5877 76.2032 86.5472 75.2425C82.7853 71.8 81.0244 65.1552 81.9048 59.7913C82.225 57.95 82.1449 54.3474 82.1449 54.3474L87.1876 51.5454C87.1876 51.5454 87.3476 51.4653 87.4277 51.4653C88.2281 51.1451 89.1085 51.065 90.069 51.1451C95.2717 51.7855 99.9941 59.311 98.8735 68.0373Z" fill="#F8D5C8" stroke="#575D68" stroke-width="0.5" stroke-miterlimit="10"/>
<path d="M94.7114 70.359C93.5908 79.3255 87.2675 81.9674 82.305 77.4841C78.5431 74.0417 76.7822 67.3969 77.6626 62.033C78.5431 56.7492 81.8248 52.9064 85.8268 53.3867C91.1095 54.1072 95.7519 61.7127 94.7114 70.359Z" fill="#F8D5C8" stroke="#575D68" stroke-width="0.5" stroke-miterlimit="10"/>
<path d="M57.1719 44.9006C56.6916 48.9035 55.0908 51.6254 53.1698 53.0665C53.0097 53.1465 52.7696 53.3867 52.7696 53.3867L49.0077 55.3882C49.0077 55.3882 45.8861 53.0665 44.8455 52.1058C41.0836 48.6633 39.3227 42.0185 40.2032 36.6546C40.5233 34.8133 40.4433 31.2107 40.4433 31.2107L45.4858 28.4087C45.4858 28.4087 45.6459 28.3286 45.726 28.3286C46.5264 28.0084 47.4069 27.9283 48.3674 28.0084C53.57 28.6488 58.2925 36.1743 57.1719 44.9006Z" fill="#F8D5C8" stroke="#575D68" stroke-width="0.5" stroke-miterlimit="10"/>
<path d="M53.0097 47.2223C51.8891 56.1888 45.5659 58.8307 40.6034 54.3474C36.8414 50.9049 35.0805 44.2601 35.961 38.8963C36.8414 33.6124 40.1231 29.7697 44.1252 30.25C49.4079 30.9705 54.1303 38.496 53.0097 47.2223Z" fill="#F8D5C8" stroke="#575D68" stroke-width="0.5" stroke-miterlimit="10"/>
<path d="M22.4341 85.4899C21.9538 89.4928 20.353 92.2148 18.432 93.6558C18.2719 93.7359 18.0318 93.9761 18.0318 93.9761L14.2699 95.9775C14.2699 95.9775 11.1483 93.6558 10.1078 92.6951C6.34582 89.2527 4.58491 82.6078 5.46536 77.244C5.78552 75.4026 5.70549 71.8 5.70549 71.8L10.7481 68.998C10.7481 68.998 10.9082 68.918 10.9882 68.918C11.7886 68.5977 12.6691 68.5177 13.6296 68.5977C18.8322 69.2382 23.5546 76.7636 22.4341 85.4899Z" fill="#F8D5C8" stroke="#575D68" stroke-width="0.5" stroke-miterlimit="10"/>
<path d="M18.2719 87.8116C17.1513 96.7781 10.8281 99.42 5.86554 94.9368C2.10361 91.4943 0.34272 84.8495 1.22317 79.4856C2.10362 74.2018 5.38531 70.359 9.38737 70.8394C14.6701 71.5599 19.3124 79.1654 18.2719 87.8116Z" fill="#F8D5C8" stroke="#575D68" stroke-width="0.5" stroke-miterlimit="10"/>
</svg>
