<svg width="105" height="126" viewBox="0 0 105 126" fill="none" xmlns="http://www.w3.org/2000/svg">
<path d="M66.8367 62.5237C65.6081 71.5048 70.664 79.972 78.6461 83.2913L83.6746 76.8503C77.8471 75.6371 73.8279 70.072 74.6872 64.028C75.5388 57.8004 81.2413 53.4664 87.4388 54.353L87.4979 54.0199L84.2491 45.9254C75.4713 46.6991 68.0781 53.4135 66.8367 62.5237Z" fill="#E9DDF7"/>
<path d="M44.4529 58.813C42.0263 76.2041 50.439 92.7249 64.5146 101.384L72.3361 91.3991C61.5951 85.5187 55.1064 73.429 56.848 60.5863C58.5896 47.7436 68.1564 37.9687 80.0541 35.3303L75.3314 23.5046C59.4474 27.8382 46.8383 41.3132 44.4529 58.813Z" fill="#E9DDF7"/>
<path d="M20.1557 55.265C16.5212 81.6915 28.6583 106.748 49.3414 120.801L57.1629 110.816C39.8684 99.5218 29.6552 78.896 32.6793 57.0518C35.6289 35.1737 51.1056 18.1891 70.8345 12.2759L66.1117 0.450186C42.3427 8.07901 23.8031 28.7093 20.1557 55.265Z" fill="#E9DDF7"/>
</svg>
