<svg width="345" height="327" viewBox="0 0 345 327" fill="none" xmlns="http://www.w3.org/2000/svg">
<path d="M51.4661 166.57V181.827L77.1408 167.216V151.758L51.4661 166.57Z" fill="#F6F6F6" stroke="#575D68" stroke-width="0.5" stroke-miterlimit="10"/>
<path d="M24.9998 97.812V113.069L50.6745 98.4575V83L24.9998 97.812Z" fill="#F6F6F6" stroke="#575D68" stroke-width="0.5" stroke-miterlimit="10"/>
<path d="M39.0583 200.605V215.861L64.7331 201.25V185.792L39.0583 200.605Z" fill="#F6F6F6" stroke="#575D68" stroke-width="0.5" stroke-miterlimit="10"/>
<path d="M311.408 33.812V49.0688L337.083 34.4575V19L311.408 33.812Z" fill="#F6F6F6" stroke="#575D68" stroke-width="0.5" stroke-miterlimit="10"/>
<path d="M299 67.8464V83.1033L324.675 68.4919V53.0344L299 67.8464Z" fill="#F6F6F6" stroke="#575D68" stroke-width="0.5" stroke-miterlimit="10"/>
<path d="M262.408 247.812V263.069L288.083 248.457V233L262.408 247.812Z" fill="#F6F6F6" stroke="#575D68" stroke-width="0.5" stroke-miterlimit="10"/>
<path d="M250 281.846V297.103L275.675 282.492V267.034L250 281.846Z" fill="#F6F6F6" stroke="#575D68" stroke-width="0.5" stroke-miterlimit="10"/>
<path d="M288 141.812V157.069L313.675 142.457V127L288 141.812Z" fill="#F6F6F6" stroke="#575D68" stroke-width="0.5" stroke-miterlimit="10"/>
<path d="M288 141.812V157.069L313.675 142.457V127L288 141.812Z" fill="#F6F6F6" stroke="#575D68" stroke-width="0.5" stroke-miterlimit="10"/>
<path d="M312 156.846V172.103L337.675 157.492V142.034L312 156.846Z" fill="#F6F6F6" stroke="#575D68" stroke-width="0.5" stroke-miterlimit="10"/>
<path d="M14.9998 5.81203V21.0688L40.6745 6.45748V-9L14.9998 5.81203Z" fill="#F6F6F6" stroke="#575D68" stroke-width="0.5" stroke-miterlimit="10"/>
<path d="M38.9998 20.8464V36.1033L64.6745 21.4919V6.03442L38.9998 20.8464Z" fill="#F6F6F6" stroke="#575D68" stroke-width="0.5" stroke-miterlimit="10"/>
<path d="M279.884 -141.615L88.3928 -29.8051V326L279.884 214.264" fill="#F6F6F6"/>
<path d="M279.884 -141.615L88.3928 -29.8051V326L279.884 214.264" stroke="#575D68" stroke-width="0.5" stroke-miterlimit="10"/>
<path d="M106.722 108.792L174.118 70.2882L257.23 120.644" fill="#F6F6F6"/>
<path d="M106.722 108.792L174.118 70.2882L257.23 120.644" stroke="#575D68" stroke-width="0.5" stroke-miterlimit="10"/>
<path d="M224.144 86.6183L223.428 95.17L189.777 85.5721L198.823 81.8141L222.611 82.9574L224.144 86.6183Z" fill="#DDDEDF" stroke="#575D68" stroke-width="0.5" stroke-miterlimit="10"/>
<path d="M185.414 86.0148C186.291 87.4967 186.982 90.3562 188.439 91.2441C190.951 92.7749 194.163 112.47 194.163 112.47C194.163 112.47 201.392 102.446 204.669 101.699C214.134 99.5426 214.126 99.0934 216.825 96.9142C220.145 94.2335 221.13 92.6665 222.75 91.9589C222.773 91.949 222.801 91.9366 222.824 91.9265C221.399 90.1878 221.754 87.2028 223.401 78.7359C224.614 72.5002 187.142 83.9607 184.737 84.7021C184.941 85.1508 185.166 85.589 185.414 86.0148Z" fill="#F6F6F6" stroke="#575D68" stroke-width="0.5" stroke-miterlimit="10"/>
<path d="M244.69 167.565C245.494 155.905 254.812 145.007 254.812 129.496C254.715 122.264 253.238 115.116 250.46 108.438C246.765 99.707 232.47 95.5329 227.27 92.9086C225.262 91.8951 199.257 107.225 194.1 113.256C192.076 115.624 196.443 102.765 190.59 93.4615C189.746 92.1203 187.203 88.944 186.414 87.5598C186.056 86.9333 185.023 85.3633 184.737 84.7021C179.957 85.1253 173.545 87.3466 170.162 90.8053C163.428 97.6902 153.393 108.851 151.813 115.699C149.401 126.153 144.978 150.277 145.38 151.483C145.782 152.689 155.834 172.792 162.669 178.019C169.504 183.246 167.494 205.359 167.494 205.359L164.193 234.185V256.922L193.215 239.211L199.385 235.764L234.413 216.192L244.372 210.628L242.75 177.342C242.75 177.342 244.53 169.877 244.69 167.565Z" fill="#DDDEDF" stroke="#575D68" stroke-width="0.5" stroke-miterlimit="10"/>
<path style="mix-blend-mode:multiply" d="M244.69 167.565C245.494 155.905 254.812 145.007 254.812 129.496C254.715 122.264 253.238 115.116 250.46 108.438C246.765 99.707 232.47 95.5329 227.27 92.9086C225.262 91.8951 199.257 107.225 194.1 113.256C192.076 115.624 196.443 102.765 190.59 93.4615C189.746 92.1203 187.203 88.944 186.414 87.5598C186.056 86.9333 185.023 85.3633 184.737 84.7021C179.957 85.1253 173.545 87.3466 170.162 90.8053C163.428 97.6902 153.393 108.851 151.813 115.699C149.401 126.153 144.978 150.277 145.38 151.483C145.782 152.689 155.834 172.792 162.669 178.019C169.504 183.246 167.494 205.359 167.494 205.359L164.193 234.185V256.922L193.215 239.211L199.385 235.764L234.413 216.192L244.372 210.628L242.75 177.342C242.75 177.342 244.53 169.877 244.69 167.565Z" fill="url(#paint0_linear_3_26262)"/>
<path style="mix-blend-mode:multiply" d="M244.69 167.565C245.494 155.905 254.812 145.007 254.812 129.496C254.715 122.264 253.238 115.116 250.46 108.438C246.765 99.707 232.47 95.5329 227.27 92.9086C225.262 91.8951 199.257 107.225 194.1 113.256C192.076 115.624 196.443 102.765 190.59 93.4615C189.746 92.1203 187.203 88.944 186.414 87.5598C186.056 86.9333 185.023 85.3633 184.737 84.7021C179.957 85.1253 173.545 87.3466 170.162 90.8053C163.428 97.6902 153.393 108.851 151.813 115.699C149.401 126.153 144.978 150.277 145.38 151.483C145.782 152.689 155.834 172.792 162.669 178.019C169.504 183.246 167.494 205.359 167.494 205.359L164.193 234.185L164.006 257.259L193.686 240.128L199.796 236.601L234.413 216.192L244.372 210.628L242.75 177.342C242.75 177.342 244.53 169.877 244.69 167.565Z" fill="url(#paint1_linear_3_26262)"/>
<path style="mix-blend-mode:multiply" d="M203.686 192.968L186.062 180.96C186.062 180.96 177.379 189.637 167.761 199.379C167.718 202.874 167.494 205.359 167.494 205.359L164.193 234.185L164.193 256.922L190.84 241.586L190.292 235.389L190.547 227.004L219.331 207.711L203.686 192.968Z" fill="url(#paint2_linear_3_26262)"/>
<path d="M140.802 180.96C145.419 176.162 158.815 163.672 158.815 163.672L182.697 183.925L164.791 202.709C164.339 203.182 163.721 203.46 163.067 203.482C162.413 203.504 161.777 203.27 161.295 202.828L140.915 184.185C140.692 183.983 140.513 183.738 140.386 183.465C140.26 183.192 140.189 182.897 140.179 182.596C140.168 182.296 140.218 181.996 140.325 181.715C140.432 181.434 140.594 181.177 140.802 180.96Z" fill="#DDDEDF" stroke="#575D68" stroke-width="0.5" stroke-miterlimit="10"/>
<path d="M179.37 184.961L165.147 200.234C164.696 200.708 164.077 200.985 163.424 201.008C162.77 201.03 162.134 200.795 161.651 200.354L140.802 180.96" fill="#DDDEDF"/>
<path d="M179.37 184.961L165.147 200.234C164.696 200.708 164.077 200.985 163.424 201.008C162.77 201.03 162.134 200.795 161.651 200.354L140.802 180.96" stroke="#575D68" stroke-width="0.5" stroke-miterlimit="10"/>
<path d="M205.507 135.375L203.686 149.298L217.972 155.63L223.4 152.615V133.618" fill="#DDDEDF"/>
<path d="M205.507 135.375L203.686 149.298L217.972 155.63L223.4 152.615V133.618" stroke="#575D68" stroke-width="0.5" stroke-miterlimit="10"/>
<path style="mix-blend-mode:multiply" d="M205.507 135.375L203.686 149.298L217.972 155.63L223.4 152.615V133.618" fill="url(#paint3_linear_3_26262)"/>
<path d="M151.613 148.467C151.613 148.467 156.061 147.556 158.815 148.467C163.373 149.975 166.018 154.498 166.018 154.498V135.501" stroke="#575D68" stroke-width="0.5" stroke-miterlimit="10"/>
<path d="M193.823 113.339L194.481 101.07C194.596 99.8893 194.387 98.7 193.879 97.6287L186.914 82.9576L184.737 84.7022V90.3958L186.154 102.01L188.625 101.214C188.845 101.143 189.077 101.12 189.306 101.146C189.536 101.172 189.757 101.246 189.955 101.364C190.153 101.482 190.324 101.641 190.456 101.831C190.589 102.02 190.679 102.235 190.722 102.462C190.722 102.462 193.79 113.963 193.823 113.339Z" fill="#DDDEDF" stroke="#575D68" stroke-width="0.5" stroke-miterlimit="10"/>
<path style="mix-blend-mode:multiply" d="M193.823 113.339L194.481 101.07C194.596 99.8893 194.387 98.7 193.879 97.6287L186.914 82.9576L184.737 84.7022V90.3958L186.154 102.01L188.625 101.214C188.845 101.143 189.077 101.12 189.306 101.146C189.536 101.172 189.757 101.246 189.955 101.364C190.153 101.482 190.324 101.641 190.456 101.831C190.589 102.02 190.679 102.235 190.722 102.462C190.722 102.462 193.79 113.963 193.823 113.339Z" fill="url(#paint4_linear_3_26262)"/>
<path d="M224.146 87.1176L227.271 93.5085L221.956 100.838L208.475 112.606C208.475 112.606 206.355 109.431 205.508 108.485C203.888 106.676 194.076 114.524 194.076 114.524C193.852 114.734 193.519 113.749 193.6 113.453L199.657 102.916C200.04 102.249 200.612 101.711 201.302 101.37L216.377 93.9024L224.146 87.1176Z" fill="#DDDEDF" stroke="#575D68" stroke-width="0.5" stroke-miterlimit="10"/>
<path style="mix-blend-mode:multiply" d="M224.146 87.1176L227.271 93.5085L221.956 100.838L208.475 112.606C208.475 112.606 206.355 109.431 205.508 108.485C203.888 106.676 194.076 114.524 194.076 114.524C193.852 114.734 193.519 113.749 193.6 113.453L199.657 102.916C200.04 102.249 200.612 101.711 201.302 101.37L216.377 93.9024L224.146 87.1176Z" fill="url(#paint5_linear_3_26262)"/>
<path d="M223.501 80.0335C224.205 78.8102 224.728 77.4913 225.053 76.1179C226.552 70.76 227.537 65.2719 227.997 59.7275C228.25 56.6802 228.315 53.4778 226.989 50.7227C225.804 48.2611 223.631 46.4259 221.385 44.8707C214.968 40.428 207.602 40.1991 200.061 40.5133C187.634 41.0312 182.307 56.3079 185.475 66.7674C185.704 67.4002 185.859 68.0574 185.937 68.7259C185.943 69.4264 185.857 70.1248 185.679 70.8025C184.619 75.9145 184.432 82.3356 186.414 87.5596C191.13 99.9929 208.201 98.9079 215.677 89.6613" fill="#F6F6F6"/>
<path d="M223.501 80.0335C224.205 78.8102 224.728 77.4913 225.053 76.1179C226.552 70.76 227.537 65.2719 227.997 59.7275C228.25 56.6802 228.315 53.4778 226.989 50.7227C225.804 48.2611 223.631 46.4259 221.385 44.8707C214.968 40.428 207.602 40.1991 200.061 40.5133C187.634 41.0312 182.307 56.3079 185.475 66.7674C185.704 67.4002 185.859 68.0574 185.937 68.7259C185.943 69.4264 185.857 70.1248 185.679 70.8025C184.619 75.9145 184.432 82.3356 186.414 87.5596C191.13 99.9929 208.201 98.9079 215.677 89.6613" stroke="#575D68" stroke-width="0.5" stroke-miterlimit="10"/>
<path d="M205.956 47.8044C204.943 49.9203 205.733 51.2788 207.442 52.6107C209.529 54.2369 211.708 55.4515 213.204 57.7302C215.134 60.6699 215.587 64.2752 215.965 67.691C216.888 67.3988 217.876 67.3758 218.812 67.6249C219.748 67.8739 220.594 68.3846 221.25 69.0971C221.89 69.8235 222.366 70.6789 222.646 71.6054C222.925 72.5319 223.003 73.5078 222.872 74.4668C222.643 76.4208 221.702 78.2351 221.452 80.1866C221.363 80.6015 221.418 81.0346 221.61 81.4134C221.724 81.5801 221.875 81.7175 222.053 81.8142C222.594 81.2704 223.079 80.6739 223.501 80.0336C224.205 78.8103 224.728 77.4914 225.053 76.118C226.551 70.7601 227.537 65.272 227.997 59.7275C228.25 56.6803 228.315 53.4779 226.989 50.7228C225.831 48.5881 224.166 46.7706 222.141 45.43C219.312 44.6599 216.383 44.3175 213.453 44.4142C210.557 44.456 207.347 44.8986 205.956 47.8044Z" fill="#DDDEDF" stroke="#575D68" stroke-width="0.5" stroke-miterlimit="10"/>
<path d="M220.987 45.2621C221.156 44.9341 221.312 44.5941 221.459 44.2492C221.434 44.2301 221.41 44.2083 221.386 44.1892C214.969 39.2788 207.603 39.0258 200.062 39.3731C198.086 39.4814 196.157 40.0185 194.409 40.9471C192.661 41.8757 191.136 43.1736 189.94 44.7506C188.76 46.1704 188.051 47.9231 187.912 49.7648C187.774 51.6064 188.213 53.4453 189.169 55.0257C189.745 55.9436 190.449 56.7744 191.26 57.493C192.382 58.4835 193.702 59.2245 195.132 59.6669C196.561 60.1093 198.069 60.243 199.554 60.0592C201.087 59.8076 202.583 59.3671 204.008 58.7478C210.709 56.0837 217.469 52.1057 220.987 45.2621Z" fill="#DDDEDF" stroke="#575D68" stroke-width="0.5" stroke-miterlimit="10"/>
<path d="M216.92 80.7479C218.394 80.6749 219.475 79.3624 220.24 78.1003C221.333 76.2961 222.213 74.089 221.461 72.1176C221.37 71.7965 221.195 71.5058 220.953 71.2759C220.711 71.0461 220.412 70.8855 220.086 70.8112" stroke="#575D68" stroke-width="0.5" stroke-miterlimit="10"/>
<path d="M181.374 85.5448C181.374 85.5448 174.515 96.687 171.87 104.241C168.167 114.813 166.018 130.099 166.018 130.099" stroke="#575D68" stroke-width="0.5" stroke-miterlimit="10"/>
<path d="M193.742 181.926C193.522 181.711 182.169 175.506 182.169 175.506L171.633 179.86C171.633 179.86 173.143 182.536 175.842 182.012C186.92 179.862 170.659 196.552 170.659 196.552L173.696 198.45L178.634 197.514L182.697 195.257L193.764 194.648C193.764 194.648 193.296 191.414 193.215 189.806C193.178 189.073 193.443 185.583 193.742 181.926Z" fill="#F6F6F6" stroke="#575D68" stroke-width="0.5" stroke-miterlimit="10"/>
<path d="M247.089 103.694C247.089 103.694 238.126 104.568 231.339 118.239C225.934 129.125 224.145 142.286 224.145 142.286L217.048 179.225L193.763 181.946L193.742 181.926C193.443 185.583 193.178 189.073 193.215 189.806C193.296 191.414 193.764 194.648 193.764 194.648L195.337 199.203L230.316 194.906L245.365 163.499L253.054 141.388" fill="#DDDEDF"/>
<path d="M247.089 103.694C247.089 103.694 238.126 104.568 231.339 118.239C225.934 129.125 224.145 142.286 224.145 142.286L217.048 179.225L193.763 181.946L193.742 181.926C193.443 185.583 193.178 189.073 193.215 189.806C193.296 191.414 193.764 194.648 193.764 194.648L195.337 199.203L230.316 194.906L245.365 163.499L253.054 141.388" stroke="#575D68" stroke-width="0.5" stroke-miterlimit="10"/>
<path style="mix-blend-mode:multiply" d="M247.089 103.694C247.089 103.694 238.126 104.568 231.339 118.239C225.934 129.125 224.145 142.286 224.145 142.286L217.048 179.225L193.763 181.946L193.742 181.926C193.443 185.583 193.178 189.073 193.215 189.806C193.296 191.414 193.764 194.648 193.764 194.648L195.337 199.203L230.316 194.906L245.365 163.499L253.054 141.388" fill="url(#paint6_linear_3_26262)"/>
<path d="M205.507 135.375L223.401 133.617" stroke="#575D68" stroke-width="0.5" stroke-miterlimit="10"/>
<path d="M206.843 125.174L203.686 134.523L219.781 142.061L223.4 133.618L206.843 125.174Z" fill="#DDDEDF" stroke="#575D68" stroke-width="0.5" stroke-miterlimit="10"/>
<path style="mix-blend-mode:multiply" d="M206.843 125.174L203.686 134.523L219.781 142.061L223.4 133.618L206.843 125.174Z" fill="url(#paint7_linear_3_26262)"/>
<path d="M195.709 69.388C197.156 69.1277 198.637 69.1277 200.084 69.388C202.734 69.7131 206.962 72.1016 206.962 72.1016" fill="#F6F6F6"/>
<path d="M195.709 69.388C197.156 69.1277 198.637 69.1277 200.084 69.388C202.734 69.7131 206.962 72.1016 206.962 72.1016" stroke="#575D68" stroke-width="0.5" stroke-miterlimit="10"/>
<path d="M187.064 67.428C188.948 66.8249 191.328 68.6041 191.328 68.6041C191.752 69.0422 192.061 69.578 192.227 70.164C192.394 70.75 192.414 71.368 192.284 71.9634L190.669 79.402C190.627 79.5916 190.622 79.7878 190.657 79.9791C190.691 80.1703 190.764 80.3527 190.87 80.5155C191.503 81.4829 192.868 82.9577 195.708 81.8142" fill="#F6F6F6"/>
<path d="M187.064 67.428C188.948 66.8249 191.328 68.6041 191.328 68.6041C191.752 69.0422 192.061 69.578 192.227 70.164C192.394 70.75 192.414 71.368 192.284 71.9634L190.669 79.402C190.627 79.5916 190.622 79.7878 190.657 79.9791C190.691 80.1703 190.764 80.3527 190.87 80.5155C191.503 81.4829 192.868 82.9577 195.708 81.8142" stroke="#575D68" stroke-width="0.5" stroke-miterlimit="10"/>
<path d="M180.526 192.968L173.696 198.45" stroke="#575D68" stroke-width="0.5" stroke-miterlimit="10"/>
<path d="M114.364 200.071C107.822 200.071 102.598 198.815 97.9235 194.958C90.3908 188.742 88.4333 181.553 88.3943 181.103V170.406C88.4031 170.501 89.9476 183.838 100.176 192.114C105.332 196.286 112.316 197.313 121.088 195.851C130.851 194.223 141.857 183.546 146.822 177.493C151.09 172.288 155.227 170.095 159.119 170.977C164.557 172.211 167.447 179.025 168.579 182.471C168.659 182.709 168.688 182.961 168.665 183.211C168.642 183.46 168.568 183.703 168.447 183.923C168.325 184.142 168.16 184.334 167.961 184.487C167.762 184.64 167.534 184.75 167.29 184.81C166.848 184.92 166.38 184.859 165.98 184.639C165.581 184.419 165.28 184.056 165.137 183.624C164.068 180.41 161.695 175.277 158.314 174.514C155.278 173.828 151.913 177.007 149.627 179.794C148.17 181.569 135.011 197.206 121.684 199.429C119.266 199.844 116.817 200.059 114.364 200.071Z" fill="#F6F6F6" stroke="#575D68" stroke-width="0.5" stroke-miterlimit="10"/>
<path d="M193.215 114.524L189.623 137.05L187.879 166.636L189.552 179.562" stroke="#575D68" stroke-width="0.5" stroke-miterlimit="10"/>
<path d="M217.972 155.63L219.331 145" stroke="#575D68" stroke-width="0.5" stroke-miterlimit="10"/>
<path d="M186.524 195.062L185.601 208.307" stroke="#575D68" stroke-width="0.5" stroke-miterlimit="10"/>
<path d="M221.741 183.574C220.29 182.006 218.721 180.553 217.047 179.225C217.047 179.225 221.421 177.892 224.144 179.225" stroke="#575D68" stroke-width="0.5" stroke-miterlimit="10"/>
<path style="mix-blend-mode:multiply" d="M242.749 177.342C242.749 177.342 236.976 181.005 236.728 181.524L242.749 177.342Z" fill="url(#paint8_linear_3_26262)"/>
<path d="M243.121 184.961L232.296 190.773" stroke="#575D68" stroke-width="0.5" stroke-miterlimit="10"/>
<path d="M160.184 144.624C162.268 145.943 163.815 147.96 164.548 150.315L166.018 154.498" fill="#DDDEDF"/>
<path d="M160.184 144.624C162.268 145.943 163.815 147.96 164.548 150.315L166.018 154.498" stroke="#575D68" stroke-width="0.5" stroke-miterlimit="10"/>
<path d="M169.539 214.452V230.012L164.193 232.689" stroke="#575D68" stroke-width="0.5" stroke-miterlimit="10"/>
<path d="M166.328 211.568L163.1 221.684L166.773 223.519L169.822 213.523L166.328 211.568Z" fill="#DDDEDF" stroke="#575D68" stroke-width="0.5" stroke-miterlimit="10"/>
<path d="M223.429 195.752C223.429 195.752 223.999 205.037 225.963 208.502C229.28 214.351 237.708 214.351 237.708 214.351" stroke="#575D68" stroke-width="0.5" stroke-miterlimit="10"/>
<path d="M221.003 196.049C221.003 196.049 221.572 205.334 223.537 208.799C226.854 214.648 234.413 216.192 234.413 216.192" stroke="#575D68" stroke-width="0.5" stroke-miterlimit="10"/>
<path d="M187.063 217.543L190.546 227.004L190.124 240.871" stroke="#575D68" stroke-width="0.5" stroke-miterlimit="10"/>
<path style="mix-blend-mode:multiply" d="M227.27 128.656L223.4 133.618L219.781 142.061L215.409 175.506L193.741 181.927L217.047 179.225L227.27 128.656Z" fill="url(#paint9_linear_3_26262)"/>
<path style="mix-blend-mode:multiply" d="M195.336 199.203L224.144 221.93L244.372 210.627L242.749 177.342L245.364 163.5L230.315 194.905L195.336 199.203Z" fill="url(#paint10_linear_3_26262)"/>
<path style="mix-blend-mode:multiply" d="M175.003 161.435L166.018 138.744L164.599 168.577L175.85 178.117L182.169 175.506L175.003 161.435Z" fill="url(#paint11_linear_3_26262)"/>
<path d="M265.666 60.2064C246.063 58.3307 224.144 20.3321 209.857 -21.5271C202.644 -42.6604 197.02 -85.9242 197.01 -91.5862" fill="#F6F6F6"/>
<path d="M265.666 60.2064C246.063 58.3307 224.144 20.3321 209.857 -21.5271C202.644 -42.6604 197.02 -85.9242 197.01 -91.5862" stroke="#575D68" stroke-width="0.5" stroke-miterlimit="10"/>
<path d="M265.662 56.2814C251.297 42.0771 237.2 14.1506 226.996 -15.7452C219.783 -36.8786 214.158 -80.1424 214.148 -85.8043" fill="#F6F6F6"/>
<path d="M265.662 56.2814C251.297 42.0771 237.2 14.1506 226.996 -15.7452C219.783 -36.8786 214.158 -80.1424 214.148 -85.8043" stroke="#575D68" stroke-width="0.5" stroke-miterlimit="10"/>
<path d="M266.505 51.6524C259.341 38.5541 252.739 23.0679 247.26 7.01382C240.047 -14.1195 234.422 -57.3833 234.412 -63.0453" fill="#F6F6F6"/>
<path d="M266.505 51.6524C259.341 38.5541 252.739 23.0679 247.26 7.01382C240.047 -14.1195 234.422 -57.3833 234.412 -63.0453" stroke="#575D68" stroke-width="0.5" stroke-miterlimit="10"/>
<path d="M279.884 214.264L257.519 201.468L88.3928 299.089V326L279.884 214.264Z" fill="#F6F6F6" stroke="#575D68" stroke-width="0.5" stroke-miterlimit="10"/>
<path d="M256.337 -127.948L257.519 201.468L279.884 214.264V-141.615L256.337 -127.948Z" fill="#F6F6F6" stroke="#575D68" stroke-width="0.5" stroke-miterlimit="10"/>
<path d="M101.219 246.26C101.219 246.26 108.484 243.481 111.259 246.251C111.92 246.91 112.445 247.692 112.803 248.553C113.162 249.415 113.347 250.338 113.349 251.271C113.35 252.204 113.167 253.128 112.811 253.991C112.455 254.853 111.933 255.637 111.273 256.297C110.614 256.958 109.831 257.482 108.97 257.839C108.108 258.197 107.184 258.381 106.251 258.381C105.318 258.381 104.394 258.197 103.532 257.84C102.67 257.483 101.887 256.96 101.227 256.3C98.4526 253.53 101.219 246.26 101.219 246.26Z" fill="#F6F6F6" stroke="#575D68" stroke-width="0.5" stroke-miterlimit="10"/>
<path d="M101.211 271.235L101.076 298.548L111.063 304.579L136.584 288.899V261.347L110.878 277.823L101.211 271.235Z" fill="#F6F6F6" stroke="#575D68" stroke-width="0.5" stroke-miterlimit="10"/>
<path d="M98.7304 280.995C98.7304 280.995 95.0314 270.558 99.071 266.707C100.032 265.791 101.163 265.073 102.401 264.595C103.639 264.116 104.959 263.886 106.285 263.918C107.612 263.949 108.92 264.242 110.133 264.779C111.347 265.316 112.443 266.087 113.359 267.047C114.275 268.008 114.992 269.139 115.471 270.377C115.949 271.615 116.179 272.935 116.148 274.262C116.116 275.588 115.824 276.896 115.287 278.11C114.75 279.323 113.979 280.419 113.018 281.335C108.979 285.187 98.7304 280.995 98.7304 280.995Z" fill="#F6F6F6" stroke="#575D68" stroke-width="0.5" stroke-miterlimit="10"/>
<path d="M124.396 278.684C124.396 278.684 113.511 280.714 110.335 276.124C109.58 275.032 109.047 273.803 108.767 272.506C108.487 271.208 108.465 269.869 108.703 268.563C108.941 267.257 109.433 266.011 110.152 264.896C110.872 263.781 111.804 262.818 112.895 262.063C113.986 261.308 115.216 260.775 116.513 260.495C117.81 260.215 119.15 260.193 120.456 260.431C121.761 260.669 123.007 261.161 124.123 261.881C125.238 262.6 126.201 263.532 126.956 264.623C130.132 269.213 124.396 278.684 124.396 278.684Z" fill="#F6F6F6" stroke="#575D68" stroke-width="0.5" stroke-miterlimit="10"/>
<path d="M139.578 253.731C139.578 253.731 138.238 264.722 132.905 266.37C130.344 267.161 127.574 266.902 125.204 265.651C122.834 264.399 121.058 262.258 120.266 259.697C119.475 257.136 119.734 254.366 120.985 251.996C122.237 249.625 124.378 247.849 126.939 247.058C132.272 245.411 139.578 253.731 139.578 253.731Z" fill="#F6F6F6" stroke="#575D68" stroke-width="0.5" stroke-miterlimit="10"/>
<path d="M120.935 243.137C120.935 243.137 126.391 248.681 124.964 252.333C124.279 254.087 122.926 255.497 121.201 256.252C119.477 257.008 117.522 257.048 115.769 256.363C114.015 255.678 112.605 254.324 111.849 252.599C111.094 250.875 111.054 248.921 111.739 247.167C113.165 243.515 120.935 243.137 120.935 243.137Z" fill="#F6F6F6" stroke="#575D68" stroke-width="0.5" stroke-miterlimit="10"/>
<path d="M97.2629 259.113C97.2629 259.113 103.562 254.55 106.959 256.508C108.59 257.448 109.781 258.998 110.269 260.816C110.758 262.634 110.504 264.572 109.564 266.204C108.624 267.835 107.074 269.026 105.255 269.514C103.437 270.003 101.499 269.749 99.868 268.809C96.4712 266.851 97.2629 259.113 97.2629 259.113Z" fill="#F6F6F6" stroke="#575D68" stroke-width="0.5" stroke-miterlimit="10"/>
<path d="M111.983 253.211C111.983 253.211 119.493 255.236 120.108 259.108C120.404 260.968 119.948 262.869 118.842 264.392C117.736 265.916 116.07 266.938 114.211 267.233C112.351 267.529 110.451 267.073 108.927 265.967C107.403 264.861 106.381 263.195 106.086 261.336C105.471 257.464 111.983 253.211 111.983 253.211Z" fill="#F6F6F6" stroke="#575D68" stroke-width="0.5" stroke-miterlimit="10"/>
<path d="M111.062 304.579V285.857" stroke="#575D68" stroke-width="0.5" stroke-miterlimit="10"/>
<path d="M127.88 -52.8611C127.88 -52.8611 138.066 8.22663 126.098 73.7671C117.013 123.515 88.3928 147.818 88.3928 147.818V-29.805L127.88 -52.8611Z" fill="#F6F6F6" stroke="#575D68" stroke-width="0.5" stroke-miterlimit="10"/>
<path d="M174.118 70.2881V-79.8593" stroke="#575D68" stroke-width="0.5" stroke-miterlimit="10"/>
<path d="M166.772 160.567L170.692 171.121L170.635 180.579C170.635 180.579 167.5 180.896 167.423 178.515L166.772 173.692L164.371 172.647L164.19 177.458C164.149 178.549 164.358 179.636 164.8 180.634C165.242 181.633 165.906 182.518 166.742 183.221L167.387 184.348L166.772 185.164H164.597L163.1 186.179L160.059 185.164L152.901 178.961C152.901 178.961 153.725 163.109 152.901 163.588C152.901 163.588 152.485 159.446 157.31 158.642C162.135 157.837 166.772 160.567 166.772 160.567Z" fill="#F6F6F6" stroke="#575D68" stroke-width="0.5" stroke-miterlimit="10"/>
<path d="M160.752 174.624V179.71L164.597 185.165" fill="#F6F6F6"/>
<path d="M160.752 174.624V179.71L164.597 185.165" stroke="#575D68" stroke-width="0.5" stroke-miterlimit="10"/>
<path d="M160.183 185.165L156.339 179.71L155.928 174.171" fill="#F6F6F6"/>
<path d="M160.183 185.165L156.339 179.71L155.928 174.171" stroke="#575D68" stroke-width="0.5" stroke-miterlimit="10"/>
<path d="M150.567 159.622C151.151 158.655 151.929 157.818 152.851 157.165C153.774 156.512 154.821 156.057 155.927 155.827C158.337 155.236 160.879 155.519 163.099 156.626" stroke="#575D68" stroke-width="0.5" stroke-miterlimit="10"/>
<path d="M279.884 -141.615L88.3926 -29.8051V326L279.884 214.264" fill="#F6F6F6"/>
<path d="M279.884 -141.615L88.3926 -29.8051V326L279.884 214.264" stroke="#575D68" stroke-width="0.5" stroke-miterlimit="10"/>
<path d="M106.722 108.792L174.118 70.2882L257.23 120.644" fill="#F6F6F6"/>
<path d="M106.722 108.792L174.118 70.2882L257.23 120.644" stroke="#575D68" stroke-width="0.5" stroke-miterlimit="10"/>
<path d="M224.144 86.6183L223.428 95.17L189.777 85.5721L198.823 81.8141L222.611 82.9574L224.144 86.6183Z" fill="#DDDEDF" stroke="#575D68" stroke-width="0.5" stroke-miterlimit="10"/>
<path d="M185.414 86.0148C186.291 87.4967 186.982 90.3562 188.439 91.2441C190.95 92.7749 194.163 112.47 194.163 112.47C194.163 112.47 201.392 102.446 204.669 101.699C214.133 99.5426 214.125 99.0934 216.825 96.9142C220.145 94.2335 221.13 92.6665 222.75 91.9589C222.773 91.949 222.8 91.9366 222.824 91.9265C221.399 90.1878 221.753 87.2028 223.4 78.7359C224.614 72.5002 187.142 83.9607 184.737 84.7021C184.94 85.1508 185.166 85.589 185.414 86.0148Z" fill="#F6F6F6" stroke="#575D68" stroke-width="0.5" stroke-miterlimit="10"/>
<path d="M244.689 167.565C245.493 155.905 254.811 145.007 254.811 129.496C254.715 122.264 253.238 115.116 250.459 108.438C246.765 99.707 232.47 95.5329 227.27 92.9086C225.262 91.8951 199.257 107.225 194.1 113.256C192.075 115.624 196.442 102.765 190.59 93.4615C189.746 92.1203 187.202 88.944 186.413 87.5598C186.056 86.9333 185.022 85.3633 184.737 84.7021C179.957 85.1253 173.545 87.3466 170.162 90.8053C163.427 97.6902 153.393 108.851 151.813 115.699C149.4 126.153 144.978 150.277 145.38 151.483C145.782 152.689 155.834 172.792 162.669 178.019C169.504 183.246 167.493 205.359 167.493 205.359L164.193 234.185V256.922L193.215 239.211L199.385 235.764L234.413 216.192L244.372 210.628L242.749 177.342C242.749 177.342 244.53 169.877 244.689 167.565Z" fill="url(#paint12_linear_3_26262)" stroke="#575D68" stroke-width="0.5" stroke-miterlimit="10"/>
<path style="mix-blend-mode:multiply" d="M244.689 167.565C245.493 155.905 254.811 145.007 254.811 129.496C254.715 122.264 253.238 115.116 250.459 108.438C246.765 99.707 232.47 95.5329 227.27 92.9086C225.262 91.8951 199.257 107.225 194.1 113.256C192.075 115.624 196.442 102.765 190.59 93.4615C189.746 92.1203 187.202 88.944 186.413 87.5598C186.056 86.9333 185.022 85.3633 184.737 84.7021C179.957 85.1253 173.545 87.3466 170.162 90.8053C163.427 97.6902 153.393 108.851 151.813 115.699C149.4 126.153 144.978 150.277 145.38 151.483C145.782 152.689 155.834 172.792 162.669 178.019C169.504 183.246 167.493 205.359 167.493 205.359L164.193 234.185V256.922L193.215 239.211L199.385 235.764L234.413 216.192L244.372 210.628L242.749 177.342C242.749 177.342 244.53 169.877 244.689 167.565Z" fill="url(#paint13_linear_3_26262)"/>
<path style="mix-blend-mode:multiply" d="M203.686 192.968L186.062 180.96C186.062 180.96 177.378 189.637 167.761 199.379C167.718 202.874 167.493 205.359 167.493 205.359L164.193 234.185L164.193 256.922L190.84 241.586L190.291 235.389L190.547 227.004L219.331 207.711L203.686 192.968Z" fill="url(#paint14_linear_3_26262)"/>
<path d="M140.801 180.96C145.419 176.162 158.815 163.672 158.815 163.672L182.697 183.925L164.79 202.709C164.339 203.182 163.72 203.46 163.067 203.482C162.413 203.504 161.777 203.27 161.294 202.828L140.915 184.185C140.692 183.983 140.512 183.738 140.386 183.465C140.26 183.192 140.189 182.897 140.178 182.596C140.168 182.296 140.218 181.996 140.325 181.715C140.432 181.434 140.594 181.177 140.801 180.96Z" fill="#DDDEDF" stroke="#575D68" stroke-width="0.5" stroke-miterlimit="10"/>
<path d="M179.37 184.961L165.147 200.234C164.696 200.708 164.077 200.985 163.424 201.008C162.77 201.03 162.134 200.795 161.651 200.354L140.802 180.96" fill="#DDDEDF"/>
<path d="M179.37 184.961L165.147 200.234C164.696 200.708 164.077 200.985 163.424 201.008C162.77 201.03 162.134 200.795 161.651 200.354L140.802 180.96" stroke="#575D68" stroke-width="0.5" stroke-miterlimit="10"/>
<path d="M205.507 135.375L203.686 149.298L217.972 155.63L223.4 152.615V133.618" fill="#DDDEDF"/>
<path d="M205.507 135.375L203.686 149.298L217.972 155.63L223.4 152.615V133.618" stroke="#575D68" stroke-width="0.5" stroke-miterlimit="10"/>
<path d="M205.507 135.375L203.686 149.298L217.972 155.63L223.4 152.615V133.618" fill="url(#paint15_linear_3_26262)"/>
<path d="M205.507 135.375L203.686 149.298L217.972 155.63L223.4 152.615V133.618" stroke="#575D68" stroke-width="0.5" stroke-miterlimit="10"/>
<path d="M151.612 148.467C151.612 148.467 156.061 147.556 158.815 148.467C163.373 149.975 166.018 154.498 166.018 154.498V135.501" stroke="#575D68" stroke-width="0.5" stroke-miterlimit="10"/>
<path d="M193.823 113.339L194.481 101.07C194.595 99.8893 194.387 98.7 193.879 97.6287L186.913 82.9576L184.737 84.7022V90.3958L186.154 102.01L188.625 101.214C188.845 101.143 189.077 101.12 189.306 101.146C189.535 101.172 189.757 101.246 189.955 101.364C190.153 101.482 190.324 101.641 190.456 101.831C190.588 102.02 190.679 102.235 190.721 102.462C190.721 102.462 193.79 113.963 193.823 113.339Z" fill="#DDDEDF" stroke="#575D68" stroke-width="0.5" stroke-miterlimit="10"/>
<path d="M193.823 113.339L194.481 101.07C194.595 99.8893 194.387 98.7 193.879 97.6287L186.913 82.9576L184.737 84.7022V90.3958L186.154 102.01L188.625 101.214C188.845 101.143 189.077 101.12 189.306 101.146C189.535 101.172 189.757 101.246 189.955 101.364C190.153 101.482 190.324 101.641 190.456 101.831C190.588 102.02 190.679 102.235 190.721 102.462C190.721 102.462 193.79 113.963 193.823 113.339Z" fill="url(#paint16_linear_3_26262)" stroke="#575D68" stroke-width="0.5" stroke-miterlimit="10"/>
<path d="M224.146 87.1176L227.271 93.5085L221.956 100.838L208.475 112.606C208.475 112.606 206.355 109.431 205.508 108.485C203.888 106.676 194.076 114.524 194.076 114.524C193.852 114.734 193.518 113.749 193.6 113.453L199.656 102.916C200.04 102.249 200.612 101.711 201.301 101.37L216.377 93.9024L224.146 87.1176Z" fill="#DDDEDF" stroke="#575D68" stroke-width="0.5" stroke-miterlimit="10"/>
<path d="M224.146 87.1176L227.271 93.5085L221.956 100.838L208.475 112.606C208.475 112.606 206.355 109.431 205.508 108.485C203.888 106.676 194.076 114.524 194.076 114.524C193.852 114.734 193.518 113.749 193.6 113.453L199.656 102.916C200.04 102.249 200.612 101.711 201.301 101.37L216.377 93.9024L224.146 87.1176Z" fill="url(#paint17_linear_3_26262)" stroke="#575D68" stroke-width="0.5" stroke-miterlimit="10"/>
<path d="M223.501 80.0335C224.205 78.8102 224.727 77.4913 225.053 76.1179C226.551 70.76 227.537 65.2719 227.997 59.7275C228.249 56.6802 228.315 53.4778 226.989 50.7227C225.803 48.2611 223.63 46.4259 221.384 44.8707C214.968 40.428 207.602 40.1991 200.061 40.5133C187.633 41.0312 182.306 56.3079 185.475 66.7674C185.704 67.4002 185.859 68.0574 185.936 68.7259C185.943 69.4264 185.856 70.1248 185.679 70.8025C184.619 75.9145 184.432 82.3356 186.414 87.5596C191.13 99.9929 208.201 98.9079 215.677 89.6613" fill="#F6F6F6"/>
<path d="M223.501 80.0335C224.205 78.8102 224.727 77.4913 225.053 76.1179C226.551 70.76 227.537 65.2719 227.997 59.7275C228.249 56.6802 228.315 53.4778 226.989 50.7227C225.803 48.2611 223.63 46.4259 221.384 44.8707C214.968 40.428 207.602 40.1991 200.061 40.5133C187.633 41.0312 182.306 56.3079 185.475 66.7674C185.704 67.4002 185.859 68.0574 185.936 68.7259C185.943 69.4264 185.856 70.1248 185.679 70.8025C184.619 75.9145 184.432 82.3356 186.414 87.5596C191.13 99.9929 208.201 98.9079 215.677 89.6613" stroke="#575D68" stroke-width="0.5" stroke-miterlimit="10"/>
<path d="M205.956 47.8044C204.943 49.9203 205.733 51.2788 207.442 52.6107C209.528 54.2369 211.708 55.4515 213.204 57.7302C215.133 60.6699 215.587 64.2752 215.965 67.691C216.888 67.3988 217.876 67.3758 218.812 67.6249C219.748 67.8739 220.594 68.3846 221.25 69.0971C221.889 69.8235 222.365 70.6789 222.645 71.6054C222.925 72.5319 223.003 73.5078 222.872 74.4668C222.642 76.4208 221.701 78.2351 221.452 80.1866C221.363 80.6015 221.418 81.0346 221.61 81.4134C221.723 81.5801 221.875 81.7175 222.052 81.8142C222.593 81.2704 223.078 80.6739 223.501 80.0336C224.205 78.8103 224.727 77.4914 225.053 76.118C226.551 70.7601 227.537 65.272 227.997 59.7275C228.249 56.6803 228.315 53.4779 226.988 50.7228C225.83 48.5881 224.166 46.7706 222.141 45.43C219.312 44.6599 216.383 44.3175 213.453 44.4142C210.556 44.456 207.347 44.8986 205.956 47.8044Z" fill="#DDDEDF" stroke="#575D68" stroke-width="0.5" stroke-miterlimit="10"/>
<path d="M220.987 45.2621C221.155 44.9341 221.312 44.5941 221.459 44.2492C221.434 44.2301 221.41 44.2083 221.385 44.1892C214.968 39.2788 207.603 39.0258 200.062 39.3731C198.086 39.4814 196.157 40.0185 194.409 40.9471C192.661 41.8757 191.136 43.1736 189.94 44.7506C188.759 46.1704 188.05 47.9231 187.912 49.7648C187.774 51.6064 188.213 53.4453 189.168 55.0257C189.745 55.9436 190.449 56.7744 191.26 57.493C192.382 58.4835 193.702 59.2245 195.131 59.6669C196.561 60.1093 198.069 60.243 199.554 60.0592C201.087 59.8076 202.583 59.3671 204.008 58.7478C210.709 56.0837 217.468 52.1057 220.987 45.2621Z" fill="#DDDEDF" stroke="#575D68" stroke-width="0.5" stroke-miterlimit="10"/>
<path d="M216.92 80.7479C218.394 80.6749 219.475 79.3624 220.24 78.1003C221.333 76.2961 222.212 74.089 221.461 72.1176C221.37 71.7965 221.195 71.5058 220.953 71.2759C220.711 71.0461 220.411 70.8855 220.086 70.8112" stroke="#575D68" stroke-width="0.5" stroke-miterlimit="10"/>
<path d="M181.374 85.5448C181.374 85.5448 174.515 96.687 171.869 104.241C168.167 114.813 166.018 130.099 166.018 130.099" stroke="#575D68" stroke-width="0.5" stroke-miterlimit="10"/>
<path d="M193.741 181.926C193.521 181.711 182.169 175.506 182.169 175.506L171.632 179.86C171.632 179.86 173.143 182.536 175.842 182.012C186.92 179.862 170.659 196.552 170.659 196.552L173.696 198.45L178.634 197.514L182.697 195.257L193.764 194.648C193.764 194.648 193.296 191.414 193.215 189.806C193.178 189.073 193.442 185.583 193.741 181.926Z" fill="#F6F6F6" stroke="#575D68" stroke-width="0.5" stroke-miterlimit="10"/>
<path d="M247.088 103.694C247.088 103.694 238.126 104.568 231.339 118.239C225.934 129.125 224.145 142.286 224.145 142.286L217.048 179.225L193.762 181.946L193.742 181.926C193.442 185.583 193.178 189.073 193.215 189.806C193.296 191.414 193.764 194.648 193.764 194.648L195.336 199.203L230.316 194.906L245.365 163.499L253.053 141.388" fill="url(#paint18_linear_3_26262)"/>
<path d="M247.088 103.694C247.088 103.694 238.126 104.568 231.339 118.239C225.934 129.125 224.145 142.286 224.145 142.286L217.048 179.225L193.762 181.946L193.742 181.926C193.442 185.583 193.178 189.073 193.215 189.806C193.296 191.414 193.764 194.648 193.764 194.648L195.336 199.203L230.316 194.906L245.365 163.499L253.053 141.388" stroke="#575D68" stroke-width="0.5" stroke-miterlimit="10"/>
<path style="mix-blend-mode:multiply" d="M247.088 103.694C247.088 103.694 238.126 104.568 231.339 118.239C225.934 129.125 224.145 142.286 224.145 142.286L217.048 179.225L193.762 181.946L193.742 181.926C193.442 185.583 193.178 189.073 193.215 189.806C193.296 191.414 193.764 194.648 193.764 194.648L195.336 199.203L230.316 194.906L245.365 163.499L253.053 141.388" fill="url(#paint19_linear_3_26262)"/>
<path d="M205.507 135.375L223.4 133.617" stroke="#575D68" stroke-width="0.5" stroke-miterlimit="10"/>
<path d="M206.843 125.174L203.686 134.523L219.781 142.061L223.4 133.618L206.843 125.174Z" fill="#DDDEDF" stroke="#575D68" stroke-width="0.5" stroke-miterlimit="10"/>
<path d="M206.843 125.174L203.686 134.523L219.781 142.061L223.4 133.618L206.843 125.174Z" fill="#FFA08A" stroke="#575D68" stroke-width="0.5" stroke-miterlimit="10"/>
<path d="M195.709 69.388C197.156 69.1277 198.637 69.1277 200.084 69.388C202.734 69.7131 206.962 72.1016 206.962 72.1016" fill="#F6F6F6"/>
<path d="M195.709 69.388C197.156 69.1277 198.637 69.1277 200.084 69.388C202.734 69.7131 206.962 72.1016 206.962 72.1016" stroke="#575D68" stroke-width="0.5" stroke-miterlimit="10"/>
<path d="M187.063 67.428C188.948 66.8249 191.328 68.6041 191.328 68.6041C191.752 69.0422 192.06 69.578 192.227 70.164C192.394 70.75 192.413 71.368 192.284 71.9634L190.669 79.402C190.626 79.5916 190.622 79.7878 190.657 79.9791C190.691 80.1703 190.763 80.3527 190.869 80.5155C191.503 81.4829 192.868 82.9577 195.708 81.8142" fill="#F6F6F6"/>
<path d="M187.063 67.428C188.948 66.8249 191.328 68.6041 191.328 68.6041C191.752 69.0422 192.06 69.578 192.227 70.164C192.394 70.75 192.413 71.368 192.284 71.9634L190.669 79.402C190.626 79.5916 190.622 79.7878 190.657 79.9791C190.691 80.1703 190.763 80.3527 190.869 80.5155C191.503 81.4829 192.868 82.9577 195.708 81.8142" stroke="#575D68" stroke-width="0.5" stroke-miterlimit="10"/>
<path d="M114.363 200.071C107.822 200.071 102.597 198.815 97.9233 194.958C90.3906 188.742 88.433 181.553 88.394 181.103V170.406C88.4029 170.501 89.9474 183.838 100.176 192.114C105.331 196.286 112.316 197.313 121.087 195.851C130.85 194.223 141.857 183.546 146.822 177.493C151.09 172.288 155.227 170.095 159.119 170.977C164.557 172.211 167.447 179.025 168.579 182.471C168.658 182.709 168.687 182.961 168.665 183.211C168.642 183.46 168.567 183.703 168.446 183.923C168.325 184.142 168.16 184.334 167.961 184.487C167.762 184.64 167.533 184.75 167.29 184.81C166.847 184.92 166.38 184.859 165.98 184.639C165.581 184.419 165.279 184.056 165.136 183.624C164.068 180.41 161.695 175.277 158.314 174.514C155.277 173.828 151.912 177.007 149.627 179.794C148.17 181.569 135.011 197.206 121.684 199.429C119.266 199.844 116.817 200.059 114.363 200.071Z" fill="#F6F6F6" stroke="#575D68" stroke-width="0.5" stroke-miterlimit="10"/>
<path d="M180.526 192.968L173.696 198.45" stroke="#575D68" stroke-width="0.5" stroke-miterlimit="10"/>
<path d="M193.214 114.524L189.623 137.05L187.879 166.636L189.552 179.562" stroke="#575D68" stroke-width="0.5" stroke-miterlimit="10"/>
<path d="M217.972 155.63L219.33 145" stroke="#575D68" stroke-width="0.5" stroke-miterlimit="10"/>
<path d="M186.523 195.062L185.601 208.307" stroke="#575D68" stroke-width="0.5" stroke-miterlimit="10"/>
<path d="M221.741 183.574C220.29 182.006 218.721 180.553 217.047 179.225C217.047 179.225 221.421 177.892 224.144 179.225" stroke="#575D68" stroke-width="0.5" stroke-miterlimit="10"/>
<path style="mix-blend-mode:multiply" d="M242.749 177.342C242.749 177.342 236.976 181.005 236.727 181.524L242.749 177.342Z" fill="url(#paint20_linear_3_26262)"/>
<path d="M243.121 184.961L232.295 190.773" stroke="#575D68" stroke-width="0.5" stroke-miterlimit="10"/>
<path d="M160.184 144.624C162.268 145.943 163.815 147.96 164.548 150.315L166.018 154.498" stroke="#575D68" stroke-width="0.5" stroke-miterlimit="10"/>
<path d="M169.539 214.452V230.012L164.193 232.689" stroke="#575D68" stroke-width="0.5" stroke-miterlimit="10"/>
<path d="M166.327 211.568L163.1 221.684L166.773 223.519L169.821 213.523L166.327 211.568Z" fill="#FFA08A" stroke="#575D68" stroke-width="0.5" stroke-miterlimit="10"/>
<path d="M223.429 195.752C223.429 195.752 223.999 205.037 225.963 208.502C229.28 214.351 237.708 214.351 237.708 214.351" stroke="#575D68" stroke-width="0.5" stroke-miterlimit="10"/>
<path d="M221.002 196.049C221.002 196.049 221.572 205.334 223.537 208.799C226.854 214.648 234.413 216.192 234.413 216.192" stroke="#575D68" stroke-width="0.5" stroke-miterlimit="10"/>
<path d="M187.063 217.543L190.546 227.004L190.124 240.871" stroke="#575D68" stroke-width="0.5" stroke-miterlimit="10"/>
<path style="mix-blend-mode:multiply" d="M227.27 128.656L223.4 133.618L219.781 142.061L215.409 175.506L193.741 181.927L217.047 179.225L227.27 128.656Z" fill="url(#paint21_linear_3_26262)"/>
<path style="mix-blend-mode:multiply" d="M195.336 199.203L224.144 221.93L244.372 210.627L242.749 177.342L245.364 163.5L230.315 194.905L195.336 199.203Z" fill="url(#paint22_linear_3_26262)"/>
<path style="mix-blend-mode:multiply" d="M175.003 161.435L166.018 138.744L164.599 168.577L175.85 178.117L182.169 175.506L175.003 161.435Z" fill="url(#paint23_linear_3_26262)"/>
<path d="M265.666 60.2064C246.063 58.3307 224.144 20.3321 209.857 -21.5271C202.644 -42.6604 197.02 -85.9242 197.01 -91.5862" fill="#F6F6F6"/>
<path d="M265.666 60.2064C246.063 58.3307 224.144 20.3321 209.857 -21.5271C202.644 -42.6604 197.02 -85.9242 197.01 -91.5862" stroke="#575D68" stroke-width="0.5" stroke-miterlimit="10"/>
<path d="M265.662 56.2814C251.296 42.0771 237.199 14.1506 226.996 -15.7452C219.783 -36.8786 214.158 -80.1424 214.148 -85.8043" fill="#F6F6F6"/>
<path d="M265.662 56.2814C251.296 42.0771 237.199 14.1506 226.996 -15.7452C219.783 -36.8786 214.158 -80.1424 214.148 -85.8043" stroke="#575D68" stroke-width="0.5" stroke-miterlimit="10"/>
<path d="M266.505 51.6524C259.341 38.5541 252.739 23.0679 247.26 7.01382C240.047 -14.1195 234.422 -57.3833 234.412 -63.0453" fill="#F6F6F6"/>
<path d="M266.505 51.6524C259.341 38.5541 252.739 23.0679 247.26 7.01382C240.047 -14.1195 234.422 -57.3833 234.412 -63.0453" stroke="#575D68" stroke-width="0.5" stroke-miterlimit="10"/>
<path d="M279.884 214.264L257.519 201.468L88.3926 299.089V326L279.884 214.264Z" fill="#F6F6F6" stroke="#575D68" stroke-width="0.5" stroke-miterlimit="10"/>
<path d="M256.337 -127.948L257.519 201.468L279.884 214.264V-141.615L256.337 -127.948Z" fill="#F6F6F6" stroke="#575D68" stroke-width="0.5" stroke-miterlimit="10"/>
<path d="M101.219 246.26C101.219 246.26 108.484 243.481 111.258 246.251C111.92 246.91 112.444 247.692 112.803 248.553C113.162 249.415 113.347 250.338 113.348 251.271C113.35 252.204 113.167 253.128 112.811 253.991C112.455 254.853 111.932 255.637 111.273 256.297C110.614 256.958 109.831 257.482 108.969 257.839C108.108 258.197 107.184 258.381 106.251 258.381C105.318 258.381 104.394 258.197 103.532 257.84C102.67 257.483 101.887 256.96 101.227 256.3C98.4524 253.53 101.219 246.26 101.219 246.26Z" fill="#F6F6F6" stroke="#575D68" stroke-width="0.5" stroke-miterlimit="10"/>
<path d="M101.211 271.235L101.076 298.548L111.063 304.579L136.583 288.899V261.347L110.877 277.823L101.211 271.235Z" fill="#F6F6F6" stroke="#575D68" stroke-width="0.5" stroke-miterlimit="10"/>
<path d="M98.7302 280.995C98.7302 280.995 95.0312 270.558 99.0707 266.707C100.031 265.791 101.163 265.073 102.401 264.595C103.638 264.116 104.958 263.886 106.285 263.918C107.612 263.949 108.92 264.242 110.133 264.779C111.347 265.316 112.443 266.087 113.359 267.047C114.274 268.008 114.992 269.139 115.471 270.377C115.949 271.615 116.179 272.935 116.148 274.262C116.116 275.588 115.823 276.896 115.286 278.11C114.749 279.323 113.979 280.419 113.018 281.335C108.979 285.187 98.7302 280.995 98.7302 280.995Z" fill="#F6F6F6" stroke="#575D68" stroke-width="0.5" stroke-miterlimit="10"/>
<path d="M124.395 278.684C124.395 278.684 113.51 280.714 110.334 276.124C109.579 275.032 109.047 273.803 108.767 272.506C108.487 271.208 108.465 269.869 108.703 268.563C108.94 267.257 109.433 266.011 110.152 264.896C110.871 263.781 111.803 262.818 112.895 262.063C113.986 261.308 115.216 260.775 116.513 260.495C117.81 260.215 119.15 260.193 120.455 260.431C121.761 260.669 123.007 261.161 124.122 261.881C125.238 262.6 126.2 263.532 126.956 264.623C130.131 269.213 124.395 278.684 124.395 278.684Z" fill="#F6F6F6" stroke="#575D68" stroke-width="0.5" stroke-miterlimit="10"/>
<path d="M139.578 253.731C139.578 253.731 138.238 264.722 132.905 266.37C130.344 267.161 127.574 266.902 125.204 265.651C122.833 264.399 121.057 262.258 120.266 259.697C119.475 257.136 119.734 254.366 120.985 251.996C122.236 249.625 124.378 247.849 126.939 247.058C132.272 245.411 139.578 253.731 139.578 253.731Z" fill="#F6F6F6" stroke="#575D68" stroke-width="0.5" stroke-miterlimit="10"/>
<path d="M120.934 243.137C120.934 243.137 126.391 248.681 124.964 252.333C124.279 254.087 122.925 255.497 121.201 256.252C119.476 257.008 117.522 257.048 115.768 256.363C114.015 255.678 112.605 254.324 111.849 252.599C111.093 250.875 111.054 248.921 111.739 247.167C113.165 243.515 120.934 243.137 120.934 243.137Z" fill="#F6F6F6" stroke="#575D68" stroke-width="0.5" stroke-miterlimit="10"/>
<path d="M97.2627 259.113C97.2627 259.113 103.562 254.55 106.959 256.508C108.59 257.448 109.781 258.998 110.269 260.816C110.758 262.634 110.504 264.572 109.564 266.204C108.623 267.835 107.074 269.026 105.255 269.514C103.437 270.003 101.499 269.749 99.8677 268.809C96.4709 266.851 97.2627 259.113 97.2627 259.113Z" fill="#F6F6F6" stroke="#575D68" stroke-width="0.5" stroke-miterlimit="10"/>
<path d="M111.983 253.211C111.983 253.211 119.493 255.236 120.108 259.108C120.403 260.968 119.948 262.869 118.842 264.392C117.736 265.916 116.07 266.938 114.21 267.233C112.351 267.529 110.45 267.073 108.927 265.967C107.403 264.861 106.381 263.195 106.085 261.336C105.47 257.464 111.983 253.211 111.983 253.211Z" fill="#F6F6F6" stroke="#575D68" stroke-width="0.5" stroke-miterlimit="10"/>
<path d="M111.062 304.579V285.857" stroke="#575D68" stroke-width="0.5" stroke-miterlimit="10"/>
<path d="M127.879 -52.8611C127.879 -52.8611 138.066 8.22663 126.097 73.7671C117.013 123.515 88.3926 147.818 88.3926 147.818V-29.805L127.879 -52.8611Z" fill="#F6F6F6" stroke="#575D68" stroke-width="0.5" stroke-miterlimit="10"/>
<path d="M174.118 70.2881V-79.8593" stroke="#575D68" stroke-width="0.5" stroke-miterlimit="10"/>
<path d="M166.772 160.567L170.692 171.121L170.635 180.579C170.635 180.579 167.5 180.896 167.423 178.515L166.772 173.692L164.371 172.647L164.19 177.458C164.149 178.549 164.357 179.636 164.8 180.634C165.242 181.633 165.906 182.518 166.742 183.221L167.386 184.348L166.772 185.164H164.597L163.1 186.179L160.059 185.164L152.901 178.961C152.901 178.961 153.725 163.109 152.901 163.588C152.901 163.588 152.485 159.446 157.31 158.642C162.134 157.837 166.772 160.567 166.772 160.567Z" fill="#F6F6F6" stroke="#575D68" stroke-width="0.5" stroke-miterlimit="10"/>
<path d="M160.752 174.624V179.71L164.597 185.165" fill="#F6F6F6"/>
<path d="M160.752 174.624V179.71L164.597 185.165" stroke="#575D68" stroke-width="0.5" stroke-miterlimit="10"/>
<path d="M160.183 185.165L156.338 179.71L155.928 174.171" fill="#F6F6F6"/>
<path d="M160.183 185.165L156.338 179.71L155.928 174.171" stroke="#575D68" stroke-width="0.5" stroke-miterlimit="10"/>
<path d="M150.567 159.622C151.151 158.655 151.929 157.818 152.851 157.165C153.773 156.512 154.821 156.057 155.927 155.827C158.337 155.236 160.878 155.519 163.099 156.626" stroke="#575D68" stroke-width="0.5" stroke-miterlimit="10"/>
<defs>
<linearGradient id="paint0_linear_3_26262" x1="214.964" y1="138.209" x2="171.233" y2="199.755" gradientUnits="userSpaceOnUse">
<stop stop-color="#EAEAEA"/>
<stop offset="0.12859" stop-color="#EAEAEA" stop-opacity="0.98494"/>
<stop offset="0.24295" stop-color="#EBEBEB" stop-opacity="0.93862"/>
<stop offset="0.352" stop-color="#EDEDED" stop-opacity="0.86078"/>
<stop offset="0.4577" stop-color="#EFEFEF" stop-opacity="0.75135"/>
<stop offset="0.56108" stop-color="#F2F2F2" stop-opacity="0.6101"/>
<stop offset="0.66269" stop-color="#F6F6F6" stop-opacity="0.43687"/>
<stop offset="0.76112" stop-color="#FAFAFA" stop-opacity="0.23535"/>
<stop offset="0.85781" stop-color="white" stop-opacity="0.01"/>
<stop offset="0.85943" stop-color="white" stop-opacity="0"/>
</linearGradient>
<linearGradient id="paint1_linear_3_26262" x1="200.083" y1="236.245" x2="200.083" y2="182.602" gradientUnits="userSpaceOnUse">
<stop stop-color="#EAEAEA"/>
<stop offset="0.12859" stop-color="#EAEAEA" stop-opacity="0.98494"/>
<stop offset="0.24295" stop-color="#EBEBEB" stop-opacity="0.93862"/>
<stop offset="0.352" stop-color="#EDEDED" stop-opacity="0.86078"/>
<stop offset="0.4577" stop-color="#EFEFEF" stop-opacity="0.75135"/>
<stop offset="0.56108" stop-color="#F2F2F2" stop-opacity="0.6101"/>
<stop offset="0.66269" stop-color="#F6F6F6" stop-opacity="0.43687"/>
<stop offset="0.76112" stop-color="#FAFAFA" stop-opacity="0.23535"/>
<stop offset="0.85781" stop-color="white" stop-opacity="0.01"/>
<stop offset="0.85943" stop-color="white" stop-opacity="0"/>
</linearGradient>
<linearGradient id="paint2_linear_3_26262" x1="194.915" y1="198.442" x2="174.643" y2="274.003" gradientUnits="userSpaceOnUse">
<stop stop-color="#EAEAEA"/>
<stop offset="0.12859" stop-color="#EAEAEA" stop-opacity="0.98494"/>
<stop offset="0.24295" stop-color="#EBEBEB" stop-opacity="0.93862"/>
<stop offset="0.352" stop-color="#EDEDED" stop-opacity="0.86078"/>
<stop offset="0.4577" stop-color="#EFEFEF" stop-opacity="0.75135"/>
<stop offset="0.56108" stop-color="#F2F2F2" stop-opacity="0.6101"/>
<stop offset="0.66269" stop-color="#F6F6F6" stop-opacity="0.43687"/>
<stop offset="0.76112" stop-color="#FAFAFA" stop-opacity="0.23535"/>
<stop offset="0.85781" stop-color="white" stop-opacity="0.01"/>
<stop offset="0.85943" stop-color="white" stop-opacity="0"/>
</linearGradient>
<linearGradient id="paint3_linear_3_26262" x1="214.053" y1="138.542" x2="213.45" y2="153.217" gradientUnits="userSpaceOnUse">
<stop stop-color="#EAEAEA"/>
<stop offset="0.12859" stop-color="#EAEAEA" stop-opacity="0.98494"/>
<stop offset="0.24295" stop-color="#EBEBEB" stop-opacity="0.93862"/>
<stop offset="0.352" stop-color="#EDEDED" stop-opacity="0.86078"/>
<stop offset="0.4577" stop-color="#EFEFEF" stop-opacity="0.75135"/>
<stop offset="0.56108" stop-color="#F2F2F2" stop-opacity="0.6101"/>
<stop offset="0.66269" stop-color="#F6F6F6" stop-opacity="0.43687"/>
<stop offset="0.76112" stop-color="#FAFAFA" stop-opacity="0.23535"/>
<stop offset="0.85781" stop-color="white" stop-opacity="0.01"/>
<stop offset="0.85943" stop-color="white" stop-opacity="0"/>
</linearGradient>
<linearGradient id="paint4_linear_3_26262" x1="184.737" y1="98.1603" x2="194.512" y2="98.1603" gradientUnits="userSpaceOnUse">
<stop stop-color="#EAEAEA"/>
<stop offset="0.12859" stop-color="#EAEAEA" stop-opacity="0.98494"/>
<stop offset="0.24295" stop-color="#EBEBEB" stop-opacity="0.93862"/>
<stop offset="0.352" stop-color="#EDEDED" stop-opacity="0.86078"/>
<stop offset="0.4577" stop-color="#EFEFEF" stop-opacity="0.75135"/>
<stop offset="0.56108" stop-color="#F2F2F2" stop-opacity="0.6101"/>
<stop offset="0.66269" stop-color="#F6F6F6" stop-opacity="0.43687"/>
<stop offset="0.76112" stop-color="#FAFAFA" stop-opacity="0.23535"/>
<stop offset="0.85781" stop-color="white" stop-opacity="0.01"/>
<stop offset="0.85943" stop-color="white" stop-opacity="0"/>
</linearGradient>
<linearGradient id="paint5_linear_3_26262" x1="193.588" y1="100.835" x2="227.271" y2="100.835" gradientUnits="userSpaceOnUse">
<stop stop-color="#EAEAEA"/>
<stop offset="0.12859" stop-color="#EAEAEA" stop-opacity="0.98494"/>
<stop offset="0.24295" stop-color="#EBEBEB" stop-opacity="0.93862"/>
<stop offset="0.352" stop-color="#EDEDED" stop-opacity="0.86078"/>
<stop offset="0.4577" stop-color="#EFEFEF" stop-opacity="0.75135"/>
<stop offset="0.56108" stop-color="#F2F2F2" stop-opacity="0.6101"/>
<stop offset="0.66269" stop-color="#F6F6F6" stop-opacity="0.43687"/>
<stop offset="0.76112" stop-color="#FAFAFA" stop-opacity="0.23535"/>
<stop offset="0.85781" stop-color="white" stop-opacity="0.01"/>
<stop offset="0.85943" stop-color="white" stop-opacity="0"/>
</linearGradient>
<linearGradient id="paint6_linear_3_26262" x1="244.143" y1="132.455" x2="203.535" y2="203.218" gradientUnits="userSpaceOnUse">
<stop stop-color="#EAEAEA"/>
<stop offset="0.13909" stop-color="#EAEAEA" stop-opacity="0.98494"/>
<stop offset="0.26279" stop-color="#EBEBEB" stop-opacity="0.93862"/>
<stop offset="0.38074" stop-color="#EDEDED" stop-opacity="0.86078"/>
<stop offset="0.49507" stop-color="#EFEFEF" stop-opacity="0.75135"/>
<stop offset="0.60689" stop-color="#F2F2F2" stop-opacity="0.6101"/>
<stop offset="0.71679" stop-color="#F6F6F6" stop-opacity="0.43687"/>
<stop offset="0.82326" stop-color="#FAFAFA" stop-opacity="0.23535"/>
<stop offset="0.92785" stop-color="white" stop-opacity="0.01"/>
<stop offset="0.9296" stop-color="white" stop-opacity="0"/>
</linearGradient>
<linearGradient id="paint7_linear_3_26262" x1="203.686" y1="133.618" x2="223.4" y2="133.618" gradientUnits="userSpaceOnUse">
<stop stop-color="#EAEAEA"/>
<stop offset="0.12859" stop-color="#EAEAEA" stop-opacity="0.98494"/>
<stop offset="0.24295" stop-color="#EBEBEB" stop-opacity="0.93862"/>
<stop offset="0.352" stop-color="#EDEDED" stop-opacity="0.86078"/>
<stop offset="0.4577" stop-color="#EFEFEF" stop-opacity="0.75135"/>
<stop offset="0.56108" stop-color="#F2F2F2" stop-opacity="0.6101"/>
<stop offset="0.66269" stop-color="#F6F6F6" stop-opacity="0.43687"/>
<stop offset="0.76112" stop-color="#FAFAFA" stop-opacity="0.23535"/>
<stop offset="0.85781" stop-color="white" stop-opacity="0.01"/>
<stop offset="0.85943" stop-color="white" stop-opacity="0"/>
</linearGradient>
<linearGradient id="paint8_linear_3_26262" x1="236.728" y1="179.433" x2="242.749" y2="179.433" gradientUnits="userSpaceOnUse">
<stop stop-color="#EAEAEA"/>
<stop offset="0.14963" stop-color="#EAEAEA" stop-opacity="0.98494"/>
<stop offset="0.28269" stop-color="#EBEBEB" stop-opacity="0.93862"/>
<stop offset="0.40958" stop-color="#EDEDED" stop-opacity="0.86078"/>
<stop offset="0.53256" stop-color="#EFEFEF" stop-opacity="0.75135"/>
<stop offset="0.65285" stop-color="#F2F2F2" stop-opacity="0.6101"/>
<stop offset="0.77107" stop-color="#F6F6F6" stop-opacity="0.43687"/>
<stop offset="0.88561" stop-color="#FAFAFA" stop-opacity="0.23535"/>
<stop offset="0.99812" stop-color="white" stop-opacity="0.01"/>
<stop offset="1" stop-color="white" stop-opacity="0"/>
</linearGradient>
<linearGradient id="paint9_linear_3_26262" x1="213.821" y1="124.83" x2="200.955" y2="243.036" gradientUnits="userSpaceOnUse">
<stop stop-color="#EAEAEA"/>
<stop offset="0.14963" stop-color="#EAEAEA" stop-opacity="0.98494"/>
<stop offset="0.28269" stop-color="#EBEBEB" stop-opacity="0.93862"/>
<stop offset="0.40958" stop-color="#EDEDED" stop-opacity="0.86078"/>
<stop offset="0.53256" stop-color="#EFEFEF" stop-opacity="0.75135"/>
<stop offset="0.65285" stop-color="#F2F2F2" stop-opacity="0.6101"/>
<stop offset="0.77107" stop-color="#F6F6F6" stop-opacity="0.43687"/>
<stop offset="0.88561" stop-color="#FAFAFA" stop-opacity="0.23535"/>
<stop offset="0.99812" stop-color="white" stop-opacity="0.01"/>
<stop offset="1" stop-color="white" stop-opacity="0"/>
</linearGradient>
<linearGradient id="paint10_linear_3_26262" x1="245.579" y1="177.644" x2="193.878" y2="232.453" gradientUnits="userSpaceOnUse">
<stop stop-color="#EAEAEA"/>
<stop offset="0.14963" stop-color="#EAEAEA" stop-opacity="0.98494"/>
<stop offset="0.28269" stop-color="#EBEBEB" stop-opacity="0.93862"/>
<stop offset="0.40958" stop-color="#EDEDED" stop-opacity="0.86078"/>
<stop offset="0.53256" stop-color="#EFEFEF" stop-opacity="0.75135"/>
<stop offset="0.65285" stop-color="#F2F2F2" stop-opacity="0.6101"/>
<stop offset="0.77107" stop-color="#F6F6F6" stop-opacity="0.43687"/>
<stop offset="0.88561" stop-color="#FAFAFA" stop-opacity="0.23535"/>
<stop offset="0.99812" stop-color="white" stop-opacity="0.01"/>
<stop offset="1" stop-color="white" stop-opacity="0"/>
</linearGradient>
<linearGradient id="paint11_linear_3_26262" x1="165.123" y1="178.53" x2="185.427" y2="130.082" gradientUnits="userSpaceOnUse">
<stop stop-color="#EAEAEA"/>
<stop offset="0.14963" stop-color="#EAEAEA" stop-opacity="0.98494"/>
<stop offset="0.28269" stop-color="#EBEBEB" stop-opacity="0.93862"/>
<stop offset="0.40958" stop-color="#EDEDED" stop-opacity="0.86078"/>
<stop offset="0.53256" stop-color="#EFEFEF" stop-opacity="0.75135"/>
<stop offset="0.65285" stop-color="#F2F2F2" stop-opacity="0.6101"/>
<stop offset="0.77107" stop-color="#F6F6F6" stop-opacity="0.43687"/>
<stop offset="0.88561" stop-color="#FAFAFA" stop-opacity="0.23535"/>
<stop offset="0.99812" stop-color="white" stop-opacity="0.01"/>
<stop offset="1" stop-color="white" stop-opacity="0"/>
</linearGradient>
<linearGradient id="paint12_linear_3_26262" x1="145.354" y1="170.812" x2="254.811" y2="170.812" gradientUnits="userSpaceOnUse">
<stop offset="0.0987" stop-color="#A164FB"/>
<stop offset="0.18371" stop-color="#9C59FC"/>
<stop offset="0.34364" stop-color="#954DFE"/>
<stop offset="0.55349" stop-color="#9145FF"/>
<stop offset="1" stop-color="#9043FF"/>
</linearGradient>
<linearGradient id="paint13_linear_3_26262" x1="214.963" y1="138.209" x2="171.233" y2="199.755" gradientUnits="userSpaceOnUse">
<stop stop-color="#EAEAEA"/>
<stop offset="0.12859" stop-color="#EAEAEA" stop-opacity="0.98494"/>
<stop offset="0.24295" stop-color="#EBEBEB" stop-opacity="0.93862"/>
<stop offset="0.352" stop-color="#EDEDED" stop-opacity="0.86078"/>
<stop offset="0.4577" stop-color="#EFEFEF" stop-opacity="0.75135"/>
<stop offset="0.56108" stop-color="#F2F2F2" stop-opacity="0.6101"/>
<stop offset="0.66269" stop-color="#F6F6F6" stop-opacity="0.43687"/>
<stop offset="0.76112" stop-color="#FAFAFA" stop-opacity="0.23535"/>
<stop offset="0.85781" stop-color="white" stop-opacity="0.01"/>
<stop offset="0.85943" stop-color="white" stop-opacity="0"/>
</linearGradient>
<linearGradient id="paint14_linear_3_26262" x1="194.915" y1="198.442" x2="174.642" y2="274.003" gradientUnits="userSpaceOnUse">
<stop stop-color="#EAEAEA"/>
<stop offset="0.12859" stop-color="#EAEAEA" stop-opacity="0.98494"/>
<stop offset="0.24295" stop-color="#EBEBEB" stop-opacity="0.93862"/>
<stop offset="0.352" stop-color="#EDEDED" stop-opacity="0.86078"/>
<stop offset="0.4577" stop-color="#EFEFEF" stop-opacity="0.75135"/>
<stop offset="0.56108" stop-color="#F2F2F2" stop-opacity="0.6101"/>
<stop offset="0.66269" stop-color="#F6F6F6" stop-opacity="0.43687"/>
<stop offset="0.76112" stop-color="#FAFAFA" stop-opacity="0.23535"/>
<stop offset="0.85781" stop-color="white" stop-opacity="0.01"/>
<stop offset="0.85943" stop-color="white" stop-opacity="0"/>
</linearGradient>
<linearGradient id="paint15_linear_3_26262" x1="214.053" y1="138.542" x2="213.45" y2="153.217" gradientUnits="userSpaceOnUse">
<stop offset="0.0987" stop-color="#A164FB"/>
<stop offset="0.18371" stop-color="#9C59FC"/>
<stop offset="0.34364" stop-color="#954DFE"/>
<stop offset="0.55349" stop-color="#9145FF"/>
<stop offset="1" stop-color="#9043FF"/>
</linearGradient>
<linearGradient id="paint16_linear_3_26262" x1="184.737" y1="98.1603" x2="194.511" y2="98.1603" gradientUnits="userSpaceOnUse">
<stop offset="0.0987" stop-color="#A164FB"/>
<stop offset="0.18371" stop-color="#9C59FC"/>
<stop offset="0.34364" stop-color="#954DFE"/>
<stop offset="0.55349" stop-color="#9145FF"/>
<stop offset="1" stop-color="#9043FF"/>
</linearGradient>
<linearGradient id="paint17_linear_3_26262" x1="193.587" y1="100.835" x2="227.271" y2="100.835" gradientUnits="userSpaceOnUse">
<stop offset="0.0987" stop-color="#A164FB"/>
<stop offset="0.18371" stop-color="#9C59FC"/>
<stop offset="0.34364" stop-color="#954DFE"/>
<stop offset="0.55349" stop-color="#9145FF"/>
<stop offset="1" stop-color="#9043FF"/>
</linearGradient>
<linearGradient id="paint18_linear_3_26262" x1="193.211" y1="151.449" x2="253.053" y2="151.449" gradientUnits="userSpaceOnUse">
<stop offset="0.0987" stop-color="#A164FB"/>
<stop offset="0.18371" stop-color="#9C59FC"/>
<stop offset="0.34364" stop-color="#954DFE"/>
<stop offset="0.55349" stop-color="#9145FF"/>
<stop offset="1" stop-color="#9043FF"/>
</linearGradient>
<linearGradient id="paint19_linear_3_26262" x1="244.143" y1="132.455" x2="203.535" y2="203.218" gradientUnits="userSpaceOnUse">
<stop stop-color="#EAEAEA"/>
<stop offset="0.13909" stop-color="#EAEAEA" stop-opacity="0.98494"/>
<stop offset="0.26279" stop-color="#EBEBEB" stop-opacity="0.93862"/>
<stop offset="0.38074" stop-color="#EDEDED" stop-opacity="0.86078"/>
<stop offset="0.49507" stop-color="#EFEFEF" stop-opacity="0.75135"/>
<stop offset="0.60689" stop-color="#F2F2F2" stop-opacity="0.6101"/>
<stop offset="0.71679" stop-color="#F6F6F6" stop-opacity="0.43687"/>
<stop offset="0.82326" stop-color="#FAFAFA" stop-opacity="0.23535"/>
<stop offset="0.92785" stop-color="white" stop-opacity="0.01"/>
<stop offset="0.9296" stop-color="white" stop-opacity="0"/>
</linearGradient>
<linearGradient id="paint20_linear_3_26262" x1="236.727" y1="179.433" x2="242.749" y2="179.433" gradientUnits="userSpaceOnUse">
<stop stop-color="#EAEAEA"/>
<stop offset="0.14963" stop-color="#EAEAEA" stop-opacity="0.98494"/>
<stop offset="0.28269" stop-color="#EBEBEB" stop-opacity="0.93862"/>
<stop offset="0.40958" stop-color="#EDEDED" stop-opacity="0.86078"/>
<stop offset="0.53256" stop-color="#EFEFEF" stop-opacity="0.75135"/>
<stop offset="0.65285" stop-color="#F2F2F2" stop-opacity="0.6101"/>
<stop offset="0.77107" stop-color="#F6F6F6" stop-opacity="0.43687"/>
<stop offset="0.88561" stop-color="#FAFAFA" stop-opacity="0.23535"/>
<stop offset="0.99812" stop-color="white" stop-opacity="0.01"/>
<stop offset="1" stop-color="white" stop-opacity="0"/>
</linearGradient>
<linearGradient id="paint21_linear_3_26262" x1="213.821" y1="124.83" x2="200.955" y2="243.036" gradientUnits="userSpaceOnUse">
<stop stop-color="#EAEAEA"/>
<stop offset="0.14963" stop-color="#EAEAEA" stop-opacity="0.98494"/>
<stop offset="0.28269" stop-color="#EBEBEB" stop-opacity="0.93862"/>
<stop offset="0.40958" stop-color="#EDEDED" stop-opacity="0.86078"/>
<stop offset="0.53256" stop-color="#EFEFEF" stop-opacity="0.75135"/>
<stop offset="0.65285" stop-color="#F2F2F2" stop-opacity="0.6101"/>
<stop offset="0.77107" stop-color="#F6F6F6" stop-opacity="0.43687"/>
<stop offset="0.88561" stop-color="#FAFAFA" stop-opacity="0.23535"/>
<stop offset="0.99812" stop-color="white" stop-opacity="0.01"/>
<stop offset="1" stop-color="white" stop-opacity="0"/>
</linearGradient>
<linearGradient id="paint22_linear_3_26262" x1="245.578" y1="177.644" x2="193.877" y2="232.453" gradientUnits="userSpaceOnUse">
<stop stop-color="#EAEAEA"/>
<stop offset="0.14963" stop-color="#EAEAEA" stop-opacity="0.98494"/>
<stop offset="0.28269" stop-color="#EBEBEB" stop-opacity="0.93862"/>
<stop offset="0.40958" stop-color="#EDEDED" stop-opacity="0.86078"/>
<stop offset="0.53256" stop-color="#EFEFEF" stop-opacity="0.75135"/>
<stop offset="0.65285" stop-color="#F2F2F2" stop-opacity="0.6101"/>
<stop offset="0.77107" stop-color="#F6F6F6" stop-opacity="0.43687"/>
<stop offset="0.88561" stop-color="#FAFAFA" stop-opacity="0.23535"/>
<stop offset="0.99812" stop-color="white" stop-opacity="0.01"/>
<stop offset="1" stop-color="white" stop-opacity="0"/>
</linearGradient>
<linearGradient id="paint23_linear_3_26262" x1="165.123" y1="178.53" x2="185.427" y2="130.082" gradientUnits="userSpaceOnUse">
<stop stop-color="#EAEAEA"/>
<stop offset="0.14963" stop-color="#EAEAEA" stop-opacity="0.98494"/>
<stop offset="0.28269" stop-color="#EBEBEB" stop-opacity="0.93862"/>
<stop offset="0.40958" stop-color="#EDEDED" stop-opacity="0.86078"/>
<stop offset="0.53256" stop-color="#EFEFEF" stop-opacity="0.75135"/>
<stop offset="0.65285" stop-color="#F2F2F2" stop-opacity="0.6101"/>
<stop offset="0.77107" stop-color="#F6F6F6" stop-opacity="0.43687"/>
<stop offset="0.88561" stop-color="#FAFAFA" stop-opacity="0.23535"/>
<stop offset="0.99812" stop-color="white" stop-opacity="0.01"/>
<stop offset="1" stop-color="white" stop-opacity="0"/>
</linearGradient>
</defs>
</svg>
