<svg width="345" height="308" viewBox="0 0 345 308" fill="none" xmlns="http://www.w3.org/2000/svg">
<path d="M-45.999 -56.4131V263L392.001 -5.47336V-307L-45.999 -56.4131Z" fill="#F6F6F6" stroke="#575D68" stroke-width="0.4" stroke-miterlimit="10"/>
<path d="M-45.999 305L392.001 52.5147L391.585 -211L-45.999 40.4974V305Z" fill="#F6F6F6" stroke="#575D68" stroke-width="0.4" stroke-miterlimit="10"/>
<path d="M42.5732 20.1087V137.797L45.8346 139.891L225.825 30.7322L229.684 -83.5573L226.618 -85.3187L42.5732 20.1087Z" fill="#F6F6F6" stroke="#575D68" stroke-width="0.4" stroke-miterlimit="10"/>
<path d="M45.8335 21.9554V139.891L229.683 33.7486V-83.5573L45.8335 21.9554Z" fill="#F6F6F6" stroke="#575D68" stroke-width="0.4" stroke-miterlimit="10"/>
<path d="M63.5986 15.853V126.034L213.445 39.1958V-70.3973L63.5986 15.853Z" stroke="#575D68" stroke-width="0.4" stroke-miterlimit="10"/>
<path d="M45.8348 21.9551L42.5732 20.1089" stroke="#575D68" stroke-width="0.4" stroke-miterlimit="10"/>
<path d="M270.57 50.0247L311.454 73.6118L45.9674 226.929L5.08301 203.341L270.57 50.0247Z" fill="#F6F6F6" stroke="#575D68" stroke-width="0.4" stroke-miterlimit="10"/>
<path d="M311.454 73.6119V83.0212L46.7288 236.338L5.08301 212.75V203.342L45.9674 226.929L311.454 73.6119Z" fill="#F6F6F6" stroke="#575D68" stroke-width="0.4" stroke-miterlimit="10"/>
<path d="M272.944 196.017C278.93 196.017 283.782 193.82 283.782 191.11C283.782 188.399 278.93 186.202 272.944 186.202C266.959 186.202 262.106 188.399 262.106 191.11C262.106 193.82 266.959 196.017 272.944 196.017Z" fill="#F6F6F6" stroke="#575D68" stroke-width="0.4" stroke-miterlimit="10"/>
<path d="M272.944 194.964C278.93 194.964 283.782 192.766 283.782 190.056C283.782 187.345 278.93 185.148 272.944 185.148C266.959 185.148 262.106 187.345 262.106 190.056C262.106 192.766 266.959 194.964 272.944 194.964Z" fill="#F6F6F6" stroke="#575D68" stroke-width="0.4" stroke-miterlimit="10"/>
<path d="M272.944 190.056C272.394 190.056 271.867 189.837 271.478 189.449C271.089 189.06 270.871 188.533 270.871 187.983V136.112H275.017V187.983C275.017 188.255 274.963 188.525 274.859 188.776C274.755 189.028 274.602 189.256 274.409 189.449C274.217 189.641 273.988 189.794 273.737 189.898C273.486 190.002 273.216 190.056 272.944 190.056Z" fill="#F6F6F6" stroke="#575D68" stroke-width="0.4" stroke-miterlimit="10"/>
<path d="M272.944 145.744C290.098 145.744 304.003 139.447 304.003 131.679C304.003 123.911 290.098 117.614 272.944 117.614C255.791 117.614 241.886 123.911 241.886 131.679C241.886 139.447 255.791 145.744 272.944 145.744Z" fill="#F6F6F6" stroke="#575D68" stroke-width="0.4" stroke-miterlimit="10"/>
<path d="M272.944 142.11C290.098 142.11 304.003 135.813 304.003 128.045C304.003 120.277 290.098 113.98 272.944 113.98C255.791 113.98 241.886 120.277 241.886 128.045C241.886 135.813 255.791 142.11 272.944 142.11Z" fill="#F6F6F6" stroke="#575D68" stroke-width="0.4" stroke-miterlimit="10"/>
<path d="M298.598 120.061C298.585 120.069 298.569 120.073 298.554 120.073C298.538 120.073 298.523 120.068 298.509 120.06C292.906 116.387 283.547 113.98 272.944 113.98C270.978 113.98 269.057 114.066 267.193 114.224C267.189 114.225 267.185 114.225 267.181 114.225L263.423 115.744C263.423 115.744 261.472 115.015 261.472 114.971L261.562 106.534C262.057 99.988 269.588 98.8266 274.077 98.8239C291.23 98.8239 304.002 104.624 304.002 112.391C304.002 115.641 302.677 117.687 298.598 120.061Z" fill="#F6F6F6" stroke="#575D68" stroke-width="0.4" stroke-miterlimit="10"/>
<path d="M296.07 121.736C296.057 121.744 296.041 121.748 296.026 121.748C296.01 121.748 295.995 121.743 295.981 121.735C290.378 118.062 281.019 115.655 270.416 115.655C268.45 115.655 263.502 115.829 263.502 115.829C263.481 115.827 263.461 115.818 263.446 115.802C263.431 115.786 263.423 115.766 263.423 115.744V108.63C263.423 106.474 264.279 104.407 265.803 102.882C267.327 101.357 269.393 100.5 271.549 100.499C288.959 99.8531 303.261 105.161 301.474 114.066C300.835 117.253 300.149 119.362 296.07 121.736Z" fill="#F6F6F6" stroke="#575D68" stroke-width="0.4" stroke-miterlimit="10"/>
<path d="M303.884 111.123L303.903 129.17C303.903 133.887 285.033 141.004 285.033 141.004L282.449 139.123V132.539C282.449 126.795 286.083 122.835 291.119 120.073C302.388 113.891 301.75 112.944 301.306 110.537" fill="#F6F6F6"/>
<path d="M303.884 111.123L303.903 129.17C303.903 133.887 285.033 141.004 285.033 141.004L282.449 139.123V132.539C282.449 126.795 286.083 122.835 291.119 120.073C302.388 113.891 301.75 112.944 301.306 110.537" stroke="#575D68" stroke-width="0.4" stroke-miterlimit="10"/>
<path d="M303.921 112.669C303.925 112.66 303.932 112.652 303.941 112.647C303.95 112.642 303.96 112.641 303.97 112.643C303.98 112.645 303.988 112.65 303.994 112.658C304 112.667 304.003 112.677 304.003 112.687V130.035C304.003 134.966 296.181 139.197 285.033 141.004V133.079C285.033 127.335 289.128 123.081 294.356 120.702C304.48 116.093 303.572 113.771 303.921 112.669Z" fill="#F6F6F6" stroke="#575D68" stroke-width="0.4" stroke-miterlimit="10"/>
<path d="M275.018 164.635C275.031 165.093 275.004 166.201 275.018 166.659C279.817 166.996 285.027 168.7 285.027 171.005C285.027 173.622 279.618 175.744 272.946 175.744C266.273 175.744 260.864 173.622 260.864 171.005C260.864 168.732 265.429 167.086 270.873 166.625C270.905 166.165 270.873 164.77 270.873 164.77C263.608 165.274 257.659 168.176 257.659 171.413C257.659 175.01 264.503 177.926 272.946 177.926C281.388 177.926 288.232 175.01 288.232 171.413C288.232 168.148 282.377 165.105 275.018 164.635Z" fill="#F6F6F6" stroke="#575D68" stroke-width="0.4" stroke-miterlimit="10"/>
<path d="M101.001 163.637L134.564 144L155.001 155.921L121.386 176L101.001 163.637Z" fill="#F6F6F6" stroke="#575D68" stroke-width="0.4" stroke-miterlimit="10"/>
<path d="M185.001 114.023L218.564 95L239.001 106.548L205.387 126L185.001 114.023Z" fill="#F6F6F6" stroke="#575D68" stroke-width="0.4" stroke-miterlimit="10"/>
<path d="M283.865 54.6656V58.9956C283.865 59.3015 283.784 59.6021 283.631 59.8668C283.477 60.1314 283.257 60.3509 282.991 60.5029L264.954 70.83C264.616 71.0235 264.233 71.1234 263.843 71.1195C263.454 71.1156 263.073 71.008 262.739 70.8078L249.466 62.85C249.213 62.6981 249.003 62.4832 248.858 62.2263C248.712 61.9693 248.636 61.6791 248.636 61.3838V57.3341" fill="#F6F6F6"/>
<path d="M283.865 54.6656V58.9956C283.865 59.3015 283.784 59.6021 283.631 59.8668C283.477 60.1314 283.257 60.3509 282.991 60.5029L264.954 70.83C264.616 71.0235 264.233 71.1234 263.843 71.1195C263.454 71.1156 263.073 71.008 262.739 70.8078L249.466 62.85C249.213 62.6981 249.003 62.4832 248.858 62.2263C248.712 61.9693 248.636 61.6791 248.636 61.3838V57.3341" stroke="#575D68" stroke-width="0.4" stroke-miterlimit="10"/>
<path d="M249.157 58.2293L262.744 66.068C263.018 66.2257 263.327 66.3102 263.642 66.3136C263.958 66.317 264.269 66.239 264.545 66.0872L283.324 55.7799C283.487 55.6905 283.623 55.5592 283.718 55.3995C283.813 55.2399 283.864 55.0578 283.865 54.872C283.866 54.6862 283.818 54.5035 283.724 54.3428C283.631 54.1821 283.497 54.0491 283.335 53.9578L268.571 45.623C268.412 45.5332 268.232 45.4868 268.049 45.4883C267.867 45.4899 267.688 45.5394 267.53 45.6319L249.15 56.427C248.993 56.5194 248.863 56.6515 248.773 56.8099C248.682 56.9684 248.635 57.1478 248.636 57.3302C248.636 57.5126 248.685 57.6916 248.777 57.8494C248.868 58.0072 248.999 58.1382 249.157 58.2293Z" fill="#F6F6F6" stroke="#575D68" stroke-width="0.4" stroke-miterlimit="10"/>
<path d="M261.135 57.9575L268.275 58.3236L269.057 53.6758L265.423 53.4785L265.123 55.6547L261.38 55.5768L261.135 57.9575Z" fill="#F6F6F6" stroke="#575D68" stroke-width="0.4" stroke-miterlimit="10"/>
<path d="M328.484 13.0081L327.36 12.6493L309.046 23.1364L306.571 28.7242L306.794 54.9859L310.059 56.5646L311.508 55.7237" fill="#F6F6F6"/>
<path d="M328.484 13.0081L327.36 12.6493L309.046 23.1364L306.571 28.7242L306.794 54.9859L310.059 56.5646L311.508 55.7237" stroke="#575D68" stroke-width="0.4" stroke-miterlimit="10"/>
<path d="M328.766 45.3664L311.507 55.7237L307.868 54.0443L307.448 29.1511L310 23.7574L328.483 13.0081L331.027 15.3441L331.447 40.2373L328.766 45.3664Z" fill="#F6F6F6" stroke="#575D68" stroke-width="0.4" stroke-miterlimit="10"/>
<path d="M327.658 43.9809L312.554 53.0443L309.368 51.5751L309.001 29.7899L311.235 25.0691L328.158 14.9139L330.385 16.9578L330.753 38.743L327.658 43.9809Z" fill="#F6F6F6" stroke="#575D68" stroke-width="0.4" stroke-miterlimit="10"/>
<path d="M307.448 29.1515L308.999 29.7902" stroke="#575D68" stroke-width="0.4" stroke-miterlimit="10"/>
<path d="M331.028 15.344L330.384 16.9581" stroke="#575D68" stroke-width="0.4" stroke-miterlimit="10"/>
<path d="M321.89 41.7935C322.637 39.9516 322.399 38.1157 321.356 37.6929C320.314 37.2701 318.864 38.4205 318.117 40.2624C317.369 42.1044 317.608 43.9403 318.65 44.3631C319.692 44.7859 321.143 43.6354 321.89 41.7935Z" fill="#F6F6F6" stroke="#575D68" stroke-width="0.4" stroke-miterlimit="10"/>
<path d="M321.613 41.6573C322.251 40.0851 322.047 38.5181 321.158 38.1572C320.269 37.7964 319.03 38.7783 318.393 40.3505C317.755 41.9226 317.959 43.4897 318.848 43.8506C319.737 44.2114 320.976 43.2295 321.613 41.6573Z" fill="#F6F6F6" stroke="#575D68" stroke-width="0.4" stroke-miterlimit="10"/>
<path d="M307.867 54.0446L309.367 51.5752" stroke="#575D68" stroke-width="0.4" stroke-miterlimit="10"/>
<path d="M328.766 45.3665L327.656 43.9806" stroke="#575D68" stroke-width="0.4" stroke-miterlimit="10"/>
<path d="M186.741 98.8239C186.71 100.258 186.59 101.689 186.381 103.108C186.247 103.682 186.065 104.243 185.837 104.786C185.767 104.952 185.756 105.136 185.805 105.309C185.855 105.483 185.962 105.633 186.109 105.737C186.348 105.898 186.633 105.977 186.921 105.965C187.436 105.917 187.947 105.834 188.451 105.717" fill="#F6F6F6"/>
<path d="M186.741 98.8239C186.71 100.258 186.59 101.689 186.381 103.108C186.247 103.682 186.065 104.243 185.837 104.786C185.767 104.952 185.756 105.136 185.805 105.309C185.855 105.483 185.962 105.633 186.109 105.737C186.348 105.898 186.633 105.977 186.921 105.965C187.436 105.917 187.947 105.834 188.451 105.717" stroke="#575D68" stroke-width="0.4" stroke-miterlimit="10"/>
<path d="M160.463 237.576C159.689 237.615 158.913 237.57 158.148 237.441L158.066 237.428C157.553 237.345 157.029 237.369 156.526 237.5C156.024 237.631 155.554 237.865 155.147 238.188C150.93 241.502 138.559 247.562 139.598 253.192C140.415 257.621 158.101 250.072 164.893 247.074C165.613 246.755 166.216 246.22 166.618 245.543C167.02 244.866 167.202 244.08 167.137 243.295C167.084 242.631 167.032 241.856 166.988 240.983C166.964 240.438 166.825 239.905 166.58 239.418C166.336 238.93 165.99 238.5 165.568 238.156C165.145 237.812 164.654 237.561 164.127 237.42C163.6 237.279 163.05 237.251 162.511 237.338C161.834 237.458 161.15 237.537 160.463 237.576Z" fill="#DDDEDF" stroke="#575D68" stroke-width="0.4" stroke-miterlimit="10"/>
<path d="M156.242 238.906C156.242 238.906 156.329 240.475 159.073 241.02C162.855 241.77 165.576 238.155 165.576 238.155V225.698L157.589 228.476L156.242 238.906Z" fill="#F6F6F6" stroke="#575D68" stroke-width="0.4" stroke-miterlimit="10"/>
<path d="M193.975 251.585C199.961 251.585 204.813 249.388 204.813 246.677C204.813 243.967 199.961 241.77 193.975 241.77C187.99 241.77 183.138 243.967 183.138 246.677C183.138 249.388 187.99 251.585 193.975 251.585Z" fill="#F6F6F6" stroke="#575D68" stroke-width="0.4" stroke-miterlimit="10"/>
<path d="M201.858 170.308C201.858 170.308 202.92 170.441 203.443 170.517C206.941 170.998 210.378 171.848 213.697 173.05C220.62 170.471 225.035 166.561 225.035 162.185C225.035 154.974 217.536 151.569 206.76 149.363C206.724 149.355 206.678 149.348 206.621 149.34C206.024 149.264 205.417 149.316 204.841 149.493C204.266 149.67 203.735 149.969 203.284 150.368C202.833 150.767 202.472 151.258 202.226 151.808C201.98 152.358 201.855 152.954 201.858 153.556V170.308Z" fill="#F6F6F6" stroke="#575D68" stroke-width="0.4" stroke-miterlimit="10"/>
<path d="M193.975 250.835C199.961 250.835 204.813 248.638 204.813 245.927C204.813 243.217 199.961 241.019 193.975 241.019C187.99 241.019 183.138 243.217 183.138 245.927C183.138 248.638 187.99 250.835 193.975 250.835Z" fill="#F6F6F6" stroke="#575D68" stroke-width="0.4" stroke-miterlimit="10"/>
<path d="M191.903 191.984H196.048V243.854C196.048 244.404 195.83 244.931 195.441 245.32C195.053 245.709 194.525 245.927 193.976 245.927C193.426 245.927 192.899 245.709 192.51 245.32C192.121 244.931 191.903 244.404 191.903 243.854V191.984Z" fill="#F6F6F6" stroke="#575D68" stroke-width="0.4" stroke-miterlimit="10"/>
<path d="M193.976 201.615C211.129 201.615 225.034 195.318 225.034 187.55C225.034 179.782 211.129 173.485 193.976 173.485C176.822 173.485 162.917 179.782 162.917 187.55C162.917 195.318 176.822 201.615 193.976 201.615Z" fill="#F6F6F6" stroke="#575D68" stroke-width="0.4" stroke-miterlimit="10"/>
<path d="M193.976 197.981C211.129 197.981 225.034 191.684 225.034 183.916C225.034 176.148 211.129 169.851 193.976 169.851C176.822 169.851 162.917 176.148 162.917 183.916C162.917 191.684 176.822 197.981 193.976 197.981Z" fill="#F6F6F6" stroke="#575D68" stroke-width="0.4" stroke-miterlimit="10"/>
<path d="M191.903 220.468C191.89 220.927 191.918 222.136 191.903 222.594C186.343 223.019 181.895 224.571 181.895 226.876C181.895 229.493 187.304 231.615 193.976 231.615C200.649 231.615 206.057 229.493 206.057 226.876C206.057 224.604 201.493 222.818 196.049 222.358C196.017 221.898 196.068 220.761 196.049 220.3C203.313 220.804 209.263 224.047 209.263 227.285C209.263 230.881 202.419 233.797 193.976 233.797C185.534 233.797 178.689 230.881 178.689 227.285C178.689 224.019 184.545 220.938 191.903 220.468Z" fill="#F6F6F6" stroke="#575D68" stroke-width="0.4" stroke-miterlimit="10"/>
<path d="M186.74 214.226C183.682 216.94 182.213 218.792 178.307 217.177C175.268 220.705 170.492 231.225 170.492 231.225C170.492 231.225 169.786 237.539 175.425 234.167C180.176 231.326 187.789 223.665 190.068 221.323C190.273 221.115 190.42 220.857 190.494 220.574C190.567 220.291 190.565 219.994 190.487 219.712C190.166 218.577 189.787 217.449 189.41 216.316C189.231 215.762 188.897 215.27 188.448 214.9C187.999 214.53 187.453 214.296 186.875 214.226C186.831 214.217 186.784 214.216 186.74 214.226Z" fill="#DDDEDF" stroke="#575D68" stroke-width="0.4" stroke-miterlimit="10"/>
<path d="M178.55 218.111C178.55 218.111 179.237 220.15 181.986 219.625C183.138 219.359 184.214 218.833 185.132 218.089C186.05 217.344 186.787 216.399 187.285 215.327L182.629 203.82L176.267 209.39L178.55 218.111Z" fill="#F6F6F6" stroke="#575D68" stroke-width="0.4" stroke-miterlimit="10"/>
<path d="M194.607 158.475C194.319 158.429 193.926 158.379 193.457 158.326V126.453L193.228 158.301C186.615 157.585 165.446 156.39 161.827 157.455C160.701 157.711 159.647 158.217 158.744 158.936C157.422 160.137 157.011 162.056 157.024 163.842C157.055 168.252 159.124 172.141 160.622 176.194C162.25 180.604 163.934 184.992 165.674 189.359C167.407 193.73 169.174 198.088 170.975 202.432C171.697 204.18 174.676 211.025 175.818 213.645C175.98 214.012 176.226 214.336 176.536 214.591C176.847 214.845 177.212 215.023 177.604 215.109C179.545 215.498 181.555 215.337 183.409 214.645C184.51 214.261 185.55 213.721 186.498 213.043C186.912 212.739 187.226 212.319 187.4 211.835C187.573 211.352 187.598 210.827 187.472 210.329L187.468 210.314C186.668 206.988 185.988 203.636 185.264 200.293C183.851 193.763 182.277 187.202 179.404 181.136C178.26 178.721 176.917 176.409 175.693 174.035C175.099 172.883 180.499 174.047 182.398 175.523L193.457 184.117V164.408L194.607 158.475Z" fill="#F6F6F6" stroke="#575D68" stroke-width="0.4" stroke-miterlimit="10"/>
<path d="M225.838 136.504C225.837 127.291 223.931 116.381 214.805 111.744C213.582 111.249 212.422 110.611 211.349 109.842C209.209 108.011 208.804 105.075 208.533 102.466C208.201 99.2692 208.366 96.041 207.883 92.8566C207.536 90.5741 207.125 88.1857 205.7 86.3693C204.205 84.6346 202.118 83.5183 199.846 83.2377C197.963 82.9451 196.04 83.0446 194.197 83.5299C192.354 84.0151 190.632 84.8757 189.137 86.0578C185.941 88.6168 184.867 91.0231 184.867 94.5845C184.867 99.0592 187.103 100.477 187.279 102.39C187.998 110.217 189.535 112.159 193.689 115.422C194.81 116.354 196.008 117.192 197.268 117.926C195.972 119.171 195.37 116.456 193.487 116.874C191.658 117.281 181.534 128.604 179.23 128.705L152.494 126.453C151.788 126.952 151.157 127.55 150.62 128.227C150.125 129.231 149.906 132.453 149.931 132.692C149.981 133.174 158.481 132.693 159.292 132.86C163.725 133.646 168.096 134.742 172.375 136.141C175.737 137.114 179.174 137.801 182.652 138.196L190.058 134.945L192.504 155.701L191.476 160.315C190.677 163.903 188.98 167.23 186.545 169.983C184.109 172.737 181.015 174.827 177.552 176.058L159.895 182.336C158.274 182.683 156.821 183.574 155.776 184.861C154.731 186.148 154.158 187.754 154.151 189.412C154.099 201.96 154.987 227.03 155.89 232.948C155.936 233.253 156.077 233.537 156.292 233.759C156.507 233.982 156.786 234.131 157.09 234.187C158.358 234.441 159.655 234.508 160.942 234.386C162.445 234.202 163.925 233.863 165.359 233.374C165.692 233.267 165.984 233.059 166.195 232.779C166.406 232.499 166.525 232.161 166.536 231.811C166.637 227.783 167.043 223.768 167.749 219.802C169.118 212.497 169.81 205.081 169.816 197.65L206.569 188.318C209.614 187.545 217.375 184.94 218.877 179.6C220.203 174.887 217.312 169.6 221.751 158.331C224.468 151.375 225.854 143.971 225.838 136.504Z" fill="#F6F6F6" stroke="#575D68" stroke-width="0.4" stroke-miterlimit="10"/>
<path d="M163.978 126.453C164.248 126.502 166.667 126.857 166.667 126.857L165.903 135.195C165.903 135.195 163.301 134.46 162.92 134.395C162.538 134.329 163.978 126.453 163.978 126.453Z" fill="#F6F6F6" stroke="#575D68" stroke-width="0.4" stroke-miterlimit="10"/>
<path d="M172.7 138.476C177.115 139.895 184.424 139.891 184.424 139.891L188.069 138.288C189.262 137.762 190.337 137.001 191.229 136.051C192.122 135.1 192.813 133.979 193.263 132.755C193.738 131.466 194.243 130.167 194.609 129.418C196.998 124.522 195.372 116.456 193.489 116.874C191.66 117.281 181.536 128.604 179.232 128.705L166.667 126.857C165.473 127.546 165.536 132.345 165.611 134.395C165.651 135.513 167.043 136.658 172.7 138.476Z" fill="#AFAFAF" stroke="#575D68" stroke-width="0.4" stroke-miterlimit="10"/>
<path style="mix-blend-mode:multiply" d="M172.7 138.476C177.115 139.895 184.424 139.891 184.424 139.891L188.069 138.288C189.262 137.762 190.337 137.001 191.229 136.051C192.122 135.1 192.813 133.979 193.263 132.755C193.738 131.466 194.243 130.167 194.609 129.418C196.998 124.522 195.372 116.456 193.489 116.874C191.66 117.281 181.536 128.604 179.232 128.705L166.667 126.857C165.473 127.546 165.536 132.345 165.611 134.395C165.651 135.513 167.043 136.658 172.7 138.476Z" fill="url(#paint0_linear_3_36855)"/>
<path d="M208.533 102.466C208.201 99.2692 208.366 96.041 207.883 92.8566C207.536 90.5741 207.124 88.1857 205.7 86.3693C204.205 84.6346 202.118 83.5183 199.845 83.2377C197.962 82.9451 196.039 83.0446 194.197 83.5299C192.354 84.0151 190.632 84.8757 189.137 86.0578C185.94 88.6168 184.867 91.0231 184.867 94.5845C184.867 99.0592 187.103 100.477 187.278 102.39C187.998 110.217 189.535 112.159 193.689 115.422C194.604 116.165 195.558 116.858 196.548 117.497C197.227 117.358 197.875 117.1 198.464 116.735C202.967 114.161 206.244 110.052 209.013 105.594C208.787 104.562 208.627 103.517 208.533 102.466V102.466Z" stroke="#575D68" stroke-width="0.4" stroke-miterlimit="10"/>
<path d="M183.877 86.3729C183.303 86.8557 182.91 87.5195 182.762 88.2553C182.615 88.9912 182.723 89.7552 183.067 90.4217C184.237 92.941 185.767 94.3386 187.746 94.0447C189.726 93.7508 192.335 92.8511 193.864 95.1004C195.394 97.3498 197.553 99.8691 200.792 99.5092C204.031 99.1493 203.725 103.266 207.703 102.49C210.369 101.969 211.949 99.959 211.409 96.54C210.87 93.121 213.707 89.2655 208.764 84.3552C203.821 79.4449 203.402 83.8147 201.422 81.7198C199.443 79.6248 196.906 77.7973 195.25 79.1159C193.594 80.4346 193.325 82.3241 191.345 82.1441C189.366 81.9642 187.904 81.1544 186.88 83.0439C186.102 84.3359 185.083 85.4662 183.877 86.3729Z" fill="#F6F6F6" stroke="#575D68" stroke-width="0.4" stroke-miterlimit="10"/>
<path style="mix-blend-mode:multiply" d="M183.877 86.3729C183.303 86.8557 182.91 87.5195 182.762 88.2553C182.615 88.9912 182.723 89.7552 183.067 90.4217C184.237 92.941 185.767 94.3386 187.746 94.0447C189.726 93.7508 192.335 92.8511 193.864 95.1004C195.394 97.3498 197.553 99.8691 200.792 99.5092C204.031 99.1493 203.725 103.266 207.703 102.49C210.369 101.969 211.949 99.959 211.409 96.54C210.87 93.121 213.707 89.2655 208.764 84.3552C203.821 79.4449 203.402 83.8147 201.422 81.7198C199.443 79.6248 196.906 77.7973 195.25 79.1159C193.594 80.4346 193.325 82.3241 191.345 82.1441C189.366 81.9642 187.904 81.1544 186.88 83.0439C186.102 84.3359 185.083 85.4662 183.877 86.3729Z" fill="url(#paint1_linear_3_36855)"/>
<path d="M187.784 109.434L198.18 99.6381C198.257 99.5652 198.348 99.5091 198.448 99.4731C198.548 99.4372 198.655 99.4222 198.761 99.4291C198.867 99.4361 198.97 99.4648 199.065 99.5134C199.159 99.5621 199.242 99.6297 199.309 99.712L203.588 104.955C203.713 105.108 203.774 105.303 203.76 105.499C203.746 105.696 203.657 105.88 203.512 106.014L193.401 115.313C193.252 115.45 193.056 115.523 192.854 115.517C192.652 115.51 192.46 115.425 192.32 115.28L187.756 110.534C187.686 110.46 187.63 110.373 187.593 110.278C187.556 110.182 187.538 110.081 187.541 109.978C187.543 109.876 187.566 109.775 187.608 109.682C187.649 109.589 187.709 109.505 187.784 109.434Z" fill="#F6F6F6" stroke="#575D68" stroke-width="0.4" stroke-miterlimit="10"/>
<path d="M219.19 177.868C219.612 173.531 217.845 168.248 221.752 158.331C224.468 151.375 225.855 143.971 225.839 136.504C225.838 127.291 223.931 116.381 214.805 111.745C214.179 111.427 213.527 111.147 212.901 110.83C210.699 111.369 209.014 111.791 209.014 111.791L202.53 116.649L199.593 137.772L198.211 162.671V174.953C198.211 174.953 205.448 181.367 211.739 181.431C218.015 181.495 219.184 177.885 219.19 177.868Z" fill="#AFAFAF" stroke="#575D68" stroke-width="0.4" stroke-miterlimit="10"/>
<path style="mix-blend-mode:multiply" d="M219.19 177.868C219.612 173.531 217.845 168.248 221.752 158.331C224.468 151.375 225.855 143.971 225.839 136.504C225.838 127.291 223.931 116.381 214.805 111.745C214.179 111.427 213.527 111.147 212.901 110.83C210.699 111.369 209.014 111.791 209.014 111.791L202.53 116.649L199.593 137.772L198.211 162.671V174.953C198.211 174.953 205.448 181.367 211.739 181.431C218.015 181.495 219.184 177.885 219.19 177.868Z" fill="url(#paint2_linear_3_36855)"/>
<path d="M213.553 115.885C208.622 118.189 205.752 122.827 203.656 127.851L199.421 140.886C200.029 135.958 200.114 130.98 199.676 126.034C199.516 124.51 199.457 122.977 199.497 121.445C197.456 120.589 195.034 120.572 192.84 120.667C192.764 120.963 192.679 121.256 192.584 121.548C188.833 132.078 188.364 143.498 191.239 154.3C192.037 157.415 196.26 156.166 199.247 154.975C204.138 153.169 208.519 150.207 212.017 146.341C217.595 140.452 218.879 125.485 218.879 125.485" fill="#AFAFAF"/>
<path d="M213.553 115.885C208.622 118.189 205.752 122.827 203.656 127.851L199.421 140.886C200.029 135.958 200.114 130.98 199.676 126.034C199.516 124.51 199.457 122.977 199.497 121.445C197.456 120.589 195.034 120.572 192.84 120.667C192.764 120.963 192.679 121.256 192.584 121.548C188.833 132.078 188.364 143.498 191.239 154.3C192.037 157.415 196.26 156.166 199.247 154.975C204.138 153.169 208.519 150.207 212.017 146.341C217.595 140.452 218.879 125.485 218.879 125.485" stroke="#575D68" stroke-width="0.4" stroke-miterlimit="10"/>
<path style="mix-blend-mode:multiply" d="M213.553 115.885C208.622 118.189 205.752 122.827 203.656 127.851L199.421 140.886C200.029 135.958 200.114 130.98 199.676 126.034C199.516 124.51 199.457 122.977 199.497 121.445C197.456 120.589 195.034 120.572 192.84 120.667C192.764 120.963 192.679 121.256 192.584 121.548C188.833 132.078 188.364 143.498 191.239 154.3C192.037 157.415 196.26 156.166 199.247 154.975C204.138 153.169 208.519 150.207 212.017 146.341C217.595 140.452 218.879 125.485 218.879 125.485" fill="url(#paint3_linear_3_36855)"/>
<path d="M193.628 102.106C192.916 102.613 192.28 103.218 191.74 103.905C191.386 104.681 191.243 105.537 191.324 106.386C191.433 108.15 192.105 109.812 192.446 111.533L193.017 114.42C193.37 116.212 193.372 118.056 193.023 119.849C195.218 119.669 197.427 119.921 199.525 120.592C199.698 116.843 200.281 113.812 200.782 112.928C201.857 111.053 202.698 109.053 203.285 106.972C203.307 106.893 203.305 106.81 203.279 106.732C203.252 106.655 203.203 106.587 203.138 106.537C203.073 106.488 202.995 106.459 202.913 106.455C202.831 106.45 202.75 106.47 202.68 106.513L201.173 107.645L199.633 109.598C198.657 108.239 198.012 106.672 197.749 105.02C197.658 104.259 197.43 103.52 197.077 102.839C196.766 102.243 196.656 101.563 196.764 100.9C196.867 100.593 196.886 100.264 196.82 99.9466C196.806 99.9031 196.779 99.865 196.743 99.8374C196.662 99.7844 196.555 99.8351 196.473 99.8869C195.688 100.384 195 101.02 194.444 101.765C194.412 101.818 194.365 101.861 194.309 101.888C194.242 101.901 194.174 101.901 194.108 101.888C193.927 101.902 193.757 101.979 193.628 102.106C193.316 102.288 193.047 102.536 192.84 102.832C192.632 103.128 192.492 103.466 192.428 103.821C192.308 105.04 192.361 106.269 192.588 107.472" fill="#F6F6F6"/>
<path d="M193.628 102.106C192.916 102.613 192.28 103.218 191.74 103.905C191.386 104.681 191.243 105.537 191.324 106.386C191.433 108.15 192.105 109.812 192.446 111.533L193.017 114.42C193.37 116.212 193.372 118.056 193.023 119.849C195.218 119.669 197.427 119.921 199.525 120.592C199.698 116.843 200.281 113.812 200.782 112.928C201.857 111.053 202.698 109.053 203.285 106.972C203.307 106.893 203.305 106.81 203.279 106.732C203.252 106.655 203.203 106.587 203.138 106.537C203.073 106.488 202.995 106.459 202.913 106.455C202.831 106.45 202.75 106.47 202.68 106.513L201.173 107.645L199.633 109.598C198.657 108.239 198.012 106.672 197.749 105.02C197.658 104.259 197.43 103.52 197.077 102.839C196.766 102.243 196.656 101.563 196.764 100.9C196.867 100.593 196.886 100.264 196.82 99.9466C196.806 99.9031 196.779 99.865 196.743 99.8374C196.662 99.7844 196.555 99.8351 196.473 99.8869C195.688 100.384 195 101.02 194.444 101.765C194.412 101.818 194.365 101.861 194.309 101.888C194.242 101.901 194.174 101.901 194.108 101.888C193.927 101.902 193.757 101.979 193.628 102.106C193.316 102.288 193.047 102.536 192.84 102.832C192.632 103.128 192.492 103.466 192.428 103.821C192.308 105.04 192.361 106.269 192.588 107.472" stroke="#575D68" stroke-width="0.4" stroke-miterlimit="10"/>
<path d="M205.387 157.994L209.817 166.842L212.017 165.438L207.481 156.641L205.387 157.994Z" fill="#F6F6F6" stroke="#575D68" stroke-width="0.4" stroke-miterlimit="10"/>
<path d="M204.729 114.49L209.616 107.447V105.718L213.869 107.447L213.317 111.038L203.475 120.451L202.53 116.649L204.729 114.49Z" fill="#F6F6F6" stroke="#575D68" stroke-width="0.4" stroke-miterlimit="10"/>
<path d="M192.359 121.548C193.72 121.424 195.089 121.424 196.45 121.548C197.554 121.766 198.639 122.069 199.697 122.453C199.697 122.453 199.877 120.338 199.901 119.97C199.004 119.554 198.06 119.25 197.089 119.064C195.728 118.941 194.359 118.941 192.998 119.064L192.359 121.548Z" fill="#F6F6F6" stroke="#575D68" stroke-width="0.4" stroke-miterlimit="10"/>
<path d="M190.952 162.677C191.779 163.494 192.834 164.043 193.978 164.252C195.352 164.711 196.838 164.711 198.212 164.252" fill="#F6F6F6"/>
<path d="M190.952 162.677C191.779 163.494 192.834 164.043 193.978 164.252C195.352 164.711 196.838 164.711 198.212 164.252" stroke="#575D68" stroke-width="0.4" stroke-miterlimit="10"/>
<path d="M194.309 101.888C193.818 102.466 193.557 103.205 193.579 103.963C193.739 105.104 193.984 106.232 194.312 107.337" fill="#F6F6F6"/>
<path d="M194.309 101.888C193.818 102.466 193.557 103.205 193.579 103.963C193.739 105.104 193.984 106.232 194.312 107.337" stroke="#575D68" stroke-width="0.4" stroke-miterlimit="10"/>
<path d="M195.289 100.815C195.082 101.527 194.95 102.259 194.895 102.998C195.132 104.279 195.435 105.547 195.802 106.797" fill="#F6F6F6"/>
<path d="M195.289 100.815C195.082 101.527 194.95 102.259 194.895 102.998C195.132 104.279 195.435 105.547 195.802 106.797" stroke="#575D68" stroke-width="0.4" stroke-miterlimit="10"/>
<path d="M142.173 247.599C142.173 247.599 144.892 247.266 146.118 247.851C147.37 248.459 148.337 249.529 148.815 250.835C148.815 250.835 159.652 248.207 162.855 245.927C164.361 244.925 165.775 243.791 167.082 242.54" fill="#DDDEDF"/>
<path d="M142.173 247.599C142.173 247.599 144.892 247.266 146.118 247.851C147.37 248.459 148.337 249.529 148.815 250.835C148.815 250.835 159.652 248.207 162.855 245.927C164.361 244.925 165.775 243.791 167.082 242.54" stroke="#575D68" stroke-width="0.4" stroke-miterlimit="10"/>
<path d="M170.582 231.263C170.713 230.85 170.944 230.477 171.256 230.177C171.568 229.877 171.949 229.659 172.367 229.544C174.317 229.208 176.322 229.647 177.953 230.769C177.953 230.769 186.352 223.639 188.427 220.3C188.863 219.638 189.188 218.91 189.391 218.145" fill="#DDDEDF"/>
<path d="M170.582 231.263C170.713 230.85 170.944 230.477 171.256 230.177C171.568 229.877 171.949 229.659 172.367 229.544C174.317 229.208 176.322 229.647 177.953 230.769C177.953 230.769 186.352 223.639 188.427 220.3C188.863 219.638 189.188 218.91 189.391 218.145" stroke="#575D68" stroke-width="0.4" stroke-miterlimit="10"/>
<path d="M151.42 241.122C151.42 241.122 155.224 241.788 156.597 244.11L151.42 241.122Z" fill="#DDDEDF"/>
<path d="M151.42 241.122C151.42 241.122 155.224 241.788 156.597 244.11" stroke="#575D68" stroke-width="0.4" stroke-miterlimit="10"/>
<path d="M149.066 242.616C149.066 242.616 152.871 243.282 154.243 245.605L149.066 242.616Z" fill="#DDDEDF"/>
<path d="M149.066 242.616C149.066 242.616 152.871 243.282 154.243 245.605" stroke="#575D68" stroke-width="0.4" stroke-miterlimit="10"/>
<path d="M147.342 244.111C147.342 244.111 151.147 244.777 152.519 247.099L147.342 244.111Z" fill="#DDDEDF"/>
<path d="M147.342 244.111C147.342 244.111 151.147 244.777 152.519 247.099" stroke="#575D68" stroke-width="0.4" stroke-miterlimit="10"/>
<path d="M175.562 221.341C175.562 221.341 179.362 220.648 181.453 222.351L175.562 221.341Z" fill="#DDDEDF"/>
<path d="M175.562 221.341C175.562 221.341 179.362 220.648 181.453 222.351" stroke="#575D68" stroke-width="0.4" stroke-miterlimit="10"/>
<path d="M174.24 223.832C174.24 223.832 178.039 223.138 180.131 224.841L174.24 223.832Z" fill="#DDDEDF"/>
<path d="M174.24 223.832C174.24 223.832 178.039 223.138 180.131 224.841" stroke="#575D68" stroke-width="0.4" stroke-miterlimit="10"/>
<path d="M172.87 226.131C172.87 226.131 176.67 225.438 178.762 227.141L172.87 226.131Z" fill="#DDDEDF"/>
<path d="M172.87 226.131C172.87 226.131 176.67 225.438 178.762 227.141" stroke="#575D68" stroke-width="0.4" stroke-miterlimit="10"/>
<path d="M139.645 251.585C140.303 252.018 141.078 252.239 141.865 252.218C143.813 252.118 145.752 251.887 147.668 251.528" fill="#DDDEDF"/>
<path d="M139.645 251.585C140.303 252.018 141.078 252.239 141.865 252.218C143.813 252.118 145.752 251.887 147.668 251.528" stroke="#575D68" stroke-width="0.4" stroke-miterlimit="10"/>
<path d="M170.491 231.225C170.491 231.225 170.947 233.052 172.501 233.053C174.592 233.055 177.185 231.263 177.185 231.263" fill="#DDDEDF"/>
<path d="M170.491 231.225C170.491 231.225 170.947 233.052 172.501 233.053C174.592 233.055 177.185 231.263 177.185 231.263" stroke="#575D68" stroke-width="0.4" stroke-miterlimit="10"/>
<path d="M168.647 193.674C169.245 194.607 170.22 196.386 169.67 197.511C169.034 197.192 168.425 196.825 167.846 196.412C166.724 195.698 165.551 195.067 164.337 194.522" fill="#F6F6F6"/>
<path d="M168.647 193.674C169.245 194.607 170.22 196.386 169.67 197.511C169.034 197.192 168.425 196.825 167.846 196.412C166.724 195.698 165.551 195.067 164.337 194.522" stroke="#575D68" stroke-width="0.4" stroke-miterlimit="10"/>
<path d="M160.93 126.063H148.812L151.181 137.21C151.181 137.21 151.397 139.267 154.757 139.267C156.673 139.267 158.225 138.348 158.242 137.21H158.245L160.93 126.063Z" fill="#F6F6F6" stroke="#575D68" stroke-width="0.4" stroke-miterlimit="10"/>
<path d="M154.872 128.382C158.553 128.382 161.538 126.607 161.538 124.417C161.538 122.226 158.553 120.451 154.872 120.451C151.19 120.451 148.206 122.226 148.206 124.417C148.206 126.607 151.19 128.382 154.872 128.382Z" fill="#F6F6F6" stroke="#575D68" stroke-width="0.4" stroke-miterlimit="10"/>
<path d="M154.872 127.055C157.816 127.055 160.202 125.636 160.202 123.884C160.202 122.133 157.816 120.714 154.872 120.714C151.929 120.714 149.543 122.133 149.543 123.884C149.543 125.636 151.929 127.055 154.872 127.055Z" fill="#F6F6F6" stroke="#575D68" stroke-width="0.4" stroke-miterlimit="10"/>
<path d="M154.872 126.3C157.816 126.3 160.202 124.88 160.202 123.129C160.202 121.378 157.816 119.959 154.872 119.959C151.929 119.959 149.543 121.378 149.543 123.129C149.543 124.88 151.929 126.3 154.872 126.3Z" fill="#F6F6F6" stroke="#575D68" stroke-width="0.4" stroke-miterlimit="10"/>
<path d="M221.754 158.331C224.145 165.174 218.322 172.208 198.258 173.648C198.22 173.651 191.118 173.776 191.08 173.776C185.097 173.749 184.829 178.416 184.739 184.872L184.424 195.939L186.741 197.401C186.741 197.401 189.816 196.039 191.276 196.039C208.429 196.039 222.335 189.742 222.335 181.974C222.335 180.702 225.037 171.129 225.037 161.218" fill="#F6F6F6"/>
<path d="M221.754 158.331C224.145 165.174 218.322 172.208 198.258 173.648C198.22 173.651 191.118 173.776 191.08 173.776C185.097 173.749 184.829 178.416 184.739 184.872L184.424 195.939L186.741 197.401C186.741 197.401 189.816 196.039 191.276 196.039C208.429 196.039 222.335 189.742 222.335 181.974C222.335 180.702 225.037 171.129 225.037 161.218" stroke="#575D68" stroke-width="0.4" stroke-miterlimit="10"/>
<path d="M149.544 129.496C149.544 129.496 148.307 130.938 148.815 132.218C149.334 133.288 149.986 134.288 150.755 135.195C150.755 135.195 154.12 133.823 153.401 132.86C152.202 131.643 150.913 130.518 149.544 129.496Z" fill="#F6F6F6" stroke="#575D68" stroke-width="0.4" stroke-miterlimit="10"/>
<path d="M193.781 175.718C187.799 175.617 187.55 178.417 187.28 185.255L186.74 197.401C189.13 197.807 191.552 198.001 193.977 197.981C211.13 197.981 225.036 191.684 225.036 183.916C225.036 180.937 225.036 161.218 225.036 161.218C224.731 170.161 212.382 176.032 193.781 175.718Z" fill="#F6F6F6" stroke="#575D68" stroke-width="0.4" stroke-miterlimit="10"/>
<path d="M84.5984 306.879C90.5839 306.879 95.4361 304.682 95.4361 301.971C95.4361 299.261 90.5839 297.063 84.5984 297.063C78.6129 297.063 73.7607 299.261 73.7607 301.971C73.7607 304.682 78.6129 306.879 84.5984 306.879Z" fill="#F6F6F6" stroke="#575D68" stroke-width="0.4" stroke-miterlimit="10"/>
<path d="M84.5984 305.825C90.5839 305.825 95.4361 303.628 95.4361 300.917C95.4361 298.207 90.5839 296.01 84.5984 296.01C78.6129 296.01 73.7607 298.207 73.7607 300.917C73.7607 303.628 78.6129 305.825 84.5984 305.825Z" fill="#F6F6F6" stroke="#575D68" stroke-width="0.4" stroke-miterlimit="10"/>
<path d="M82.5259 246.974H86.6715V298.844C86.6715 299.117 86.6179 299.386 86.5137 299.638C86.4096 299.889 86.2569 300.118 86.0644 300.31C85.8719 300.503 85.6434 300.655 85.3919 300.759C85.1404 300.864 84.8709 300.917 84.5987 300.917C84.049 300.917 83.5217 300.699 83.133 300.31C82.7443 299.921 82.5259 299.394 82.5259 298.844V246.974Z" fill="#F6F6F6" stroke="#575D68" stroke-width="0.4" stroke-miterlimit="10"/>
<path d="M84.5987 256.605C101.752 256.605 115.657 250.308 115.657 242.54C115.657 234.772 101.752 228.475 84.5987 228.475C67.4455 228.475 53.54 234.772 53.54 242.54C53.54 250.308 67.4455 256.605 84.5987 256.605Z" fill="#F6F6F6" stroke="#575D68" stroke-width="0.4" stroke-miterlimit="10"/>
<path d="M84.5987 252.971C101.752 252.971 115.657 246.674 115.657 238.906C115.657 231.138 101.752 224.841 84.5987 224.841C67.4455 224.841 53.54 231.138 53.54 238.906C53.54 246.674 67.4455 252.971 84.5987 252.971Z" fill="#F6F6F6" stroke="#575D68" stroke-width="0.4" stroke-miterlimit="10"/>
<path d="M58.9444 230.922C58.9579 230.93 58.9733 230.935 58.9889 230.934C59.0046 230.934 59.0199 230.93 59.0331 230.921C64.6368 227.249 73.9952 224.841 84.5987 224.841C86.5646 224.841 88.4852 224.928 90.3497 225.086C90.3535 225.086 90.3573 225.086 90.3611 225.086L94.1196 226.606C94.1196 226.606 96.07 225.877 96.07 225.832L95.9803 217.395C95.4855 210.849 87.954 209.688 83.4654 209.685C66.3121 209.685 53.54 215.485 53.54 223.253C53.5401 226.502 54.8658 228.548 58.9444 230.922Z" fill="#F6F6F6" stroke="#575D68" stroke-width="0.4" stroke-miterlimit="10"/>
<path d="M61.4729 232.597C61.4863 232.605 61.5017 232.609 61.5174 232.609C61.533 232.609 61.5483 232.605 61.5616 232.596C67.1653 228.924 76.5237 226.516 87.1271 226.516C89.0931 226.516 94.0406 226.69 94.0406 226.69C94.0621 226.689 94.0822 226.679 94.0969 226.663C94.1116 226.648 94.1198 226.627 94.1198 226.606V219.491C94.1198 217.335 93.2638 215.268 91.74 213.743C90.2163 212.219 88.1494 211.361 85.9938 211.36C68.5835 210.714 54.2823 216.022 56.0685 224.928C56.7076 228.114 57.3943 230.223 61.4729 232.597Z" fill="#F6F6F6" stroke="#575D68" stroke-width="0.4" stroke-miterlimit="10"/>
<path d="M53.6584 221.985L53.6401 240.032C53.6401 244.749 72.5094 251.866 72.5094 251.866L75.0941 249.984V243.401C75.0941 237.657 71.4599 233.697 66.424 230.934C55.1544 224.752 55.7932 223.806 56.2368 221.399" fill="#F6F6F6"/>
<path d="M53.6584 221.985L53.6401 240.032C53.6401 244.749 72.5094 251.866 72.5094 251.866L75.0941 249.984V243.401C75.0941 237.657 71.4599 233.697 66.424 230.934C55.1544 224.752 55.7932 223.806 56.2368 221.399" stroke="#575D68" stroke-width="0.4" stroke-miterlimit="10"/>
<path d="M53.6213 223.53C53.6178 223.521 53.6109 223.513 53.6021 223.508C53.5932 223.503 53.583 223.502 53.5731 223.504C53.5633 223.506 53.5545 223.512 53.5484 223.52C53.5424 223.528 53.5394 223.538 53.5401 223.548V240.896C53.5401 245.827 61.3619 250.059 72.5093 251.866V243.941C72.5093 238.197 68.415 233.943 63.1873 231.563C53.0627 226.955 53.9707 224.632 53.6213 223.53Z" fill="#F6F6F6" stroke="#575D68" stroke-width="0.4" stroke-miterlimit="10"/>
<path d="M82.5259 275.496C82.513 275.955 82.5401 277.062 82.5259 277.52C77.7269 277.858 72.5175 279.561 72.5175 281.867C72.5175 284.484 77.9263 286.605 84.5987 286.605C91.2711 286.605 96.6799 284.484 96.6799 281.867C96.6799 279.594 92.1155 277.947 86.6715 277.487C86.6396 277.027 86.6715 275.631 86.6715 275.631C93.936 276.135 99.8854 279.038 99.8854 282.275C99.8854 285.872 93.0413 288.787 84.5987 288.787C76.1561 288.787 69.312 285.872 69.312 282.275C69.312 279.009 75.1676 275.966 82.5259 275.496Z" fill="#F6F6F6" stroke="#575D68" stroke-width="0.4" stroke-miterlimit="10"/>
<g opacity="0.67">
<g opacity="0.67">
<mask id="mask0_3_36855" style="mask-type:alpha" maskUnits="userSpaceOnUse" x="63" y="-71" width="151" height="198">
<path d="M63.6006 15.8529V126.034L213.447 39.1957V-70.3973L63.6006 15.8529Z" fill="#F6F6F6" stroke="#575D68" stroke-width="0.4" stroke-miterlimit="10"/>
</mask>
<g mask="url(#mask0_3_36855)">
<path d="M165.811 -1.39529C171.467 -15.3877 169.635 -29.3248 161.719 -32.5247C153.803 -35.7247 142.8 -26.9756 137.144 -12.9832C131.488 1.00921 133.32 14.9463 141.236 18.1463C149.152 21.3462 160.155 12.5971 165.811 -1.39529Z" fill="white"/>
<path d="M217.4 39.2209L53.4274 137.906L51.3965 26.1469L215.369 -72.5378L217.4 39.2209Z" fill="url(#paint4_linear_3_36855)" style="mix-blend-mode:multiply"/>
<path d="M213.641 -47.225C200.691 -38.975 188.179 -26.4216 175.479 -15.6434C172.189 -12.8515 168.494 -10.0528 165.702 -11.007C165.17 -11.3055 164.564 -11.4437 163.956 -11.405C163.304 -11.1786 162.709 -10.8158 162.209 -10.3408C155.984 -5.31301 149.823 0.0880089 143.724 5.86227C139.18 10.2249 134.307 14.2298 129.146 17.8411C129.033 17.9185 128.924 17.9939 128.82 18.067C118.912 24.9863 100.509 30.9593 90.1168 32.1115C79.7242 33.2636 54.8281 43.7823 54.1372 44.8359L55.7984 136.251C55.7984 136.251 207.581 45.8343 215.214 39.3372C214.974 32.7189 213.881 -40.6068 213.641 -47.225Z" fill="url(#paint5_linear_3_36855)" style="mix-blend-mode:multiply"/>
<path d="M31.501 114.842C31.501 114.842 45.3044 101.897 61.1624 96.7553C77.0204 91.6135 88.2685 93.0461 108.364 75.8943C128.459 58.7425 136.888 43.6208 159.999 32.823C183.109 22.0252 205.76 15.4235 216.938 5.89856L217.726 49.2739L32.7421 183.138L31.501 114.842Z" fill="url(#paint6_linear_3_36855)" style="mix-blend-mode:multiply"/>
<path d="M37.3818 95.7075C37.3818 95.7075 51.1852 82.7627 67.0432 77.6209C82.9012 72.4791 94.1493 73.9117 114.245 56.7599C134.34 39.6081 142.769 24.4864 165.879 13.6886C188.99 2.89076 211.641 -3.71091 222.819 -13.2358L224.154 60.2444L38.6229 164.004L37.3818 95.7075Z" fill="url(#paint7_linear_3_36855)" style="mix-blend-mode:multiply"/>
<path d="M26.9438 90.5235C26.9438 90.5235 40.7472 77.5788 56.6052 72.437C72.4632 67.2952 83.7113 68.7277 103.807 51.576C123.902 34.4242 132.331 19.3025 155.441 8.50465C178.552 -2.29317 201.203 -8.89481 212.381 -18.4197L213.664 52.2139L28.1849 158.82L26.9438 90.5235Z" fill="url(#paint8_linear_3_36855)" style="mix-blend-mode:multiply"/>
<path d="M-0.652832 103.216C-0.652832 103.216 13.1505 90.2715 29.0085 85.1296C33.2109 83.7671 37.3525 82.8145 41.5016 81.8139C43.3348 81.3718 45.7787 80.1635 47.4719 80.2862C48.9683 80.3947 50.023 81.4314 51.7262 81.2582L60.8971 80.3256C65.3899 79.8687 70.0613 79.3402 74.7842 75.9713C77.6197 73.7584 80.2357 71.2778 82.5961 68.5638L104.245 45.331C109.638 39.5441 115.284 33.5682 120.995 31.2392C125.749 29.3006 130.148 30.0777 134.912 28.0088C142.188 24.8489 149.326 15.5201 156.608 12.2757C159.097 11.1668 161.507 10.8172 163.977 9.93375C178.578 4.71019 191.614 -18.5817 206.462 -23.8088C209.183 -24.767 211.848 -25.0783 214.603 -26.5728C218.919 -28.9139 229.001 -41.4295 232.487 -38.2059C234.469 -36.3731 233.086 -25.4749 233.159 -21.4882L233.707 8.67899L0.0411695 141.407L-0.652832 103.216Z" fill="url(#paint9_linear_3_36855)" style="mix-blend-mode:multiply"/>
<path d="M52.2354 72.3853C52.2354 72.3853 63.9855 61.366 77.4847 56.989C90.9839 52.612 100.559 53.8315 117.665 39.231C134.771 24.6304 141.947 11.758 161.619 2.56636C181.292 -6.62532 210.024 -17.5429 219.539 -25.651L220.21 11.2724L52.8261 104.896L52.2354 72.3853Z" fill="url(#paint10_linear_3_36855)" style="mix-blend-mode:multiply"/>
<path d="M92.6133 22.3948C93.5358 21.868 94.552 21.5255 95.6053 21.3864C95.8696 21.4143 96.1247 21.4993 96.3529 21.6356C96.5811 21.7718 96.777 21.9561 96.9269 22.1755C96.8932 21.2469 96.9405 20.3171 97.0685 19.3967C97.2989 18.327 97.9058 16.5951 97.9058 16.5951C97.2804 17.1653 96.815 17.8892 96.5559 18.695C96.3733 19.1845 96.2153 19.6828 96.0825 20.1881C95.4913 20.3837 94.9128 20.6158 94.3502 20.883C93.6912 21.2868 93.1041 21.7978 92.6133 22.3948Z" fill="#383838"/>
<path d="M86.7866 49.9847C87.7092 49.4578 88.7254 49.1153 89.7786 48.9763C90.043 49.0041 90.2981 49.0892 90.5263 49.2254C90.7545 49.3617 90.9503 49.5459 91.1003 49.7654C91.0665 48.8367 91.1139 47.9069 91.2418 46.9865C91.4722 45.9169 92.0792 44.1849 92.0792 44.1849C91.4538 44.7552 90.9884 45.4791 90.7293 46.2848C90.5467 46.7743 90.3887 47.2726 90.2558 47.7779C89.6646 47.9736 89.0861 48.2057 88.5236 48.4728C87.8645 48.8766 87.2775 49.3876 86.7866 49.9847Z" fill="#383838"/>
<path d="M86.2979 23.063C87.2204 22.5361 88.2366 22.1936 89.2899 22.0545C89.5542 22.0824 89.8093 22.1674 90.0375 22.3037C90.2657 22.4399 90.4616 22.6242 90.6115 22.8436C90.5778 21.915 90.6251 20.9852 90.753 20.0647C90.9835 18.9951 91.5904 17.2632 91.5904 17.2632C90.965 17.8334 90.4996 18.5573 90.2405 19.3631C90.0579 19.8526 89.8999 20.3509 89.7671 20.8562C89.1759 21.0519 88.5973 21.2839 88.0348 21.5511C87.3757 21.9549 86.7887 22.4659 86.2979 23.063Z" fill="#383838"/>
<path d="M53.5418 88.1837C54.9563 84.9655 57.918 84.071 60.966 83.745C64.6917 83.3465 67.8538 84.9516 71.3545 85.4048C77.3431 86.1799 84.3955 83.4549 90.9804 77.8213C99.9773 70.1243 107.827 57.4801 116.953 50.7668C127.403 43.0798 137.427 44.6015 147.806 41.1059C150.345 40.2964 152.734 39.0738 154.875 37.4872C158.199 34.9775 161.271 31.1769 164.294 27.4764C170.419 19.9771 176.685 12.5408 183.333 6.64575C190.236 0.523657 196.516 -1.1841 203.474 -4.02091C214.492 -8.51337 226.978 -11.9331 238.028 -21.3495L239.363 52.1307L53.6963 148.407L52.922 105.796C52.8427 101.435 52.5868 97.1055 52.6837 92.6449C52.6746 91.116 52.9662 89.6002 53.5418 88.1837Z" fill="url(#paint11_linear_3_36855)" style="mix-blend-mode:multiply"/>
<path d="M135.684 68.6717C135.493 68.64 135.297 68.6829 135.137 68.7915C134.92 68.9223 134.735 69.0989 134.593 69.3089C134.263 69.7886 134.084 70.3568 134.08 70.9396C134.071 71.1808 134.119 71.4209 134.219 71.6404C134.254 71.7201 134.307 71.7911 134.372 71.8484C134.438 71.9057 134.515 71.9479 134.599 71.972C134.692 71.99 134.789 71.9892 134.882 71.9697C134.976 71.9502 135.064 71.9124 135.143 71.8585C135.359 71.7277 135.546 71.5524 135.689 71.3441C135.856 71.1095 135.983 70.8491 136.066 70.5734C136.154 70.2942 136.199 70.0032 136.199 69.7106C136.207 69.4676 136.161 69.2259 136.063 69.0033C136.03 68.9223 135.979 68.8501 135.913 68.7925C135.847 68.7349 135.768 68.6935 135.684 68.6717Z" fill="#F6F6F6"/>
<path d="M138.812 68.3872C138.622 68.5107 138.463 68.6778 138.35 68.8745C138.237 69.0713 138.172 69.2922 138.161 69.519C138.161 69.7276 138.215 69.8602 138.323 69.9168C138.393 69.943 138.469 69.9507 138.544 69.9391C138.618 69.9275 138.688 69.8971 138.747 69.8506C139.065 69.6528 139.315 69.3634 139.465 69.0204C139.65 68.6349 139.745 68.212 139.741 67.7842L139.741 67.6556L138.812 68.3872Z" fill="#F6F6F6"/>
<path d="M120.336 75.8961L120.186 76.5812L119.598 78.9538L121.084 78.0918L120.489 76.4059L120.336 75.8961Z" fill="#F6F6F6"/>
<path d="M125.127 75.1301C125.127 74.9526 125.083 74.8447 124.995 74.8065C124.931 74.7912 124.864 74.7908 124.8 74.805C124.736 74.8193 124.675 74.848 124.624 74.8889L123.819 75.3557L123.821 76.43L124.619 75.9672C124.774 75.8897 124.904 75.77 124.994 75.6219C125.083 75.4738 125.13 75.3033 125.127 75.1301Z" fill="#F6F6F6"/>
<path d="M113.167 83.0885L112.404 83.5314L112.407 85.0467L113.17 84.6038C113.367 84.4921 113.528 84.3271 113.634 84.1277C113.741 83.9313 113.796 83.7111 113.795 83.4876C113.807 83.4032 113.798 83.3173 113.77 83.237C113.741 83.1567 113.694 83.0843 113.632 83.0258C113.524 82.9508 113.369 82.9717 113.167 83.0885Z" fill="#F6F6F6"/>
<path d="M83.1113 97.4237C82.9889 97.39 82.8607 97.3838 82.7357 97.4055C82.6107 97.4272 82.492 97.4762 82.3881 97.5491C82.0956 97.7274 81.8485 97.9714 81.6665 98.2617C81.4426 98.6103 81.2759 98.9926 81.1728 99.3939C81.0518 99.8501 80.9925 100.32 80.9965 100.792C80.9827 101.197 81.0443 101.601 81.178 101.984C81.2153 102.107 81.2792 102.221 81.365 102.317C81.4509 102.414 81.5568 102.49 81.6752 102.541C81.7975 102.575 81.9257 102.581 82.0506 102.56C82.1756 102.538 82.2942 102.489 82.398 102.416C82.6906 102.238 82.9378 101.994 83.1199 101.703C83.3437 101.355 83.5103 100.972 83.6133 100.571C83.7344 100.115 83.7937 99.6444 83.7896 99.1723C83.8034 98.7675 83.7418 98.3637 83.6081 97.9814C83.5708 97.8579 83.507 97.744 83.4212 97.6477C83.3354 97.5514 83.2296 97.475 83.1113 97.4237Z" fill="#F6F6F6"/>
<path d="M153.144 53.6147L63.6021 105.356V116.427L152.569 65.351C152.904 65.1584 153.562 64.739 153.562 64.739C157.29 62.2399 158.519 60.9344 158.664 57.9296C158.819 54.7071 156.087 51.9136 153.144 53.6147ZM73.1753 108.548L73.1648 103.378C73.0572 103.598 72.9159 103.801 72.746 103.979C72.5694 104.153 72.3705 104.302 72.1545 104.423L72.1526 103.514C72.4096 103.369 72.6333 103.172 72.8092 102.936C72.9908 102.677 73.1287 102.391 73.2175 102.087L73.8986 101.692L73.9116 108.121L73.1753 108.548ZM78.0025 104.745C77.8562 105.174 77.6431 105.577 77.3712 105.939C77.1218 106.279 76.8061 106.566 76.4431 106.781C76.1731 106.964 75.8543 107.063 75.5278 107.064C75.4142 107.058 75.3037 107.024 75.2067 106.965C75.1096 106.905 75.0291 106.822 74.9725 106.724C74.8411 106.48 74.7775 106.206 74.7885 105.929C74.7859 105.827 74.7926 105.725 74.8086 105.623L75.5446 105.252C75.5356 105.343 75.5311 105.422 75.5313 105.489C75.532 105.789 75.615 105.979 75.7805 106.057C75.8923 106.092 76.0108 106.099 76.1259 106.078C76.241 106.057 76.3493 106.008 76.4414 105.936C76.7694 105.738 77.0322 105.448 77.1975 105.102C77.3919 104.717 77.4903 104.291 77.4842 103.86C77.505 103.702 77.491 103.542 77.4431 103.39C77.3952 103.239 77.3146 103.099 77.207 102.982C77.0228 102.837 76.7726 102.857 76.4563 103.04C76.2395 103.174 76.0495 103.346 75.896 103.549C75.7134 103.78 75.5579 104.03 75.4325 104.296L74.8406 104.428L75.0403 101.03L77.9226 99.3582L77.9245 100.267L75.5717 101.632L75.4444 103.37C75.5893 103.118 75.7647 102.885 75.9665 102.676C76.1464 102.483 76.3523 102.316 76.5784 102.179C77.1013 101.876 77.5064 101.841 77.7939 102.076C77.9597 102.257 78.0843 102.471 78.1591 102.705C78.2339 102.939 78.2571 103.186 78.2271 103.429C78.2268 103.877 78.1508 104.322 78.0025 104.745ZM78.8418 100.848L79.6398 100.385L79.642 101.459L78.844 101.922L78.8418 100.848ZM78.8507 105.256L78.8485 104.181L79.6466 103.718L79.6488 104.793L78.8507 105.256ZM84.2617 100.65C84.0963 101.226 83.8406 101.772 83.5041 102.267C83.2192 102.697 82.8423 103.058 82.4006 103.325C82.2412 103.435 82.0611 103.512 81.8711 103.55C81.6812 103.588 81.4854 103.588 81.2958 103.548C81.1219 103.49 80.9634 103.394 80.8319 103.266C80.7004 103.139 80.5994 102.983 80.5365 102.811C80.3349 102.306 80.2412 101.763 80.2614 101.219C80.2578 100.574 80.3481 99.9318 80.5294 99.3127C80.6931 98.7376 80.9478 98.1925 81.2839 97.698C81.5689 97.2681 81.9456 96.9067 82.3871 96.6399C82.5465 96.5297 82.7268 96.4531 82.9168 96.4148C83.1068 96.3765 83.3026 96.3773 83.4923 96.4171C83.6661 96.4749 83.8248 96.5709 83.9567 96.698C84.0887 96.8251 84.1904 96.9802 84.2546 97.1518C84.4588 97.656 84.5538 98.1978 84.5333 98.7414C84.5367 99.3876 84.4452 100.031 84.2617 100.65ZM89.1941 97.7894C89.0288 98.3649 88.7731 98.9105 88.4365 99.4057C88.1516 99.8359 87.7748 100.197 87.3331 100.464C87.1737 100.574 86.9936 100.651 86.8036 100.689C86.6136 100.727 86.4179 100.727 86.2282 100.687C86.0544 100.629 85.8958 100.533 85.7643 100.405C85.6329 100.278 85.5319 100.122 85.4689 99.9502C85.2674 99.4445 85.1737 98.9022 85.1939 98.3582C85.1902 97.713 85.2805 97.0707 85.4619 96.4515C85.6255 95.8765 85.8803 95.3314 86.2164 94.8369C86.5013 94.407 86.8781 94.0456 87.3196 93.7788C87.479 93.6686 87.6592 93.5921 87.8492 93.5537C88.0392 93.5154 88.235 93.5162 88.4247 93.556C88.5986 93.6138 88.7573 93.7098 88.8892 93.8369C89.0211 93.964 89.1229 94.1191 89.187 94.2907C89.3912 94.7949 89.4862 95.3367 89.4658 95.8802C89.4692 96.5265 89.3777 97.1697 89.1941 97.7894ZM98.9176 93.6157L98.9064 88.0967L96.7396 89.3536L96.7507 94.8726L96.0078 95.3035L95.9948 88.8754L99.6475 86.7567L99.6605 93.1848L98.9176 93.6157ZM102.123 91.7561L101.415 92.1672L101.407 88.4665L100.334 89.089L100.332 88.2348L103.18 86.5827L103.182 87.4369L102.116 88.0553L102.123 91.7561ZM106.189 89.3979L106.182 86.1104L104.559 90.3435L103.809 90.7785L103.8 86.2235L104.481 85.8285L104.487 89.1163L106.111 84.8829L106.861 84.4479L106.87 89.0028L106.189 89.3979ZM110.518 87.9533L110.516 86.888L107.716 88.512L107.707 83.9571L108.416 83.5461L108.423 87.2468L109.95 86.361L109.943 82.6602L110.658 82.2452L110.666 85.9459L111.161 85.6587L111.165 87.5783L110.518 87.9533ZM114.137 84.397C113.91 84.7875 113.584 85.1112 113.192 85.3357L111.699 86.2016L111.69 81.6467L112.399 81.2358L112.402 82.7969L113.186 82.3419C113.317 82.2367 113.473 82.1669 113.639 82.1392C113.804 82.1115 113.975 82.1269 114.133 82.1838C114.365 82.3096 114.481 82.6112 114.482 83.0887C114.488 83.5481 114.369 84.0003 114.137 84.3971V84.397ZM114.96 84.3102L114.951 79.7553L115.659 79.3444L115.669 83.8993L114.96 84.3102ZM121.86 80.3078L121.334 78.8296L119.352 79.9788L118.833 82.0637L118.042 82.5226L119.969 74.9692L120.698 74.5462L122.651 79.849L121.86 80.3078ZM125.591 77.7759C125.379 78.1381 125.077 78.4398 124.715 78.6519L123.126 79.5736L123.117 75.0187L124.664 74.121C124.78 74.0292 124.916 73.9666 125.061 73.9385C125.206 73.9104 125.356 73.9175 125.497 73.9594C125.605 74.0229 125.691 74.1169 125.746 74.2295C125.8 74.3421 125.82 74.4682 125.802 74.592C125.799 75.0799 125.616 75.5495 125.288 75.9107C125.37 75.8913 125.455 75.8926 125.536 75.9145C125.618 75.9364 125.692 75.9783 125.753 76.0363C125.888 76.2042 125.951 76.4183 125.93 76.6325C125.925 77.0377 125.808 77.4335 125.591 77.7759V77.7759ZM128.148 76.7891C127.881 76.9678 127.559 77.047 127.239 77.0128C127.103 76.9885 126.974 76.9324 126.863 76.849C126.752 76.7656 126.662 76.6572 126.601 76.5327C126.431 76.1849 126.351 75.7996 126.368 75.4127C126.368 74.9412 126.449 74.4732 126.607 74.0288C126.758 73.5875 126.977 73.1723 127.255 72.7978C127.491 72.4676 127.792 72.1884 128.138 71.9771C128.41 71.7887 128.739 71.7036 129.068 71.7369C129.2 71.7664 129.322 71.8296 129.422 71.9205C129.523 72.0113 129.598 72.1267 129.64 72.2552L129.05 73.0576C129.011 72.977 128.954 72.9065 128.883 72.8511C128.813 72.7958 128.731 72.7571 128.643 72.738C128.556 72.7189 128.465 72.7199 128.378 72.7408C128.291 72.7618 128.209 72.8022 128.14 72.859C127.93 72.9856 127.748 73.155 127.607 73.3562C127.444 73.5849 127.318 73.8381 127.234 74.1065C127.142 74.3919 127.096 74.69 127.098 74.9897C127.077 75.1579 127.093 75.3284 127.144 75.49C127.195 75.6516 127.28 75.8005 127.392 75.9269C127.502 76.008 127.636 76.0501 127.773 76.0467C127.909 76.0432 128.041 75.9943 128.146 75.9077C128.364 75.7822 128.551 75.6094 128.693 75.4021C128.855 75.1579 128.99 74.8965 129.094 74.6225L129.666 74.7228C129.426 75.5724 128.887 76.3064 128.148 76.7891V76.7891ZM131.718 74.5898L131.009 75.0008L131.002 71.3001L129.929 71.9226L129.927 71.0684L132.775 69.4164L132.777 70.2705L131.711 70.889L131.718 74.5898ZM136.714 70.6577C136.581 71.0839 136.383 71.487 136.127 71.853C135.91 72.1733 135.626 72.443 135.295 72.6434C135.097 72.7744 134.862 72.8383 134.624 72.8258C134.528 72.8161 134.434 72.7859 134.35 72.737C134.266 72.6882 134.194 72.6218 134.138 72.5426L134.143 75.0588L133.428 75.4736L133.415 69.0452L134.13 68.6303L134.132 69.3743C134.248 69.0476 134.413 68.7407 134.622 68.4645C134.814 68.1962 135.059 67.97 135.341 67.7994C135.576 67.6406 135.864 67.5808 136.143 67.6331C136.271 67.67 136.389 67.7354 136.488 67.8243C136.587 67.9133 136.665 68.0235 136.716 68.1467C136.871 68.5062 136.944 68.8962 136.928 69.2877C136.929 69.7528 136.856 70.2151 136.714 70.6577H136.714ZM139.856 69.8693C139.803 69.6192 139.775 69.3645 139.772 69.1089C139.672 69.4542 139.513 69.7798 139.302 70.0712C139.12 70.3333 138.884 70.5543 138.611 70.72C138.497 70.8125 138.358 70.87 138.211 70.8858C138.065 70.9015 137.917 70.8748 137.785 70.8087C137.666 70.7064 137.574 70.5758 137.519 70.429C137.463 70.2822 137.445 70.1237 137.466 69.9682C137.463 69.5486 137.574 69.136 137.788 68.7749C138.011 68.3994 138.305 68.0711 138.654 67.8085L139.74 66.9669L139.74 66.7465C139.739 66.4834 139.678 66.3197 139.556 66.2554C139.434 66.1911 139.254 66.2281 139.016 66.3665C138.809 66.4833 138.633 66.6484 138.504 66.8476C138.389 67.009 138.324 67.2002 138.315 67.398C138.315 67.4427 138.317 67.4874 138.322 67.5319L137.669 68.0394C137.655 67.9523 137.648 67.8643 137.648 67.7761C137.652 67.5158 137.709 67.2591 137.815 67.0214C137.935 66.7455 138.097 66.4901 138.296 66.2646C138.501 66.0273 138.743 65.8259 139.014 65.6685C139.473 65.4025 139.828 65.3318 140.078 65.4563C140.328 65.5808 140.454 65.9001 140.455 66.414L140.459 68.3884C140.46 68.6395 140.468 68.8446 140.485 69.0038C140.5 69.157 140.527 69.3089 140.565 69.4581L139.856 69.8693ZM143.674 67.6545L143.667 63.9538L142.456 64.6562L142.384 66.5919C142.387 67.1303 142.302 67.6655 142.132 68.1766C141.999 68.5371 141.744 68.8397 141.411 69.0317C141.324 69.083 141.228 69.1167 141.129 69.1309L141.127 68.2954C141.213 68.2876 141.296 68.2585 141.368 68.2107C141.448 68.1635 141.513 68.0955 141.557 68.0139C141.616 67.8935 141.654 67.7642 141.67 67.6313C141.703 67.4001 141.723 67.1674 141.73 66.934L141.835 64.1611L144.373 62.6887L144.383 67.2436L143.674 67.6545ZM147.609 65.372L147.603 62.0845L145.979 66.3176L145.229 66.7526L145.22 62.1976L145.901 61.8026L145.908 65.0904L147.531 60.857L148.281 60.422L148.29 64.9769L147.609 65.372ZM151.517 63.1055L151.51 59.818L149.886 64.0511L149.137 64.4861L149.127 59.9312L149.808 59.5361L149.815 62.824L151.439 58.5905L152.189 58.1555L152.198 62.7105L151.517 63.1055Z" fill="#F6F6F6"/>
<path d="M88.0443 94.5625C87.9219 94.5288 87.7937 94.5226 87.6687 94.5443C87.5437 94.5659 87.425 94.615 87.3212 94.6879C87.0286 94.8662 86.7816 95.1102 86.5996 95.4005C86.3757 95.7491 86.209 96.1314 86.1059 96.5327C85.9848 96.9889 85.9256 97.4593 85.9296 97.9313C85.9158 98.3362 85.9774 98.7402 86.1111 99.1226C86.1485 99.2461 86.2123 99.36 86.2981 99.4563C86.384 99.5525 86.4898 99.6289 86.6083 99.6801C86.7305 99.7138 86.8587 99.7201 86.9837 99.6984C87.1087 99.6768 87.2273 99.6277 87.3311 99.5549C87.6237 99.3765 87.8708 99.1324 88.0529 98.8421C88.2767 98.4935 88.4433 98.1113 88.5464 97.71C88.6674 97.2537 88.7267 96.7832 88.7227 96.3112C88.7364 95.9063 88.6749 95.5025 88.5412 95.1202C88.5038 94.9967 88.44 94.8828 88.3542 94.7865C88.2684 94.6902 88.1626 94.6138 88.0443 94.5625Z" fill="#F6F6F6"/>
<path d="M124.669 76.6738L123.823 77.1645L123.825 78.4226L124.671 77.932C124.842 77.8361 124.984 77.6953 125.08 77.5248C125.174 77.3582 125.222 77.1702 125.221 76.9792C125.22 76.7831 125.172 76.6577 125.079 76.6018C124.984 76.5461 124.848 76.5701 124.669 76.6738Z" fill="#F6F6F6"/>
</g>
</g>
</g>
<path d="M42.5752 20.1087V137.797L45.8366 139.891L225.827 30.7322L229.686 -83.5573L226.62 -85.3187L42.5752 20.1087Z" fill="#E9EAEB" stroke="#575D68" stroke-width="0.4" stroke-miterlimit="10"/>
<g style="mix-blend-mode:multiply">
<path d="M42.5752 20.1087V137.797L45.8366 139.891L225.827 30.7322L229.686 -83.5573L226.62 -85.3187L42.5752 20.1087Z" fill="#E9EAEB"/>
</g>
<path d="M45.8368 21.9551L42.5752 20.1089" stroke="#575D68" stroke-width="0.4" stroke-miterlimit="10"/>
<path d="M45.8354 21.9554V139.891L229.685 33.7486V-83.5573L45.8354 21.9554Z" fill="#E9EAEB" stroke="#575D68" stroke-width="0.4" stroke-miterlimit="10"/>
<path d="M63.6006 15.853V126.034L213.447 39.1958V-70.3973L63.6006 15.853Z" fill="#F6F6F6" stroke="#575D68" stroke-width="0.4" stroke-miterlimit="10"/>
<path d="M283.864 54.6655V58.9954C283.864 59.3014 283.783 59.6019 283.629 59.8666C283.476 60.1313 283.255 60.3508 282.99 60.5028L264.953 70.8299C264.615 71.0234 264.231 71.1233 263.842 71.1194C263.453 71.1155 263.071 71.0079 262.738 70.8076L249.465 62.8498C249.212 62.698 249.002 62.4831 248.857 62.2262C248.711 61.9692 248.635 61.6789 248.635 61.3836V57.334" fill="#DDDEDF"/>
<path d="M283.864 54.6655V58.9954C283.864 59.3014 283.783 59.6019 283.629 59.8666C283.476 60.1313 283.255 60.3508 282.99 60.5028L264.953 70.8299C264.615 71.0234 264.231 71.1233 263.842 71.1194C263.453 71.1155 263.071 71.0079 262.738 70.8076L249.465 62.8498C249.212 62.698 249.002 62.4831 248.857 62.2262C248.711 61.9692 248.635 61.6789 248.635 61.3836V57.334" stroke="#575D68" stroke-width="0.4" stroke-miterlimit="10"/>
<path d="M249.156 58.2292L262.743 66.0679C263.016 66.2255 263.326 66.3101 263.641 66.3135C263.957 66.3168 264.267 66.2389 264.544 66.0871L283.323 55.7797C283.486 55.6903 283.622 55.559 283.717 55.3994C283.812 55.2398 283.863 55.0577 283.864 54.8719C283.865 54.6861 283.816 54.5034 283.723 54.3427C283.63 54.1819 283.495 54.049 283.334 53.9577L268.57 45.6229C268.411 45.5331 268.231 45.4866 268.048 45.4882C267.866 45.4898 267.687 45.5393 267.529 45.6318L249.149 56.4269C248.992 56.5193 248.862 56.6513 248.771 56.8098C248.681 56.9683 248.634 57.1477 248.635 57.3301C248.635 57.5125 248.684 57.6915 248.775 57.8493C248.867 58.0071 248.998 58.1381 249.156 58.2292Z" fill="#F6F6F6" stroke="#575D68" stroke-width="0.4" stroke-miterlimit="10"/>
<path d="M261.134 57.9573L268.274 58.3234L269.056 53.6756L265.422 53.4784L265.122 55.6546L261.379 55.5767L261.134 57.9573Z" fill="#FF4F12" stroke="#575D68" stroke-width="0.4" stroke-miterlimit="10"/>
<g opacity="0.67">
<g opacity="0.67">
<mask id="mask1_3_36855" style="mask-type:alpha" maskUnits="userSpaceOnUse" x="63" y="-71" width="151" height="198">
<path opacity="0.67" d="M63.6006 15.853V126.034L213.447 39.1958V-70.3972L63.6006 15.853Z" fill="#F6F6F6" stroke="#575D68" stroke-width="0.4" stroke-miterlimit="10"/>
</mask>
<g mask="url(#mask1_3_36855)">
<path opacity="0.57" d="M165.811 -1.39517C171.467 -15.3876 169.635 -29.3247 161.719 -32.5246C153.803 -35.7245 142.8 -26.9755 137.144 -12.9831C131.488 1.00933 133.32 14.9465 141.236 18.1464C149.152 21.3463 160.155 12.5972 165.811 -1.39517Z" fill="white"/>
<path style="mix-blend-mode:multiply" d="M217.399 39.221L53.4267 137.906L52.6621 21.0658L215.369 -72.5377L217.399 39.221Z" fill="url(#paint12_linear_3_36855)"/>
<path style="mix-blend-mode:multiply" d="M213.641 -47.2249C200.691 -38.9749 188.179 -26.4215 175.479 -15.6432C172.189 -12.8514 168.494 -10.0527 165.702 -11.0069C165.17 -11.3054 164.564 -11.4436 163.956 -11.4049C163.304 -11.1785 162.709 -10.8156 162.209 -10.3407C155.984 -5.31289 149.823 0.088131 143.724 5.8624C139.18 10.225 134.307 14.2299 129.146 17.8412C129.033 17.9187 128.924 17.994 128.82 18.0671C118.912 24.9864 100.509 30.9595 90.1168 32.1116C79.7242 33.2637 54.8281 43.7824 54.1372 44.836L55.7984 136.251C55.7984 136.251 207.581 45.8344 215.214 39.3373C214.974 32.7191 213.881 -40.6066 213.641 -47.2249Z" fill="url(#paint13_linear_3_36855)"/>
<path style="mix-blend-mode:multiply" d="M31.501 114.842C31.501 114.842 45.3044 101.897 61.1624 96.7554C77.0204 91.6136 88.2685 93.0462 108.364 75.8944C128.459 58.7426 136.888 43.6209 159.999 32.8231C183.109 22.0253 205.76 15.4236 216.938 5.89868L217.726 49.274L32.7421 183.138L31.501 114.842Z" fill="url(#paint14_linear_3_36855)"/>
<path style="mix-blend-mode:multiply" d="M37.3818 95.7076C37.3818 95.7076 51.1852 82.7628 67.0432 77.621C82.9012 72.4792 94.1493 73.9118 114.245 56.76C134.34 39.6082 142.769 24.4865 165.879 13.6887C188.99 2.89088 211.641 -3.71079 222.819 -13.2357L224.154 60.2445L38.6229 164.004L37.3818 95.7076Z" fill="url(#paint15_linear_3_36855)"/>
<path style="mix-blend-mode:multiply" d="M26.9438 90.5237C26.9438 90.5237 40.7472 77.5789 56.6052 72.4371C72.4632 67.2953 83.7113 68.7278 103.807 51.5761C123.902 34.4243 132.331 19.3026 155.441 8.50477C178.552 -2.29305 201.203 -8.89469 212.381 -18.4196L213.664 52.214L28.1849 158.82L26.9438 90.5237Z" fill="url(#paint16_linear_3_36855)"/>
<path style="mix-blend-mode:multiply" d="M-0.652832 103.216C-0.652832 103.216 13.1505 90.2716 29.0085 85.1298C33.2109 83.7672 37.3525 82.8146 41.5016 81.814C43.3348 81.3719 45.7787 80.1637 47.4719 80.2864C48.9683 80.3948 50.023 81.4316 51.7262 81.2583L60.8971 80.3257C65.3899 79.8688 70.0613 79.3403 74.7842 75.9714C77.6197 73.7585 80.2357 71.2779 82.5961 68.5639L104.245 45.3311C109.638 39.5442 115.284 33.5683 120.995 31.2394C125.749 29.3007 130.148 30.0778 134.912 28.0089C142.188 24.849 149.326 15.5203 156.608 12.2758C159.097 11.167 161.507 10.8173 163.977 9.93387C178.578 4.71031 191.614 -18.5816 206.462 -23.8087C209.183 -24.7669 211.848 -25.0782 214.603 -26.5727C218.919 -28.9138 229.001 -41.4293 232.487 -38.2058C234.469 -36.373 233.086 -25.4748 233.159 -21.4881L233.707 8.67912L0.0411695 141.408L-0.652832 103.216Z" fill="url(#paint17_linear_3_36855)"/>
<path style="mix-blend-mode:multiply" d="M52.2354 72.3854C52.2354 72.3854 63.9855 61.3661 77.4847 56.9891C90.9839 52.6121 100.559 53.8316 117.665 39.2311C134.771 24.6306 141.947 11.7582 161.619 2.56648C181.292 -6.6252 210.024 -17.5428 219.539 -25.6509L220.21 11.2725L52.8261 104.896L52.2354 72.3854Z" fill="url(#paint18_linear_3_36855)"/>
<g style="mix-blend-mode:multiply">
<path d="M92.6133 22.395C93.5358 21.8681 94.552 21.5256 95.6053 21.3865C95.8696 21.4144 96.1247 21.4994 96.3529 21.6357C96.5811 21.772 96.777 21.9562 96.9269 22.1757C96.8932 21.247 96.9405 20.3172 97.0685 19.3968C97.2989 18.3272 97.9058 16.5952 97.9058 16.5952C97.2804 17.1654 96.815 17.8894 96.5559 18.6951C96.3733 19.1846 96.2153 19.6829 96.0825 20.1882C95.4913 20.3839 94.9128 20.6159 94.3502 20.8831C93.6912 21.2869 93.1041 21.7979 92.6133 22.395Z" fill="#383838"/>
</g>
<g style="mix-blend-mode:multiply">
<path d="M86.7866 49.9848C87.7092 49.4579 88.7254 49.1154 89.7786 48.9764C90.043 49.0043 90.2981 49.0893 90.5263 49.2255C90.7545 49.3618 90.9503 49.546 91.1003 49.7655C91.0665 48.8369 91.1139 47.907 91.2418 46.9866C91.4722 45.917 92.0792 44.1851 92.0792 44.1851C91.4538 44.7553 90.9884 45.4792 90.7293 46.2849C90.5467 46.7744 90.3887 47.2728 90.2558 47.7781C89.6646 47.9737 89.0861 48.2058 88.5236 48.473C87.8645 48.8768 87.2775 49.3877 86.7866 49.9848Z" fill="#383838"/>
</g>
<g style="mix-blend-mode:multiply">
<path d="M86.2979 23.0631C87.2204 22.5362 88.2366 22.1937 89.2899 22.0546C89.5542 22.0825 89.8093 22.1675 90.0375 22.3038C90.2657 22.4401 90.4616 22.6243 90.6115 22.8438C90.5778 21.9151 90.6251 20.9853 90.753 20.0649C90.9835 18.9953 91.5904 17.2633 91.5904 17.2633C90.965 17.8335 90.4996 18.5575 90.2405 19.3632C90.0579 19.8527 89.8999 20.351 89.7671 20.8563C89.1759 21.052 88.5973 21.284 88.0348 21.5512C87.3757 21.955 86.7887 22.466 86.2979 23.0631Z" fill="#383838"/>
</g>
<path style="mix-blend-mode:multiply" d="M53.5418 88.1839C54.9563 84.9656 57.918 84.0711 60.966 83.7451C64.6917 83.3466 67.8538 84.9518 71.3545 85.4049C77.3431 86.1801 84.3955 83.455 90.9804 77.8215C99.9773 70.1244 107.827 57.4802 116.953 50.7669C127.403 43.08 137.427 44.6017 147.806 41.106C150.345 40.2966 152.734 39.0739 154.875 37.4873C158.199 34.9777 161.271 31.1771 164.294 27.4765C170.419 19.9772 176.685 12.5409 183.333 6.64587C190.236 0.523779 196.516 -1.18397 203.474 -4.02079C214.492 -8.51325 226.978 -11.933 238.028 -21.3494L239.363 52.1308L53.6963 148.407L52.922 105.796C52.8427 101.435 52.5868 97.1056 52.6837 92.645C52.6746 91.1161 52.9662 89.6003 53.5418 88.1839Z" fill="url(#paint19_linear_3_36855)"/>
<path opacity="0.67" d="M135.683 68.6717C135.492 68.64 135.296 68.6829 135.136 68.7915C134.919 68.9223 134.734 69.0989 134.592 69.3089C134.262 69.7886 134.083 70.3568 134.079 70.9396C134.07 71.1808 134.118 71.4209 134.218 71.6404C134.253 71.7201 134.306 71.7911 134.371 71.8484C134.437 71.9057 134.514 71.9479 134.598 71.972C134.692 71.99 134.788 71.9892 134.881 71.9697C134.975 71.9502 135.063 71.9124 135.142 71.8585C135.358 71.7277 135.545 71.5524 135.688 71.3441C135.855 71.1095 135.982 70.8491 136.065 70.5734C136.153 70.2942 136.198 70.0032 136.198 69.7106C136.206 69.4676 136.16 69.2259 136.062 69.0033C136.029 68.9223 135.978 68.8501 135.912 68.7925C135.846 68.7349 135.767 68.6935 135.683 68.6717Z" fill="white"/>
<path opacity="0.67" d="M138.811 68.3872C138.621 68.5107 138.462 68.6778 138.349 68.8745C138.236 69.0713 138.171 69.2922 138.16 69.519C138.16 69.7276 138.214 69.8602 138.322 69.9168C138.392 69.943 138.468 69.9507 138.543 69.9391C138.617 69.9275 138.687 69.8971 138.746 69.8506C139.064 69.6528 139.314 69.3634 139.464 69.0204C139.649 68.6349 139.744 68.212 139.74 67.7842L139.74 67.6556L138.811 68.3872Z" fill="white"/>
<path opacity="0.67" d="M120.335 75.8961L120.185 76.5812L119.597 78.9538L121.083 78.0918L120.488 76.4059L120.335 75.8961Z" fill="white"/>
<path opacity="0.67" d="M125.126 75.1301C125.126 74.9526 125.082 74.8447 124.994 74.8065C124.93 74.7912 124.863 74.7908 124.799 74.805C124.735 74.8193 124.674 74.848 124.623 74.8889L123.818 75.3557L123.82 76.43L124.618 75.9672C124.773 75.8897 124.903 75.77 124.993 75.6219C125.082 75.4738 125.129 75.3033 125.126 75.1301Z" fill="white"/>
<path opacity="0.67" d="M113.166 83.0885L112.403 83.5314L112.406 85.0467L113.17 84.6038C113.366 84.4921 113.527 84.3271 113.633 84.1277C113.74 83.9313 113.795 83.7111 113.794 83.4876C113.806 83.4032 113.797 83.3173 113.769 83.237C113.74 83.1567 113.693 83.0843 113.631 83.0258C113.523 82.9508 113.368 82.9717 113.166 83.0885Z" fill="white"/>
<path opacity="0.67" d="M83.1103 97.4237C82.988 97.39 82.8597 97.3838 82.7347 97.4055C82.6097 97.4272 82.491 97.4762 82.3872 97.5491C82.0946 97.7274 81.8475 97.9714 81.6656 98.2617C81.4416 98.6103 81.2749 98.9926 81.1718 99.3939C81.0508 99.8501 80.9915 100.32 80.9956 100.792C80.9817 101.197 81.0433 101.601 81.177 101.984C81.2144 102.107 81.2782 102.221 81.3641 102.317C81.4499 102.414 81.5558 102.49 81.6742 102.541C81.7965 102.575 81.9247 102.581 82.0497 102.56C82.1746 102.538 82.2932 102.489 82.397 102.416C82.6897 102.238 82.9368 101.994 83.1189 101.703C83.3427 101.355 83.5093 100.972 83.6123 100.571C83.7334 100.115 83.7927 99.6444 83.7886 99.1723C83.8024 98.7675 83.7409 98.3637 83.6071 97.9814C83.5698 97.8579 83.506 97.744 83.4202 97.6477C83.3344 97.5514 83.2286 97.475 83.1103 97.4237Z" fill="white"/>
<path opacity="0.67" d="M153.143 53.6147L63.6011 105.356V116.427L152.568 65.351C152.903 65.1584 153.561 64.739 153.561 64.739C157.289 62.2399 158.518 60.9344 158.663 57.9296C158.818 54.7071 156.086 51.9136 153.143 53.6147ZM73.1744 108.548L73.1639 103.378C73.0562 103.598 72.9149 103.801 72.745 103.979C72.5685 104.153 72.3695 104.302 72.1535 104.423L72.1517 103.514C72.4086 103.369 72.6323 103.172 72.8082 102.936C72.9898 102.677 73.1277 102.391 73.2165 102.087L73.8976 101.692L73.9106 108.121L73.1744 108.548ZM78.0015 104.745C77.8552 105.174 77.6421 105.577 77.3703 105.939C77.1208 106.279 76.8051 106.566 76.4421 106.781C76.1721 106.964 75.8533 107.063 75.5269 107.064C75.4132 107.058 75.3027 107.024 75.2057 106.965C75.1087 106.905 75.0281 106.822 74.9716 106.724C74.8401 106.48 74.7765 106.206 74.7875 105.929C74.7849 105.827 74.7917 105.725 74.8076 105.623L75.5436 105.252C75.5346 105.343 75.5301 105.422 75.5304 105.489C75.531 105.789 75.6141 105.979 75.7796 106.057C75.8913 106.092 76.0099 106.099 76.125 106.078C76.2401 106.057 76.3483 106.008 76.4404 105.936C76.7684 105.738 77.0312 105.448 77.1965 105.102C77.391 104.717 77.4893 104.291 77.4832 103.86C77.504 103.702 77.49 103.542 77.4421 103.39C77.3942 103.239 77.3136 103.099 77.206 102.982C77.0218 102.837 76.7716 102.857 76.4553 103.04C76.2385 103.174 76.0485 103.346 75.895 103.549C75.7124 103.78 75.5569 104.03 75.4315 104.296L74.8396 104.428L75.0393 101.03L77.9217 99.3582L77.9235 100.267L75.5708 101.632L75.4434 103.37C75.5883 103.118 75.7637 102.885 75.9655 102.676C76.1454 102.483 76.3514 102.316 76.5774 102.179C77.1003 101.876 77.5055 101.841 77.7929 102.076C77.9587 102.257 78.0833 102.471 78.1581 102.705C78.2329 102.939 78.2561 103.186 78.2261 103.429C78.2258 103.877 78.1499 104.322 78.0015 104.745ZM78.8408 100.848L79.6388 100.385L79.6411 101.459L78.843 101.922L78.8408 100.848ZM78.8498 105.256L78.8475 104.181L79.6456 103.718L79.6478 104.793L78.8498 105.256ZM84.2607 100.65C84.0954 101.226 83.8396 101.772 83.5031 102.267C83.2182 102.697 82.8413 103.058 82.3996 103.325C82.2403 103.435 82.0601 103.512 81.8702 103.55C81.6802 103.588 81.4844 103.588 81.2948 103.548C81.121 103.49 80.9624 103.394 80.8309 103.266C80.6994 103.139 80.5984 102.983 80.5355 102.811C80.3339 102.306 80.2403 101.763 80.2605 101.219C80.2568 100.574 80.3471 99.9318 80.5285 99.3127C80.6921 98.7376 80.9468 98.1925 81.283 97.698C81.5679 97.2681 81.9447 96.9067 82.3861 96.6399C82.5456 96.5297 82.7258 96.4531 82.9158 96.4148C83.1058 96.3765 83.3016 96.3773 83.4913 96.4171C83.6651 96.4749 83.8239 96.5709 83.9558 96.698C84.0877 96.8251 84.1894 96.9802 84.2536 97.1518C84.4578 97.656 84.5528 98.1978 84.5323 98.7414C84.5357 99.3876 84.4442 100.031 84.2607 100.65ZM89.1931 97.7894C89.0278 98.3649 88.7721 98.9105 88.4355 99.4057C88.1507 99.8359 87.7738 100.197 87.3321 100.464C87.1728 100.574 86.9926 100.651 86.8026 100.689C86.6127 100.727 86.4169 100.727 86.2273 100.687C86.0534 100.629 85.8948 100.533 85.7634 100.405C85.6319 100.278 85.5309 100.122 85.468 99.9502C85.2664 99.4445 85.1727 98.9022 85.1929 98.3582C85.1893 97.713 85.2795 97.0707 85.4609 96.4515C85.6246 95.8765 85.8793 95.3314 86.2154 94.8369C86.5003 94.407 86.8771 94.0456 87.3186 93.7788C87.478 93.6686 87.6582 93.5921 87.8482 93.5537C88.0382 93.5154 88.234 93.5162 88.4237 93.556C88.5976 93.6138 88.7563 93.7098 88.8882 93.8369C89.0201 93.964 89.1219 94.1191 89.1861 94.2907C89.3903 94.7949 89.4853 95.3367 89.4648 95.8802C89.4682 96.5265 89.3767 97.1697 89.1931 97.7894ZM98.9166 93.6157L98.9054 88.0967L96.7386 89.3536L96.7498 94.8726L96.0068 95.3035L95.9938 88.8754L99.6465 86.7567L99.6595 93.1848L98.9166 93.6157ZM102.123 91.7561L101.414 92.1672L101.406 88.4665L100.333 89.089L100.331 88.2348L103.18 86.5827L103.181 87.4369L102.115 88.0553L102.123 91.7561ZM106.188 89.3979L106.181 86.1104L104.558 90.3435L103.808 90.7785L103.799 86.2235L104.48 85.8285L104.486 89.1163L106.11 84.8829L106.86 84.4479L106.869 89.0028L106.188 89.3979ZM110.517 87.9533L110.515 86.888L107.715 88.512L107.706 83.9571L108.415 83.5461L108.422 87.2468L109.949 86.361L109.942 82.6602L110.657 82.2452L110.665 85.9459L111.16 85.6587L111.164 87.5783L110.517 87.9533ZM114.136 84.397C113.909 84.7875 113.583 85.1112 113.191 85.3357L111.698 86.2016L111.689 81.6467L112.398 81.2358L112.401 82.7969L113.185 82.3419C113.316 82.2367 113.472 82.1669 113.638 82.1392C113.803 82.1115 113.974 82.1269 114.132 82.1838C114.364 82.3096 114.48 82.6112 114.481 83.0887C114.487 83.5481 114.368 84.0003 114.136 84.3971V84.397ZM114.959 84.3102L114.95 79.7553L115.658 79.3444L115.668 83.8993L114.959 84.3102ZM121.859 80.3078L121.333 78.8296L119.351 79.9788L118.832 82.0637L118.041 82.5226L119.968 74.9692L120.697 74.5462L122.65 79.849L121.859 80.3078ZM125.59 77.7759C125.378 78.1381 125.076 78.4398 124.714 78.6519L123.125 79.5736L123.116 75.0187L124.663 74.121C124.779 74.0292 124.915 73.9666 125.06 73.9385C125.205 73.9104 125.355 73.9175 125.496 73.9594C125.604 74.0229 125.691 74.1169 125.745 74.2295C125.799 74.3421 125.819 74.4682 125.801 74.592C125.798 75.0799 125.615 75.5495 125.287 75.9107C125.369 75.8913 125.454 75.8926 125.535 75.9145C125.617 75.9364 125.691 75.9783 125.752 76.0363C125.887 76.2042 125.95 76.4183 125.929 76.6325C125.924 77.0377 125.807 77.4335 125.59 77.7759V77.7759ZM128.147 76.7891C127.88 76.9678 127.558 77.047 127.238 77.0128C127.102 76.9885 126.973 76.9324 126.862 76.849C126.751 76.7656 126.661 76.6572 126.6 76.5327C126.43 76.1849 126.35 75.7996 126.367 75.4127C126.367 74.9412 126.448 74.4732 126.606 74.0288C126.757 73.5875 126.976 73.1723 127.254 72.7978C127.49 72.4676 127.791 72.1884 128.137 71.9771C128.409 71.7887 128.738 71.7036 129.067 71.7369C129.199 71.7664 129.321 71.8296 129.422 71.9205C129.522 72.0113 129.597 72.1267 129.639 72.2552L129.049 73.0576C129.01 72.977 128.953 72.9065 128.882 72.8511C128.812 72.7958 128.73 72.7571 128.642 72.738C128.555 72.7189 128.464 72.7199 128.377 72.7408C128.29 72.7618 128.209 72.8022 128.139 72.859C127.929 72.9856 127.747 73.155 127.606 73.3562C127.443 73.5849 127.317 73.8381 127.233 74.1065C127.141 74.3919 127.095 74.69 127.097 74.9897C127.076 75.1579 127.092 75.3284 127.143 75.49C127.194 75.6516 127.279 75.8005 127.391 75.9269C127.501 76.008 127.635 76.0501 127.772 76.0467C127.908 76.0432 128.04 75.9943 128.145 75.9077C128.363 75.7822 128.55 75.6094 128.692 75.4021C128.854 75.1579 128.989 74.8965 129.093 74.6225L129.665 74.7228C129.425 75.5724 128.886 76.3064 128.147 76.7891V76.7891ZM131.717 74.5898L131.008 75.0008L131.001 71.3001L129.928 71.9226L129.926 71.0684L132.774 69.4164L132.776 70.2705L131.71 70.889L131.717 74.5898ZM136.713 70.6577C136.58 71.0839 136.382 71.487 136.126 71.853C135.909 72.1733 135.625 72.443 135.294 72.6434C135.096 72.7744 134.861 72.8383 134.623 72.8258C134.527 72.8161 134.433 72.7859 134.349 72.737C134.265 72.6882 134.193 72.6218 134.137 72.5426L134.142 75.0588L133.427 75.4736L133.414 69.0452L134.129 68.6303L134.131 69.3743C134.247 69.0476 134.412 68.7407 134.621 68.4645C134.813 68.1962 135.058 67.97 135.34 67.7994C135.575 67.6406 135.863 67.5808 136.142 67.6331C136.27 67.67 136.388 67.7354 136.487 67.8243C136.586 67.9133 136.664 68.0235 136.715 68.1467C136.87 68.5062 136.943 68.8962 136.927 69.2877C136.928 69.7528 136.855 70.2151 136.713 70.6577H136.713ZM139.855 69.8693C139.802 69.6192 139.774 69.3645 139.771 69.1089C139.671 69.4542 139.512 69.7798 139.301 70.0712C139.119 70.3333 138.883 70.5543 138.61 70.72C138.496 70.8125 138.357 70.87 138.21 70.8858C138.064 70.9015 137.916 70.8748 137.784 70.8087C137.665 70.7064 137.573 70.5758 137.518 70.429C137.462 70.2822 137.444 70.1237 137.465 69.9682C137.462 69.5486 137.573 69.136 137.787 68.7749C138.01 68.3994 138.304 68.0711 138.653 67.8085L139.739 66.9669L139.739 66.7465C139.738 66.4834 139.677 66.3197 139.555 66.2554C139.433 66.1911 139.253 66.2281 139.015 66.3665C138.808 66.4833 138.632 66.6484 138.503 66.8476C138.388 67.009 138.323 67.2002 138.314 67.398C138.314 67.4427 138.316 67.4874 138.321 67.5319L137.668 68.0394C137.654 67.9523 137.647 67.8643 137.647 67.7761C137.651 67.5158 137.708 67.2591 137.814 67.0214C137.934 66.7455 138.096 66.4901 138.295 66.2646C138.5 66.0273 138.742 65.8259 139.013 65.6685C139.472 65.4025 139.827 65.3318 140.077 65.4563C140.327 65.5808 140.453 65.9001 140.454 66.414L140.458 68.3884C140.459 68.6395 140.467 68.8446 140.484 69.0038C140.499 69.157 140.526 69.3089 140.564 69.4581L139.855 69.8693ZM143.673 67.6545L143.666 63.9538L142.455 64.6562L142.383 66.5919C142.386 67.1303 142.301 67.6655 142.132 68.1766C141.998 68.5371 141.743 68.8397 141.41 69.0317C141.323 69.083 141.227 69.1167 141.128 69.1309L141.126 68.2954C141.212 68.2876 141.295 68.2585 141.367 68.2107C141.447 68.1635 141.512 68.0955 141.556 68.0139C141.615 67.8935 141.653 67.7642 141.669 67.6313C141.702 67.4001 141.722 67.1674 141.729 66.934L141.834 64.1611L144.372 62.6887L144.382 67.2436L143.673 67.6545ZM147.608 65.372L147.602 62.0845L145.978 66.3176L145.228 66.7526L145.219 62.1976L145.9 61.8026L145.907 65.0904L147.53 60.857L148.28 60.422L148.289 64.9769L147.608 65.372ZM151.516 63.1055L151.509 59.818L149.886 64.0511L149.136 64.4861L149.126 59.9312L149.807 59.5361L149.814 62.824L151.438 58.5905L152.188 58.1555L152.197 62.7105L151.516 63.1055Z" fill="white"/>
<path opacity="0.67" d="M88.0433 94.5625C87.921 94.5288 87.7927 94.5226 87.6677 94.5443C87.5427 94.5659 87.424 94.615 87.3202 94.6879C87.0276 94.8662 86.7806 95.1102 86.5986 95.4005C86.3747 95.7491 86.208 96.1314 86.1049 96.5327C85.9839 96.9889 85.9246 97.4593 85.9287 97.9313C85.9148 98.3362 85.9764 98.7402 86.1102 99.1226C86.1475 99.2461 86.2113 99.36 86.2972 99.4563C86.383 99.5525 86.4889 99.6289 86.6073 99.6801C86.7296 99.7138 86.8578 99.7201 86.9827 99.6984C87.1077 99.6768 87.2263 99.6277 87.3301 99.5549C87.6227 99.3765 87.8699 99.1324 88.0519 98.8421C88.2758 98.4935 88.4423 98.1113 88.5454 97.71C88.6665 97.2537 88.7258 96.7832 88.7217 96.3112C88.7355 95.9063 88.6739 95.5025 88.5402 95.1202C88.5029 94.9967 88.4391 94.8828 88.3533 94.7865C88.2674 94.6902 88.1617 94.6138 88.0433 94.5625Z" fill="white"/>
<path opacity="0.67" d="M124.668 76.6738L123.822 77.1645L123.824 78.4226L124.67 77.932C124.841 77.8361 124.983 77.6953 125.079 77.5248C125.173 77.3582 125.221 77.1702 125.22 76.9792C125.219 76.7831 125.171 76.6577 125.078 76.6018C124.983 76.5461 124.847 76.5701 124.668 76.6738Z" fill="white"/>
</g>
</g>
</g>
<path d="M225.326 51.2472L229.005 49.3446L232.683 51.7805L228.606 53.5451L225.326 51.2472Z" fill="#F6F6F6" stroke="#575D68" stroke-width="0.4" stroke-miterlimit="10"/>
<path d="M233.238 24.2159L230.003 60.9834L224.271 36.1057" stroke="#575D68" stroke-width="0.4" stroke-miterlimit="10"/>
<path d="M225.053 39.3412C226.84 39.3412 228.288 37.8926 228.288 36.1058C228.288 34.3189 226.84 32.8704 225.053 32.8704C223.266 32.8704 221.817 34.3189 221.817 36.1058C221.817 37.8926 223.266 39.3412 225.053 39.3412Z" fill="#F6F6F6" stroke="#575D68" stroke-width="0.4" stroke-miterlimit="10"/>
<path d="M233.239 27.4515C235.026 27.4515 236.474 26.003 236.474 24.2161C236.474 22.4292 235.026 20.9807 233.239 20.9807C231.452 20.9807 230.003 22.4292 230.003 24.2161C230.003 26.003 231.452 27.4515 233.239 27.4515Z" fill="#F6F6F6" stroke="#575D68" stroke-width="0.4" stroke-miterlimit="10"/>
<path d="M234.32 34.8363L230.003 60.9833" stroke="#575D68" stroke-width="0.4" stroke-miterlimit="10"/>
<path d="M234.321 38.0718C236.108 38.0718 237.557 36.6232 237.557 34.8364C237.557 33.0495 236.108 31.601 234.321 31.601C232.534 31.601 231.086 33.0495 231.086 34.8364C231.086 36.6232 232.534 38.0718 234.321 38.0718Z" fill="#F6F6F6" stroke="#575D68" stroke-width="0.4" stroke-miterlimit="10"/>
<path d="M225.326 51.2472V80.3677L228.606 82.2597L232.683 79.9277V51.7805L228.606 53.5451L225.326 51.2472Z" fill="#F6F6F6" stroke="#575D68" stroke-width="0.4" stroke-miterlimit="10"/>
<path d="M228.607 53.5452L228.607 82.2597" stroke="#575D68" stroke-width="0.4" stroke-miterlimit="10"/>
<path d="M42.1157 158.458L45.7943 156.555L49.4721 158.991L45.3958 160.756L42.1157 158.458Z" fill="#F6F6F6" stroke="#575D68" stroke-width="0.4" stroke-miterlimit="10"/>
<path d="M50.0269 131.427L46.7915 168.194L41.0601 143.316" stroke="#575D68" stroke-width="0.4" stroke-miterlimit="10"/>
<path d="M41.8419 146.552C43.6287 146.552 45.0773 145.103 45.0773 143.316C45.0773 141.53 43.6287 140.081 41.8419 140.081C40.055 140.081 38.6064 141.53 38.6064 143.316C38.6064 145.103 40.055 146.552 41.8419 146.552Z" fill="#F6F6F6" stroke="#575D68" stroke-width="0.4" stroke-miterlimit="10"/>
<path d="M50.0279 134.662C51.8147 134.662 53.2633 133.214 53.2633 131.427C53.2633 129.64 51.8147 128.191 50.0279 128.191C48.241 128.191 46.7925 129.64 46.7925 131.427C46.7925 133.214 48.241 134.662 50.0279 134.662Z" fill="#F6F6F6" stroke="#575D68" stroke-width="0.4" stroke-miterlimit="10"/>
<path d="M51.1091 142.047L46.7925 168.194" stroke="#575D68" stroke-width="0.4" stroke-miterlimit="10"/>
<path d="M51.1104 145.282C52.8973 145.282 54.3458 143.834 54.3458 142.047C54.3458 140.26 52.8973 138.812 51.1104 138.812C49.3236 138.812 47.875 140.26 47.875 142.047C47.875 143.834 49.3236 145.282 51.1104 145.282Z" fill="#F6F6F6" stroke="#575D68" stroke-width="0.4" stroke-miterlimit="10"/>
<path d="M42.1157 158.458V187.578L45.3958 189.47L49.4721 187.138V158.991L45.3958 160.756L42.1157 158.458Z" fill="#F6F6F6" stroke="#575D68" stroke-width="0.4" stroke-miterlimit="10"/>
<path d="M45.3955 160.756L45.3956 189.47" stroke="#575D68" stroke-width="0.4" stroke-miterlimit="10"/>
<defs>
<linearGradient id="paint0_linear_3_36855" x1="165.576" y1="128.375" x2="195.803" y2="128.375" gradientUnits="userSpaceOnUse">
<stop offset="0.02718" stop-color="white" stop-opacity="0"/>
<stop offset="0.04874" stop-color="#FDFDFD" stop-opacity="0.08324"/>
<stop offset="0.10424" stop-color="#F9F9F9" stop-opacity="0.27384"/>
<stop offset="0.16528" stop-color="#F6F6F6" stop-opacity="0.44769"/>
<stop offset="0.23061" stop-color="#F2F2F2" stop-opacity="0.59734"/>
<stop offset="0.30143" stop-color="#F0F0F0" stop-opacity="0.7231"/>
<stop offset="0.37948" stop-color="#EEEEEE" stop-opacity="0.8251"/>
<stop offset="0.46788" stop-color="#ECECEC" stop-opacity="0.90362"/>
<stop offset="0.57262" stop-color="#EBEBEB" stop-opacity="0.9588"/>
<stop offset="0.70946" stop-color="#EAEAEA" stop-opacity="0.99078"/>
<stop offset="1" stop-color="#EAEAEA"/>
</linearGradient>
<linearGradient id="paint1_linear_3_36855" x1="182.698" y1="90.6287" x2="211.739" y2="90.6287" gradientUnits="userSpaceOnUse">
<stop offset="0.02718" stop-color="white" stop-opacity="0"/>
<stop offset="0.04874" stop-color="#FDFDFD" stop-opacity="0.08324"/>
<stop offset="0.10424" stop-color="#F9F9F9" stop-opacity="0.27384"/>
<stop offset="0.16528" stop-color="#F6F6F6" stop-opacity="0.44769"/>
<stop offset="0.23061" stop-color="#F2F2F2" stop-opacity="0.59734"/>
<stop offset="0.30143" stop-color="#F0F0F0" stop-opacity="0.7231"/>
<stop offset="0.37948" stop-color="#EEEEEE" stop-opacity="0.8251"/>
<stop offset="0.46788" stop-color="#ECECEC" stop-opacity="0.90362"/>
<stop offset="0.57262" stop-color="#EBEBEB" stop-opacity="0.9588"/>
<stop offset="0.70946" stop-color="#EAEAEA" stop-opacity="0.99078"/>
<stop offset="1" stop-color="#EAEAEA"/>
</linearGradient>
<linearGradient id="paint2_linear_3_36855" x1="198.211" y1="146.131" x2="225.838" y2="146.131" gradientUnits="userSpaceOnUse">
<stop stop-color="white" stop-opacity="0"/>
<stop offset="0.15939" stop-color="#FAFAFA" stop-opacity="0.26031"/>
<stop offset="0.31838" stop-color="#F5F5F5" stop-opacity="0.48603"/>
<stop offset="0.47235" stop-color="#F1F1F1" stop-opacity="0.67051"/>
<stop offset="0.62041" stop-color="#EEEEEE" stop-opacity="0.81403"/>
<stop offset="0.76093" stop-color="#ECECEC" stop-opacity="0.91668"/>
<stop offset="0.89086" stop-color="#EAEAEA" stop-opacity="0.97865"/>
<stop offset="1" stop-color="#EAEAEA"/>
</linearGradient>
<linearGradient id="paint3_linear_3_36855" x1="211.195" y1="105.985" x2="200.938" y2="142.155" gradientUnits="userSpaceOnUse">
<stop offset="0.02718" stop-color="white" stop-opacity="0"/>
<stop offset="0.04874" stop-color="#FDFDFD" stop-opacity="0.08324"/>
<stop offset="0.10424" stop-color="#F9F9F9" stop-opacity="0.27384"/>
<stop offset="0.16528" stop-color="#F6F6F6" stop-opacity="0.44769"/>
<stop offset="0.23061" stop-color="#F2F2F2" stop-opacity="0.59734"/>
<stop offset="0.30143" stop-color="#F0F0F0" stop-opacity="0.7231"/>
<stop offset="0.37948" stop-color="#EEEEEE" stop-opacity="0.8251"/>
<stop offset="0.46788" stop-color="#ECECEC" stop-opacity="0.90362"/>
<stop offset="0.57262" stop-color="#EBEBEB" stop-opacity="0.9588"/>
<stop offset="0.70946" stop-color="#EAEAEA" stop-opacity="0.99078"/>
<stop offset="1" stop-color="#EAEAEA"/>
</linearGradient>
<linearGradient id="paint4_linear_3_36855" x1="133.487" y1="-17.5154" x2="179.089" y2="58.2567" gradientUnits="userSpaceOnUse">
<stop stop-color="#EAEAEA" stop-opacity="0"/>
<stop offset="0.093" stop-color="#E0E0E0" stop-opacity="0.17789"/>
<stop offset="0.24246" stop-color="#D1D1D1" stop-opacity="0.42721"/>
<stop offset="0.39392" stop-color="#C5C5C5" stop-opacity="0.63392"/>
<stop offset="0.54529" stop-color="#BBBBBB" stop-opacity="0.79434"/>
<stop offset="0.69667" stop-color="#B4B4B4" stop-opacity="0.90874"/>
<stop offset="0.84812" stop-color="#B0B0B0" stop-opacity="0.97723"/>
<stop offset="1" stop-color="#AFAFAF"/>
</linearGradient>
<linearGradient id="paint5_linear_3_36855" x1="135.282" y1="100.256" x2="87.5664" y2="19.0588" gradientUnits="userSpaceOnUse">
<stop stop-color="#EAEAEA" stop-opacity="0"/>
<stop offset="0.08667" stop-color="#E0E0E0" stop-opacity="0.17789"/>
<stop offset="0.22597" stop-color="#D1D1D1" stop-opacity="0.42721"/>
<stop offset="0.36713" stop-color="#C5C5C5" stop-opacity="0.63392"/>
<stop offset="0.5082" stop-color="#BBBBBB" stop-opacity="0.79434"/>
<stop offset="0.64929" stop-color="#B4B4B4" stop-opacity="0.90874"/>
<stop offset="0.79044" stop-color="#B0B0B0" stop-opacity="0.97723"/>
<stop offset="0.93199" stop-color="#AFAFAF"/>
</linearGradient>
<linearGradient id="paint6_linear_3_36855" x1="124.22" y1="60.3275" x2="158.8" y2="117.785" gradientUnits="userSpaceOnUse">
<stop stop-color="#EAEAEA" stop-opacity="0"/>
<stop offset="0.08667" stop-color="#E0E0E0" stop-opacity="0.17789"/>
<stop offset="0.22597" stop-color="#D1D1D1" stop-opacity="0.42721"/>
<stop offset="0.36713" stop-color="#C5C5C5" stop-opacity="0.63392"/>
<stop offset="0.5082" stop-color="#BBBBBB" stop-opacity="0.79434"/>
<stop offset="0.64929" stop-color="#B4B4B4" stop-opacity="0.90874"/>
<stop offset="0.79044" stop-color="#B0B0B0" stop-opacity="0.97723"/>
<stop offset="0.93199" stop-color="#AFAFAF"/>
</linearGradient>
<linearGradient id="paint7_linear_3_36855" x1="130.113" y1="41.8825" x2="168.369" y2="105.448" gradientUnits="userSpaceOnUse">
<stop stop-color="#EAEAEA" stop-opacity="0"/>
<stop offset="0.08667" stop-color="#E0E0E0" stop-opacity="0.17789"/>
<stop offset="0.22597" stop-color="#D1D1D1" stop-opacity="0.42721"/>
<stop offset="0.36713" stop-color="#C5C5C5" stop-opacity="0.63392"/>
<stop offset="0.5082" stop-color="#BBBBBB" stop-opacity="0.79434"/>
<stop offset="0.64929" stop-color="#B4B4B4" stop-opacity="0.90874"/>
<stop offset="0.79044" stop-color="#B0B0B0" stop-opacity="0.97723"/>
<stop offset="0.93199" stop-color="#AFAFAF"/>
</linearGradient>
<linearGradient id="paint8_linear_3_36855" x1="119.671" y1="36.4475" x2="156.588" y2="97.7883" gradientUnits="userSpaceOnUse">
<stop stop-color="#EAEAEA" stop-opacity="0"/>
<stop offset="0.08667" stop-color="#E0E0E0" stop-opacity="0.17789"/>
<stop offset="0.22597" stop-color="#D1D1D1" stop-opacity="0.42721"/>
<stop offset="0.36713" stop-color="#C5C5C5" stop-opacity="0.63392"/>
<stop offset="0.5082" stop-color="#BBBBBB" stop-opacity="0.79434"/>
<stop offset="0.64929" stop-color="#B4B4B4" stop-opacity="0.90874"/>
<stop offset="0.79044" stop-color="#B0B0B0" stop-opacity="0.97723"/>
<stop offset="0.93199" stop-color="#AFAFAF"/>
</linearGradient>
<linearGradient id="paint9_linear_3_36855" x1="117.816" y1="85.0183" x2="95.8138" y2="50.0047" gradientUnits="userSpaceOnUse">
<stop stop-color="#EAEAEA" stop-opacity="0"/>
<stop offset="0.08667" stop-color="#E0E0E0" stop-opacity="0.17789"/>
<stop offset="0.22597" stop-color="#D1D1D1" stop-opacity="0.42721"/>
<stop offset="0.36713" stop-color="#C5C5C5" stop-opacity="0.63392"/>
<stop offset="0.5082" stop-color="#BBBBBB" stop-opacity="0.79434"/>
<stop offset="0.64929" stop-color="#B4B4B4" stop-opacity="0.90874"/>
<stop offset="0.79044" stop-color="#B0B0B0" stop-opacity="0.97723"/>
<stop offset="0.93199" stop-color="#AFAFAF"/>
</linearGradient>
<linearGradient id="paint10_linear_3_36855" x1="136.077" y1="63.4988" x2="116.028" y2="27.4298" gradientUnits="userSpaceOnUse">
<stop stop-color="#EAEAEA" stop-opacity="0"/>
<stop offset="0.08667" stop-color="#E0E0E0" stop-opacity="0.17789"/>
<stop offset="0.22597" stop-color="#D1D1D1" stop-opacity="0.42721"/>
<stop offset="0.36713" stop-color="#C5C5C5" stop-opacity="0.63392"/>
<stop offset="0.5082" stop-color="#BBBBBB" stop-opacity="0.79434"/>
<stop offset="0.64929" stop-color="#B4B4B4" stop-opacity="0.90874"/>
<stop offset="0.79044" stop-color="#B0B0B0" stop-opacity="0.97723"/>
<stop offset="0.93199" stop-color="#AFAFAF"/>
</linearGradient>
<linearGradient id="paint11_linear_3_36855" x1="145.971" y1="105.627" x2="120.474" y2="60.579" gradientUnits="userSpaceOnUse">
<stop stop-color="#EAEAEA" stop-opacity="0"/>
<stop offset="0.08667" stop-color="#E0E0E0" stop-opacity="0.17789"/>
<stop offset="0.22597" stop-color="#D1D1D1" stop-opacity="0.42721"/>
<stop offset="0.36713" stop-color="#C5C5C5" stop-opacity="0.63392"/>
<stop offset="0.5082" stop-color="#BBBBBB" stop-opacity="0.79434"/>
<stop offset="0.64929" stop-color="#B4B4B4" stop-opacity="0.90874"/>
<stop offset="0.79044" stop-color="#B0B0B0" stop-opacity="0.97723"/>
<stop offset="0.93199" stop-color="#AFAFAF"/>
</linearGradient>
<linearGradient id="paint12_linear_3_36855" x1="133.413" y1="-21.571" x2="180.759" y2="57.098" gradientUnits="userSpaceOnUse">
<stop offset="0.12583" stop-color="#E9DDF7"/>
<stop offset="0.35689" stop-color="#E8DBF7"/>
<stop offset="0.48205" stop-color="#E4D3F7"/>
<stop offset="0.58183" stop-color="#DDC5F8"/>
<stop offset="0.66825" stop-color="#D3B2F9"/>
<stop offset="0.74607" stop-color="#C699F9"/>
<stop offset="0.81769" stop-color="#B67AFB"/>
<stop offset="0.88455" stop-color="#A355FC"/>
<stop offset="0.94592" stop-color="#8E2BFD"/>
<stop offset="1" stop-color="#7800FF"/>
</linearGradient>
<linearGradient id="paint13_linear_3_36855" x1="125.675" y1="14.4606" x2="150.778" y2="97.8668" gradientUnits="userSpaceOnUse">
<stop offset="0.12583" stop-color="#E9DDF7"/>
<stop offset="0.35689" stop-color="#E8DBF7"/>
<stop offset="0.48205" stop-color="#E4D3F7"/>
<stop offset="0.58183" stop-color="#DDC5F8"/>
<stop offset="0.66825" stop-color="#D3B2F9"/>
<stop offset="0.74607" stop-color="#C699F9"/>
<stop offset="0.81769" stop-color="#B67AFB"/>
<stop offset="0.88455" stop-color="#A355FC"/>
<stop offset="0.94592" stop-color="#8E2BFD"/>
<stop offset="1" stop-color="#7800FF"/>
</linearGradient>
<linearGradient id="paint14_linear_3_36855" x1="102.816" y1="21.3405" x2="127.918" y2="104.747" gradientUnits="userSpaceOnUse">
<stop offset="0.12583" stop-color="#E9DDF7"/>
<stop offset="0.35689" stop-color="#E8DBF7"/>
<stop offset="0.48205" stop-color="#E4D3F7"/>
<stop offset="0.58183" stop-color="#DDC5F8"/>
<stop offset="0.66825" stop-color="#D3B2F9"/>
<stop offset="0.74607" stop-color="#C699F9"/>
<stop offset="0.81769" stop-color="#B67AFB"/>
<stop offset="0.88455" stop-color="#A355FC"/>
<stop offset="0.94592" stop-color="#8E2BFD"/>
<stop offset="1" stop-color="#7800FF"/>
</linearGradient>
<linearGradient id="paint15_linear_3_36855" x1="113.489" y1="18.1285" x2="138.591" y2="101.535" gradientUnits="userSpaceOnUse">
<stop offset="0.12583" stop-color="#E9DDF7"/>
<stop offset="0.35689" stop-color="#E8DBF7"/>
<stop offset="0.48205" stop-color="#E4D3F7"/>
<stop offset="0.58183" stop-color="#DDC5F8"/>
<stop offset="0.66825" stop-color="#D3B2F9"/>
<stop offset="0.74607" stop-color="#C699F9"/>
<stop offset="0.81769" stop-color="#B67AFB"/>
<stop offset="0.88455" stop-color="#A355FC"/>
<stop offset="0.94592" stop-color="#8E2BFD"/>
<stop offset="1" stop-color="#7800FF"/>
</linearGradient>
<linearGradient id="paint16_linear_3_36855" x1="105.348" y1="20.5786" x2="130.451" y2="103.985" gradientUnits="userSpaceOnUse">
<stop offset="0.12583" stop-color="#E9DDF7"/>
<stop offset="0.35689" stop-color="#E8DBF7"/>
<stop offset="0.48205" stop-color="#E4D3F7"/>
<stop offset="0.58183" stop-color="#DDC5F8"/>
<stop offset="0.66825" stop-color="#D3B2F9"/>
<stop offset="0.74607" stop-color="#C699F9"/>
<stop offset="0.81769" stop-color="#B67AFB"/>
<stop offset="0.88455" stop-color="#A355FC"/>
<stop offset="0.94592" stop-color="#8E2BFD"/>
<stop offset="1" stop-color="#7800FF"/>
</linearGradient>
<linearGradient id="paint17_linear_3_36855" x1="106.92" y1="20.1053" x2="132.023" y2="103.512" gradientUnits="userSpaceOnUse">
<stop offset="0.12583" stop-color="#E9DDF7"/>
<stop offset="0.35689" stop-color="#E8DBF7"/>
<stop offset="0.48205" stop-color="#E4D3F7"/>
<stop offset="0.58183" stop-color="#DDC5F8"/>
<stop offset="0.66825" stop-color="#D3B2F9"/>
<stop offset="0.74607" stop-color="#C699F9"/>
<stop offset="0.81769" stop-color="#B67AFB"/>
<stop offset="0.88455" stop-color="#A355FC"/>
<stop offset="0.94592" stop-color="#8E2BFD"/>
<stop offset="1" stop-color="#7800FF"/>
</linearGradient>
<linearGradient id="paint18_linear_3_36855" x1="128.366" y1="13.6504" x2="153.469" y2="97.0566" gradientUnits="userSpaceOnUse">
<stop offset="0.12583" stop-color="#E9DDF7"/>
<stop offset="0.35689" stop-color="#E8DBF7"/>
<stop offset="0.48205" stop-color="#E4D3F7"/>
<stop offset="0.58183" stop-color="#DDC5F8"/>
<stop offset="0.66825" stop-color="#D3B2F9"/>
<stop offset="0.74607" stop-color="#C699F9"/>
<stop offset="0.81769" stop-color="#B67AFB"/>
<stop offset="0.88455" stop-color="#A355FC"/>
<stop offset="0.94592" stop-color="#8E2BFD"/>
<stop offset="1" stop-color="#7800FF"/>
</linearGradient>
<linearGradient id="paint19_linear_3_36855" x1="130.644" y1="12.9649" x2="155.747" y2="96.3711" gradientUnits="userSpaceOnUse">
<stop offset="0.12583" stop-color="#E9DDF7"/>
<stop offset="0.35689" stop-color="#E8DBF7"/>
<stop offset="0.48205" stop-color="#E4D3F7"/>
<stop offset="0.58183" stop-color="#DDC5F8"/>
<stop offset="0.66825" stop-color="#D3B2F9"/>
<stop offset="0.74607" stop-color="#C699F9"/>
<stop offset="0.81769" stop-color="#B67AFB"/>
<stop offset="0.88455" stop-color="#A355FC"/>
<stop offset="0.94592" stop-color="#8E2BFD"/>
<stop offset="1" stop-color="#7800FF"/>
</linearGradient>
</defs>
</svg>
