<svg width="144" height="144" viewBox="0 0 144 144" fill="none" xmlns="http://www.w3.org/2000/svg">
<circle cx="72" cy="72" r="72" fill="#FF4F12"/>
<path d="M49 39.4209V117.568L52.0526 119.705L91.1262 93.7576L94.1788 16.8315L91.1262 15L49 39.4209Z" fill="#F6F6F6" stroke="#575D68" stroke-width="0.3909" stroke-miterlimit="10"/>
<path d="M52.0532 41.2529V119.705L94.1794 95.5896V16.832L52.0532 41.2529Z" fill="#F6F6F6" stroke="#575D68" stroke-width="0.3909" stroke-miterlimit="10"/>
<path d="M77.0847 44.6088L69.4531 49.1878V37.8929L77.3902 33.6191L77.0847 44.6088Z" fill="#F6F6F6" stroke="#575D68" stroke-width="0.3909" stroke-miterlimit="10"/>
<path d="M76.0115 42.2695C77.2177 39.4849 76.9416 36.6842 75.3946 36.014C73.8476 35.3439 71.6156 37.0581 70.4093 39.8427C69.203 42.6273 69.4792 45.428 71.0262 46.0982C72.5732 46.7683 74.8052 45.0541 76.0115 42.2695Z" fill="#F6F6F6" stroke="#575D68" stroke-width="0.3909" stroke-miterlimit="10"/>
<path d="M75.1705 41.9064C75.9077 40.2047 75.6273 38.4446 74.5444 37.9755C73.4615 37.5064 71.9861 38.5059 71.2489 40.2076C70.5118 41.9093 70.7918 43.6693 71.8747 44.1384C72.9576 44.6075 74.4333 43.6081 75.1705 41.9064Z" fill="#575D68"/>
<path d="M65.1801 43.3885L64.8745 48.2726L69.4534 47.6622V39.4199L65.1801 43.3885Z" fill="#F6F6F6" stroke="#575D68" stroke-width="0.3909" stroke-miterlimit="10"/>
<path d="M81.6629 33.9258V38.8099L77.084 43.0836L77.3895 34.8413L81.6629 33.9258Z" fill="#F6F6F6" stroke="#575D68" stroke-width="0.3909" stroke-miterlimit="10"/>
<path d="M94.4842 44.3035L52.0532 68.1141V63.8403L94.4842 39.7246V44.3035Z" fill="#F6F6F6" stroke="#575D68" stroke-width="0.3909" stroke-miterlimit="10"/>
<path d="M77.3899 63.5339L73.4214 65.9762V60.4813L77.3899 58.0391V63.5339Z" fill="#F6F6F6" stroke="#575D68" stroke-width="0.3909" stroke-miterlimit="10"/>
<path d="M82.8846 60.4812L78.916 62.6179V57.4286L82.8846 54.9863V60.4812Z" fill="#F6F6F6" stroke="#575D68" stroke-width="0.3909" stroke-miterlimit="10"/>
<path d="M88.3788 57.4304L84.1055 59.5671L84.411 54.0726L88.3788 51.9355V57.4304Z" fill="#F6F6F6" stroke="#575D68" stroke-width="0.3909" stroke-miterlimit="10"/>
<path d="M77.3899 70.2523L73.4214 72.6945V67.1997L77.3899 64.7578V70.2523Z" fill="#F6F6F6" stroke="#575D68" stroke-width="0.3909" stroke-miterlimit="10"/>
<path d="M82.8849 67.1976L78.6108 69.6398L78.9164 64.145L82.8849 61.7031V67.1976Z" fill="#F6F6F6" stroke="#575D68" stroke-width="0.3909" stroke-miterlimit="10"/>
<path d="M88.3788 64.1449L84.1055 66.2819V61.0923L88.3788 58.6504V64.1449Z" fill="#F6F6F6" stroke="#575D68" stroke-width="0.3909" stroke-miterlimit="10"/>
<path d="M77.3898 77.2722L73.1157 79.7144L73.4213 74.2196L77.3898 71.7773V77.2722Z" fill="#F6F6F6" stroke="#575D68" stroke-width="0.3909" stroke-miterlimit="10"/>
<path d="M82.8849 74.2195L78.6108 76.3561V70.8617L82.8849 68.7246V74.2195Z" fill="#F6F6F6" stroke="#575D68" stroke-width="0.3909" stroke-miterlimit="10"/>
<path d="M88.3788 71.1667L84.1055 73.3034V67.8089L88.3788 65.6719V71.1667Z" fill="#F6F6F6" stroke="#575D68" stroke-width="0.3909" stroke-miterlimit="10"/>
<path d="M77.3898 84.5984L73.1157 87.0402V81.5458L77.3898 79.1035V84.5984Z" fill="#F6F6F6" stroke="#575D68" stroke-width="0.3909" stroke-miterlimit="10"/>
<path d="M72.2009 87.6511L67.9268 90.093L68.2323 84.5985L72.2009 82.1562V87.6511Z" fill="#F6F6F6" stroke="#575D68" stroke-width="0.3909" stroke-miterlimit="10"/>
<path d="M66.7061 90.7038L57.853 95.8931V90.3986L66.7061 85.209V90.7038Z" fill="#F6F6F6" stroke="#575D68" stroke-width="0.3909" stroke-miterlimit="10"/>
<path d="M82.8849 81.5456L78.6108 83.9875V78.493L82.8849 76.0508V81.5456Z" fill="#F6F6F6" stroke="#575D68" stroke-width="0.3909" stroke-miterlimit="10"/>
<path d="M88.074 78.4929L84.1055 80.9348V75.4403L88.3788 72.998L88.074 78.4929Z" fill="#F6F6F6" stroke="#575D68" stroke-width="0.3909" stroke-miterlimit="10"/>
<path d="M71.2851 79.1029L58.769 86.4293V70.861L71.5899 63.8398L71.2851 79.1029Z" fill="#F6F6F6" stroke="#575D68" stroke-width="0.3909" stroke-miterlimit="10"/>
<path d="M66.7057 95.2817L57.5479 100.471V99.2498L66.7057 94.0605V95.2817Z" fill="#575D68"/>
<path d="M66.7057 98.0317L57.5479 103.221V102L66.7057 96.8105V98.0317Z" fill="#575D68"/>
<path d="M66.7057 100.775L57.5479 105.965V104.744L66.7057 99.5547V100.775Z" fill="#575D68"/>
<path d="M66.7057 103.219L57.5479 108.408V107.188L66.7057 101.998V103.219Z" fill="#575D68"/>
<path d="M66.7057 105.965L57.5479 111.155V109.933L66.7057 104.744V105.965Z" fill="#575D68"/>
<path d="M66.7057 108.715L57.5479 113.905V112.683L66.7057 107.494V108.715Z" fill="#575D68"/>
<path d="M88.0743 96.5043L67.9268 108.104V93.4516L88.0743 81.8516V96.5043Z" fill="#575D68"/>
<path d="M82.8849 50.7151L64.2637 61.3993V56.8204L82.8849 46.4414V50.7151Z" fill="#575D68"/>
<path d="M94.4839 42.4722L82.2734 49.1882V48.5774L94.4839 41.5566V42.4722Z" fill="#575D68"/>
<path d="M64.5692 59.2608L52.0532 66.2819V65.6712L64.5692 58.6504V59.2608Z" fill="#575D68"/>
</svg>
