<svg width="140" height="173" viewBox="0 0 140 173" fill="none" xmlns="http://www.w3.org/2000/svg">
<path d="M6.8055 1L1 4.92724L7.23238 78.6914L130.002 148.784L133.929 171.921L139.478 167.738L138.966 76.3863L6.8055 1Z" fill="#EEEEEF" stroke="#575D68" stroke-width="0.5" stroke-miterlimit="10"/>
<path d="M1 5.01367L1.34147 82.7051L124.111 152.713L133.588 171.666L133.161 80.4L1 5.01367Z" fill="#F6F6F6" stroke="#575D68" stroke-width="0.5" stroke-miterlimit="10"/>
<path d="M133.16 80.3994L138.966 76.3867" stroke="#575D68" stroke-width="0.5" stroke-miterlimit="10"/>
<path d="M46.666 114.715L92.8262 152.26L99.6278 147.363C99.6278 147.363 105.795 143.1 101.532 134.848L101.26 134.666L102.167 133.306C105.25 130.041 106.067 124.781 103.799 117.708L103.527 116.619C106.52 114.806 107.699 109.183 107.064 103.47L106.52 100.749C109.422 97.7564 110.238 91.5896 107.971 85.0601C106.52 80.9791 102.983 78.5305 102.983 78.5305L87.657 69.371L81.2181 65.4715L72.1493 60.0302L76.4117 45.7921C79.1323 37.6302 75.142 26.657 69.7915 22.3947C68.4311 21.3971 66.5267 21.3064 65.0757 22.304L58.8182 26.2942L55.2814 52.5031L47.2101 65.9249L46.666 114.715Z" fill="#F6F6F6" stroke="#575D68" stroke-width="0.5" stroke-miterlimit="10"/>
<path d="M47.6653 65.1994L38.0524 59.3047L29.0742 64.746L35.7852 109.092L46.6677 114.987C46.7584 114.896 47.9373 65.6528 47.6653 65.1994Z" fill="#F6F6F6" stroke="#575D68" stroke-width="0.5" stroke-miterlimit="10"/>
<path d="M46.666 114.715L92.8262 152.26L99.6278 147.363C99.6278 147.363 105.795 143.1 101.532 134.848L101.26 134.666L102.167 133.306C105.25 130.041 106.067 124.781 103.799 117.708L103.527 116.619C106.52 114.806 107.699 109.183 107.064 103.47L106.52 100.749C109.422 97.7564 110.238 91.5896 107.971 85.0601C106.52 80.9791 102.983 78.5305 102.983 78.5305L87.657 69.371L81.2181 65.4715L72.1493 60.0302L76.4117 45.7921C79.1323 37.6302 75.142 26.657 69.7915 22.3947C68.4311 21.3971 66.5267 21.3064 65.0757 22.304L58.8182 26.2942L55.2814 52.5031L47.2101 65.9249L46.666 114.715Z" fill="#F6F6F6" stroke="#575D68" stroke-width="0.5" stroke-miterlimit="10"/>
<path opacity="0.05" d="M46.666 114.715L92.8262 152.26L99.6278 147.363C99.6278 147.363 105.795 143.1 101.532 134.848L101.26 134.666L102.167 133.306C105.25 130.041 106.067 124.781 103.799 117.708L103.527 116.619C106.52 114.806 107.699 109.183 107.064 103.47L106.52 100.749C109.422 97.7564 110.238 91.5896 107.971 85.0601C106.52 80.9791 102.983 78.5305 102.983 78.5305L87.657 69.371L81.2181 65.4715L72.1493 60.0302L76.4117 45.7921C79.1323 37.6302 75.142 26.657 69.7915 22.3947C68.4311 21.3971 66.5267 21.3064 65.0757 22.304L58.8182 26.2942L55.2814 52.5031L47.2101 65.9249L46.666 114.715Z" fill="#575D68"/>
<path d="M47.6653 65.1994L38.0524 59.3047L29.0742 64.746L35.7852 109.092L46.6677 114.987C46.7584 114.896 47.9373 65.6528 47.6653 65.1994Z" fill="#F6F6F6" stroke="#575D68" stroke-width="0.5" stroke-miterlimit="10"/>
<path opacity="0.2" d="M47.6653 65.1994L38.0524 59.3047L29.0742 64.746L35.7852 109.092L46.6677 114.987C46.7584 114.896 47.9373 65.6528 47.6653 65.1994Z" fill="#575D68"/>
<path d="M39.5977 119.975L92.6501 151.988C95.5521 150.356 96.3683 145.096 94.4639 139.564V139.473L95.1894 138.748C98.2728 135.483 98.8169 128.682 96.5497 121.608L96.3683 120.973C99.361 119.159 100.721 114.534 99.9958 108.821L99.5424 105.103C102.444 102.11 103.079 96.9407 100.903 90.4112C99.4517 86.3302 95.9149 83.8816 95.9149 83.8816L80.4979 74.7222L74.0591 70.8226L64.4461 65.1093L69.1619 51.1433C71.8826 42.9814 68.7991 31.0106 61.0907 26.3855C60.0024 25.66 58.5514 26.2041 58.098 27.4738L48.0316 57.8542L39.9604 71.276L39.5977 119.975Z" fill="#F6F6F6" stroke="#575D68" stroke-width="0.5" stroke-miterlimit="10"/>
<path d="M39.9603 71.1861L29.1684 64.8379L28.8057 114.263L39.6882 120.158C39.7789 120.158 40.2323 71.6395 39.9603 71.1861Z" fill="#F6F6F6" stroke="#575D68" stroke-width="0.5" stroke-miterlimit="10"/>
<path opacity="0.16" d="M39.9603 71.1861L29.1684 64.8379L28.8057 114.263L39.6882 120.158C39.7789 120.158 40.2323 71.6395 39.9603 71.1861Z" fill="#575D68"/>
<path d="M94.1896 139.291C93.4641 138.475 85.5742 134.213 85.5742 134.213Z" fill="#F6F6F6"/>
<path d="M94.1896 139.291C93.4641 138.475 85.5742 134.213 85.5742 134.213" stroke="#575D68" stroke-width="0.5" stroke-miterlimit="10"/>
<path d="M85.3052 114.262L96.1877 120.701" stroke="#575D68" stroke-width="0.5" stroke-miterlimit="10"/>
<path d="M88.479 98.5723L99.2709 104.92" stroke="#575D68" stroke-width="0.5" stroke-miterlimit="10"/>
<path d="M99.5391 105.102L106.885 100.477" stroke="#575D68" stroke-width="0.5" stroke-miterlimit="10"/>
<path d="M96.2773 120.881L103.623 116.619" stroke="#575D68" stroke-width="0.5" stroke-miterlimit="10"/>
<path d="M94.4644 139.565L101.175 134.939" stroke="#575D68" stroke-width="0.5" stroke-miterlimit="10"/>
<path d="M64.4448 65.1089L72.244 60.1211" stroke="#575D68" stroke-width="0.5" stroke-miterlimit="10"/>
</svg>
