<svg width="55" height="124" viewBox="0 0 55 124" fill="none" xmlns="http://www.w3.org/2000/svg">
<path d="M54.6573 54.4371L27.3276 1L20.0378 5.17924L12.222 13.748C8.2055 17.1533 8.55475 22.9162 8.64207 30.9492L9.07865 90.1491C9.07865 95.4753 12.1347 99.7538 14.4922 101.151L38.7659 123.591L45.7512 118.265L25.4067 79.2347L54.6573 54.4371Z" stroke="#575D68" stroke-width="0.5" stroke-miterlimit="10"/>
<path d="M38.245 123.329L6.89871 105.604C4.6285 104.294 3.31876 100.714 3.23145 98.2692C3.23145 96.7848 3.66803 95.737 4.27924 95.1258L17.8131 83.6875L38.245 123.329Z" fill="#FF4F12" stroke="#575D68" stroke-width="0.5" stroke-miterlimit="10"/>
<path d="M6.897 105.516C4.53949 104.206 1.57075 99.8406 1.48343 94.5143L1.04686 35.3144C0.95954 27.2814 0.610283 21.5186 4.6268 18.1133L19.7324 5.36523L47.0621 58.8023L4.27754 95.0382C3.57902 95.6494 3.14243 96.6972 3.22974 98.1816C3.31706 100.626 4.6268 104.206 6.897 105.516Z" fill="#7700FF" stroke="#575D68" stroke-width="0.5" stroke-miterlimit="10"/>
<path d="M17.8984 83.6001L25.4949 79.2344" stroke="#575D68" stroke-width="0.5" stroke-miterlimit="10"/>
<path d="M47.1484 58.8033L54.6576 54.4375" stroke="#575D68" stroke-width="0.5" stroke-miterlimit="10"/>
</svg>
