<svg width="180" height="159" viewBox="0 0 180 159" fill="none" xmlns="http://www.w3.org/2000/svg">
<path fill-rule="evenodd" clip-rule="evenodd" d="M27.2593 136.305L24.6081 141.128C24.6081 141.128 23.8047 140.565 23.403 140.324C22.6799 139.842 22.2782 138.878 22.2782 137.833C22.2782 136.225 23.3226 134.939 24.6081 134.939C24.9295 134.939 25.1705 135.019 25.4115 135.1C26.2952 135.502 27.2593 136.305 27.2593 136.305Z" fill="#F6F6F6" stroke="#333333" stroke-width="0.4"/>
<path fill-rule="evenodd" clip-rule="evenodd" d="M54.5751 136.305C54.5751 136.305 53.6111 135.502 52.7274 135.1C52.4863 135.019 52.2453 134.939 51.924 134.939C50.7188 134.939 49.7547 136.064 49.5941 137.511L38.507 143.861L28.2234 137.913C27.9824 136.868 27.179 136.064 26.1346 135.984C24.8491 135.903 23.7243 137.109 23.5636 138.717C23.4833 140.324 24.4474 141.691 25.7329 141.771C26.1346 141.771 26.5362 141.691 26.8576 141.45L34.731 146.031L23.7244 152.381L27.42 154.471L38.4267 148.121L49.4334 154.471L53.1291 152.301L42.1223 145.951L51.3615 140.485C51.7632 141.208 52.406 141.61 53.1291 141.691C54.4145 141.771 55.5392 140.565 55.6999 138.958C55.8606 137.833 55.3785 136.788 54.5751 136.305Z" fill="#F6F6F6" stroke="#333333" stroke-width="0.4"/>
<path fill-rule="evenodd" clip-rule="evenodd" d="M54.0931 151.497L51.442 156.32C51.442 156.32 50.6386 155.757 50.2368 155.516C49.5138 155.034 49.1121 154.069 49.1121 153.024C49.1121 151.417 50.1565 150.13 51.442 150.13C51.7633 150.13 52.0043 150.211 52.2454 150.291C53.1291 150.693 54.0931 151.497 54.0931 151.497Z" fill="#F6F6F6" stroke="#333333" stroke-width="0.4"/>
<path d="M55.1616 154.201C55.2641 152.606 54.3063 151.246 53.0223 151.163C51.7382 151.081 50.6141 152.307 50.5115 153.901C50.409 155.496 51.3668 156.856 52.6508 156.938C53.9349 157.021 55.059 155.795 55.1616 154.201Z" fill="#F6F6F6" stroke="#333333" stroke-width="0.4"/>
<path fill-rule="evenodd" clip-rule="evenodd" d="M51.5222 140.244C51.3615 139.842 51.2811 139.36 51.3615 138.878C51.4418 137.27 52.5667 136.064 53.9325 136.145" fill="#F6F6F6"/>
<path d="M51.5222 140.244C51.3615 139.842 51.2811 139.36 51.3615 138.878C51.4418 137.27 52.5667 136.064 53.9325 136.145" stroke="#333333" stroke-width="0.4"/>
<path fill-rule="evenodd" clip-rule="evenodd" d="M27.0986 152.461L24.4474 157.284C24.4474 157.284 23.6439 156.721 23.2422 156.48C22.5192 155.998 22.1176 155.033 22.1176 153.988C22.1176 152.381 23.1619 151.095 24.4474 151.095C24.7687 151.095 25.0097 151.175 25.2508 151.256C26.1345 151.657 27.0986 152.461 27.0986 152.461Z" fill="#F6F6F6" stroke="#333333" stroke-width="0.4"/>
<path d="M28.1858 155.114C28.2884 153.519 27.3306 152.159 26.0466 152.077C24.7625 151.994 23.6385 153.22 23.536 154.815C23.4334 156.409 24.3911 157.769 25.6751 157.852C26.9592 157.935 28.0833 156.709 28.1858 155.114Z" fill="#F6F6F6" stroke="#333333" stroke-width="0.4"/>
<path fill-rule="evenodd" clip-rule="evenodd" d="M27.0987 141.289C26.6167 140.967 26.5364 139.762 26.697 139.36C27.0184 138.315 27.7414 137.993 28.3037 137.833" fill="#F6F6F6"/>
<path d="M27.0987 141.289C26.6167 140.967 26.5364 139.762 26.697 139.36C27.0184 138.315 27.7414 137.993 28.3037 137.833" stroke="#333333" stroke-width="0.4"/>
<path d="M59.2349 123.766L60.681 116.854L67.8313 115.729L68.8757 122.159L68.7954 125.454L60.922 127.142L59.2349 123.766Z" stroke="#333333" stroke-width="0.4" stroke-miterlimit="10"/>
<path d="M59.235 122.561L57.7085 127.303C57.7085 127.303 58.4316 129.232 60.8418 130.357C62.6093 131.161 66.5459 131.483 68.5544 130.036C69.0365 129.634 69.5186 129.313 69.9203 128.991C71.286 127.866 72.8928 127.062 74.5799 126.74C75.6243 126.499 76.7491 126.258 77.4721 126.097C81.0071 125.454 82.2123 124.57 83.6584 122.641C84.3815 121.677 84.7831 120.23 84.7028 118.944C84.7028 118.703 84.4618 115.889 83.0156 114.925C80.6858 113.398 77.7936 113.317 76.4278 113.719C75.062 114.121 69.6792 116.934 69.6792 116.934L68.9561 121.034C68.7151 122.079 67.992 122.963 66.8673 123.686C65.0195 124.811 62.6896 124.731 60.8418 123.606L59.235 122.561Z" fill="url(#paint0_linear_110_3)" stroke="#575D68" stroke-width="0.4" stroke-miterlimit="10"/>
<path d="M80.1234 113.719C80.1234 113.719 76.8295 115.809 78.9183 116.372C80.9268 116.934 82.4533 115.889 83.1764 116.291C83.3371 116.372 83.5781 116.613 83.7387 116.934C84.5421 118.22 84.4618 119.908 83.4977 121.114C82.6139 122.239 81.0875 123.606 78.838 124.409C77.1508 125.052 77.3919 124.168 76.0261 122.641C74.7406 121.114 71.6877 125.937 70.0809 127.062C68.474 128.187 66.8672 129.473 64.0553 129.554C61.1631 129.714 58.1101 126.097 58.1101 126.097" stroke="#575D68" stroke-width="0.4" stroke-miterlimit="10"/>
<path d="M35.5344 145.87V145.79V124.811C35.5344 123.204 36.9002 121.918 38.507 121.918H38.8284C40.4352 121.918 41.7207 123.123 41.801 124.651V124.731V145.709V145.79C41.7207 146.192 41.3993 146.513 40.8369 146.835C40.2745 147.076 39.5515 147.237 38.6677 147.237C37.8643 147.237 37.0609 147.076 36.5789 146.835C35.9362 146.594 35.6148 146.272 35.5344 145.87Z" fill="#F6F6F6" stroke="#333333" stroke-width="0.4"/>
<path d="M80.6055 133.332L82.0516 126.419L89.202 125.294L90.2463 131.724L90.166 135.019L82.2926 136.707L80.6055 133.332Z" fill="#F6F6F6" stroke="#575D68" stroke-width="0.4" stroke-miterlimit="10"/>
<path d="M80.6055 133.331L79.079 138.074C79.079 138.074 79.8021 140.003 82.2123 141.128C83.9797 141.932 87.9164 142.253 89.9249 140.806C90.4069 140.405 90.889 140.083 91.2907 139.762C92.6565 138.636 94.2633 137.832 95.9504 137.511C96.9948 137.27 98.1197 137.029 98.8427 136.868C102.378 136.225 103.583 135.341 105.029 133.412C105.752 132.447 106.154 131 106.073 129.714C106.073 129.473 105.832 126.66 104.386 125.696C102.056 124.168 99.1641 124.088 97.7983 124.49C96.4325 124.892 91.0497 127.705 91.0497 127.705L90.3266 131.804C90.0856 132.849 89.3625 133.733 88.2378 134.457C86.39 135.582 84.0601 135.502 82.2123 134.376L80.6055 133.331Z" fill="url(#paint1_linear_110_3)" stroke="#575D68" stroke-width="0.4" stroke-miterlimit="10"/>
<path d="M101.574 124.49C101.574 124.49 98.2803 126.58 100.369 127.142C102.378 127.705 103.904 126.66 104.627 127.062C104.788 127.142 105.029 127.383 105.19 127.705C105.993 128.991 105.913 130.679 104.949 131.885C104.065 133.01 102.538 134.376 100.289 135.18C98.6017 135.823 98.8427 134.939 97.4769 133.412C96.1915 131.885 93.1385 136.707 91.5317 137.833C89.9249 138.958 88.3181 140.244 85.5062 140.324C82.6139 140.485 79.561 136.788 79.561 136.788" stroke="#575D68" stroke-width="0.4" stroke-miterlimit="10"/>
<path d="M69.4381 85.9084L58.5118 95.1519L56.7444 122.4C58.5922 126.901 70.8842 126.74 73.8568 120.069C73.8568 120.069 70.9646 106.324 70.8843 96.9202L69.4381 85.9084Z" fill="#F6F6F6" stroke="#333333" stroke-width="0.4" stroke-miterlimit="10"/>
<path d="M69.4381 85.9084L58.5118 95.1519L56.7444 122.4C58.5922 126.901 70.8842 126.74 73.8568 120.069C73.8568 120.069 70.9646 106.324 70.8843 96.9202L69.4381 85.9084Z" fill="#EAEAEA"/>
<path d="M69.4381 85.9084L58.5118 95.1519L56.7444 122.4C58.5922 126.901 70.8842 126.74 73.8568 120.069C73.8568 120.069 70.9646 106.324 70.8843 96.9202L69.4381 85.9084Z" fill="#DABAFF" fill-opacity="0.42"/>
<path d="M24.0457 124.088C27.3396 126.499 31.1157 128.348 35.1327 129.232C38.266 129.956 41.1582 130.036 44.3718 129.795C53.2896 128.589 58.7528 124.892 58.8331 122.239L58.6725 119.024C58.6725 119.024 57.7084 118.06 55.6195 116.693L40.9172 107.289L17.6988 112.674C17.6988 112.674 17.3774 115.407 17.8595 117.015C18.7432 119.667 21.4748 122.239 24.0457 124.088Z" fill="#F6F6F6" stroke="#333333" stroke-width="0.4" stroke-miterlimit="10"/>
<path d="M22.5995 119.426C26.9379 122.963 32.16 125.374 37.6231 126.258C47.1837 127.785 55.2178 123.284 55.2178 123.284C59.8775 120.551 59.9578 115.729 55.7801 113.076L41.0778 103.672C41.0778 103.672 19.8679 101.984 17.8594 111.951C17.3773 114.443 19.8679 117.256 22.5995 119.426Z" fill="#F6F6F6" stroke="#333333" stroke-width="0.4" stroke-miterlimit="10"/>
<path d="M69.438 85.9085L63.6535 83.0149L51.6025 85.4262L15.6903 97.724L16.1723 103.752C16.6544 110.263 18.4219 112.031 21.7158 114.603C24.1261 116.452 26.8576 118.462 29.0268 119.667C42.4437 127.303 56.4229 121.918 56.4229 121.918L78.7576 111.147C78.7576 111.147 77.8738 127.223 77.7131 131.081C77.7131 131.081 81.007 133.814 86.3095 133.492C93.2991 133.01 94.906 129.071 94.906 129.071C94.906 129.071 91.7727 106.967 90.407 98.1259L80.2037 92.0976L54.2537 99.4923L53.129 98.3671C53.129 98.3671 58.1904 98.367 62.9305 95.393" fill="#F6F6F6"/>
<path d="M69.438 85.9085L63.6535 83.0149L51.6025 85.4262L15.6903 97.724L16.1723 103.752C16.6544 110.263 18.4219 112.031 21.7158 114.603C24.1261 116.452 26.8576 118.462 29.0268 119.667C42.4437 127.303 56.4229 121.918 56.4229 121.918L78.7576 111.147C78.7576 111.147 77.8738 127.223 77.7131 131.081C77.7131 131.081 81.007 133.814 86.3095 133.492C93.2991 133.01 94.906 129.071 94.906 129.071C94.906 129.071 91.7727 106.967 90.407 98.1259L80.2037 92.0976L54.2537 99.4923L53.129 98.3671C53.129 98.3671 58.1904 98.367 62.9305 95.393" fill="#EAEAEA"/>
<path d="M69.438 85.9085L63.6535 83.0149L51.6025 85.4262L15.6903 97.724L16.1723 103.752C16.6544 110.263 18.4219 112.031 21.7158 114.603C24.1261 116.452 26.8576 118.462 29.0268 119.667C42.4437 127.303 56.4229 121.918 56.4229 121.918L78.7576 111.147C78.7576 111.147 77.8738 127.223 77.7131 131.081C77.7131 131.081 81.007 133.814 86.3095 133.492C93.2991 133.01 94.906 129.071 94.906 129.071C94.906 129.071 91.7727 106.967 90.407 98.1259L80.2037 92.0976L54.2537 99.4923L53.129 98.3671C53.129 98.3671 58.1904 98.367 62.9305 95.393" fill="#DABAFF" fill-opacity="0.42"/>
<path d="M69.438 85.9085L63.6535 83.0149L51.6025 85.4262L15.6903 97.724L16.1723 103.752C16.6544 110.263 18.4219 112.031 21.7158 114.603C24.1261 116.452 26.8576 118.462 29.0268 119.667C42.4437 127.303 56.4229 121.918 56.4229 121.918L78.7576 111.147C78.7576 111.147 77.8738 127.223 77.7131 131.081C77.7131 131.081 81.007 133.814 86.3095 133.492C93.2991 133.01 94.906 129.071 94.906 129.071C94.906 129.071 91.7727 106.967 90.407 98.1259L80.2037 92.0976L54.2537 99.4923L53.129 98.3671C53.129 98.3671 58.1904 98.367 62.9305 95.393" stroke="#333333" stroke-width="0.4" stroke-miterlimit="10"/>
<path d="M78.7577 111.147C78.7577 111.147 83.4977 109.298 85.3456 105.923" stroke="#333333" stroke-width="0.4" stroke-miterlimit="10"/>
<path d="M78.838 111.308C81.0876 111.79 83.9798 110.585 85.8276 108.897" stroke="#333333" stroke-width="0.4" stroke-miterlimit="10"/>
<path d="M50.6385 113.639C51.6026 114.282 52.647 114.603 53.2897 114.603C54.5752 114.684 55.941 114.362 56.8247 113.558C58.1905 112.353 58.2709 110.263 58.2709 108.495C58.2709 107.611 58.1905 107.45 58.1905 106.566L55.459 105.199" stroke="#333333" stroke-width="0.4" stroke-miterlimit="10"/>
<path d="M58.9938 106.807C58.9938 107.369 58.9938 108.012 58.9938 108.575C58.9938 109.781 58.9938 110.986 58.5921 112.112C58.2708 113.237 57.5478 114.362 56.5034 114.844" stroke="#333333" stroke-width="0.4" stroke-miterlimit="10"/>
<path d="M58.9135 106.807C69.5184 106.244 81.3285 100.859 87.2737 97.4829" stroke="#333333" stroke-width="0.4" stroke-miterlimit="10"/>
<path d="M88.8806 98.3671C90.4874 102.868 92.7368 121.114 92.6565 128.107" stroke="#333333" stroke-width="0.4" stroke-miterlimit="10"/>
<path d="M89.202 102.868C89.2824 103.109 89.2823 103.431 89.3627 103.672" stroke="#333333" stroke-width="0.4" stroke-miterlimit="10"/>
<path d="M89.6036 105.199C90.648 111.79 91.612 120.632 91.6924 125.856" stroke="#333333" stroke-width="0.4" stroke-miterlimit="10" stroke-dasharray="1.91 1.91"/>
<path d="M91.7729 126.58C91.7729 126.901 91.7729 127.142 91.7729 127.383" stroke="#333333" stroke-width="0.4" stroke-miterlimit="10"/>
<path d="M60.0382 107.771C60.0382 107.771 71.2055 106.807 79.4806 102.868C84.4617 100.537 87.4343 99.2512 87.4343 99.2512" stroke="#333333" stroke-width="0.4" stroke-miterlimit="10" stroke-dasharray="2.04 2.04"/>
<path d="M155.081 141.53L171.872 131.724L167.855 129.312L151.305 138.797L155.081 141.53Z" fill="#F6F6F6" stroke="#575D68" stroke-width="0.4" stroke-miterlimit="10"/>
<path d="M143.512 94.75V143.298L147.69 145.71L147.529 92.0975L143.271 92.7406L143.512 94.75Z" fill="#F6F6F6" stroke="#575D68" stroke-width="0.4" stroke-miterlimit="10"/>
<path d="M147.69 145.71L155.081 141.45L154.92 87.1946L147.368 90.7312L147.529 92.0976L147.69 145.71Z" fill="#F6F6F6" stroke="#575D68" stroke-width="0.4" stroke-miterlimit="10"/>
<path d="M143.512 143.379L127.524 152.622L131.702 155.033L147.69 145.71L143.512 143.379Z" fill="#F6F6F6" stroke="#575D68" stroke-width="0.4" stroke-miterlimit="10"/>
<path d="M171.872 131.643L171.792 134.296L131.702 157.927L131.783 155.033L171.872 131.643Z" fill="#F6F6F6" stroke="#575D68" stroke-width="0.4" stroke-miterlimit="10"/>
<path d="M127.524 152.622V155.596L131.622 157.927L131.702 155.034L127.524 152.622Z" fill="#F6F6F6" stroke="#575D68" stroke-width="0.4" stroke-miterlimit="10"/>
<path d="M35.6951 79.3174L52.4863 69.5114L48.4693 67.1001L31.9191 76.5846L35.6951 79.3174Z" fill="#F6F6F6" stroke="#575D68" stroke-width="0.4" stroke-miterlimit="10"/>
<path d="M24.1261 32.618V81.1663L28.3037 83.5776L28.1431 29.9656L23.885 30.6086L24.1261 32.618Z" fill="#F6F6F6" stroke="#575D68" stroke-width="0.4" stroke-miterlimit="10"/>
<path d="M28.3037 83.5776L35.6951 79.3176L35.5344 25.0625L27.9823 28.5991L28.143 29.9656L28.3037 83.5776Z" fill="#F6F6F6" stroke="#575D68" stroke-width="0.4" stroke-miterlimit="10"/>
<path d="M24.1261 81.1663L8.13831 90.4097L12.316 92.821L28.3037 83.4972L24.1261 81.1663Z" fill="#F6F6F6" stroke="#575D68" stroke-width="0.4" stroke-miterlimit="10"/>
<path d="M52.406 69.5115L52.3257 72.1639L12.2357 95.795L12.316 92.9014L52.406 69.5115Z" fill="#F6F6F6" stroke="#575D68" stroke-width="0.4" stroke-miterlimit="10"/>
<path d="M8.13831 90.4097V93.3836L12.2356 95.795L12.3159 92.9014L8.13831 90.4097Z" fill="#F6F6F6" stroke="#575D68" stroke-width="0.4" stroke-miterlimit="10"/>
<path d="M178.059 76.665L118.285 111.147L2.67514 46.1214L0.425659 43.3886L60.922 8.98682L178.059 76.665Z" fill="#F6F6F6" stroke="#575D68" stroke-width="0.4" stroke-miterlimit="10"/>
<path d="M175.166 75.0574L115.072 109.7Z" fill="#F6F6F6"/>
<path d="M175.166 75.0574L115.072 109.7" stroke="#575D68" stroke-width="0.4" stroke-miterlimit="10"/>
<path d="M118.205 111.147V116.05L177.898 81.7288V76.665L118.205 111.147Z" fill="#F6F6F6" stroke="#575D68" stroke-width="0.4" stroke-miterlimit="10"/>
<path d="M64.6981 11.2375L4.60327 45.8Z" fill="#F6F6F6"/>
<path d="M64.6981 11.2375L4.60327 45.8" stroke="#575D68" stroke-width="0.4" stroke-miterlimit="10"/>
<path d="M118.205 116.05L0.264893 48.0506L0.425632 43.3887L118.285 111.147V116.05H118.205Z" fill="#F6F6F6" stroke="#575D68" stroke-width="0.4" stroke-miterlimit="10"/>
<path d="M75.1423 37.4406C74.8209 37.1995 74.5798 36.878 74.5798 36.4761V9.9514C74.5798 9.30838 75.3029 8.90652 75.8653 9.22803L109.689 28.8402C109.93 29.001 110.09 29.2421 110.09 29.5636V56.4098C110.09 56.8921 109.608 57.2136 109.126 56.9724L75.1423 37.4406Z" fill="#F6F6F6" stroke="#575D68" stroke-width="0.4" stroke-miterlimit="10"/>
<path d="M74.9013 37.6015C74.58 37.3603 74.339 37.0388 74.339 36.6369V10.1122C74.339 9.46919 75.062 9.06728 75.6244 9.38879L109.448 29.001C109.689 29.1618 109.849 29.4029 109.849 29.7244V56.5706C109.849 57.0529 109.367 57.3744 108.885 57.1333L74.9013 37.6015Z" fill="white" stroke="#575D68" stroke-width="0.4" stroke-miterlimit="10"/>
<path d="M74.9013 37.6015C74.58 37.3603 74.339 37.0388 74.339 36.6369V10.1122C74.339 9.46919 75.062 9.06728 75.6244 9.38879L109.448 29.001C109.689 29.1618 109.849 29.4029 109.849 29.7244V56.5706C109.849 57.0529 109.367 57.3744 108.885 57.1333L74.9013 37.6015Z" fill="#EEEEEF" stroke="#575D68" stroke-width="0.4" stroke-miterlimit="10"/>
<path d="M109.046 56.8921L74.9013 37.2799C74.58 37.0387 73.9373 37.1191 73.5356 37.3603L50.7188 50.5422C50.3975 50.703 50.3975 50.9441 50.3975 51.1852C50.4778 51.9086 50.4778 52.3909 51.5222 52.9536L84.2208 71.8424C84.7832 72.1639 85.5063 72.1639 86.0687 71.8424L108.243 58.9819C108.805 58.6604 109.126 58.0174 109.207 57.3743C109.367 57.1332 109.287 56.9725 109.046 56.8921Z" fill="#E9EAEB" stroke="#575D68" stroke-width="0.4" stroke-miterlimit="10"/>
<path d="M84.6225 71.0385L50.8794 51.4264C50.5581 51.1853 50.3974 50.7833 50.7991 50.5422L73.6158 37.3603C74.0175 37.1191 74.6602 37.1191 74.9816 37.2799L109.126 56.8921C109.448 57.1332 109.448 57.4547 109.046 57.6958L86.0686 70.9582C85.5866 71.1993 85.0242 71.1993 84.6225 71.0385Z" fill="#F6F6F6" stroke="#575D68" stroke-width="0.4" stroke-miterlimit="10"/>
<path d="M65.0999 59.866C65.0999 60.1072 65.1801 60.2679 65.4211 60.4287L69.8399 63.0007C70.0006 63.0811 70.2416 63.0008 70.2416 62.7596V62.5989L65.0999 59.6249V59.866Z" fill="#DDDEDF" stroke="#575D68" stroke-width="0.4" stroke-miterlimit="10"/>
<path d="M64.3766 46.5233L75.2227 40.2539C75.303 40.1735 75.4637 40.1735 75.544 40.2539L103.503 56.4902C103.663 56.5706 103.663 56.8921 103.503 56.9725L92.8977 63.0812C92.6567 63.242 92.4156 63.242 92.2549 63.0812L64.3766 46.9252C64.2159 46.9252 64.2159 46.6841 64.3766 46.5233Z" fill="white" stroke="#575D68" stroke-width="0.4" stroke-miterlimit="10"/>
<path d="M64.3766 46.5233L75.2227 40.2539C75.303 40.1735 75.4637 40.1735 75.544 40.2539L103.503 56.4902C103.663 56.5706 103.663 56.8921 103.503 56.9725L92.8977 63.0812C92.6567 63.242 92.4156 63.242 92.2549 63.0812L64.3766 46.9252C64.2159 46.9252 64.2159 46.6841 64.3766 46.5233Z" fill="#EEEEEF" stroke="#575D68" stroke-width="0.4" stroke-miterlimit="10"/>
<path d="M75.2227 11.0767V35.7527L108.966 54.8826V30.3673L75.2227 11.0767Z" fill="#F6F6F6" stroke="#575D68" stroke-width="0.4" stroke-miterlimit="10"/>
<path d="M75.2227 11.0767V35.7527L108.966 54.8826V30.3673L75.2227 11.0767Z" fill="url(#paint2_linear_110_3)" stroke="#575D68" stroke-width="0.4" stroke-miterlimit="10"/>
<path d="M91.8531 20.079C91.9419 20.079 92.0139 19.9351 92.0139 19.7575C92.0139 19.58 91.9419 19.436 91.8531 19.436C91.7643 19.436 91.6924 19.58 91.6924 19.7575C91.6924 19.9351 91.7643 20.079 91.8531 20.079Z" fill="#DDDEDF" stroke="#575D68" stroke-width="0.4" stroke-miterlimit="10"/>
<path d="M107.544 58.9121C107.612 58.7481 107.601 58.5876 107.519 58.5534C107.437 58.5193 107.315 58.6245 107.247 58.7884C107.179 58.9523 107.19 59.1129 107.272 59.147C107.354 59.1812 107.475 59.076 107.544 58.9121Z" fill="white" stroke="#575D68" stroke-width="0.4" stroke-miterlimit="10"/>
<path d="M105.029 60.6699L104.467 60.9914C104.386 61.0717 104.306 60.9914 104.306 60.911V60.7503C104.306 60.6699 104.386 60.5091 104.467 60.4287L105.029 60.1073C105.109 60.0269 105.19 60.1073 105.19 60.1876V60.3484C105.19 60.5091 105.19 60.6699 105.029 60.6699Z" fill="white" stroke="#575D68" stroke-width="0.4" stroke-miterlimit="10"/>
<path d="M106.475 59.8661L105.993 60.1072C105.832 60.1876 105.752 60.1072 105.752 59.9464V59.7053L106.636 59.1427V59.3838C106.716 59.5446 106.636 59.7857 106.475 59.8661Z" fill="white" stroke="#575D68" stroke-width="0.4" stroke-miterlimit="10"/>
<path opacity="0.16" d="M107.544 58.9121C107.612 58.7481 107.601 58.5876 107.519 58.5534C107.437 58.5193 107.315 58.6245 107.247 58.7884C107.179 58.9523 107.19 59.1129 107.272 59.147C107.354 59.1812 107.475 59.076 107.544 58.9121Z" fill="#575D68"/>
<path opacity="0.16" d="M105.029 60.6699L104.467 60.9914C104.386 61.0717 104.306 60.9914 104.306 60.911V60.7503C104.306 60.6699 104.386 60.5091 104.467 60.4287L105.029 60.1073C105.109 60.0269 105.19 60.1073 105.19 60.1876V60.3484C105.19 60.5091 105.19 60.6699 105.029 60.6699Z" fill="#575D68"/>
<path opacity="0.16" d="M106.475 59.8661L105.993 60.1072C105.832 60.1876 105.752 60.1072 105.752 59.9464V59.7053L106.636 59.1427V59.3838C106.716 59.5446 106.636 59.7857 106.475 59.8661Z" fill="#575D68"/>
<path d="M75.4637 64.7691L62.0468 57.0528C61.8861 56.9724 61.8861 56.8116 62.1271 56.7313L70.8843 51.6675C71.045 51.5871 71.286 51.5871 71.4466 51.6675L84.8636 59.3837C85.0243 59.4641 85.0243 59.6249 84.7833 59.7053L76.0261 64.7691C75.8654 64.8494 75.544 64.8494 75.4637 64.7691Z" fill="#E9EAEB" stroke="#575D68" stroke-width="0.4" stroke-miterlimit="10"/>
<path d="M75.0619 42.5045L73.6158 41.7007C73.5355 41.6203 73.5355 41.6203 73.6158 41.5399L75.303 40.5754C75.3833 40.495 75.544 40.495 75.544 40.5754L76.9902 41.3792C77.0705 41.4596 77.0705 41.4595 76.9902 41.5399L75.303 42.5045C75.2226 42.5045 75.1423 42.5045 75.0619 42.5045Z" fill="#FAFAFA" stroke="#575D68" stroke-width="0.4" stroke-miterlimit="10"/>
<path d="M76.9902 43.6298L75.5441 42.826C75.4638 42.7456 75.4638 42.7456 75.5441 42.6652L77.2313 41.7007C77.3116 41.6203 77.4722 41.6203 77.4722 41.7007L78.9184 42.5044C78.9987 42.5848 78.9987 42.5848 78.9184 42.6652L77.2313 43.6298C77.1509 43.6298 77.0705 43.6298 76.9902 43.6298Z" fill="#FAFAFA" stroke="#575D68" stroke-width="0.4" stroke-miterlimit="10"/>
<path d="M78.9183 44.7549L77.4721 43.9512C77.3918 43.8708 77.3918 43.8708 77.4721 43.7905L79.1594 42.8259C79.2398 42.7455 79.4004 42.7455 79.4004 42.8259L80.8466 43.6297C80.9269 43.7101 80.9269 43.7101 80.8466 43.7905L79.1594 44.7549C79.1594 44.7549 78.9987 44.7549 78.9183 44.7549Z" fill="#FAFAFA" stroke="#575D68" stroke-width="0.4" stroke-miterlimit="10"/>
<path d="M80.8466 45.8802L79.4005 45.0765C79.3201 44.9961 79.3201 44.9961 79.4005 44.9157L81.0876 43.9512C81.1679 43.8708 81.3287 43.8708 81.3287 43.9512L82.7748 44.7549C82.8552 44.8353 82.8552 44.8353 82.7748 44.9157L81.0876 45.8802C81.0876 45.8802 80.927 45.8802 80.8466 45.8802Z" fill="#FAFAFA" stroke="#575D68" stroke-width="0.4" stroke-miterlimit="10"/>
<path d="M82.8551 47.0056L81.4089 46.2018C81.3285 46.1215 81.3285 46.1214 81.4089 46.0411L83.096 45.0765C83.1764 44.9961 83.3371 44.9961 83.3371 45.0765L84.7833 45.8803C84.8636 45.9607 84.8636 45.9607 84.7833 46.0411L83.096 47.0056C83.0157 47.0056 82.8551 47.0056 82.8551 47.0056Z" fill="#FAFAFA" stroke="#575D68" stroke-width="0.4" stroke-miterlimit="10"/>
<path d="M84.7833 48.1309L83.3371 47.3271C83.2568 47.2467 83.2568 47.2467 83.3371 47.1663L85.0243 46.2018C85.1046 46.1214 85.2654 46.1214 85.2654 46.2018L86.7115 47.0056C86.7918 47.0859 86.7918 47.0859 86.7115 47.1663L85.0243 48.1309C84.9439 48.1309 84.8637 48.1309 84.7833 48.1309Z" fill="#FAFAFA" stroke="#575D68" stroke-width="0.4" stroke-miterlimit="10"/>
<path d="M86.7113 49.2562L85.2652 48.4524C85.1849 48.3721 85.1849 48.3721 85.2652 48.2917L86.9524 47.3271C87.0327 47.2468 87.1935 47.2468 87.1935 47.3271L88.6396 48.1309C88.7199 48.2113 88.7199 48.2113 88.6396 48.2917L86.9524 49.2562C86.872 49.2562 86.7917 49.2562 86.7113 49.2562Z" fill="#FAFAFA" stroke="#575D68" stroke-width="0.4" stroke-miterlimit="10"/>
<path d="M88.6395 50.3814L87.1934 49.5776C87.1131 49.4973 87.1131 49.4973 87.1934 49.4169L88.8806 48.4524C88.961 48.372 89.1216 48.372 89.1216 48.4524L90.5678 49.2562C90.6481 49.3365 90.6481 49.3365 90.5678 49.4169L88.8806 50.3814C88.8806 50.3814 88.7199 50.3814 88.6395 50.3814Z" fill="#FAFAFA" stroke="#575D68" stroke-width="0.4" stroke-miterlimit="10"/>
<path d="M90.5677 51.5067L89.1215 50.7029C89.0412 50.6226 89.0412 50.6225 89.1215 50.5422L90.8088 49.5776C90.8891 49.4972 91.0497 49.4972 91.0497 49.5776L92.4959 50.3814C92.5762 50.4618 92.5762 50.4618 92.4959 50.5422L90.8088 51.5067C90.8088 51.5067 90.648 51.5067 90.5677 51.5067Z" fill="#FAFAFA" stroke="#575D68" stroke-width="0.4" stroke-miterlimit="10"/>
<path d="M92.5763 52.6321L91.1301 51.8283C91.0497 51.7479 91.0497 51.7479 91.1301 51.6675L92.8174 50.703C92.8977 50.6226 93.0583 50.6226 93.0583 50.703L94.5046 51.5068C94.5849 51.5871 94.5849 51.5872 94.5046 51.6675L92.8174 52.6321C92.737 52.6321 92.6566 52.6321 92.5763 52.6321Z" fill="#FAFAFA" stroke="#575D68" stroke-width="0.4" stroke-miterlimit="10"/>
<path d="M94.5044 53.7573L93.0582 52.9535C92.9778 52.8731 92.9778 52.8731 93.0582 52.7928L94.7454 51.8282C94.8257 51.7478 94.9864 51.7478 94.9864 51.8282L96.4327 52.632C96.513 52.7124 96.513 52.7124 96.4327 52.7928L94.7454 53.7573C94.665 53.7573 94.5847 53.7573 94.5044 53.7573Z" fill="#FAFAFA" stroke="#575D68" stroke-width="0.4" stroke-miterlimit="10"/>
<path d="M96.4327 54.8826L94.9865 54.0788C94.9062 53.9984 94.9062 53.9984 94.9865 53.918L96.6736 52.9535C96.754 52.8731 96.9147 52.8731 96.9147 52.9535L98.3608 53.7573C98.4411 53.8376 98.4411 53.8376 98.3608 53.918L96.6736 54.8826C96.6736 54.8826 96.513 54.8826 96.4327 54.8826Z" fill="#FAFAFA" stroke="#575D68" stroke-width="0.4" stroke-miterlimit="10"/>
<path d="M98.3607 56.0079L96.9146 55.2041C96.8343 55.1238 96.8343 55.1238 96.9146 55.0434L98.6017 54.0788C98.6821 53.9985 98.8428 53.9985 98.8428 54.0788L100.289 54.8826C100.369 54.963 100.369 54.963 100.289 55.0434L98.6017 56.0079C98.6017 56.0079 98.441 56.0079 98.3607 56.0079Z" fill="#FAFAFA" stroke="#575D68" stroke-width="0.4" stroke-miterlimit="10"/>
<path d="M101.092 57.6154L98.8428 56.3294C98.7625 56.249 98.7625 56.249 98.8428 56.1686L100.61 55.2041C100.691 55.1237 100.851 55.1237 100.851 55.2041L103.101 56.4902C103.181 56.5705 103.181 56.5705 103.101 56.6509L101.333 57.6154C101.253 57.6154 101.173 57.6154 101.092 57.6154Z" fill="#FAFAFA" stroke="#575D68" stroke-width="0.4" stroke-miterlimit="10"/>
<path d="M75.6244 45.3981L74.1783 44.5943C74.098 44.5139 74.098 44.5139 74.1783 44.4335L75.8654 43.469C75.9457 43.3886 76.1064 43.3886 76.1064 43.469L77.5525 44.2728C77.6329 44.3531 77.6329 44.3531 77.5525 44.4335L75.8654 45.3981C75.785 45.3981 75.7048 45.3981 75.6244 45.3981Z" fill="#FAFAFA" stroke="#575D68" stroke-width="0.4" stroke-miterlimit="10"/>
<path d="M77.5527 46.5233L76.1065 45.7195C76.0262 45.6391 76.0262 45.6391 76.1065 45.5587L77.7936 44.5942C77.874 44.5138 78.0347 44.5138 78.0347 44.5942L79.4808 45.398C79.5611 45.4784 79.5611 45.4784 79.4808 45.5587L77.7936 46.5233C77.7133 46.5233 77.633 46.5233 77.5527 46.5233Z" fill="#FAFAFA" stroke="#575D68" stroke-width="0.4" stroke-miterlimit="10"/>
<path d="M79.4808 47.6486L78.0347 46.8448C77.9544 46.7644 77.9544 46.7644 78.0347 46.684L79.7218 45.7195C79.8021 45.6391 79.9629 45.6391 79.9629 45.7195L81.4089 46.5232C81.4892 46.6036 81.4892 46.6036 81.4089 46.684L79.7218 47.6486C79.7218 47.6486 79.5611 47.6486 79.4808 47.6486Z" fill="#FAFAFA" stroke="#575D68" stroke-width="0.4" stroke-miterlimit="10"/>
<path d="M81.4089 48.7739L79.9628 47.9701C79.8825 47.8897 79.8825 47.8897 79.9628 47.8094L81.65 46.8448C81.7303 46.7645 81.8909 46.7645 81.8909 46.8448L83.3371 47.6486C83.4174 47.729 83.4174 47.729 83.3371 47.8094L81.65 48.7739C81.65 48.7739 81.4892 48.7739 81.4089 48.7739Z" fill="#FAFAFA" stroke="#575D68" stroke-width="0.4" stroke-miterlimit="10"/>
<path d="M83.4174 49.8992L81.9714 49.0955C81.891 49.0151 81.891 49.0151 81.9714 48.9347L83.6585 47.9702C83.7388 47.8898 83.8995 47.8898 83.8995 47.9702L85.3456 48.774C85.426 48.8543 85.426 48.8543 85.3456 48.9347L83.6585 49.8992C83.5782 49.8992 83.4174 49.8992 83.4174 49.8992Z" fill="#FAFAFA" stroke="#575D68" stroke-width="0.4" stroke-miterlimit="10"/>
<path d="M85.3457 51.0245L83.8995 50.2208C83.8191 50.1404 83.8191 50.1404 83.8995 50.06L85.5867 49.0954C85.6671 49.0151 85.8277 49.0151 85.8277 49.0954L87.2739 49.8992C87.3542 49.9796 87.3542 49.9796 87.2739 50.06L85.5867 51.0245C85.5064 51.0245 85.426 51.0245 85.3457 51.0245Z" fill="#FAFAFA" stroke="#575D68" stroke-width="0.4" stroke-miterlimit="10"/>
<path d="M87.2738 52.1498L85.8276 51.346C85.7472 51.2656 85.7472 51.2656 85.8276 51.1852L87.5147 50.2207C87.5951 50.1403 87.7558 50.1403 87.7558 50.2207L89.202 51.0245C89.2823 51.1049 89.2823 51.1048 89.202 51.1852L87.5147 52.1498C87.4344 52.1498 87.3541 52.1498 87.2738 52.1498Z" fill="#FAFAFA" stroke="#575D68" stroke-width="0.4" stroke-miterlimit="10"/>
<path d="M89.202 53.275L87.7558 52.4712C87.6755 52.3909 87.6755 52.3909 87.7558 52.3105L89.443 51.3459C89.5233 51.2655 89.6841 51.2655 89.6841 51.3459L91.1302 52.1497C91.2105 52.2301 91.2105 52.2301 91.1302 52.3105L89.443 53.275C89.443 53.275 89.2824 53.275 89.202 53.275Z" fill="#FAFAFA" stroke="#575D68" stroke-width="0.4" stroke-miterlimit="10"/>
<path d="M91.1302 54.4004L89.6842 53.5966C89.6038 53.5162 89.6038 53.5162 89.6842 53.4359L91.3712 52.4713C91.4516 52.3909 91.6123 52.3909 91.6123 52.4713L93.0583 53.2751C93.1386 53.3555 93.1386 53.3555 93.0583 53.4359L91.3712 54.4004C91.3712 54.4004 91.2105 54.4004 91.1302 54.4004Z" fill="#FAFAFA" stroke="#575D68" stroke-width="0.4" stroke-miterlimit="10"/>
<path d="M93.0583 55.5256L91.6123 54.7219C91.5319 54.6415 91.5319 54.6415 91.6123 54.5611L93.2994 53.5965C93.3797 53.5162 93.5403 53.5162 93.5403 53.5965L94.9865 54.4003C95.0668 54.4807 95.0668 54.4807 94.9865 54.5611L93.2994 55.5256C93.2994 55.5256 93.1387 55.5256 93.0583 55.5256Z" fill="#FAFAFA" stroke="#575D68" stroke-width="0.4" stroke-miterlimit="10"/>
<path d="M95.0667 56.651L93.6207 55.8472C93.5403 55.7668 93.5403 55.7668 93.6207 55.6864L95.3078 54.7218C95.3881 54.6414 95.5488 54.6414 95.5488 54.7218L96.9949 55.5256C97.0753 55.606 97.0753 55.606 96.9949 55.6864L95.3078 56.651C95.2275 56.651 95.1471 56.651 95.0667 56.651Z" fill="#FAFAFA" stroke="#575D68" stroke-width="0.4" stroke-miterlimit="10"/>
<path d="M96.9951 57.7762L95.5489 56.9724C95.4686 56.8921 95.4686 56.8921 95.5489 56.8117L97.2361 55.8472C97.3165 55.7668 97.4771 55.7668 97.4771 55.8472L98.9233 56.651C99.0036 56.7313 99.0036 56.7313 98.9233 56.8117L97.2361 57.7762C97.1558 57.7762 97.0754 57.7762 96.9951 57.7762Z" fill="#FAFAFA" stroke="#575D68" stroke-width="0.4" stroke-miterlimit="10"/>
<path d="M98.9232 58.8211L97.477 58.0173C97.3967 57.9369 97.3967 57.937 97.477 57.8566L99.1641 56.8921C99.2445 56.8117 99.4052 56.8117 99.4052 56.8921L100.851 57.6958C100.932 57.7762 100.932 57.7762 100.851 57.8566L99.1641 58.8211C99.0838 58.9014 99.0035 58.9014 98.9232 58.8211Z" fill="#FAFAFA" stroke="#575D68" stroke-width="0.4" stroke-miterlimit="10"/>
<path d="M73.6159 44.2727L71.3663 42.9866C71.2859 42.9063 71.2859 42.9063 71.3663 42.8259L73.0534 41.8613C73.1338 41.7809 73.2945 41.7809 73.2945 41.8613L75.5441 43.1474C75.6245 43.2277 75.6245 43.2278 75.5441 43.3081L73.8569 44.2727C73.7765 44.2727 73.6962 44.2727 73.6159 44.2727Z" fill="#FAFAFA" stroke="#575D68" stroke-width="0.4" stroke-miterlimit="10"/>
<path d="M74.0979 47.0056L72.6517 46.2018C72.5713 46.1215 72.5713 46.1215 72.6517 46.0411L74.339 45.0765C74.4193 44.9961 74.5799 44.9961 74.5799 45.0765L76.0262 45.8803C76.1065 45.9607 76.1065 45.9607 76.0262 46.0411L74.339 47.0056C74.2586 47.086 74.1783 47.086 74.0979 47.0056Z" fill="#FAFAFA" stroke="#575D68" stroke-width="0.4" stroke-miterlimit="10"/>
<path d="M76.0262 48.1309L74.58 47.3271C74.4997 47.2467 74.4997 47.2467 74.58 47.1663L76.2672 46.2018C76.3475 46.1214 76.5082 46.1214 76.5082 46.2018L77.9544 47.0056C78.0347 47.0859 78.0347 47.0859 77.9544 47.1663L76.2672 48.1309C76.1868 48.1309 76.1065 48.1309 76.0262 48.1309Z" fill="#FAFAFA" stroke="#575D68" stroke-width="0.4" stroke-miterlimit="10"/>
<path d="M77.9543 49.2562L76.5081 48.4524C76.4278 48.3721 76.4278 48.3721 76.5081 48.2917L78.1953 47.3271C78.2757 47.2468 78.4364 47.2468 78.4364 47.3271L79.8825 48.1309C79.9628 48.2113 79.9628 48.2113 79.8825 48.2917L78.1953 49.2562C78.115 49.2562 78.0347 49.2562 77.9543 49.2562Z" fill="#FAFAFA" stroke="#575D68" stroke-width="0.4" stroke-miterlimit="10"/>
<path d="M79.8825 50.3814L78.4364 49.5776C78.356 49.4973 78.356 49.4973 78.4364 49.4169L80.1235 48.4524C80.2039 48.372 80.3646 48.372 80.3646 48.4524L81.8107 49.2562C81.8911 49.3365 81.8911 49.3365 81.8107 49.4169L80.1235 50.3814C80.0432 50.3814 79.8825 50.3814 79.8825 50.3814Z" fill="#FAFAFA" stroke="#575D68" stroke-width="0.4" stroke-miterlimit="10"/>
<path d="M81.8106 51.4265L80.3645 50.6227C80.2841 50.5423 80.2841 50.5423 80.3645 50.4619L82.0516 49.4973C82.132 49.4169 82.2926 49.4169 82.2926 49.4973L83.7388 50.3011C83.8192 50.3815 83.8192 50.3815 83.7388 50.4619L82.0516 51.4265C81.9713 51.5069 81.8106 51.5069 81.8106 51.4265Z" fill="#FAFAFA" stroke="#575D68" stroke-width="0.4" stroke-miterlimit="10"/>
<path d="M83.6585 52.5517L82.2124 51.7479C82.132 51.6675 82.132 51.6675 82.2124 51.5871L83.8994 50.6227C83.9798 50.5423 84.1405 50.5423 84.1405 50.6227L85.5866 51.4264C85.6669 51.5068 85.6669 51.5068 85.5866 51.5871L83.8994 52.5517C83.8994 52.632 83.7388 52.632 83.6585 52.5517Z" fill="#FAFAFA" stroke="#575D68" stroke-width="0.4" stroke-miterlimit="10"/>
<path d="M85.5867 53.6769L84.1405 52.8732C84.0601 52.7928 84.0601 52.7928 84.1405 52.7124L85.8276 51.7479C85.908 51.6675 86.0687 51.6675 86.0687 51.7479L87.5148 52.5517C87.5952 52.632 87.5952 52.632 87.5148 52.7124L85.8276 53.6769C85.8276 53.6769 85.667 53.7573 85.5867 53.6769Z" fill="#FAFAFA" stroke="#575D68" stroke-width="0.4" stroke-miterlimit="10"/>
<path d="M87.5147 54.8022L86.0686 53.9984C85.9882 53.918 85.9882 53.9181 86.0686 53.8377L87.7557 52.8731C87.8361 52.7928 87.9968 52.7928 87.9968 52.8731L89.4429 53.6769C89.5233 53.7573 89.5233 53.7573 89.4429 53.8377L87.7557 54.8022C87.7557 54.8022 87.595 54.8022 87.5147 54.8022Z" fill="#FAFAFA" stroke="#575D68" stroke-width="0.4" stroke-miterlimit="10"/>
<path d="M89.443 55.9276L87.9969 55.1238C87.9166 55.0435 87.9166 55.0434 87.9969 54.9631L89.684 53.9985C89.7644 53.9181 89.925 53.9181 89.925 53.9985L91.3711 54.8023C91.4515 54.8827 91.4515 54.8827 91.3711 54.9631L89.684 55.9276C89.684 55.9276 89.5233 55.9276 89.443 55.9276Z" fill="#FAFAFA" stroke="#575D68" stroke-width="0.4" stroke-miterlimit="10"/>
<path d="M91.3711 56.9725L89.9249 56.1687C89.8445 56.0883 89.8445 56.0883 89.9249 56.0079L91.6122 55.0434C91.6925 54.9631 91.8531 54.9631 91.8531 55.0434L93.2994 55.8472C93.3797 55.9276 93.3797 55.9276 93.2994 56.0079L91.6122 56.9725C91.6122 57.0529 91.4514 57.0529 91.3711 56.9725Z" fill="#FAFAFA" stroke="#575D68" stroke-width="0.4" stroke-miterlimit="10"/>
<path d="M93.2993 58.0979L91.8531 57.294C91.7728 57.2137 91.7728 57.2137 91.8531 57.1333L93.5403 56.1687C93.6206 56.0883 93.7814 56.0883 93.7814 56.1687L95.2276 56.9725C95.3079 57.0529 95.3079 57.0529 95.2276 57.1333L93.5403 58.0979C93.5403 58.1782 93.3797 58.1782 93.2993 58.0979Z" fill="#FAFAFA" stroke="#575D68" stroke-width="0.4" stroke-miterlimit="10"/>
<path d="M96.754 60.1072L93.7814 58.4192C93.7011 58.3388 93.7011 58.3389 93.7814 58.2585L95.4686 57.2939C95.5489 57.2135 95.7096 57.2135 95.7096 57.2939L98.6822 58.9818C98.7625 59.0622 98.7625 59.0622 98.6822 59.1426L96.9951 60.1072C96.9147 60.1072 96.8343 60.1875 96.754 60.1072Z" fill="#FAFAFA" stroke="#575D68" stroke-width="0.4" stroke-miterlimit="10"/>
<path d="M72.1698 45.8803L69.1972 44.1924C69.1169 44.112 69.1169 44.112 69.1972 44.0316L70.8843 43.0671C70.9647 42.9867 71.1254 42.9867 71.1254 43.0671L74.0979 44.755C74.1783 44.8354 74.1783 44.8354 74.0979 44.9158L72.4108 45.8803C72.3305 45.9606 72.2501 45.9606 72.1698 45.8803Z" fill="#FAFAFA" stroke="#575D68" stroke-width="0.4" stroke-miterlimit="10"/>
<path d="M72.8928 48.8544L71.4466 48.0506C71.3663 47.9702 71.3663 47.9702 71.4466 47.8898L73.1339 46.9253C73.2142 46.8449 73.3749 46.8449 73.3749 46.9253L74.8211 47.7291C74.9014 47.8094 74.9014 47.8094 74.8211 47.8898L73.1339 48.8544C73.0536 48.8544 72.9732 48.8544 72.8928 48.8544Z" fill="#FAFAFA" stroke="#575D68" stroke-width="0.4" stroke-miterlimit="10"/>
<path d="M74.821 49.9796L73.3748 49.1758C73.2945 49.0954 73.2945 49.0955 73.3748 49.0151L75.062 48.0505C75.1423 47.9701 75.303 47.9701 75.303 48.0505L76.7492 48.8543C76.8295 48.9347 76.8295 48.9347 76.7492 49.0151L75.062 49.9796C74.9816 49.9796 74.9013 49.9796 74.821 49.9796Z" fill="#FAFAFA" stroke="#575D68" stroke-width="0.4" stroke-miterlimit="10"/>
<path d="M76.7493 51.1049L75.3031 50.3011C75.2227 50.2207 75.2227 50.2207 75.3031 50.1403L76.9902 49.1758C77.0706 49.0954 77.2313 49.0954 77.2313 49.1758L78.6774 49.9795C78.7578 50.0599 78.7578 50.0599 78.6774 50.1403L76.9902 51.1049C76.9099 51.1049 76.8296 51.1049 76.7493 51.1049Z" fill="#FAFAFA" stroke="#575D68" stroke-width="0.4" stroke-miterlimit="10"/>
<path d="M78.6773 52.2301L77.2312 51.4263C77.1508 51.3459 77.1508 51.3459 77.2312 51.2656L78.9183 50.301C78.9987 50.2206 79.1594 50.2206 79.1594 50.301L80.6055 51.1048C80.6859 51.1852 80.6859 51.1852 80.6055 51.2656L78.9183 52.2301C78.9183 52.2301 78.7576 52.2301 78.6773 52.2301Z" fill="#FAFAFA" stroke="#575D68" stroke-width="0.4" stroke-miterlimit="10"/>
<path d="M80.6055 53.2751L79.1594 52.4713C79.079 52.3909 79.079 52.3909 79.1594 52.3105L80.8466 51.3459C80.9269 51.2655 81.0875 51.2655 81.0875 51.3459L82.5337 52.1497C82.6141 52.2301 82.6141 52.2301 82.5337 52.3105L80.8466 53.2751C80.8466 53.3555 80.6858 53.3555 80.6055 53.2751Z" fill="#FAFAFA" stroke="#575D68" stroke-width="0.4" stroke-miterlimit="10"/>
<path d="M82.614 54.4003L81.1679 53.5965C81.0876 53.5162 81.0876 53.5162 81.1679 53.4358L82.855 52.4713C82.9354 52.3909 83.096 52.3909 83.096 52.4713L84.5422 53.2751C84.6225 53.3554 84.6225 53.3554 84.5422 53.4358L82.855 54.4003C82.7747 54.4807 82.6943 54.4807 82.614 54.4003Z" fill="#FAFAFA" stroke="#575D68" stroke-width="0.4" stroke-miterlimit="10"/>
<path d="M84.5422 55.5257L83.096 54.7219C83.0157 54.6415 83.0157 54.6415 83.096 54.5611L84.7833 53.5965C84.8637 53.5162 85.0243 53.5162 85.0243 53.5965L86.4705 54.4003C86.5508 54.4807 86.5508 54.4807 86.4705 54.5611L84.7833 55.5257C84.703 55.606 84.6226 55.606 84.5422 55.5257Z" fill="#FAFAFA" stroke="#575D68" stroke-width="0.4" stroke-miterlimit="10"/>
<path d="M86.4703 56.651L85.0241 55.8471C84.9438 55.7668 84.9438 55.7668 85.0241 55.6864L86.7113 54.7218C86.7917 54.6414 86.9524 54.6414 86.9524 54.7218L88.3986 55.5256C88.4789 55.606 88.4789 55.606 88.3986 55.6864L86.7113 56.651C86.631 56.7313 86.5507 56.7313 86.4703 56.651Z" fill="#FAFAFA" stroke="#575D68" stroke-width="0.4" stroke-miterlimit="10"/>
<path d="M88.3986 57.7762L86.9525 56.9724C86.8721 56.892 86.8721 56.892 86.9525 56.8117L88.6396 55.8471C88.7199 55.7668 88.8806 55.7668 88.8806 55.8471L90.3267 56.6509C90.407 56.7313 90.407 56.7313 90.3267 56.8117L88.6396 57.7762C88.6396 57.8566 88.479 57.8566 88.3986 57.7762Z" fill="#FAFAFA" stroke="#575D68" stroke-width="0.4" stroke-miterlimit="10"/>
<path d="M90.3267 58.9015L88.8806 58.0977C88.8002 58.0173 88.8002 58.0173 88.8806 57.937L90.5677 56.9724C90.6481 56.892 90.8088 56.892 90.8088 56.9724L92.2549 57.7762C92.3353 57.8566 92.3353 57.8566 92.2549 57.937L90.5677 58.9015C90.5677 58.9819 90.407 58.9819 90.3267 58.9015Z" fill="#FAFAFA" stroke="#575D68" stroke-width="0.4" stroke-miterlimit="10"/>
<path d="M94.5848 61.3932L90.8088 59.223C90.7284 59.1426 90.7284 59.1427 90.8088 59.0623L92.4959 58.0978C92.5763 58.0174 92.7369 58.0174 92.7369 58.0978L96.513 60.2679C96.5933 60.3483 96.5933 60.3483 96.513 60.4287L94.8258 61.3932C94.7455 61.3932 94.6651 61.3932 94.5848 61.3932Z" fill="#FAFAFA" stroke="#575D68" stroke-width="0.4" stroke-miterlimit="10"/>
<path d="M70.9646 47.7289L67.028 45.4783C66.9477 45.398 66.9477 45.3979 67.028 45.3176L68.7152 44.353C68.7955 44.2726 68.9562 44.2726 68.9562 44.353L72.8927 46.6037C72.9731 46.684 72.9731 46.684 72.8927 46.7644L71.2057 47.7289C71.1253 47.7289 70.9646 47.7289 70.9646 47.7289Z" fill="#FAFAFA" stroke="#575D68" stroke-width="0.4" stroke-miterlimit="10"/>
<path d="M84.6226 58.178L82.7749 57.0528C82.6945 56.9724 82.6945 56.9724 82.7749 56.892L84.462 55.9275C84.5423 55.8471 84.703 55.8471 84.703 55.9275L86.5508 57.0528C86.6312 57.1332 86.6312 57.1331 86.5508 57.2135L84.8637 58.178C84.8637 58.178 84.703 58.178 84.6226 58.178Z" fill="#FAFAFA" stroke="#575D68" stroke-width="0.4" stroke-miterlimit="10"/>
<path d="M82.2927 56.8116L73.1339 51.5067C73.0535 51.4263 73.0535 51.4263 73.1339 51.3459L74.821 50.3813C74.9013 50.301 75.062 50.301 75.062 50.3813L84.2209 55.6864C84.3012 55.7667 84.3012 55.7668 84.2209 55.8471L82.5337 56.8116C82.4534 56.8116 82.373 56.8116 82.2927 56.8116Z" fill="#FAFAFA" stroke="#575D68" stroke-width="0.4" stroke-miterlimit="10"/>
<path d="M86.631 59.223L85.1849 58.4192C85.1045 58.3388 85.1045 58.3389 85.1849 58.2585L86.8721 57.2939C86.9524 57.2135 87.113 57.2135 87.113 57.2939L88.5592 58.0977C88.6396 58.1781 88.6396 58.1781 88.5592 58.2585L86.8721 59.223C86.7917 59.3034 86.631 59.3034 86.631 59.223Z" fill="#FAFAFA" stroke="#575D68" stroke-width="0.4" stroke-miterlimit="10"/>
<path d="M88.5593 60.3482L87.1131 59.5445C87.0328 59.4641 87.0328 59.4641 87.1131 59.3837L88.8003 58.4192C88.8807 58.3388 89.0413 58.3388 89.0413 58.4192L90.4875 59.2229C90.5678 59.3033 90.5678 59.3033 90.4875 59.3837L88.8003 60.3482C88.72 60.4286 88.6396 60.4286 88.5593 60.3482Z" fill="#FAFAFA" stroke="#575D68" stroke-width="0.4" stroke-miterlimit="10"/>
<path d="M90.4874 61.4737L89.0412 60.6699C88.9609 60.5895 88.9609 60.5895 89.0412 60.5091L90.7283 59.5445C90.8087 59.4642 90.9694 59.4642 90.9694 59.5445L92.4156 60.3483C92.4959 60.4287 92.4959 60.4287 92.4156 60.5091L90.7283 61.4737C90.648 61.554 90.5677 61.554 90.4874 61.4737Z" fill="#FAFAFA" stroke="#575D68" stroke-width="0.4" stroke-miterlimit="10"/>
<path d="M92.4156 62.599L90.9694 61.7952C90.8891 61.7148 90.8891 61.7148 90.9694 61.6344L92.6566 60.6699C92.737 60.5895 92.8977 60.5895 92.8977 60.6699L94.3438 61.4737C94.4241 61.5541 94.4241 61.554 94.3438 61.6344L92.6566 62.599C92.5763 62.6793 92.496 62.6793 92.4156 62.599Z" fill="#FAFAFA" stroke="#575D68" stroke-width="0.4" stroke-miterlimit="10"/>
<path d="M68.2331 48.6935L66.7869 47.8897C66.7066 47.8094 66.7066 47.8093 66.7869 47.729L68.4741 46.7644C68.5545 46.684 68.7152 46.684 68.7152 46.7644L70.1613 47.5682C70.2416 47.6486 70.2416 47.6486 70.1613 47.729L68.4741 48.6935C68.3938 48.6935 68.3134 48.6935 68.2331 48.6935Z" fill="#FAFAFA" stroke="#575D68" stroke-width="0.4" stroke-miterlimit="10"/>
<path d="M66.3049 47.5682L64.8587 46.7644C64.7784 46.6841 64.7784 46.6841 64.8587 46.6037L66.5459 45.6391C66.6262 45.5588 66.787 45.5588 66.787 45.6391L68.2331 46.4429C68.3134 46.5233 68.3134 46.5233 68.2331 46.6037L66.5459 47.5682C66.4656 47.5682 66.3853 47.5682 66.3049 47.5682Z" fill="#FAFAFA" stroke="#575D68" stroke-width="0.4" stroke-miterlimit="10"/>
<path d="M70.1612 49.7385L68.7152 48.9347C68.6348 48.8543 68.6348 48.8543 68.7152 48.7739L70.4023 47.8094C70.4826 47.7291 70.6432 47.7291 70.6432 47.8094L72.0894 48.6132C72.1697 48.6936 72.1697 48.6936 72.0894 48.7739L70.4023 49.7385C70.4023 49.8189 70.2416 49.8189 70.1612 49.7385Z" fill="#FAFAFA" stroke="#575D68" stroke-width="0.4" stroke-miterlimit="10"/>
<path d="M72.6518 51.1853L70.6433 50.06C70.5629 49.9796 70.5629 49.9796 70.6433 49.8992L72.3305 48.9347C72.4108 48.8543 72.5715 48.8543 72.5715 48.9347L74.58 50.06C74.6603 50.1404 74.6603 50.1404 74.58 50.2208L72.8929 51.1853C72.8125 51.2656 72.7321 51.2656 72.6518 51.1853Z" fill="#FAFAFA" stroke="#575D68" stroke-width="0.4" stroke-miterlimit="10"/>
<path d="M116.277 42.5044V54.963L119.249 56.6509L121.82 54.963V42.5044L118.928 44.0316L116.277 42.5044Z" fill="#F6F6F6" stroke="#575D68" stroke-width="0.4" stroke-miterlimit="10"/>
<path d="M119.169 40.8165L121.82 42.5044L118.928 44.0316L116.196 42.5044L119.169 40.8165Z" fill="#F6F6F6" stroke="#575D68" stroke-width="0.4" stroke-miterlimit="10"/>
<path d="M119.169 56.6509V47.0859Z" fill="#F6F6F6"/>
<path d="M119.169 56.6509V47.0859" stroke="#575D68" stroke-width="0.4" stroke-miterlimit="10"/>
<path d="M121.177 42.9063L122.382 37.1995L121.017 36.5565L120.776 36.7172L119.008 44.0316L121.177 42.9063Z" fill="#F6F6F6" stroke="#575D68" stroke-width="0.4" stroke-miterlimit="10"/>
<path d="M122.302 37.1995C122.222 37.3603 121.74 37.4406 121.338 37.2799C120.937 37.1191 120.695 36.7976 120.776 36.6368C120.856 36.476 121.338 36.3957 121.74 36.6368C122.142 36.878 122.463 37.0387 122.302 37.1995Z" fill="#F6F6F6" stroke="#575D68" stroke-width="0.4" stroke-miterlimit="10"/>
<path d="M121.901 37.0388C121.981 36.9584 121.82 36.7977 121.66 36.7173C121.499 36.6369 121.338 36.6369 121.258 36.7173C121.177 36.7977 121.338 36.9584 121.499 37.0388C121.66 37.1192 121.82 37.1192 121.901 37.0388Z" fill="#F6F6F6" stroke="#575D68" stroke-width="0.4" stroke-miterlimit="10"/>
<path d="M94.5848 73.2892C94.1028 73.048 93.8617 72.6462 93.7814 72.1639C93.7011 71.5209 93.8617 70.7975 93.8617 70.7975L107.52 62.9204C108.564 62.2774 109.85 62.2774 110.894 62.84L127.685 72.4854C127.765 72.7265 127.846 73.2892 127.766 73.7715C127.685 74.1733 127.444 74.5752 127.042 74.736L113.706 82.5326C112.662 83.0952 111.376 83.0952 110.332 82.5326L94.5848 73.2892Z" fill="#F6F6F6" stroke="#575D68" stroke-width="0.4" stroke-miterlimit="10"/>
<path d="M94.5848 72.6461C93.5404 72.0031 93.4601 70.4759 94.5848 69.9133L107.52 62.2774C108.564 61.6344 109.85 61.6343 110.894 62.197L127.042 71.6815C128.007 72.2442 128.007 73.6106 127.042 74.0929L113.706 81.8895C112.662 82.4522 111.376 82.4522 110.332 81.8895L94.5848 72.6461Z" fill="#F6F6F6" stroke="#575D68" stroke-width="0.4" stroke-miterlimit="10"/>
<path d="M104.708 72.7266C104.788 71.5209 107.279 69.9937 108.966 69.3507C111.215 68.5469 112.26 69.1095 113.224 69.5918C114.831 70.5564 115.393 72.2443 115.393 72.2443" fill="#F6F6F6"/>
<path d="M104.708 72.7266C104.788 71.5209 107.279 69.9937 108.966 69.3507C111.215 68.5469 112.26 69.1095 113.224 69.5918C114.831 70.5564 115.393 72.2443 115.393 72.2443" stroke="#575D68" stroke-width="0.4" stroke-miterlimit="10"/>
<path d="M104.949 74.4948L106.154 75.1378C107.359 75.7809 108.805 75.7809 110.01 75.1378L115.393 72.3246C115.393 72.3246 114.509 71.1189 113.384 71.7619C112.501 72.2442 110.974 73.3695 110.01 74.0125C108.082 75.2182 105.913 73.7714 105.19 73.2891C104.788 72.9676 104.627 72.7265 104.627 72.7265C104.226 73.3695 104.386 74.0929 104.949 74.4948Z" fill="#F6F6F6" stroke="#575D68" stroke-width="0.4" stroke-miterlimit="10"/>
<path d="M113.063 69.5115C112.099 69.5919 110.894 70.2349 110.091 70.6367L109.93 70.476L109.126 70.8779L109.528 71.1994L110.331 70.7975L110.091 70.5564" fill="#F6F6F6"/>
<path d="M113.063 69.5115C112.099 69.5919 110.894 70.2349 110.091 70.6367L109.93 70.476L109.126 70.8779L109.528 71.1994L110.331 70.7975L110.091 70.5564" stroke="#575D68" stroke-width="0.4" stroke-miterlimit="10"/>
<path d="M132.827 53.1946C132.265 54.2395 129.694 55.0433 126.641 55.0433C123.347 55.0433 120.695 54.1592 120.374 52.9535V64.126C120.615 65.4924 123.347 66.5374 126.641 66.5374C131.782 66.5374 132.907 63.5634 132.827 63.4026V53.1946Z" fill="#F6F6F6" stroke="#575D68" stroke-width="0.4" stroke-miterlimit="10"/>
<path d="M126.56 55.3648C130.015 55.3648 132.746 54.3199 132.746 53.0339C132.746 51.7478 129.935 50.7029 126.56 50.7029C123.186 50.7029 120.374 51.7478 120.374 53.0339C120.374 54.3199 123.186 55.3648 126.56 55.3648Z" fill="#F6F6F6" stroke="#575D68" stroke-width="0.4" stroke-miterlimit="10"/>
<path d="M121.017 54.0788C122.061 54.8022 124.15 55.3648 126.56 55.3648C128.971 55.3648 131.14 54.8826 132.104 54.0788C131.059 53.3554 128.971 52.7927 126.56 52.7927C124.15 52.7927 122.061 53.3554 121.017 54.0788Z" fill="#EAEAEA"/>
<path d="M131.622 63.3222C131.461 63.4026 131.541 63.6437 131.702 63.6437C131.943 63.6437 132.264 63.6437 132.505 63.4026C133.791 62.0361 134.514 60.9108 134.514 59.3033C134.514 56.6508 133.068 56.0078 131.863 55.3647C131.782 55.2843 131.622 55.2843 131.541 55.3647L130.256 56.0882C130.015 56.2489 130.015 56.5704 130.256 56.7312C131.381 57.2134 132.827 57.6957 132.827 60.509C132.827 60.7501 132.827 60.9912 132.746 61.2323C132.586 62.3576 132.023 63.0007 131.622 63.3222Z" fill="#F6F6F6" stroke="#575D68" stroke-width="0.4" stroke-miterlimit="10"/>
<path d="M132.104 75.2182L153.394 63.0811L153.555 34.4666L144.155 39.6108C144.155 39.6108 143.11 50.2207 142.066 54.2396C139.575 63.2419 132.184 67.5823 132.184 67.5823L132.104 75.2182Z" fill="#F6F6F6" stroke="#575D68" stroke-width="0.4" stroke-miterlimit="10"/>
<path d="M162.794 39.852L153.474 34.5471L152.109 62.3578L162.633 68.4664L162.794 39.852Z" fill="#F6F6F6" stroke="#575D68" stroke-width="0.4" stroke-miterlimit="10"/>
<path d="M136.683 77.0668V45.4784L154.599 35.6724V66.8589L136.683 77.0668Z" fill="#F6F6F6" stroke="#575D68" stroke-width="0.4" stroke-miterlimit="10"/>
<path d="M137.567 77.5491V45.8802L155.563 36.0741V67.2607L137.567 77.5491Z" fill="#F6F6F6" stroke="#575D68" stroke-width="0.4" stroke-miterlimit="10"/>
<path d="M138.531 78.1118V46.4429L156.447 36.6368V67.8234L138.531 78.1118Z" fill="#F6F6F6" stroke="#575D68" stroke-width="0.4" stroke-miterlimit="10"/>
<path d="M141.343 78.996L141.102 47.9701L141.343 47.0056L157.973 38.2444L161.589 40.495L162.151 67.502L141.343 78.996Z" fill="#F6F6F6" stroke="#575D68" stroke-width="0.4" stroke-miterlimit="10"/>
<path d="M141.343 80.5231L132.104 75.2182V67.5823L141.343 72.8872V80.5231Z" fill="#F6F6F6" stroke="#575D68" stroke-width="0.4" stroke-miterlimit="10"/>
<path d="M141.343 47.0056C141.343 47.0056 140.459 48.1309 141.825 49.0151C143.914 50.4619 146.565 49.1758 146.565 49.1758L146.645 66.6177" fill="#F6F6F6"/>
<path d="M141.343 47.0056C141.343 47.0056 140.459 48.1309 141.825 49.0151C143.914 50.4619 146.565 49.1758 146.565 49.1758L146.645 66.6177" stroke="#575D68" stroke-width="0.4" stroke-miterlimit="10"/>
<path d="M146.565 49.1757L161.589 40.8967" stroke="#575D68" stroke-width="0.4" stroke-miterlimit="10"/>
<path d="M141.343 80.5231L162.633 68.3861L162.794 39.7716L153.394 44.9158C153.394 44.9158 152.35 55.5256 151.305 59.5445C148.815 68.5469 141.423 72.8872 141.423 72.8872L141.343 80.5231Z" fill="#F6F6F6" stroke="#575D68" stroke-width="0.4" stroke-miterlimit="10"/>
<path d="M141.664 47.729L158.214 38.8071" stroke="#575D68" stroke-width="0.4" stroke-miterlimit="10"/>
<path d="M142.146 48.2112L158.697 39.3696" stroke="#575D68" stroke-width="0.4" stroke-miterlimit="10"/>
<path d="M142.789 48.6935L159.339 39.8519" stroke="#575D68" stroke-width="0.4" stroke-miterlimit="10"/>
<path d="M143.351 49.1758L159.902 40.3342" stroke="#575D68" stroke-width="0.4" stroke-miterlimit="10"/>
<path d="M144.075 49.4972L160.625 40.5752" stroke="#575D68" stroke-width="0.4" stroke-miterlimit="10"/>
<path d="M141.102 52.6321C141.102 52.6321 141.102 53.1143 141.664 53.2751C142.227 53.4358 143.03 53.2751 143.03 53.2751V70.6367C143.03 70.6367 142.307 70.8778 141.664 70.7974C141.182 70.7171 141.263 70.3956 141.263 70.3956L141.102 52.6321Z" fill="#F6F6F6" stroke="#575D68" stroke-width="0.4" stroke-miterlimit="10"/>
<path d="M58.5118 19.6772L59.0742 21.2848L59.9579 23.2138C60.1186 23.6157 60.0383 24.098 59.6366 24.4195L57.3871 25.9467" fill="#F6F6F6"/>
<path d="M58.5118 19.6772L59.0742 21.2848L59.9579 23.2138C60.1186 23.6157 60.0383 24.098 59.6366 24.4195L57.3871 25.9467" stroke="#575D68" stroke-width="0.4" stroke-miterlimit="10"/>
<path d="M58.5118 19.6772L59.0742 21.2848L59.9579 23.2138C60.1186 23.6157 60.0383 24.098 59.6366 24.4195L57.3871 25.9467" fill="#F6F6F6"/>
<path d="M58.5118 19.6772L59.0742 21.2848L59.9579 23.2138C60.1186 23.6157 60.0383 24.098 59.6366 24.4195L57.3871 25.9467" stroke="#575D68" stroke-width="0.4" stroke-miterlimit="10"/>
<path d="M58.7528 19.8378C59.0742 18.7929 59.3152 17.6676 59.3152 17.2657L58.3511 10.0317L53.2093 10.4336L36.3378 17.9088L41.3189 34.3862L35.7754 33.4217C35.7754 33.4217 34.8916 37.119 34.3293 38.2443C33.8472 39.2893 31.5977 41.9417 31.5977 41.9417C31.5977 41.9417 35.695 46.2821 39.5514 46.6037C41.6403 46.7644 43.8898 47.0055 46.541 46.1214C47.8265 45.7195 50.5581 45.6391 50.4777 44.2727C49.6743 42.424 49.4333 40.4146 49.7546 38.4051C49.835 38.0032 49.835 37.8424 49.835 37.8424L54.0127 36.8779C55.3785 36.3956 57.5477 34.4666 57.146 32.6982C56.9853 32.0552 56.905 31.3318 57.0657 30.6084L58.9135 25.4642C59.0742 24.982 58.9939 24.4193 58.7528 23.8567C58.4315 22.4903 58.4315 21.1238 58.7528 19.8378Z" fill="#F6F6F6" stroke="#575D68" stroke-width="0.4" stroke-miterlimit="10"/>
<path d="M35.4541 34.4667C35.4541 35.592 38.6677 35.8332 40.4352 35.7528C42.7651 35.7528 44.9343 34.8686 46.6215 33.1807C47.4249 32.3769 47.9873 31.4927 48.2283 30.4478C48.389 29.4833 48.7102 26.5093 48.9513 25.4644C49.1923 24.4998 49.594 22.8923 50.4778 23.3746C52.1649 22.0081 51.4419 25.4644 52.8077 26.027C52.9683 26.1074 53.2094 25.9467 53.4504 25.7859C54.3342 25.1429 54.7358 24.0176 54.4145 22.9727C54.0128 21.6062 53.6915 20.3202 53.8521 18.793L53.9325 17.5873C53.9325 17.5873 54.9769 16.9443 56.6641 15.5779C59.717 13.0862 59.8776 8.42427 56.905 5.85218C56.8247 5.7718 56.7444 5.69141 56.6641 5.69141C52.2453 2.0744 45.4967 -0.0154457 42.283 0.5472C40.3549 0.868712 38.266 1.67251 37.1412 3.28007C36.9002 3.60158 36.6592 4.00348 36.2575 4.24462C35.9361 4.40537 35.5344 4.24463 35.1327 4.40538C25.2508 7.21861 29.8302 24.0176 33.3652 29.001C34.008 29.8852 35.2934 31.4123 35.4541 34.4667Z" fill="#F6F6F6" stroke="#575D68" stroke-width="0.4" stroke-miterlimit="10"/>
<g style="mix-blend-mode:multiply">
<path d="M35.4541 34.4667C35.4541 35.592 38.6677 35.8332 40.4352 35.7528C42.7651 35.7528 44.9343 34.8686 46.6215 33.1807C47.4249 32.3769 47.9873 31.4927 48.2283 30.4478C48.389 29.4833 48.7102 26.5093 48.9513 25.4644C49.1923 24.4998 49.594 22.8923 50.4778 23.3746C52.1649 22.0081 51.4419 25.4644 52.8077 26.027C52.9683 26.1074 53.2094 25.9467 53.4504 25.7859C54.3342 25.1429 54.7358 24.0176 54.4145 22.9727C54.0128 21.6062 53.6915 20.3202 53.8521 18.793L53.9325 17.5873C53.9325 17.5873 54.9769 16.9443 56.6641 15.5779C59.717 13.0862 59.8776 8.42427 56.905 5.85218C56.8247 5.7718 56.7444 5.69141 56.6641 5.69141C52.2453 2.0744 45.4967 -0.0154457 42.283 0.5472C40.3549 0.868712 38.266 1.67251 37.1412 3.28007C36.9002 3.60158 36.6592 4.00348 36.2575 4.24462C35.9361 4.40537 35.5344 4.24463 35.1327 4.40538C25.2508 7.21861 29.8302 24.0176 33.3652 29.001C34.008 29.8852 35.2934 31.4123 35.4541 34.4667Z" fill="#EAEAEA"/>
</g>
<path d="M52.6471 28.0364L52.2454 28.7599C51.924 29.4029 51.1206 29.644 50.4778 29.2421C50.4778 29.2421 50.3975 29.2421 50.3975 29.1618L49.1924 28.2776C49.0317 28.1168 48.871 27.9561 48.7104 27.7953C47.9069 26.2681 47.5855 24.9821 48.5496 23.5353C48.63 23.3745 49.0317 23.053 49.1121 22.9726C51.6026 21.0436 52.2454 25.2232 52.2454 25.2232" fill="#F6F6F6"/>
<path d="M52.6471 28.0364L52.2454 28.7599C51.924 29.4029 51.1206 29.644 50.4778 29.2421C50.4778 29.2421 50.3975 29.2421 50.3975 29.1618L49.1924 28.2776C49.0317 28.1168 48.871 27.9561 48.7104 27.7953C47.9069 26.2681 47.5855 24.9821 48.5496 23.5353C48.63 23.3745 49.0317 23.053 49.1121 22.9726C51.6026 21.0436 52.2454 25.2232 52.2454 25.2232" stroke="#575D68" stroke-width="0.4" stroke-miterlimit="10"/>
<path d="M35.1327 30.5282C35.6951 31.8142 36.2574 33.1806 35.9361 34.4666" stroke="#575D68" stroke-width="0.4" stroke-miterlimit="10"/>
<path d="M30.4729 11.7197C29.9104 14.533 30.0711 17.5873 30.8746 20.2398" stroke="#575D68" stroke-width="0.4" stroke-miterlimit="10"/>
<path d="M50.7991 23.7764C50.7991 23.7764 50.3974 23.2941 49.7547 24.3391C49.112 25.384 49.9153 27.1523 50.1564 27.5542C50.3974 27.9561 50.8794 28.358 51.2811 28.358" fill="#F6F6F6"/>
<path d="M50.7991 23.7764C50.7991 23.7764 50.3974 23.2941 49.7547 24.3391C49.112 25.384 49.9153 27.1523 50.1564 27.5542C50.3974 27.9561 50.8794 28.358 51.2811 28.358" stroke="#575D68" stroke-width="0.4" stroke-miterlimit="10"/>
<path d="M36.4984 31.4927C36.8198 32.4572 36.9001 33.5021 36.8198 34.4666" stroke="#575D68" stroke-width="0.4" stroke-miterlimit="10"/>
<path d="M45.4164 33.3414C46.3804 32.6984 47.0231 31.6534 47.3444 30.6085C47.6658 29.5636 47.7461 28.3579 47.7461 27.2327" stroke="#575D68" stroke-width="0.4" stroke-miterlimit="10"/>
<path d="M70.4023 44.5139L68.8758 43.3887L64.5375 43.7102L65.9033 45.2374L68.7152 44.7551C68.7152 44.7551 69.7596 45.7196 70.322 45.8804C70.8844 46.0411 71.4467 45.9607 71.4467 45.9607L70.4023 44.5139Z" fill="#F6F6F6" stroke="#575D68" stroke-width="0.4" stroke-miterlimit="10"/>
<path d="M52.8077 47.9702L61.3238 45.4785C61.3238 45.4785 64.2964 43.6298 64.6178 43.7102C64.9391 43.7906 68.8759 44.9963 68.8759 44.9963L72.2501 47.2468C72.2501 47.2468 71.6074 48.0506 70.9647 48.0506C70.322 48.0506 68.6348 46.8449 68.6348 46.8449L66.8673 46.6842L65.6622 48.4525C65.6622 48.4525 64.1358 50.2208 63.8948 50.2208C63.6538 50.3012 57.4675 53.7574 57.4675 53.7574" fill="#F6F6F6"/>
<path d="M52.8077 47.9702L61.3238 45.4785C61.3238 45.4785 64.2964 43.6298 64.6178 43.7102C64.9391 43.7906 68.8759 44.9963 68.8759 44.9963L72.2501 47.2468C72.2501 47.2468 71.6074 48.0506 70.9647 48.0506C70.322 48.0506 68.6348 46.8449 68.6348 46.8449L66.8673 46.6842L65.6622 48.4525C65.6622 48.4525 64.1358 50.2208 63.8948 50.2208C63.6538 50.3012 57.4675 53.7574 57.4675 53.7574" stroke="#575D68" stroke-width="0.4" stroke-miterlimit="10"/>
<path d="M61.3237 51.0246L66.3049 50.7031L69.6792 50.6227L71.1254 49.8993C71.1254 49.8993 70.1612 49.0955 69.4381 49.0955C68.7151 49.0955 67.51 49.417 67.51 49.417L65.7425 48.2917L63.975 47.6487" fill="#F6F6F6"/>
<path d="M61.3237 51.0246L66.3049 50.7031L69.6792 50.6227L71.1254 49.8993C71.1254 49.8993 70.1612 49.0955 69.4381 49.0955C68.7151 49.0955 67.51 49.417 67.51 49.417L65.7425 48.2917L63.975 47.6487" stroke="#575D68" stroke-width="0.4" stroke-miterlimit="10"/>
<path d="M90.8088 49.8187C91.5319 50.944 92.3352 53.0339 92.3352 53.0339L91.2105 57.8566L89.5232 57.2135L91.0497 52.7123L90.8088 51.9085C90.5677 51.2655 90.5677 50.5421 90.8088 49.8187Z" fill="#F6F6F6" stroke="#575D68" stroke-width="0.4" stroke-miterlimit="10"/>
<path d="M84.8636 62.4381C84.7832 62.0362 83.6584 58.0173 83.6584 58.0173L85.9883 52.632L85.5866 49.8992L87.113 49.5776L88.8806 49.9795L90.0053 51.1048L91.2104 53.275V57.8566L89.0412 64.3672L84.6225 64.769L84.8636 62.4381Z" fill="#F6F6F6" stroke="#575D68" stroke-width="0.4" stroke-miterlimit="10"/>
<path d="M84.0602 59.3032L81.65 56.0078L80.5251 52.632L80.9269 51.7478C81.6499 51.9889 82.132 52.5516 82.4534 53.275L83.0961 54.3199L85.0243 55.1236" fill="#F6F6F6"/>
<path d="M84.0602 59.3032L81.65 56.0078L80.5251 52.632L80.9269 51.7478C81.6499 51.9889 82.132 52.5516 82.4534 53.275L83.0961 54.3199L85.0243 55.1236" stroke="#575D68" stroke-width="0.4" stroke-miterlimit="10"/>
<path d="M84.0602 59.3032L81.65 56.0078L80.5251 52.632L80.9269 51.7478C81.6499 51.9889 82.132 52.5516 82.4534 53.275L83.0961 54.3199L85.0243 55.1236" fill="#F6F6F6"/>
<path d="M84.0602 59.3032L81.65 56.0078L80.5251 52.632L80.9269 51.7478C81.6499 51.9889 82.132 52.5516 82.4534 53.275L83.0961 54.3199L85.0243 55.1236" stroke="#575D68" stroke-width="0.4" stroke-miterlimit="10"/>
<path d="M85.7473 50.4618C85.7473 50.4618 83.9798 49.658 83.3371 49.3365C82.6944 49.015 82.5337 48.5327 82.5337 48.5327C82.5337 48.5327 86.3097 48.6131 86.4704 48.7738C86.631 48.9346 88.8002 49.8991 88.8002 49.8991L89.684 51.9889L89.4429 53.7573" fill="#F6F6F6"/>
<path d="M85.7473 50.4618C85.7473 50.4618 83.9798 49.658 83.3371 49.3365C82.6944 49.015 82.5337 48.5327 82.5337 48.5327C82.5337 48.5327 86.3097 48.6131 86.4704 48.7738C86.631 48.9346 88.8002 49.8991 88.8002 49.8991L89.684 51.9889L89.4429 53.7573" stroke="#575D68" stroke-width="0.4" stroke-miterlimit="10"/>
<path d="M85.7473 50.4618C85.7473 50.4618 83.9798 49.658 83.3371 49.3365C82.6944 49.015 82.5337 48.5327 82.5337 48.5327C82.5337 48.5327 86.3097 48.6131 86.4704 48.7738C86.631 48.9346 88.8002 49.8991 88.8002 49.8991L89.684 51.9889L89.4429 53.7573" fill="#F6F6F6"/>
<path d="M85.7473 50.4618C85.7473 50.4618 83.9798 49.658 83.3371 49.3365C82.6944 49.015 82.5337 48.5327 82.5337 48.5327C82.5337 48.5327 86.3097 48.6131 86.4704 48.7738C86.631 48.9346 88.8002 49.8991 88.8002 49.8991L89.684 51.9889L89.4429 53.7573" stroke="#575D68" stroke-width="0.4" stroke-miterlimit="10"/>
<path d="M86.4703 48.8542L87.9969 50.1402L88.5592 52.1497" fill="#F6F6F6"/>
<path d="M86.4703 48.8542L87.9969 50.1402L88.5592 52.1497" stroke="#575D68" stroke-width="0.4" stroke-miterlimit="10"/>
<path d="M86.4703 48.8542L87.9969 50.1402L88.5592 52.1497" fill="#F6F6F6"/>
<path d="M86.4703 48.8542L87.9969 50.1402L88.5592 52.1497" stroke="#575D68" stroke-width="0.4" stroke-miterlimit="10"/>
<path d="M26.0543 82.2914L42.1223 72.8068L38.266 70.4758L22.3586 79.6389L26.0543 82.2914Z" stroke="#333333" stroke-width="0.4" stroke-miterlimit="10"/>
<path d="M18.9843 83.5776L26.1346 79.7194L25.9739 46.8448L18.7433 50.06L18.904 51.346L18.9843 83.5776Z" stroke="#333333" stroke-width="0.4" stroke-miterlimit="10"/>
<path d="M15.6903 93.705C14.6459 97.1613 15.5296 101.019 18.2611 103.833C19.3859 105.038 20.7517 106.083 22.0371 106.726C34.0079 112.433 39.7924 112.755 49.112 109.781C54.3341 108.173 57.628 101.904 57.628 101.823C55.1375 85.828 57.5477 75.7808 57.5477 75.7808L65.5015 70.5562L65.6621 58.4996C65.7424 53.6769 62.7698 49.2561 58.1904 47.1663L54.8161 45.6391C52.8879 44.8353 52.888 45.0764 52.3256 43.1474L47.7461 41.7006C33.6865 42.6651 34.6507 37.6013 34.6507 37.6013C33.3652 37.9228 32.2404 38.4855 31.2763 39.3696C31.2763 39.3696 24.5277 37.4406 20.2697 40.5753C18.9842 41.5398 16.4937 46.1213 15.6903 49.7384C14.9672 53.1946 14.5655 57.7762 14.3244 64.5279C14.1638 69.1094 19.0646 80.2819 15.6903 93.705Z" fill="url(#paint3_linear_110_3)" stroke="#333333" stroke-width="0.4" stroke-miterlimit="10"/>
<path d="M53.9325 73.1284L56.9854 80.3624C73.6158 88.159 73.7766 88.0786 77.7132 88.5609C79.6414 88.802 81.2482 88.5609 82.6943 87.9983H82.7747L82.9354 87.8375C84.0601 87.3552 85.1045 86.7122 85.9079 85.9084C85.9079 85.9084 88.6395 82.3718 90.0857 74.334L91.5317 64.5279C91.5317 63.0811 90.0856 61.0717 87.9164 60.2679C86.872 59.7052 85.0242 59.9464 83.0157 60.7501C83.0157 60.7501 79.8824 71.0385 78.597 73.2891L63.1716 52.0693" fill="url(#paint4_linear_110_3)"/>
<path opacity="0.4" d="M90.0857 68.4665C88.5592 76.5043 85.9079 80.0409 85.9079 80.0409C85.1045 80.8447 84.1405 81.4878 82.9354 81.97L82.7747 82.1307H82.6943C81.3285 82.6934 79.6414 82.9345 77.7132 82.6934C73.2945 82.1308 56.9854 74.4949 56.9854 74.4949L55.2179 70.3153L53.9325 73.2088L56.9854 80.4428C73.6158 88.2395 73.7766 88.1591 77.7132 88.6413C79.6414 88.8825 81.2482 88.6414 82.6943 88.0787H82.7747L82.9354 87.918C84.0601 87.4357 85.1045 86.7927 85.9079 85.9889C85.9079 85.9889 88.6395 82.4523 90.0857 74.4145L91.5317 64.6084C91.5317 64.0458 91.2908 63.4027 90.9694 62.8401L90.0857 68.4665Z" fill="url(#paint5_linear_110_3)"/>
<path d="M31.4371 39.1284C31.4371 39.1284 33.2849 43.067 36.4182 44.755C39.0694 46.2018 43.0865 45.8803 45.577 45.5588C46.7821 45.398 47.9872 45.3176 49.1923 45.3176C50.7991 45.3176 53.2094 44.755 53.2094 44.755" stroke="#333333" stroke-width="0.4" stroke-miterlimit="10"/>
<path d="M78.6772 73.3695C78.6772 73.3695 80.0431 74.8163 80.4448 75.8612C81.0875 77.6296 81.2482 79.639 81.2482 79.639" stroke="#333333" stroke-width="0.4" stroke-miterlimit="10"/>
<path d="M53.2897 78.0315C54.3341 79.0764 55.6196 79.8801 57.0658 80.282" stroke="#575D68" stroke-width="0.4" stroke-miterlimit="10"/>
<path d="M80.2039 75.3789C81.5695 76.022 82.5336 77.4688 82.6139 78.996" stroke="#575D68" stroke-width="0.4" stroke-miterlimit="10"/>
<g opacity="0.4">
<g opacity="0.4">
<path opacity="0.4" d="M51.442 105.601C42.1225 108.495 39.5515 108.253 27.5807 102.627C26.2149 101.984 16.0921 98.5277 20.1091 86.6318C24.2065 74.5752 25.8133 78.1118 19.3057 63.3223C16.5741 57.1332 19.4663 46.0411 20.1894 42.5849C20.3501 41.7811 20.5911 40.8969 20.9125 40.0931C20.7518 40.1735 20.5107 40.3343 20.3501 40.495C19.0646 41.4596 16.5741 46.0411 15.7707 49.6581C15.0476 53.1144 14.6458 57.6959 14.4048 64.4476C14.2441 69.1095 19.0646 80.3624 15.7707 93.7051C14.8869 97.2417 15.61 101.019 18.3415 103.833C19.4663 105.038 20.8322 106.083 22.1176 106.726C34.0884 112.433 39.8729 112.755 49.1924 109.781C54.4145 108.173 57.7085 101.904 57.7085 101.823C57.6282 101.421 57.5479 100.939 57.5479 100.537C56.4231 101.341 52.8881 105.119 51.442 105.601Z" fill="url(#paint6_linear_110_3)"/>
</g>
</g>
<path d="M53.9325 73.1284L56.9854 80.3624C73.6158 88.159 73.7766 88.0786 77.7132 88.5609C79.6414 88.802 81.2482 88.5609 82.6943 87.9983H82.7747L82.9354 87.8375C84.0601 87.3552 85.1045 86.7122 85.9079 85.9084C85.9079 85.9084 88.6395 82.3718 90.0857 74.334L91.5317 64.5279C91.5317 63.0811 90.0856 61.0717 87.9164 60.2679C86.872 59.7052 85.0242 59.9464 83.0157 60.7501C83.0157 60.7501 79.8824 71.0385 78.597 73.2891L63.1716 52.0693" stroke="#333333" stroke-width="0.4" stroke-miterlimit="10"/>
<path d="M51.5222 55.6865C51.5222 55.6865 52.4863 53.3555 55.4589 51.1049C58.4315 48.8543 61.2434 49.6581 61.2434 49.6581" stroke="#333333" stroke-width="0.4" stroke-miterlimit="10"/>
<path d="M76.026 15.4976L107.841 33.9041" stroke="#575D68" stroke-width="0.4" stroke-miterlimit="10"/>
<path d="M76.026 19.1145L107.841 37.4406" stroke="#575D68" stroke-width="0.4" stroke-miterlimit="10"/>
<path d="M76.026 22.7317L107.841 41.0577" stroke="#575D68" stroke-width="0.4" stroke-miterlimit="10"/>
<path d="M76.026 26.3486L107.841 44.6747" stroke="#575D68" stroke-width="0.4" stroke-miterlimit="10"/>
<path d="M76.026 29.9656L107.841 48.2916" stroke="#575D68" stroke-width="0.4" stroke-miterlimit="10"/>
<path d="M76.026 33.5825L107.841 51.9087" stroke="#575D68" stroke-width="0.4" stroke-miterlimit="10"/>
<path d="M93.0583 43.6296L88.1575 25.7055L82.7748 34.3862L80.2842 29.2421L77.7936 33.5021L77.0706 33.0198L80.3646 27.5542L82.8551 32.7787L88.4789 23.696L93.3797 41.781L102.779 27.956L105.752 35.2704L105.029 35.5919L102.619 29.6439L93.0583 43.6296Z" fill="#F6F6F6"/>
<path d="M124.311 64.8496L122.142 63.5636C121.981 63.4832 121.901 63.2421 121.901 63.0813C121.901 63.001 121.9 62.9205 121.981 62.8402L122.945 62.0364L124.311 64.8496Z" fill="#FF4F12"/>
<path d="M122.142 63.5634C121.981 63.483 121.74 63.1615 121.74 62.7596V58.58C121.74 58.0174 121.74 57.6155 121.981 57.3744L123.025 56.4902L124.953 60.268L121.981 62.84C121.9 62.9204 121.901 62.9204 121.901 63.0812C121.901 63.2419 121.981 63.483 122.142 63.5634Z" fill="#7700FF"/>
<path d="M147.368 129.875L150.903 152.301H175.729L179.264 129.875H147.368Z" fill="#F6F6F6" stroke="#575D68" stroke-width="0.4" stroke-miterlimit="10"/>
<path d="M163.356 137.431C172.142 137.431 179.264 134.048 179.264 129.875C179.264 125.703 172.142 122.32 163.356 122.32C154.571 122.32 147.449 125.703 147.449 129.875C147.449 134.048 154.571 137.431 163.356 137.431Z" fill="#F6F6F6" stroke="#575D68" stroke-width="0.4" stroke-miterlimit="10"/>
<path d="M163.356 158.249C170.189 158.249 175.729 155.586 175.729 152.301C175.729 149.016 170.189 146.353 163.356 146.353C156.523 146.353 150.984 149.016 150.984 152.301C150.984 155.586 156.523 158.249 163.356 158.249Z" fill="#F6F6F6" stroke="#575D68" stroke-width="0.4" stroke-miterlimit="10"/>
<path d="M157.973 152.783L160.384 149.729L163.436 149.246L169.301 152.783L167.293 155.596L162.954 155.998L160.384 153.105L158.375 154.953L157.973 152.783Z" fill="#F6F6F6" stroke="#575D68" stroke-width="0.4" stroke-miterlimit="10"/>
<path d="M148.654 137.752L166.329 158.088" stroke="#575D68" stroke-width="0.4" stroke-miterlimit="10"/>
<path d="M150.18 147.156L159.661 157.927" stroke="#575D68" stroke-width="0.4" stroke-miterlimit="10"/>
<path d="M167.373 145.71L164.481 150.934L167.373 155.677L172.836 152.622L171.872 150.05L168.659 150.693L169.06 149.166L167.373 145.71Z" fill="#F6F6F6" stroke="#575D68" stroke-width="0.4" stroke-miterlimit="10"/>
<path d="M155.483 136.547L172.676 156.239" stroke="#575D68" stroke-width="0.4" stroke-miterlimit="10"/>
<path d="M164.16 137.511L175.97 150.934" stroke="#575D68" stroke-width="0.4" stroke-miterlimit="10"/>
<path d="M170.748 136.707L177.094 143.861" stroke="#575D68" stroke-width="0.4" stroke-miterlimit="10"/>
<path d="M176.05 134.457L178.139 136.868" stroke="#575D68" stroke-width="0.4" stroke-miterlimit="10"/>
<path d="M163.356 137.511L152.189 154.873" stroke="#575D68" stroke-width="0.4" stroke-miterlimit="10"/>
<path d="M156.768 136.868L150.18 147.157" stroke="#575D68" stroke-width="0.4" stroke-miterlimit="10"/>
<path d="M152.028 135.261L148.975 140.003" stroke="#575D68" stroke-width="0.4" stroke-miterlimit="10"/>
<path d="M171.631 136.386L157.572 157.606" stroke="#575D68" stroke-width="0.4" stroke-miterlimit="10"/>
<path d="M178.701 133.573L163.356 158.249" stroke="#575D68" stroke-width="0.4" stroke-miterlimit="10"/>
<path d="M176.773 145.71L169.783 157.365" stroke="#575D68" stroke-width="0.4" stroke-miterlimit="10"/>
<path d="M161.91 122.32L153.314 135.823" stroke="#575D68" stroke-width="0.4" stroke-miterlimit="10"/>
<path d="M154.037 123.686L148.413 132.528" stroke="#575D68" stroke-width="0.4" stroke-miterlimit="10"/>
<path d="M168.819 122.722L159.42 137.27" stroke="#575D68" stroke-width="0.4" stroke-miterlimit="10"/>
<path d="M173.881 124.329L165.526 137.431" stroke="#575D68" stroke-width="0.4" stroke-miterlimit="10"/>
<path d="M177.416 126.339L172.354 136.145" stroke="#575D68" stroke-width="0.4" stroke-miterlimit="10"/>
<path d="M146.003 120.792L163.838 141.289" stroke="#575D68" stroke-width="0.4" stroke-miterlimit="10"/>
<path d="M147.368 129.875L157.009 140.968" stroke="#575D68" stroke-width="0.4" stroke-miterlimit="10"/>
<path d="M153.796 118.864L171.712 139.36" stroke="#575D68" stroke-width="0.4" stroke-miterlimit="10"/>
<path d="M163.356 121.516L176.612 136.707" stroke="#575D68" stroke-width="0.4" stroke-miterlimit="10"/>
<path d="M173.64 123.847L179.826 131.001" stroke="#575D68" stroke-width="0.4" stroke-miterlimit="10"/>
<path d="M178.701 133.573C176.773 136.707 170.587 138.878 163.356 138.878C156.206 138.878 150.02 136.868 148.011 133.734" stroke="#575D68" stroke-width="0.4" stroke-miterlimit="10"/>
<path d="M147.449 130.277C148.975 125.615 156.126 123.686 163.356 123.686C170.507 123.686 177.175 125.937 179.183 129.072" stroke="#575D68" stroke-width="0.4" stroke-miterlimit="10"/>
<defs>
<linearGradient id="paint0_linear_110_3" x1="52.1171" y1="122.235" x2="96.6282" y2="122.235" gradientUnits="userSpaceOnUse">
<stop offset="0.0512438" stop-color="#F6F6F6"/>
<stop offset="0.1391" stop-color="#F6F0EE"/>
<stop offset="0.2762" stop-color="#F7E0D8"/>
<stop offset="0.4451" stop-color="#F9C5B4"/>
<stop offset="0.6395" stop-color="#FBA182"/>
<stop offset="0.8525" stop-color="#FD7242"/>
<stop offset="1" stop-color="#FF4F12"/>
</linearGradient>
<linearGradient id="paint1_linear_110_3" x1="72.7791" y1="133.054" x2="134.141" y2="133.054" gradientUnits="userSpaceOnUse">
<stop offset="0.0512438" stop-color="#F6F6F6"/>
<stop offset="0.1399" stop-color="#F6EEEB"/>
<stop offset="0.2935" stop-color="#F8DACF"/>
<stop offset="0.4937" stop-color="#F9B8A1"/>
<stop offset="0.7329" stop-color="#FC8961"/>
<stop offset="1" stop-color="#FF4F12"/>
</linearGradient>
<linearGradient id="paint2_linear_110_3" x1="71.5965" y1="12.4311" x2="142.841" y2="84.017" gradientUnits="userSpaceOnUse">
<stop offset="0.079012" stop-color="#F6F6F6"/>
<stop offset="0.8585" stop-color="#FE6935"/>
<stop offset="1" stop-color="#FF4F12"/>
</linearGradient>
<linearGradient id="paint3_linear_110_3" x1="54.1487" y1="42.1112" x2="18.6792" y2="108.92" gradientUnits="userSpaceOnUse">
<stop offset="0.000532036" stop-color="#F6F6F6"/>
<stop offset="0.863" stop-color="#DABAFF"/>
</linearGradient>
<linearGradient id="paint4_linear_110_3" x1="44.0769" y1="52.0753" x2="99.9962" y2="87.9223" gradientUnits="userSpaceOnUse">
<stop stop-color="#F6F6F6"/>
<stop offset="0.2033" stop-color="#F3EFF7"/>
<stop offset="0.508" stop-color="#E9DAFA"/>
<stop offset="0.863" stop-color="#DABAFF"/>
</linearGradient>
<linearGradient id="paint5_linear_110_3" x1="53.9682" y1="75.746" x2="100.162" y2="75.746" gradientUnits="userSpaceOnUse">
<stop offset="0.00153007" stop-color="#F6F6F6"/>
<stop offset="1" stop-color="#DABAFF"/>
</linearGradient>
<linearGradient id="paint6_linear_110_3" x1="28.015" y1="42.9915" x2="38.1765" y2="110.169" gradientUnits="userSpaceOnUse">
<stop offset="0.00153007" stop-color="#F6F6F6"/>
<stop offset="1" stop-color="#DABAFF"/>
</linearGradient>
</defs>
</svg>
