<svg width="345" height="398" viewBox="0 0 345 398" fill="none" xmlns="http://www.w3.org/2000/svg">
<path d="M-14.2588 372.828V48.3658L116.116 -26.4791V297.09L-14.2588 372.828Z" fill="#F6F6F6"/>
<path d="M116.116 297.09V-26.4791L-14.2588 48.3658V372.828L116.116 297.09ZM116.116 297.09L210.001 242.5" stroke="#575D68" stroke-width="0.5" stroke-miterlimit="10"/>
<path d="M346.877 70.2303C348.832 69.1026 350.455 67.4801 351.583 65.526C352.712 63.5719 353.306 61.355 353.306 59.0984C353.306 56.8428 352.713 54.627 351.585 52.6735C350.457 50.72 348.835 49.0978 346.882 47.9697C344.929 46.8416 342.713 46.2474 340.458 46.2468C338.202 46.2463 335.986 46.8394 334.033 47.9665L334.018 47.9748C332.064 49.1025 330.44 50.725 329.312 52.6791C328.183 54.6332 327.589 56.85 327.589 59.1066C327.589 61.3622 328.183 63.578 329.31 65.5315C330.438 67.485 332.06 69.1073 334.013 70.2354C335.966 71.3635 338.182 71.9577 340.437 71.9582C342.693 71.9587 344.909 71.3656 346.863 70.2385L346.877 70.2302" fill="#DDDEDF"/>
<path d="M346.877 70.2303C348.832 69.1026 350.455 67.4801 351.583 65.526C352.712 63.5719 353.306 61.355 353.306 59.0984V59.0984C353.306 56.8428 352.713 54.627 351.585 52.6735C350.457 50.72 348.835 49.0978 346.882 47.9697C344.929 46.8416 342.713 46.2474 340.458 46.2468C338.202 46.2463 335.986 46.8394 334.033 47.9665L334.018 47.9748C332.064 49.1025 330.44 50.725 329.312 52.6791C328.183 54.6332 327.589 56.85 327.589 59.1066V59.1066C327.589 61.3622 328.183 63.578 329.31 65.5315C330.438 67.485 332.06 69.1073 334.013 70.2354C335.966 71.3635 338.182 71.9577 340.437 71.9582C342.693 71.9587 344.909 71.3656 346.863 70.2385L346.877 70.2302" stroke="#575D68" stroke-width="0.5" stroke-miterlimit="10"/>
<path d="M211.858 249.923L365.998 338.944V42.2043L219.498 -42.405L211.858 -37.7607V249.923Z" fill="#F6F6F6" stroke="#575D68" stroke-width="0.5" stroke-miterlimit="10"/>
<path d="M156.087 151.001L178.688 169.339L181.487 148.813C180.887 148.487 180.393 147.996 180.062 147.398C179.732 146.801 179.58 146.121 179.623 145.439C180.685 133.161 183.785 122.408 186.248 120.473C189.989 117.535 199.42 116.2 199.42 116.2L201.055 141.962C201.055 141.962 196.676 158.629 193.897 165.126C192.139 169.235 188.894 177.094 186.747 182.316C186.488 182.946 186.092 183.509 185.585 183.964C185.079 184.418 184.477 184.753 183.823 184.942C183.169 185.131 182.481 185.17 181.811 185.056C181.14 184.942 180.503 184.678 179.949 184.283C174.565 180.458 166.05 174.002 162.868 169.339C158.066 162.301 156.087 151.001 156.087 151.001Z" fill="#F6F6F6" stroke="#575D68" stroke-width="0.5" stroke-miterlimit="10"/>
<path d="M185.325 122.287C186.174 118.897 191.471 116.566 194.225 116.2C204.359 114.853 203.075 109.612 203.075 109.612L221.989 102.912C221.989 102.912 218.25 113.435 231.301 121.236C246.016 130.031 248.686 133.633 248.702 147.337C248.724 166.15 235.561 200.618 235.561 200.618L242.811 272.346L177.488 240.01C177.488 240.01 186.544 181.726 187.022 161.059C187.022 161.059 184.503 146.934 185.716 140.301C186.929 133.667 188.464 128.46 188.464 128.46" fill="#F6F6F6"/>
<path d="M185.325 122.287C186.174 118.897 191.471 116.566 194.225 116.2C204.359 114.853 203.075 109.612 203.075 109.612L221.989 102.912C221.989 102.912 218.25 113.435 231.301 121.236C246.016 130.031 248.686 133.633 248.702 147.337C248.724 166.15 235.561 200.618 235.561 200.618L242.811 272.346L177.488 240.01C177.488 240.01 186.544 181.726 187.022 161.059C187.022 161.059 184.503 146.934 185.716 140.301C186.929 133.667 188.464 128.46 188.464 128.46" stroke="#575D68" stroke-width="0.5" stroke-miterlimit="10"/>
<path d="M185.325 122.287C186.174 118.897 191.471 116.566 194.225 116.2C204.359 114.853 203.075 109.612 203.075 109.612L221.989 102.912C221.989 102.912 218.25 113.435 231.301 121.236C246.016 130.031 248.686 133.633 248.702 147.337C248.724 166.15 235.561 200.618 235.561 200.618L242.811 272.346L177.488 240.01C177.488 240.01 186.544 181.726 187.022 161.059C187.022 161.059 184.503 146.934 185.716 140.301C186.929 133.667 188.464 128.46 188.464 128.46" fill="#F6F6F6"/>
<path d="M185.325 122.287C186.174 118.897 191.471 116.566 194.225 116.2C204.359 114.853 203.075 109.612 203.075 109.612L221.989 102.912C221.989 102.912 218.25 113.435 231.301 121.236C246.016 130.031 248.686 133.633 248.702 147.337C248.724 166.15 235.561 200.618 235.561 200.618L242.811 272.346L177.488 240.01C177.488 240.01 186.544 181.726 187.022 161.059C187.022 161.059 184.503 146.934 185.716 140.301C186.929 133.667 188.464 128.46 188.464 128.46" stroke="#575D68" stroke-width="0.5" stroke-miterlimit="10"/>
<path style="mix-blend-mode:multiply" d="M185.325 122.287C186.174 118.897 191.471 116.566 194.225 116.2C204.359 114.853 203.075 109.612 203.075 109.612L221.989 102.912C221.989 102.912 218.25 113.435 231.301 121.236C246.016 130.031 248.686 133.633 248.702 147.337C248.724 166.15 235.561 200.618 235.561 200.618L242.811 272.346L177.488 240.01C177.488 240.01 186.544 181.726 187.022 161.059C187.022 161.059 184.503 146.934 185.716 140.301C186.929 133.667 188.464 128.46 188.464 128.46" fill="url(#paint0_linear_137_13)"/>
<path d="M203.273 122.122C210.149 125.291 218.937 122.405 227.725 118.698C222.055 113.911 221.328 108.675 221.519 105.597C218.624 105.791 215.585 106.006 212.648 106.221L203.075 109.612C203.075 109.612 203.879 112.921 199.125 114.956C198.91 116.443 199.201 117.959 199.954 119.259C200.707 120.56 201.876 121.568 203.273 122.122Z" fill="#F6F6F6" stroke="#575D68" stroke-width="0.5" stroke-miterlimit="10"/>
<path d="M210.389 114.934C205.497 116.707 200.683 115.646 199.381 109.331C198.628 105.676 197.725 104.768 197.569 101.748C197.491 100.241 197.655 98.7334 197.727 97.2259C197.887 94.582 197.58 91.9308 196.82 89.3933C195.376 84.4386 197.538 76.5496 200.662 72.5617C201.852 71.006 203.374 69.7358 205.118 68.8439C206.861 67.952 208.782 67.4609 210.74 67.4067C213.017 67.4224 215.268 67.8978 217.358 68.8045C217.79 68.9998 218.236 69.1789 218.689 69.3523C219.982 69.795 221.246 70.3185 222.473 70.9198C225.441 72.5156 226.773 76.0277 227.518 79.3146C229.511 88.117 227.953 94.759 224.109 102.795C221.505 108.239 218.103 113.719 212.164 115.872" fill="#F6F6F6"/>
<path d="M210.389 114.934C205.497 116.707 200.683 115.646 199.381 109.331C198.628 105.676 197.725 104.768 197.569 101.748C197.491 100.241 197.655 98.7334 197.727 97.2259C197.887 94.582 197.58 91.9308 196.82 89.3933C195.376 84.4386 197.538 76.5496 200.662 72.5617C201.852 71.006 203.374 69.7358 205.118 68.8439C206.861 67.952 208.782 67.4609 210.74 67.4067C213.017 67.4224 215.268 67.8978 217.358 68.8045C217.79 68.9998 218.236 69.1789 218.689 69.3523C219.982 69.795 221.246 70.3185 222.473 70.9198C225.441 72.5156 226.773 76.0277 227.518 79.3146C229.511 88.117 227.953 94.759 224.109 102.795C221.505 108.239 218.103 113.719 212.164 115.872" stroke="#575D68" stroke-width="0.5" stroke-miterlimit="10"/>
<path d="M229.49 140.301L210.102 163.721L208.209 176.274C208.134 176.772 208.179 177.282 208.339 177.759C208.5 178.237 208.772 178.67 209.132 179.022C209.493 179.374 209.932 179.636 210.413 179.785C210.895 179.934 211.405 179.967 211.901 179.881C216.487 179.156 220.95 177.797 225.161 175.841C235.967 170.497 242.747 160.218 242.747 160.218" fill="#F6F6F6"/>
<path d="M229.49 140.301L210.102 163.721L208.209 176.274C208.134 176.772 208.179 177.282 208.339 177.759C208.5 178.237 208.772 178.67 209.132 179.022C209.493 179.374 209.932 179.636 210.413 179.785C210.895 179.934 211.405 179.967 211.901 179.881C216.487 179.156 220.95 177.797 225.161 175.841C235.967 170.497 242.747 160.218 242.747 160.218" stroke="#575D68" stroke-width="0.5" stroke-miterlimit="10"/>
<path style="mix-blend-mode:multiply" d="M229.493 140.301L210.104 163.721L208.315 175.588C208.227 176.165 208.278 176.755 208.463 177.309C208.648 177.863 208.963 178.364 209.381 178.772C209.798 179.18 210.307 179.482 210.865 179.654C211.423 179.826 212.014 179.862 212.589 179.76C216.937 179.024 221.167 177.706 225.164 175.841C235.969 170.497 242.749 160.218 242.749 160.218" fill="url(#paint1_linear_137_13)"/>
<path d="M222.474 70.9198C221.247 70.3185 219.984 69.795 218.691 69.3523C218.238 69.1789 217.791 68.9998 217.36 68.8045C215.27 67.8978 213.019 67.4223 210.742 67.4067C208.784 67.4609 206.863 67.952 205.12 68.8439C203.376 69.7358 201.854 71.006 200.664 72.5618C198.775 74.9727 197.059 80.4975 197.059 80.4975C198.011 84.7114 209.601 85.3057 215.863 82.3044C216.095 82.1057 216.378 81.9746 216.679 81.9254C216.98 81.8762 217.29 81.9108 217.573 82.0254C217.856 82.14 218.102 82.3302 218.284 82.5752C218.467 82.8202 218.578 83.1106 218.607 83.4147C219.198 85.744 219.497 88.1377 219.497 90.5408C219.497 90.5408 218.173 97.2964 221.116 98.7293C222.6 99.2626 224.202 99.3837 225.749 99.0796C228.489 92.8632 229.111 85.9189 227.519 79.3146C226.775 76.0277 225.443 72.5156 222.474 70.9198Z" fill="#DDDEDF" stroke="#575D68" stroke-width="0.5" stroke-miterlimit="10"/>
<path style="mix-blend-mode:multiply" d="M222.474 70.9198C221.247 70.3185 219.984 69.795 218.691 69.3523C218.238 69.1789 217.791 68.9998 217.36 68.8045C215.27 67.8978 213.019 67.4223 210.742 67.4067C208.784 67.4609 206.863 67.952 205.12 68.8439C203.376 69.7358 201.854 71.006 200.664 72.5618C198.775 74.9727 197.059 80.4975 197.059 80.4975C198.011 84.7114 209.601 85.3057 215.863 82.3044C216.095 82.1057 216.378 81.9746 216.679 81.9254C216.98 81.8762 217.29 81.9108 217.573 82.0254C217.856 82.14 218.102 82.3302 218.284 82.5752C218.467 82.8202 218.578 83.1106 218.607 83.4147C219.198 85.744 219.497 88.1377 219.497 90.5408C219.497 90.5408 218.173 97.2964 221.116 98.7293C222.6 99.2626 224.202 99.3837 225.749 99.0796C228.489 92.8632 229.111 85.9189 227.519 79.3146C226.775 76.0277 225.443 72.5156 222.474 70.9198Z" fill="url(#paint2_linear_137_13)"/>
<path d="M223.21 115.413L227.282 109.14L228.545 104.609C228.545 104.423 228.488 104.241 228.381 104.089C228.274 103.937 228.122 103.821 227.947 103.758C227.772 103.695 227.582 103.688 227.402 103.737C227.223 103.786 227.063 103.889 226.944 104.032L225.164 106.72L222.53 109.925" fill="#F6F6F6"/>
<path d="M223.21 115.413L227.282 109.14L228.545 104.609C228.545 104.423 228.488 104.241 228.381 104.089C228.274 103.937 228.122 103.821 227.947 103.758C227.772 103.695 227.582 103.688 227.402 103.737C227.223 103.786 227.063 103.889 226.944 104.032L225.164 106.72L222.53 109.925" stroke="#575D68" stroke-width="0.5" stroke-miterlimit="10"/>
<path d="M220.42 95.5794L206.424 112.779C206.19 113.037 206.033 113.356 205.972 113.699C205.911 114.042 205.948 114.395 206.078 114.718C206.209 115.042 206.428 115.321 206.71 115.525C206.992 115.73 207.326 115.85 207.674 115.873L214.605 117.089C215.313 117.213 216.041 117.148 216.715 116.899C217.389 116.651 217.985 116.229 218.443 115.675L231.595 99.785C231.754 99.6291 231.877 99.4397 231.954 99.2305C232.031 99.0213 232.06 98.7976 232.04 98.5757C232.02 98.3537 231.95 98.139 231.837 97.9472C231.723 97.7554 231.568 97.5913 231.384 97.4668L225.451 94.3239C223.255 93.0311 221.712 93.9919 220.42 95.5794Z" fill="#F6F6F6" stroke="#575D68" stroke-width="0.5" stroke-miterlimit="10"/>
<path d="M207.675 115.873C206.322 115.118 206.431 114.109 206.875 113.564L220.74 96.5541C222.032 94.9665 223.015 93.7685 225.771 95.2986L230.282 97.7713C231.7 98.7292 231.595 99.7849 230.276 101.38" stroke="#575D68" stroke-width="0.5" stroke-miterlimit="10"/>
<path d="M211.857 179.888C204.788 181.266 202.764 169.189 202.764 169.189C200.703 153.92 212.98 126.009 213.792 122.405C214.605 118.8 210.655 107.879 210.655 107.879C210.265 107.17 210.122 106.352 210.249 105.553C210.377 104.754 210.768 104.02 211.36 103.469L214.299 99.9131L214.859 99.2359C215.987 98.1859 216.707 98.9085 217.644 100.131L219.148 102.664L223.662 108.607V118.012L219.517 161.444" fill="#F6F6F6"/>
<path d="M211.857 179.888C204.788 181.266 202.764 169.189 202.764 169.189C200.703 153.92 212.98 126.009 213.792 122.405C214.605 118.8 210.655 107.879 210.655 107.879C210.265 107.17 210.122 106.352 210.249 105.553C210.377 104.754 210.768 104.02 211.36 103.469L214.299 99.9131L214.859 99.2359C215.987 98.1859 216.707 98.9085 217.644 100.131L219.148 102.664L223.662 108.607V118.012L219.517 161.444" stroke="#575D68" stroke-width="0.5" stroke-miterlimit="10"/>
<path d="M220.575 155.073C220.575 155.073 224.459 161.677 225.164 167.594C225.87 173.511 225.163 175.841 225.163 175.841" stroke="#575D68" stroke-width="0.5" stroke-miterlimit="10"/>
<path d="M222.711 153.492C222.711 153.492 226.603 157.347 227.3 166.013C227.778 171.952 227.299 174.26 227.299 174.26" stroke="#575D68" stroke-width="0.5" stroke-miterlimit="10"/>
<path d="M184.138 192.351C181.327 215.298 177.488 240.01 177.488 240.01L242.811 272.346L235.561 200.617C230.677 202.209 225.661 203.365 220.573 204.073C204.777 206.396 190.81 203.707 184.138 192.351Z" fill="#DDDEDF" stroke="#575D68" stroke-width="0.5" stroke-miterlimit="10"/>
<path d="M235.862 204.728C230.978 206.319 225.963 207.475 220.875 208.183C205.079 210.506 190.131 209.145 183.459 197.788" stroke="#575D68" stroke-width="0.5" stroke-miterlimit="10"/>
<path d="M223.863 97.4814C224.29 97.0545 224.362 96.4349 224.025 96.0975C223.688 95.7601 223.068 95.8327 222.641 96.2596C222.214 96.6865 222.142 97.3061 222.479 97.6435C222.816 97.9808 223.436 97.9083 223.863 97.4814Z" fill="#F6F6F6" stroke="#575D68" stroke-width="0.5" stroke-miterlimit="10"/>
<path d="M219.572 108.732L217.094 105.232L214.857 99.2352" fill="#F6F6F6"/>
<path d="M219.572 108.732L217.094 105.232L214.857 99.2352" stroke="#575D68" stroke-width="0.5" stroke-miterlimit="10"/>
<path d="M216.639 110.406L214.352 106.187L213.357 101.202" fill="#F6F6F6"/>
<path d="M216.639 110.406L214.352 106.187L213.357 101.202" stroke="#575D68" stroke-width="0.5" stroke-miterlimit="10"/>
<path d="M213.814 110.802L212.003 107.351L211.129 103.477" fill="#F6F6F6"/>
<path d="M213.814 110.802L212.003 107.351L211.129 103.477" stroke="#575D68" stroke-width="0.5" stroke-miterlimit="10"/>
<path d="M197.325 91.4172C198.504 92.0041 199.434 92.9937 199.946 94.207C200.459 95.4202 200.52 96.7769 200.119 98.0314C199.81 99.1523 198.421 103.057 200.119 103.477C200.742 103.665 201.393 103.741 202.043 103.703" fill="#F6F6F6"/>
<path d="M197.325 91.4172C198.504 92.0041 199.434 92.9937 199.946 94.207C200.459 95.4202 200.52 96.7769 200.119 98.0314C199.81 99.1523 198.421 103.057 200.119 103.477C200.742 103.665 201.393 103.741 202.043 103.703" stroke="#575D68" stroke-width="0.5" stroke-miterlimit="10"/>
<path d="M202.531 94.0498C203.66 93.8685 204.81 93.8685 205.939 94.0498C207.078 94.2522 208.145 94.7498 209.032 95.4931" fill="#F6F6F6"/>
<path d="M202.531 94.0498C203.66 93.8685 204.81 93.8685 205.939 94.0498C207.078 94.2522 208.145 94.7498 209.032 95.4931" stroke="#575D68" stroke-width="0.5" stroke-miterlimit="10"/>
<path d="M156.087 151.001L178.688 169.339L181.487 148.813C180.887 148.487 180.393 147.996 180.062 147.398C179.732 146.801 179.58 146.121 179.623 145.439C180.685 133.161 183.785 122.408 186.248 120.473C189.989 117.535 199.42 116.2 199.42 116.2L201.055 141.962C201.055 141.962 196.676 158.629 193.897 165.126C192.139 169.235 188.894 177.094 186.747 182.316C186.488 182.946 186.092 183.509 185.585 183.964C185.079 184.418 184.477 184.753 183.823 184.942C183.169 185.131 182.481 185.17 181.811 185.056C181.14 184.942 180.503 184.678 179.949 184.283C174.565 180.458 166.05 174.002 162.868 169.339C158.066 162.301 156.087 151.001 156.087 151.001Z" fill="#F6F6F6" stroke="#575D68" stroke-width="0.5" stroke-miterlimit="10"/>
<path d="M185.325 122.287C186.174 118.897 191.471 116.566 194.225 116.2C204.359 114.853 203.075 109.612 203.075 109.612L221.989 102.912C221.989 102.912 218.25 113.435 231.301 121.236C246.016 130.031 248.686 133.633 248.702 147.337C248.724 166.15 235.561 200.618 235.561 200.618L242.811 272.346L177.488 240.01C177.488 240.01 186.544 181.726 187.022 161.059C187.022 161.059 184.503 146.934 185.716 140.301C186.929 133.667 188.464 128.46 188.464 128.46" fill="#F6F6F6"/>
<path d="M185.325 122.287C186.174 118.897 191.471 116.566 194.225 116.2C204.359 114.853 203.075 109.612 203.075 109.612L221.989 102.912C221.989 102.912 218.25 113.435 231.301 121.236C246.016 130.031 248.686 133.633 248.702 147.337C248.724 166.15 235.561 200.618 235.561 200.618L242.811 272.346L177.488 240.01C177.488 240.01 186.544 181.726 187.022 161.059C187.022 161.059 184.503 146.934 185.716 140.301C186.929 133.667 188.464 128.46 188.464 128.46" stroke="#575D68" stroke-width="0.5" stroke-miterlimit="10"/>
<path d="M185.325 122.287C186.174 118.897 191.471 116.566 194.225 116.2C204.359 114.853 203.075 109.612 203.075 109.612L221.989 102.912C221.989 102.912 218.25 113.435 231.301 121.236C246.016 130.031 248.686 133.633 248.702 147.337C248.724 166.15 235.561 200.618 235.561 200.618L242.811 272.346L177.488 240.01C177.488 240.01 186.544 181.726 187.022 161.059C187.022 161.059 184.503 146.934 185.716 140.301C186.929 133.667 188.464 128.46 188.464 128.46" fill="#F6F6F6"/>
<path d="M185.325 122.287C186.174 118.897 191.471 116.566 194.225 116.2C204.359 114.853 203.075 109.612 203.075 109.612L221.989 102.912C221.989 102.912 218.25 113.435 231.301 121.236C246.016 130.031 248.686 133.633 248.702 147.337C248.724 166.15 235.561 200.618 235.561 200.618L242.811 272.346L177.488 240.01C177.488 240.01 186.544 181.726 187.022 161.059C187.022 161.059 184.503 146.934 185.716 140.301C186.929 133.667 188.464 128.46 188.464 128.46" stroke="#575D68" stroke-width="0.5" stroke-miterlimit="10"/>
<path style="mix-blend-mode:multiply" d="M185.325 122.287C186.174 118.897 191.471 116.566 194.225 116.2C204.359 114.853 203.075 109.612 203.075 109.612L221.989 102.912C221.989 102.912 218.25 113.435 231.301 121.236C246.016 130.031 248.686 133.633 248.702 147.337C248.724 166.15 235.561 200.618 235.561 200.618L242.811 272.346L177.488 240.01C177.488 240.01 186.544 181.726 187.022 161.059C187.022 161.059 184.503 146.934 185.716 140.301C186.929 133.667 188.464 128.46 188.464 128.46" fill="url(#paint3_linear_137_13)"/>
<path d="M203.273 122.122C210.149 125.291 218.937 122.405 227.725 118.698C222.055 113.911 221.328 108.675 221.519 105.597C218.624 105.791 215.585 106.006 212.648 106.221L203.075 109.612C203.075 109.612 203.879 112.921 199.125 114.956C198.91 116.443 199.201 117.959 199.954 119.259C200.707 120.56 201.876 121.568 203.273 122.122Z" fill="#F6F6F6" stroke="#575D68" stroke-width="0.5" stroke-miterlimit="10"/>
<path d="M210.389 114.934C205.497 116.707 200.683 115.646 199.381 109.331C198.628 105.676 197.725 104.768 197.569 101.748C197.491 100.241 197.655 98.7334 197.727 97.2259C197.887 94.582 197.58 91.9308 196.82 89.3933C195.376 84.4386 197.538 76.5496 200.662 72.5617C201.852 71.006 203.374 69.7358 205.118 68.8439C206.861 67.952 208.782 67.4609 210.74 67.4067C213.017 67.4224 215.268 67.8978 217.358 68.8045C217.79 68.9998 218.236 69.1789 218.689 69.3523C219.982 69.795 221.246 70.3185 222.473 70.9198C225.441 72.5156 226.773 76.0277 227.518 79.3146C229.511 88.117 227.953 94.759 224.109 102.795C221.505 108.239 218.103 113.719 212.164 115.872" fill="#F6F6F6"/>
<path d="M210.389 114.934C205.497 116.707 200.683 115.646 199.381 109.331C198.628 105.676 197.725 104.768 197.569 101.748C197.491 100.241 197.655 98.7334 197.727 97.2259C197.887 94.582 197.58 91.9308 196.82 89.3933C195.376 84.4386 197.538 76.5496 200.662 72.5617C201.852 71.006 203.374 69.7358 205.118 68.8439C206.861 67.952 208.782 67.4609 210.74 67.4067C213.017 67.4224 215.268 67.8978 217.358 68.8045C217.79 68.9998 218.236 69.1789 218.689 69.3523C219.982 69.795 221.246 70.3185 222.473 70.9198C225.441 72.5156 226.773 76.0277 227.518 79.3146C229.511 88.117 227.953 94.759 224.109 102.795C221.505 108.239 218.103 113.719 212.164 115.872" stroke="#575D68" stroke-width="0.5" stroke-miterlimit="10"/>
<path d="M229.49 140.301L210.102 163.721L208.209 176.274C208.134 176.772 208.179 177.282 208.339 177.759C208.5 178.237 208.772 178.67 209.132 179.022C209.493 179.374 209.932 179.636 210.413 179.785C210.895 179.934 211.405 179.967 211.901 179.881C216.487 179.156 220.95 177.797 225.161 175.841C235.967 170.497 242.747 160.218 242.747 160.218" fill="#F6F6F6"/>
<path d="M229.49 140.301L210.102 163.721L208.209 176.274C208.134 176.772 208.179 177.282 208.339 177.759C208.5 178.237 208.772 178.67 209.132 179.022C209.493 179.374 209.932 179.636 210.413 179.785C210.895 179.934 211.405 179.967 211.901 179.881C216.487 179.156 220.95 177.797 225.161 175.841C235.967 170.497 242.747 160.218 242.747 160.218" stroke="#575D68" stroke-width="0.5" stroke-miterlimit="10"/>
<path style="mix-blend-mode:multiply" d="M229.493 140.301L210.104 163.721L208.315 175.588C208.227 176.165 208.278 176.755 208.463 177.309C208.648 177.863 208.963 178.364 209.381 178.772C209.798 179.18 210.307 179.482 210.865 179.654C211.423 179.826 212.014 179.862 212.589 179.76C216.937 179.024 221.167 177.706 225.164 175.841C235.969 170.497 242.749 160.218 242.749 160.218" fill="url(#paint4_linear_137_13)"/>
<path d="M222.474 70.9198C221.247 70.3185 219.984 69.795 218.691 69.3523C218.238 69.1789 217.791 68.9998 217.36 68.8045C215.27 67.8978 213.019 67.4223 210.742 67.4067C208.784 67.4609 206.863 67.952 205.12 68.8439C203.376 69.7358 201.854 71.006 200.664 72.5618C198.775 74.9727 197.059 80.4975 197.059 80.4975C198.011 84.7114 209.601 85.3057 215.863 82.3044C216.095 82.1057 216.378 81.9746 216.679 81.9254C216.98 81.8762 217.29 81.9108 217.573 82.0254C217.856 82.14 218.102 82.3302 218.284 82.5752C218.467 82.8202 218.578 83.1106 218.607 83.4147C219.198 85.744 219.497 88.1377 219.497 90.5408C219.497 90.5408 218.173 97.2964 221.116 98.7293C222.6 99.2626 224.202 99.3837 225.749 99.0796C228.489 92.8632 229.111 85.9189 227.519 79.3146C226.775 76.0277 225.443 72.5156 222.474 70.9198Z" fill="#DDDEDF" stroke="#575D68" stroke-width="0.5" stroke-miterlimit="10"/>
<path style="mix-blend-mode:multiply" d="M222.474 70.9198C221.247 70.3185 219.984 69.795 218.691 69.3523C218.238 69.1789 217.791 68.9998 217.36 68.8045C215.27 67.8978 213.019 67.4223 210.742 67.4067C208.784 67.4609 206.863 67.952 205.12 68.8439C203.376 69.7358 201.854 71.006 200.664 72.5618C198.775 74.9727 197.059 80.4975 197.059 80.4975C198.011 84.7114 209.601 85.3057 215.863 82.3044C216.095 82.1057 216.378 81.9746 216.679 81.9254C216.98 81.8762 217.29 81.9108 217.573 82.0254C217.856 82.14 218.102 82.3302 218.284 82.5752C218.467 82.8202 218.578 83.1106 218.607 83.4147C219.198 85.744 219.497 88.1377 219.497 90.5408C219.497 90.5408 218.173 97.2964 221.116 98.7293C222.6 99.2626 224.202 99.3837 225.749 99.0796C228.489 92.8632 229.111 85.9189 227.519 79.3146C226.775 76.0277 225.443 72.5156 222.474 70.9198Z" fill="url(#paint5_linear_137_13)"/>
<path d="M223.21 115.413L227.282 109.14L228.545 104.609C228.545 104.423 228.488 104.241 228.381 104.089C228.274 103.937 228.122 103.821 227.947 103.758C227.772 103.695 227.582 103.688 227.402 103.737C227.223 103.786 227.063 103.889 226.944 104.032L225.164 106.72L222.53 109.925" fill="#F6F6F6"/>
<path d="M223.21 115.413L227.282 109.14L228.545 104.609C228.545 104.423 228.488 104.241 228.381 104.089C228.274 103.937 228.122 103.821 227.947 103.758C227.772 103.695 227.582 103.688 227.402 103.737C227.223 103.786 227.063 103.889 226.944 104.032L225.164 106.72L222.53 109.925" stroke="#575D68" stroke-width="0.5" stroke-miterlimit="10"/>
<path d="M220.42 95.5794L206.424 112.779C206.19 113.037 206.033 113.356 205.972 113.699C205.911 114.042 205.948 114.395 206.078 114.718C206.209 115.042 206.428 115.321 206.71 115.525C206.992 115.73 207.326 115.85 207.674 115.873L214.605 117.089C215.313 117.213 216.041 117.148 216.715 116.899C217.389 116.651 217.985 116.229 218.443 115.675L231.595 99.785C231.754 99.6291 231.877 99.4397 231.954 99.2305C232.031 99.0213 232.06 98.7976 232.04 98.5757C232.02 98.3537 231.95 98.139 231.837 97.9472C231.723 97.7554 231.568 97.5913 231.384 97.4668L225.451 94.3239C223.255 93.0311 221.712 93.9919 220.42 95.5794Z" fill="url(#paint6_linear_137_13)" stroke="#333333" stroke-width="0.5" stroke-miterlimit="10"/>
<path d="M207.675 115.873C206.322 115.118 206.431 114.109 206.875 113.564L220.74 96.5541C222.032 94.9665 223.015 93.7685 225.771 95.2986L230.282 97.7713C231.7 98.7292 231.595 99.7849 230.276 101.38" stroke="#575D68" stroke-width="0.5" stroke-miterlimit="10"/>
<path d="M211.857 179.888C204.788 181.266 202.764 169.189 202.764 169.189C200.703 153.92 212.98 126.009 213.792 122.405C214.605 118.8 210.655 107.879 210.655 107.879C210.265 107.17 210.122 106.352 210.249 105.553C210.377 104.754 210.768 104.02 211.36 103.469L214.299 99.9131L214.859 99.2359C215.987 98.1859 216.707 98.9085 217.644 100.131L219.148 102.664L223.662 108.607V118.012L219.517 161.444" fill="#F6F6F6"/>
<path d="M211.857 179.888C204.788 181.266 202.764 169.189 202.764 169.189C200.703 153.92 212.98 126.009 213.792 122.405C214.605 118.8 210.655 107.879 210.655 107.879C210.265 107.17 210.122 106.352 210.249 105.553C210.377 104.754 210.768 104.02 211.36 103.469L214.299 99.9131L214.859 99.2359C215.987 98.1859 216.707 98.9085 217.644 100.131L219.148 102.664L223.662 108.607V118.012L219.517 161.444" stroke="#575D68" stroke-width="0.5" stroke-miterlimit="10"/>
<path d="M220.575 155.073C220.575 155.073 224.459 161.677 225.164 167.594C225.87 173.511 225.163 175.841 225.163 175.841" stroke="#575D68" stroke-width="0.5" stroke-miterlimit="10"/>
<path d="M222.711 153.492C222.711 153.492 226.603 157.347 227.3 166.013C227.778 171.952 227.299 174.26 227.299 174.26" stroke="#575D68" stroke-width="0.5" stroke-miterlimit="10"/>
<path d="M184.138 192.351C181.327 215.298 177.488 240.01 177.488 240.01L242.811 272.346L235.561 200.617C230.677 202.209 225.661 203.365 220.573 204.073C204.777 206.396 190.81 203.707 184.138 192.351Z" fill="#DDDEDF" stroke="#575D68" stroke-width="0.5" stroke-miterlimit="10"/>
<path d="M235.862 204.728C230.978 206.319 225.963 207.475 220.875 208.183C205.079 210.506 190.131 209.145 183.459 197.788" stroke="#575D68" stroke-width="0.5" stroke-miterlimit="10"/>
<path d="M223.863 97.4814C224.29 97.0545 224.362 96.4349 224.025 96.0975C223.688 95.7601 223.068 95.8327 222.641 96.2596C222.214 96.6865 222.142 97.3061 222.479 97.6435C222.816 97.9808 223.436 97.9083 223.863 97.4814Z" fill="#DDDEDF" stroke="#575D68" stroke-width="0.5" stroke-miterlimit="10"/>
<path d="M219.572 108.732L217.094 105.232L214.857 99.2352" fill="#F6F6F6"/>
<path d="M219.572 108.732L217.094 105.232L214.857 99.2352" stroke="#575D68" stroke-width="0.5" stroke-miterlimit="10"/>
<path d="M216.639 110.406L214.352 106.187L213.357 101.202" fill="#F6F6F6"/>
<path d="M216.639 110.406L214.352 106.187L213.357 101.202" stroke="#575D68" stroke-width="0.5" stroke-miterlimit="10"/>
<path d="M213.814 110.802L212.003 107.351L211.129 103.477" fill="#F6F6F6"/>
<path d="M213.814 110.802L212.003 107.351L211.129 103.477" stroke="#575D68" stroke-width="0.5" stroke-miterlimit="10"/>
<path d="M197.325 91.4172C198.504 92.0041 199.434 92.9937 199.946 94.207C200.459 95.4202 200.52 96.7769 200.119 98.0314C199.81 99.1523 198.421 103.057 200.119 103.477C200.742 103.665 201.393 103.741 202.043 103.703" fill="#F6F6F6"/>
<path d="M197.325 91.4172C198.504 92.0041 199.434 92.9937 199.946 94.207C200.459 95.4202 200.52 96.7769 200.119 98.0314C199.81 99.1523 198.421 103.057 200.119 103.477C200.742 103.665 201.393 103.741 202.043 103.703" stroke="#575D68" stroke-width="0.5" stroke-miterlimit="10"/>
<path d="M202.531 94.0498C203.66 93.8685 204.81 93.8685 205.939 94.0498C207.078 94.2522 208.145 94.7498 209.032 95.4931" fill="#F6F6F6"/>
<path d="M202.531 94.0498C203.66 93.8685 204.81 93.8685 205.939 94.0498C207.078 94.2522 208.145 94.7498 209.032 95.4931" stroke="#575D68" stroke-width="0.5" stroke-miterlimit="10"/>
<path d="M142.697 299.912L248.702 360.713V235.085L142.697 174.555V299.912Z" fill="#F6F6F6" stroke="#575D68" stroke-width="0.5" stroke-miterlimit="10"/>
<path d="M248.701 360.713L263.847 351.975V227.227L248.701 235.085V360.713Z" fill="#F6F6F6" stroke="#575D68" stroke-width="0.5" stroke-miterlimit="10"/>
<path d="M263.848 227.228L248.702 235.085L142.698 174.555L157.533 166.15L263.848 227.228Z" fill="#F6F6F6" stroke="#575D68" stroke-width="0.5" stroke-miterlimit="10"/>
<path d="M185.595 149.731C184.182 149.677 182.79 149.366 181.488 148.813L185.595 149.731Z" fill="#F6F6F6"/>
<path d="M185.595 149.731C184.182 149.677 182.79 149.366 181.488 148.813" stroke="#575D68" stroke-width="0.5" stroke-miterlimit="10"/>
<path d="M263.007 397.589L365.998 338.944V42.2043L219.498 -42.405L211.858 -37.7607L360.37 46.3707L358.592 334.644L256.191 393.656L263.007 397.589Z" fill="#F6F6F6" stroke="#575D68" stroke-width="0.5" stroke-miterlimit="10"/>
<path d="M152.632 180.428L156.67 178.017L165.736 183.293L161.99 185.739L152.632 180.428Z" fill="#F6F6F6" stroke="#575D68" stroke-width="0.5" stroke-miterlimit="10"/>
<path d="M156.769 174.007V179.539L163.102 183.157V177.51L156.769 174.007Z" fill="#F6F6F6" stroke="#575D68" stroke-width="0.5" stroke-miterlimit="10"/>
<path d="M139.965 137.186L148.911 168.472C149.135 169.256 149.512 169.988 150.019 170.626C150.527 171.264 151.155 171.795 151.869 172.19L173.015 183.886C173.088 183.927 173.171 183.944 173.254 183.937C173.338 183.931 173.417 183.899 173.482 183.847C173.547 183.795 173.596 183.725 173.621 183.646C173.647 183.566 173.648 183.481 173.625 183.401L163.778 148.986C163.575 148.276 163.111 147.67 162.48 147.288L142.53 135.225C142.232 135.045 141.886 134.958 141.538 134.977C141.19 134.996 140.856 135.12 140.579 135.331C140.302 135.543 140.095 135.833 139.986 136.164C139.876 136.495 139.869 136.851 139.965 137.186Z" fill="#F6F6F6" stroke="#575D68" stroke-width="0.5" stroke-miterlimit="10"/>
<path d="M171.793 180.5L162.995 149.75C162.792 149.04 162.328 148.434 161.697 148.052L141.747 135.989" fill="#F6F6F6"/>
<path d="M171.793 180.5L162.995 149.75C162.792 149.04 162.328 148.434 161.697 148.052L141.747 135.989" stroke="#575D68" stroke-width="0.5" stroke-miterlimit="10"/>
<path d="M145.932 145.619C146.624 145.366 146.878 144.323 146.501 143.29C146.123 142.256 145.256 141.623 144.564 141.876C143.873 142.128 143.618 143.171 143.996 144.205C144.374 145.239 145.241 145.872 145.932 145.619Z" fill="#F6F6F6" stroke="#575D68" stroke-width="0.5" stroke-miterlimit="10"/>
<path d="M237.578 -2.30603L235.566 -0.94787L237.578 57.0418L312.718 102.911L314.73 101.553V42.2043L237.578 -2.30603Z" fill="#F6F6F6" stroke="#575D68" stroke-width="0.5" stroke-miterlimit="10"/>
<path d="M235.566 -0.94812V58.3997L312.718 102.911V43.5632L235.566 -0.94812Z" fill="#F6F6F6" stroke="#575D68" stroke-width="0.5" stroke-miterlimit="10"/>
<path d="M239.446 3.59521V57.9966L308.84 98.0311V43.6298L239.446 3.59521Z" fill="#F6F6F6" stroke="#575D68" stroke-width="0.5" stroke-miterlimit="10"/>
<path d="M-10.3438 370.413L-8.89578 52.7038L108.885 -14.0627L109.664 300.838L-10.3438 370.413Z" fill="#F6F6F6" stroke="#575D68" stroke-width="0.5" stroke-miterlimit="10"/>
<path d="M-6.5376 368.207V55.4109L106.273 -9.35107V302.672L-6.5376 368.207Z" fill="#F6F6F6" stroke="#575D68" stroke-width="0.5" stroke-miterlimit="10"/>
<path d="M1.72129 92.961C11.7528 92.961 19.8849 84.8288 19.8849 74.7973C19.8849 64.7658 11.7528 56.6337 1.72129 56.6337C-8.31021 56.6337 -16.4424 64.7658 -16.4424 74.7973C-16.4424 84.8288 -8.31021 92.961 1.72129 92.961Z" fill="#F6F6F6" stroke="#575D68" stroke-width="0.5" stroke-miterlimit="10"/>
<path d="M1.72129 75.8074C11.7528 75.8074 19.8849 73.2146 19.8849 70.0163C19.8849 66.818 11.7528 64.2252 1.72129 64.2252C-8.31021 64.2252 -16.4424 66.818 -16.4424 70.0163C-16.4424 73.2146 -8.31021 75.8074 1.72129 75.8074Z" fill="#F6F6F6" stroke="#575D68" stroke-width="0.5" stroke-miterlimit="10"/>
<path d="M25.0346 63.6232C25.0346 67.7281 14.5974 71.0558 1.72239 71.0558C-11.1526 71.0558 -21.5898 67.7281 -21.5898 63.6232V49.2374C-21.5898 49.2374 -6.91633 56.1905 1.72239 56.1905C11.3786 56.1905 25.0346 49.2374 25.0346 49.2374V63.6232Z" fill="#F6F6F6" stroke="#575D68" stroke-width="0.5" stroke-miterlimit="10"/>
<path d="M1.72239 56.6699C14.5974 56.6699 25.0346 53.3422 25.0346 49.2373C25.0346 45.1324 14.5974 41.8047 1.72239 41.8047C-11.1526 41.8047 -21.5898 45.1324 -21.5898 49.2373C-21.5898 53.3422 -11.1526 56.6699 1.72239 56.6699Z" fill="#F6F6F6" stroke="#575D68" stroke-width="0.5" stroke-miterlimit="10"/>
<path d="M-13.1587 73.3354V83.5777L-5.77061 89.1502H9.21391L16.603 83.6256V73.3354" fill="#F6F6F6"/>
<path d="M-13.1587 73.3354V83.5777L-5.77061 89.1502H9.21391L16.603 83.6256V73.3354" stroke="#575D68" stroke-width="0.5" stroke-miterlimit="10"/>
<path d="M1.72215 91.7988C5.9414 91.7988 9.36178 88.3784 9.36178 84.1592C9.36178 79.9399 5.9414 76.5195 1.72215 76.5195C-2.4971 76.5195 -5.91748 79.9399 -5.91748 84.1592C-5.91748 88.3784 -2.4971 91.7988 1.72215 91.7988Z" fill="#F6F6F6" stroke="#575D68" stroke-width="0.5" stroke-miterlimit="10"/>
<path d="M96.7508 26.7585L1.82812 175.805" stroke="#575D68" stroke-width="0.5" stroke-miterlimit="10"/>
<path d="M42.6098 89.2627L-2.14404 159.535" stroke="#575D68" stroke-width="0.5" stroke-miterlimit="10"/>
<path d="M96.7521 49.3706L36.3853 144.158" stroke="#575D68" stroke-width="0.5" stroke-miterlimit="10"/>
<path d="M96.7508 73.1738L1.82812 222.22" stroke="#575D68" stroke-width="0.5" stroke-miterlimit="10"/>
<path d="M76.199 122.747L1.82812 239.523" stroke="#575D68" stroke-width="0.5" stroke-miterlimit="10"/>
<path d="M88.7689 246.83L43.0679 318.589" stroke="#575D68" stroke-width="0.5" stroke-miterlimit="10"/>
<path d="M90.9941 260.638L43.0679 335.891" stroke="#575D68" stroke-width="0.5" stroke-miterlimit="10"/>
<path d="M106.274 145.591L89.6641 156.123V212.047L106.274 202.463V145.591Z" fill="#F6F6F6" stroke="#575D68" stroke-width="0.5" stroke-miterlimit="10"/>
<path d="M99.6801 154.791L103.969 155.815C105.246 156.096 106.404 156.769 107.28 157.74C108.157 158.71 108.709 159.93 108.859 161.23C108.875 161.419 108.884 161.609 108.884 161.801V190.244C108.884 191.642 108.519 193.017 107.826 194.232C107.133 195.446 106.136 196.46 104.932 197.171C103.728 197.883 102.359 198.269 100.961 198.29C99.5627 198.312 98.1829 197.969 96.9575 197.295C96.7145 197.161 96.5119 196.965 96.3708 196.726C96.2297 196.488 96.1553 196.215 96.1553 195.938V192.938C96.1553 192.678 96.2206 192.422 96.3454 192.194C96.4702 191.966 96.6504 191.773 96.8693 191.633C97.0882 191.493 97.3389 191.411 97.5981 191.393C97.8574 191.375 98.117 191.423 98.353 191.532C98.9735 191.818 99.6561 191.944 100.338 191.897C101.02 191.851 101.679 191.633 102.255 191.265C102.83 190.897 103.304 190.389 103.632 189.79C103.961 189.19 104.133 188.518 104.133 187.834V165.358C104.133 161.21 98.4715 160.777 98.4715 160.777C98.2528 160.637 98.0729 160.444 97.9482 160.217C97.8236 159.989 97.7583 159.733 97.7583 159.473V157.029C97.7583 155.838 98.1413 154.105 99.6801 154.791Z" fill="#F6F6F6" stroke="#575D68" stroke-width="0.5" stroke-miterlimit="10"/>
<g opacity="0.32">
<path style="mix-blend-mode:multiply" opacity="0.32" d="M258.495 34.8905C258.893 29.5235 260.561 24.3279 263.361 19.7321C264.339 18.2579 265.779 16.9967 266.833 18.258C267.49 19.3651 267.848 20.6242 267.871 21.9116C268.256 25.6153 268.306 29.346 268.022 33.0587C268.2 31.1918 269.503 29.9455 270.476 30.7118C271.281 31.3456 271.699 33.022 271.651 34.5835C271.573 36.0628 271.236 37.517 270.655 38.8797C269.598 41.337 268.272 43.6701 266.703 45.8365C264.79 48.6716 262.139 55.0708 259.903 50.2613C258.17 46.5321 258.031 39.4153 258.495 34.8905Z" fill="url(#paint7_linear_137_13)"/>
<path style="mix-blend-mode:multiply" opacity="0.32" d="M261.901 51.4928C261.708 45.0416 260.798 38.632 259.187 32.3824C258.892 30.8847 258.307 29.4594 257.463 28.1875C256.029 26.4325 254.003 27.1217 252.501 28.7468C251.98 29.2633 251.676 29.9599 251.652 30.6935C251.674 31.184 251.783 31.6667 251.975 32.1185L253.408 36.0406C251.208 35.276 248.858 35.0418 246.55 35.357C245.629 35.4217 244.739 35.7226 243.968 36.2306C243.197 36.7386 242.569 37.4367 242.146 38.2576C240.708 40.9881 240.881 45.5366 242.106 48.5276C242.576 49.7553 243.285 50.8777 244.191 51.8301C245.097 52.7824 246.183 53.5459 247.386 54.0763C249.159 54.8584 251.109 55.1545 253.034 54.934C254.96 54.7136 256.792 53.9846 258.343 52.8219" fill="url(#paint8_linear_137_13)"/>
<path style="mix-blend-mode:multiply" opacity="0.32" d="M264.92 34.6823C265.236 34.5303 265.622 34.4357 265.844 34.8546C265.993 35.2511 266.046 35.6772 265.998 36.098C265.927 38.1723 265.705 40.2388 265.335 42.2811C265.483 41.3984 266.076 40.9417 266.592 41.0444C267.163 41.2675 267.651 41.6631 267.988 42.1762C268.972 43.1927 269.559 44.529 269.641 45.9418C269.669 47.6318 268.824 48.9824 268.591 50.627C269.699 50.6498 270.758 51.0899 271.556 51.8594C272.164 52.3758 272.572 53.0875 272.712 53.8723C272.829 55.1987 272.565 56.531 271.951 57.7123C271.255 59.3339 270.473 61.0601 269.36 61.5654C265.878 63.1471 259.337 58.3369 257.905 52.2477C256.084 44.5038 261.091 36.5247 264.92 34.6823Z" fill="url(#paint9_linear_137_13)"/>
<path style="mix-blend-mode:multiply" opacity="0.32" d="M264.553 46.9391C264.589 46.3393 264.469 45.7405 264.207 45.2001C263.736 44.3707 263.285 44.7826 262.894 45.1918C261.691 46.4602 260.597 47.8279 259.624 49.2803L256.52 44.8262C256.188 44.244 255.723 43.7493 255.162 43.3832C254.819 43.2781 254.454 43.2627 254.102 43.3385C253.751 43.4143 253.425 43.5787 253.155 43.8162C251.79 44.7216 250.592 45.8567 249.615 47.1712C249.159 47.7241 248.817 48.3612 248.606 49.0462C248.226 51.0108 248.565 53.0467 249.561 54.7818C251.079 57.6808 253.142 59.6719 255.35 60.3683L254.716 61.6712C253.854 63.4449 254.055 66.1585 255.161 67.4008C257.623 70.1675 261.305 72.306 263.377 69.5356C265.623 66.5315 264.463 50.6927 264.553 46.9391Z" fill="url(#paint10_linear_137_13)"/>
<path style="mix-blend-mode:multiply" opacity="0.32" d="M266.818 44.8332C268.957 44.3484 271.179 45.2492 272.972 47.327C273.402 47.7982 273.725 48.3573 273.918 48.9657C274.112 49.574 274.17 50.2171 274.091 50.8504C273.944 51.5649 273.556 52.2072 272.991 52.6686C271.889 53.7066 270.562 54.4751 269.113 54.9138C269.798 54.76 270.461 55.9533 270.361 57.1608C270.356 57.5659 270.248 57.9631 270.046 58.3145C269.845 58.6659 269.556 58.9598 269.209 59.1684C268.927 59.259 268.627 59.2801 268.335 59.2301C268.043 59.18 267.767 59.0601 267.532 58.8807C266.34 58.0405 265.287 57.0201 264.409 55.8561C263.084 54.2925 260.383 52.5867 261.679 49.2428C262.127 48.1548 262.827 47.1881 263.72 46.4218C264.613 45.6555 265.674 45.1111 266.818 44.8332Z" fill="url(#paint11_linear_137_13)"/>
<path style="mix-blend-mode:multiply" opacity="0.32" d="M261.596 51.6573C264.109 49.9433 266.23 47.7153 267.818 45.1206C268.38 44.3166 268.777 43.4097 268.988 42.4518C269.276 40.608 268.902 38.7217 267.931 37.1279C267.702 36.7586 267.401 36.4047 267.102 36.5624C266.9 36.724 266.746 36.9383 266.659 37.1818L265.534 39.4811C265.418 36.9166 265.1 34.3653 264.583 31.8508C264.228 30.1456 263.721 28.3841 262.802 27.5736C261.596 26.5099 260.033 27.5487 259.198 29.447C258.396 31.6243 258.047 33.9424 258.172 36.2594C258.197 40.2903 258.991 44.2793 260.513 48.0121" fill="url(#paint12_linear_137_13)"/>
<path style="mix-blend-mode:multiply" opacity="0.32" d="M268.007 51.8231C268.147 52.1523 268.182 52.5166 268.107 52.8663C268.075 52.9603 268.021 53.0455 267.95 53.1151C267.879 53.1846 267.793 53.2366 267.699 53.267C266.978 53.5726 266.2 53.7187 265.418 53.6954C265.753 53.6921 266.016 54.2565 266.069 54.8395C266.097 55.4233 266.045 56.0083 265.915 56.5781C265.727 57.5993 265.46 58.7489 264.883 59.0892C264.296 59.4357 263.677 58.7635 263.06 58.815C263.242 59.9643 263.27 61.1328 263.143 62.2896C263.123 62.8711 262.949 63.4368 262.639 63.9292C262.21 64.4359 261.641 64.1321 261.162 63.8133C260.324 63.3515 259.684 62.5994 259.363 61.6988C258.204 58.1846 258.753 50.1302 260.637 47.4269C263.033 43.989 266.697 47.9784 268.007 51.8231Z" fill="url(#paint13_linear_137_13)"/>
<path style="mix-blend-mode:multiply" opacity="0.32" d="M263.423 53.8253C263.697 53.693 263.925 53.4815 264.077 53.2182C264.229 52.955 264.299 52.6521 264.277 52.3488C264.237 52.069 264.134 51.8019 263.976 51.5679C263.386 50.5776 262.717 49.6364 261.976 48.7535L262.997 44.526C263.159 43.9545 263.249 43.3654 263.267 42.7718C263.238 42.0412 263.068 41.3231 262.767 40.6567C262.308 39.5044 261.706 38.4138 260.977 37.4103C260.78 37.0827 260.491 36.8205 260.146 36.6564C259.382 36.4205 258.706 37.5907 258.302 38.7717C257.528 41.1493 257.205 43.6508 257.351 46.1471C256.727 45.6513 256.103 45.1557 255.479 44.6602C254.533 47.3337 253.775 54.3266 255.533 56.6399C256.903 58.4425 261.797 54.7182 263.423 53.8253Z" fill="url(#paint14_linear_137_13)"/>
<g opacity="0.32">
<path style="mix-blend-mode:multiply" opacity="0.32" d="M299.986 66.216C300.748 66.0622 301.537 66.1263 302.265 66.4008C302.992 66.6753 303.627 67.1492 304.097 67.7681C304.387 68.0762 304.606 68.4442 304.738 68.846C304.87 69.2479 304.912 69.6739 304.862 70.0939C304.768 70.5737 304.513 71.0073 304.14 71.3234C303.414 72.033 302.535 72.5674 301.571 72.886C302.026 72.7717 302.474 73.5543 302.414 74.3598C302.412 74.6312 302.342 74.8978 302.21 75.1349C302.078 75.372 301.888 75.572 301.658 75.7164C301.473 75.7818 301.274 75.8013 301.079 75.7731C300.884 75.7448 300.699 75.6698 300.54 75.5543C299.742 75.0161 299.035 74.3551 298.444 73.5958C297.553 72.5782 295.744 71.4901 296.589 69.2415C296.882 68.5085 297.341 67.8536 297.931 67.3286C298.52 66.8035 299.224 66.4226 299.986 66.216Z" fill="url(#paint15_linear_137_13)"/>
<path style="mix-blend-mode:multiply" opacity="0.32" d="M297.691 68.6626C299.177 69.0167 300.738 68.8714 302.132 68.2491C302.576 68.0884 302.953 67.7829 303.202 67.3818C303.679 66.293 303.782 65.0772 303.497 63.9233C303.434 63.6043 303.328 63.2566 303.14 63.1906C303.025 63.1504 302.908 63.2281 302.799 63.3045L301.813 63.9921C302.18 62.4575 302.424 60.8962 302.543 59.323C302.688 58.232 302.596 57.1226 302.275 56.0699C301.794 54.872 300.777 54.6451 300.015 55.2606C299.167 56.1524 298.588 57.2662 298.347 58.4732C297.681 60.961 297.461 63.5472 297.699 66.1116" fill="url(#paint16_linear_137_13)"/>
<path style="mix-blend-mode:multiply" opacity="0.32" d="M301.685 72.6143C301.719 72.8594 301.673 73.1089 301.553 73.3253C301.457 73.4301 301.334 73.3884 301.225 73.3384C300.671 73.0741 300.167 72.7161 299.734 72.28C299.841 72.4388 299.914 72.6184 299.946 72.8071C299.979 72.9957 299.972 73.1892 299.924 73.3748C299.844 73.7296 299.702 74.0676 299.505 74.3732C299.198 74.9026 298.819 75.4669 298.399 75.3445C297.971 75.2199 297.713 74.4388 297.322 74.1125C297.237 74.8792 297.036 75.6286 296.726 76.3353C296.567 76.6867 296.361 77.0206 296.109 77.068C295.749 77.1355 295.453 76.6143 295.216 76.1363C294.8 75.411 294.554 74.6009 294.497 73.7668C294.434 70.8939 296.274 66.1729 297.943 65.5769C300.066 64.8191 301.59 69.4465 301.685 72.6143Z" fill="url(#paint17_linear_137_13)"/>
<path style="mix-blend-mode:multiply" opacity="0.32" d="M298.477 71.2005C298.779 71.2999 299.188 71.2921 299.281 70.773C299.307 70.5511 299.293 70.3263 299.24 70.1092C299.053 69.1226 298.815 68.1465 298.526 67.1849L299.945 65.1333C300.162 64.85 300.329 64.5318 300.439 64.1924C300.559 63.6631 300.588 63.1169 300.523 62.5779C300.445 61.5411 300.277 60.5131 300.02 59.5055C299.952 59.1677 299.825 58.8444 299.646 58.55C299.217 57.9582 298.581 58.2973 298.111 58.8018C297.124 59.9683 296.449 61.3658 296.149 62.8638C295.855 62.1907 295.561 61.5175 295.267 60.8445C294.185 61.9678 292.413 65.9029 293.071 68.3732C293.583 70.2981 297.305 70.8134 298.477 71.2005Z" fill="url(#paint18_linear_137_13)"/>
</g>
<path style="mix-blend-mode:multiply" opacity="0.32" d="M280.667 34.8933C280.149 34.1409 279.334 33.5012 278.865 34.3641C278.672 34.8183 278.572 35.3068 278.573 35.8003C278.435 38.0381 278.607 40.2845 279.086 42.4749C278.512 40.64 277.435 38.9879 276.259 39.3534C275.124 39.7062 274.381 41.9557 274.518 43.9714C274.608 45.7247 275.299 47.3933 276.476 48.6959C277.402 49.5706 278.512 50.2273 279.724 50.6177C279.064 50.6576 278.607 52.2156 278.974 53.1805C279.809 53.3937 280.688 53.3751 281.514 53.1266C282.34 52.8782 283.082 52.4093 283.662 51.7705C285.227 49.838 284.761 50.5924 284.627 47.4846C284.422 43.0149 283.058 38.6754 280.667 34.8933Z" fill="url(#paint19_linear_137_13)"/>
<path style="mix-blend-mode:multiply" opacity="0.32" d="M282.832 47.1753C283.041 47.3202 283.218 47.5076 283.35 47.7254C283.481 47.9432 283.566 48.1864 283.597 48.439C283.691 49.0592 283.435 49.8461 283.071 49.8238C283.329 49.9933 283.615 49.803 283.89 49.7707C283.98 49.7742 284.067 49.7971 284.147 49.8376C284.227 49.8781 284.297 49.9354 284.353 50.0055C284.409 50.0756 284.449 50.1569 284.47 50.2439C284.492 50.3309 284.494 50.4215 284.478 50.5095C284.461 50.6741 284.415 50.8346 284.343 50.9837C283.032 54.0542 281.048 56.2072 278.912 56.8775C278.618 56.9944 278.303 57.0505 277.987 57.0426C277.67 57.0346 277.359 56.9626 277.071 56.831C276.709 56.6009 276.403 56.294 276.174 55.932C275.945 55.5701 275.798 55.162 275.745 54.737L277.443 53.8756C277.485 53.8591 277.522 53.8332 277.553 53.8C277.583 53.7668 277.605 53.7272 277.618 53.6841C277.634 53.5851 277.623 53.4835 277.586 53.3905C277.548 53.2974 277.486 53.2164 277.406 53.1562C275.916 51.8472 275.289 48.1758 276.114 45.593C276.181 45.3242 276.307 45.0738 276.484 44.8601C277.29 44.0724 278.802 45.1647 279.584 45.7163C280.651 46.4691 281.782 46.4875 282.832 47.1753Z" fill="url(#paint20_linear_137_13)"/>
<path style="mix-blend-mode:multiply" opacity="0.32" d="M281.388 41.0197C281.344 41.0173 281.301 41.0265 281.262 41.0464C281.223 41.0664 281.19 41.0964 281.167 41.1333C281.105 41.2643 281.074 41.4075 281.077 41.5521C280.992 42.8061 281.199 44.0627 281.682 45.223C281.391 45.8023 280.781 45.1944 280.439 45.6796C280.322 45.8849 280.252 46.1139 280.234 46.3499C280.125 47.1434 280.233 47.9516 280.546 48.6888C280.872 49.3294 281.409 49.8382 282.066 50.1291L283.895 51.1338C284.019 51.202 284.157 51.269 284.276 51.172C284.361 51.0821 284.424 50.9734 284.46 50.8547C285.111 49.1825 285.002 46.9827 285.212 44.994C285.33 44.1949 285.407 43.3904 285.443 42.5836C285.499 41.8364 285.305 41.0917 284.893 40.466C284.859 40.42 284.81 40.3869 284.754 40.3721C284.649 40.3589 284.559 40.4996 284.483 40.6307L283.801 41.8044C283.757 41.8802 283.704 41.9619 283.643 41.9478C283.572 41.9313 283.535 41.7963 283.501 41.6851C283.322 41.0958 282.893 40.7872 282.528 40.9843C282.339 41.0864 282.432 41.8866 282.485 42.0771C282.447 41.8031 282.319 41.5497 282.12 41.3578C281.921 41.166 281.663 41.0468 281.388 41.0197Z" fill="url(#paint21_linear_137_13)"/>
<path style="mix-blend-mode:multiply" opacity="0.32" d="M283.287 63.9532C283.287 63.9532 286.656 55.232 290.782 52.9819C294.908 50.7319 297.711 51.37 297.711 51.37C297.711 51.37 289.71 66.6868 286.437 66.9569C283.163 67.2271 283.287 63.9532 283.287 63.9532Z" fill="url(#paint22_linear_137_13)"/>
<path style="mix-blend-mode:multiply" opacity="0.32" d="M283.121 67.2489C283.215 61.8615 284.339 56.5419 286.433 51.5771C288.22 47.5644 290.395 43.736 292.928 40.1466C292.928 40.1466 290.844 58.1671 287.577 63.392C284.31 68.6169 283.121 67.2489 283.121 67.2489Z" fill="url(#paint23_linear_137_13)"/>
<path style="mix-blend-mode:multiply" opacity="0.32" d="M252.875 32.946C249.14 31.8794 245.976 29.3842 244.068 26.001C242.338 22.7688 241.056 19.3157 240.259 15.7372C240.259 15.7372 251.49 21.5255 253.04 26.5967C254.591 31.6679 252.875 32.946 252.875 32.946Z" fill="url(#paint24_linear_137_13)"/>
<path style="mix-blend-mode:multiply" opacity="0.32" d="M258.707 33.5662C258.707 33.5662 254.457 37.4105 249.32 35.3742C246.194 34.1257 243.288 32.3864 240.711 30.2219C240.711 30.2219 250.762 25.4074 254.825 28.2351C258.889 31.0627 258.707 33.5662 258.707 33.5662Z" fill="url(#paint25_linear_137_13)"/>
<path style="mix-blend-mode:multiply" opacity="0.32" d="M295.202 46.0852C295.202 46.0852 298.263 45.0211 300.247 46.8757C301.442 47.994 302.418 49.3252 303.125 50.8011C303.125 50.8011 296.986 51.3079 295.729 49.269C294.472 47.2301 295.202 46.0852 295.202 46.0852Z" fill="url(#paint26_linear_137_13)"/>
<path style="mix-blend-mode:multiply" opacity="0.32" d="M294.924 46.6942C294.924 46.6942 297.678 41.6889 302.018 40.8468C304.502 40.3311 307.063 40.3123 309.554 40.7915C309.554 40.7915 302.395 49.2947 298.778 49.0126C295.161 48.7305 294.924 46.6942 294.924 46.6942Z" fill="url(#paint27_linear_137_13)"/>
<path style="mix-blend-mode:multiply" opacity="0.32" d="M292.546 66.5026C292.546 66.5026 291.698 73.7636 289.355 77.2086C287.013 80.6536 285.087 81.5936 285.087 81.5936C285.087 81.5936 287.937 67.8358 290.029 66.0814C292.122 64.3271 292.546 66.5026 292.546 66.5026Z" fill="url(#paint28_linear_137_13)"/>
<path style="mix-blend-mode:multiply" opacity="0.32" d="M290.462 66.9498C291.597 67.3014 292.614 67.9596 293.399 68.8518C294.185 69.744 294.709 70.8357 294.913 72.0066C295.507 74.6424 295.778 77.3408 295.719 80.042C295.719 80.042 289.568 76.065 289.378 72.0746C289.188 68.0841 290.462 66.9498 290.462 66.9498Z" fill="url(#paint29_linear_137_13)"/>
<path style="mix-blend-mode:multiply" opacity="0.32" d="M282.825 68.9832C281.527 68.719 280.297 68.192 279.21 67.4346C278.124 66.6773 277.203 65.7056 276.506 64.5793C275.228 62.3889 274.265 60.0292 273.646 57.5698C273.646 57.5698 281.652 61.0286 282.831 64.5099C284.011 67.9913 282.825 68.9832 282.825 68.9832Z" fill="url(#paint30_linear_137_13)"/>
<path style="mix-blend-mode:multiply" opacity="0.32" d="M282.107 67.4392C282.107 67.4392 279.183 70.3736 275.532 69.2213C273.321 68.5197 271.243 67.4536 269.384 66.0671C269.384 66.0671 276.373 62.1349 279.282 63.902C282.191 65.6691 282.107 67.4392 282.107 67.4392Z" fill="url(#paint31_linear_137_13)"/>
</g>
<path d="M174.697 8.0576C174.697 19.5142 183.997 21.3067 191.44 11.2846L191.453 11.2679C194.917 6.59189 196.866 0.966928 197.038 -4.85013C197.038 -16.3067 186.743 -18.2908 179.301 -8.26869C175.845 -3.61504 174.697 2.73789 174.697 8.0576Z" fill="#F6F6F6" stroke="#575D68" stroke-width="0.5" stroke-miterlimit="10"/>
<path d="M177.991 16.7235C182.114 20.1474 190.051 19.2652 194.734 12.9592C194.734 12.9592 199.635 8.07302 199.643 -1.74424C199.648 -7.08281 198.284 -10.0498 196.008 -12.2389C193.515 -14.636 189.568 -14.7367 186.56 -13.0309C184.43 -11.8948 182.684 -10.1528 181.543 -8.02509" fill="#F6F6F6"/>
<path d="M177.991 16.7235C182.114 20.1474 190.051 19.2652 194.734 12.9592C194.734 12.9592 199.635 8.07302 199.643 -1.74424C199.648 -7.08281 198.284 -10.0498 196.008 -12.2389C193.515 -14.636 189.568 -14.7367 186.56 -13.0309C184.43 -11.8948 182.684 -10.1528 181.543 -8.02509" stroke="#575D68" stroke-width="0.5" stroke-miterlimit="10"/>
<path d="M179.775 17.8352L185.731 5.97136L193.297 1.60388L197.459 8.44461" fill="#F6F6F6"/>
<path d="M179.775 17.8352L185.731 5.97136L193.297 1.60388L197.459 8.44461" stroke="#575D68" stroke-width="0.5" stroke-miterlimit="10"/>
<path d="M196.241 6.44262C195.726 8.01465 194.963 9.49399 193.98 10.8244L193.97 10.8388C190.318 15.7557 185.869 16.5144 181.271 14.8552L185.731 5.9718L193.297 1.60376L196.241 6.44262Z" fill="#F6F6F6" stroke="#575D68" stroke-width="0.5" stroke-miterlimit="10"/>
<path d="M189.163 3.98962V9.2935" stroke="#575D68" stroke-width="0.5" stroke-miterlimit="10"/>
<path style="mix-blend-mode:multiply" opacity="0.5" d="M247.218 99.7086C246.454 105.491 243.971 110.895 240.099 115.204L237.463 110.904C240.313 107.841 242.114 103.929 242.6 99.7433C243.314 93.4098 240.631 88.0499 236.088 86.4134C236.84 84.49 237.585 82.5699 238.322 80.6532C244.334 83.3533 248.182 91.7372 247.218 99.7086ZM234.22 91.2009C233.755 92.3971 233.292 93.5968 232.831 94.8002C233.876 95.1109 234.765 95.8143 235.316 96.7658C235.867 97.7174 236.038 98.8449 235.794 99.9169C235.605 101.69 234.783 103.331 233.483 104.531L235.508 107.696C237.431 105.631 238.617 102.975 238.881 100.145C239.341 95.9112 237.295 92.1204 234.22 91.2009ZM242.086 70.262C241.9 70.955 241.701 71.6422 241.473 72.3173C241.047 73.5833 240.591 74.8383 240.127 76.0906C247.495 79.8272 251.517 89.2351 250.232 99.8442C249.342 106.937 246.386 113.593 241.741 118.966L244.338 123.176C250.303 116.943 254.027 108.861 254.918 100.216C256.512 87.4611 250.903 75.1698 242.086 70.262Z" fill="url(#paint32_linear_137_13)"/>
<defs>
<linearGradient id="paint0_linear_137_13" x1="177.488" y1="187.629" x2="248.702" y2="187.629" gradientUnits="userSpaceOnUse">
<stop offset="0.00777" stop-color="white" stop-opacity="0"/>
<stop offset="0.10635" stop-color="#FBFBFB" stop-opacity="0.10125"/>
<stop offset="0.30369" stop-color="#F5F5F5" stop-opacity="0.27901"/>
<stop offset="0.49638" stop-color="#F0F0F0" stop-opacity="0.41887"/>
<stop offset="0.6805" stop-color="#EDEDED" stop-opacity="0.51892"/>
<stop offset="0.85243" stop-color="#EBEBEB" stop-opacity="0.57928"/>
<stop offset="1" stop-color="#EAEAEA" stop-opacity="0.6"/>
</linearGradient>
<linearGradient id="paint1_linear_137_13" x1="204.486" y1="168.292" x2="239.448" y2="152.669" gradientUnits="userSpaceOnUse">
<stop offset="0.3472" stop-color="white" stop-opacity="0"/>
<stop offset="0.40125" stop-color="#FBFBFB" stop-opacity="0.12803"/>
<stop offset="0.47508" stop-color="#F5F5F5" stop-opacity="0.2725"/>
<stop offset="0.55423" stop-color="#F1F1F1" stop-opacity="0.39198"/>
<stop offset="0.63915" stop-color="#EEEEEE" stop-opacity="0.48433"/>
<stop offset="0.73258" stop-color="#ECECEC" stop-opacity="0.54967"/>
<stop offset="0.84103" stop-color="#EAEAEA" stop-opacity="0.58813"/>
<stop offset="1" stop-color="#EAEAEA" stop-opacity="0.6"/>
</linearGradient>
<linearGradient id="paint2_linear_137_13" x1="197.059" y1="83.3129" x2="228.387" y2="83.3129" gradientUnits="userSpaceOnUse">
<stop offset="0.00777" stop-color="white" stop-opacity="0"/>
<stop offset="0.10635" stop-color="#FBFBFB" stop-opacity="0.10125"/>
<stop offset="0.30369" stop-color="#F5F5F5" stop-opacity="0.27901"/>
<stop offset="0.49638" stop-color="#F0F0F0" stop-opacity="0.41887"/>
<stop offset="0.6805" stop-color="#EDEDED" stop-opacity="0.51892"/>
<stop offset="0.85243" stop-color="#EBEBEB" stop-opacity="0.57928"/>
<stop offset="1" stop-color="#EAEAEA" stop-opacity="0.6"/>
</linearGradient>
<linearGradient id="paint3_linear_137_13" x1="177.488" y1="187.629" x2="248.702" y2="187.629" gradientUnits="userSpaceOnUse">
<stop offset="0.00777" stop-color="white" stop-opacity="0"/>
<stop offset="0.10635" stop-color="#FBFBFB" stop-opacity="0.10125"/>
<stop offset="0.30369" stop-color="#F5F5F5" stop-opacity="0.27901"/>
<stop offset="0.49638" stop-color="#F0F0F0" stop-opacity="0.41887"/>
<stop offset="0.6805" stop-color="#EDEDED" stop-opacity="0.51892"/>
<stop offset="0.85243" stop-color="#EBEBEB" stop-opacity="0.57928"/>
<stop offset="1" stop-color="#EAEAEA" stop-opacity="0.6"/>
</linearGradient>
<linearGradient id="paint4_linear_137_13" x1="204.486" y1="168.292" x2="239.448" y2="152.669" gradientUnits="userSpaceOnUse">
<stop offset="0.3472" stop-color="white" stop-opacity="0"/>
<stop offset="0.40125" stop-color="#FBFBFB" stop-opacity="0.12803"/>
<stop offset="0.47508" stop-color="#F5F5F5" stop-opacity="0.2725"/>
<stop offset="0.55423" stop-color="#F1F1F1" stop-opacity="0.39198"/>
<stop offset="0.63915" stop-color="#EEEEEE" stop-opacity="0.48433"/>
<stop offset="0.73258" stop-color="#ECECEC" stop-opacity="0.54967"/>
<stop offset="0.84103" stop-color="#EAEAEA" stop-opacity="0.58813"/>
<stop offset="1" stop-color="#EAEAEA" stop-opacity="0.6"/>
</linearGradient>
<linearGradient id="paint5_linear_137_13" x1="197.059" y1="83.3129" x2="228.387" y2="83.3129" gradientUnits="userSpaceOnUse">
<stop offset="0.00777" stop-color="white" stop-opacity="0"/>
<stop offset="0.10635" stop-color="#FBFBFB" stop-opacity="0.10125"/>
<stop offset="0.30369" stop-color="#F5F5F5" stop-opacity="0.27901"/>
<stop offset="0.49638" stop-color="#F0F0F0" stop-opacity="0.41887"/>
<stop offset="0.6805" stop-color="#EDEDED" stop-opacity="0.51892"/>
<stop offset="0.85243" stop-color="#EBEBEB" stop-opacity="0.57928"/>
<stop offset="1" stop-color="#EAEAEA" stop-opacity="0.6"/>
</linearGradient>
<linearGradient id="paint6_linear_137_13" x1="242.06" y1="80.5199" x2="208.985" y2="117.209" gradientUnits="userSpaceOnUse">
<stop stop-color="#F6F6F6"/>
<stop offset="0.61111" stop-color="#E2CBFC"/>
<stop offset="0.93672" stop-color="#DABAFF"/>
</linearGradient>
<linearGradient id="paint7_linear_137_13" x1="259.114" y1="28.6092" x2="272.592" y2="34.4848" gradientUnits="userSpaceOnUse">
<stop stop-color="#EAEAEA" stop-opacity="0"/>
<stop offset="0.08667" stop-color="#E0E0E0" stop-opacity="0.17789"/>
<stop offset="0.22597" stop-color="#D1D1D1" stop-opacity="0.42721"/>
<stop offset="0.36713" stop-color="#C5C5C5" stop-opacity="0.63392"/>
<stop offset="0.5082" stop-color="#BBBBBB" stop-opacity="0.79434"/>
<stop offset="0.64929" stop-color="#B4B4B4" stop-opacity="0.90874"/>
<stop offset="0.79044" stop-color="#B0B0B0" stop-opacity="0.97723"/>
<stop offset="0.93199" stop-color="#AFAFAF"/>
</linearGradient>
<linearGradient id="paint8_linear_137_13" x1="244.865" y1="31.997" x2="266.331" y2="41.3544" gradientUnits="userSpaceOnUse">
<stop stop-color="#EAEAEA" stop-opacity="0"/>
<stop offset="0.08667" stop-color="#E0E0E0" stop-opacity="0.17789"/>
<stop offset="0.22597" stop-color="#D1D1D1" stop-opacity="0.42721"/>
<stop offset="0.36713" stop-color="#C5C5C5" stop-opacity="0.63392"/>
<stop offset="0.5082" stop-color="#BBBBBB" stop-opacity="0.79434"/>
<stop offset="0.64929" stop-color="#B4B4B4" stop-opacity="0.90874"/>
<stop offset="0.79044" stop-color="#B0B0B0" stop-opacity="0.97723"/>
<stop offset="0.93199" stop-color="#AFAFAF"/>
</linearGradient>
<linearGradient id="paint9_linear_137_13" x1="259.39" y1="41.0329" x2="276.064" y2="48.3015" gradientUnits="userSpaceOnUse">
<stop stop-color="#EAEAEA" stop-opacity="0"/>
<stop offset="0.08667" stop-color="#E0E0E0" stop-opacity="0.17789"/>
<stop offset="0.22597" stop-color="#D1D1D1" stop-opacity="0.42721"/>
<stop offset="0.36713" stop-color="#C5C5C5" stop-opacity="0.63392"/>
<stop offset="0.5082" stop-color="#BBBBBB" stop-opacity="0.79434"/>
<stop offset="0.64929" stop-color="#B4B4B4" stop-opacity="0.90874"/>
<stop offset="0.79044" stop-color="#B0B0B0" stop-opacity="0.97723"/>
<stop offset="0.93199" stop-color="#AFAFAF"/>
</linearGradient>
<linearGradient id="paint10_linear_137_13" x1="250.706" y1="44.1504" x2="270.724" y2="52.8767" gradientUnits="userSpaceOnUse">
<stop stop-color="#EAEAEA" stop-opacity="0"/>
<stop offset="0.08667" stop-color="#E0E0E0" stop-opacity="0.17789"/>
<stop offset="0.22597" stop-color="#D1D1D1" stop-opacity="0.42721"/>
<stop offset="0.36713" stop-color="#C5C5C5" stop-opacity="0.63392"/>
<stop offset="0.5082" stop-color="#BBBBBB" stop-opacity="0.79434"/>
<stop offset="0.64929" stop-color="#B4B4B4" stop-opacity="0.90874"/>
<stop offset="0.79044" stop-color="#B0B0B0" stop-opacity="0.97723"/>
<stop offset="0.93199" stop-color="#AFAFAF"/>
</linearGradient>
<linearGradient id="paint11_linear_137_13" x1="269.157" y1="44.3455" x2="261.874" y2="55.032" gradientUnits="userSpaceOnUse">
<stop stop-color="#EAEAEA" stop-opacity="0"/>
<stop offset="0.08667" stop-color="#E0E0E0" stop-opacity="0.17789"/>
<stop offset="0.22597" stop-color="#D1D1D1" stop-opacity="0.42721"/>
<stop offset="0.36713" stop-color="#C5C5C5" stop-opacity="0.63392"/>
<stop offset="0.5082" stop-color="#BBBBBB" stop-opacity="0.79434"/>
<stop offset="0.64929" stop-color="#B4B4B4" stop-opacity="0.90874"/>
<stop offset="0.79044" stop-color="#B0B0B0" stop-opacity="0.97723"/>
<stop offset="0.93199" stop-color="#AFAFAF"/>
</linearGradient>
<linearGradient id="paint12_linear_137_13" x1="265.499" y1="29.3885" x2="253.9" y2="46.4076" gradientUnits="userSpaceOnUse">
<stop stop-color="#EAEAEA" stop-opacity="0"/>
<stop offset="0.08667" stop-color="#E0E0E0" stop-opacity="0.17789"/>
<stop offset="0.22597" stop-color="#D1D1D1" stop-opacity="0.42721"/>
<stop offset="0.36713" stop-color="#C5C5C5" stop-opacity="0.63392"/>
<stop offset="0.5082" stop-color="#BBBBBB" stop-opacity="0.79434"/>
<stop offset="0.64929" stop-color="#B4B4B4" stop-opacity="0.90874"/>
<stop offset="0.79044" stop-color="#B0B0B0" stop-opacity="0.97723"/>
<stop offset="0.93199" stop-color="#AFAFAF"/>
</linearGradient>
<linearGradient id="paint13_linear_137_13" x1="264.855" y1="46.9668" x2="255.845" y2="60.1869" gradientUnits="userSpaceOnUse">
<stop stop-color="#EAEAEA" stop-opacity="0"/>
<stop offset="0.08667" stop-color="#E0E0E0" stop-opacity="0.17789"/>
<stop offset="0.22597" stop-color="#D1D1D1" stop-opacity="0.42721"/>
<stop offset="0.36713" stop-color="#C5C5C5" stop-opacity="0.63392"/>
<stop offset="0.5082" stop-color="#BBBBBB" stop-opacity="0.79434"/>
<stop offset="0.64929" stop-color="#B4B4B4" stop-opacity="0.90874"/>
<stop offset="0.79044" stop-color="#B0B0B0" stop-opacity="0.97723"/>
<stop offset="0.93199" stop-color="#AFAFAF"/>
</linearGradient>
<linearGradient id="paint14_linear_137_13" x1="262.244" y1="38.0395" x2="251.427" y2="53.9108" gradientUnits="userSpaceOnUse">
<stop stop-color="#EAEAEA" stop-opacity="0"/>
<stop offset="0.08667" stop-color="#E0E0E0" stop-opacity="0.17789"/>
<stop offset="0.22597" stop-color="#D1D1D1" stop-opacity="0.42721"/>
<stop offset="0.36713" stop-color="#C5C5C5" stop-opacity="0.63392"/>
<stop offset="0.5082" stop-color="#BBBBBB" stop-opacity="0.79434"/>
<stop offset="0.64929" stop-color="#B4B4B4" stop-opacity="0.90874"/>
<stop offset="0.79044" stop-color="#B0B0B0" stop-opacity="0.97723"/>
<stop offset="0.93199" stop-color="#AFAFAF"/>
</linearGradient>
<linearGradient id="paint15_linear_137_13" x1="301.554" y1="65.8102" x2="296.816" y2="73.085" gradientUnits="userSpaceOnUse">
<stop stop-color="#EAEAEA" stop-opacity="0"/>
<stop offset="0.08667" stop-color="#E0E0E0" stop-opacity="0.17789"/>
<stop offset="0.22597" stop-color="#D1D1D1" stop-opacity="0.42721"/>
<stop offset="0.36713" stop-color="#C5C5C5" stop-opacity="0.63392"/>
<stop offset="0.5082" stop-color="#BBBBBB" stop-opacity="0.79434"/>
<stop offset="0.64929" stop-color="#B4B4B4" stop-opacity="0.90874"/>
<stop offset="0.79044" stop-color="#B0B0B0" stop-opacity="0.97723"/>
<stop offset="0.93199" stop-color="#AFAFAF"/>
</linearGradient>
<linearGradient id="paint16_linear_137_13" x1="303.492" y1="58.3581" x2="294.82" y2="62.5899" gradientUnits="userSpaceOnUse">
<stop stop-color="#EAEAEA" stop-opacity="0"/>
<stop offset="0.08667" stop-color="#E0E0E0" stop-opacity="0.17789"/>
<stop offset="0.22597" stop-color="#D1D1D1" stop-opacity="0.42721"/>
<stop offset="0.36713" stop-color="#C5C5C5" stop-opacity="0.63392"/>
<stop offset="0.5082" stop-color="#BBBBBB" stop-opacity="0.79434"/>
<stop offset="0.64929" stop-color="#B4B4B4" stop-opacity="0.90874"/>
<stop offset="0.79044" stop-color="#B0B0B0" stop-opacity="0.97723"/>
<stop offset="0.93199" stop-color="#AFAFAF"/>
</linearGradient>
<linearGradient id="paint17_linear_137_13" x1="300.687" y1="67.6573" x2="293" y2="71.4084" gradientUnits="userSpaceOnUse">
<stop stop-color="#EAEAEA" stop-opacity="0"/>
<stop offset="0.08667" stop-color="#E0E0E0" stop-opacity="0.17789"/>
<stop offset="0.22597" stop-color="#D1D1D1" stop-opacity="0.42721"/>
<stop offset="0.36713" stop-color="#C5C5C5" stop-opacity="0.63392"/>
<stop offset="0.5082" stop-color="#BBBBBB" stop-opacity="0.79434"/>
<stop offset="0.64929" stop-color="#B4B4B4" stop-opacity="0.90874"/>
<stop offset="0.79044" stop-color="#B0B0B0" stop-opacity="0.97723"/>
<stop offset="0.93199" stop-color="#AFAFAF"/>
</linearGradient>
<linearGradient id="paint18_linear_137_13" x1="300.735" y1="60.5514" x2="291.507" y2="65.0547" gradientUnits="userSpaceOnUse">
<stop stop-color="#EAEAEA" stop-opacity="0"/>
<stop offset="0.08667" stop-color="#E0E0E0" stop-opacity="0.17789"/>
<stop offset="0.22597" stop-color="#D1D1D1" stop-opacity="0.42721"/>
<stop offset="0.36713" stop-color="#C5C5C5" stop-opacity="0.63392"/>
<stop offset="0.5082" stop-color="#BBBBBB" stop-opacity="0.79434"/>
<stop offset="0.64929" stop-color="#B4B4B4" stop-opacity="0.90874"/>
<stop offset="0.79044" stop-color="#B0B0B0" stop-opacity="0.97723"/>
<stop offset="0.93199" stop-color="#AFAFAF"/>
</linearGradient>
<linearGradient id="paint19_linear_137_13" x1="279.381" y1="33.9474" x2="281.01" y2="53.2663" gradientUnits="userSpaceOnUse">
<stop stop-color="#EAEAEA" stop-opacity="0"/>
<stop offset="0.08667" stop-color="#E0E0E0" stop-opacity="0.17789"/>
<stop offset="0.22597" stop-color="#D1D1D1" stop-opacity="0.42721"/>
<stop offset="0.36713" stop-color="#C5C5C5" stop-opacity="0.63392"/>
<stop offset="0.5082" stop-color="#BBBBBB" stop-opacity="0.79434"/>
<stop offset="0.64929" stop-color="#B4B4B4" stop-opacity="0.90874"/>
<stop offset="0.79044" stop-color="#B0B0B0" stop-opacity="0.97723"/>
<stop offset="0.93199" stop-color="#AFAFAF"/>
</linearGradient>
<linearGradient id="paint20_linear_137_13" x1="279.939" y1="44.3422" x2="280.988" y2="56.7897" gradientUnits="userSpaceOnUse">
<stop stop-color="#EAEAEA" stop-opacity="0"/>
<stop offset="0.08667" stop-color="#E0E0E0" stop-opacity="0.17789"/>
<stop offset="0.22597" stop-color="#D1D1D1" stop-opacity="0.42721"/>
<stop offset="0.36713" stop-color="#C5C5C5" stop-opacity="0.63392"/>
<stop offset="0.5082" stop-color="#BBBBBB" stop-opacity="0.79434"/>
<stop offset="0.64929" stop-color="#B4B4B4" stop-opacity="0.90874"/>
<stop offset="0.79044" stop-color="#B0B0B0" stop-opacity="0.97723"/>
<stop offset="0.93199" stop-color="#AFAFAF"/>
</linearGradient>
<linearGradient id="paint21_linear_137_13" x1="282.731" y1="40.5343" x2="283.635" y2="51.2582" gradientUnits="userSpaceOnUse">
<stop stop-color="#EAEAEA" stop-opacity="0"/>
<stop offset="0.08667" stop-color="#E0E0E0" stop-opacity="0.17789"/>
<stop offset="0.22597" stop-color="#D1D1D1" stop-opacity="0.42721"/>
<stop offset="0.36713" stop-color="#C5C5C5" stop-opacity="0.63392"/>
<stop offset="0.5082" stop-color="#BBBBBB" stop-opacity="0.79434"/>
<stop offset="0.64929" stop-color="#B4B4B4" stop-opacity="0.90874"/>
<stop offset="0.79044" stop-color="#B0B0B0" stop-opacity="0.97723"/>
<stop offset="0.93199" stop-color="#AFAFAF"/>
</linearGradient>
<linearGradient id="paint22_linear_137_13" x1="287.513" y1="54.2351" x2="295.041" y2="57.5166" gradientUnits="userSpaceOnUse">
<stop stop-color="#EAEAEA" stop-opacity="0"/>
<stop offset="0.08667" stop-color="#E0E0E0" stop-opacity="0.17789"/>
<stop offset="0.22597" stop-color="#D1D1D1" stop-opacity="0.42721"/>
<stop offset="0.36713" stop-color="#C5C5C5" stop-opacity="0.63392"/>
<stop offset="0.5082" stop-color="#BBBBBB" stop-opacity="0.79434"/>
<stop offset="0.64929" stop-color="#B4B4B4" stop-opacity="0.90874"/>
<stop offset="0.79044" stop-color="#B0B0B0" stop-opacity="0.97723"/>
<stop offset="0.93199" stop-color="#AFAFAF"/>
</linearGradient>
<linearGradient id="paint23_linear_137_13" x1="282.163" y1="55.4472" x2="294.093" y2="54.4782" gradientUnits="userSpaceOnUse">
<stop stop-color="#EAEAEA" stop-opacity="0"/>
<stop offset="0.08667" stop-color="#E0E0E0" stop-opacity="0.17789"/>
<stop offset="0.22597" stop-color="#D1D1D1" stop-opacity="0.42721"/>
<stop offset="0.36713" stop-color="#C5C5C5" stop-opacity="0.63392"/>
<stop offset="0.5082" stop-color="#BBBBBB" stop-opacity="0.79434"/>
<stop offset="0.64929" stop-color="#B4B4B4" stop-opacity="0.90874"/>
<stop offset="0.79044" stop-color="#B0B0B0" stop-opacity="0.97723"/>
<stop offset="0.93199" stop-color="#AFAFAF"/>
</linearGradient>
<linearGradient id="paint24_linear_137_13" x1="246.137" y1="30.6588" x2="250.115" y2="19.1645" gradientUnits="userSpaceOnUse">
<stop stop-color="#EAEAEA" stop-opacity="0"/>
<stop offset="0.08667" stop-color="#E0E0E0" stop-opacity="0.17789"/>
<stop offset="0.22597" stop-color="#D1D1D1" stop-opacity="0.42721"/>
<stop offset="0.36713" stop-color="#C5C5C5" stop-opacity="0.63392"/>
<stop offset="0.5082" stop-color="#BBBBBB" stop-opacity="0.79434"/>
<stop offset="0.64929" stop-color="#B4B4B4" stop-opacity="0.90874"/>
<stop offset="0.79044" stop-color="#B0B0B0" stop-opacity="0.97723"/>
<stop offset="0.93199" stop-color="#AFAFAF"/>
</linearGradient>
<linearGradient id="paint25_linear_137_13" x1="253.126" y1="40.4257" x2="240.684" y2="30.2743" gradientUnits="userSpaceOnUse">
<stop stop-color="#EAEAEA" stop-opacity="0"/>
<stop offset="0.08667" stop-color="#E0E0E0" stop-opacity="0.17789"/>
<stop offset="0.22597" stop-color="#D1D1D1" stop-opacity="0.42721"/>
<stop offset="0.36713" stop-color="#C5C5C5" stop-opacity="0.63392"/>
<stop offset="0.5082" stop-color="#BBBBBB" stop-opacity="0.79434"/>
<stop offset="0.64929" stop-color="#B4B4B4" stop-opacity="0.90874"/>
<stop offset="0.79044" stop-color="#B0B0B0" stop-opacity="0.97723"/>
<stop offset="0.93199" stop-color="#AFAFAF"/>
</linearGradient>
<linearGradient id="paint26_linear_137_13" x1="298.798" y1="45.1987" x2="300.322" y2="51.4819" gradientUnits="userSpaceOnUse">
<stop stop-color="#EAEAEA" stop-opacity="0"/>
<stop offset="0.08667" stop-color="#E0E0E0" stop-opacity="0.17789"/>
<stop offset="0.22597" stop-color="#D1D1D1" stop-opacity="0.42721"/>
<stop offset="0.36713" stop-color="#C5C5C5" stop-opacity="0.63392"/>
<stop offset="0.5082" stop-color="#BBBBBB" stop-opacity="0.79434"/>
<stop offset="0.64929" stop-color="#B4B4B4" stop-opacity="0.90874"/>
<stop offset="0.79044" stop-color="#B0B0B0" stop-opacity="0.97723"/>
<stop offset="0.93199" stop-color="#AFAFAF"/>
</linearGradient>
<linearGradient id="paint27_linear_137_13" x1="298.254" y1="38.7166" x2="308.586" y2="43.0534" gradientUnits="userSpaceOnUse">
<stop stop-color="#EAEAEA" stop-opacity="0"/>
<stop offset="0.08667" stop-color="#E0E0E0" stop-opacity="0.17789"/>
<stop offset="0.22597" stop-color="#D1D1D1" stop-opacity="0.42721"/>
<stop offset="0.36713" stop-color="#C5C5C5" stop-opacity="0.63392"/>
<stop offset="0.5082" stop-color="#BBBBBB" stop-opacity="0.79434"/>
<stop offset="0.64929" stop-color="#B4B4B4" stop-opacity="0.90874"/>
<stop offset="0.79044" stop-color="#B0B0B0" stop-opacity="0.97723"/>
<stop offset="0.93199" stop-color="#AFAFAF"/>
</linearGradient>
<linearGradient id="paint28_linear_137_13" x1="291.289" y1="74.873" x2="286.22" y2="74.1053" gradientUnits="userSpaceOnUse">
<stop stop-color="#EAEAEA" stop-opacity="0"/>
<stop offset="0.08667" stop-color="#E0E0E0" stop-opacity="0.17789"/>
<stop offset="0.22597" stop-color="#D1D1D1" stop-opacity="0.42721"/>
<stop offset="0.36713" stop-color="#C5C5C5" stop-opacity="0.63392"/>
<stop offset="0.5082" stop-color="#BBBBBB" stop-opacity="0.79434"/>
<stop offset="0.64929" stop-color="#B4B4B4" stop-opacity="0.90874"/>
<stop offset="0.79044" stop-color="#B0B0B0" stop-opacity="0.97723"/>
<stop offset="0.93199" stop-color="#AFAFAF"/>
</linearGradient>
<linearGradient id="paint29_linear_137_13" x1="295.909" y1="67.1281" x2="295.601" y2="80.088" gradientUnits="userSpaceOnUse">
<stop stop-color="#EAEAEA" stop-opacity="0"/>
<stop offset="0.08667" stop-color="#E0E0E0" stop-opacity="0.17789"/>
<stop offset="0.22597" stop-color="#D1D1D1" stop-opacity="0.42721"/>
<stop offset="0.36713" stop-color="#C5C5C5" stop-opacity="0.63392"/>
<stop offset="0.5082" stop-color="#BBBBBB" stop-opacity="0.79434"/>
<stop offset="0.64929" stop-color="#B4B4B4" stop-opacity="0.90874"/>
<stop offset="0.79044" stop-color="#B0B0B0" stop-opacity="0.97723"/>
<stop offset="0.93199" stop-color="#AFAFAF"/>
</linearGradient>
<linearGradient id="paint30_linear_137_13" x1="277.997" y1="67.6996" x2="280.232" y2="59.304" gradientUnits="userSpaceOnUse">
<stop stop-color="#EAEAEA" stop-opacity="0"/>
<stop offset="0.08667" stop-color="#E0E0E0" stop-opacity="0.17789"/>
<stop offset="0.22597" stop-color="#D1D1D1" stop-opacity="0.42721"/>
<stop offset="0.36713" stop-color="#C5C5C5" stop-opacity="0.63392"/>
<stop offset="0.5082" stop-color="#BBBBBB" stop-opacity="0.79434"/>
<stop offset="0.64929" stop-color="#B4B4B4" stop-opacity="0.90874"/>
<stop offset="0.79044" stop-color="#B0B0B0" stop-opacity="0.97723"/>
<stop offset="0.93199" stop-color="#AFAFAF"/>
</linearGradient>
<linearGradient id="paint31_linear_137_13" x1="278.259" y1="72.6166" x2="269.418" y2="66.0318" gradientUnits="userSpaceOnUse">
<stop stop-color="#EAEAEA" stop-opacity="0"/>
<stop offset="0.08667" stop-color="#E0E0E0" stop-opacity="0.17789"/>
<stop offset="0.22597" stop-color="#D1D1D1" stop-opacity="0.42721"/>
<stop offset="0.36713" stop-color="#C5C5C5" stop-opacity="0.63392"/>
<stop offset="0.5082" stop-color="#BBBBBB" stop-opacity="0.79434"/>
<stop offset="0.64929" stop-color="#B4B4B4" stop-opacity="0.90874"/>
<stop offset="0.79044" stop-color="#B0B0B0" stop-opacity="0.97723"/>
<stop offset="0.93199" stop-color="#AFAFAF"/>
</linearGradient>
<linearGradient id="paint32_linear_137_13" x1="227.342" y1="94.9178" x2="272.032" y2="99.6903" gradientUnits="userSpaceOnUse">
<stop offset="0.12083" stop-color="#DABAFF"/>
<stop offset="0.4553" stop-color="#DBBCFF"/>
<stop offset="0.64125" stop-color="#DFC4FD"/>
<stop offset="0.79072" stop-color="#E5D2FB"/>
<stop offset="0.92004" stop-color="#EEE6F8"/>
<stop offset="1" stop-color="#F6F6F6"/>
</linearGradient>
</defs>
</svg>
