<svg width="345" height="412" viewBox="0 0 345 412" fill="none" xmlns="http://www.w3.org/2000/svg">
<path d="M255.077 16.9305H54.1675V295.971H255.077V16.9305Z" fill="#F6F6F6"/>
<path d="M66.7402 255.355L228.479 161.959L390.227 255.35L228.479 349.747L66.7402 255.355Z" fill="#F6F6F6" stroke="#575D68" stroke-width="0.5" stroke-miterlimit="10"/>
<path d="M79.3916 254.898L228.008 169.079L376.633 254.893L228.008 341.631L79.3916 254.898Z" fill="#F6F6F6" stroke="#575D68" stroke-width="0.5" stroke-miterlimit="10"/>
<path d="M189.077 115.744L391.888 232.797L424.229 214.138V17.6162L222.195 -99L187.682 -80.9996L189.077 115.744Z" fill="#F6F6F6" stroke="#575D68" stroke-width="0.5" stroke-miterlimit="10"/>
<path d="M187.682 -80.9996L392.705 36.7751L417.377 22.5407" fill="#F6F6F6"/>
<path d="M187.682 -80.9996L392.705 36.7751L417.377 22.5407" stroke="#575D68" stroke-width="0.5" stroke-miterlimit="10"/>
<path d="M195.017 -68.5934V109.301L381.749 215.644V39.7648L195.017 -68.5934Z" fill="#F6F6F6" stroke="#575D68" stroke-width="0.5" stroke-miterlimit="10"/>
<path d="M294.393 -4.50507V159.599L375.336 205.916V42.1935L294.393 -4.50507Z" fill="#F6F6F6" stroke="#575D68" stroke-width="0.5" stroke-miterlimit="10"/>
<path d="M201.959 -56.8297V107.274L282.903 153.592V-10.1317L201.959 -56.8297Z" fill="#F6F6F6" stroke="#575D68" stroke-width="0.5" stroke-miterlimit="10"/>
<path d="M323.238 22.1799L301.07 35.2797" stroke="#575D68" stroke-width="0.5" stroke-miterlimit="10"/>
<path d="M314.356 42.0006L306.464 47.0997" stroke="#575D68" stroke-width="0.5" stroke-miterlimit="10"/>
<path d="M332.002 21.2178L294.901 42.6869" stroke="#575D68" stroke-width="0.5" stroke-miterlimit="10"/>
<path d="M369.518 46.5695L301.07 85.6065" stroke="#575D68" stroke-width="0.5" stroke-miterlimit="10"/>
<path d="M363.773 45.3559L321.577 69.6803" stroke="#575D68" stroke-width="0.5" stroke-miterlimit="10"/>
<path d="M369.518 103.166L301.07 142.203" stroke="#575D68" stroke-width="0.5" stroke-miterlimit="10"/>
<path d="M342.419 115.09L300.224 139.414" stroke="#575D68" stroke-width="0.5" stroke-miterlimit="10"/>
<path d="M338.105 135.876L298.033 159.01" stroke="#575D68" stroke-width="0.5" stroke-miterlimit="10"/>
<path d="M372.499 135.876L332.427 159.01" stroke="#575D68" stroke-width="0.5" stroke-miterlimit="10"/>
<path d="M362.711 147.247L322.639 170.382" stroke="#575D68" stroke-width="0.5" stroke-miterlimit="10"/>
<path d="M374.3 156.451L335.695 178.738" stroke="#575D68" stroke-width="0.5" stroke-miterlimit="10"/>
<path d="M337.81 69.5275L297.737 92.662" stroke="#575D68" stroke-width="0.5" stroke-miterlimit="10"/>
<path d="M373.069 103.348L330.873 127.672" stroke="#575D68" stroke-width="0.5" stroke-miterlimit="10"/>
<path d="M270.675 0.592987L262.543 6.28998" stroke="#575D68" stroke-width="0.5" stroke-miterlimit="10"/>
<path d="M276.869 -9.09561L208.181 30.5393" stroke="#575D68" stroke-width="0.5" stroke-miterlimit="10"/>
<path d="M271.124 -10.3091L228.688 14.6132" stroke="#575D68" stroke-width="0.5" stroke-miterlimit="10"/>
<path d="M276.869 47.5011L208.181 87.136" stroke="#575D68" stroke-width="0.5" stroke-miterlimit="10"/>
<path d="M249.77 59.4246L207.334 84.3469" stroke="#575D68" stroke-width="0.5" stroke-miterlimit="10"/>
<path d="M255.215 82.3395L215.685 105.083" stroke="#575D68" stroke-width="0.5" stroke-miterlimit="10"/>
<path d="M279.851 80.2107L239.539 103.943" stroke="#575D68" stroke-width="0.5" stroke-miterlimit="10"/>
<path d="M270.061 91.5823L229.749 115.315" stroke="#575D68" stroke-width="0.5" stroke-miterlimit="10"/>
<path d="M283.119 99.9383L242.807 123.671" stroke="#575D68" stroke-width="0.5" stroke-miterlimit="10"/>
<path d="M282.23 133.362L269.626 140.669" stroke="#575D68" stroke-width="0.5" stroke-miterlimit="10"/>
<path d="M245.16 13.8624L204.848 37.5948" stroke="#575D68" stroke-width="0.5" stroke-miterlimit="10"/>
<path d="M279.417 49.5304L236.981 74.4527" stroke="#575D68" stroke-width="0.5" stroke-miterlimit="10"/>
<path d="M194.704 148.668C194.704 153.832 185.543 158.018 174.243 158.018C162.942 158.018 153.782 153.832 153.782 148.668V118.882H174.243C182.518 118.882 195.016 118.415 195.016 118.415C195.016 118.415 194.704 147.285 194.704 148.668Z" fill="#F6F6F6" stroke="#575D68" stroke-width="0.5" stroke-miterlimit="10"/>
<path d="M174.399 128.5C185.786 128.5 195.016 124.314 195.016 119.15C195.016 113.986 185.786 109.799 174.399 109.799C163.012 109.799 153.782 113.986 153.782 119.15C153.782 124.314 163.012 128.5 174.399 128.5Z" fill="#F6F6F6" stroke="#575D68" stroke-width="0.5" stroke-miterlimit="10"/>
<path d="M195.016 132.609C195.016 137.773 185.786 141.959 174.399 141.959C163.012 141.959 153.782 137.773 153.782 132.609" fill="#F6F6F6"/>
<path d="M195.016 132.609C195.016 137.773 185.786 141.959 174.399 141.959C163.012 141.959 153.782 137.773 153.782 132.609" stroke="#575D68" stroke-width="0.5" stroke-miterlimit="10"/>
<path d="M195.016 135.31C195.016 140.019 185.786 143.836 174.399 143.836C163.012 143.836 153.782 140.019 153.782 135.31" stroke="#575D68" stroke-width="0.5" stroke-miterlimit="10"/>
<path d="M10.144 65.6659V169.753L14.9826 172.394L101.499 117.048L105.639 14.8224L101.499 13.0745L10.144 65.6659Z" fill="#F6F6F6" stroke="#575D68" stroke-width="0.5" stroke-miterlimit="10"/>
<path d="M14.2842 67.5276L14.9829 172.394L105.639 120.232V14.8224L14.2842 67.5276Z" fill="#F6F6F6" stroke="#575D68" stroke-width="0.5" stroke-miterlimit="10"/>
<path d="M28.3486 73.1403V149.752L94.7458 111.446V34.8341L28.3486 73.1403Z" fill="#F6F6F6" stroke="#575D68" stroke-width="0.5" stroke-miterlimit="10"/>
<path d="M21.3673 79.3556C24.6306 79.3556 27.2761 76.7101 27.2761 73.4468C27.2761 70.1834 24.6306 67.538 21.3673 67.538C18.104 67.538 15.4585 70.1834 15.4585 73.4468C15.4585 76.7101 18.104 79.3556 21.3673 79.3556Z" fill="#F6F6F6" stroke="#575D68" stroke-width="0.5" stroke-miterlimit="10"/>
<path d="M21.3673 106.76C24.6306 106.76 27.2761 104.115 27.2761 100.851C27.2761 97.5881 24.6306 94.9426 21.3673 94.9426C18.104 94.9426 15.4585 97.5881 15.4585 100.851C15.4585 104.115 18.104 106.76 21.3673 106.76Z" fill="#F6F6F6" stroke="#575D68" stroke-width="0.5" stroke-miterlimit="10"/>
<path d="M21.3673 134.165C24.6306 134.165 27.2761 131.519 27.2761 128.256C27.2761 124.993 24.6306 122.347 21.3673 122.347C18.104 122.347 15.4585 124.993 15.4585 128.256C15.4585 131.519 18.104 134.165 21.3673 134.165Z" fill="#F6F6F6" stroke="#575D68" stroke-width="0.5" stroke-miterlimit="10"/>
<path d="M21.3673 166.123C24.6306 166.123 27.2761 163.477 27.2761 160.214C27.2761 156.95 24.6306 154.305 21.3673 154.305C18.104 154.305 15.4585 156.95 15.4585 160.214C15.4585 163.477 18.104 166.123 21.3673 166.123Z" fill="#F6F6F6" stroke="#575D68" stroke-width="0.5" stroke-miterlimit="10"/>
<path d="M101.243 33.0131C104.507 33.0131 107.152 30.3676 107.152 27.1043C107.152 23.8409 104.507 21.1955 101.243 21.1955C97.9799 21.1955 95.3345 23.8409 95.3345 27.1043C95.3345 30.3676 97.9799 33.0131 101.243 33.0131Z" fill="#F6F6F6" stroke="#575D68" stroke-width="0.5" stroke-miterlimit="10"/>
<path d="M101.243 62.4305C104.507 62.4305 107.152 59.7851 107.152 56.5217C107.152 53.2584 104.507 50.6129 101.243 50.6129C97.9799 50.6129 95.3345 53.2584 95.3345 56.5217C95.3345 59.7851 97.9799 62.4305 101.243 62.4305Z" fill="#F6F6F6" stroke="#575D68" stroke-width="0.5" stroke-miterlimit="10"/>
<path d="M101.243 91.848C104.507 91.848 107.152 89.2025 107.152 85.9392C107.152 82.6758 104.507 80.0304 101.243 80.0304C97.9799 80.0304 95.3345 82.6758 95.3345 85.9392C95.3345 89.2025 97.9799 91.848 101.243 91.848Z" fill="#F6F6F6" stroke="#575D68" stroke-width="0.5" stroke-miterlimit="10"/>
<path d="M77.4469 44.1084C80.7102 44.1084 83.3557 41.463 83.3557 38.1996C83.3557 34.9363 80.7102 32.2909 77.4469 32.2909C74.1835 32.2909 71.5381 34.9363 71.5381 38.1996C71.5381 41.463 74.1835 44.1084 77.4469 44.1084Z" fill="#F6F6F6" stroke="#575D68" stroke-width="0.5" stroke-miterlimit="10"/>
<path d="M47.9171 60.4412C51.1804 60.4412 53.8259 57.7958 53.8259 54.5324C53.8259 51.2691 51.1804 48.6236 47.9171 48.6236C44.6538 48.6236 42.0083 51.2691 42.0083 54.5324C42.0083 57.7958 44.6538 60.4412 47.9171 60.4412Z" fill="#F6F6F6" stroke="#575D68" stroke-width="0.5" stroke-miterlimit="10"/>
<path d="M79.5098 133.365C82.7732 133.365 85.4186 130.72 85.4186 127.456C85.4186 124.193 82.7732 121.548 79.5098 121.548C76.2465 121.548 73.6011 124.193 73.6011 127.456C73.6011 130.72 76.2465 133.365 79.5098 133.365Z" fill="#F6F6F6" stroke="#575D68" stroke-width="0.5" stroke-miterlimit="10"/>
<path d="M51.4888 149.751C54.7522 149.751 57.3976 147.105 57.3976 143.842C57.3976 140.579 54.7522 137.933 51.4888 137.933C48.2255 137.933 45.5801 140.579 45.5801 143.842C45.5801 147.105 48.2255 149.751 51.4888 149.751Z" fill="#F6F6F6" stroke="#575D68" stroke-width="0.5" stroke-miterlimit="10"/>
<path d="M101.243 121.265C104.507 121.265 107.152 118.62 107.152 115.357C107.152 112.093 104.507 109.448 101.243 109.448C97.9799 109.448 95.3345 112.093 95.3345 115.357C95.3345 118.62 97.9799 121.265 101.243 121.265Z" fill="#F6F6F6" stroke="#575D68" stroke-width="0.5" stroke-miterlimit="10"/>
<path d="M14.2846 67.5275L10.1445 65.666" stroke="#575D68" stroke-width="0.5" stroke-miterlimit="10"/>
<path d="M-0.613281 214.709L-0.417949 192.203L25.217 177.527L40.6982 185.656L101.445 150.459V132.215L127.549 117.747L154.623 133.366V160.076L28.7652 232.623L-0.613281 214.709Z" fill="#F6F6F6" stroke="#575D68" stroke-width="0.5" stroke-miterlimit="10"/>
<path d="M101.445 132.215L129.21 148.345L154.623 133.366" fill="#F6F6F6"/>
<path d="M101.445 132.215L129.21 148.345L154.623 133.366" stroke="#575D68" stroke-width="0.5" stroke-miterlimit="10"/>
<path d="M-0.417969 192.203L28.7652 209.08L55.5783 193.656L37.3697 183.908" fill="#F6F6F6"/>
<path d="M-0.417969 192.203L28.7652 209.08L55.5783 193.656L37.3697 183.908" stroke="#575D68" stroke-width="0.5" stroke-miterlimit="10"/>
<path d="M28.7656 232.623V209.079" stroke="#575D68" stroke-width="0.5" stroke-miterlimit="10"/>
<path d="M55.5776 193.656V209.813L129.209 166.939V148.345" fill="#F6F6F6"/>
<path d="M55.5776 193.656V209.813L129.209 166.939V148.345" stroke="#575D68" stroke-width="0.5" stroke-miterlimit="10"/>
<path d="M101.445 150.458L129.21 166.939" stroke="#575D68" stroke-width="0.5" stroke-miterlimit="10"/>
<path d="M130.875 148.931V159.694L153.446 146.734V135.914L130.875 148.931Z" fill="#F6F6F6" stroke="#575D68" stroke-width="0.5" stroke-miterlimit="10"/>
<path d="M30.8545 209.497V220.259L53.4261 207.299V196.48L30.8545 209.497Z" fill="#F6F6F6" stroke="#575D68" stroke-width="0.5" stroke-miterlimit="10"/>
<path d="M189.554 165.683L188.09 165.046C187.833 164.934 187.534 165.052 187.422 165.308L164.974 216.882C164.862 217.139 164.979 217.438 165.236 217.55L166.7 218.187C166.957 218.299 167.256 218.181 167.368 217.924L189.816 166.351C189.928 166.094 189.81 165.795 189.554 165.683Z" fill="#F6F6F6" stroke="#575D68" stroke-width="0.5" stroke-miterlimit="10"/>
<path d="M190.921 164.787L189.442 165.388C189.182 165.493 189.057 165.789 189.162 166.048L210.317 218.166C210.422 218.426 210.718 218.551 210.978 218.445L212.457 217.845C212.717 217.74 212.842 217.444 212.736 217.184L191.582 165.066C191.477 164.807 191.181 164.682 190.921 164.787Z" fill="#F6F6F6" stroke="#575D68" stroke-width="0.5" stroke-miterlimit="10"/>
<path d="M189.879 171.276H188.283C188.002 171.276 187.775 171.503 187.775 171.783V228.031C187.775 228.311 188.002 228.538 188.283 228.538H189.879C190.159 228.538 190.387 228.311 190.387 228.031V171.783C190.387 171.503 190.159 171.276 189.879 171.276Z" fill="#F6F6F6" stroke="#575D68" stroke-width="0.5" stroke-miterlimit="10"/>
<path d="M196.96 170.048C196.96 172.68 193.432 174.813 189.081 174.813C184.73 174.813 181.203 172.68 181.203 170.048V167.799C181.203 167.799 185.818 165.283 189.081 165.283C192.062 165.283 196.96 167.309 196.96 167.309V170.048Z" fill="#F6F6F6" stroke="#575D68" stroke-width="0.5" stroke-miterlimit="10"/>
<path d="M189.081 172.564C193.432 172.564 196.96 170.431 196.96 167.799C196.96 165.167 193.432 163.034 189.081 163.034C184.73 163.034 181.203 165.167 181.203 167.799C181.203 170.431 184.73 172.564 189.081 172.564Z" fill="#F6F6F6" stroke="#575D68" stroke-width="0.5" stroke-miterlimit="10"/>
<path d="M189.628 79.7303H188.536C188.055 79.7303 187.666 80.1197 187.666 80.6001V166.929C187.666 167.41 188.055 167.799 188.536 167.799H189.628C190.108 167.799 190.498 167.41 190.498 166.929V80.6001C190.498 80.1197 190.108 79.7303 189.628 79.7303Z" fill="#F6F6F6" stroke="#575D68" stroke-width="0.5" stroke-miterlimit="10"/>
<path d="M180.715 62.8486L202.893 75.9322C203.251 76.1215 203.55 76.4049 203.759 76.7517C203.968 77.0985 204.078 77.4957 204.078 77.9006V87.9423C204.068 88.7346 203.788 89.4997 203.287 90.1127C202.785 90.7257 202.09 91.1504 201.315 91.3172L178.665 77.3129C178.298 77.1267 177.99 76.8426 177.775 76.4922C177.56 76.1417 177.446 75.7386 177.446 75.3274L176.42 65.4347C176.42 63.7567 179.232 62.0637 180.715 62.8486Z" fill="#F6F6F6" stroke="#575D68" stroke-width="0.5" stroke-miterlimit="10"/>
<path d="M179.689 64.049L201.867 77.1326C202.225 77.322 202.525 77.6053 202.733 77.9521C202.942 78.299 203.053 78.6961 203.053 79.101V89.1428C203.053 89.5236 202.955 89.8981 202.769 90.2304C202.583 90.5627 202.315 90.8418 201.99 91.0409C201.666 91.2401 201.296 91.3527 200.915 91.368C200.535 91.3833 200.157 91.3008 199.817 91.1283L177.639 78.5134C177.272 78.3271 176.964 78.0431 176.749 77.6926C176.534 77.3422 176.42 76.939 176.42 76.5278V66.0174C176.42 65.6334 176.52 65.256 176.709 64.9217C176.897 64.5875 177.17 64.3077 177.499 64.1096C177.827 63.9115 178.202 63.8019 178.586 63.7912C178.97 63.7806 179.35 63.8694 179.689 64.049Z" fill="#F6F6F6" stroke="#575D68" stroke-width="0.5" stroke-miterlimit="10"/>
<path d="M185.265 66.345L196.38 72.9506C196.38 72.9506 196.609 72.8664 196.682 72.8299C197.215 72.5617 197.126 71.4418 195.532 70.4818C193.526 69.2744 188.363 66.3076 188.363 66.3076C187.891 66.0331 187.354 65.8916 186.809 65.8982C186.263 65.9047 185.73 66.0592 185.265 66.345Z" fill="#F6F6F6" stroke="#575D68" stroke-width="0.5" stroke-miterlimit="10"/>
<path d="M194.566 65.343C194.587 64.9173 194.491 64.494 194.287 64.1195C194.084 63.745 193.781 63.4339 193.412 63.2203C193.043 63.0067 192.623 62.8988 192.197 62.9086C191.77 62.9184 191.355 63.0454 190.997 63.2757C190.638 63.506 190.35 63.8307 190.164 64.2141C189.977 64.5975 189.901 65.0248 189.941 65.449C189.982 65.8733 190.139 66.2781 190.395 66.619C190.651 66.9599 190.995 67.2237 191.391 67.3814L191.331 68.6933C191.328 68.7764 191.34 68.8593 191.368 68.9375C191.396 69.0157 191.44 69.0876 191.496 69.149C191.552 69.2104 191.619 69.2602 191.695 69.2955C191.77 69.3308 191.851 69.3509 191.934 69.3547C192.017 69.3585 192.1 69.3459 192.178 69.3177C192.257 69.2894 192.328 69.246 192.39 69.1899C192.451 69.1338 192.501 69.0662 192.536 68.9909C192.571 68.9157 192.591 68.8342 192.595 68.7511L192.651 67.5177C193.17 67.4267 193.642 67.1617 193.99 66.7664C194.338 66.3711 194.541 65.8691 194.566 65.343Z" fill="#F6F6F6" stroke="#575D68" stroke-width="0.5" stroke-miterlimit="10"/>
<path d="M179.93 65.1388L200.982 77.6746C201.293 77.8391 201.553 78.0852 201.735 78.3865C201.916 78.6878 202.012 79.0329 202.012 79.3846V88.1253C202.012 89.5689 200.424 90.0642 199.137 89.4104L178.149 77.7041C177.831 77.5423 177.563 77.2955 177.377 76.9911C177.19 76.6867 177.091 76.3365 177.091 75.9793V66.8487C177.091 66.5152 177.177 66.1873 177.341 65.8969C177.505 65.6065 177.742 65.3635 178.027 65.1914C178.313 65.0193 178.639 64.9241 178.972 64.9148C179.305 64.9056 179.636 64.9827 179.93 65.1388Z" fill="#AFAFAF"/>
<path d="M183.177 75.7556C183.318 76.2631 183.408 76.7831 183.447 77.3082C183.465 77.5713 183.427 77.8353 183.337 78.083C183.246 78.3308 183.105 78.5568 182.921 78.7464C182.449 79.0603 181.928 79.2962 181.381 79.4451L195.303 87.2104C195.595 85.368 195.168 83.4839 194.109 81.9477C193.587 81.2041 192.886 80.4468 192.972 79.5423C193.121 78.9084 193.421 78.32 193.847 77.8268C194.327 77.0996 194.643 76.2758 194.771 75.4135C194.837 74.9211 194.848 74.4231 194.806 73.9282L184.766 67.9496C183.043 70.0568 182.588 73.0694 183.177 75.7556Z" fill="#F6F6F6"/>
<path d="M180.686 68.9207C180.855 69.5807 181.181 70.2817 180.922 70.9094C180.659 71.5459 179.928 71.7819 179.37 72.163C179.073 72.3569 178.823 72.6144 178.637 72.9169C178.452 73.2194 178.336 73.5593 178.298 73.9121C178.265 74.2652 178.346 74.6196 178.528 74.9236C178.711 75.2277 178.986 75.4655 179.313 75.6026C179.686 75.6861 180.068 75.7193 180.449 75.7014C180.5 75.698 180.551 75.7056 180.599 75.7236C180.647 75.7417 180.69 75.7698 180.726 75.806C180.774 75.8879 180.79 75.9848 180.771 76.0778C180.715 76.6354 180.503 77.166 180.158 77.6082C180.01 77.7471 179.919 77.9361 179.903 78.1384C179.922 78.2557 179.974 78.3652 180.053 78.454C180.787 79.4046 182.103 79.6554 183.269 79.5013C183.683 79.4667 184.082 79.3292 184.43 79.1013C184.88 78.713 185.196 78.1922 185.333 77.6135C185.742 76.4437 185.783 75.1768 185.45 73.983C185.19 73.1712 184.689 72.356 184.895 71.5277C185.075 71.0378 185.351 70.5887 185.706 70.2065C185.883 70.0127 186.014 69.7824 186.092 69.5319C186.169 69.2815 186.19 69.0171 186.154 68.7575C186.068 68.4917 185.918 68.251 185.718 68.0562C185.152 67.4842 184.529 66.9711 183.859 66.5247C183.376 66.1757 182.727 65.5044 182.09 65.5363C180.651 65.6086 180.43 67.8617 180.686 68.9207Z" fill="#CECECE"/>
<path d="M192.088 72.0374C191.768 72.2259 191.508 72.4998 191.336 72.8283C191.164 73.1568 191.088 73.5267 191.115 73.8965C191.17 74.5955 191.588 75.2569 191.482 75.9494C191.384 76.3362 191.229 76.7063 191.021 77.0471C190.811 77.4325 190.694 77.8615 190.678 78.3001C190.662 78.7388 190.748 79.1751 190.929 79.5748C191.536 80.6879 193.018 80.9399 193.758 81.96C193.841 82.0603 193.894 82.1823 193.909 82.3115C193.92 82.5284 193.763 82.7081 193.671 82.9027C193.38 83.5173 193.754 84.231 194.088 84.8209C194.422 85.4108 194.716 86.1988 194.309 86.7361L196.074 85.5597C196.458 85.3383 196.794 85.0411 197.061 84.6862C197.27 84.3168 197.41 83.9125 197.474 83.493C197.711 82.6986 197.757 81.8594 197.608 81.0439C197.429 80.3764 196.983 79.7111 197.192 79.0532C197.376 78.4716 198.002 78.1749 198.294 77.6442C198.719 76.8719 198.292 75.8489 197.628 75.292C196.918 74.809 196.153 74.4123 195.349 74.1103C194.66 73.7669 194.031 73.3133 193.489 72.7673" fill="#CECECE"/>
<path d="M179.93 65.1388L200.982 77.6746C201.293 77.8391 201.553 78.0852 201.735 78.3865C201.916 78.6878 202.012 79.0329 202.012 79.3846V88.1253C202.012 89.5689 200.424 90.0642 199.137 89.4104L178.149 77.7041C177.831 77.5423 177.563 77.2955 177.377 76.9911C177.19 76.6867 177.091 76.3365 177.091 75.9793V66.8487C177.091 66.5152 177.177 66.1873 177.341 65.8969C177.505 65.6065 177.742 65.3635 178.027 65.1914C178.313 65.0193 178.639 64.9241 178.972 64.9148C179.305 64.9056 179.636 64.9827 179.93 65.1388V65.1388Z" stroke="#575D68" stroke-width="0.5" stroke-miterlimit="10"/>
<path d="M150.768 107.277C150.768 107.277 149.811 107.469 149.453 109.608C149.313 110.443 147.531 115.338 147.531 115.338L150.685 113.164L151.24 108.815L150.768 107.277Z" fill="#F6F6F6" stroke="#575D68" stroke-width="0.5" stroke-miterlimit="10"/>
<path d="M152.01 106.104C152.01 106.104 151.052 106.296 150.694 108.435C150.554 109.27 148.772 114.165 148.772 114.165L151.926 111.991L152.481 107.642L152.01 106.104Z" fill="#F6F6F6" stroke="#575D68" stroke-width="0.5" stroke-miterlimit="10"/>
<path d="M153.197 104.572C153.197 104.572 152.24 104.765 151.882 106.903C151.742 107.738 149.96 112.633 149.96 112.633L153.114 110.459L153.669 106.11L153.197 104.572Z" fill="#F6F6F6" stroke="#575D68" stroke-width="0.5" stroke-miterlimit="10"/>
<path d="M151.064 125.459L149.26 119.827C149.26 119.827 153.667 114.157 154.719 112.714C155.771 111.271 155.435 103.375 155.435 103.375C155.435 103.375 153.693 104.71 153.443 105.923C153.192 107.137 152.063 110.187 152.063 110.187L148.76 111.743L147.161 113.9C147.161 113.9 144.661 113.657 143.689 112.456C143.261 111.932 142.671 111.564 142.011 111.41C141.352 111.256 140.66 111.325 140.044 111.605C140.773 112.175 141.454 112.803 142.079 113.485C143.585 115.104 144.053 118.274 144.053 118.274L145.471 127.962L151.064 125.459Z" fill="#F6F6F6" stroke="#575D68" stroke-width="0.5" stroke-miterlimit="10"/>
<path d="M140.225 150.943C139.478 149.913 141.22 139.003 142.268 132.845C143.802 123.826 143.848 120.548 143.848 120.548C143.848 120.548 146.715 120.918 147.712 120.918C150.384 120.918 151.275 120.548 151.275 120.548C151.275 120.548 152.779 131.434 153.141 137.105C153.341 140.23 153.391 144.667 153.395 148.022C153.396 148.614 153.269 149.199 153.024 149.738C152.779 150.276 152.422 150.756 151.975 151.145C151.529 151.533 151.004 151.822 150.437 151.99C149.87 152.158 149.273 152.203 148.687 152.121L140.225 150.943Z" fill="#F6F6F6" stroke="#575D68" stroke-width="0.5" stroke-miterlimit="10"/>
<path style="mix-blend-mode:multiply" d="M140.225 150.943C139.478 149.913 141.22 139.003 142.268 132.845C143.802 123.826 143.848 120.548 143.848 120.548C143.848 120.548 146.715 120.918 147.712 120.918C150.384 120.918 151.275 120.548 151.275 120.548C151.275 120.548 152.779 131.434 153.141 137.105C153.341 140.23 153.391 144.667 153.395 148.022C153.396 148.614 153.269 149.199 153.024 149.738C152.779 150.276 152.422 150.756 151.975 151.145C151.529 151.533 151.004 151.822 150.437 151.99C149.87 152.158 149.273 152.203 148.687 152.121L140.225 150.943Z" fill="url(#paint0_linear_3_30376)"/>
<path d="M154.552 263.607C155.426 263.377 156.312 263.191 157.205 263.05C158.116 262.967 159.033 263.133 159.858 263.529L159.589 264.387L157.411 265.225" fill="#E9EAEB"/>
<path d="M154.552 263.607C155.426 263.377 156.312 263.191 157.205 263.05C158.116 262.967 159.033 263.133 159.858 263.529L159.589 264.387L157.411 265.225" stroke="#575D68" stroke-width="0.5" stroke-miterlimit="10"/>
<path d="M119.494 93.3978C119.795 95.3583 120.453 98.0281 121.704 99.5671C121.764 99.6402 121.184 100.923 118.979 101.41" fill="#F6F6F6"/>
<path d="M119.494 93.3978C119.795 95.3583 120.453 98.0281 121.704 99.5671C121.764 99.6402 121.184 100.923 118.979 101.41" stroke="#575D68" stroke-width="0.5" stroke-miterlimit="10"/>
<path d="M99.2367 112.711C106.309 118.91 116.981 120.402 122.748 127.83C121.794 122.779 119.828 117.804 116.353 114.016C114.054 111.51 111.185 109.61 108.348 107.736C106.304 106.386 91.5356 94.5583 91.5356 94.5583C91.5356 94.5583 92.7736 107.047 99.2367 112.711Z" fill="#AFAFAF" stroke="#575D68" stroke-width="0.5" stroke-miterlimit="10"/>
<path d="M88.9627 115.531C88.8291 115.552 88.7002 115.573 88.5773 115.592C87.7864 115.658 87.0346 115.964 86.423 116.47C86.0988 116.821 85.8334 117.222 85.6373 117.658C83.3191 122.03 81.2587 126.533 79.4667 131.145C77.6776 135.891 76.0428 140.693 74.4085 145.494C72.6994 150.515 70.9659 155.768 71.7174 161.019C71.8416 161.886 72.181 162.905 73.0341 163.107C73.656 163.254 74.1855 162.677 74.8105 162.544C83.6248 160.668 86.0387 159.393 89.5772 156.408C90.4167 155.699 91.8066 155.912 92.5356 155.091C93.0472 154.404 93.372 153.596 93.4782 152.746C94.4675 148.002 95.4315 143.257 96.0401 138.446C96.6466 133.652 97.0508 128.686 96.3535 123.879C96.1297 121.909 95.5477 119.996 94.6362 118.235C94.2063 117.361 93.6287 116.568 92.929 115.891C91.93 115.105 90.2349 115.33 88.9627 115.531Z" fill="#F6F6F6" stroke="#575D68" stroke-width="0.5" stroke-miterlimit="10"/>
<path style="mix-blend-mode:multiply" d="M88.9627 115.531C88.8291 115.552 88.7002 115.573 88.5773 115.592C87.7864 115.658 87.0346 115.964 86.423 116.47C86.0988 116.821 85.8334 117.222 85.6373 117.658C83.3191 122.03 81.2587 126.533 79.4667 131.145C77.6776 135.891 76.0428 140.693 74.4085 145.494C72.6994 150.515 70.9659 155.768 71.7174 161.019C71.8416 161.886 72.181 162.905 73.0341 163.107C73.656 163.254 74.1855 162.677 74.8105 162.544C83.6248 160.668 86.0387 159.393 89.5772 156.408C90.4167 155.699 91.8066 155.912 92.5356 155.091C93.0472 154.404 93.372 153.596 93.4782 152.746C94.4675 148.002 95.4315 143.257 96.0401 138.446C96.6466 133.652 97.0508 128.686 96.3535 123.879C96.1297 121.909 95.5477 119.996 94.6362 118.235C94.2063 117.361 93.6287 116.568 92.929 115.891C91.93 115.105 90.2349 115.33 88.9627 115.531Z" fill="url(#paint1_linear_3_30376)"/>
<path d="M91.5359 94.5583C91.0934 92.8961 90.9071 91.1761 90.9834 89.4577C91.2778 83.3857 95.613 77.4256 101.581 76.2698C104.212 75.8497 106.905 76.074 109.429 76.9234C111.7 77.5562 113.782 78.7317 115.497 80.3485C117.213 81.9654 118.509 83.9752 119.274 86.2045C119.918 88.1065 120.746 90.104 120.452 92.1619C120.325 93.0442 119.999 93.8867 119.844 94.7645C119.521 96.5988 119.959 98.437 120.109 100.264C120.165 101.876 119.887 103.482 119.294 104.981C118.346 107.81 116.655 110.483 113.855 111.758C113.118 112.094 109.956 111.97 109.672 112.729C109.295 113.735 111.099 115.51 111.928 116.195C115.441 119.095 121.031 119.475 124.544 122.375C125.861 123.462 126.545 126.771 127.261 128.321C129.764 133.739 127.378 141.316 126.908 146.924C126.658 149.917 127.529 158.503 126.877 161.437C126.684 162.29 126.292 163.085 125.731 163.756C125.17 164.426 124.458 164.954 123.652 165.294C123.652 165.294 127.727 170.913 129.461 173.202C137.864 184.288 137.416 195.238 138.052 199.084C140.137 211.681 143.218 223.684 142.478 236.601C142.288 239.909 141.887 243.211 141.943 246.525C142.007 250.307 142.666 254.05 143.323 257.775C144.101 262.182 145.678 262.568 149.703 262.771C150.297 262.801 153.844 263.259 156.769 263.688C158.091 263.882 159.396 263.273 160.135 263.413C160.588 263.498 160.759 264.766 160.605 265.201C159.721 267.707 156.45 269.047 153.642 269.338C148.257 269.896 144.239 271.189 139.537 272.115C139.043 272.247 138.526 272.277 138.02 272.202C135.411 271.627 135.638 264.755 135.125 262.657C133.218 254.864 128.954 248.166 128.413 239.994C128.145 235.945 128.535 231.844 127.836 227.847C127.267 224.597 113.973 202.812 113.973 202.812C114.377 207.224 114.515 211.658 114.385 216.087C114.265 219.548 113.178 222.768 112.608 226.149C112.069 229.348 112.596 232.504 112.214 235.693C111.86 238.651 111.076 241.557 110.705 244.536C110.226 248.378 110.283 252.305 110.215 256.19C110.12 261.549 108.943 268.506 109.208 272.099C109.269 272.926 114.81 271.47 115.205 271.372C116.644 271.015 120.542 269.403 121.045 269.563C121.328 269.653 121.547 269.893 121.835 269.964C122.111 270.032 122.412 269.934 122.68 270.027C122.851 270.109 123.012 270.211 123.158 270.332C123.831 270.772 124.828 270.568 125.4 271.133C125.588 271.348 125.705 271.615 125.738 271.898C125.771 272.182 125.717 272.469 125.583 272.721C125.305 273.222 124.884 273.628 124.374 273.89C123.215 274.563 122.121 275.169 121.008 275.928C119.802 276.751 118.57 277.536 117.39 278.397C115.295 280.039 113.036 281.462 110.651 282.644C108.447 283.639 106.078 284.217 103.663 284.348C102.934 284.39 102.215 284.16 101.646 283.702C101.077 283.244 100.698 282.59 100.584 281.869C100.461 281.143 100.454 280.403 100.564 279.675C102.111 269.678 98.445 260.59 97.1319 250.805C96.4925 246.04 97.9241 236.395 97.9241 236.395C97.9241 236.395 97.5181 221.298 96.0685 213.923C95.2325 209.67 92.3764 204.811 91.5362 200.559C89.5748 190.634 92.5698 181.063 95.4873 171.375C95.8111 170.53 95.9536 169.625 95.9053 168.721C95.8231 168.087 93.5911 166.452 93.3214 165.873C90.1025 158.958 89.6138 153.214 87.1296 146.031C84.4327 138.234 82.3056 127.111 85.3057 119.201C85.6768 118.091 86.2902 117.077 87.1014 116.232C88.3084 115.077 89.8912 114.545 91.3929 113.896C91.8772 113.687 92.5908 113.306 93.3187 112.985C94.8589 112.296 96.1065 111.085 96.842 109.567" fill="#F6F6F6"/>
<path d="M91.5359 94.5583C91.0934 92.8961 90.9071 91.1761 90.9834 89.4577C91.2778 83.3857 95.613 77.4256 101.581 76.2698C104.212 75.8497 106.905 76.074 109.429 76.9234C111.7 77.5562 113.782 78.7317 115.497 80.3485C117.213 81.9654 118.509 83.9752 119.274 86.2045C119.918 88.1064 120.746 90.104 120.452 92.1619C120.325 93.0442 119.999 93.8867 119.844 94.7645C119.521 96.5988 119.959 98.437 120.109 100.264C120.165 101.876 119.887 103.482 119.294 104.981C118.346 107.81 116.655 110.483 113.855 111.758C113.118 112.094 109.956 111.97 109.672 112.729C109.295 113.735 111.099 115.51 111.928 116.195C115.441 119.095 121.031 119.475 124.544 122.375C125.861 123.462 126.545 126.771 127.261 128.321C129.764 133.739 127.378 141.316 126.908 146.924C126.658 149.917 127.529 158.503 126.877 161.437C126.684 162.29 126.292 163.085 125.731 163.756C125.17 164.426 124.458 164.954 123.652 165.294C123.652 165.294 127.727 170.913 129.461 173.202C137.864 184.288 137.416 195.238 138.052 199.084C140.137 211.681 143.218 223.684 142.478 236.601C142.288 239.909 141.887 243.211 141.943 246.525C142.007 250.307 142.666 254.05 143.323 257.775C144.101 262.182 145.678 262.568 149.703 262.771C150.297 262.801 153.844 263.259 156.769 263.688C158.091 263.882 159.396 263.273 160.135 263.413C160.588 263.498 160.759 264.766 160.605 265.201C159.721 267.707 156.45 269.047 153.642 269.338C148.257 269.896 144.239 271.189 139.537 272.115C139.043 272.247 138.526 272.277 138.02 272.202C135.411 271.627 135.638 264.755 135.125 262.657C133.218 254.864 128.954 248.166 128.413 239.994C128.145 235.945 128.535 231.844 127.836 227.847C127.267 224.597 113.973 202.812 113.973 202.812C114.377 207.224 114.515 211.658 114.385 216.087C114.265 219.548 113.178 222.768 112.608 226.149C112.069 229.348 112.596 232.504 112.214 235.693C111.86 238.651 111.076 241.557 110.705 244.536C110.226 248.378 110.283 252.305 110.215 256.19C110.12 261.549 108.943 268.506 109.208 272.099C109.269 272.926 114.81 271.47 115.205 271.372C116.644 271.015 120.542 269.403 121.045 269.563C121.328 269.653 121.547 269.893 121.835 269.964C122.111 270.032 122.412 269.934 122.68 270.027C122.851 270.109 123.012 270.211 123.158 270.332C123.831 270.772 124.828 270.568 125.4 271.133C125.588 271.348 125.705 271.615 125.738 271.898C125.771 272.182 125.717 272.469 125.583 272.721C125.305 273.222 124.884 273.628 124.374 273.89C123.215 274.563 122.121 275.169 121.008 275.928C119.802 276.751 118.57 277.536 117.39 278.397C115.295 280.039 113.036 281.462 110.651 282.644C108.447 283.639 106.078 284.217 103.663 284.348C102.934 284.39 102.215 284.16 101.646 283.702C101.077 283.244 100.698 282.59 100.584 281.869C100.461 281.143 100.454 280.403 100.564 279.675C102.111 269.678 98.445 260.59 97.1319 250.805C96.4925 246.04 97.9241 236.395 97.9241 236.395C97.9241 236.395 97.5181 221.298 96.0685 213.923C95.2325 209.67 92.3764 204.811 91.5362 200.559C89.5748 190.634 92.5698 181.063 95.4873 171.375C95.8111 170.53 95.9536 169.625 95.9053 168.721C95.8231 168.087 93.5911 166.452 93.3214 165.873C90.1025 158.958 89.6138 153.214 87.1296 146.031C84.4327 138.234 82.3056 127.111 85.3057 119.201C85.6768 118.091 86.2902 117.077 87.1014 116.232C88.3084 115.077 89.8912 114.545 91.3929 113.896C91.8772 113.687 92.5908 113.306 93.3187 112.985C94.8589 112.296 96.1065 111.085 96.842 109.567" stroke="#575D68" stroke-width="0.5" stroke-miterlimit="10"/>
<path style="mix-blend-mode:multiply" d="M91.5359 94.5583C91.0934 92.8961 90.9071 91.1761 90.9834 89.4577C91.2778 83.3857 95.613 77.4256 101.581 76.2698C104.212 75.8497 106.905 76.074 109.429 76.9234C111.7 77.5562 113.782 78.7317 115.497 80.3485C117.213 81.9654 118.509 83.9752 119.274 86.2045C119.918 88.1065 120.746 90.104 120.452 92.1619C120.325 93.0442 119.999 93.8867 119.844 94.7645C119.521 96.5988 119.959 98.437 120.109 100.264C120.165 101.876 119.887 103.482 119.294 104.981C118.346 107.81 116.655 110.483 113.855 111.758C113.118 112.094 109.956 111.97 109.672 112.729C109.295 113.735 111.099 115.51 111.928 116.195C115.441 119.095 121.031 119.475 124.544 122.375C125.861 123.462 126.545 126.771 127.261 128.321C129.764 133.739 127.378 141.316 126.908 146.924C126.658 149.917 127.529 158.503 126.877 161.437C126.684 162.29 126.292 163.085 125.731 163.756C125.17 164.426 124.458 164.954 123.652 165.294C123.652 165.294 127.727 170.913 129.461 173.202C137.864 184.288 137.416 195.238 138.052 199.084C140.137 211.681 143.218 223.684 142.478 236.601C142.288 239.909 141.887 243.211 141.943 246.525C142.007 250.307 142.666 254.05 143.323 257.775C144.101 262.182 145.678 262.568 149.703 262.771C150.297 262.801 153.844 263.259 156.769 263.688C158.091 263.882 159.396 263.273 160.135 263.413C160.588 263.498 160.759 264.766 160.605 265.201C159.721 267.707 156.45 269.047 153.642 269.338C148.257 269.896 144.239 271.189 139.537 272.115C139.043 272.247 138.526 272.277 138.02 272.202C135.411 271.627 135.638 264.755 135.125 262.657C133.218 254.864 128.954 248.166 128.413 239.994C128.145 235.945 128.535 231.844 127.836 227.847C127.267 224.597 113.973 202.812 113.973 202.812C114.377 207.224 114.515 211.658 114.385 216.087C114.265 219.548 113.178 222.768 112.608 226.149C112.069 229.348 112.596 232.504 112.214 235.693C111.86 238.651 111.076 241.557 110.705 244.536C110.226 248.378 110.283 252.305 110.215 256.19C110.12 261.549 108.943 268.506 109.208 272.099C109.269 272.926 114.81 271.47 115.205 271.372C116.644 271.015 120.542 269.403 121.045 269.563C121.328 269.653 121.547 269.893 121.835 269.964C122.111 270.032 122.412 269.934 122.68 270.027C122.851 270.109 123.012 270.211 123.158 270.332C123.831 270.772 124.828 270.568 125.4 271.133C125.588 271.348 125.705 271.615 125.738 271.898C125.771 272.182 125.717 272.469 125.583 272.721C125.305 273.222 124.884 273.628 124.374 273.89C123.215 274.563 122.121 275.169 121.008 275.928C119.802 276.751 118.57 277.536 117.39 278.397C115.295 280.039 113.036 281.462 110.651 282.644C108.447 283.639 106.078 284.217 103.663 284.348C102.934 284.39 102.215 284.16 101.646 283.702C101.077 283.244 100.698 282.59 100.584 281.869C100.461 281.143 100.454 280.403 100.564 279.675C102.111 269.678 98.445 260.59 97.1319 250.805C96.4925 246.04 97.9241 236.395 97.9241 236.395C97.9241 236.395 97.5181 221.298 96.0685 213.923C95.2325 209.67 92.3764 204.811 91.5362 200.559C89.5748 190.634 92.5698 181.063 95.4873 171.375C95.8111 170.53 95.9536 169.625 95.9053 168.721C95.8231 168.087 93.5911 166.452 93.3214 165.873C90.1025 158.958 89.6138 153.214 87.1296 146.031C84.4327 138.234 82.3056 127.111 85.3057 119.201C85.6768 118.091 86.2902 117.077 87.1014 116.232C88.3084 115.077 89.8912 114.545 91.3929 113.896C91.8772 113.687 92.5908 113.306 93.3187 112.985C94.8589 112.296 96.1065 111.085 96.842 109.567" fill="url(#paint2_linear_3_30376)"/>
<path d="M96.842 109.567C96.842 109.567 106.666 110.283 107.143 103.039C107.615 95.8595 110.358 94.0457 110.358 94.0457C110.358 94.0457 115.073 92.9509 116.927 90.786C118.291 89.1935 118.417 88.1542 118.265 85.59C117.83 84.4594 117.317 82.744 116.62 81.755L115.946 80.879C114.063 78.6102 112.254 77.7793 109.429 76.9233C106.905 76.074 104.212 75.8497 101.581 76.2698C95.613 77.4256 91.2778 83.3857 90.9835 89.4577C90.9071 91.1761 91.0934 92.8961 91.536 94.5583" fill="#AFAFAF"/>
<path d="M96.842 109.567C96.842 109.567 106.666 110.283 107.143 103.039C107.615 95.8595 110.358 94.0457 110.358 94.0457C110.358 94.0457 115.073 92.9509 116.927 90.786C118.291 89.1935 118.417 88.1542 118.265 85.59C117.83 84.4594 117.317 82.744 116.62 81.755L115.946 80.879C114.063 78.6102 112.254 77.7793 109.429 76.9233C106.905 76.074 104.212 75.8497 101.581 76.2698C95.613 77.4256 91.2778 83.3857 90.9835 89.4577C90.9071 91.1761 91.0934 92.8961 91.536 94.5583" stroke="#575D68" stroke-width="0.5" stroke-miterlimit="10"/>
<path d="M119.629 140.375C127.142 149.18 137.28 155.052 149.148 154.796C150.185 154.773 151.314 154.667 152.069 153.956C152.795 153.271 152.984 152.204 153.099 151.212C153.91 144.169 140.938 138.638 140.422 138.115C134.77 132.377 125.984 123.072 124.543 122.375" fill="#F6F6F6"/>
<path d="M119.629 140.375C127.142 149.18 137.28 155.052 149.148 154.796C150.185 154.773 151.314 154.667 152.069 153.956C152.795 153.271 152.984 152.204 153.099 151.212C153.91 144.169 140.938 138.638 140.422 138.115C134.77 132.377 125.984 123.072 124.543 122.375" stroke="#575D68" stroke-width="0.5" stroke-miterlimit="10"/>
<path d="M115.546 80.3864C116.909 81.8414 117.848 83.6406 118.264 85.5901C119.165 89.924 116.013 92.9324 109.778 94.1691C107.469 94.627 103.982 96.6906 101.179 99.435" stroke="#575D68" stroke-width="0.5" stroke-miterlimit="10"/>
<g style="mix-blend-mode:multiply">
<path style="mix-blend-mode:multiply" d="M112.685 161.154C104.884 155.081 109.801 136.012 96.3536 123.879C92.3558 120.272 89.1712 118.062 86.6617 116.727C86.0799 117.474 85.6219 118.309 85.3052 119.202C82.3051 127.111 84.4322 138.234 87.1291 146.031C89.6133 153.214 90.102 158.959 93.3209 165.873C93.5906 166.452 95.8226 168.087 95.9048 168.721C95.9075 168.742 97.0798 169.25 97.0821 169.271C97.6769 169.349 100.281 170.107 100.91 170.126C103.743 170.214 106.176 170.634 108.193 170.54C117.231 170.119 119.102 167.604 123.652 165.294C122.151 165.428 117.929 165.237 112.685 161.154Z" fill="url(#paint3_linear_3_30376)"/>
<path style="mix-blend-mode:multiply" d="M122.572 165.564C122.946 165.548 123.314 165.456 123.652 165.294C123.652 165.294 123.257 165.396 122.572 165.564Z" fill="url(#paint4_linear_3_30376)"/>
</g>
<path style="mix-blend-mode:multiply" d="M119.629 140.375C127.142 149.18 137.28 155.052 149.148 154.796C150.185 154.773 151.314 154.667 152.069 153.956C152.795 153.271 152.984 152.204 153.099 151.212C153.91 144.169 140.938 138.638 140.422 138.115C134.77 132.377 125.984 123.072 124.543 122.375" fill="url(#paint5_linear_3_30376)"/>
<path d="M96.002 169.105C98.0494 169.524 100.282 170.097 102.628 170.387C114.7 171.878 123.651 165.294 123.651 165.294" stroke="#575D68" stroke-width="0.5" stroke-miterlimit="10"/>
<path d="M95.0537 173.598C97.3405 174.017 99.8339 174.591 102.455 174.881C110.624 175.73 118.851 173.946 125.935 169.788" stroke="#575D68" stroke-width="0.5" stroke-miterlimit="10"/>
<path d="M93.3738 180.019C94.9753 180.332 96.6032 180.49 98.235 180.491C97.6418 182.725 97.1961 184.996 96.9007 187.288C96.6442 189.182 96.6089 191.777 96.6089 191.777L91.0112 195.008" stroke="#575D68" stroke-width="0.5" stroke-miterlimit="10"/>
<path d="M91.0112 193.835L95.178 191.521C95.178 191.521 95.7242 187.43 96.0174 185.538C96.3391 183.462 96.7769 181.473 96.7769 181.473" stroke="#575D68" stroke-width="0.5" stroke-miterlimit="10"/>
<path d="M111.76 180.21C113.456 180.181 115.145 179.997 116.808 179.663C118.879 179.274 120.926 178.762 122.937 178.132L124.013 188.339L118.524 192.978L112.989 190.161L111.76 180.21Z" stroke="#575D68" stroke-width="0.5" stroke-miterlimit="10"/>
<path d="M122.439 182.544L123.022 188.08L118.258 192.108L113.454 189.662L112.685 183.436" stroke="#575D68" stroke-width="0.5" stroke-miterlimit="10"/>
<path d="M94.8017 112.372C94.8017 112.372 91.5528 115.299 97.7075 116.678C103.862 118.056 111.927 116.195 111.927 116.195" fill="#F6F6F6"/>
<path d="M94.8017 112.372C94.8017 112.372 91.5528 115.299 97.7075 116.678C103.862 118.056 111.927 116.195 111.927 116.195" stroke="#575D68" stroke-width="0.5" stroke-miterlimit="10"/>
<path d="M93.1976 113.056C93.1976 113.056 89.3715 116.503 96.6196 118.127C103.868 119.75 113.365 117.558 113.365 117.558" stroke="#575D68" stroke-width="0.5" stroke-miterlimit="10"/>
<path d="M100.908 170.126C99.7926 169.94 98.7172 169.564 97.7292 169.013C96.4895 168.17 95.5296 166.976 94.9723 165.584C94.384 164.217 92.8379 159.69 92.0327 156.808" stroke="#575D68" stroke-width="0.5" stroke-miterlimit="10"/>
<path d="M134.996 262.484C136.596 262.739 138.23 262.669 139.803 262.28C141.376 261.89 142.854 261.188 144.15 260.216" stroke="#575D68" stroke-width="0.5" stroke-miterlimit="10"/>
<path d="M120.486 167.227C121.685 166.137 122.581 164.754 123.085 163.214C123.585 161.679 123.891 160.088 123.995 158.477C124.246 155.588 124.194 152.68 123.842 149.802" stroke="#575D68" stroke-width="0.5" stroke-miterlimit="10"/>
<path d="M118.891 167.823C120.101 166.018 120.538 163.817 120.863 161.669C121.073 160.823 121.024 159.933 120.722 159.115C120.703 159.062 120.673 159.013 120.634 158.971C120.595 158.93 120.548 158.897 120.495 158.875C120.244 158.803 120.101 159.152 120.074 159.411C119.739 162.593 118.889 165.803 117.005 168.389C116.878 168.609 116.677 168.776 116.437 168.86" stroke="#575D68" stroke-width="0.5" stroke-miterlimit="10"/>
<path d="M101.824 170.276C100.464 169.641 99.3566 168.567 98.682 167.225C98.0424 166.13 97.7209 164.877 97.7537 163.609C97.7728 163.287 97.8877 162.893 98.2054 162.835C98.3472 162.821 98.49 162.85 98.6147 162.92C99.5052 163.34 100.242 164.028 100.722 164.888C102.776 168.567 104.305 169.021 106.479 170.665C106.521 170.697 106.545 170.583 106.494 170.595" stroke="#575D68" stroke-width="0.5" stroke-miterlimit="10"/>
<path d="M121.644 120.546C119.657 120.348 117.719 121.577 116.64 123.257C115.637 124.996 115.134 126.98 115.189 128.987" stroke="#575D68" stroke-width="0.5" stroke-miterlimit="10"/>
<path d="M117.252 141.484C119.426 143.392 121.988 144.806 124.761 145.626" stroke="#575D68" stroke-width="0.5" stroke-miterlimit="10"/>
<path d="M156.769 266.333C157.394 266.279 158.024 266.279 158.649 266.333C159.392 266.432 159.512 266.847 159.512 266.847" fill="#E9EAEB"/>
<path d="M156.769 266.333C157.394 266.279 158.024 266.279 158.649 266.333C159.392 266.432 159.512 266.847 159.512 266.847" stroke="#575D68" stroke-width="0.5" stroke-miterlimit="10"/>
<path d="M156.769 264.809C156.769 264.809 158.044 264.747 158.628 264.679C159.251 264.628 159.878 264.672 160.488 264.809" fill="#E9EAEB"/>
<path d="M156.769 264.809C156.769 264.809 158.044 264.747 158.628 264.679C159.251 264.628 159.878 264.672 160.488 264.809" stroke="#575D68" stroke-width="0.5" stroke-miterlimit="10"/>
<path d="M123.95 270.617C123.95 270.617 122.348 271.406 121.729 272.519L123.95 270.617Z" fill="#E9EAEB"/>
<path d="M123.95 270.617C123.95 270.617 122.348 271.406 121.729 272.519" stroke="#575D68" stroke-width="0.5" stroke-miterlimit="10"/>
<path d="M121.835 269.964L119.897 271.331L121.835 269.964Z" fill="#E9EAEB"/>
<path d="M121.835 269.964L119.897 271.331" stroke="#575D68" stroke-width="0.5" stroke-miterlimit="10"/>
<path d="M119.898 269.796C119.437 270.228 118.945 270.625 118.425 270.985L119.898 269.796Z" fill="#E9EAEB"/>
<path d="M119.898 269.796C119.437 270.228 118.945 270.625 118.425 270.985" stroke="#575D68" stroke-width="0.5" stroke-miterlimit="10"/>
<path d="M100.472 268.506C101.811 268.777 103.179 268.878 104.543 268.807C107.722 268.506 109.389 267.323 109.389 267.323" fill="#E9EAEB"/>
<path d="M100.472 268.506C101.811 268.777 103.179 268.878 104.543 268.807C107.722 268.506 109.389 267.323 109.389 267.323" stroke="#575D68" stroke-width="0.5" stroke-miterlimit="10"/>
<path d="M147.16 113.9C147.856 113.911 148.552 113.865 149.241 113.762C149.517 113.631 152.234 111.457 152.234 111.457" fill="#F6F6F6"/>
<path d="M147.16 113.9C147.856 113.911 148.552 113.865 149.241 113.762C149.517 113.631 152.234 111.457 152.234 111.457" stroke="#575D68" stroke-width="0.5" stroke-miterlimit="10"/>
<path style="mix-blend-mode:multiply" d="M106.523 204.608L104.665 227.198L110.703 244.536C111.074 241.557 111.859 238.651 112.213 235.693C112.594 232.504 112.068 229.348 112.607 226.149C113.176 222.768 114.264 219.548 114.383 216.087C114.514 211.658 114.376 207.224 113.971 202.812L108.131 193.835L106.523 204.608Z" fill="url(#paint6_linear_3_30376)"/>
<path style="mix-blend-mode:multiply" d="M134.995 233.709C135.028 233.181 135.032 232.615 135.013 232.028C134.88 228.937 134.069 225.914 132.637 223.172C131.206 220.43 129.189 218.037 126.729 216.161L117.854 209.278C121.826 215.976 127.469 225.753 127.835 227.847C128.534 231.844 128.143 235.945 128.412 239.994C128.953 248.166 133.217 254.864 135.123 262.657C135.13 262.683 135.135 262.718 135.141 262.746C136.439 259.136 137.816 253.761 136.382 251.377C134.06 247.517 134.695 238.46 134.995 233.709Z" fill="url(#paint7_linear_3_30376)"/>
<path d="M189.554 165.683L188.09 165.046C187.833 164.934 187.534 165.052 187.422 165.308L164.974 216.882C164.862 217.139 164.979 217.438 165.236 217.55L166.7 218.187C166.957 218.299 167.256 218.181 167.368 217.924L189.816 166.351C189.928 166.094 189.81 165.795 189.554 165.683Z" fill="#F6F6F6" stroke="#575D68" stroke-width="0.5" stroke-miterlimit="10"/>
<path d="M190.921 164.787L189.442 165.388C189.182 165.493 189.057 165.789 189.162 166.048L210.317 218.166C210.422 218.426 210.718 218.551 210.978 218.445L212.457 217.845C212.717 217.74 212.842 217.444 212.736 217.184L191.582 165.066C191.477 164.807 191.181 164.682 190.921 164.787Z" fill="#F6F6F6" stroke="#575D68" stroke-width="0.5" stroke-miterlimit="10"/>
<path d="M189.879 171.276H188.283C188.002 171.276 187.775 171.503 187.775 171.783V228.031C187.775 228.311 188.002 228.538 188.283 228.538H189.879C190.159 228.538 190.387 228.311 190.387 228.031V171.783C190.387 171.503 190.159 171.276 189.879 171.276Z" fill="#F6F6F6" stroke="#575D68" stroke-width="0.5" stroke-miterlimit="10"/>
<path d="M196.96 170.048C196.96 172.68 193.432 174.813 189.081 174.813C184.73 174.813 181.203 172.68 181.203 170.048V167.799C181.203 167.799 185.818 165.283 189.081 165.283C192.062 165.283 196.96 167.309 196.96 167.309V170.048Z" fill="#F6F6F6" stroke="#575D68" stroke-width="0.5" stroke-miterlimit="10"/>
<path d="M189.081 172.564C193.432 172.564 196.96 170.431 196.96 167.799C196.96 165.167 193.432 163.034 189.081 163.034C184.73 163.034 181.203 165.167 181.203 167.799C181.203 170.431 184.73 172.564 189.081 172.564Z" fill="#F6F6F6" stroke="#575D68" stroke-width="0.5" stroke-miterlimit="10"/>
<path d="M189.628 79.7303H188.536C188.055 79.7303 187.666 80.1197 187.666 80.6001V166.929C187.666 167.41 188.055 167.799 188.536 167.799H189.628C190.108 167.799 190.498 167.41 190.498 166.929V80.6001C190.498 80.1197 190.108 79.7303 189.628 79.7303Z" fill="#F6F6F6" stroke="#575D68" stroke-width="0.5" stroke-miterlimit="10"/>
<path d="M180.715 62.8486L202.893 75.9322C203.251 76.1215 203.55 76.4049 203.759 76.7517C203.968 77.0985 204.078 77.4957 204.078 77.9006V87.9423C204.068 88.7346 203.788 89.4997 203.287 90.1127C202.785 90.7257 202.09 91.1504 201.315 91.3172L178.665 77.3129C178.298 77.1267 177.99 76.8426 177.775 76.4922C177.56 76.1417 177.446 75.7386 177.446 75.3274L176.42 65.4347C176.42 63.7567 179.232 62.0637 180.715 62.8486Z" fill="#F6F6F6" stroke="#575D68" stroke-width="0.5" stroke-miterlimit="10"/>
<path d="M179.689 64.049L201.867 77.1326C202.225 77.322 202.525 77.6053 202.733 77.9521C202.942 78.299 203.053 78.6961 203.053 79.101V89.1428C203.053 89.5236 202.955 89.8981 202.769 90.2304C202.583 90.5627 202.315 90.8418 201.99 91.0409C201.666 91.2401 201.296 91.3527 200.915 91.368C200.535 91.3833 200.157 91.3008 199.817 91.1283L177.639 78.5134C177.272 78.3271 176.964 78.0431 176.749 77.6926C176.534 77.3422 176.42 76.939 176.42 76.5278V66.0174C176.42 65.6334 176.52 65.256 176.709 64.9217C176.897 64.5875 177.17 64.3077 177.499 64.1096C177.827 63.9115 178.202 63.8019 178.586 63.7912C178.97 63.7806 179.35 63.8694 179.689 64.049Z" fill="#F6F6F6" stroke="#575D68" stroke-width="0.5" stroke-miterlimit="10"/>
<path d="M185.265 66.345L196.38 72.9506C196.38 72.9506 196.609 72.8664 196.682 72.8299C197.215 72.5617 197.126 71.4418 195.532 70.4818C193.526 69.2744 188.363 66.3076 188.363 66.3076C187.891 66.0331 187.354 65.8916 186.809 65.8982C186.263 65.9047 185.73 66.0592 185.265 66.345Z" fill="#F6F6F6" stroke="#575D68" stroke-width="0.5" stroke-miterlimit="10"/>
<path d="M194.566 65.343C194.587 64.9173 194.491 64.494 194.287 64.1195C194.084 63.745 193.781 63.4339 193.412 63.2203C193.043 63.0067 192.623 62.8988 192.197 62.9086C191.77 62.9184 191.355 63.0454 190.997 63.2757C190.638 63.506 190.35 63.8307 190.164 64.2141C189.977 64.5975 189.901 65.0248 189.941 65.449C189.982 65.8733 190.139 66.2781 190.395 66.619C190.651 66.9599 190.995 67.2237 191.391 67.3814L191.331 68.6933C191.328 68.7764 191.34 68.8593 191.368 68.9375C191.396 69.0157 191.44 69.0876 191.496 69.149C191.552 69.2104 191.619 69.2602 191.695 69.2955C191.77 69.3308 191.851 69.3509 191.934 69.3547C192.017 69.3585 192.1 69.3459 192.178 69.3177C192.257 69.2894 192.328 69.246 192.39 69.1899C192.451 69.1338 192.501 69.0662 192.536 68.9909C192.571 68.9157 192.591 68.8342 192.595 68.7511L192.651 67.5177C193.17 67.4267 193.642 67.1617 193.99 66.7664C194.338 66.3711 194.541 65.8691 194.566 65.343Z" fill="#F6F6F6" stroke="#575D68" stroke-width="0.5" stroke-miterlimit="10"/>
<path d="M179.93 65.1388L200.982 77.6746C201.293 77.8391 201.553 78.0852 201.735 78.3865C201.916 78.6878 202.012 79.0329 202.012 79.3846V88.1253C202.012 89.5689 200.424 90.0642 199.137 89.4104L178.149 77.7041C177.831 77.5423 177.563 77.2955 177.377 76.9911C177.19 76.6867 177.091 76.3365 177.091 75.9793V66.8487C177.091 66.5152 177.177 66.1873 177.341 65.8969C177.505 65.6065 177.742 65.3635 178.027 65.1914C178.313 65.0193 178.639 64.9241 178.972 64.9148C179.305 64.9056 179.636 64.9827 179.93 65.1388Z" fill="#AFAFAF"/>
<path d="M179.93 65.1388L200.982 77.6746C201.293 77.8391 201.553 78.0852 201.735 78.3865C201.916 78.6878 202.012 79.0329 202.012 79.3846V88.1253C202.012 89.5689 200.424 90.0642 199.137 89.4104L178.149 77.7041C177.831 77.5423 177.563 77.2955 177.377 76.9911C177.19 76.6867 177.091 76.3365 177.091 75.9793V66.8487C177.091 66.5152 177.177 66.1873 177.341 65.8969C177.505 65.6065 177.742 65.3635 178.027 65.1914C178.313 65.0193 178.639 64.9241 178.972 64.9148C179.305 64.9056 179.636 64.9827 179.93 65.1388Z" fill="#FF4F12" stroke="#575D68" stroke-width="0.5" stroke-miterlimit="10"/>
<path d="M183.177 75.7556C183.318 76.2631 183.408 76.7831 183.447 77.3082C183.465 77.5713 183.427 77.8353 183.337 78.083C183.246 78.3308 183.105 78.5568 182.921 78.7464C182.449 79.0603 181.928 79.2962 181.381 79.4451L195.303 87.2104C195.595 85.368 195.168 83.4839 194.109 81.9477C193.587 81.2041 192.886 80.4468 192.972 79.5423C193.121 78.9084 193.421 78.32 193.847 77.8268C194.327 77.0996 194.643 76.2758 194.771 75.4135C194.837 74.9211 194.848 74.4231 194.806 73.9282L184.766 67.9496C183.043 70.0568 182.588 73.0694 183.177 75.7556Z" fill="#F6F6F6"/>
<path d="M180.686 68.9207C180.855 69.5807 181.181 70.2817 180.922 70.9094C180.659 71.5459 179.928 71.7819 179.37 72.163C179.073 72.3569 178.823 72.6144 178.637 72.9169C178.452 73.2194 178.336 73.5593 178.298 73.9121C178.265 74.2652 178.346 74.6196 178.528 74.9236C178.711 75.2277 178.986 75.4655 179.313 75.6026C179.686 75.6861 180.068 75.7193 180.449 75.7014C180.5 75.698 180.551 75.7056 180.599 75.7236C180.647 75.7417 180.69 75.7698 180.726 75.806C180.774 75.8879 180.79 75.9848 180.771 76.0778C180.715 76.6354 180.503 77.166 180.158 77.6082C180.01 77.7471 179.919 77.9361 179.903 78.1384C179.922 78.2557 179.974 78.3652 180.053 78.454C180.787 79.4046 182.103 79.6554 183.269 79.5013C183.683 79.4667 184.082 79.3292 184.43 79.1013C184.88 78.713 185.196 78.1922 185.333 77.6135C185.742 76.4437 185.783 75.1768 185.45 73.983C185.19 73.1712 184.689 72.356 184.895 71.5277C185.075 71.0378 185.351 70.5887 185.706 70.2065C185.883 70.0127 186.014 69.7824 186.092 69.5319C186.169 69.2815 186.19 69.0171 186.154 68.7575C186.068 68.4917 185.918 68.251 185.718 68.0562C185.152 67.4842 184.529 66.9711 183.859 66.5247C183.376 66.1757 182.727 65.5044 182.09 65.5363C180.651 65.6086 180.43 67.8617 180.686 68.9207Z" fill="#CECECE"/>
<path d="M192.088 72.0374C191.768 72.2259 191.508 72.4998 191.336 72.8283C191.164 73.1568 191.088 73.5267 191.115 73.8965C191.17 74.5955 191.588 75.2569 191.482 75.9494C191.384 76.3362 191.229 76.7063 191.021 77.0471C190.811 77.4325 190.694 77.8615 190.678 78.3001C190.662 78.7388 190.748 79.1751 190.929 79.5748C191.536 80.6879 193.018 80.9399 193.758 81.96C193.841 82.0603 193.894 82.1823 193.909 82.3115C193.92 82.5284 193.763 82.7081 193.671 82.9027C193.38 83.5173 193.754 84.231 194.088 84.8209C194.422 85.4108 194.716 86.1988 194.309 86.7361L196.074 85.5597C196.458 85.3383 196.794 85.0411 197.061 84.6862C197.27 84.3168 197.41 83.9125 197.474 83.493C197.711 82.6986 197.757 81.8594 197.608 81.0439C197.429 80.3764 196.983 79.7111 197.192 79.0532C197.376 78.4716 198.002 78.1749 198.294 77.6442C198.719 76.8719 198.292 75.8489 197.628 75.292C196.918 74.809 196.153 74.4123 195.349 74.1103C194.66 73.7669 194.031 73.3133 193.489 72.7673" fill="#CECECE"/>
<path d="M150.768 107.277C150.768 107.277 149.811 107.469 149.453 109.608C149.313 110.443 147.531 115.338 147.531 115.338L150.685 113.164L151.24 108.815L150.768 107.277Z" fill="#F6F6F6" stroke="#575D68" stroke-width="0.5" stroke-miterlimit="10"/>
<path d="M152.01 106.104C152.01 106.104 151.052 106.296 150.694 108.435C150.554 109.27 148.772 114.165 148.772 114.165L151.926 111.991L152.481 107.642L152.01 106.104Z" fill="#F6F6F6" stroke="#575D68" stroke-width="0.5" stroke-miterlimit="10"/>
<path d="M153.197 104.572C153.197 104.572 152.24 104.765 151.882 106.903C151.742 107.738 149.96 112.633 149.96 112.633L153.114 110.459L153.669 106.11L153.197 104.572Z" fill="#F6F6F6" stroke="#575D68" stroke-width="0.5" stroke-miterlimit="10"/>
<path d="M151.064 125.459L149.26 119.827C149.26 119.827 153.667 114.157 154.719 112.714C155.771 111.271 155.435 103.375 155.435 103.375C155.435 103.375 153.693 104.71 153.443 105.923C153.192 107.137 152.063 110.187 152.063 110.187L148.76 111.743L147.161 113.9C147.161 113.9 144.661 113.657 143.689 112.456C143.261 111.932 142.671 111.564 142.011 111.41C141.352 111.256 140.66 111.325 140.044 111.605C140.773 112.175 141.454 112.803 142.079 113.485C143.585 115.104 144.053 118.274 144.053 118.274L145.471 127.962L151.064 125.459Z" fill="#F6F6F6" stroke="#575D68" stroke-width="0.5" stroke-miterlimit="10"/>
<path d="M140.225 150.943C139.478 149.913 141.22 139.003 142.268 132.845C143.802 123.826 143.848 120.548 143.848 120.548C143.848 120.548 146.715 120.918 147.712 120.918C150.384 120.918 151.275 120.548 151.275 120.548C151.275 120.548 152.779 131.434 153.141 137.105C153.341 140.23 153.391 144.667 153.395 148.022C153.396 148.614 153.269 149.199 153.024 149.738C152.779 150.276 152.422 150.756 151.975 151.145C151.529 151.533 151.004 151.822 150.437 151.99C149.87 152.158 149.273 152.203 148.687 152.121L140.225 150.943Z" fill="#F6F6F6" stroke="#575D68" stroke-width="0.5" stroke-miterlimit="10"/>
<path style="mix-blend-mode:multiply" d="M140.225 150.943C139.478 149.913 141.22 139.003 142.268 132.845C143.802 123.826 143.848 120.548 143.848 120.548C143.848 120.548 146.715 120.918 147.712 120.918C150.384 120.918 151.275 120.548 151.275 120.548C151.275 120.548 152.779 131.434 153.141 137.105C153.341 140.23 153.391 144.667 153.395 148.022C153.396 148.614 153.269 149.199 153.024 149.738C152.779 150.276 152.422 150.756 151.975 151.145C151.529 151.533 151.004 151.822 150.437 151.99C149.87 152.158 149.273 152.203 148.687 152.121L140.225 150.943Z" fill="url(#paint8_linear_3_30376)"/>
<path d="M154.552 263.607C155.426 263.377 156.312 263.191 157.205 263.05C158.116 262.967 159.033 263.133 159.858 263.529L159.589 264.387L157.411 265.225" fill="#E9EAEB"/>
<path d="M154.552 263.607C155.426 263.377 156.312 263.191 157.205 263.05C158.116 262.967 159.033 263.133 159.858 263.529L159.589 264.387L157.411 265.225" stroke="#575D68" stroke-width="0.5" stroke-miterlimit="10"/>
<path d="M119.494 93.3978C119.795 95.3583 120.453 98.0281 121.704 99.5671C121.764 99.6402 121.184 100.923 118.979 101.41" fill="#F6F6F6"/>
<path d="M119.494 93.3978C119.795 95.3583 120.453 98.0281 121.704 99.5671C121.764 99.6402 121.184 100.923 118.979 101.41" stroke="#575D68" stroke-width="0.5" stroke-miterlimit="10"/>
<path d="M99.2367 112.711C106.309 118.91 116.981 120.402 122.748 127.83C121.794 122.779 119.828 117.804 116.353 114.016C114.054 111.51 111.185 109.61 108.348 107.736C106.304 106.386 91.5356 94.5583 91.5356 94.5583C91.5356 94.5583 92.7736 107.047 99.2367 112.711Z" fill="#AFAFAF" stroke="#575D68" stroke-width="0.5" stroke-miterlimit="10"/>
<path d="M88.9627 115.531C88.8291 115.552 88.7002 115.573 88.5773 115.592C87.7864 115.658 87.0346 115.964 86.423 116.47C86.0988 116.821 85.8334 117.222 85.6373 117.658C83.3191 122.03 81.2587 126.533 79.4667 131.145C77.6776 135.891 76.0428 140.693 74.4085 145.494C72.6994 150.515 70.9659 155.768 71.7174 161.019C71.8416 161.886 72.181 162.905 73.0341 163.107C73.656 163.254 74.1855 162.677 74.8105 162.544C83.6248 160.668 86.0387 159.393 89.5772 156.408C90.4167 155.699 91.8066 155.912 92.5356 155.091C93.0472 154.404 93.372 153.596 93.4782 152.746C94.4675 148.002 95.4315 143.257 96.0401 138.446C96.6466 133.652 97.0508 128.686 96.3535 123.879C96.1297 121.909 95.5477 119.996 94.6362 118.235C94.2063 117.361 93.6287 116.568 92.929 115.891C91.93 115.105 90.2349 115.33 88.9627 115.531Z" fill="#F6F6F6" stroke="#575D68" stroke-width="0.5" stroke-miterlimit="10"/>
<path style="mix-blend-mode:multiply" d="M88.9627 115.531C88.8291 115.552 88.7002 115.573 88.5773 115.592C87.7864 115.658 87.0346 115.964 86.423 116.47C86.0988 116.821 85.8334 117.222 85.6373 117.658C83.3191 122.03 81.2587 126.533 79.4667 131.145C77.6776 135.891 76.0428 140.693 74.4085 145.494C72.6994 150.515 70.9659 155.768 71.7174 161.019C71.8416 161.886 72.181 162.905 73.0341 163.107C73.656 163.254 74.1855 162.677 74.8105 162.544C83.6248 160.668 86.0387 159.393 89.5772 156.408C90.4167 155.699 91.8066 155.912 92.5356 155.091C93.0472 154.404 93.372 153.596 93.4782 152.746C94.4675 148.002 95.4315 143.257 96.0401 138.446C96.6466 133.652 97.0508 128.686 96.3535 123.879C96.1297 121.909 95.5477 119.996 94.6362 118.235C94.2063 117.361 93.6287 116.568 92.929 115.891C91.93 115.105 90.2349 115.33 88.9627 115.531Z" fill="url(#paint9_linear_3_30376)"/>
<path d="M91.5359 94.5583C91.0934 92.8961 90.9071 91.1761 90.9834 89.4577C91.2778 83.3857 95.613 77.4256 101.581 76.2698C104.212 75.8497 106.905 76.074 109.429 76.9234C111.7 77.5562 113.782 78.7317 115.497 80.3485C117.213 81.9654 118.509 83.9752 119.274 86.2045C119.918 88.1065 120.746 90.104 120.452 92.1619C120.325 93.0442 119.999 93.8867 119.844 94.7645C119.521 96.5988 119.959 98.437 120.109 100.264C120.165 101.876 119.887 103.482 119.294 104.981C118.346 107.81 116.655 110.483 113.855 111.758C113.118 112.094 109.956 111.97 109.672 112.729C109.295 113.735 111.099 115.51 111.928 116.195C115.441 119.095 121.031 119.475 124.544 122.375C125.861 123.462 126.545 126.771 127.261 128.321C129.764 133.739 127.378 141.316 126.908 146.924C126.658 149.917 127.529 158.503 126.877 161.437C126.684 162.29 126.292 163.085 125.731 163.756C125.17 164.426 124.458 164.954 123.652 165.294C123.652 165.294 127.727 170.913 129.461 173.202C137.864 184.288 137.416 195.238 138.052 199.084C140.137 211.681 143.218 223.684 142.478 236.601C142.288 239.909 141.887 243.211 141.943 246.525C142.007 250.307 142.666 254.05 143.323 257.775C144.101 262.182 145.678 262.568 149.703 262.771C150.297 262.801 153.844 263.259 156.769 263.688C158.091 263.882 159.396 263.273 160.135 263.413C160.588 263.498 160.759 264.766 160.605 265.201C159.721 267.707 156.45 269.047 153.642 269.338C148.257 269.896 144.239 271.189 139.537 272.115C139.043 272.247 138.526 272.277 138.02 272.202C135.411 271.627 135.638 264.755 135.125 262.657C133.218 254.864 128.954 248.166 128.413 239.994C128.145 235.945 128.535 231.844 127.836 227.847C127.267 224.597 113.973 202.812 113.973 202.812C114.377 207.224 114.515 211.658 114.385 216.087C114.265 219.548 113.178 222.768 112.608 226.149C112.069 229.348 112.596 232.504 112.214 235.693C111.86 238.651 111.076 241.557 110.705 244.536C110.226 248.378 110.283 252.305 110.215 256.19C110.12 261.549 108.943 268.506 109.208 272.099C109.269 272.926 114.81 271.47 115.205 271.372C116.644 271.015 120.542 269.403 121.045 269.563C121.328 269.653 121.547 269.893 121.835 269.964C122.111 270.032 122.412 269.934 122.68 270.027C122.851 270.109 123.012 270.211 123.158 270.332C123.831 270.772 124.828 270.568 125.4 271.133C125.588 271.348 125.705 271.615 125.738 271.898C125.771 272.182 125.717 272.469 125.583 272.721C125.305 273.222 124.884 273.628 124.374 273.89C123.215 274.563 122.121 275.169 121.008 275.928C119.802 276.751 118.57 277.536 117.39 278.397C115.295 280.039 113.036 281.462 110.651 282.644C108.447 283.639 106.078 284.217 103.663 284.348C102.934 284.39 102.215 284.16 101.646 283.702C101.077 283.244 100.698 282.59 100.584 281.869C100.461 281.143 100.454 280.403 100.564 279.675C102.111 269.678 98.445 260.59 97.1319 250.805C96.4925 246.04 97.9241 236.395 97.9241 236.395C97.9241 236.395 97.5181 221.298 96.0685 213.923C95.2325 209.67 92.3764 204.811 91.5362 200.559C89.5748 190.634 92.5698 181.063 95.4873 171.375C95.8111 170.53 95.9536 169.625 95.9053 168.721C95.8231 168.087 93.5911 166.452 93.3214 165.873C90.1025 158.958 89.6138 153.214 87.1296 146.031C84.4327 138.234 82.3056 127.111 85.3057 119.201C85.6768 118.091 86.2902 117.077 87.1014 116.232C88.3084 115.077 89.8912 114.545 91.3929 113.896C91.8772 113.687 92.5908 113.306 93.3187 112.985C94.8589 112.296 96.1065 111.085 96.842 109.567" fill="#F6F6F6"/>
<path d="M91.5359 94.5583C91.0934 92.8961 90.9071 91.1761 90.9834 89.4577C91.2778 83.3857 95.613 77.4256 101.581 76.2698C104.212 75.8497 106.905 76.074 109.429 76.9234C111.7 77.5562 113.782 78.7317 115.497 80.3485C117.213 81.9654 118.509 83.9752 119.274 86.2045C119.918 88.1064 120.746 90.104 120.452 92.1619C120.325 93.0442 119.999 93.8867 119.844 94.7645C119.521 96.5988 119.959 98.437 120.109 100.264C120.165 101.876 119.887 103.482 119.294 104.981C118.346 107.81 116.655 110.483 113.855 111.758C113.118 112.094 109.956 111.97 109.672 112.729C109.295 113.735 111.099 115.51 111.928 116.195C115.441 119.095 121.031 119.475 124.544 122.375C125.861 123.462 126.545 126.771 127.261 128.321C129.764 133.739 127.378 141.316 126.908 146.924C126.658 149.917 127.529 158.503 126.877 161.437C126.684 162.29 126.292 163.085 125.731 163.756C125.17 164.426 124.458 164.954 123.652 165.294C123.652 165.294 127.727 170.913 129.461 173.202C137.864 184.288 137.416 195.238 138.052 199.084C140.137 211.681 143.218 223.684 142.478 236.601C142.288 239.909 141.887 243.211 141.943 246.525C142.007 250.307 142.666 254.05 143.323 257.775C144.101 262.182 145.678 262.568 149.703 262.771C150.297 262.801 153.844 263.259 156.769 263.688C158.091 263.882 159.396 263.273 160.135 263.413C160.588 263.498 160.759 264.766 160.605 265.201C159.721 267.707 156.45 269.047 153.642 269.338C148.257 269.896 144.239 271.189 139.537 272.115C139.043 272.247 138.526 272.277 138.02 272.202C135.411 271.627 135.638 264.755 135.125 262.657C133.218 254.864 128.954 248.166 128.413 239.994C128.145 235.945 128.535 231.844 127.836 227.847C127.267 224.597 113.973 202.812 113.973 202.812C114.377 207.224 114.515 211.658 114.385 216.087C114.265 219.548 113.178 222.768 112.608 226.149C112.069 229.348 112.596 232.504 112.214 235.693C111.86 238.651 111.076 241.557 110.705 244.536C110.226 248.378 110.283 252.305 110.215 256.19C110.12 261.549 108.943 268.506 109.208 272.099C109.269 272.926 114.81 271.47 115.205 271.372C116.644 271.015 120.542 269.403 121.045 269.563C121.328 269.653 121.547 269.893 121.835 269.964C122.111 270.032 122.412 269.934 122.68 270.027C122.851 270.109 123.012 270.211 123.158 270.332C123.831 270.772 124.828 270.568 125.4 271.133C125.588 271.348 125.705 271.615 125.738 271.898C125.771 272.182 125.717 272.469 125.583 272.721C125.305 273.222 124.884 273.628 124.374 273.89C123.215 274.563 122.121 275.169 121.008 275.928C119.802 276.751 118.57 277.536 117.39 278.397C115.295 280.039 113.036 281.462 110.651 282.644C108.447 283.639 106.078 284.217 103.663 284.348C102.934 284.39 102.215 284.16 101.646 283.702C101.077 283.244 100.698 282.59 100.584 281.869C100.461 281.143 100.454 280.403 100.564 279.675C102.111 269.678 98.445 260.59 97.1319 250.805C96.4925 246.04 97.9241 236.395 97.9241 236.395C97.9241 236.395 97.5181 221.298 96.0685 213.923C95.2325 209.67 92.3764 204.811 91.5362 200.559C89.5748 190.634 92.5698 181.063 95.4873 171.375C95.8111 170.53 95.9536 169.625 95.9053 168.721C95.8231 168.087 93.5911 166.452 93.3214 165.873C90.1025 158.958 89.6138 153.214 87.1296 146.031C84.4327 138.234 82.3056 127.111 85.3057 119.201C85.6768 118.091 86.2902 117.077 87.1014 116.232C88.3084 115.077 89.8912 114.545 91.3929 113.896C91.8772 113.687 92.5908 113.306 93.3187 112.985C94.8589 112.296 96.1065 111.085 96.842 109.567" stroke="#575D68" stroke-width="0.5" stroke-miterlimit="10"/>
<path style="mix-blend-mode:multiply" d="M91.5359 94.5583C91.0934 92.8961 90.9071 91.1761 90.9834 89.4577C91.2778 83.3857 95.613 77.4256 101.581 76.2698C104.212 75.8497 106.905 76.074 109.429 76.9234C111.7 77.5562 113.782 78.7317 115.497 80.3485C117.213 81.9654 118.509 83.9752 119.274 86.2045C119.918 88.1065 120.746 90.104 120.452 92.1619C120.325 93.0442 119.999 93.8867 119.844 94.7645C119.521 96.5988 119.959 98.437 120.109 100.264C120.165 101.876 119.887 103.482 119.294 104.981C118.346 107.81 116.655 110.483 113.855 111.758C113.118 112.094 109.956 111.97 109.672 112.729C109.295 113.735 111.099 115.51 111.928 116.195C115.441 119.095 121.031 119.475 124.544 122.375C125.861 123.462 126.545 126.771 127.261 128.321C129.764 133.739 127.378 141.316 126.908 146.924C126.658 149.917 127.529 158.503 126.877 161.437C126.684 162.29 126.292 163.085 125.731 163.756C125.17 164.426 124.458 164.954 123.652 165.294C123.652 165.294 127.727 170.913 129.461 173.202C137.864 184.288 137.416 195.238 138.052 199.084C140.137 211.681 143.218 223.684 142.478 236.601C142.288 239.909 141.887 243.211 141.943 246.525C142.007 250.307 142.666 254.05 143.323 257.775C144.101 262.182 145.678 262.568 149.703 262.771C150.297 262.801 153.844 263.259 156.769 263.688C158.091 263.882 159.396 263.273 160.135 263.413C160.588 263.498 160.759 264.766 160.605 265.201C159.721 267.707 156.45 269.047 153.642 269.338C148.257 269.896 144.239 271.189 139.537 272.115C139.043 272.247 138.526 272.277 138.02 272.202C135.411 271.627 135.638 264.755 135.125 262.657C133.218 254.864 128.954 248.166 128.413 239.994C128.145 235.945 128.535 231.844 127.836 227.847C127.267 224.597 113.973 202.812 113.973 202.812C114.377 207.224 114.515 211.658 114.385 216.087C114.265 219.548 113.178 222.768 112.608 226.149C112.069 229.348 112.596 232.504 112.214 235.693C111.86 238.651 111.076 241.557 110.705 244.536C110.226 248.378 110.283 252.305 110.215 256.19C110.12 261.549 108.943 268.506 109.208 272.099C109.269 272.926 114.81 271.47 115.205 271.372C116.644 271.015 120.542 269.403 121.045 269.563C121.328 269.653 121.547 269.893 121.835 269.964C122.111 270.032 122.412 269.934 122.68 270.027C122.851 270.109 123.012 270.211 123.158 270.332C123.831 270.772 124.828 270.568 125.4 271.133C125.588 271.348 125.705 271.615 125.738 271.898C125.771 272.182 125.717 272.469 125.583 272.721C125.305 273.222 124.884 273.628 124.374 273.89C123.215 274.563 122.121 275.169 121.008 275.928C119.802 276.751 118.57 277.536 117.39 278.397C115.295 280.039 113.036 281.462 110.651 282.644C108.447 283.639 106.078 284.217 103.663 284.348C102.934 284.39 102.215 284.16 101.646 283.702C101.077 283.244 100.698 282.59 100.584 281.869C100.461 281.143 100.454 280.403 100.564 279.675C102.111 269.678 98.445 260.59 97.1319 250.805C96.4925 246.04 97.9241 236.395 97.9241 236.395C97.9241 236.395 97.5181 221.298 96.0685 213.923C95.2325 209.67 92.3764 204.811 91.5362 200.559C89.5748 190.634 92.5698 181.063 95.4873 171.375C95.8111 170.53 95.9536 169.625 95.9053 168.721C95.8231 168.087 93.5911 166.452 93.3214 165.873C90.1025 158.958 89.6138 153.214 87.1296 146.031C84.4327 138.234 82.3056 127.111 85.3057 119.201C85.6768 118.091 86.2902 117.077 87.1014 116.232C88.3084 115.077 89.8912 114.545 91.3929 113.896C91.8772 113.687 92.5908 113.306 93.3187 112.985C94.8589 112.296 96.1065 111.085 96.842 109.567" fill="url(#paint10_linear_3_30376)"/>
<path d="M96.842 109.567C96.842 109.567 106.666 110.283 107.143 103.039C107.615 95.8595 110.358 94.0457 110.358 94.0457C110.358 94.0457 115.073 92.9509 116.927 90.786C118.291 89.1935 118.417 88.1542 118.265 85.59C117.83 84.4594 117.317 82.744 116.62 81.755L115.946 80.879C114.063 78.6102 112.254 77.7793 109.429 76.9233C106.905 76.074 104.212 75.8497 101.581 76.2698C95.613 77.4256 91.2778 83.3857 90.9835 89.4577C90.9071 91.1761 91.0934 92.8961 91.536 94.5583" fill="#AFAFAF"/>
<path d="M96.842 109.567C96.842 109.567 106.666 110.283 107.143 103.039C107.615 95.8595 110.358 94.0457 110.358 94.0457C110.358 94.0457 115.073 92.9509 116.927 90.786C118.291 89.1935 118.417 88.1542 118.265 85.59C117.83 84.4594 117.317 82.744 116.62 81.755L115.946 80.879C114.063 78.6102 112.254 77.7793 109.429 76.9233C106.905 76.074 104.212 75.8497 101.581 76.2698C95.613 77.4256 91.2778 83.3857 90.9835 89.4577C90.9071 91.1761 91.0934 92.8961 91.536 94.5583" stroke="#575D68" stroke-width="0.5" stroke-miterlimit="10"/>
<path d="M119.629 140.375C127.142 149.18 137.28 155.052 149.148 154.796C150.185 154.773 151.314 154.667 152.069 153.956C152.795 153.271 152.984 152.204 153.099 151.212C153.91 144.169 140.938 138.638 140.422 138.115C134.77 132.377 125.984 123.072 124.543 122.375" fill="#F6F6F6"/>
<path d="M119.629 140.375C127.142 149.18 137.28 155.052 149.148 154.796C150.185 154.773 151.314 154.667 152.069 153.956C152.795 153.271 152.984 152.204 153.099 151.212C153.91 144.169 140.938 138.638 140.422 138.115C134.77 132.377 125.984 123.072 124.543 122.375" stroke="#575D68" stroke-width="0.5" stroke-miterlimit="10"/>
<path d="M115.546 80.3864C116.909 81.8414 117.848 83.6406 118.264 85.5901C119.165 89.924 116.013 92.9324 109.778 94.1691C107.469 94.627 103.982 96.6906 101.179 99.435" stroke="#575D68" stroke-width="0.5" stroke-miterlimit="10"/>
<g style="mix-blend-mode:multiply">
<path style="mix-blend-mode:multiply" d="M112.685 161.154C104.884 155.081 109.801 136.012 96.3536 123.879C92.3558 120.272 89.1712 118.062 86.6617 116.727C86.0799 117.474 85.6219 118.309 85.3052 119.202C82.3051 127.111 84.4322 138.234 87.1291 146.031C89.6133 153.214 90.102 158.959 93.3209 165.873C93.5906 166.452 95.8226 168.087 95.9048 168.721C95.9075 168.742 97.0798 169.25 97.0821 169.271C97.6769 169.349 100.281 170.107 100.91 170.126C103.743 170.214 106.176 170.634 108.193 170.54C117.231 170.119 119.102 167.604 123.652 165.294C122.151 165.428 117.929 165.237 112.685 161.154Z" fill="url(#paint11_linear_3_30376)"/>
<path style="mix-blend-mode:multiply" d="M122.572 165.564C122.946 165.548 123.314 165.456 123.652 165.294C123.652 165.294 123.257 165.396 122.572 165.564Z" fill="url(#paint12_linear_3_30376)"/>
</g>
<path style="mix-blend-mode:multiply" d="M119.629 140.375C127.142 149.18 137.28 155.052 149.148 154.796C150.185 154.773 151.314 154.667 152.069 153.956C152.795 153.271 152.984 152.204 153.099 151.212C153.91 144.169 140.938 138.638 140.422 138.115C134.77 132.377 125.984 123.072 124.543 122.375" fill="url(#paint13_linear_3_30376)"/>
<path d="M96.002 169.105C98.0494 169.524 100.282 170.097 102.628 170.387C114.7 171.878 123.651 165.294 123.651 165.294" stroke="#575D68" stroke-width="0.5" stroke-miterlimit="10"/>
<path d="M95.0537 173.598C97.3405 174.017 99.8339 174.591 102.455 174.881C110.624 175.73 118.851 173.946 125.935 169.788" stroke="#575D68" stroke-width="0.5" stroke-miterlimit="10"/>
<path d="M93.3738 180.019C94.9753 180.332 96.6032 180.49 98.235 180.491C97.6418 182.725 97.1961 184.996 96.9007 187.288C96.6442 189.182 96.6089 191.777 96.6089 191.777L91.0112 195.008" stroke="#575D68" stroke-width="0.5" stroke-miterlimit="10"/>
<path d="M91.0112 193.835L95.178 191.521C95.178 191.521 95.7242 187.43 96.0174 185.538C96.3391 183.462 96.7769 181.473 96.7769 181.473" stroke="#575D68" stroke-width="0.5" stroke-miterlimit="10"/>
<path d="M111.76 180.21C113.456 180.181 115.145 179.997 116.808 179.663C118.879 179.274 120.926 178.762 122.937 178.132L124.013 188.339L118.524 192.978L112.989 190.161L111.76 180.21Z" stroke="#575D68" stroke-width="0.5" stroke-miterlimit="10"/>
<path d="M122.439 182.544L123.022 188.08L118.258 192.108L113.454 189.662L112.685 183.436" stroke="#575D68" stroke-width="0.5" stroke-miterlimit="10"/>
<path d="M94.8017 112.372C94.8017 112.372 91.5528 115.299 97.7075 116.678C103.862 118.056 111.927 116.195 111.927 116.195" fill="#F6F6F6"/>
<path d="M94.8017 112.372C94.8017 112.372 91.5528 115.299 97.7075 116.678C103.862 118.056 111.927 116.195 111.927 116.195" stroke="#575D68" stroke-width="0.5" stroke-miterlimit="10"/>
<path d="M93.1976 113.056C93.1976 113.056 89.3715 116.503 96.6196 118.127C103.868 119.75 113.365 117.558 113.365 117.558" stroke="#575D68" stroke-width="0.5" stroke-miterlimit="10"/>
<path d="M100.908 170.126C99.7926 169.94 98.7172 169.564 97.7292 169.013C96.4895 168.17 95.5296 166.976 94.9723 165.584C94.384 164.217 92.8379 159.69 92.0327 156.808" stroke="#575D68" stroke-width="0.5" stroke-miterlimit="10"/>
<path d="M134.996 262.484C136.596 262.739 138.23 262.669 139.803 262.28C141.376 261.89 142.854 261.188 144.15 260.216" stroke="#575D68" stroke-width="0.5" stroke-miterlimit="10"/>
<path d="M120.486 167.227C121.685 166.137 122.581 164.754 123.085 163.214C123.585 161.679 123.891 160.088 123.995 158.477C124.246 155.588 124.194 152.68 123.842 149.802" stroke="#575D68" stroke-width="0.5" stroke-miterlimit="10"/>
<path d="M118.891 167.823C120.101 166.018 120.538 163.817 120.863 161.669C121.073 160.823 121.024 159.933 120.722 159.115C120.703 159.062 120.673 159.013 120.634 158.971C120.595 158.93 120.548 158.897 120.495 158.875C120.244 158.803 120.101 159.152 120.074 159.411C119.739 162.593 118.889 165.803 117.005 168.389C116.878 168.609 116.677 168.776 116.437 168.86" stroke="#575D68" stroke-width="0.5" stroke-miterlimit="10"/>
<path d="M101.824 170.276C100.464 169.641 99.3566 168.567 98.682 167.225C98.0424 166.13 97.7209 164.877 97.7537 163.609C97.7728 163.287 97.8877 162.893 98.2054 162.835C98.3472 162.821 98.49 162.85 98.6147 162.92C99.5052 163.34 100.242 164.028 100.722 164.888C102.776 168.567 104.305 169.021 106.479 170.665C106.521 170.697 106.545 170.583 106.494 170.595" stroke="#575D68" stroke-width="0.5" stroke-miterlimit="10"/>
<path d="M121.644 120.546C119.657 120.348 117.719 121.577 116.64 123.257C115.637 124.996 115.134 126.98 115.189 128.987" stroke="#575D68" stroke-width="0.5" stroke-miterlimit="10"/>
<path d="M117.252 141.484C119.426 143.392 121.988 144.806 124.761 145.626" stroke="#575D68" stroke-width="0.5" stroke-miterlimit="10"/>
<path d="M156.769 266.333C157.394 266.279 158.024 266.279 158.649 266.333C159.392 266.432 159.512 266.847 159.512 266.847" fill="#E9EAEB"/>
<path d="M156.769 266.333C157.394 266.279 158.024 266.279 158.649 266.333C159.392 266.432 159.512 266.847 159.512 266.847" stroke="#575D68" stroke-width="0.5" stroke-miterlimit="10"/>
<path d="M156.769 264.809C156.769 264.809 158.044 264.747 158.628 264.679C159.251 264.628 159.878 264.672 160.488 264.809" fill="#E9EAEB"/>
<path d="M156.769 264.809C156.769 264.809 158.044 264.747 158.628 264.679C159.251 264.628 159.878 264.672 160.488 264.809" stroke="#575D68" stroke-width="0.5" stroke-miterlimit="10"/>
<path d="M123.95 270.617C123.95 270.617 122.348 271.406 121.729 272.519L123.95 270.617Z" fill="#E9EAEB"/>
<path d="M123.95 270.617C123.95 270.617 122.348 271.406 121.729 272.519" stroke="#575D68" stroke-width="0.5" stroke-miterlimit="10"/>
<path d="M121.835 269.964L119.897 271.331L121.835 269.964Z" fill="#E9EAEB"/>
<path d="M121.835 269.964L119.897 271.331" stroke="#575D68" stroke-width="0.5" stroke-miterlimit="10"/>
<path d="M119.898 269.796C119.437 270.228 118.945 270.625 118.425 270.985L119.898 269.796Z" fill="#E9EAEB"/>
<path d="M119.898 269.796C119.437 270.228 118.945 270.625 118.425 270.985" stroke="#575D68" stroke-width="0.5" stroke-miterlimit="10"/>
<path d="M100.472 268.506C101.811 268.777 103.179 268.878 104.543 268.807C107.722 268.506 109.389 267.323 109.389 267.323" fill="#E9EAEB"/>
<path d="M100.472 268.506C101.811 268.777 103.179 268.878 104.543 268.807C107.722 268.506 109.389 267.323 109.389 267.323" stroke="#575D68" stroke-width="0.5" stroke-miterlimit="10"/>
<path d="M147.16 113.9C147.856 113.911 148.552 113.865 149.241 113.762C149.517 113.631 152.234 111.457 152.234 111.457" fill="#F6F6F6"/>
<path d="M147.16 113.9C147.856 113.911 148.552 113.865 149.241 113.762C149.517 113.631 152.234 111.457 152.234 111.457" stroke="#575D68" stroke-width="0.5" stroke-miterlimit="10"/>
<path style="mix-blend-mode:multiply" d="M106.523 204.608L104.665 227.198L110.703 244.536C111.074 241.557 111.859 238.651 112.213 235.693C112.594 232.504 112.068 229.348 112.607 226.149C113.176 222.768 114.264 219.548 114.383 216.087C114.514 211.658 114.376 207.224 113.971 202.812L108.131 193.835L106.523 204.608Z" fill="url(#paint14_linear_3_30376)"/>
<path style="mix-blend-mode:multiply" d="M134.995 233.709C135.028 233.181 135.032 232.615 135.013 232.028C134.88 228.937 134.069 225.914 132.637 223.172C131.206 220.43 129.189 218.037 126.729 216.161L117.854 209.278C121.826 215.976 127.469 225.753 127.835 227.847C128.534 231.844 128.143 235.945 128.412 239.994C128.953 248.166 133.217 254.864 135.123 262.657C135.13 262.683 135.135 262.718 135.141 262.746C136.439 259.136 137.816 253.761 136.382 251.377C134.06 247.517 134.695 238.46 134.995 233.709Z" fill="url(#paint15_linear_3_30376)"/>
<path style="mix-blend-mode:multiply" d="M156.199 61.7911C156.652 59.0081 157.678 56.3495 159.213 53.9839C160.747 51.6182 162.756 49.5971 165.112 48.0485L167.393 52.6852C165.509 53.8996 163.893 55.4864 162.645 57.3481C161.397 59.2098 160.543 61.307 160.136 63.5109C159.049 69.5278 161.414 76.7346 166.5 82.5943C165.38 83.7658 164.327 84.875 163.342 85.9373C157.617 78.1045 155.061 69.2371 156.199 61.7911ZM169.581 79.363C170.424 78.4754 171.297 77.5454 172.201 76.5731C169.252 74.2031 167.723 70.6327 168.433 67.7018C168.688 66.6732 169.219 65.7337 169.969 64.9846C170.718 64.2355 171.658 63.7052 172.687 63.4509L170.304 58.6049C168.851 59.2548 167.571 60.238 166.569 61.4748C165.567 62.7116 164.87 64.1671 164.536 65.7234C163.602 70.1138 165.561 75.4063 169.581 79.363ZM158.355 91.9963C158.555 91.6257 160.605 88.8062 161.135 88.1991C154.912 78.6955 152.217 68.4815 153.365 59.8151C154.246 53.1687 157.877 47.507 163.054 41.8216L160.633 37.177C154.841 43.629 150.644 49.1595 149.218 57.5917C147.588 67.2253 148.939 79.8114 158.355 91.9963Z" fill="url(#paint16_linear_3_30376)"/>
<g style="mix-blend-mode:multiply" opacity="0.8">
<path d="M196.978 44.0653L196.976 47.4135L203.749 50.3347L203.751 46.7107L196.978 44.0653ZM199.137 48.8664L199.131 60.34L201.611 61.7733L201.617 49.9617L199.137 48.8665V48.8664ZM204.666 47.068L204.657 63.5342L207.27 65.0444L207.278 48.0882L204.666 47.068V47.068ZM207.765 48.2783L207.763 52.0662L211.536 53.6933L211.538 49.752L207.765 48.2783V48.2783ZM207.762 54.8855L207.76 58.7424L210.236 59.9938L210.238 56.0327L207.762 54.8855V54.8855ZM207.758 61.5225L207.756 65.3257L211.529 67.5064L211.531 63.5514L207.758 61.5225H207.758ZM221.296 53.557L221.286 73.1461L224.711 75.1259L224.721 54.8948L221.296 53.557H221.296ZM225.361 55.1444L225.358 59.6504L230.35 61.8036L230.352 57.0938L225.361 55.1445V55.1444ZM225.357 63.0392L225.354 67.6286L228.626 69.2813L228.628 64.5566L225.357 63.0392ZM225.352 70.9831L225.35 75.4956L230.341 78.3807L230.344 73.6672L225.352 70.9831ZM212.537 50.1416L212.527 68.0835L215.503 69.8038L215.513 51.3039L212.537 50.1416ZM216.061 65.9876L216.059 70.1247L220.379 72.6218L220.381 68.3108L216.061 65.9876H216.061ZM241.543 63.3406C240.603 61.4889 239.045 60.0249 237.138 59.2032L237.135 64.2008C237.503 64.3947 237.828 64.6612 238.09 64.984C238.353 65.3069 238.547 65.6796 238.661 66.0795C238.849 66.732 238.856 67.4234 238.682 68.0797C238.508 68.7359 238.158 69.3325 237.671 69.8055C236.164 71.3046 232.159 73.8403 232.159 73.8403L237.905 76.9101C241.419 74.3645 242.682 72.3162 242.91 68.9808C242.981 67.0108 242.508 65.0594 241.543 63.3406V63.3406ZM243.104 85.7577L243.106 80.5284L231.45 74.2591L243.104 85.7577ZM231.45 74.2589L231.449 79.0205L243.104 85.7575L231.45 74.2589ZM236.468 58.928C233.081 57.9325 231.417 60.2939 231.606 65.8264L235.216 67.4861C235.053 64.3281 235.756 64.0075 236.467 64.0187L236.468 58.928" fill="#AFAFAF"/>
</g>
<path style="mix-blend-mode:multiply" d="M222.567 97.0255C220.941 103.139 217.219 106.941 212.769 108.089L210.653 102.138C213.865 101.287 216.506 98.4816 217.586 94.0315C219.235 87.2393 216.736 78.844 211.731 73.7348C212.787 71.9525 213.855 70.135 214.935 68.2823C221.85 75.7813 225.07 87.6186 222.567 97.0255ZM209.19 78.0304C208.575 79.0743 207.969 80.112 207.371 81.1434C208.421 82.126 209.21 83.354 209.668 84.7169C210.126 86.0799 210.239 87.5353 209.995 88.9524C209.606 90.8241 208.501 91.9877 207.138 92.2549L208.654 96.5174C210.787 95.9569 212.515 94.0639 213.176 91.0907C214.165 86.6407 212.449 81.2355 209.19 78.0304ZM220.87 57.4397C220.537 58.2387 220.19 59.0172 219.811 59.7572C219.108 61.1319 218.379 62.4568 217.65 63.7569C226.451 73.6077 230.302 88.8043 226.895 100.641C224.711 108.228 219.963 112.869 214.373 114.237L216.359 119.794C223.152 118.228 229.023 112.747 231.87 103.63C236.417 89.0721 231.9 69.9495 220.87 57.4397Z" fill="url(#paint17_linear_3_30376)"/>
<path d="M-144.806 280.725V312.63L24.9632 409.183C27.4722 410.61 30.3088 411.361 33.1951 411.362C36.0815 411.364 38.9187 410.615 41.4288 409.19L155.54 342.462C157.184 341.5 158.547 340.126 159.495 338.474C160.442 336.822 160.941 334.952 160.941 333.048V298.563" fill="#F6F6F6"/>
<path d="M-144.806 280.725V312.63L24.9632 409.183C27.4722 410.61 30.3088 411.361 33.1951 411.362C36.0815 411.364 38.9187 410.615 41.4288 409.19L155.54 342.462C157.184 341.5 158.547 340.126 159.495 338.474C160.442 336.822 160.941 334.952 160.941 333.048V298.563" stroke="#575D68" stroke-width="0.5" stroke-miterlimit="10"/>
<path d="M-144.806 302.303L24.9632 398.857C27.4722 400.284 30.3088 401.034 33.1951 401.036C36.0815 401.037 38.9187 400.288 41.4288 398.863L155.54 332.135C157.184 331.174 158.547 329.799 159.495 328.147C160.442 326.496 160.941 324.625 160.941 322.721" fill="#F6F6F6"/>
<path d="M-144.806 302.303L24.9632 398.857C27.4722 400.284 30.3088 401.034 33.1951 401.036C36.0815 401.037 38.9187 400.288 41.4288 398.863L155.54 332.135C157.184 331.174 158.547 329.799 159.495 328.147C160.442 326.496 160.941 324.625 160.941 322.721" stroke="#575D68" stroke-width="0.5" stroke-miterlimit="10"/>
<path d="M-140.987 272.078V180.931C-140.987 179.91 -140.715 178.908 -140.199 178.027C-139.683 177.147 -138.941 176.419 -138.051 175.921L-2.69897 100.108C-2.30756 99.8892 -1.8656 99.7762 -1.41702 99.7808C-0.968445 99.7854 -0.52887 99.9072 -0.141983 100.134C0.244888 100.361 0.565582 100.686 0.788223 101.075C1.01085 101.465 1.12769 101.906 1.12708 102.354L1.01027 189.87C1.00827 191.357 0.615555 192.818 -0.128601 194.106C-0.872757 195.394 -1.94223 196.464 -3.22992 197.209L-136.884 274.446C-137.3 274.686 -137.772 274.812 -138.252 274.813C-138.732 274.813 -139.204 274.686 -139.619 274.446C-140.035 274.206 -140.381 273.861 -140.621 273.445C-140.861 273.03 -140.987 272.558 -140.987 272.078Z" fill="#F6F6F6" stroke="#575D68" stroke-width="0.5" stroke-miterlimit="10"/>
<path d="M-137.968 274.428V183.281C-137.968 182.261 -137.696 181.258 -137.18 180.378C-136.663 179.497 -135.922 178.77 -135.031 178.271L0.320541 102.459" fill="#F6F6F6"/>
<path d="M-137.968 274.428V183.281C-137.968 182.261 -137.696 181.258 -137.18 180.378C-136.663 179.497 -135.922 178.77 -135.031 178.271L0.320549 102.459" stroke="#575D68" stroke-width="0.5" stroke-miterlimit="10"/>
<path d="M-144.806 280.725L-0.0915222 197.201L155.392 286.991C157.079 287.966 158.48 289.367 159.454 291.054C160.428 292.741 160.941 294.655 160.941 296.604C160.941 298.552 160.428 300.466 159.454 302.153C158.48 303.84 157.079 305.242 155.392 306.216L44.1919 370.443C39.2472 373.299 33.6393 374.807 27.9291 374.815C22.2189 374.823 16.6067 373.332 11.6538 370.49L-144.806 280.725Z" fill="#F6F6F6" stroke="#575D68" stroke-width="0.5" stroke-miterlimit="10"/>
<path d="M-53.6699 215.116C-53.6699 215.116 -50.7608 227.135 -41.2796 231.999C-31.7984 236.863 -18.6384 238.02 -18.6384 238.02L13.5779 219.387C14.4769 218.867 15.2411 218.143 15.8085 217.273C16.376 216.403 16.7308 215.412 16.8444 214.38C16.958 213.347 16.8271 212.303 16.4623 211.33C16.0975 210.358 15.5091 209.485 14.7446 208.782C9.48968 203.939 1.68588 197.929 -5.53405 196.938C-17.9226 195.236 -23.8146 197.825 -23.8146 197.825L-53.6699 215.116Z" fill="#F6F6F6" stroke="#575D68" stroke-width="0.5" stroke-miterlimit="10"/>
<path d="M-100.268 306.277L45.8857 223.753L63.3866 233.859L-64.3628 306.727" fill="#F6F6F6"/>
<path d="M-100.268 306.277L45.8857 223.753L63.3866 233.859L-64.3628 306.727" stroke="#575D68" stroke-width="0.5" stroke-miterlimit="10"/>
<path d="M11.3941 192.514L21.7233 187.256L23.0102 189.31L12.0676 193.959C11.9064 194.027 11.7271 194.041 11.5575 193.997C11.3879 193.953 11.2373 193.855 11.129 193.718C11.0562 193.625 11.0048 193.517 10.9785 193.402C10.9523 193.287 10.9518 193.168 10.9772 193.053C11.0025 192.938 11.0531 192.83 11.1252 192.737C11.1973 192.644 11.2891 192.568 11.3941 192.514Z" fill="#F6F6F6" stroke="#575D68" stroke-width="0.5" stroke-miterlimit="10"/>
<path d="M21.7231 187.256L25.1208 183.226L28.0138 188.852L23.0101 189.31L21.7231 187.256Z" fill="#F6F6F6" stroke="#575D68" stroke-width="0.5" stroke-miterlimit="10"/>
<path d="M20.2307 177.373L20.2726 179.248L1.31901 190.407L-5.62688 186.094L-5.6626 184.512" fill="#F6F6F6"/>
<path d="M20.2307 177.373L20.2726 179.248L1.31901 190.407L-5.62688 186.094L-5.6626 184.512" stroke="#575D68" stroke-width="0.5" stroke-miterlimit="10"/>
<path d="M13.1509 173.498L20.2307 177.373L1.27938 188.656L-5.6626 184.512L13.1509 173.498Z" fill="#F6F6F6" stroke="#575D68" stroke-width="0.5" stroke-miterlimit="10"/>
<path opacity="0.17" d="M62.411 103.557C69.0054 109.336 78.7294 111.023 84.6871 117.248L85.4966 116.727C84.4314 112.361 82.5495 108.161 79.5229 104.862C77.2246 102.356 74.3564 100.457 71.5194 98.583C69.4762 97.2337 54.7119 85.4087 54.7119 85.4087C54.7119 85.4087 55.9495 97.8938 62.411 103.557Z" fill="#AFAFAF" stroke="#575D68" stroke-width="0.5" stroke-miterlimit="10"/>
<g opacity="0.17">
<path d="M60.0157 100.413C60.0157 100.413 69.8371 101.129 70.3136 93.8873C70.7859 86.7096 73.5281 84.8963 73.5281 84.8963C73.5281 84.8963 78.2418 83.8018 80.0955 81.6374C81.4592 80.0454 81.5848 79.0064 81.4332 76.4429C80.9985 75.3126 80.4857 73.5976 79.788 72.6088L79.1149 71.733C77.2322 69.4649 75.424 68.6342 72.5998 67.7785C70.0758 66.9293 67.3834 66.7051 64.7537 67.1251C58.7871 68.2805 54.453 74.2391 54.1587 80.3095C54.0824 82.0274 54.2687 83.747 54.7111 85.4087" fill="#AFAFAF"/>
<path d="M60.0157 100.413C60.0157 100.413 69.8371 101.129 70.3136 93.8873C70.7859 86.7096 73.5281 84.8963 73.5281 84.8963C73.5281 84.8963 78.2418 83.8018 80.0955 81.6374C81.4592 80.0454 81.5848 79.0064 81.4332 76.4429C80.9985 75.3126 80.4857 73.5976 79.7881 72.6088L79.1149 71.733C77.2322 69.4649 75.424 68.6342 72.5998 67.7785C70.0758 66.9293 67.3834 66.7051 64.7537 67.1251C58.7871 68.2805 54.453 74.2391 54.1587 80.3095C54.0824 82.0274 54.2687 83.747 54.7111 85.4087" stroke="#575D68" stroke-width="0.5" stroke-miterlimit="10"/>
</g>
<path opacity="0.17" d="M87.7108 113.218C84.1986 110.318 78.6096 109.939 75.0974 107.039C74.2689 106.355 72.466 104.581 72.8429 103.574C73.1269 102.816 76.2877 102.939 77.0248 102.604C79.8233 101.329 81.5145 98.6564 82.4616 95.8291C83.055 94.33 83.3326 92.7245 83.2768 91.1131C83.1264 89.2864 82.6884 87.4486 83.0119 85.6148C83.1668 84.7373 83.4929 83.895 83.6192 83.0129C83.9138 80.9555 83.0859 78.9586 82.4419 77.0571C81.6768 74.8284 80.381 72.8191 78.6664 71.2027C76.9518 69.5862 74.8698 68.411 72.5998 67.7784C70.0758 66.9292 67.3835 66.705 64.7538 67.125C58.7872 68.2805 54.4531 74.2391 54.1588 80.3095C54.0825 82.0274 54.2688 83.7469 54.7112 85.4087L60.0158 100.413C59.2805 101.931 58.0332 103.141 56.4935 103.83C55.7658 104.152 55.0523 104.533 54.5682 104.742C53.0668 105.39 51.4845 105.922 50.2778 107.077C49.4668 107.921 48.8536 108.935 48.4825 110.045C45.4833 117.953 47.6098 129.073 50.306 136.868C50.3271 136.929 50.3455 136.988 50.3663 137.049L88.823 114.862C88.5739 114.241 88.1947 113.68 87.7108 113.218Z" fill="#AFAFAF" stroke="#575D68" stroke-width="0.5" stroke-miterlimit="10"/>
<defs>
<linearGradient id="paint0_linear_3_30376" x1="148.487" y1="127.903" x2="147.003" y2="145.225" gradientUnits="userSpaceOnUse">
<stop stop-color="white" stop-opacity="0"/>
<stop offset="0.08429" stop-color="#FBFBFB" stop-opacity="0.17606"/>
<stop offset="0.23485" stop-color="#F5F5F5" stop-opacity="0.46586"/>
<stop offset="0.37109" stop-color="#F0F0F0" stop-opacity="0.6957"/>
<stop offset="0.48814" stop-color="#EDEDED" stop-opacity="0.86128"/>
<stop offset="0.58137" stop-color="#EBEBEB" stop-opacity="0.96275"/>
<stop offset="0.63922" stop-color="#EAEAEA"/>
</linearGradient>
<linearGradient id="paint1_linear_3_30376" x1="68.3677" y1="157.441" x2="83.6111" y2="141.801" gradientUnits="userSpaceOnUse">
<stop offset="0.09869" stop-color="white" stop-opacity="0"/>
<stop offset="0.16838" stop-color="#FDFDFD" stop-opacity="0.08001"/>
<stop offset="0.98024" stop-color="#EAEAEA"/>
</linearGradient>
<linearGradient id="paint2_linear_3_30376" x1="122.252" y1="149.634" x2="122.252" y2="280.975" gradientUnits="userSpaceOnUse">
<stop offset="0.04603" stop-color="white" stop-opacity="0"/>
<stop offset="0.0463" stop-color="white" stop-opacity="0.01"/>
<stop offset="0.05885" stop-color="#FAFAFA" stop-opacity="0.23624"/>
<stop offset="0.07168" stop-color="#F6F6F6" stop-opacity="0.43819"/>
<stop offset="0.08487" stop-color="#F2F2F2" stop-opacity="0.61103"/>
<stop offset="0.0983" stop-color="#EFEFEF" stop-opacity="0.75195"/>
<stop offset="0.11204" stop-color="#EDEDED" stop-opacity="0.86113"/>
<stop offset="0.12623" stop-color="#EBEBEB" stop-opacity="0.93878"/>
<stop offset="0.14113" stop-color="#EAEAEA" stop-opacity="0.98499"/>
<stop offset="0.15793" stop-color="#EAEAEA"/>
<stop offset="0.45514" stop-color="#EAEAEA" stop-opacity="0.99199"/>
<stop offset="0.56221" stop-color="#EBEBEB" stop-opacity="0.96297"/>
<stop offset="0.63852" stop-color="#ECECEC" stop-opacity="0.91244"/>
<stop offset="0.70025" stop-color="#EDEDED" stop-opacity="0.84022"/>
<stop offset="0.75314" stop-color="#EFEFEF" stop-opacity="0.74608"/>
<stop offset="0.79999" stop-color="#F2F2F2" stop-opacity="0.62977"/>
<stop offset="0.84233" stop-color="#F5F5F5" stop-opacity="0.49122"/>
<stop offset="0.88127" stop-color="#F8F8F8" stop-opacity="0.32991"/>
<stop offset="0.91592" stop-color="#FCFCFC" stop-opacity="0.15419"/>
<stop offset="0.94186" stop-color="white" stop-opacity="0"/>
</linearGradient>
<linearGradient id="paint3_linear_3_30376" x1="97.5231" y1="120.2" x2="110.589" y2="180.976" gradientUnits="userSpaceOnUse">
<stop offset="0.09869" stop-color="white" stop-opacity="0"/>
<stop offset="0.16838" stop-color="#FDFDFD" stop-opacity="0.08001"/>
<stop offset="0.98024" stop-color="#EAEAEA"/>
</linearGradient>
<linearGradient id="paint4_linear_3_30376" x1="112.687" y1="116.939" x2="125.754" y2="177.716" gradientUnits="userSpaceOnUse">
<stop offset="0.09869" stop-color="white" stop-opacity="0"/>
<stop offset="0.16838" stop-color="#FDFDFD" stop-opacity="0.08001"/>
<stop offset="0.98024" stop-color="#EAEAEA"/>
</linearGradient>
<linearGradient id="paint5_linear_3_30376" x1="123.156" y1="133.474" x2="151.168" y2="150.005" gradientUnits="userSpaceOnUse">
<stop stop-color="white" stop-opacity="0"/>
<stop offset="0.12727" stop-color="#FBFBFB" stop-opacity="0.17606"/>
<stop offset="0.35458" stop-color="#F5F5F5" stop-opacity="0.46586"/>
<stop offset="0.56027" stop-color="#F0F0F0" stop-opacity="0.6957"/>
<stop offset="0.737" stop-color="#EDEDED" stop-opacity="0.86128"/>
<stop offset="0.87777" stop-color="#EBEBEB" stop-opacity="0.96275"/>
<stop offset="0.9651" stop-color="#EAEAEA"/>
</linearGradient>
<linearGradient id="paint6_linear_3_30376" x1="116.224" y1="196.087" x2="103.01" y2="240.927" gradientUnits="userSpaceOnUse">
<stop offset="0.076" stop-color="#EAEAEA" stop-opacity="0.6"/>
<stop offset="0.2028" stop-color="#EBEBEB" stop-opacity="0.57505"/>
<stop offset="0.36977" stop-color="#EDEDED" stop-opacity="0.50421"/>
<stop offset="0.5592" stop-color="#F1F1F1" stop-opacity="0.38749"/>
<stop offset="0.7652" stop-color="#F7F7F7" stop-opacity="0.22478"/>
<stop offset="0.98232" stop-color="#FEFEFE" stop-opacity="0.01827"/>
<stop offset="1" stop-color="white" stop-opacity="0"/>
</linearGradient>
<linearGradient id="paint7_linear_3_30376" x1="133.438" y1="207.679" x2="121.115" y2="258.903" gradientUnits="userSpaceOnUse">
<stop offset="0.076" stop-color="#EAEAEA" stop-opacity="0.6"/>
<stop offset="0.2028" stop-color="#EBEBEB" stop-opacity="0.57505"/>
<stop offset="0.36977" stop-color="#EDEDED" stop-opacity="0.50421"/>
<stop offset="0.5592" stop-color="#F1F1F1" stop-opacity="0.38749"/>
<stop offset="0.7652" stop-color="#F7F7F7" stop-opacity="0.22478"/>
<stop offset="0.98232" stop-color="#FEFEFE" stop-opacity="0.01827"/>
<stop offset="1" stop-color="white" stop-opacity="0"/>
</linearGradient>
<linearGradient id="paint8_linear_3_30376" x1="148.487" y1="127.903" x2="147.003" y2="145.225" gradientUnits="userSpaceOnUse">
<stop stop-color="white" stop-opacity="0"/>
<stop offset="0.08429" stop-color="#FBFBFB" stop-opacity="0.17606"/>
<stop offset="0.23485" stop-color="#F5F5F5" stop-opacity="0.46586"/>
<stop offset="0.37109" stop-color="#F0F0F0" stop-opacity="0.6957"/>
<stop offset="0.48814" stop-color="#EDEDED" stop-opacity="0.86128"/>
<stop offset="0.58137" stop-color="#EBEBEB" stop-opacity="0.96275"/>
<stop offset="0.63922" stop-color="#EAEAEA"/>
</linearGradient>
<linearGradient id="paint9_linear_3_30376" x1="68.3677" y1="157.441" x2="83.6111" y2="141.801" gradientUnits="userSpaceOnUse">
<stop offset="0.09869" stop-color="white" stop-opacity="0"/>
<stop offset="0.16838" stop-color="#FDFDFD" stop-opacity="0.08001"/>
<stop offset="0.98024" stop-color="#EAEAEA"/>
</linearGradient>
<linearGradient id="paint10_linear_3_30376" x1="122.252" y1="149.634" x2="122.252" y2="280.975" gradientUnits="userSpaceOnUse">
<stop offset="0.04603" stop-color="white" stop-opacity="0"/>
<stop offset="0.0463" stop-color="white" stop-opacity="0.01"/>
<stop offset="0.05885" stop-color="#FAFAFA" stop-opacity="0.23624"/>
<stop offset="0.07168" stop-color="#F6F6F6" stop-opacity="0.43819"/>
<stop offset="0.08487" stop-color="#F2F2F2" stop-opacity="0.61103"/>
<stop offset="0.0983" stop-color="#EFEFEF" stop-opacity="0.75195"/>
<stop offset="0.11204" stop-color="#EDEDED" stop-opacity="0.86113"/>
<stop offset="0.12623" stop-color="#EBEBEB" stop-opacity="0.93878"/>
<stop offset="0.14113" stop-color="#EAEAEA" stop-opacity="0.98499"/>
<stop offset="0.15793" stop-color="#EAEAEA"/>
<stop offset="0.45514" stop-color="#EAEAEA" stop-opacity="0.99199"/>
<stop offset="0.56221" stop-color="#EBEBEB" stop-opacity="0.96297"/>
<stop offset="0.63852" stop-color="#ECECEC" stop-opacity="0.91244"/>
<stop offset="0.70025" stop-color="#EDEDED" stop-opacity="0.84022"/>
<stop offset="0.75314" stop-color="#EFEFEF" stop-opacity="0.74608"/>
<stop offset="0.79999" stop-color="#F2F2F2" stop-opacity="0.62977"/>
<stop offset="0.84233" stop-color="#F5F5F5" stop-opacity="0.49122"/>
<stop offset="0.88127" stop-color="#F8F8F8" stop-opacity="0.32991"/>
<stop offset="0.91592" stop-color="#FCFCFC" stop-opacity="0.15419"/>
<stop offset="0.94186" stop-color="white" stop-opacity="0"/>
</linearGradient>
<linearGradient id="paint11_linear_3_30376" x1="97.5231" y1="120.2" x2="110.589" y2="180.976" gradientUnits="userSpaceOnUse">
<stop offset="0.09869" stop-color="white" stop-opacity="0"/>
<stop offset="0.16838" stop-color="#FDFDFD" stop-opacity="0.08001"/>
<stop offset="0.98024" stop-color="#EAEAEA"/>
</linearGradient>
<linearGradient id="paint12_linear_3_30376" x1="112.687" y1="116.939" x2="125.754" y2="177.716" gradientUnits="userSpaceOnUse">
<stop offset="0.09869" stop-color="white" stop-opacity="0"/>
<stop offset="0.16838" stop-color="#FDFDFD" stop-opacity="0.08001"/>
<stop offset="0.98024" stop-color="#EAEAEA"/>
</linearGradient>
<linearGradient id="paint13_linear_3_30376" x1="123.156" y1="133.474" x2="151.168" y2="150.005" gradientUnits="userSpaceOnUse">
<stop stop-color="white" stop-opacity="0"/>
<stop offset="0.12727" stop-color="#FBFBFB" stop-opacity="0.17606"/>
<stop offset="0.35458" stop-color="#F5F5F5" stop-opacity="0.46586"/>
<stop offset="0.56027" stop-color="#F0F0F0" stop-opacity="0.6957"/>
<stop offset="0.737" stop-color="#EDEDED" stop-opacity="0.86128"/>
<stop offset="0.87777" stop-color="#EBEBEB" stop-opacity="0.96275"/>
<stop offset="0.9651" stop-color="#EAEAEA"/>
</linearGradient>
<linearGradient id="paint14_linear_3_30376" x1="116.224" y1="196.087" x2="103.01" y2="240.927" gradientUnits="userSpaceOnUse">
<stop offset="0.076" stop-color="#EAEAEA" stop-opacity="0.6"/>
<stop offset="0.2028" stop-color="#EBEBEB" stop-opacity="0.57505"/>
<stop offset="0.36977" stop-color="#EDEDED" stop-opacity="0.50421"/>
<stop offset="0.5592" stop-color="#F1F1F1" stop-opacity="0.38749"/>
<stop offset="0.7652" stop-color="#F7F7F7" stop-opacity="0.22478"/>
<stop offset="0.98232" stop-color="#FEFEFE" stop-opacity="0.01827"/>
<stop offset="1" stop-color="white" stop-opacity="0"/>
</linearGradient>
<linearGradient id="paint15_linear_3_30376" x1="133.438" y1="207.679" x2="121.115" y2="258.903" gradientUnits="userSpaceOnUse">
<stop offset="0.076" stop-color="#EAEAEA" stop-opacity="0.6"/>
<stop offset="0.2028" stop-color="#EBEBEB" stop-opacity="0.57505"/>
<stop offset="0.36977" stop-color="#EDEDED" stop-opacity="0.50421"/>
<stop offset="0.5592" stop-color="#F1F1F1" stop-opacity="0.38749"/>
<stop offset="0.7652" stop-color="#F7F7F7" stop-opacity="0.22478"/>
<stop offset="0.98232" stop-color="#FEFEFE" stop-opacity="0.01827"/>
<stop offset="1" stop-color="white" stop-opacity="0"/>
</linearGradient>
<linearGradient id="paint16_linear_3_30376" x1="153.354" y1="56.4645" x2="188.314" y2="102.728" gradientUnits="userSpaceOnUse">
<stop stop-color="#F8D5C8"/>
<stop offset="0.0964" stop-color="#F8D6C9" stop-opacity="0.98005"/>
<stop offset="0.2104" stop-color="#F8D8CC" stop-opacity="0.92205"/>
<stop offset="0.33331" stop-color="#F8DBD0" stop-opacity="0.82594"/>
<stop offset="0.46259" stop-color="#F7DFD6" stop-opacity="0.69152"/>
<stop offset="0.59682" stop-color="#F7E5DE" stop-opacity="0.51869"/>
<stop offset="0.7352" stop-color="#F7ECE8" stop-opacity="0.3073"/>
<stop offset="0.87441" stop-color="#F6F4F3" stop-opacity="0.06236"/>
<stop offset="0.90726" stop-color="#F6F6F6" stop-opacity="0"/>
</linearGradient>
<linearGradient id="paint17_linear_3_30376" x1="225.905" y1="99.0627" x2="187.325" y2="41.9169" gradientUnits="userSpaceOnUse">
<stop stop-color="#F8D5C8"/>
<stop offset="0.0964" stop-color="#F8D6C9" stop-opacity="0.98005"/>
<stop offset="0.2104" stop-color="#F8D8CC" stop-opacity="0.92205"/>
<stop offset="0.33331" stop-color="#F8DBD0" stop-opacity="0.82594"/>
<stop offset="0.46259" stop-color="#F7DFD6" stop-opacity="0.69152"/>
<stop offset="0.59682" stop-color="#F7E5DE" stop-opacity="0.51869"/>
<stop offset="0.7352" stop-color="#F7ECE8" stop-opacity="0.3073"/>
<stop offset="0.87441" stop-color="#F6F4F3" stop-opacity="0.06236"/>
<stop offset="0.90726" stop-color="#F6F6F6" stop-opacity="0"/>
</linearGradient>
</defs>
</svg>
