<svg width="17" height="28" viewBox="0 0 17 28" fill="none" xmlns="http://www.w3.org/2000/svg">
<path d="M8.12588 0C4.19032 0 1 3.19042 1 7.12588C1 11.0614 4.19032 14.2521 8.12588 14.2521C12.0614 14.2521 15.2518 11.0614 15.2518 7.12588C15.2518 3.19042 12.0614 0 8.12588 0ZM8.12588 10.0718C6.49906 10.0718 5.1802 8.75281 5.1802 7.12598C5.1802 5.49916 6.49906 4.1803 8.12588 4.1803C9.7527 4.1803 11.0716 5.49916 11.0716 7.12598C11.0716 8.75281 9.7527 10.0718 8.12588 10.0718Z" fill="#C4C4C4"/>
<path d="M10.6417 19.9222C13.4945 19.341 15.204 17.99 15.2945 17.9175C16.1293 17.2481 16.2634 16.0286 15.5939 15.1937C14.9245 14.359 13.7052 14.2249 12.8702 14.8942C12.8526 14.9085 11.0292 16.3072 8.0292 16.3093C5.02926 16.3072 3.16739 14.9085 3.14974 14.8942C2.31476 14.2249 1.09544 14.359 0.426066 15.1937C-0.243407 16.0286 -0.109308 17.2481 0.725468 17.9175C0.817145 17.9911 2.59724 19.3772 5.52997 19.9447L1.44267 24.2163C0.699873 24.9866 0.722205 26.2132 1.49253 26.956C1.86852 27.3185 2.35311 27.4987 2.83729 27.4987C3.34493 27.4987 3.85205 27.3003 4.23222 26.906L8.0293 22.8611L12.2099 26.9322C12.9674 27.6885 14.194 27.6872 14.95 26.9301C15.7061 26.1728 15.7051 24.946 14.9479 24.19L10.6417 19.9222Z" fill="#C4C4C4"/>
<path d="M8.02973 16.3091C8.0232 16.3091 8.03612 16.3092 8.02973 16.3094C8.02334 16.3092 8.03626 16.3091 8.02973 16.3091Z" fill="#C4C4C4"/>
</svg>
