<svg width="340" height="300" viewBox="0 0 340 300" fill="none" xmlns="http://www.w3.org/2000/svg">
<path d="M278.96 -64.304H27.7615V283.815H278.96V-64.304Z" fill="#F6F6F6"/>
<path d="M196.485 -91.9998L485.548 74.9062L485.368 271.697L196.514 104.888L-10 224.61" stroke="#575D68" stroke-width="0.5" stroke-miterlimit="10"/>
<path d="M196.488 104.868V-92" stroke="#575D68" stroke-width="0.5" stroke-miterlimit="10"/>
<path d="M193.356 244.111C227.411 244.111 255.018 227.373 255.018 206.727C255.018 186.08 227.411 169.342 193.356 169.342C159.301 169.342 131.693 186.08 131.693 206.727C131.693 227.373 159.301 244.111 193.356 244.111Z" fill="#F6F6F6" stroke="#575D68" stroke-width="0.5" stroke-miterlimit="10"/>
<path d="M193.368 242.086C226.243 242.086 252.894 225.928 252.894 205.997C252.894 186.066 226.243 169.908 193.368 169.908C160.492 169.908 133.842 186.066 133.842 205.997C133.842 225.928 160.492 242.086 193.368 242.086Z" fill="#F6F6F6" stroke="#575D68" stroke-width="0.5" stroke-miterlimit="10"/>
<path d="M35.5469 199.128V180.086L68.5538 199.128V218.171L35.5469 199.128Z" fill="#F6F6F6" stroke="#575D68" stroke-width="0.5" stroke-miterlimit="10"/>
<path d="M35.5469 180.086L167.469 103.916L200.476 122.959L68.5538 199.128L35.5469 180.086Z" fill="#F6F6F6" stroke="#575D68" stroke-width="0.5" stroke-miterlimit="10"/>
<path d="M68.5525 218.171L200.475 142.001V122.959L68.5525 199.128V218.171Z" fill="#F6F6F6" stroke="#575D68" stroke-width="0.5" stroke-miterlimit="10"/>
<path d="M71.1191 200.077V214.359L198.203 140.896V126.698L71.1191 200.077Z" fill="#F6F6F6" stroke="#575D68" stroke-width="0.5" stroke-miterlimit="10"/>
<path d="M71.1191 204.061L86.1826 195.316V202.961L71.1191 211.396V204.061Z" fill="#F6F6F6" stroke="#575D68" stroke-width="0.5" stroke-miterlimit="10"/>
<path d="M86.1821 202.961L87.0967 203.585L89.8726 201.907V189.249L86.1821 191.379C86.0838 191.436 86.1821 202.961 86.1821 202.961Z" fill="#F6F6F6" stroke="#575D68" stroke-width="0.5" stroke-miterlimit="10"/>
<path d="M87.0962 203.585V190.997" stroke="#575D68" stroke-width="0.5" stroke-miterlimit="10"/>
<path d="M86.1817 195.316L82.1135 193.728" stroke="#575D68" stroke-width="0.5" stroke-miterlimit="10"/>
<path d="M94.3096 186.688L94.3647 197.804L96.5342 196.632V185.415L94.3096 186.688Z" fill="#F6F6F6" stroke="#575D68" stroke-width="0.5" stroke-miterlimit="10"/>
<path d="M94.3649 197.803L89.8743 195.316V189.248L94.3098 186.687L94.3649 197.803Z" fill="#F6F6F6" stroke="#575D68" stroke-width="0.5" stroke-miterlimit="10"/>
<path d="M101.59 188.688V192.245L121.732 180.668V177.052L101.59 188.688Z" fill="#F6F6F6" stroke="#575D68" stroke-width="0.5" stroke-miterlimit="10"/>
<path d="M101.59 192.245L96.533 189.248V185.911L101.59 188.688V192.245Z" fill="#F6F6F6" stroke="#575D68" stroke-width="0.5" stroke-miterlimit="10"/>
<path d="M198.206 140.896L186.55 133.428" stroke="#575D68" stroke-width="0.5" stroke-miterlimit="10"/>
<path d="M121.735 177.052L116.43 173.916" stroke="#575D68" stroke-width="0.5" stroke-miterlimit="10"/>
<path d="M68.5613 156.609V166.041C68.5613 166.209 68.6054 166.374 68.6893 166.52C68.7732 166.666 68.8938 166.788 69.0393 166.872L88.1904 178.026C88.3655 178.128 88.5645 178.182 88.7671 178.181C88.9697 178.181 89.1685 178.126 89.3431 178.024L130.812 153.67C131.05 153.53 131.247 153.331 131.384 153.091C131.521 152.852 131.593 152.581 131.593 152.305L131.36 144.451C131.172 144.632 130.961 144.789 130.733 144.917L88.7675 168.531L68.5613 156.609Z" fill="#F6F6F6" stroke="#575D68" stroke-width="0.5" stroke-miterlimit="10"/>
<path d="M112.275 132.864L131.135 143.864C131.204 143.905 131.261 143.962 131.3 144.031C131.34 144.1 131.36 144.178 131.36 144.257C131.36 144.337 131.34 144.415 131.3 144.484C131.26 144.553 131.203 144.61 131.135 144.65L89.4022 168.938C89.2096 169.05 88.9907 169.109 88.7679 169.109C88.5451 169.108 88.3264 169.049 88.1341 168.936L69.0218 157.738C68.8596 157.643 68.7253 157.507 68.6323 157.344C68.5393 157.181 68.4909 156.996 68.492 156.808C68.493 156.62 68.5435 156.435 68.6384 156.273C68.7332 156.111 68.8691 155.976 69.0324 155.883L109.446 132.818C109.882 132.582 110.371 132.463 110.866 132.471C111.362 132.479 111.847 132.614 112.275 132.864Z" fill="#F6F6F6" stroke="#575D68" stroke-width="0.5" stroke-miterlimit="10"/>
<path d="M112.198 161.229C111.801 162.186 111.058 162.958 110.118 163.391C109.264 163.689 108.493 163.253 108.493 162.093C108.493 160.409 109.963 158.361 111.443 158.361C112.648 158.361 112.809 159.857 112.198 161.229Z" fill="#F6F6F6" stroke="#575D68" stroke-width="0.5" stroke-miterlimit="10"/>
<path d="M88.7673 169.307V173.437" stroke="#575D68" stroke-width="0.5" stroke-miterlimit="10"/>
<path d="M126.902 148.832V151.709L128.968 153.262V146.803L126.902 148.832Z" fill="#F6F6F6" stroke="#575D68" stroke-width="0.5" stroke-miterlimit="10"/>
<path d="M126.038 155.493L89.6277 176.753V170.047L123.584 150.291" fill="#F6F6F6"/>
<path d="M126.038 155.493L89.6277 176.753V170.047L123.584 150.291" stroke="#575D68" stroke-width="0.5" stroke-miterlimit="10"/>
<path d="M92.4146 169.344C92.6418 169.162 92.8826 168.997 93.1348 168.851C93.5058 168.635 93.778 168.592 93.951 168.7C94.1112 168.791 94.2068 169.018 94.2077 169.364C94.2116 169.697 94.1355 170.027 93.9856 170.324C93.7867 170.717 93.4785 171.044 93.098 171.266C93.0039 171.326 92.9023 171.374 92.7959 171.407L92.8 172.963L92.4247 173.181L92.4146 169.344ZM92.7948 170.998C92.9045 170.966 93.009 170.919 93.1055 170.858C93.328 170.734 93.5129 170.552 93.6408 170.331C93.7687 170.111 93.8349 169.86 93.8324 169.605C93.831 169.092 93.5587 169.003 93.1445 169.243C93.0186 169.313 92.9001 169.395 92.7909 169.489L92.7948 170.998Z" fill="#575D68"/>
<path d="M94.586 171.925L94.5852 171.614L94.8819 171.055C95.5956 169.729 95.918 169.057 95.9208 168.49C95.9198 168.11 95.7808 167.838 95.3624 168.081C95.1145 168.252 94.9107 168.479 94.7678 168.744L94.646 168.457C94.8359 168.115 95.1085 167.825 95.4389 167.616C96.043 167.265 96.2989 167.67 96.3003 168.206C96.3022 168.897 95.9283 169.674 95.3393 170.778L95.1157 171.185V171.196L96.3754 170.464L96.3765 170.885L94.586 171.925Z" fill="#575D68"/>
<path d="M98.6605 167.643C98.6639 168.916 98.312 169.825 97.6907 170.185C97.1429 170.504 96.7699 170.034 96.7581 168.8C96.7548 167.544 97.1585 166.617 97.7279 166.286C98.319 165.943 98.6574 166.451 98.6605 167.643ZM97.1378 168.585C97.1404 169.559 97.3661 169.982 97.7113 169.781C98.0996 169.556 98.2835 168.843 98.281 167.887C98.2786 166.965 98.1001 166.463 97.7075 166.691C97.3752 166.884 97.1351 167.565 97.1378 168.585Z" fill="#575D68"/>
<path d="M99.1061 168.718C99.3216 168.754 99.543 168.71 99.728 168.593C99.9193 168.481 100.078 168.322 100.189 168.13C100.3 167.938 100.359 167.72 100.36 167.499C100.355 166.977 100 166.958 99.6334 167.171L99.4221 167.294L99.4211 166.913L99.6324 166.791C99.8094 166.687 99.9586 166.543 100.067 166.369C100.176 166.195 100.241 165.998 100.256 165.794C100.256 165.494 100.112 165.312 99.7631 165.515C99.5381 165.664 99.3472 165.86 99.2029 166.088L99.1027 165.777C99.2925 165.489 99.5424 165.245 99.8353 165.063C100.387 164.742 100.639 165.035 100.64 165.49C100.624 165.935 100.44 166.357 100.125 166.672L100.125 166.684C100.47 166.575 100.752 166.758 100.753 167.283C100.743 167.632 100.644 167.973 100.465 168.273C100.287 168.573 100.035 168.823 99.7334 169C99.5199 169.145 99.2596 169.206 99.0037 169.17L99.1061 168.718Z" fill="#575D68"/>
<path d="M184.665 123.748C184.651 123.631 184.622 123.516 184.579 123.406L184.579 123.405L184.579 123.405C184.403 123.004 184.114 122.664 183.748 122.425L173.2 114.946C172.156 114.205 171.062 113.49 169.916 112.799L168.75 112.096C166.389 110.672 161.591 108.507 159.657 107.651C159.445 107.555 159.208 107.533 158.982 107.588C158.756 107.643 158.556 107.773 158.413 107.955C157.9 108.595 157.265 109.126 156.546 109.52C155.66 110.021 154.706 110.394 153.714 110.628C153.443 110.691 153.205 110.854 153.049 111.084C152.893 111.315 152.829 111.596 152.871 111.872C152.89 111.982 152.946 112.082 153.032 112.154L153.107 112.219C155.355 114.167 157.63 116.184 160.506 117.845L161.8 118.592C163.093 119.338 166.559 120.959 167.96 121.636L178.687 126.585C179.982 127.173 181.44 127.298 182.816 126.94L182.875 126.924C183.483 126.769 184.018 126.407 184.387 125.899C184.696 125.443 184.8 124.819 184.665 123.748Z" fill="#F6F6F6" stroke="#575D68" stroke-width="0.5" stroke-miterlimit="10"/>
<path d="M169.353 114.388C169.564 112.656 167.254 110.95 164.194 110.577C161.133 110.204 158.481 111.305 158.27 113.037C158.059 114.768 160.369 116.474 163.429 116.847C166.49 117.22 169.142 116.119 169.353 114.388Z" fill="#F6F6F6" stroke="#575D68" stroke-width="0.5" stroke-miterlimit="10"/>
<path d="M167.974 114.189C168.131 112.901 166.414 111.633 164.138 111.355C161.862 111.078 159.89 111.897 159.734 113.184C159.577 114.472 161.294 115.74 163.57 116.018C165.846 116.295 167.818 115.476 167.974 114.189Z" fill="#F6F6F6" stroke="#575D68" stroke-width="0.5" stroke-miterlimit="10"/>
<path d="M159.879 111.451C160.955 110.894 162.179 110.691 163.377 110.87C163.605 110.901 163.806 110.819 163.835 110.691L163.838 110.676C163.87 110.536 163.681 110.394 163.429 110.366C162.008 110.183 160.564 110.44 159.293 111.102C158.109 111.785 157.699 112.744 158.064 113.61C158.128 113.697 158.215 113.763 158.316 113.802C158.416 113.841 158.525 113.851 158.631 113.831L158.639 113.83C158.849 113.803 158.968 113.684 158.907 113.556C158.561 112.835 158.887 112.024 159.879 111.451Z" fill="#F6F6F6" stroke="#575D68" stroke-width="0.5" stroke-miterlimit="10"/>
<path d="M167.65 115.973C166.552 116.508 165.315 116.69 164.11 116.493C163.882 116.458 163.676 116.537 163.641 116.663L163.637 116.678C163.598 116.817 163.781 116.962 164.032 116.994C165.463 117.197 166.922 116.966 168.221 116.331C169.444 115.671 169.904 114.724 169.582 113.855C169.52 113.767 169.435 113.699 169.336 113.658C169.237 113.618 169.129 113.606 169.023 113.626L169.015 113.627C168.803 113.65 168.678 113.766 168.733 113.894C169.043 114.618 168.675 115.42 167.65 115.973Z" fill="#F6F6F6" stroke="#575D68" stroke-width="0.5" stroke-miterlimit="10"/>
<path d="M165.144 114.001C165.193 113.598 164.656 113.201 163.943 113.114C163.23 113.027 162.613 113.284 162.564 113.687C162.515 114.09 163.053 114.487 163.765 114.574C164.478 114.661 165.095 114.404 165.144 114.001Z" fill="#F6F6F6" stroke="#575D68" stroke-width="0.5" stroke-miterlimit="10"/>
<path d="M154.135 110.516C154.901 110.909 156.408 110.707 157.55 110.047C158.709 109.378 159.054 108.491 158.331 108.055C157.83 108.648 157.226 109.145 156.547 109.52C155.787 109.95 154.977 110.285 154.135 110.516Z" fill="#F6F6F6" stroke="#575D68" stroke-width="0.5" stroke-miterlimit="10"/>
<path d="M169.668 119.055C169.711 118.705 169.244 118.36 168.624 118.284C168.005 118.209 167.469 118.432 167.426 118.782C167.383 119.132 167.851 119.477 168.47 119.553C169.089 119.628 169.625 119.406 169.668 119.055Z" fill="#F6F6F6" stroke="#575D68" stroke-width="0.5" stroke-miterlimit="10"/>
<path d="M171.893 118.146C171.936 117.796 171.469 117.45 170.85 117.375C170.23 117.3 169.694 117.522 169.651 117.873C169.609 118.223 170.076 118.568 170.695 118.643C171.314 118.719 171.851 118.496 171.893 118.146Z" fill="#F6F6F6" stroke="#575D68" stroke-width="0.5" stroke-miterlimit="10"/>
<path d="M173.558 116.811C173.601 116.461 173.133 116.116 172.514 116.04C171.895 115.965 171.359 116.187 171.316 116.538C171.273 116.888 171.74 117.233 172.36 117.308C172.979 117.384 173.515 117.161 173.558 116.811Z" fill="#F6F6F6" stroke="#575D68" stroke-width="0.5" stroke-miterlimit="10"/>
<path d="M174.196 117.997C174.226 117.753 173.9 117.512 173.468 117.459C173.035 117.406 172.661 117.562 172.631 117.806C172.601 118.051 172.928 118.292 173.36 118.345C173.792 118.397 174.167 118.242 174.196 117.997Z" fill="#F6F6F6" stroke="#575D68" stroke-width="0.5" stroke-miterlimit="10"/>
<path d="M173.216 119.065C173.246 118.821 172.92 118.58 172.487 118.527C172.055 118.474 171.68 118.63 171.651 118.874C171.621 119.119 171.947 119.36 172.379 119.412C172.812 119.465 173.186 119.31 173.216 119.065Z" fill="#F6F6F6" stroke="#575D68" stroke-width="0.5" stroke-miterlimit="10"/>
<path d="M171.341 119.646C171.371 119.402 171.045 119.161 170.613 119.108C170.181 119.056 169.806 119.211 169.776 119.456C169.746 119.7 170.073 119.941 170.505 119.994C170.937 120.046 171.312 119.891 171.341 119.646Z" fill="#F6F6F6" stroke="#575D68" stroke-width="0.5" stroke-miterlimit="10"/>
<path d="M169.67 118.869C169.713 118.519 169.246 118.174 168.626 118.098C168.007 118.023 167.471 118.246 167.428 118.596C167.385 118.946 167.853 119.291 168.472 119.367C169.091 119.442 169.627 119.219 169.67 118.869Z" fill="#F6F6F6" stroke="#575D68" stroke-width="0.5" stroke-miterlimit="10"/>
<path d="M171.893 117.959C171.936 117.609 171.469 117.264 170.85 117.188C170.23 117.113 169.694 117.336 169.651 117.686C169.609 118.036 170.076 118.381 170.695 118.457C171.314 118.532 171.851 118.31 171.893 117.959Z" fill="#F6F6F6" stroke="#575D68" stroke-width="0.5" stroke-miterlimit="10"/>
<path d="M173.558 116.624C173.601 116.274 173.133 115.929 172.514 115.854C171.895 115.778 171.359 116.001 171.316 116.351C171.273 116.701 171.74 117.046 172.36 117.122C172.979 117.197 173.515 116.975 173.558 116.624Z" fill="#F6F6F6" stroke="#575D68" stroke-width="0.5" stroke-miterlimit="10"/>
<path d="M174.196 117.811C174.226 117.566 173.9 117.325 173.468 117.273C173.035 117.22 172.661 117.375 172.631 117.62C172.601 117.865 172.928 118.105 173.36 118.158C173.792 118.211 174.167 118.055 174.196 117.811Z" fill="#F6F6F6" stroke="#575D68" stroke-width="0.5" stroke-miterlimit="10"/>
<path d="M173.216 118.879C173.246 118.634 172.92 118.393 172.487 118.34C172.055 118.288 171.68 118.443 171.651 118.688C171.621 118.932 171.947 119.173 172.379 119.226C172.812 119.279 173.186 119.123 173.216 118.879Z" fill="#F6F6F6" stroke="#575D68" stroke-width="0.5" stroke-miterlimit="10"/>
<path d="M171.341 119.46C171.371 119.215 171.045 118.974 170.613 118.922C170.181 118.869 169.806 119.025 169.776 119.269C169.746 119.514 170.073 119.755 170.505 119.807C170.937 119.86 171.312 119.704 171.341 119.46Z" fill="#F6F6F6" stroke="#575D68" stroke-width="0.5" stroke-miterlimit="10"/>
<path d="M165.144 113.844C165.193 113.441 164.656 113.044 163.943 112.957C163.23 112.87 162.613 113.126 162.564 113.53C162.515 113.933 163.053 114.33 163.765 114.417C164.478 114.504 165.095 114.247 165.144 113.844Z" fill="#F6F6F6" stroke="#575D68" stroke-width="0.5" stroke-miterlimit="10"/>
<path d="M178.583 125.343C179.879 125.931 181.336 126.057 182.713 125.699L182.772 125.683C183.379 125.543 183.928 125.221 184.347 124.761C184.946 124.019 184.712 123.108 183.749 122.425" fill="#F6F6F6"/>
<path d="M178.583 125.343C179.879 125.931 181.336 126.057 182.713 125.699L182.772 125.683C183.379 125.543 183.928 125.221 184.347 124.761C184.946 124.019 184.712 123.108 183.749 122.425" stroke="#575D68" stroke-width="0.5" stroke-miterlimit="10"/>
<path d="M20.0693 32.5641V152.554L22.4727 153.243L165.523 68.5608L167.927 -50.7399L165.523 -51.4282L20.0693 32.5641Z" fill="#F6F6F6" stroke="#575D68" stroke-width="0.5" stroke-miterlimit="10"/>
<path d="M22.4727 33.2529V153.243L167.927 69.2497V-50.7399L22.4727 33.2529Z" fill="#F6F6F6" stroke="#575D68" stroke-width="0.5" stroke-miterlimit="10"/>
<path d="M25.2712 34.4997V141.244L165.712 59.0328V-46.603L25.2712 34.4997Z" stroke="#575D68" stroke-width="0.5" stroke-miterlimit="10"/>
<path d="M104.269 102.321C103.768 103.526 102.832 104.499 101.647 105.045C100.571 105.421 99.5999 104.871 99.5999 103.409C99.5999 101.287 101.452 98.7065 103.316 98.7065C104.836 98.7065 105.038 100.591 104.269 102.321Z" fill="#F6F6F6" stroke="#575D68" stroke-width="0.5" stroke-miterlimit="10"/>
<path d="M103.636 101.9C104.168 100.704 104.235 99.434 103.723 98.7642C103.591 98.7262 103.453 98.7067 103.315 98.7063C101.451 98.7063 99.5988 101.287 99.5988 103.409C99.5757 103.86 99.7056 104.305 99.9676 104.673C100.313 104.768 100.679 104.75 101.014 104.624C102.2 104.078 103.136 103.105 103.636 101.9Z" fill="#F6F6F6" stroke="#575D68" stroke-width="0.5" stroke-miterlimit="10"/>
<g opacity="0.26">
<g opacity="0.26">
<g opacity="0.26">
<path opacity="0.26" d="M168.683 25.8143L25.1765 113.807L22.9189 28.4627L166.426 -59.5303L168.683 25.8143Z" fill="#F6F6F6"/>
<path style="mix-blend-mode:multiply" opacity="0.26" d="M168.683 25.8143L25.1765 113.807L22.9189 28.4627L166.426 -59.5303L168.683 25.8143Z" fill="url(#paint0_linear_134_10)"/>
<path opacity="0.26" d="M22.1746 96.9049L113.569 40.865C113.569 40.865 105.983 27.1745 102.053 24.891C98.1229 22.6075 92.9334 39.1112 88.541 44.6837C84.1487 50.2562 76.4965 24.3042 69.0363 25.1202C61.5761 25.9363 22.1746 96.9049 22.1746 96.9049Z" fill="#AFAFAF"/>
<path style="mix-blend-mode:multiply" opacity="0.26" d="M22.1746 96.9049L113.569 40.865C113.569 40.865 105.983 27.1745 102.053 24.891C98.1229 22.6075 92.9334 39.1112 88.541 44.6837C84.1487 50.2562 76.4965 24.3042 69.0363 25.1202C61.5761 25.9363 22.1746 96.9049 22.1746 96.9049Z" fill="url(#paint1_linear_134_10)"/>
<path opacity="0.26" d="M98.925 40.1836C98.925 40.1836 103.963 24.808 106.653 21.5686C109.343 18.3292 112.624 25.3253 119.555 20.9803C126.485 16.6353 131.814 8.21418 133.49 7.0168C135.167 5.81942 168.195 7.36987 168.195 7.36987L93.9238 52.9103C94.239 52.7171 98.925 40.1836 98.925 40.1836Z" fill="#AFAFAF"/>
<path style="mix-blend-mode:multiply" opacity="0.26" d="M98.925 40.1836C98.925 40.1836 103.963 24.808 106.653 21.5686C109.343 18.3292 112.624 25.3253 119.555 20.9803C126.485 16.6353 131.814 8.21418 133.49 7.0168C135.167 5.81942 168.195 7.36987 168.195 7.36987L93.9238 52.9103C94.239 52.7171 98.925 40.1836 98.925 40.1836Z" fill="url(#paint2_linear_134_10)"/>
<path opacity="0.26" d="M42.8025 85.7083C42.8025 85.7083 73.0709 35.3799 76.7698 29.9252C80.4687 24.4705 99.2147 30.921 104.194 33.4951C109.172 36.0691 111.53 44.4762 125.665 21.9205C139.801 -0.635211 149.404 -8.90887 157.018 -3.56736C164.632 1.77415 168.196 7.36986 168.196 7.36986L42.8025 85.7083Z" fill="#AFAFAF"/>
<path opacity="0.26" d="M27.4444 159.178C28.0628 158.344 179.775 65.7744 179.775 65.7744L168.196 7.36993L20.2832 98.0644L27.4444 159.178Z" fill="#F6F6F6"/>
<path opacity="0.26" d="M27.4444 159.178C28.0628 158.344 179.775 65.7744 179.775 65.7744L168.196 7.36993L20.2832 98.0644L27.4444 159.178Z" fill="#AFAFAF"/>
<path opacity="0.26" d="M97.7257 50.5791C97.7257 50.5791 116.893 45.9195 117.694 62.089C118.61 80.6053 77.1597 128.694 77.1597 128.694L115.398 105.248C115.398 105.248 128.358 70.5086 120.921 55.9146C115.431 45.1419 97.7257 50.5791 97.7257 50.5791Z" fill="#F6F6F6"/>
<path style="mix-blend-mode:multiply" opacity="0.26" d="M167.958 7.51809L168.196 7.36989C168.196 7.36989 164.631 1.77416 157.017 -3.56735C149.403 -8.90887 139.8 -0.635233 125.665 21.9205C111.529 44.4762 109.172 36.0691 104.193 33.495C99.2142 30.921 80.4681 24.4705 76.7693 29.9252C73.5506 34.6717 50.2175 73.39 44.2119 83.3656L20.2832 98.0643L27.4444 159.178C28.0628 158.344 179.775 65.7743 179.775 65.7743L167.958 7.51809Z" fill="url(#paint3_linear_134_10)"/>
<path style="mix-blend-mode:multiply" opacity="0.26" d="M29.2465 130.395C29.2465 130.395 98.2053 89.8445 103.03 86.597L107.855 83.3494C106.748 79.8112 104.158 78.4989 101.152 78.588C94.4317 78.7874 86.9829 83.4507 79.8398 86.1248C73.7453 88.4064 67.6308 89.3437 61.5488 94.0475C57.5796 97.1174 53.7002 101.74 49.7152 103.313C45.8152 104.853 42.4724 103.19 38.6372 104.177C35.0623 105.097 31.3451 108.231 27.7608 111.289C25.1765 113.494 22.0434 116.786 21.7339 120.564C21.685 121.487 21.7585 122.411 21.9525 123.315L23.2363 130.678C23.3662 131.423 23.5191 132.211 23.9725 132.515C24.6133 132.944 25.6091 132.262 26.3798 132.356C27.0639 132.44 27.5278 133.132 28.226 133.166C28.9242 133.201 29.4855 131.259 29.2465 130.395Z" fill="url(#paint4_linear_134_10)"/>
<path style="mix-blend-mode:multiply" opacity="0.26" d="M52.9337 116.186C55.6315 113.975 58.3943 111.725 61.103 110.802C61.9689 110.601 62.7843 110.224 63.4984 109.695C64.3947 108.938 65.1225 107.661 65.8094 106.443C68.0476 102.475 70.4197 98.2563 73.1628 95.0009C76.1211 91.4901 79.7989 90.1112 83.0168 88.9285C84.1493 88.4679 85.3429 88.1747 86.56 88.058C87.6754 88.0435 88.7871 88.1918 89.8597 88.4981L94.7742 89.6551C96.7481 90.1198 99.019 90.5668 99.7872 93.0887L54.978 120.564C50.3453 123.405 44.2882 128.585 39.7359 129.91C35.1203 131.253 42.2513 124.419 43.8918 123.071C46.8872 120.612 49.9425 118.637 52.9337 116.186Z" fill="url(#paint5_linear_134_10)"/>
<path style="mix-blend-mode:multiply" opacity="0.26" d="M74.1541 71.5733C76.0389 68.7011 77.7435 65.3889 79.9563 63.2834C83.368 60.0373 86.8489 60.6369 90.0778 60.8256C94.8412 61.1041 99.9539 60.1226 105.155 57.9313C106.878 57.2053 108.634 56.3412 110.272 56.1915C111.91 56.0418 113.456 56.7213 114.038 58.6348C101.407 71.5706 88.5374 84.5304 75.2276 92.7602C70.2605 95.8491 64.9669 98.3789 59.4434 100.303C57.0796 101.121 47.9876 105.746 49.4341 100.181C50.9118 94.4968 58.006 88.7823 61.131 85.8088C65.606 81.5507 70.2794 77.4777 74.1541 71.5733Z" fill="url(#paint6_linear_134_10)"/>
<path style="mix-blend-mode:multiply" opacity="0.26" d="M137.024 40.9902C138.013 39.7085 139.003 38.4292 139.994 37.1523C140.679 36.2711 141.413 35.3482 142.183 35.0132C142.826 34.7336 143.398 34.908 144.022 34.7831C146.037 34.3798 147.928 31.196 149.767 28.8127C155.912 20.8504 163.106 22.1637 168.59 23.0925C169.05 28.2006 165.391 31.5598 162.199 33.918C157.896 37.1073 153.421 40.0564 148.793 42.7518C146.036 44.3511 143.26 45.8284 140.54 47.9869C136.161 51.4616 131.574 56.8496 127.491 56.7593C127.335 56.7791 127.176 56.7539 127.034 56.6867C126.892 56.6195 126.772 56.5131 126.688 56.38C126.256 55.5441 127.171 53.8903 127.957 52.8525C130.968 48.876 133.99 44.9219 137.024 40.9902Z" fill="url(#paint7_linear_134_10)"/>
<path style="mix-blend-mode:multiply" opacity="0.26" d="M133.536 73.3427C135.699 71.5408 137.954 70.9939 140.222 68.9628C143.157 66.2846 145.726 63.2319 147.864 59.8833C149.304 57.6604 150.631 55.2554 152.202 53.2534C156.033 48.3724 160.635 46.6726 164.89 45.2358C165.771 44.9385 166.687 44.6409 167.409 44.9544C168.054 45.2346 168.474 45.974 168.875 46.6954L176.923 61.1629C177.333 61.7795 177.491 62.53 177.364 63.2598C177.09 64.6375 175.922 65.5244 174.991 66.0522C168.573 69.6898 162.155 73.4744 155.737 77.4062L122.961 97.5033C117.143 101.071 122.675 90.204 124.037 87.5562C126.653 82.4676 129.75 76.4963 133.536 73.3427Z" fill="url(#paint8_linear_134_10)"/>
<path style="mix-blend-mode:multiply" opacity="0.26" d="M155.559 42.109C155.403 42.0101 155.225 41.9522 155.042 41.9405C154.858 41.9289 154.674 41.964 154.508 42.0425C154.009 42.3159 153.602 43.0595 153.196 43.6874C150.838 47.3414 147.532 48.0834 144.763 50.8374C142.758 52.8312 141.145 55.771 139.281 58.1537C136.587 61.5972 133.478 63.7516 130.523 66.3768C127.568 69.0019 124.494 72.5327 122.993 77.006C127.41 75.9753 132.02 72.0424 136.542 68.894C144.439 63.3956 152.382 60.1424 160.285 54.8472C162.722 53.2142 167.937 49.9147 165.371 46.5212C163.328 43.8204 158.368 43.3722 155.559 42.109Z" fill="url(#paint9_linear_134_10)"/>
</g>
</g>
</g>
<path d="M166.925 126.867V131.131C166.925 131.432 166.846 131.728 166.695 131.988C166.544 132.249 166.326 132.465 166.065 132.615L148.331 142.933C147.998 143.124 147.62 143.222 147.237 143.218C146.854 143.214 146.478 143.109 146.149 142.911L133.284 135.28C133.035 135.13 132.828 134.919 132.685 134.666C132.542 134.413 132.466 134.127 132.466 133.836V129.848" fill="#F6F6F6"/>
<path d="M166.925 126.867V131.131C166.925 131.432 166.846 131.728 166.695 131.988C166.544 132.249 166.326 132.465 166.065 132.615L148.331 142.933C147.998 143.124 147.62 143.222 147.237 143.218C146.854 143.214 146.478 143.109 146.149 142.911L133.284 135.28C133.035 135.13 132.828 134.919 132.685 134.666C132.542 134.413 132.466 134.127 132.466 133.836V129.848" stroke="#575D68" stroke-width="0.5" stroke-miterlimit="10"/>
<path d="M132.98 130.73L146.36 138.449C146.629 138.604 146.933 138.687 147.244 138.691C147.555 138.694 147.861 138.617 148.133 138.468L166.393 127.964C166.553 127.876 166.687 127.747 166.781 127.589C166.874 127.432 166.924 127.253 166.925 127.07C166.927 126.887 166.879 126.707 166.787 126.549C166.695 126.39 166.563 126.26 166.403 126.17L152.097 118.316C151.941 118.227 151.764 118.182 151.584 118.183C151.404 118.185 151.228 118.233 151.073 118.324L132.973 128.955C132.818 129.046 132.69 129.176 132.601 129.332C132.512 129.488 132.466 129.665 132.466 129.844C132.467 130.024 132.515 130.2 132.605 130.356C132.695 130.511 132.824 130.64 132.98 130.73Z" fill="#F6F6F6" stroke="#575D68" stroke-width="0.5" stroke-miterlimit="10"/>
<path d="M144.777 130.462L151.807 130.822L152.577 126.246L148.998 126.051L148.704 128.195L145.017 128.118L144.777 130.462Z" fill="#F6F6F6" stroke="#575D68" stroke-width="0.5" stroke-miterlimit="10"/>
<path d="M166.927 126.841V131.105C166.927 131.406 166.848 131.702 166.696 131.963C166.545 132.223 166.328 132.439 166.067 132.589L148.332 142.907C148 143.098 147.622 143.196 147.239 143.192C146.855 143.189 146.48 143.083 146.151 142.885L133.286 135.254C133.036 135.104 132.83 134.893 132.687 134.64C132.543 134.387 132.468 134.101 132.468 133.81V129.822" fill="#DDDEDF"/>
<path d="M166.927 126.841V131.105C166.927 131.406 166.848 131.702 166.696 131.963C166.545 132.223 166.328 132.439 166.067 132.589L148.332 142.907C148 143.098 147.622 143.196 147.239 143.192C146.855 143.189 146.48 143.083 146.151 142.885L133.286 135.254C133.036 135.104 132.83 134.893 132.687 134.64C132.543 134.387 132.468 134.101 132.468 133.81V129.822" stroke="#575D68" stroke-width="0.5" stroke-miterlimit="10"/>
<path d="M132.982 130.704L146.361 138.423C146.631 138.578 146.935 138.661 147.246 138.665C147.556 138.668 147.862 138.591 148.135 138.442L166.394 127.938C166.555 127.85 166.689 127.721 166.782 127.564C166.876 127.406 166.926 127.227 166.927 127.044C166.928 126.861 166.88 126.681 166.789 126.523C166.697 126.365 166.564 126.234 166.405 126.144L152.099 118.29C151.942 118.201 151.765 118.156 151.586 118.157C151.406 118.159 151.229 118.207 151.074 118.299L132.975 128.929C132.82 129.02 132.692 129.15 132.603 129.306C132.514 129.462 132.467 129.639 132.468 129.818C132.469 129.998 132.517 130.174 132.607 130.33C132.697 130.485 132.826 130.614 132.982 130.704Z" fill="#F6F6F6" stroke="#575D68" stroke-width="0.5" stroke-miterlimit="10"/>
<path d="M144.778 130.435L151.809 130.796L152.579 126.22L149 126.025L148.705 128.168L145.019 128.091L144.778 130.435Z" fill="#FF4F12" stroke="#575D68" stroke-width="0.5" stroke-miterlimit="10"/>
<path d="M20.0691 32.4174V152.406L22.4724 153.095L165.523 68.4141L167.926 -50.8866L165.523 -51.5755L20.0691 32.4174Z" fill="#DDDEDF" stroke="#575D68" stroke-width="0.5" stroke-miterlimit="10"/>
<path d="M22.4724 33.1057V153.095L167.926 69.103V-50.8866L22.4724 33.1057Z" fill="#E9EAEB" stroke="#575D68" stroke-width="0.5" stroke-miterlimit="10"/>
<path d="M25.271 34.3524V141.097L165.711 58.8861V-46.7502L25.271 34.3524Z" fill="#F6F6F6" stroke="#575D68" stroke-width="0.5" stroke-miterlimit="10"/>
<path d="M104.268 102.174C103.768 103.379 102.832 104.352 101.646 104.898C100.57 105.274 99.5996 104.724 99.5996 103.262C99.5996 101.14 101.452 98.5593 103.316 98.5593C104.836 98.5593 105.038 100.444 104.268 102.174Z" fill="#DDDEDF" stroke="#575D68" stroke-width="0.5" stroke-miterlimit="10"/>
<path d="M103.636 101.753C104.168 100.557 104.235 99.287 103.723 98.6172C103.59 98.5792 103.453 98.5597 103.315 98.5593C101.451 98.5593 99.5986 101.14 99.5986 103.262C99.5754 103.713 99.7054 104.158 99.9674 104.526C100.313 104.621 100.679 104.603 101.014 104.477C102.2 103.931 103.136 102.958 103.636 101.753Z" fill="#E9EAEB" stroke="#575D68" stroke-width="0.5" stroke-miterlimit="10"/>
<g opacity="0.26">
<g opacity="0.26">
<g opacity="0.26">
<path opacity="0.26" d="M168.683 25.6671L25.1762 113.66L22.9187 28.316L166.425 -59.677L168.683 25.6671Z" fill="#F6F6F6"/>
<path style="mix-blend-mode:multiply" opacity="0.26" d="M168.683 25.6671L25.1762 113.66L22.9187 28.316L166.425 -59.677L168.683 25.6671Z" fill="url(#paint10_linear_134_10)"/>
<path style="mix-blend-mode:multiply" opacity="0.26" d="M22.1743 96.7578L113.569 40.7179C113.569 40.7179 105.983 27.0275 102.053 24.744C98.1226 22.4604 92.9331 38.9642 88.5408 44.5367C84.1484 50.1091 76.4962 24.1571 69.036 24.9732C61.5759 25.7893 22.1743 96.7578 22.1743 96.7578Z" fill="url(#paint11_linear_134_10)"/>
<path style="mix-blend-mode:multiply" opacity="0.26" d="M98.9247 40.0364C98.9247 40.0364 103.963 24.6609 106.653 21.4215C109.342 18.1821 112.623 25.1781 119.554 20.8331C126.485 16.4882 131.814 8.06704 133.49 6.86966C135.167 5.67228 168.195 7.22273 168.195 7.22273L93.9236 52.7632C94.2387 52.57 98.9247 40.0364 98.9247 40.0364Z" fill="url(#paint12_linear_134_10)"/>
<path style="mix-blend-mode:multiply" opacity="0.26" d="M42.8022 85.5613C42.8022 85.5613 73.0706 35.2329 76.7695 29.7782C80.4684 24.3235 99.2144 30.774 104.193 33.348C109.172 35.9221 111.53 44.3292 125.665 21.7735C139.801 -0.782231 149.403 -9.05589 157.018 -3.71437C164.632 1.62714 168.196 7.22284 168.196 7.22284L42.8022 85.5613Z" fill="url(#paint13_linear_134_10)"/>
<path opacity="0.26" d="M27.4441 159.031C28.0626 158.197 179.775 65.6274 179.775 65.6274L168.195 7.2229L20.283 97.9174L27.4441 159.031Z" fill="#F6F6F6"/>
<path style="mix-blend-mode:multiply" opacity="0.26" d="M27.4441 159.031C28.0626 158.197 179.775 65.6274 179.775 65.6274L168.195 7.2229L20.283 97.9174L27.4441 159.031Z" fill="url(#paint14_linear_134_10)"/>
<path opacity="0.26" d="M97.7254 50.432C97.7254 50.432 116.893 45.7724 117.693 61.9419C118.61 80.4581 77.1594 128.547 77.1594 128.547L115.398 105.1C115.398 105.1 128.358 70.3615 120.921 55.7675C115.431 44.9947 97.7254 50.432 97.7254 50.432Z" fill="#F6F6F6"/>
<path style="mix-blend-mode:multiply" opacity="0.26" d="M29.2462 130.248C29.2462 130.248 98.205 89.6974 103.03 86.4499L107.855 83.2024C106.748 79.6641 104.158 78.3518 101.152 78.441C94.4314 78.6404 86.9827 83.3036 79.8395 85.9778C73.7451 88.2594 67.6305 89.1966 61.5486 93.9005C57.5793 96.9704 53.6999 101.593 49.7149 103.166C45.8149 104.706 42.4722 103.043 38.637 104.03C35.062 104.95 31.3448 108.084 27.7606 111.142C25.1762 113.347 22.0431 116.639 21.7337 120.417C21.6847 121.34 21.7582 122.264 21.9523 123.167L23.2361 130.531C23.366 131.276 23.5189 132.064 23.9722 132.368C24.6131 132.797 25.6089 132.115 26.3795 132.209C27.0636 132.292 27.5276 132.985 28.2258 133.019C28.924 133.054 29.4852 131.112 29.2462 130.248Z" fill="url(#paint15_linear_134_10)"/>
<path style="mix-blend-mode:multiply" opacity="0.26" d="M52.9335 116.039C55.6313 113.828 58.3941 111.579 61.1028 110.655C61.9687 110.454 62.784 110.077 63.4981 109.548C64.3944 108.791 65.1223 107.514 65.8092 106.296C68.0474 102.328 70.4195 98.1094 73.1625 94.854C76.1209 91.3432 79.7986 89.9643 83.0165 88.7815C84.1491 88.321 85.3427 88.0278 86.5597 87.9111C87.6752 87.8966 88.7868 88.0448 89.8595 88.3512L94.774 89.5082C96.7479 89.9729 99.0187 90.4199 99.787 92.9418L54.9778 120.417C50.3451 123.258 44.2879 128.438 39.7357 129.763C35.12 131.106 42.2511 124.272 43.8916 122.925C46.887 120.465 49.9423 118.49 52.9335 116.039Z" fill="url(#paint16_linear_134_10)"/>
<path style="mix-blend-mode:multiply" opacity="0.26" d="M74.1538 71.4263C76.0387 68.5541 77.7432 65.2419 79.9561 63.1364C83.3677 59.8902 86.8486 60.4898 90.0776 60.6786C94.8409 60.957 99.9536 59.9756 105.155 57.7842C106.878 57.0583 108.633 56.1942 110.272 56.0445C111.91 55.8948 113.455 56.5743 114.038 58.4877C101.407 71.4236 88.5372 84.3833 75.2273 92.6132C70.2603 95.702 64.9667 98.2318 59.4432 100.156C57.0794 100.974 47.9873 105.599 49.4338 100.034C50.9116 94.3497 58.0057 88.6352 61.1307 85.6618C65.6058 81.4036 70.2792 77.3306 74.1538 71.4263Z" fill="url(#paint17_linear_134_10)"/>
<path style="mix-blend-mode:multiply" opacity="0.26" d="M137.024 40.8433C138.013 39.5616 139.003 38.2823 139.994 37.0054C140.678 36.1241 141.413 35.2013 142.183 34.8662C142.826 34.5867 143.398 34.7611 144.022 34.6362C146.036 34.2329 147.928 31.0491 149.767 28.6658C155.912 20.7035 163.106 22.0168 168.59 22.9455C169.05 28.0536 165.391 31.4129 162.198 33.7711C157.896 36.9604 153.421 39.9095 148.793 42.6049C146.035 44.2042 143.26 45.6815 140.54 47.84C136.161 51.3147 131.574 56.7026 127.49 56.6124C127.334 56.6322 127.176 56.607 127.034 56.5398C126.892 56.4726 126.772 56.3662 126.688 56.2331C126.256 55.3972 127.171 53.7434 127.957 52.7056C130.968 48.7291 133.99 44.775 137.024 40.8433Z" fill="url(#paint18_linear_134_10)"/>
<path style="mix-blend-mode:multiply" opacity="0.26" d="M133.536 73.1958C135.699 71.3939 137.954 70.847 140.222 68.8159C143.156 66.1377 145.726 63.0849 147.864 59.7364C149.304 57.5135 150.631 55.1085 152.202 53.1065C156.033 48.2255 160.635 46.5257 164.89 45.0889C165.77 44.7916 166.687 44.494 167.409 44.8075C168.054 45.0877 168.474 45.8271 168.875 46.5485L176.922 61.0159C177.333 61.6326 177.491 62.3831 177.364 63.1129C177.09 64.4906 175.922 65.3775 174.991 65.9053C168.573 69.5429 162.155 73.3275 155.737 77.2593L122.961 97.3564C117.143 100.924 122.675 90.0571 124.036 87.4094C126.653 82.3207 129.749 76.3494 133.536 73.1958Z" fill="url(#paint19_linear_134_10)"/>
<path style="mix-blend-mode:multiply" opacity="0.26" d="M155.558 41.962C155.403 41.8631 155.225 41.8051 155.041 41.7935C154.858 41.7819 154.674 41.8169 154.507 41.8954C154.009 42.1688 153.601 42.9124 153.196 43.5404C150.838 47.1944 147.532 47.9364 144.763 50.6904C142.758 52.6842 141.145 55.624 139.281 58.0067C136.587 61.4502 133.478 63.6046 130.523 66.2297C127.568 68.8549 124.493 72.3856 122.993 76.859C127.409 75.8283 132.02 71.8954 136.542 68.747C144.439 63.2485 152.382 59.9954 160.285 54.7002C162.722 53.0671 167.937 49.7677 165.371 46.3742C163.328 43.6733 158.367 43.2252 155.558 41.962Z" fill="url(#paint20_linear_134_10)"/>
</g>
</g>
</g>
<path d="M184.67 123.75C184.656 123.633 184.627 123.518 184.584 123.408L184.584 123.407L184.583 123.407C184.408 123.006 184.119 122.666 183.753 122.427L173.203 114.946C172.159 114.206 171.065 113.491 169.919 112.8L168.753 112.097C166.392 110.673 161.593 108.508 159.658 107.651C159.447 107.555 159.209 107.533 158.984 107.588C158.758 107.643 158.558 107.773 158.415 107.955C157.901 108.595 157.267 109.126 156.548 109.52C155.661 110.021 154.707 110.395 153.715 110.628C153.444 110.691 153.206 110.854 153.05 111.085C152.894 111.316 152.83 111.597 152.872 111.872C152.891 111.982 152.947 112.082 153.033 112.155L153.108 112.22C155.356 114.168 157.631 116.185 160.508 117.846L161.802 118.593C163.095 119.34 166.561 120.961 167.963 121.638L178.691 126.587C179.986 127.175 181.444 127.3 182.821 126.943L182.879 126.926C183.487 126.771 184.022 126.409 184.392 125.901C184.701 125.445 184.804 124.821 184.67 123.75Z" fill="#F6F6F6" stroke="#575D68" stroke-width="0.5" stroke-miterlimit="10"/>
<path d="M169.353 114.388C169.564 112.657 167.254 110.951 164.193 110.578C161.133 110.205 158.48 111.306 158.269 113.038C158.058 114.769 160.368 116.475 163.429 116.848C166.49 117.221 169.142 116.12 169.353 114.388Z" fill="#F6F6F6" stroke="#575D68" stroke-width="0.5" stroke-miterlimit="10"/>
<path d="M167.976 114.19C168.133 112.902 166.416 111.633 164.14 111.356C161.864 111.078 159.892 111.897 159.735 113.185C159.578 114.473 161.295 115.741 163.571 116.019C165.847 116.296 167.819 115.477 167.976 114.19Z" fill="#F6F6F6" stroke="#575D68" stroke-width="0.5" stroke-miterlimit="10"/>
<path d="M159.882 111.452C160.958 110.895 162.182 110.691 163.38 110.871C163.608 110.901 163.81 110.819 163.839 110.691L163.842 110.677C163.873 110.537 163.684 110.394 163.433 110.366C162.011 110.184 160.567 110.441 159.296 111.102C158.112 111.786 157.701 112.744 158.067 113.611C158.131 113.698 158.218 113.764 158.318 113.803C158.419 113.842 158.528 113.852 158.634 113.832L158.642 113.831C158.852 113.804 158.971 113.685 158.909 113.557C158.564 112.836 158.89 112.025 159.882 111.452Z" fill="#FF4F12" stroke="#575D68" stroke-width="0.5" stroke-miterlimit="10"/>
<path d="M167.651 115.974C166.553 116.509 165.316 116.69 164.111 116.494C163.883 116.459 163.677 116.538 163.642 116.664L163.638 116.679C163.599 116.818 163.782 116.963 164.033 116.995C165.464 117.198 166.924 116.967 168.222 116.332C169.445 115.672 169.906 114.724 169.583 113.856C169.522 113.768 169.437 113.699 169.338 113.659C169.239 113.618 169.13 113.607 169.025 113.626L169.017 113.627C168.804 113.65 168.68 113.767 168.735 113.895C169.044 114.619 168.677 115.42 167.651 115.974Z" fill="#FF4F12" stroke="#575D68" stroke-width="0.5" stroke-miterlimit="10"/>
<path d="M165.146 114.002C165.195 113.599 164.657 113.202 163.944 113.115C163.232 113.028 162.614 113.284 162.565 113.688C162.516 114.091 163.054 114.488 163.766 114.575C164.479 114.662 165.096 114.405 165.146 114.002Z" fill="#F6F6F6" stroke="#575D68" stroke-width="0.5" stroke-miterlimit="10"/>
<path d="M154.136 110.516C154.902 110.909 156.409 110.707 157.551 110.048C158.711 109.378 159.055 108.491 158.332 108.055C157.832 108.648 157.227 109.145 156.548 109.52C155.788 109.951 154.978 110.285 154.136 110.516Z" fill="#F6F6F6" stroke="#575D68" stroke-width="0.5" stroke-miterlimit="10"/>
<path d="M169.669 119.057C169.712 118.706 169.245 118.361 168.626 118.286C168.006 118.21 167.47 118.433 167.427 118.783C167.384 119.134 167.852 119.479 168.471 119.554C169.09 119.63 169.627 119.407 169.669 119.057Z" fill="#F6F6F6" stroke="#575D68" stroke-width="0.5" stroke-miterlimit="10"/>
<path d="M171.896 118.147C171.939 117.797 171.472 117.452 170.853 117.376C170.233 117.301 169.697 117.524 169.654 117.874C169.612 118.224 170.079 118.569 170.698 118.645C171.317 118.72 171.854 118.497 171.896 118.147Z" fill="#F6F6F6" stroke="#575D68" stroke-width="0.5" stroke-miterlimit="10"/>
<path d="M173.561 116.812C173.604 116.462 173.136 116.116 172.517 116.041C171.898 115.965 171.361 116.188 171.319 116.539C171.276 116.889 171.743 117.234 172.363 117.309C172.982 117.385 173.518 117.162 173.561 116.812Z" fill="#F6F6F6" stroke="#575D68" stroke-width="0.5" stroke-miterlimit="10"/>
<path d="M174.199 117.999C174.229 117.754 173.903 117.513 173.471 117.46C173.038 117.408 172.664 117.563 172.634 117.808C172.604 118.052 172.93 118.293 173.363 118.346C173.795 118.399 174.17 118.243 174.199 117.999Z" fill="#F6F6F6" stroke="#575D68" stroke-width="0.5" stroke-miterlimit="10"/>
<path d="M173.221 119.066C173.251 118.822 172.924 118.581 172.492 118.528C172.06 118.476 171.685 118.631 171.655 118.876C171.625 119.12 171.952 119.361 172.384 119.414C172.816 119.467 173.191 119.311 173.221 119.066Z" fill="#F6F6F6" stroke="#575D68" stroke-width="0.5" stroke-miterlimit="10"/>
<path d="M171.343 119.648C171.372 119.403 171.046 119.162 170.614 119.109C170.182 119.057 169.807 119.212 169.777 119.457C169.747 119.701 170.074 119.942 170.506 119.995C170.938 120.048 171.313 119.892 171.343 119.648Z" fill="#F6F6F6" stroke="#575D68" stroke-width="0.5" stroke-miterlimit="10"/>
<path d="M169.673 118.87C169.716 118.52 169.248 118.175 168.629 118.099C168.01 118.024 167.474 118.247 167.431 118.597C167.388 118.947 167.855 119.292 168.475 119.368C169.094 119.443 169.63 119.221 169.673 118.87Z" fill="#7700FF" stroke="#575D68" stroke-width="0.5" stroke-miterlimit="10"/>
<path d="M171.896 117.961C171.939 117.61 171.472 117.265 170.853 117.19C170.233 117.114 169.697 117.337 169.654 117.687C169.612 118.038 170.079 118.383 170.698 118.458C171.317 118.534 171.854 118.311 171.896 117.961Z" fill="#7700FF" stroke="#575D68" stroke-width="0.5" stroke-miterlimit="10"/>
<path d="M173.561 116.626C173.604 116.275 173.136 115.93 172.517 115.855C171.898 115.779 171.361 116.002 171.319 116.352C171.276 116.703 171.743 117.048 172.363 117.123C172.982 117.199 173.518 116.976 173.561 116.626Z" fill="#7700FF" stroke="#575D68" stroke-width="0.5" stroke-miterlimit="10"/>
<path d="M174.199 117.812C174.229 117.568 173.903 117.327 173.471 117.274C173.038 117.221 172.664 117.377 172.634 117.621C172.604 117.866 172.93 118.107 173.363 118.16C173.795 118.212 174.17 118.057 174.199 117.812Z" fill="#7700FF" stroke="#575D68" stroke-width="0.5" stroke-miterlimit="10"/>
<path d="M173.221 118.88C173.251 118.635 172.924 118.394 172.492 118.342C172.06 118.289 171.685 118.445 171.655 118.689C171.625 118.934 171.952 119.175 172.384 119.227C172.816 119.28 173.191 119.125 173.221 118.88Z" fill="#7700FF" stroke="#575D68" stroke-width="0.5" stroke-miterlimit="10"/>
<path d="M171.343 119.461C171.372 119.217 171.046 118.976 170.614 118.923C170.182 118.871 169.807 119.026 169.777 119.271C169.747 119.515 170.074 119.756 170.506 119.809C170.938 119.862 171.313 119.706 171.343 119.461Z" fill="#7700FF" stroke="#575D68" stroke-width="0.5" stroke-miterlimit="10"/>
<path d="M165.146 113.845C165.195 113.442 164.657 113.044 163.944 112.958C163.232 112.871 162.614 113.127 162.565 113.53C162.516 113.934 163.054 114.331 163.766 114.418C164.479 114.505 165.096 114.248 165.146 113.845Z" fill="#FF4F12" stroke="#575D68" stroke-width="0.5" stroke-miterlimit="10"/>
<path d="M178.586 125.346C179.882 125.933 181.339 126.059 182.716 125.701L182.775 125.685C183.382 125.545 183.932 125.223 184.351 124.763C184.949 124.022 184.716 123.11 183.752 122.427" fill="#F6F6F6"/>
<path d="M178.586 125.346C179.882 125.933 181.339 126.059 182.716 125.701L182.775 125.685C183.382 125.545 183.932 125.223 184.351 124.763C184.949 124.022 184.716 123.11 183.752 122.427" stroke="#575D68" stroke-width="0.5" stroke-miterlimit="10"/>
<mask id="mask0_134_10" style="mask-type:alpha" maskUnits="userSpaceOnUse" x="24" y="-47" width="142" height="189">
<path d="M25 34.7091V141.453L165.44 59.2422V-46.3936L25 34.7091Z" fill="#F6F6F6" stroke="#575D68" stroke-width="0.5" stroke-miterlimit="10"/>
</mask>
<g mask="url(#mask0_134_10)">
<path d="M25 34.7091V141.453L165.44 59.2422V-46.3936L25 34.7091Z" fill="#F6F6F6" stroke="#575D68" stroke-width="0.5" stroke-miterlimit="10"/>
<g style="mix-blend-mode:multiply">
<g opacity="0.2">
<g style="mix-blend-mode:multiply">
<path d="M167.623 24.2233L24.1159 112.216L21.8584 26.8717L165.365 -61.1212L167.623 24.2233Z" fill="#F6F6F6"/>
</g>
<path style="mix-blend-mode:multiply" d="M167.623 24.2233L24.1159 112.216L21.8584 26.8717L165.365 -61.1212L167.623 24.2233Z" fill="url(#paint21_linear_134_10)"/>
<path style="mix-blend-mode:multiply" d="M21.114 95.3139L112.509 39.274C112.509 39.274 104.923 25.5836 100.993 23.3C97.0623 21.0165 91.8728 37.5203 87.4805 43.0927C83.0881 48.6652 75.4359 22.7132 67.9757 23.5293C60.5156 24.3453 21.114 95.3139 21.114 95.3139Z" fill="url(#paint22_linear_134_10)"/>
<path style="mix-blend-mode:multiply" d="M97.8644 38.5926C97.8644 38.5926 102.902 23.217 105.592 19.9776C108.282 16.7382 111.563 23.7343 118.494 19.3893C125.425 15.0443 130.753 6.62321 132.43 5.42583C134.106 4.22845 167.135 5.7789 167.135 5.7789L92.8633 51.3194C93.1784 51.1261 97.8644 38.5926 97.8644 38.5926Z" fill="url(#paint23_linear_134_10)"/>
<g style="mix-blend-mode:multiply">
<path d="M26.3838 157.587C27.0023 156.753 178.715 64.1835 178.715 64.1835L167.135 5.77908L19.2227 96.4735L26.3838 157.587Z" fill="#F6F6F6"/>
</g>
<path style="mix-blend-mode:multiply" fill-rule="evenodd" clip-rule="evenodd" d="M167.135 5.77912L178.715 64.1833C178.715 64.1833 27.0023 156.753 26.3838 157.587L19.2227 96.4733L43.1268 81.8162C49.098 71.8976 72.4867 33.0864 75.7092 28.3343C79.4081 22.8796 98.1541 29.3301 103.133 31.9041C103.949 32.3262 104.695 32.9053 105.435 33.4789C109.202 36.4029 112.787 39.186 124.605 20.3295C138.74 -2.22618 148.343 -10.4998 155.957 -5.15833C163.571 0.18318 167.136 5.77889 167.136 5.77889L167.135 5.77912Z" fill="url(#paint24_linear_134_10)"/>
<g style="mix-blend-mode:multiply">
<path d="M96.6651 48.9881C96.6651 48.9881 115.832 44.3285 116.633 60.498C117.55 79.0143 76.0991 127.103 76.0991 127.103L114.338 103.657C114.338 103.657 127.298 68.9177 119.86 54.3236C114.371 43.5509 96.6651 48.9881 96.6651 48.9881Z" fill="#F6F6F6"/>
</g>
<path style="mix-blend-mode:multiply" d="M28.1859 128.804C28.1859 128.804 97.1448 88.2535 101.97 85.0059L106.794 81.7584C105.688 78.2202 103.098 76.9079 100.092 76.997C93.3712 77.1964 85.9224 81.8597 78.7792 84.5338C72.6848 86.8154 66.5702 87.7527 60.4883 92.4565C56.5191 95.5264 52.6397 100.149 48.6546 101.722C44.7546 103.262 41.4119 101.599 37.5767 102.586C34.0018 103.506 30.2846 106.64 26.7003 109.698C24.1159 111.903 20.9828 115.195 20.6734 118.973C20.6244 119.896 20.6979 120.82 20.892 121.724L22.1758 129.087C22.3057 129.832 22.4586 130.62 22.9119 130.924C23.5528 131.353 24.5486 130.671 25.3192 130.765C26.0033 130.849 26.4673 131.541 27.1655 131.575C27.8637 131.61 28.4249 129.668 28.1859 128.804Z" fill="url(#paint25_linear_134_10)"/>
<path style="mix-blend-mode:multiply" d="M51.8751 114.595C54.5729 112.384 57.3358 110.134 60.0444 109.211C60.9103 109.01 61.7257 108.633 62.4398 108.104C63.3361 107.347 64.0639 106.07 64.7508 104.852C66.989 100.884 69.3611 96.6653 72.1042 93.4099C75.0625 89.8991 78.7403 88.5202 81.9582 87.3374C83.0907 86.8769 84.2843 86.5837 85.5014 86.467C86.6168 86.4525 87.7285 86.6007 88.8011 86.9071L93.7156 88.0641C95.6895 88.5288 97.9604 88.9758 98.7286 91.4977L53.9194 118.973C49.2868 121.814 43.2296 126.994 38.6773 128.319C34.0617 129.662 41.1927 122.828 42.8332 121.48C45.8286 119.021 48.884 117.046 51.8751 114.595Z" fill="url(#paint26_linear_134_10)"/>
<path style="mix-blend-mode:multiply" d="M73.0974 69.9823C74.9823 67.1101 76.6868 63.7979 78.8997 61.6924C82.3113 58.4463 85.7922 59.0459 89.0212 59.2347C93.7845 59.5131 98.8972 58.5316 104.098 56.3403C105.822 55.6143 107.577 54.7502 109.215 54.6005C110.853 54.4508 112.399 55.1304 112.982 57.0438C100.351 69.9796 87.4808 82.9394 74.1709 91.1693C69.2039 94.2581 63.9103 96.7879 58.3868 98.7125C56.023 99.5303 46.9309 104.155 48.3774 98.5903C49.8552 92.9058 56.9493 87.1913 60.0743 84.2178C64.5494 79.9597 69.2228 75.8867 73.0974 69.9823Z" fill="url(#paint27_linear_134_10)"/>
<path style="mix-blend-mode:multiply" d="M135.963 39.3992C136.952 38.1175 137.943 36.8382 138.934 35.5614C139.618 34.6801 140.353 33.7572 141.123 33.4222C141.765 33.1426 142.338 33.3171 142.962 33.1922C144.976 32.7889 146.867 29.605 148.707 27.2217C154.852 19.2594 162.046 20.5727 167.53 21.5015C167.989 26.6096 164.331 29.9689 161.138 32.327C156.836 35.5163 152.361 38.4654 147.733 41.1608C144.975 42.7601 142.2 44.2374 139.479 46.3959C135.101 49.8706 130.514 55.2586 126.43 55.1684C126.274 55.1882 126.116 55.163 125.974 55.0958C125.832 55.0286 125.712 54.9222 125.628 54.7891C125.195 53.9531 126.11 52.2993 126.896 51.2615C129.907 47.2851 132.93 43.331 135.963 39.3992Z" fill="url(#paint28_linear_134_10)"/>
<path style="mix-blend-mode:multiply" d="M132.475 71.7517C134.639 69.9499 136.893 69.4029 139.162 67.3718C142.096 64.6936 144.665 61.6409 146.803 58.2923C148.244 56.0694 149.57 53.6645 151.142 51.6624C154.973 46.7814 159.574 45.0816 163.83 43.6449C164.71 43.3475 165.626 43.05 166.348 43.3634C166.994 43.6436 167.413 44.383 167.815 45.1044L175.862 59.5719C176.272 60.1885 176.431 60.9391 176.304 61.6688C176.029 63.0465 174.862 63.9334 173.93 64.4612C167.512 68.0988 161.094 71.8835 154.677 75.8152L121.901 95.9123C116.083 99.4796 121.614 88.613 122.976 85.9653C125.593 80.8766 128.689 74.9054 132.475 71.7517Z" fill="url(#paint29_linear_134_10)"/>
<path style="mix-blend-mode:multiply" d="M154.498 40.518C154.343 40.4191 154.165 40.3612 153.981 40.3496C153.797 40.3379 153.614 40.373 153.447 40.4515C152.948 40.7249 152.541 41.4685 152.136 42.0964C149.778 45.7504 146.472 46.4924 143.703 49.2465C141.698 51.2402 140.084 54.1801 138.22 56.5628C135.526 60.0063 132.417 62.1606 129.463 64.7858C126.508 67.411 123.433 70.9417 121.932 75.415C126.349 74.3844 130.96 70.4514 135.481 67.303C143.378 61.8046 151.321 58.5514 159.224 53.2562C161.662 51.6232 166.877 48.3238 164.31 44.9302C162.267 42.2294 157.307 41.7813 154.498 40.518Z" fill="url(#paint30_linear_134_10)"/>
</g>
</g>
</g>
<path d="M225.854 153.81C225.854 153.81 225.665 155.388 225.35 156.145C225.034 156.902 224.34 157.974 224.34 158.542C224.34 159.11 225.097 159.678 225.097 159.678H226.17" fill="#F6F6F6"/>
<path d="M225.854 153.81C225.854 153.81 225.665 155.388 225.35 156.145C225.034 156.902 224.34 157.974 224.34 158.542C224.34 159.11 225.097 159.678 225.097 159.678H226.17" stroke="#575D68" stroke-width="0.5" stroke-miterlimit="10"/>
<path d="M134.622 268.069L131.846 287.312C131.783 287.943 132.098 288.511 132.666 288.763C133.044 288.953 133.486 288.953 133.865 288.826L133.928 288.763C134.432 288.574 134.748 288.132 134.811 287.628L138.218 268.132L136.325 267.123L134.622 268.069Z" fill="#F6F6F6" stroke="#575D68" stroke-width="0.5" stroke-miterlimit="10"/>
<path d="M156.262 278.164L153.864 297.407C153.801 298.038 154.116 298.605 154.684 298.858C155.063 299.047 155.505 299.047 155.883 298.858L155.946 298.795C156.451 298.605 156.766 298.164 156.829 297.659L159.858 278.101L157.965 277.154L156.262 278.164Z" fill="#F6F6F6" stroke="#575D68" stroke-width="0.5" stroke-miterlimit="10"/>
<path d="M313.552 186.303L315.949 205.546C316.012 206.176 315.697 206.744 315.129 206.997C314.75 207.186 314.309 207.186 313.93 206.997L313.867 206.934C313.362 206.744 313.047 206.303 312.984 205.798L309.956 186.24L311.848 185.293L313.552 186.303Z" fill="#F6F6F6" stroke="#575D68" stroke-width="0.5" stroke-miterlimit="10"/>
<path d="M284.34 166.807L287.116 186.05C287.179 186.681 286.864 187.249 286.296 187.501C285.918 187.69 285.476 187.69 285.097 187.564L285.034 187.501C284.53 187.312 284.214 186.87 284.151 186.365L280.744 166.87L282.637 165.861L284.34 166.807Z" fill="#F6F6F6" stroke="#575D68" stroke-width="0.5" stroke-miterlimit="10"/>
<path d="M134.119 261.255V267.628C134.119 268.7 134.687 269.71 135.633 270.277L155.696 281.697C156.958 282.454 158.598 282.454 159.86 281.697L312.163 193.053C313.425 192.296 314.182 190.971 314.182 189.52V184.662L134.119 261.255Z" fill="#F6F6F6" stroke="#575D68" stroke-width="0.5" stroke-miterlimit="10"/>
<path d="M290.145 154.315C290.145 154.315 287.18 152.548 285.414 152.738C282.385 153.116 280.808 156.018 280.808 160.245C280.808 163.4 282.196 166.113 284.215 167.249L307.874 181.066L309.956 165.419L290.145 154.315Z" fill="#F6F6F6" stroke="#575D68" stroke-width="0.5" stroke-miterlimit="10"/>
<path d="M134.244 251.224C134.244 251.224 280.932 165.861 282.005 165.924C283.077 165.987 314.118 184.662 314.118 184.662L164.213 271.287L134.244 251.224Z" fill="#F6F6F6" stroke="#575D68" stroke-width="0.5" stroke-miterlimit="10"/>
<path d="M185.413 207.06C186.17 207.438 193.804 210.404 193.804 210.404L216.327 201.886L225.854 192.486" fill="#DDDEDF"/>
<path d="M185.413 207.06C186.17 207.438 193.804 210.404 193.804 210.404L216.327 201.886L225.854 192.486" stroke="#575D68" stroke-width="0.5" stroke-miterlimit="10"/>
<path d="M257.085 183.274L251.785 194.757L236.58 223.779L210.46 234.315L190.775 222.454L187.431 220.372L179.356 225.041C178.977 222.139 177.905 215.388 177.715 210.341C177.652 208.006 177.084 205.041 178.031 202.896C178.662 201.382 179.797 200.057 181.122 198.984C181.69 198.542 183.52 198.732 184.151 198.416C186.043 197.344 186.927 196.145 188.883 196.082C190.018 196.082 191.154 196.145 192.226 196.334C194.056 196.587 195.949 197.407 197.778 197.596C199.671 197.785 203.394 198.732 203.394 198.732C204.214 195.64 218.22 180.309 218.22 180.309C219.608 178.984 221.249 177.848 223.015 177.028L235.318 171.476C235.318 171.476 234.561 170.404 233.173 170.088C231.28 169.71 228.567 170.025 228.252 169.205C227.495 167.375 243.331 166.177 243.331 166.177L243.898 166.997C245.097 168.889 246.422 169.773 249.072 169.331C251.154 169.016 253.299 169.205 255.255 169.899L262.195 172.296" fill="#F6F6F6"/>
<path d="M257.085 183.274L251.785 194.757L236.58 223.779L210.46 234.315L190.775 222.454L187.431 220.372L179.356 225.041C178.977 222.139 177.905 215.388 177.715 210.341C177.652 208.006 177.084 205.041 178.031 202.896C178.662 201.382 179.797 200.057 181.122 198.984C181.69 198.542 183.52 198.732 184.151 198.416C186.043 197.344 186.927 196.145 188.883 196.082C190.018 196.082 191.154 196.145 192.226 196.334C194.056 196.587 195.949 197.407 197.778 197.596C199.671 197.785 203.394 198.732 203.394 198.732C204.214 195.64 218.22 180.309 218.22 180.309C219.608 178.984 221.249 177.848 223.015 177.028L235.318 171.476C235.318 171.476 234.561 170.404 233.173 170.088C231.28 169.71 228.567 170.025 228.252 169.205C227.495 167.375 243.331 166.177 243.331 166.177L243.898 166.997C245.097 168.889 246.422 169.773 249.072 169.331C251.154 169.016 253.299 169.205 255.255 169.899L262.195 172.296" stroke="#575D68" stroke-width="0.5" stroke-miterlimit="10"/>
<path d="M257.085 183.274L251.785 194.757L236.58 223.779L210.46 234.315L190.775 222.454L187.431 220.372L179.356 225.041C178.977 222.139 177.905 215.388 177.715 210.341C177.652 208.006 177.084 205.041 178.031 202.896C178.662 201.382 179.797 200.057 181.122 198.984C181.69 198.542 183.52 198.732 184.151 198.416C186.043 197.344 186.927 196.145 188.883 196.082C190.018 196.082 191.154 196.145 192.226 196.334C194.056 196.587 195.949 197.407 197.778 197.596C199.671 197.785 203.394 198.732 203.394 198.732C204.214 195.64 218.22 180.309 218.22 180.309C219.608 178.984 221.249 177.848 223.015 177.028L235.318 171.476C235.318 171.476 234.561 170.404 233.173 170.088C231.28 169.71 228.567 170.025 228.252 169.205C227.495 167.375 243.331 166.177 243.331 166.177L243.898 166.997C245.097 168.889 246.422 169.773 249.072 169.331C251.154 169.016 253.299 169.205 255.255 169.899L262.195 172.296" fill="url(#paint31_linear_134_10)"/>
<g style="mix-blend-mode:multiply">
<path d="M257.085 183.274L251.785 194.757L236.58 223.779L210.46 234.315L190.775 222.454L187.431 220.372L179.356 225.041C178.977 222.139 177.905 215.388 177.715 210.341C177.652 208.006 177.084 205.041 178.031 202.896C178.662 201.382 179.797 200.057 181.122 198.984C181.69 198.542 183.52 198.732 184.151 198.416C186.043 197.344 186.927 196.145 188.883 196.082C190.018 196.082 191.154 196.145 192.226 196.334C194.056 196.587 195.949 197.407 197.778 197.596C199.671 197.785 203.394 198.732 203.394 198.732C204.214 195.64 218.22 180.309 218.22 180.309C219.608 178.984 221.249 177.848 223.015 177.028L235.318 171.476C235.318 171.476 234.561 170.404 233.173 170.088C231.28 169.71 228.567 170.025 228.252 169.205C227.495 167.375 243.331 166.177 243.331 166.177L243.898 166.997C245.097 168.889 246.422 169.773 249.072 169.331C251.154 169.016 253.299 169.205 255.255 169.899L262.195 172.296" fill="url(#paint32_linear_134_10)"/>
</g>
<path d="M181.374 223.842C181.374 223.842 179.04 209.142 179.418 206.933C179.797 204.725 180.175 203.085 182.51 202.139C185.79 200.814 204.718 213.306 204.718 213.306L203.393 214.063C203.393 214.063 199.986 212.17 197.336 210.467C194.686 208.763 186.674 204.662 185.727 204.41C184.402 204.031 183.33 203.148 182.068 204.157C181.437 204.662 180.806 206.934 181.185 209.583C181.563 212.233 181.689 214.252 182.068 216.46C182.257 217.533 183.141 222.896 183.141 222.896L182.068 223.527" fill="#F6F6F6"/>
<path d="M181.374 223.842C181.374 223.842 179.04 209.142 179.418 206.933C179.797 204.725 180.175 203.085 182.51 202.139C185.79 200.814 204.718 213.306 204.718 213.306L203.393 214.063C203.393 214.063 199.986 212.17 197.336 210.467C194.686 208.763 186.674 204.662 185.727 204.41C184.402 204.031 183.33 203.148 182.068 204.157C181.437 204.662 180.806 206.934 181.185 209.583C181.563 212.233 181.689 214.252 182.068 216.46C182.257 217.533 183.141 222.896 183.141 222.896L182.068 223.527" stroke="#575D68" stroke-width="0.5" stroke-miterlimit="10"/>
<path d="M225.854 192.548L225.223 193.558C222.131 198.353 217.841 202.265 212.731 204.851C210.333 206.05 208.441 206.933 208.441 206.933C204.087 208.574 189.45 202.391 189.008 202.201C189.008 202.201 189.134 201.003 190.838 199.552C192.541 198.101 195.002 197.028 195.002 197.028" stroke="#575D68" stroke-width="0.5" stroke-miterlimit="10"/>
<path d="M157.84 275.009L314.181 184.662L318.471 153.053C318.787 150.656 316.2 148.889 314.118 150.151L168.124 234.252C164.78 236.145 162.572 239.489 162.067 243.274L157.84 275.009Z" fill="#F6F6F6" stroke="#575D68" stroke-width="0.5" stroke-miterlimit="10"/>
<path d="M318.473 153.81L172.479 237.911C169.135 239.804 166.927 243.148 166.422 246.934L164.845 258.858" fill="#F6F6F6"/>
<path d="M318.473 153.81L172.479 237.911C169.135 239.804 166.927 243.148 166.422 246.934L164.845 258.858" stroke="#575D68" stroke-width="0.5" stroke-miterlimit="10"/>
<path d="M140.112 248.258C140.112 248.258 137.147 246.492 135.38 246.681C132.352 247.06 130.775 249.962 130.775 254.189C130.775 257.344 132.163 260.057 134.182 261.192L157.841 274.946L159.923 259.299L140.112 248.258Z" fill="#F6F6F6" stroke="#575D68" stroke-width="0.5" stroke-miterlimit="10"/>
<path d="M242.827 167.312C243.836 165.041 246.36 158.668 246.297 153.937C246.234 149.205 241.565 145.861 239.357 144.536C238.6 144.094 237.779 143.842 236.896 143.779C234.309 143.653 225.855 147.564 225.855 147.564C225.855 147.564 225.224 150.782 225.35 151.981C225.54 153.747 226.234 155.325 225.855 156.776C224.152 163.337 227.432 167.249 228.19 169.079C228.316 169.457 229.136 169.583 230.145 169.646C232.48 169.583 234.814 169.331 237.086 168.763" fill="#F6F6F6"/>
<path d="M242.827 167.312C243.836 165.041 246.36 158.668 246.297 153.937C246.234 149.205 241.565 145.861 239.357 144.536C238.6 144.094 237.779 143.842 236.896 143.779C234.309 143.653 225.855 147.564 225.855 147.564C225.855 147.564 225.224 150.782 225.35 151.981C225.54 153.747 226.234 155.325 225.855 156.776C224.152 163.337 227.432 167.249 228.19 169.079C228.316 169.457 229.136 169.583 230.145 169.646C232.48 169.583 234.814 169.331 237.086 168.763" stroke="#575D68" stroke-width="0.5" stroke-miterlimit="10"/>
<path d="M242.195 146.366C242.006 146.239 226.549 148.637 226.612 149.394C226.738 150.34 228.631 151.728 229.325 152.359C232.29 155.072 230.586 159.236 229.577 160.561C229.577 160.561 227.874 162.896 226.99 162.706C226.296 162.517 225.665 162.139 225.476 161.949C225.918 164.536 226.17 165.798 226.422 168.7C226.422 169.016 228.82 169.71 229.135 169.583C230.271 169.142 230.902 162.769 232.605 160.183C236.265 154.568 236.769 160.561 236.202 163.716C235.886 165.419 236.517 166.681 238.347 166.997C239.104 167.123 239.924 167.06 240.681 166.997C241.123 166.934 241.627 166.87 242.006 166.681C242.637 166.366 243.142 165.735 243.52 165.167C244.025 164.41 244.277 163.716 244.593 162.896C245.539 160.057 246.296 157.028 246.233 154C246.296 150.719 244.151 148.132 242.195 146.366Z" fill="#DDDEDF" stroke="#575D68" stroke-width="0.5" stroke-miterlimit="10"/>
<g style="mix-blend-mode:multiply">
<path d="M242.194 146.366C242.005 146.239 226.547 148.637 226.611 149.394C226.737 150.34 228.63 151.728 229.324 152.359C229.702 152.675 229.954 153.053 230.207 153.369C230.27 153.369 230.396 153.432 230.459 153.432C232.478 154.126 234.623 154.252 236.642 154.946C237.778 155.262 238.85 155.829 239.481 156.839C239.797 157.344 239.923 157.975 239.986 158.605C240.049 159.489 239.923 160.435 239.671 161.255C239.355 162.139 238.913 162.959 238.598 163.842C238.282 164.725 238.219 165.735 238.661 166.555C238.787 166.744 238.85 166.87 239.04 167.06C239.607 167.06 240.175 167.06 240.806 166.997C241.248 166.934 241.753 166.87 242.131 166.681C242.762 166.366 243.267 165.735 243.645 165.167C244.15 164.41 244.402 163.716 244.718 162.896C245.664 160.057 246.421 157.028 246.358 154C246.295 150.719 244.15 148.132 242.194 146.366Z" fill="url(#paint33_linear_134_10)"/>
</g>
<path d="M224.782 146.934C225.476 148.889 227.243 149.836 228.946 150.719C233.3 152.99 238.032 153.937 240.618 153.243C242.259 152.801 244.025 152.233 244.782 151.729C248.568 148.889 245.35 144.852 242.448 143.779C239.672 142.77 235.003 142.328 232.101 142.328C229.577 142.328 227.874 143.211 224.593 142.328C224.404 142.833 224.151 145.167 224.782 146.934Z" fill="#DDDEDF" stroke="#575D68" stroke-width="0.5" stroke-miterlimit="10"/>
<g style="mix-blend-mode:multiply">
<path d="M244.906 147.628C244.212 148.195 242.382 148.7 240.742 149.142C238.155 149.836 233.423 148.889 229.07 146.618C227.366 145.735 225.6 144.852 224.906 142.833C224.843 142.643 224.78 142.454 224.716 142.265C224.653 142.265 224.59 142.202 224.464 142.202C224.338 142.769 224.086 145.104 224.716 146.87C225.41 148.826 227.177 149.773 228.881 150.656C233.234 152.927 237.966 153.874 240.553 153.18C242.193 152.738 243.959 152.17 244.717 151.665C246.799 150.088 246.799 148.195 245.852 146.618C245.663 146.997 245.284 147.312 244.906 147.628Z" fill="url(#paint34_linear_134_10)"/>
</g>
<path d="M232.606 160.183C232.606 160.183 232.354 158.921 232.859 158.038C233.426 157.028 235.193 156.46 235.508 158.795C235.761 160.687 234.878 162.517 233.931 163.085C232.985 163.653 232.165 162.517 232.165 162.517" fill="#F6F6F6"/>
<path d="M232.606 160.183C232.606 160.183 232.354 158.921 232.859 158.038C233.426 157.028 235.193 156.46 235.508 158.795C235.761 160.687 234.878 162.517 233.931 163.085C232.985 163.653 232.165 162.517 232.165 162.517" stroke="#575D68" stroke-width="0.5" stroke-miterlimit="10"/>
<path d="M235.254 171.413C235.254 171.413 239.355 172.99 242.636 172.107C245.916 171.224 245.979 169.331 245.979 169.331" fill="#F6F6F6"/>
<path d="M235.254 171.413C235.254 171.413 239.355 172.99 242.636 172.107C245.916 171.224 245.979 169.331 245.979 169.331" stroke="#575D68" stroke-width="0.5" stroke-miterlimit="10"/>
<path d="M234.309 173.053C234.309 173.053 239.167 175.198 243.079 174C246.991 172.801 247.054 170.151 247.054 170.151" stroke="#575D68" stroke-width="0.5" stroke-miterlimit="10"/>
<path d="M223.013 176.965C223.013 176.965 226.672 177.722 228.88 181.066C231.089 184.41 230.268 189.52 230.268 189.52" fill="#F6F6F6"/>
<path d="M223.013 176.965C223.013 176.965 226.672 177.722 228.88 181.066C231.089 184.41 230.268 189.52 230.268 189.52" stroke="#575D68" stroke-width="0.5" stroke-miterlimit="10"/>
<path d="M257.02 170.53L268.187 171.35L279.48 166.113H286.546L272.982 178.164C272.982 178.164 257.524 183.211 257.02 183.211" fill="#F6F6F6"/>
<path d="M257.02 170.53L268.187 171.35L279.48 166.113H286.546L272.982 178.164C272.982 178.164 257.524 183.211 257.02 183.211" stroke="#575D68" stroke-width="0.5" stroke-miterlimit="10"/>
<path d="M257.02 170.53L268.187 171.35L279.48 166.113H286.546L272.982 178.164C272.982 178.164 257.524 183.211 257.02 183.211" fill="url(#paint35_linear_134_10)"/>
<path d="M256.958 170.403C256.958 170.403 258.346 171.728 258.787 174.126C259.229 176.523 258.787 178.921 258.787 178.921" stroke="#575D68" stroke-width="0.5" stroke-miterlimit="10"/>
<path d="M189.071 202.139C189.071 202.139 186.043 199.552 185.412 199.363C184.781 199.174 184.024 198.416 184.024 198.416C184.024 198.416 185.412 197.786 185.853 197.786C186.295 197.786 187.746 198.669 187.746 198.669L189.071 199.552" fill="#F6F6F6"/>
<path d="M189.071 202.139C189.071 202.139 186.043 199.552 185.412 199.363C184.781 199.174 184.024 198.416 184.024 198.416C184.024 198.416 185.412 197.786 185.853 197.786C186.295 197.786 187.746 198.669 187.746 198.669L189.071 199.552" stroke="#575D68" stroke-width="0.5" stroke-miterlimit="10"/>
<path d="M186.547 196.776L188.25 196.902L190.396 197.785" fill="#F6F6F6"/>
<path d="M186.547 196.776L188.25 196.902L190.396 197.785" stroke="#575D68" stroke-width="0.5" stroke-miterlimit="10"/>
<path d="M189.642 196.082L191.787 196.965" stroke="#575D68" stroke-width="0.5" stroke-miterlimit="10"/>
<path d="M203.332 198.669C203.332 198.669 202.89 199.363 203.206 200.688" stroke="#575D68" stroke-width="0.5" stroke-miterlimit="10"/>
<path d="M183.141 211.287L184.718 213.685L187.368 220.372" stroke="#575D68" stroke-width="0.5" stroke-miterlimit="10"/>
<path d="M185.033 208.826L184.717 213.684" stroke="#575D68" stroke-width="0.5" stroke-miterlimit="10"/>
<path d="M79.5374 200.658C81.1777 202.425 83.386 203.497 85.1525 205.137C86.0989 206.021 86.856 207.03 87.2976 208.229C87.7393 209.428 87.7392 210.753 87.1714 211.951C87.0452 212.204 86.9191 212.393 86.7298 212.519C86.2882 212.772 85.6573 212.519 85.4049 212.141C85.0894 211.699 85.0264 211.194 85.0264 210.689C85.0264 210.185 85.0263 209.617 84.8371 209.175C84.5847 208.607 84.0168 208.103 83.3859 208.04C83.1336 207.977 82.692 207.85 82.8182 207.598" fill="#E9EAEB"/>
<path d="M79.5374 200.658C81.1777 202.425 83.386 203.497 85.1525 205.137C86.0989 206.021 86.856 207.03 87.2976 208.229C87.7393 209.428 87.7392 210.753 87.1714 211.951C87.0452 212.204 86.9191 212.393 86.7298 212.519C86.2882 212.772 85.6573 212.519 85.4049 212.141C85.0894 211.699 85.0264 211.194 85.0264 210.689C85.0264 210.185 85.0263 209.617 84.8371 209.175C84.5847 208.607 84.0168 208.103 83.3859 208.04C83.1336 207.977 82.692 207.85 82.8182 207.598" stroke="#575D68" stroke-width="0.5" stroke-miterlimit="10"/>
<path d="M87.2963 216.431C87.1701 216.241 86.9177 216.178 86.7284 216.115C86.2868 215.989 85.782 215.926 85.2773 215.989C84.5833 216.052 83.8893 216.431 83.3845 216.935C83.2584 217.125 83.0691 217.314 83.0691 217.566C83.0691 218.45 85.2142 218.765 85.9082 218.702C86.7915 218.702 87.8641 217.188 87.2963 216.431Z" fill="#E9EAEB" stroke="#575D68" stroke-width="0.5" stroke-miterlimit="10"/>
<path d="M61.3015 217.377C61.3015 217.63 61.3015 222.677 61.3015 222.677L64.5192 224.38C65.718 225.011 67.2321 224.885 68.2416 224.002C68.494 223.813 68.7464 223.623 68.9987 223.434C69.1249 223.371 69.2511 223.245 69.3142 223.119C70.0713 222.298 69.3141 220.973 68.2416 221.289C67.4214 221.478 66.9167 221.794 66.9167 221.794L63.8252 220.027" fill="#E9EAEB"/>
<path d="M61.3015 217.377C61.3015 217.63 61.3015 222.677 61.3015 222.677L64.5192 224.38C65.718 225.011 67.2321 224.885 68.2416 224.002C68.494 223.813 68.7464 223.623 68.9987 223.434C69.1249 223.371 69.2511 223.245 69.3142 223.119C70.0713 222.298 69.3141 220.973 68.2416 221.289C67.4214 221.478 66.9167 221.794 66.9167 221.794L63.8252 220.027" stroke="#575D68" stroke-width="0.5" stroke-miterlimit="10"/>
<path d="M86.2233 217.945C86.3495 218.26 86.3495 218.513 86.1602 218.765C85.5293 219.333 84.0151 219.333 83.3842 218.828C82.6271 218.134 81.1129 217.188 80.8605 216.431C80.6712 215.926 80.5451 215.232 80.4189 214.538C80.1665 213.024 78.2738 212.456 77.2643 213.592L77.2012 213.655C75.9394 215.106 74.4252 216.241 72.6586 216.935L66.0971 219.774C66.0971 219.774 65.34 220.784 65.0876 222.866C64.646 225.894 63.1949 226.525 61.6176 226.778C60.1034 227.03 62.0592 228.67 62.5639 228.86C62.7532 228.923 62.9425 228.986 63.1318 228.986C63.258 228.986 63.4473 228.86 63.5735 228.797C64.2675 228.418 65.0876 228.166 65.9078 228.166C65.9709 228.166 66.0971 228.166 66.1602 228.229C66.2233 228.292 66.2233 228.355 66.2864 228.418C66.4125 228.923 66.4756 229.427 66.2864 229.932C66.0971 230.311 65.7817 230.563 65.4662 230.752C64.3937 231.573 63.6365 231.699 62.2485 231.383C61.0497 231.131 59.9772 230.563 59.0939 229.743L57.2012 227.976C56.381 227.219 56.0655 225.957 56.4441 224.885L56.5072 224.569C56.9488 222.614 57.1381 220.532 57.1381 218.513C57.075 216.935 57.1381 214.727 57.3905 212.267C57.5797 210.248 58.3999 208.481 59.2832 206.651C59.9772 205.137 61.0497 203.181 60.0403 201.604C59.6617 201.036 59.157 200.595 58.7785 200.027C57.6428 198.576 57.2643 196.62 57.5166 194.79C57.769 192.961 58.6523 191.257 59.788 189.806C60.9236 188.418 62.3747 187.156 64.0782 186.588C64.7091 186.336 65.5293 186.273 66.034 186.714C66.2233 186.904 66.3495 187.093 66.4757 187.345C66.8542 188.355 66.4757 189.554 65.9078 190.437C65.34 191.32 64.4567 192.077 63.6996 192.834C62.4378 194.096 61.4283 195.8 61.6176 197.566C61.8068 199.144 62.8795 200.468 62.9426 202.046C63.0056 203.244 63.1949 205.2 65.0245 204.506C67.422 203.56 70.7659 202.172 71.7122 201.793C75.4977 200.09 80.545 194.349 82.1223 193.402C83.6996 192.519 86.5388 198.765 85.0877 203.938C84.3306 206.588 83.8889 209.301 83.8259 212.077C83.8259 212.897 83.6365 214.096 83.952 214.853C84.1413 215.421 84.7722 215.863 85.0877 216.368" fill="#E9EAEB"/>
<path d="M86.2233 217.945C86.3495 218.26 86.3495 218.513 86.1602 218.765C85.5293 219.333 84.0151 219.333 83.3842 218.828C82.6271 218.134 81.1129 217.188 80.8605 216.431C80.6712 215.926 80.5451 215.232 80.4189 214.538C80.1665 213.024 78.2738 212.456 77.2643 213.592L77.2012 213.655C75.9394 215.106 74.4252 216.241 72.6586 216.935L66.0971 219.774C66.0971 219.774 65.34 220.784 65.0876 222.866C64.646 225.894 63.1949 226.525 61.6176 226.778C60.1034 227.03 62.0592 228.67 62.5639 228.86C62.7532 228.923 62.9425 228.986 63.1318 228.986C63.258 228.986 63.4473 228.86 63.5735 228.797C64.2675 228.418 65.0876 228.166 65.9078 228.166C65.9709 228.166 66.0971 228.166 66.1602 228.229C66.2233 228.292 66.2233 228.355 66.2864 228.418C66.4125 228.923 66.4756 229.427 66.2864 229.932C66.0971 230.311 65.7817 230.563 65.4662 230.752C64.3937 231.573 63.6365 231.699 62.2485 231.383C61.0497 231.131 59.9772 230.563 59.0939 229.743L57.2012 227.976C56.381 227.219 56.0655 225.957 56.4441 224.885L56.5072 224.569C56.9488 222.614 57.1381 220.532 57.1381 218.513C57.075 216.935 57.1381 214.727 57.3905 212.267C57.5797 210.248 58.3999 208.481 59.2832 206.651C59.9772 205.137 61.0497 203.181 60.0403 201.604C59.6617 201.036 59.157 200.595 58.7785 200.027C57.6428 198.576 57.2643 196.62 57.5166 194.79C57.769 192.961 58.6523 191.257 59.788 189.806C60.9236 188.418 62.3747 187.156 64.0782 186.588C64.7091 186.336 65.5293 186.273 66.034 186.714C66.2233 186.904 66.3495 187.093 66.4757 187.345C66.8542 188.355 66.4757 189.554 65.9078 190.437C65.34 191.32 64.4567 192.077 63.6996 192.834C62.4378 194.096 61.4283 195.8 61.6176 197.566C61.8068 199.144 62.8795 200.468 62.9426 202.046C63.0056 203.244 63.1949 205.2 65.0245 204.506C67.422 203.56 70.7659 202.172 71.7122 201.793C75.4977 200.09 80.545 194.349 82.1223 193.402C83.6996 192.519 86.5388 198.765 85.0877 203.938C84.3306 206.588 83.8889 209.301 83.8259 212.077C83.8259 212.897 83.6365 214.096 83.952 214.853C84.1413 215.421 84.7722 215.863 85.0877 216.368" stroke="#575D68" stroke-width="0.5" stroke-miterlimit="10"/>
<path d="M82.6279 202.046C84.7731 201.036 85.4671 200.532 85.9718 199.775C86.2873 199.333 86.7289 198.954 87.1705 198.513C87.9276 197.692 88.4955 196.809 88.811 195.737C89.5681 193.592 89.1264 191.32 87.6122 189.68C87.2967 189.364 87.0444 189.049 86.6028 188.86C86.098 188.607 85.5301 188.544 84.9623 188.607C84.2683 188.607 83.5113 188.67 82.8173 188.923C82.2494 189.175 81.7447 189.554 81.303 189.995C79.8519 191.446 79.2841 193.087 78.9686 195.043C78.9055 195.358 78.8424 195.737 78.9055 196.052" fill="#E9EAEB"/>
<path d="M82.6279 202.046C84.7731 201.036 85.4671 200.532 85.9718 199.775C86.2873 199.333 86.7289 198.954 87.1705 198.513C87.9276 197.692 88.4955 196.809 88.811 195.737C89.5681 193.592 89.1264 191.32 87.6122 189.68C87.2967 189.364 87.0444 189.049 86.6028 188.86C86.098 188.607 85.5301 188.544 84.9623 188.607C84.2683 188.607 83.5113 188.67 82.8173 188.923C82.2494 189.175 81.7447 189.554 81.303 189.995C79.8519 191.446 79.2841 193.087 78.9686 195.043C78.9055 195.358 78.8424 195.737 78.9055 196.052" stroke="#575D68" stroke-width="0.5" stroke-miterlimit="10"/>
<path d="M60.1692 207.472L60.9893 209.239" stroke="#575D68" stroke-width="0.5" stroke-miterlimit="10"/>
<path d="M61.4921 207.472L59.5994 208.86" stroke="#575D68" stroke-width="0.5" stroke-miterlimit="10"/>
<path d="M80.9246 190.689C80.9246 189.617 81.1138 188.544 81.4923 187.535C81.5554 187.409 81.6185 187.282 81.6816 187.219C81.8709 187.093 82.1233 187.282 82.3125 187.472C83.1327 188.355 83.7006 189.427 84.0791 190.563" fill="#E9EAEB"/>
<path d="M80.9246 190.689C80.9246 189.617 81.1138 188.544 81.4923 187.535C81.5554 187.409 81.6185 187.282 81.6816 187.219C81.8709 187.093 82.1233 187.282 82.3125 187.472C83.1327 188.355 83.7006 189.427 84.0791 190.563" stroke="#575D68" stroke-width="0.5" stroke-miterlimit="10"/>
<path d="M86.0347 192.014C86.918 191.383 87.9274 190.942 88.9369 190.689C89.063 190.689 89.1892 190.626 89.3154 190.689C89.5047 190.816 89.5047 191.068 89.4416 191.32C89.1893 192.456 88.6214 193.592 87.9274 194.538" fill="#E9EAEB"/>
<path d="M86.0347 192.014C86.918 191.383 87.9274 190.942 88.9369 190.689C89.063 190.689 89.1892 190.626 89.3154 190.689C89.5047 190.816 89.5047 191.068 89.4416 191.32C89.1893 192.456 88.6214 193.592 87.9274 194.538" stroke="#575D68" stroke-width="0.5" stroke-miterlimit="10"/>
<defs>
<linearGradient id="paint0_linear_134_10" x1="96.0355" y1="35.9536" x2="64.3953" y2="-15.6482" gradientUnits="userSpaceOnUse">
<stop stop-color="#EAEAEA" stop-opacity="0"/>
<stop offset="0.093" stop-color="#E0E0E0" stop-opacity="0.17789"/>
<stop offset="0.24246" stop-color="#D1D1D1" stop-opacity="0.42721"/>
<stop offset="0.39392" stop-color="#C5C5C5" stop-opacity="0.63392"/>
<stop offset="0.54529" stop-color="#BBBBBB" stop-opacity="0.79434"/>
<stop offset="0.69667" stop-color="#B4B4B4" stop-opacity="0.90874"/>
<stop offset="0.84812" stop-color="#B0B0B0" stop-opacity="0.97723"/>
<stop offset="1" stop-color="#AFAFAF"/>
</linearGradient>
<linearGradient id="paint1_linear_134_10" x1="66.7726" y1="27.2708" x2="109.978" y2="97.7338" gradientUnits="userSpaceOnUse">
<stop stop-color="#EAEAEA" stop-opacity="0"/>
<stop offset="0.08667" stop-color="#E0E0E0" stop-opacity="0.17789"/>
<stop offset="0.22597" stop-color="#D1D1D1" stop-opacity="0.42721"/>
<stop offset="0.36713" stop-color="#C5C5C5" stop-opacity="0.63392"/>
<stop offset="0.5082" stop-color="#BBBBBB" stop-opacity="0.79434"/>
<stop offset="0.64929" stop-color="#B4B4B4" stop-opacity="0.90874"/>
<stop offset="0.79044" stop-color="#B0B0B0" stop-opacity="0.97723"/>
<stop offset="0.93199" stop-color="#AFAFAF"/>
</linearGradient>
<linearGradient id="paint2_linear_134_10" x1="127.724" y1="13.4545" x2="134.227" y2="20.6536" gradientUnits="userSpaceOnUse">
<stop stop-color="#EAEAEA" stop-opacity="0"/>
<stop offset="0.093" stop-color="#E0E0E0" stop-opacity="0.17789"/>
<stop offset="0.24246" stop-color="#D1D1D1" stop-opacity="0.42721"/>
<stop offset="0.39392" stop-color="#C5C5C5" stop-opacity="0.63392"/>
<stop offset="0.54529" stop-color="#BBBBBB" stop-opacity="0.79434"/>
<stop offset="0.69667" stop-color="#B4B4B4" stop-opacity="0.90874"/>
<stop offset="0.84812" stop-color="#B0B0B0" stop-opacity="0.97723"/>
<stop offset="1" stop-color="#AFAFAF"/>
</linearGradient>
<linearGradient id="paint3_linear_134_10" x1="99.9914" y1="74.1902" x2="99.7809" y2="31.2501" gradientUnits="userSpaceOnUse">
<stop stop-color="#EAEAEA" stop-opacity="0"/>
<stop offset="0.08667" stop-color="#E0E0E0" stop-opacity="0.17789"/>
<stop offset="0.22597" stop-color="#D1D1D1" stop-opacity="0.42721"/>
<stop offset="0.36713" stop-color="#C5C5C5" stop-opacity="0.63392"/>
<stop offset="0.5082" stop-color="#BBBBBB" stop-opacity="0.79434"/>
<stop offset="0.64929" stop-color="#B4B4B4" stop-opacity="0.90874"/>
<stop offset="0.79044" stop-color="#B0B0B0" stop-opacity="0.97723"/>
<stop offset="0.93199" stop-color="#AFAFAF"/>
</linearGradient>
<linearGradient id="paint4_linear_134_10" x1="64.7688" y1="101.717" x2="58.0289" y2="90.725" gradientUnits="userSpaceOnUse">
<stop stop-color="#EAEAEA" stop-opacity="0"/>
<stop offset="0.08667" stop-color="#E0E0E0" stop-opacity="0.17789"/>
<stop offset="0.22597" stop-color="#D1D1D1" stop-opacity="0.42721"/>
<stop offset="0.36713" stop-color="#C5C5C5" stop-opacity="0.63392"/>
<stop offset="0.5082" stop-color="#BBBBBB" stop-opacity="0.79434"/>
<stop offset="0.64929" stop-color="#B4B4B4" stop-opacity="0.90874"/>
<stop offset="0.79044" stop-color="#B0B0B0" stop-opacity="0.97723"/>
<stop offset="0.93199" stop-color="#AFAFAF"/>
</linearGradient>
<linearGradient id="paint5_linear_134_10" x1="68.4892" y1="92.1804" x2="78.045" y2="107.765" gradientUnits="userSpaceOnUse">
<stop offset="0.37313" stop-color="#AFAFAF"/>
<stop offset="0.45336" stop-color="#B8B8B8" stop-opacity="0.85056"/>
<stop offset="0.79206" stop-color="#DCDCDC" stop-opacity="0.24241"/>
<stop offset="0.94297" stop-color="#EAEAEA" stop-opacity="0"/>
</linearGradient>
<linearGradient id="paint6_linear_134_10" x1="81.2321" y1="63.78" x2="88.7052" y2="75.9678" gradientUnits="userSpaceOnUse">
<stop stop-color="#AFAFAF"/>
<stop offset="0.14315" stop-color="#B0B0B0" stop-opacity="0.97553"/>
<stop offset="0.29484" stop-color="#B5B5B5" stop-opacity="0.90281"/>
<stop offset="0.45046" stop-color="#BCBCBC" stop-opacity="0.78176"/>
<stop offset="0.60885" stop-color="#C6C6C6" stop-opacity="0.61212"/>
<stop offset="0.76937" stop-color="#D3D3D3" stop-opacity="0.39373"/>
<stop offset="0.92936" stop-color="#E2E2E2" stop-opacity="0.1305"/>
<stop offset="1" stop-color="#EAEAEA" stop-opacity="0"/>
</linearGradient>
<linearGradient id="paint7_linear_134_10" x1="146.283" y1="30.1358" x2="153.005" y2="38.4675" gradientUnits="userSpaceOnUse">
<stop stop-color="#AFAFAF"/>
<stop offset="0.49512" stop-color="#CDCDCD" stop-opacity="0.49405"/>
<stop offset="1" stop-color="#EAEAEA" stop-opacity="0"/>
</linearGradient>
<linearGradient id="paint8_linear_134_10" x1="148.28" y1="57.0412" x2="157.385" y2="71.8906" gradientUnits="userSpaceOnUse">
<stop stop-color="#AFAFAF"/>
<stop offset="0.49512" stop-color="#CDCDCD" stop-opacity="0.49405"/>
<stop offset="1" stop-color="#EAEAEA" stop-opacity="0"/>
</linearGradient>
<linearGradient id="paint9_linear_134_10" x1="144.402" y1="50.722" x2="150.317" y2="60.8516" gradientUnits="userSpaceOnUse">
<stop stop-color="#AFAFAF"/>
<stop offset="0.49512" stop-color="#CDCDCD" stop-opacity="0.49405"/>
<stop offset="1" stop-color="#EAEAEA" stop-opacity="0"/>
</linearGradient>
<linearGradient id="paint10_linear_134_10" x1="41.7003" y1="-60.5098" x2="115.7" y2="59.1754" gradientUnits="userSpaceOnUse">
<stop stop-color="#7800FF"/>
<stop offset="0.14047" stop-color="#973CFD"/>
<stop offset="0.31529" stop-color="#BA80FA"/>
<stop offset="0.46185" stop-color="#D3B3F9"/>
<stop offset="0.57242" stop-color="#E3D1F7"/>
<stop offset="0.63425" stop-color="#E9DDF7"/>
</linearGradient>
<linearGradient id="paint11_linear_134_10" x1="84.1276" y1="91.0601" x2="39.1524" y2="27.5774" gradientUnits="userSpaceOnUse">
<stop offset="0.12583" stop-color="#E9DDF7"/>
<stop offset="0.12755" stop-color="#E9DCF7"/>
<stop offset="0.26176" stop-color="#CBA3F9"/>
<stop offset="0.39594" stop-color="#B271FB"/>
<stop offset="0.52733" stop-color="#9D48FC"/>
<stop offset="0.65523" stop-color="#8D29FE"/>
<stop offset="0.77873" stop-color="#8112FE"/>
<stop offset="0.89587" stop-color="#7A05FF"/>
<stop offset="1" stop-color="#7800FF"/>
</linearGradient>
<linearGradient id="paint12_linear_134_10" x1="135.388" y1="55.8862" x2="124.641" y2="-8.39257" gradientUnits="userSpaceOnUse">
<stop offset="0.12583" stop-color="#E9DDF7"/>
<stop offset="0.35689" stop-color="#E8DBF7"/>
<stop offset="0.48205" stop-color="#E4D3F7"/>
<stop offset="0.58183" stop-color="#DDC5F8"/>
<stop offset="0.66825" stop-color="#D3B2F9"/>
<stop offset="0.74607" stop-color="#C699F9"/>
<stop offset="0.81769" stop-color="#B67AFB"/>
<stop offset="0.88455" stop-color="#A355FC"/>
<stop offset="0.94592" stop-color="#8E2BFD"/>
<stop offset="1" stop-color="#7800FF"/>
</linearGradient>
<linearGradient id="paint13_linear_134_10" x1="89.0732" y1="26.6923" x2="129.471" y2="74.8516" gradientUnits="userSpaceOnUse">
<stop offset="0.12583" stop-color="#E9DDF7"/>
<stop offset="0.12755" stop-color="#E9DCF7"/>
<stop offset="0.26176" stop-color="#CBA3F9"/>
<stop offset="0.39594" stop-color="#B271FB"/>
<stop offset="0.52733" stop-color="#9D48FC"/>
<stop offset="0.65523" stop-color="#8D29FE"/>
<stop offset="0.77873" stop-color="#8112FE"/>
<stop offset="0.89587" stop-color="#7A05FF"/>
<stop offset="1" stop-color="#7800FF"/>
</linearGradient>
<linearGradient id="paint14_linear_134_10" x1="64.2432" y1="28.7939" x2="117.428" y2="114.856" gradientUnits="userSpaceOnUse">
<stop offset="0.06272" stop-color="#7800FF"/>
<stop offset="1" stop-color="#E9DDF7"/>
</linearGradient>
<linearGradient id="paint15_linear_134_10" x1="71.712" y1="127.019" x2="53.0055" y2="66.3222" gradientUnits="userSpaceOnUse">
<stop offset="0.02513" stop-color="#E9DDF7"/>
<stop offset="0.19512" stop-color="#D3B2F9"/>
<stop offset="0.59134" stop-color="#A253FC"/>
<stop offset="0.86834" stop-color="#8417FE"/>
<stop offset="1" stop-color="#7800FF"/>
</linearGradient>
<linearGradient id="paint16_linear_134_10" x1="73.6642" y1="126.417" x2="59.0442" y2="78.9794" gradientUnits="userSpaceOnUse">
<stop offset="0.02513" stop-color="#E9DDF7"/>
<stop offset="0.19512" stop-color="#D3B2F9"/>
<stop offset="0.59134" stop-color="#A253FC"/>
<stop offset="0.86834" stop-color="#8417FE"/>
<stop offset="1" stop-color="#7800FF"/>
</linearGradient>
<linearGradient id="paint17_linear_134_10" x1="84.7227" y1="86.9849" x2="66.0162" y2="44.1988" gradientUnits="userSpaceOnUse">
<stop offset="0.02513" stop-color="#E9DDF7"/>
<stop offset="0.19512" stop-color="#D3B2F9"/>
<stop offset="0.59134" stop-color="#A253FC"/>
<stop offset="0.86834" stop-color="#8417FE"/>
<stop offset="1" stop-color="#7800FF"/>
</linearGradient>
<linearGradient id="paint18_linear_134_10" x1="169.525" y1="85.579" x2="122.361" y2="-13.5257" gradientUnits="userSpaceOnUse">
<stop offset="0.02513" stop-color="#E9DDF7"/>
<stop offset="0.19512" stop-color="#D3B2F9"/>
<stop offset="0.59134" stop-color="#A253FC"/>
<stop offset="0.86834" stop-color="#8417FE"/>
<stop offset="1" stop-color="#7800FF"/>
</linearGradient>
<linearGradient id="paint19_linear_134_10" x1="154.973" y1="92.5056" x2="107.809" y2="-6.59905" gradientUnits="userSpaceOnUse">
<stop offset="0.02513" stop-color="#E9DDF7"/>
<stop offset="0.19512" stop-color="#D3B2F9"/>
<stop offset="0.59134" stop-color="#A253FC"/>
<stop offset="0.86834" stop-color="#8417FE"/>
<stop offset="1" stop-color="#7800FF"/>
</linearGradient>
<linearGradient id="paint20_linear_134_10" x1="158.197" y1="90.9712" x2="111.033" y2="-8.13342" gradientUnits="userSpaceOnUse">
<stop offset="0.02513" stop-color="#E9DDF7"/>
<stop offset="0.19512" stop-color="#D3B2F9"/>
<stop offset="0.59134" stop-color="#A253FC"/>
<stop offset="0.86834" stop-color="#8417FE"/>
<stop offset="1" stop-color="#7800FF"/>
</linearGradient>
<linearGradient id="paint21_linear_134_10" x1="40.64" y1="-61.9538" x2="114.639" y2="57.7315" gradientUnits="userSpaceOnUse">
<stop stop-color="#7800FF"/>
<stop offset="0.14047" stop-color="#973CFD"/>
<stop offset="0.31529" stop-color="#BA80FA"/>
<stop offset="0.46185" stop-color="#D3B3F9"/>
<stop offset="0.57242" stop-color="#E3D1F7"/>
<stop offset="0.63425" stop-color="#E9DDF7"/>
</linearGradient>
<linearGradient id="paint22_linear_134_10" x1="83.0673" y1="89.6162" x2="38.0921" y2="26.1335" gradientUnits="userSpaceOnUse">
<stop offset="0.12583" stop-color="#E9DDF7"/>
<stop offset="0.12755" stop-color="#E9DCF7"/>
<stop offset="0.26176" stop-color="#CBA3F9"/>
<stop offset="0.39594" stop-color="#B271FB"/>
<stop offset="0.52733" stop-color="#9D48FC"/>
<stop offset="0.65523" stop-color="#8D29FE"/>
<stop offset="0.77873" stop-color="#8112FE"/>
<stop offset="0.89587" stop-color="#7A05FF"/>
<stop offset="1" stop-color="#7800FF"/>
</linearGradient>
<linearGradient id="paint23_linear_134_10" x1="134.327" y1="54.4423" x2="123.581" y2="-9.8364" gradientUnits="userSpaceOnUse">
<stop offset="0.12583" stop-color="#E9DDF7"/>
<stop offset="0.35689" stop-color="#E8DBF7"/>
<stop offset="0.48205" stop-color="#E4D3F7"/>
<stop offset="0.58183" stop-color="#DDC5F8"/>
<stop offset="0.66825" stop-color="#D3B2F9"/>
<stop offset="0.74607" stop-color="#C699F9"/>
<stop offset="0.81769" stop-color="#B67AFB"/>
<stop offset="0.88455" stop-color="#A355FC"/>
<stop offset="0.94592" stop-color="#8E2BFD"/>
<stop offset="1" stop-color="#7800FF"/>
</linearGradient>
<linearGradient id="paint24_linear_134_10" x1="63.1828" y1="27.3499" x2="116.367" y2="113.412" gradientUnits="userSpaceOnUse">
<stop offset="0.06272" stop-color="#7800FF"/>
<stop offset="1" stop-color="#E9DDF7"/>
</linearGradient>
<linearGradient id="paint25_linear_134_10" x1="70.6517" y1="125.575" x2="51.9452" y2="64.8782" gradientUnits="userSpaceOnUse">
<stop offset="0.02513" stop-color="#E9DDF7"/>
<stop offset="0.19512" stop-color="#D3B2F9"/>
<stop offset="0.59134" stop-color="#A253FC"/>
<stop offset="0.86834" stop-color="#8417FE"/>
<stop offset="1" stop-color="#7800FF"/>
</linearGradient>
<linearGradient id="paint26_linear_134_10" x1="72.6059" y1="124.973" x2="57.9858" y2="77.5353" gradientUnits="userSpaceOnUse">
<stop offset="0.02513" stop-color="#E9DDF7"/>
<stop offset="0.19512" stop-color="#D3B2F9"/>
<stop offset="0.59134" stop-color="#A253FC"/>
<stop offset="0.86834" stop-color="#8417FE"/>
<stop offset="1" stop-color="#7800FF"/>
</linearGradient>
<linearGradient id="paint27_linear_134_10" x1="83.6663" y1="85.541" x2="64.9598" y2="42.7548" gradientUnits="userSpaceOnUse">
<stop offset="0.02513" stop-color="#E9DDF7"/>
<stop offset="0.19512" stop-color="#D3B2F9"/>
<stop offset="0.59134" stop-color="#A253FC"/>
<stop offset="0.86834" stop-color="#8417FE"/>
<stop offset="1" stop-color="#7800FF"/>
</linearGradient>
<linearGradient id="paint28_linear_134_10" x1="168.465" y1="84.1349" x2="121.301" y2="-14.9697" gradientUnits="userSpaceOnUse">
<stop offset="0.02513" stop-color="#E9DDF7"/>
<stop offset="0.19512" stop-color="#D3B2F9"/>
<stop offset="0.59134" stop-color="#A253FC"/>
<stop offset="0.86834" stop-color="#8417FE"/>
<stop offset="1" stop-color="#7800FF"/>
</linearGradient>
<linearGradient id="paint29_linear_134_10" x1="153.913" y1="91.0615" x2="106.749" y2="-8.04311" gradientUnits="userSpaceOnUse">
<stop offset="0.02513" stop-color="#E9DDF7"/>
<stop offset="0.19512" stop-color="#D3B2F9"/>
<stop offset="0.59134" stop-color="#A253FC"/>
<stop offset="0.86834" stop-color="#8417FE"/>
<stop offset="1" stop-color="#7800FF"/>
</linearGradient>
<linearGradient id="paint30_linear_134_10" x1="157.137" y1="89.5273" x2="109.972" y2="-9.57736" gradientUnits="userSpaceOnUse">
<stop offset="0.02513" stop-color="#E9DDF7"/>
<stop offset="0.19512" stop-color="#D3B2F9"/>
<stop offset="0.59134" stop-color="#A253FC"/>
<stop offset="0.86834" stop-color="#8417FE"/>
<stop offset="1" stop-color="#7800FF"/>
</linearGradient>
<linearGradient id="paint31_linear_134_10" x1="210.682" y1="188.721" x2="235.91" y2="213.721" gradientUnits="userSpaceOnUse">
<stop offset="0.0986871" stop-color="white" stop-opacity="0"/>
<stop offset="0.1883" stop-color="#FBFBFB" stop-opacity="0.1017"/>
<stop offset="0.5973" stop-color="#EEEEEE" stop-opacity="0.5656"/>
<stop offset="0.9802" stop-color="#EAEAEA"/>
</linearGradient>
<linearGradient id="paint32_linear_134_10" x1="218.754" y1="204.73" x2="185.572" y2="225.336" gradientUnits="userSpaceOnUse">
<stop offset="0.4666" stop-color="white" stop-opacity="0"/>
<stop offset="0.5188" stop-color="#FBFBFB" stop-opacity="0.1017"/>
<stop offset="0.7571" stop-color="#EEEEEE" stop-opacity="0.5656"/>
<stop offset="0.9802" stop-color="#EAEAEA"/>
</linearGradient>
<linearGradient id="paint33_linear_134_10" x1="226.608" y1="156.743" x2="246.299" y2="156.743" gradientUnits="userSpaceOnUse">
<stop stop-color="white" stop-opacity="0"/>
<stop offset="0.0037895" stop-color="white" stop-opacity="0.01"/>
<stop offset="0.1624" stop-color="#F3F3F3" stop-opacity="0.1657"/>
<stop offset="0.3837" stop-color="#ECECEC" stop-opacity="0.3915"/>
<stop offset="0.9802" stop-color="#EAEAEA"/>
</linearGradient>
<linearGradient id="paint34_linear_134_10" x1="218.97" y1="140.787" x2="247.454" y2="153.06" gradientUnits="userSpaceOnUse">
<stop stop-color="white" stop-opacity="0"/>
<stop offset="0.0037895" stop-color="white" stop-opacity="0.01"/>
<stop offset="0.1624" stop-color="#F3F3F3" stop-opacity="0.1657"/>
<stop offset="0.3837" stop-color="#ECECEC" stop-opacity="0.3915"/>
<stop offset="0.9802" stop-color="#EAEAEA"/>
</linearGradient>
<linearGradient id="paint35_linear_134_10" x1="279.11" y1="167.952" x2="254.792" y2="179.012" gradientUnits="userSpaceOnUse">
<stop offset="0.0101021" stop-color="white" stop-opacity="0"/>
<stop offset="0.1087" stop-color="#FBFBFB" stop-opacity="0.1017"/>
<stop offset="0.5588" stop-color="#EEEEEE" stop-opacity="0.5656"/>
<stop offset="0.9802" stop-color="#EAEAEA"/>
</linearGradient>
</defs>
</svg>
