<svg width="145" height="145" viewBox="0 0 145 145" fill="none" xmlns="http://www.w3.org/2000/svg">
<path d="M72.2509 144.446C111.878 144.446 144.002 112.245 144.002 72.523C144.002 32.8008 111.878 0.599609 72.2509 0.599609C32.624 0.599609 0.5 32.8008 0.5 72.523C0.5 112.245 32.624 144.446 72.2509 144.446Z" fill="#FF4F12"/>
<mask id="mask0_406_44176" style="mask-type:alpha" maskUnits="userSpaceOnUse" x="0" y="0" width="145" height="145">
<path d="M72.7489 144.294C112.376 144.294 144.5 112.093 144.5 72.3707C144.5 32.6485 112.376 0.447266 72.7489 0.447266C33.122 0.447266 0.998047 32.6485 0.998047 72.3707C0.998047 112.093 33.122 144.294 72.7489 144.294Z" fill="#FF4F12"/>
</mask>
<g mask="url(#mask0_406_44176)">
<path d="M86.5081 132.552L55.4173 114.819C52.8578 113.385 51.2769 110.668 51.2769 107.725L50.8252 18.3038C50.8252 14.2289 55.1915 11.6632 58.6543 13.7007L89.5945 31.3586C92.681 33.1697 94.6383 36.4145 94.6383 40.0367L95.1653 127.496C95.1653 131.949 90.3474 134.741 86.5081 132.552Z" fill="#E9EAEB" stroke="#575D68" stroke-width="0.4" stroke-miterlimit="10"/>
<path d="M86.5078 132.099L55.5676 114.441C53.0833 113.007 51.5777 110.366 51.5777 107.574L51.0508 18.3788C51.0508 16.2658 53.3845 14.9075 55.1912 15.964L88.164 34.8293C90.7235 36.3386 92.3797 39.0552 92.3797 41.9982L92.9066 128.401C92.9819 131.646 89.3685 133.759 86.5078 132.099Z" fill="#DDDEDF" stroke="#575D68" stroke-width="0.4" stroke-miterlimit="10"/>
<path d="M81.3138 34.3011V35.8103C81.3138 37.2441 79.8082 38.0742 78.6037 37.395L64.9027 29.547C63.2465 28.566 62.1926 26.8304 62.1926 24.8684V22.9064C62.1926 22.5291 61.9668 22.2273 61.6656 22.0764L55.4927 18.5297C54.1376 17.7751 52.4814 18.7561 52.4814 20.2653L53.0084 105.763C53.0084 108.706 54.5893 111.423 57.1488 112.932L87.7126 130.363C89.4441 131.344 91.5519 130.062 91.5519 128.1L91.025 42.8282C91.025 40.338 89.6699 38.0742 87.5621 36.8668L82.2172 33.7729C81.7655 33.6219 81.3138 33.8483 81.3138 34.3011Z" fill="#F6F6F6" stroke="#575D68" stroke-width="0.4" stroke-miterlimit="10"/>
<path d="M66.4834 27.1325C66.4834 27.2835 66.6339 27.4344 66.7845 27.5098L76.2698 33.094C77.0979 33.5467 77.0979 32.6412 76.5709 32.3394L67.0103 26.6043C66.7092 26.5288 66.4081 26.7552 66.4834 27.1325Z" fill="#DDDEDF" stroke="#575D68" stroke-width="0.4" stroke-miterlimit="10"/>
<path d="M94.036 55.3543C94.4877 55.0524 95.0147 55.3543 95.0147 55.8825V64.1078C95.0147 64.7115 94.7135 65.2397 94.2618 65.5416C93.8102 65.768 93.2832 65.4661 93.2832 65.0133V56.7126C93.2832 56.1844 93.5843 55.6561 94.036 55.3543Z" fill="#F6F6F6" stroke="#575D68" stroke-width="0.4" stroke-miterlimit="10"/>
<path d="M76.5717 32.414L67.0111 26.679C66.9358 26.6035 66.8605 26.6035 66.7852 26.6035C66.71 26.679 66.71 26.8299 66.71 26.9054C66.71 27.0563 66.8605 27.2072 67.0111 27.2827L76.4964 32.8668C76.647 32.9423 76.7975 33.0177 76.8728 33.0177C76.9481 32.9423 76.7975 32.565 76.5717 32.414Z" fill="#DDDEDF" stroke="#575D68" stroke-width="0.4" stroke-miterlimit="10"/>
<path d="M94.4127 55.5066C94.8644 55.2048 95.3913 55.5066 95.3913 56.0349V64.2601C95.3913 64.8638 95.0902 65.3921 94.6385 65.6939C94.1868 65.9203 93.6599 65.6185 93.6599 65.1657V56.8649C93.5846 56.3367 93.8857 55.8085 94.4127 55.5066Z" fill="#F6F6F6" stroke="#575D68" stroke-width="0.4" stroke-miterlimit="10"/>
<path d="M93.8102 106.668C94.1866 106.442 94.563 106.668 94.563 107.046V116.328C94.563 116.78 94.3372 117.233 93.9608 117.459C93.6597 117.686 93.208 117.384 93.208 117.007V107.725C93.208 107.272 93.4338 106.895 93.8102 106.668Z" fill="#F6F6F6" stroke="#575D68" stroke-width="0.4" stroke-miterlimit="10"/>
<path d="M94.4121 116.102C94.4121 116.329 94.2615 116.631 94.0357 116.631C93.8098 116.706 93.584 116.48 93.584 116.178C93.584 115.876 93.8098 115.574 94.0357 115.574C94.2615 115.65 94.4121 115.876 94.4121 116.102Z" fill="#F6F6F6" stroke="#575D68" stroke-width="0.4" stroke-miterlimit="10"/>
<path d="M66.4834 27.1325C66.4834 27.2835 66.6339 27.4344 66.7845 27.5098L76.2698 33.094C77.0979 33.5467 77.0979 32.6412 76.5709 32.3394L67.0103 26.6043C66.7092 26.5288 66.4081 26.7552 66.4834 27.1325Z" fill="#DDDEDF"/>
<path d="M58.6545 61.9208C58.805 62.4491 58.9556 62.9773 59.1814 63.5055C59.8589 65.0902 60.9882 66.6749 61.1387 68.2596C61.2893 69.316 60.8376 70.0707 60.7623 71.0516C60.5365 72.5609 60.9882 74.5983 61.8915 76.2585C62.7949 77.9941 64.2252 79.2769 65.505 79.7297C66.3331 80.0315 67.3117 79.9561 67.9892 81.0126C68.742 81.9935 69.0431 82.8991 69.9465 83.7292C70.8499 84.5592 71.8285 85.2384 72.8072 85.3138C73.9364 85.4648 74.3128 83.8801 75.5173 84.4838C76.1195 84.7856 76.7217 85.3138 77.324 85.8421C78.2273 86.5967 79.206 87.2758 80.1093 87.7286C80.3352 87.8795 80.6363 87.955 80.7869 87.8795C80.9374 87.8041 81.0127 87.6531 81.088 87.5022C81.5397 86.2194 81.3891 84.1819 82.3678 83.7292C82.8194 83.5028 83.4217 83.8046 83.9486 83.6537C84.9273 83.4273 85.2284 81.9181 85.3037 80.4089C85.379 77.6922 84.9273 74.1456 83.0453 71.5799C81.9914 70.1461 80.6363 69.1651 79.9588 67.4295C79.1307 65.4675 79.8082 63.8074 79.6577 61.9208C79.5071 60.2607 78.7543 58.3741 78.0015 56.714C77.3993 55.3557 76.7217 53.9219 75.7431 53.1673C74.9903 52.5636 74.1622 52.4882 73.4847 51.7335C73.033 51.2053 72.6566 50.3752 72.2049 49.847C71.3016 48.9415 69.5701 47.9605 68.6667 47.5077C67.4623 46.9795 66.2578 46.9795 65.3544 47.4322C63.4724 48.2623 62.1174 50.7525 62.4938 54.2238C62.569 54.6765 62.6443 55.1293 62.569 55.5066C62.3432 57.1668 60.3859 57.0913 59.5578 57.9214C58.5039 58.4496 58.2781 60.1098 58.6545 61.9208Z" fill="#F6F6F6" stroke="#575D68" stroke-width="0.4" stroke-miterlimit="10"/>
<path d="M58.6545 61.9208C58.805 62.4491 58.9556 62.9773 59.1814 63.5055C59.8589 65.0902 60.9882 66.6749 61.1387 68.2596C61.2893 69.316 60.8376 70.0707 60.7623 71.0516C60.5365 72.5609 60.9882 74.5983 61.8915 76.2585C62.7949 77.9941 64.2252 79.2769 65.505 79.7297C66.3331 80.0315 67.3117 79.9561 67.9892 81.0126C68.742 81.9935 69.0431 82.8991 69.9465 83.7292C70.8499 84.5592 71.8285 85.2384 72.8072 85.3138C73.9364 85.4648 74.3128 83.8801 75.5173 84.4838C76.1195 84.7856 76.7217 85.3138 77.324 85.8421C78.2273 86.5967 79.206 87.2758 80.1093 87.7286C80.3352 87.8795 80.6363 87.955 80.7869 87.8795C80.9374 87.8041 81.0127 87.6531 81.088 87.5022C81.5397 86.2194 81.3891 84.1819 82.3678 83.7292C82.8194 83.5028 83.4217 83.8046 83.9486 83.6537C84.9273 83.4273 85.2284 81.9181 85.3037 80.4089C85.379 77.6922 84.9273 74.1456 83.0453 71.5799C81.9914 70.1461 80.6363 69.1651 79.9588 67.4295C79.1307 65.4675 79.8082 63.8074 79.6577 61.9208C79.5071 60.2607 78.7543 58.3741 78.0015 56.714C77.3993 55.3557 76.7217 53.9219 75.7431 53.1673C74.9903 52.5636 74.1622 52.4882 73.4847 51.7335C73.033 51.2053 72.6566 50.3752 72.2049 49.847C71.3016 48.9415 69.5701 47.9605 68.6667 47.5077C67.4623 46.9795 66.2578 46.9795 65.3544 47.4322C63.4724 48.2623 62.1174 50.7525 62.4938 54.2238C62.569 54.6765 62.6443 55.1293 62.569 55.5066C62.3432 57.1668 60.3859 57.0913 59.5578 57.9214C58.5039 58.4496 58.2781 60.1098 58.6545 61.9208Z" fill="#DDDEDF"/>
<path d="M88.6163 112.933C88.6163 112.933 88.2399 100.784 85.9062 96.7086C82.6691 91.1245 75.6681 86.5968 75.6681 86.5968L68.0648 82.4464C68.0648 82.4464 58.5794 78.6734 57.6008 83.5784C56.6222 88.4079 56.5469 95.8031 56.5469 95.8031" fill="#F6F6F6"/>
<path d="M88.6163 112.933C88.6163 112.933 88.2399 100.784 85.9062 96.7086C82.6691 91.1245 75.6681 86.5968 75.6681 86.5968L68.0648 82.4464C68.0648 82.4464 58.5794 78.6734 57.6008 83.5784C56.6222 88.4079 56.5469 95.8031 56.5469 95.8031" stroke="#575D68" stroke-width="0.4" stroke-miterlimit="10"/>
<path d="M67.9146 74.9004L68.1405 82.2201C68.2157 83.503 68.5921 84.8613 69.2697 86.1441C69.7966 87.1251 70.6247 88.2571 71.6034 88.9362L71.6786 89.0117C73.937 90.5209 75.8191 89.0871 75.6685 86.1441L75.3674 77.4661C75.3674 77.4661 67.8393 75.8059 67.9146 74.9004Z" fill="#F6F6F6" stroke="#575D68" stroke-width="0.4" stroke-miterlimit="10"/>
<path d="M78.6044 70.5225C78.8302 76.7858 75.7437 80.4834 73.6359 82.219C72.6572 83.0491 71.0011 82.1436 69.9471 80.257C67.6887 76.1821 64.2258 69.0133 64 62.75" fill="#F6F6F6"/>
<path d="M78.6044 70.5225C78.8302 76.7858 75.7437 80.4834 73.6359 82.219C72.6572 83.0491 71.0011 82.1436 69.9471 80.257C67.6887 76.1821 64.2258 69.0133 64 62.75" stroke="#575D68" stroke-width="0.4" stroke-miterlimit="10"/>
<path d="M72.1303 58.4494C72.3562 59.5059 72.8831 60.5623 73.5606 61.3169C74.0876 61.9206 74.7651 62.147 75.2168 62.9771C75.6685 63.8826 75.5932 64.9391 76.1202 65.9955C76.6471 67.052 77.4752 67.8821 78.1527 68.7121L78.3786 71.4287L63.6989 63.5808L63.0967 59.1285C63.172 59.5813 63.3225 60.1095 63.6236 60.5623C64.0753 61.166 64.6023 61.5433 65.054 61.5433C65.5809 61.4678 66.0326 61.3924 66.409 61.0151C66.7854 60.6378 67.0113 60.0341 66.936 59.2795C66.936 58.9776 66.8607 58.6003 66.936 58.2985C67.1618 57.5439 68.1405 58.9776 68.5169 59.3549C69.3449 60.185 70.3236 60.5623 71.0764 60.2605C71.8292 59.9586 72.2056 59.0531 72.1303 57.8457" fill="#F6F6F6"/>
<path d="M72.1303 58.4494C72.3562 59.5059 72.8831 60.5623 73.5606 61.3169C74.0876 61.9206 74.7651 62.147 75.2168 62.9771C75.6685 63.8826 75.5932 64.9391 76.1202 65.9955C76.6471 67.052 77.4752 67.8821 78.1527 68.7121L78.3786 71.4287L63.6989 63.5808L63.0967 59.1285C63.172 59.5813 63.3225 60.1095 63.6236 60.5623C64.0753 61.166 64.6023 61.5433 65.054 61.5433C65.5809 61.4678 66.0326 61.3924 66.409 61.0151C66.7854 60.6378 67.0113 60.0341 66.936 59.2795C66.936 58.9776 66.8607 58.6003 66.936 58.2985C67.1618 57.5439 68.1405 58.9776 68.5169 59.3549C69.3449 60.185 70.3236 60.5623 71.0764 60.2605C71.8292 59.9586 72.2056 59.0531 72.1303 57.8457" fill="#F6F6F6"/>
<path d="M63.6989 63.5807L63.0967 59.1285C63.172 59.5813 63.3225 60.1095 63.6236 60.5623C64.0753 61.166 64.6023 61.5433 65.054 61.5433C65.5809 61.4678 66.0326 61.3924 66.409 61.0151C66.7854 60.6378 67.0113 60.0341 66.936 59.2795C66.936 58.9776 66.8607 58.6003 66.936 58.2985C67.1618 57.5438 68.1405 58.9776 68.5169 59.3549C69.3449 60.185 70.3236 60.5623 71.0764 60.2605C71.8292 59.9586 72.2056 59.0531 72.1303 57.8457C72.1303 57.6193 72.1303 57.4684 72.1303 57.3175C72.2056 57.242 72.2809 57.1665 72.3562 57.1665C73.109 57.0156 73.6359 57.6193 74.1629 56.8647C74.464 56.3365 74.6146 55.4309 74.6146 54.5254" stroke="#575D68" stroke-width="0.4" stroke-miterlimit="10"/>
<path d="M72.1309 58.4492C72.3567 59.5057 72.8837 60.5621 73.5612 61.3167C74.0881 61.9204 74.7657 62.1468 75.2174 62.9769C75.669 63.8824 75.5937 64.9389 76.1207 65.9954C76.6477 67.0518 77.4758 67.8819 78.1533 68.712V70.3721C78.1533 70.3721 79.2825 68.9383 79.7342 71.5795C80.1859 74.0697 79.5083 75.8053 78.7555 75.3526C77.9274 74.8998 78.078 74.2206 78.078 74.2206" fill="#F6F6F6"/>
<path d="M72.1309 58.4492C72.3567 59.5057 72.8837 60.5621 73.5612 61.3167C74.0881 61.9204 74.7657 62.1468 75.2174 62.9769C75.669 63.8824 75.5937 64.9389 76.1207 65.9954C76.6477 67.0518 77.4758 67.8819 78.1533 68.712V70.3721C78.1533 70.3721 79.2825 68.9383 79.7342 71.5795C80.1859 74.0697 79.5083 75.8053 78.7555 75.3526C77.9274 74.8998 78.078 74.2206 78.078 74.2206" stroke="#575D68" stroke-width="0.4" stroke-miterlimit="10"/>
<path d="M72.4316 66.5227C72.4316 66.5227 73.335 65.9945 74.6148 67.0509C75.8945 68.1074 76.7979 69.5411 76.7979 69.5411" fill="#F6F6F6"/>
<path d="M72.4316 66.5227C72.4316 66.5227 73.335 65.9945 74.6148 67.0509C75.8945 68.1074 76.7979 69.5411 76.7979 69.5411" stroke="#575D68" stroke-width="0.4" stroke-miterlimit="10"/>
<path d="M70.2481 65.3915C70.2481 65.3915 69.2695 63.8822 67.9897 63.5049C66.7099 63.1276 65.8818 63.7313 65.8818 63.7313" fill="#F6F6F6"/>
<path d="M70.2481 65.3915C70.2481 65.3915 69.2695 63.8822 67.9897 63.5049C66.7099 63.1276 65.8818 63.7313 65.8818 63.7313" stroke="#575D68" stroke-width="0.4" stroke-miterlimit="10"/>
<path d="M64.4517 63.6559C64.4517 63.6559 63.1719 60.9393 62.8708 63.1277C62.5697 65.2406 63.3978 67.8063 64.2259 68.1836C64.9787 68.5609 64.8281 67.7308 64.8281 67.7308" fill="#F6F6F6"/>
<path d="M64.4517 63.6559C64.4517 63.6559 63.1719 60.9393 62.8708 63.1277C62.5697 65.2406 63.3978 67.8063 64.2259 68.1836C64.9787 68.5609 64.8281 67.7308 64.8281 67.7308" stroke="#575D68" stroke-width="0.4" stroke-miterlimit="10"/>
<path d="M56.3964 47.8849L54.8156 47.0548L54.7403 43.9609C54.5897 40.5651 56.6223 38.905 59.2571 40.2633L61.6661 41.5461L61.7413 43.5836L59.2571 42.3007C57.5256 41.3952 56.1706 42.4516 56.2459 44.7909L56.3964 47.8849Z" fill="#FF4F12"/>
<path d="M86.5846 63.9584L85.0037 63.1283L84.9284 59.9589C84.8531 57.6951 83.3475 55.054 81.6161 54.1484L79.2071 52.8656L79.1318 50.8281L81.5408 52.111C84.1756 53.4693 86.3587 57.3933 86.5093 60.789L86.5846 63.9584Z" fill="#FF4F12"/>
<path d="M82.2938 95.6509L79.8848 94.3681L79.8096 92.3306L82.2185 93.6134C83.95 94.519 85.305 93.4625 85.2298 91.1232L85.1545 88.0293L86.7354 88.8594L86.8106 91.9533C86.9612 95.4245 84.9286 97.0847 82.2938 95.6509Z" fill="#FF4F12"/>
<path d="M62.4195 85.0873L60.0106 83.8045C57.3758 82.4462 55.1926 78.5222 55.0421 75.1264L54.9668 71.957L56.5477 72.7871L56.623 75.9565C56.6982 78.2203 58.2039 80.8615 59.9353 81.767L62.3443 83.0498L62.4195 85.0873Z" fill="#FF4F12"/>
</g>
</svg>
