<svg width="742" height="429" viewBox="0 0 742 429" fill="none" xmlns="http://www.w3.org/2000/svg">
<g opacity="0.3">
<path d="M372.193 1.48828L741.225 214.881" stroke="#C4C4C4" stroke-width="1.0286" stroke-miterlimit="10"/>
<path d="M318.2 32.0039L687.232 245.327" stroke="#C4C4C4" stroke-width="1.0286" stroke-miterlimit="10"/>
<path d="M265.392 62.4473L634.424 275.84" stroke="#C4C4C4" stroke-width="1.0286" stroke-miterlimit="10"/>
<path d="M212.514 92.9629L581.615 306.286" stroke="#C4C4C4" stroke-width="1.0286" stroke-miterlimit="10"/>
<path d="M159.705 123.408L528.806 336.801" stroke="#C4C4C4" stroke-width="1.0286" stroke-miterlimit="10"/>
<path d="M106.896 153.922L475.928 367.315" stroke="#C4C4C4" stroke-width="1.0286" stroke-miterlimit="10"/>
<path d="M54.0881 184.367L423.12 397.76" stroke="#C4C4C4" stroke-width="1.0286" stroke-miterlimit="10"/>
<path d="M1.27979 214.881L370.311 428.274" stroke="#C4C4C4" stroke-width="1.0286" stroke-miterlimit="10"/>
<path d="M740.526 214.881L370.798 428.274" stroke="#C4C4C4" stroke-width="1.0286" stroke-miterlimit="10"/>
<path d="M687.927 184.297L317.989 397.76" stroke="#C4C4C4" stroke-width="1.0286" stroke-miterlimit="10"/>
<path d="M635.259 153.781L265.112 367.244" stroke="#C4C4C4" stroke-width="1.0286" stroke-miterlimit="10"/>
<path d="M582.659 123.197L212.304 336.73" stroke="#C4C4C4" stroke-width="1.0286" stroke-miterlimit="10"/>
<path d="M529.99 92.6836L159.495 306.216" stroke="#C4C4C4" stroke-width="1.0286" stroke-miterlimit="10"/>
<path d="M477.32 62.0996L106.617 275.702" stroke="#C4C4C4" stroke-width="1.0286" stroke-miterlimit="10"/>
<path d="M424.721 31.584L53.8083 245.186" stroke="#C4C4C4" stroke-width="1.0286" stroke-miterlimit="10"/>
<path d="M372.052 1L1 214.672" stroke="#C4C4C4" stroke-width="1.0286" stroke-miterlimit="10"/>
</g>
</svg>
