<svg width="138" height="123" viewBox="0 0 138 123" fill="none" xmlns="http://www.w3.org/2000/svg">
<path d="M1.7002 6.23854L7.5002 41.4385C7.5002 43.0385 8.4002 44.5385 9.8002 45.3385L129.5 121.939L135.6 118.239C136.6 117.539 137.5 117.139 137.5 115.139V77.3385C137.5 75.6385 136.6 74.1385 135.1 73.2385L11.4002 1.33854C10.5002 0.838535 9.6002 0.938535 8.8002 1.33854C8.1002 1.73854 1.7002 6.23854 1.7002 6.23854Z" fill="#F6F6F6" stroke="#FF4F12" stroke-width="0.3123"/>
<path d="M1 8.13887V46.0389C1 47.6389 1.9 49.1389 3.3 49.9389L127.2 121.939C128.9 122.939 131 121.739 131 119.739V81.8389C131 80.1389 130.1 78.6389 128.6 77.7389L4.8 5.83887C3.1 4.83887 1 6.13887 1 8.13887Z" fill="#F6F6F6" stroke="#FF4F12" stroke-width="0.3123"/>
<path d="M104.267 70.7473L107.366 69L126.454 95.4396L123.421 97.0549L105.849 78.4945L104.267 70.7473Z" fill="#C13610" stroke="#575D68" stroke-width="0.5" stroke-miterlimit="10"/>
<path d="M123.421 97.055L104.234 105V70.9121L123.421 97.055Z" fill="#FF4F12" stroke="#575D68" stroke-width="0.5" stroke-miterlimit="10"/>
<path d="M16.063 41.772C15.3002 41.9927 14.4286 41.772 13.339 41.2203C12.3584 40.6686 11.3777 39.7858 10.615 38.572C9.8523 37.3582 9.19855 36.1444 8.65375 34.71C8.21792 33.2755 8 31.7306 8 30.2962C8 28.8617 8.21792 27.6479 8.76271 26.7651C9.19855 25.8824 9.8523 25.3306 10.724 25.11C11.5956 24.8893 12.4673 25.11 13.4479 25.6617C14.5375 26.3238 15.4092 27.2065 16.1719 28.31C16.9346 29.4134 17.4794 30.6272 17.9153 32.0617L16.4988 32.3927C16.1719 31.2893 15.7361 30.4065 15.1913 29.6341C14.6465 28.8617 14.1017 28.31 13.339 27.8686C12.6852 27.4272 12.1404 27.3169 11.4867 27.4272C10.9419 27.5375 10.5061 27.9789 10.1792 28.641C9.8523 29.3031 9.74334 30.1858 9.74334 31.2893C9.74334 32.3927 9.8523 33.4962 10.1792 34.4893C10.5061 35.4824 10.9419 36.4755 11.4867 37.2479C12.0315 38.0203 12.6852 38.6824 13.339 39.0134C14.1017 39.4548 14.7554 39.5651 15.1913 39.4548C15.7361 39.3444 16.1719 38.9031 16.6077 38.241L17.9153 40.1169C17.3705 40.9996 16.8257 41.5513 16.063 41.772Z" fill="#FF4F12"/>
<path d="M19.8765 29.8545L22.2736 31.289L25.5424 45.3028L28.8112 35.151L31.2083 36.5855V51.3717L29.5739 50.3786V38.7924L26.3051 48.3924L24.6707 47.5097L21.402 34.0476V45.6338L19.7676 44.6407L19.8765 29.8545Z" fill="#FF4F12"/>
<path d="M43.7385 55.4544C43.1937 56.3371 42.5399 56.8889 41.6683 56.9992C40.7966 57.1096 39.9249 56.8889 38.9443 56.3371C37.9637 55.7854 37.092 54.9027 36.2203 53.7992C35.3486 52.6958 34.6949 51.3716 34.2591 49.9371C33.8232 48.5027 33.4963 46.9578 33.4963 45.3027C33.4963 43.6475 33.7143 42.4337 34.2591 41.5509C34.8038 40.6682 35.4576 40.1164 36.2203 40.0061C37.092 39.8958 37.9637 40.1164 38.9443 40.6682C39.9249 41.2199 40.7966 42.1027 41.6683 43.2061C42.5399 44.3096 43.1937 45.6337 43.6295 47.0682C44.1743 48.5027 44.3922 50.0475 44.3922 51.7027C44.5012 53.3578 44.2833 54.5716 43.7385 55.4544ZM40.9055 54.5716C41.4503 54.4613 41.8862 54.0199 42.322 53.3578C42.6489 52.6958 42.8668 51.813 42.8668 50.7095C42.8668 49.6061 42.7578 48.5027 42.431 47.5096C42.1041 46.5164 41.6683 45.5233 41.1235 44.7509C40.5787 43.9785 39.9249 43.3164 39.1622 42.8751C38.5084 42.4337 37.8547 42.3233 37.3099 42.4337C36.7651 42.544 36.3293 42.9854 35.8934 43.6475C35.5666 44.3095 35.3486 45.1923 35.3486 46.2958C35.3486 47.3992 35.4576 48.5027 35.7845 49.4958C36.1114 50.4889 36.5472 51.482 37.092 52.2544C37.6368 53.0268 38.2905 53.6889 38.9443 54.1302C39.707 54.5716 40.3607 54.682 40.9055 54.5716Z" fill="#FF4F12"/>
<path d="M48.7505 48.9441L45.3728 46.9579V44.8613L53.9806 49.9372V52.0337L50.4939 50.0475V62.6268L48.7505 61.6337V48.9441Z" fill="#FF4F12"/>
<path d="M57.6852 52.1445V54.7927C58.0121 54.1307 58.5569 53.6893 59.2107 53.4686C59.8644 53.2479 60.6271 53.4686 61.4988 53.91C62.3705 54.4617 63.2421 55.2341 64.0048 56.3376C64.7676 57.441 65.3124 58.6548 65.7482 60.0893C66.184 61.5238 66.4019 62.9583 66.4019 64.5031C66.4019 65.9376 66.184 67.1514 65.7482 68.1445C65.3124 69.0272 64.7676 69.6893 64.0048 69.91C63.2421 70.1307 62.3705 69.91 61.3898 69.3583C60.6271 68.9169 59.8644 68.2548 59.2107 67.3721C58.5569 66.4893 58.0121 65.4962 57.6852 64.3927V72.8893L55.9419 71.8962V51.041L57.6852 52.1445ZM59.2107 55.4548C58.6659 55.6755 58.23 56.0065 57.9032 56.7789C57.5763 57.441 57.4673 58.3238 57.4673 59.4272C57.4673 60.5307 57.5763 61.5238 57.9032 62.6272C58.23 63.6203 58.6659 64.6134 59.1017 65.3858C59.6465 66.1583 60.1913 66.8203 60.954 67.1514C61.6078 67.5927 62.2615 67.7031 62.8063 67.4824C63.3511 67.372 63.7869 66.9307 64.1138 66.2686C64.4407 65.6065 64.5496 64.7238 64.5496 63.6203C64.5496 62.5169 64.4407 61.5238 64.1138 60.4203C63.7869 59.4272 63.3511 58.4341 62.9153 57.6617C62.3705 56.8893 61.8257 56.2272 61.063 55.8962C60.4092 55.4548 59.7555 55.3445 59.2107 55.4548Z" fill="#FF4F12"/>
<path d="M70.6514 71.3446C71.3051 72.7791 72.1768 73.7722 73.1574 74.324C73.9202 74.7653 74.5739 74.986 75.1187 74.7653C75.5545 74.5446 76.0993 74.2136 76.5352 73.6619L77.8427 75.4274C77.2979 76.3102 76.7531 76.8619 75.9904 77.0826C75.2277 77.3033 74.356 77.0826 73.1574 76.4205C72.1768 75.8688 71.3051 74.986 70.5424 73.8826C69.7797 72.7791 69.126 71.455 68.6901 70.0205C68.2543 68.586 68.0364 67.0412 68.0364 65.6067C68.0364 64.1722 68.2543 62.9584 68.7991 61.9653C69.2349 61.0826 69.8887 60.5308 70.7603 60.3102C71.5231 60.0895 72.3947 60.3102 73.3754 60.8619C74.356 61.4136 75.2277 62.2964 75.9904 63.3998C76.7531 64.5033 77.2979 65.7171 77.7337 67.0412C78.1695 68.3653 78.3875 69.7998 78.3875 71.2343V72.0067L69.6708 66.9308C69.6708 68.4757 69.9976 70.0205 70.6514 71.3446ZM70.8693 62.6274C70.2156 63.0688 69.7797 63.8412 69.5618 64.9446L76.4262 69.0274C76.4262 67.5929 75.9904 66.3791 75.4456 65.2757C74.7918 64.1722 74.0291 63.2895 73.1574 62.7377C72.3947 62.2964 71.5231 62.186 70.8693 62.6274Z" fill="#FF4F12"/>
<path d="M82.6368 68.9167L79.259 66.9305V64.834L87.8668 69.9098V72.0064L84.2711 69.9098V82.4892L82.5278 81.4961L82.6368 68.9167Z" fill="#FF4F12"/>
<path d="M89.8281 71.0137L91.5715 72.0068V77.3033L94.2954 78.8482C95.494 79.5102 96.3657 80.5033 97.0194 81.7171C97.6732 82.9309 98 84.255 98 85.7999C98 87.2344 97.6732 88.2275 97.0194 88.6688C96.3657 89.1102 95.385 88.9999 94.2954 88.3378L89.9371 85.7999L89.8281 71.0137ZM94.2954 86.4619C94.9492 86.793 95.385 86.9033 95.8209 86.5723C96.1477 86.2413 96.3657 85.6895 96.3657 84.8068C96.3657 83.924 96.1477 83.1516 95.8209 82.4895C95.494 81.7171 94.9492 81.2757 94.2954 80.8344L91.5715 79.1792V84.8068L94.2954 86.4619Z" fill="#FF4F12"/>
</svg>
