<svg width="146" height="146" viewBox="0 0 146 146" fill="none" xmlns="http://www.w3.org/2000/svg">
<path d="M73 145C112.765 145 145 112.765 145 73C145 33.2355 112.765 1 73 1C33.2355 1 1 33.2355 1 73C1 112.765 33.2355 145 73 145Z" fill="#FF4F12"/>
<mask id="mask0_406_47670" style="mask-type:alpha" maskUnits="userSpaceOnUse" x="1" y="1" width="144" height="144">
<path d="M73 145C112.765 145 145 112.765 145 73C145 33.2355 112.765 1 73 1C33.2355 1 1 33.2355 1 73C1 112.765 33.2355 145 73 145Z" fill="#FF4F12"/>
</mask>
<g mask="url(#mask0_406_47670)">
<path d="M88.8671 40.4938L97.8681 56.9703V67.497L82.1544 58.4197L82.0781 36.6035L88.8671 40.4938Z" fill="#F6F6F6" stroke="#575D68" stroke-width="0.4" stroke-miterlimit="10"/>
<path d="M97.9439 130.2L48.1329 101.595L48.0566 17L88.8665 40.4943V51.7838L97.8676 56.9708L97.9439 130.2Z" fill="#F6F6F6" stroke="#575D68" stroke-width="0.4" stroke-miterlimit="10"/>
<path d="M60.5664 49.3431L53.7012 45.4528V34.6973L60.4901 38.6638L60.5664 49.3431Z" fill="#DDDEDF"/>
<path d="M92.2219 67.5735L63.8457 51.2495V40.5703L92.2219 56.8943V67.5735Z" fill="#DDDEDF"/>
<path d="M92.2227 77.4141L53.7775 55.2166L53.7012 49.877L92.2227 72.0745V77.4141Z" fill="#DDDEDF"/>
<path d="M92.2226 89.0077L53.7773 66.8865V61.5469L92.2226 83.6681V89.0077Z" fill="#DDDEDF"/>
<path d="M92.2988 102.053L53.7773 79.9314V74.5918L92.2988 96.7131V102.053Z" fill="#DDDEDF"/>
<path d="M92.2988 114.943L53.7773 92.822V87.4824L92.2988 109.604V114.943Z" fill="#DDDEDF"/>
<path d="M70.8845 95.8867C69.8166 95.2765 68.6724 94.2848 67.6044 92.9118C64.9346 89.6317 62.9513 86.8857 60.4341 83.3005C58.3745 80.3256 57.3066 77.1981 57.1541 73.8417C56.9252 69.7226 56.9252 66.2137 57.1541 62.3234C57.3066 59.1197 58.3745 57.2889 60.4341 56.6787C62.9513 55.9159 64.9346 55.5345 67.6044 55.3057C69.8166 55.1531 71.9524 56.3736 74.1645 59.1197C76.8343 62.3997 78.8176 65.1458 81.3349 68.731C83.3944 71.7059 84.4624 74.8334 84.6149 78.1897C84.8438 82.3088 84.8438 85.8177 84.6149 89.708C84.4624 92.9118 83.3944 94.7425 81.3349 95.3528C78.8176 96.1156 76.8343 96.497 74.1645 96.7258C73.0966 96.8021 72.0287 96.497 70.8845 95.8867ZM58.4508 63.1625C58.2983 66.9765 58.2983 70.4091 58.4508 74.452C58.6034 77.2744 59.4425 79.7153 61.1969 82.2326C63.6379 85.8177 65.6212 88.4113 68.2147 91.6913C70.0454 93.9797 71.7998 94.9714 73.6306 94.8188C76.2241 94.59 78.2074 94.2086 80.6484 93.4458C82.3265 92.9118 83.2419 91.4625 83.3182 88.7927C83.4707 84.9787 83.4707 81.546 83.3182 77.5032C83.1656 74.6808 82.3265 72.2399 80.5721 69.7226C78.1311 66.1374 76.1478 63.5439 73.5543 60.2639C71.7236 57.9755 69.9691 56.9838 68.1384 57.1364C65.5449 57.3652 63.5616 57.7466 61.1206 58.5094C59.4425 59.0434 58.6034 60.4927 58.4508 63.1625Z" fill="#FF4F12"/>
<path d="M58.4504 63.1624C58.2978 66.9765 58.2978 70.4091 58.4504 74.4519C58.6029 77.2743 59.442 79.7152 61.1964 82.2325C63.6374 85.8177 65.6207 88.4112 68.2142 91.6912C70.0449 93.9796 71.7994 94.9713 73.6301 94.8187C76.2236 94.5899 78.2069 94.2085 80.6479 93.4457C82.3261 92.9117 83.2414 91.4624 83.3177 88.7926C83.4703 84.9786 83.4703 81.546 83.3177 77.5031C83.1651 74.6807 82.3261 72.2398 80.5716 69.7225C78.1306 66.1374 76.1474 63.5438 73.5538 60.2638C71.7231 57.9754 69.9687 56.9837 68.1379 57.1363C65.5444 57.3651 63.5611 57.7465 61.1202 58.5093C59.442 59.0433 58.6029 60.4926 58.4504 63.1624Z" fill="#F6F6F6"/>
<path d="M70.0253 85.1194L64.6094 69.7871L66.5927 70.855L70.1015 80.6952L76.0514 71.0839L78.111 72.2281L70.0253 85.1194Z" fill="#FF4F12"/>
</g>
<path d="M73 145C112.765 145 145 112.765 145 73C145 33.2355 112.765 1 73 1C33.2355 1 1 33.2355 1 73C1 112.765 33.2355 145 73 145Z" stroke="#FF4F12" stroke-miterlimit="10"/>
</svg>
