<svg width="144" height="144" viewBox="0 0 144 144" fill="none" xmlns="http://www.w3.org/2000/svg">
<circle cx="72" cy="72" r="72" fill="#FF4F12"/>
<mask id="mask0_406_33519" style="mask-type:alpha" maskUnits="userSpaceOnUse" x="0" y="0" width="144" height="144">
<circle cx="72" cy="72" r="72" fill="#FF4F12"/>
</mask>
<g mask="url(#mask0_406_33519)">
<path d="M12.6504 175.939V147.683C12.6504 145.59 14.3947 143.846 16.6621 143.846H17.0108C19.1039 143.846 21.0226 145.416 21.0226 147.509V147.683V175.764V175.939C21.0226 176.462 20.4992 176.985 19.8015 177.334C19.1038 177.683 18.0574 177.857 16.8365 177.857C15.79 177.857 14.7435 177.683 14.0458 177.334C13.3481 176.811 12.8248 176.462 12.6504 175.939Z" fill="#F6F6F6" stroke="#575D68" stroke-width="0.4" stroke-miterlimit="10"/>
<path d="M123.407 211.698L131.954 206.814L131.78 144.023L123.059 148.209L123.233 149.779L123.407 211.698Z" fill="#F6F6F6" stroke="#575D68" stroke-width="0.4539" stroke-miterlimit="10"/>
<path d="M13.1738 123.615L12.9992 126.755L-33.2217 153.964L-33.0471 150.65L13.1738 123.615Z" fill="#F6F6F6" stroke="#575D68" stroke-width="0.4539" stroke-miterlimit="10"/>
<path d="M25.3835 171.756L-10.3723 149.779L-10.5469 145.593L30.4414 122.047L70.3833 145.07L25.3835 171.756Z" fill="#F6F6F6" stroke="#575D68" stroke-width="0.3891" stroke-miterlimit="10"/>
<path d="M158.465 131.987L89.3955 171.929L-44.2089 96.7545L-46.8252 93.6151L23.1165 53.8477L158.465 131.987Z" fill="#F6F6F6" stroke="#575D68" stroke-width="0.4539" stroke-miterlimit="10"/>
<path d="M155.151 129.895L85.7324 169.836" stroke="#575D68" stroke-width="0.4539" stroke-miterlimit="10"/>
<path d="M30.9654 101.988L73.8722 123.965V125.709L57.8258 135.128C56.7793 135.651 55.7327 135.651 54.6862 135.128L13.1748 111.581L30.9654 101.988Z" fill="#F6F6F6" stroke="#575D68" stroke-width="0.4539" stroke-miterlimit="10"/>
<path d="M30.9652 99.1973L73.5233 123.79C73.6977 123.79 73.6977 123.965 73.5233 124.139L57.6513 133.383C56.6047 133.906 55.5581 133.906 54.5116 133.383L13 109.662L30.9652 99.1973Z" fill="#F6F6F6" stroke="#575D68" stroke-width="0.4539" stroke-miterlimit="10"/>
<path d="M89.3955 171.755V177.336L158.465 137.569V131.639L89.3955 171.755Z" fill="#F6F6F6" stroke="#575D68" stroke-width="0.4539" stroke-miterlimit="10"/>
<path d="M27.4762 56.1152L-41.9424 96.0571" stroke="#575D68" stroke-width="0.4539" stroke-miterlimit="10"/>
<path d="M89.395 177.511L-47 98.8483L-46.8256 93.4414L89.395 171.93V177.511Z" fill="#F6F6F6" stroke="#575D68" stroke-width="0.4539" stroke-miterlimit="10"/>
<path d="M-3.22138 77.0469L-6.18662 79.1398C-6.18662 79.1398 -1.82616 91.5236 -2.69825 99.8956C-3.57034 108.093 -8.97714 120.651 -9.5004 127.279C-10.1981 133.907 -7.05871 143.675 -7.05871 143.675L25.732 167.57L29.046 165.651C29.046 165.651 26.7785 159.023 26.7785 141.058C26.6041 131.291 35.6739 121.698 35.8484 112.279C36.3716 105.477 33.2321 98.1514 33.2321 98.1514L-3.22138 77.0469Z" fill="#F6F6F6" stroke="#575D68" stroke-width="0.3891" stroke-miterlimit="10"/>
<path d="M-6.18611 79.1387C-6.36053 79.1387 -6.18611 79.3132 -6.18611 79.4876C-5.31402 82.2783 -5.31385 94.3131 -6.01152 101.813C-6.88361 110.011 -12.2906 122.569 -12.8139 129.197C-13.5116 135.825 -10.372 145.592 -10.372 145.592L25.5581 167.394C25.5581 167.394 25.7325 167.394 25.7325 167.22C25.3837 165.999 23.1162 158.325 23.465 142.801C23.6394 131.813 32.3604 119.255 32.8836 112.453C33.4069 105.65 30.093 99.8945 30.093 99.8945L-6.18611 79.1387Z" fill="#F6F6F6" stroke="#575D68" stroke-width="0.3891" stroke-miterlimit="10"/>
<path d="M55.2088 99.1986L69.6853 107.745C71.7784 108.966 74.2203 109.14 76.4877 107.92L90.4412 101.117L68.9878 88.3848L55.2088 95.5359C53.9878 96.2335 53.8134 98.3265 55.2088 99.1986Z" fill="#F6F6F6" stroke="#575D68" stroke-width="0.3891" stroke-miterlimit="10"/>
<path d="M36.8955 26.8146L40.3839 75.303L107.361 118.733C110.151 120.129 112.767 116.466 112.767 112.977V66.9308C112.767 64.489 111.546 62.2215 109.453 61.0006L44.221 23.1519C41.9536 21.7565 36.8955 23.6751 36.8955 26.8146Z" fill="#F6F6F6" stroke="#575D68" stroke-width="0.3891" stroke-miterlimit="10"/>
<path d="M36.8955 26.8129V76.6965C36.8955 77.3942 37.2443 78.0918 37.7676 78.4407L107.186 118.731C108.058 119.255 108.93 118.557 108.93 117.685V69.371C108.93 66.9292 107.709 64.4873 105.442 63.4407L39.5118 25.2431C38.6397 24.5454 36.8955 25.2431 36.8955 26.8129Z" fill="#F6F6F6" stroke="#575D68" stroke-width="0.3891" stroke-miterlimit="10"/>
<path d="M39.6855 30.128V76.1745C39.6855 76.6977 40.0344 77.3954 40.5576 77.7443L104.744 114.895C105.441 115.418 106.313 114.721 106.313 113.849V69.3721C106.313 67.1047 105.092 65.0117 103.174 63.7908L42.3018 28.3838C41.0809 28.035 39.6855 28.7327 39.6855 30.128Z" fill="#F6F6F6" stroke="#575D68" stroke-width="0.3891" stroke-miterlimit="10"/>
<path d="M33.232 98.1484L29.918 100.067" stroke="#575D68" stroke-width="0.3891" stroke-miterlimit="10"/>
<path d="M70.9061 136.35C70.2084 135.827 69.8595 134.78 70.3828 133.908C71.0804 133.036 72.127 131.815 73.8711 130.768C75.0921 130.071 76.313 129.548 77.1851 129.199C78.9293 128.675 80.6735 128.85 82.2433 129.722C83.4642 130.419 84.8595 131.815 83.4641 133.036L75.4409 137.92C74.7433 138.268 74.2201 138.268 73.348 137.745L70.9061 136.35Z" fill="#F6F6F6" stroke="#575D68" stroke-width="0.4539" stroke-miterlimit="10"/>
<path d="M77.1855 131.641C77.1855 131.641 78.0576 130.595 80.6739 129.897C81.3716 129.723 82.2437 129.723 82.2437 129.723" fill="#F6F6F6"/>
<path d="M77.1855 131.641C77.1855 131.641 78.0576 130.595 80.6739 129.897C81.3716 129.723 82.2437 129.723 82.2437 129.723" stroke="#575D68" stroke-width="0.4539" stroke-miterlimit="10"/>
<path d="M57.1281 59.4285C55.9071 56.9867 53.4654 56.4634 51.5468 58.5564C49.6282 60.6494 48.9304 64.3121 50.1513 66.9284C52.0699 71.2888 55.3838 73.0331 57.3024 70.9401C59.0466 68.8471 59.0467 63.789 57.1281 59.4285Z" fill="#FF4F12"/>
<path d="M55.383 55.7654C53.4644 51.4049 50.1505 49.6609 48.2319 51.7539C46.3133 53.8469 46.3133 59.0794 48.2319 63.2655C48.5808 64.1375 49.1041 64.6608 49.8017 65.0096C51.0227 65.7073 52.5923 65.3585 53.8132 63.9632C55.9062 62.0446 56.604 58.3817 55.383 55.7654ZM53.9876 63.9632C53.2899 64.6608 52.5923 65.0096 51.8947 65.184C51.197 65.3584 50.4994 65.1841 49.9761 64.8353C49.2784 64.4864 48.9295 63.9632 48.5807 63.0911C48.2318 62.5678 48.0575 61.8702 48.0575 61.1725C48.0575 60.4748 48.0575 59.7771 48.0575 58.905C48.4064 57.3352 48.9296 55.9398 49.9761 54.8933C50.6738 54.1956 51.3714 53.8469 52.069 53.6724C52.7667 53.498 53.4643 53.6724 53.9876 54.0212C54.5109 54.37 55.0342 54.8933 55.383 55.7654C55.7319 56.2886 55.9064 56.9865 55.9064 57.6842C55.9064 58.3818 55.9064 59.0794 55.9064 59.9515C55.5575 61.6956 54.8597 63.0911 53.9876 63.9632Z" fill="#FF4F12"/>
<path d="M66.5444 72.8574C67.5909 73.3807 68.4629 73.2064 68.8117 71.6366L67.7653 70.7645C67.5909 71.2878 67.2421 71.4621 66.7188 71.1133C66.0211 70.7644 65.498 69.5435 65.498 68.3226C65.498 67.1017 66.0211 66.5783 66.7188 66.9272C67.2421 67.276 67.5909 67.7993 67.7653 68.497L68.8117 68.8457C68.4629 67.1016 67.5909 65.7063 66.5444 65.183C65.1491 64.3109 64.1025 65.3575 64.1025 67.6249C64.1025 69.8923 65.1491 72.1598 66.5444 72.8574Z" fill="#FF4F12"/>
<path d="M71.604 78.616L72.6505 79.3135V76.3485C74.0458 77.2205 75.0924 76.174 75.0924 73.9066C75.0924 71.6391 74.0458 69.5461 72.6505 68.8484V66.4067L71.604 65.709V68.1509C70.2087 67.2788 69.1621 68.3252 69.1621 70.4182C69.1621 72.6856 70.2087 74.7787 71.604 75.6507V78.616ZM71.604 74.0809C70.9063 73.7321 70.383 72.5112 70.383 71.2903C70.383 70.0694 70.9063 69.5462 71.604 69.8951V74.0809ZM72.8249 74.7787V70.5926C73.5225 70.9414 74.0457 72.1625 74.0457 73.3834C74.0457 74.6044 73.5225 75.1275 72.8249 74.7787Z" fill="#FF4F12"/>
<path d="M80.6738 77.0439C80.6738 74.9509 79.6273 72.6834 78.2319 71.9857C76.8366 71.1136 75.79 72.1602 75.79 74.4276C75.79 76.6951 76.8366 78.7881 78.2319 79.6602C79.2784 80.1834 80.1506 80.009 80.4995 78.7881L79.453 77.916C79.2786 78.2648 78.9296 78.4392 78.4063 78.0904C77.7086 77.7415 77.1855 76.695 77.1855 75.6485L80.8482 77.7416C80.6738 77.3928 80.6738 77.2183 80.6738 77.0439ZM78.2319 73.3812C78.7552 73.73 79.2786 74.602 79.453 75.4741L77.1855 74.2533C77.1855 73.3812 77.5343 73.2067 78.2319 73.3812Z" fill="#FF4F12"/>
<path d="M81.3721 84.195L82.5929 84.8927V80.881C82.9417 81.5787 83.465 82.6253 84.3371 82.9742C85.7324 83.6719 86.6046 82.6253 86.6046 80.3579C86.6046 78.0905 85.7324 75.9974 84.3371 75.2997C83.465 74.7765 82.9417 75.1252 82.5929 75.6485L82.4185 74.4276L81.5464 73.9043L81.3721 84.195ZM83.9883 81.0554C83.1163 80.5322 82.5929 79.3113 82.5929 78.0904C82.5929 76.8695 83.1163 76.1717 83.9883 76.6949C84.8604 77.2182 85.3836 78.4393 85.3836 79.6602C85.2091 81.0555 84.686 81.5787 83.9883 81.0554Z" fill="#FF4F12"/>
<path d="M90.4411 78.964L89.3946 83.3245L89.2202 83.1501L87.9992 77.5686L86.7783 76.8711L88.8713 85.7664C88.6968 86.2896 88.5225 86.4639 88.3481 86.2895L87.476 85.7664L87.6504 87.5106L88.3481 87.8593C89.2202 88.3826 89.7435 88.0338 90.0923 86.6385L91.8365 79.4874L90.4411 78.964Z" fill="#FF4F12"/>
<path d="M92.3595 87.5104L93.4062 88.2081V83.1499L93.5805 83.3243L94.627 89.0802L95.4991 89.6033L96.5456 85.0685H96.72V90.1267L97.7666 90.8244V83.3243L96.0224 82.2778L94.9758 86.2893L94.8014 86.115L93.7549 80.8824L92.0107 79.8359L92.3595 87.5104Z" fill="#FF4F12"/>
</g>
<circle cx="72" cy="72" r="71.5" stroke="#FF4F12"/>
</svg>
