<svg width="345" height="480" viewBox="0 0 345 480" fill="none" xmlns="http://www.w3.org/2000/svg">
<path d="M-394.599 80.8712V453L258.401 55.1951V-293" fill="#F6F6F6"/>
<path d="M-394.599 80.8712V453L258.401 55.1951V-293" stroke="#575D68" stroke-width="0.4" stroke-miterlimit="10"/>
<path d="M247.259 128.378L-619.874 628.708L69.3503 1026.54L931.475 528.987" fill="#F6F6F6"/>
<path d="M247.259 128.378L-619.874 628.708L69.3503 1026.54L931.475 528.987" stroke="#575D68" stroke-width="0.4" stroke-miterlimit="10"/>
<path d="M931.476 528.987L931.758 220.925L247.259 -176.181L191.379 -144.039L247.259 128.378L880.206 498.968" fill="#F6F6F6"/>
<path d="M931.476 528.987L931.758 220.925L247.259 -176.181L191.379 -144.039L247.259 128.378L880.207 498.968" stroke="#575D68" stroke-width="0.4" stroke-miterlimit="10"/>
<path d="M-620.001 322.666L247.258 -176.181L191.378 -144.039L247.258 128.378L-620.001 628.708L-619.748 322.666" fill="#F6F6F6"/>
<path d="M-620.001 322.666L247.258 -176.181L191.378 -144.039L247.258 128.378L-620.001 628.708L-619.748 322.666" stroke="#575D68" stroke-width="0.4" stroke-miterlimit="10"/>
<path d="M191.401 160.449L880.401 558L880.176 250.091L191.401 -144V160.449Z" fill="#F6F6F6" stroke="#575D68" stroke-width="0.4" stroke-miterlimit="10"/>
<path d="M226.354 176.941V-47.0216L289.109 -10.8334V214.512L226.354 176.941Z" fill="#F6F6F6" stroke="#575D68" stroke-width="0.4" stroke-miterlimit="10"/>
<path d="M228.184 173.707V-41.3774L289.109 -6.92323V209.945L228.184 173.707Z" fill="#F6F6F6" stroke="#575D68" stroke-width="0.4" stroke-miterlimit="10"/>
<path d="M291.933 179.445C291.132 187.809 281.548 202.254 281.548 202.254L286.788 214.512L295.859 196.662" fill="#F6F6F6"/>
<path d="M291.933 179.445C291.132 187.809 281.548 202.254 281.548 202.254L286.788 214.512L295.859 196.662" stroke="#575D68" stroke-width="0.4" stroke-miterlimit="10"/>
<path d="M322.184 153.291C322.184 153.291 319.613 158.059 325.15 165.182C328.423 169.392 336.313 168.169 336.563 173.624C337.089 185.128 337.054 186.556 336.563 192.317C335.685 200.603 334.184 208.812 332.074 216.873C327.924 232.177 338.723 248.025 340.201 263.813C340.201 263.813 315.114 250.087 302.916 249.785C292.959 249.539 301.837 192.842 297.339 189.776C297.339 189.776 295.433 189.14 291.692 185.932C290.679 185.063 289.392 181.116 289.392 181.116C289.392 181.116 293.446 170.67 293.772 169.903C298.019 159.917 307.85 165.185 308.468 163.617C310.119 159.425 310.463 150.656 310.463 150.656" fill="#F6F6F6"/>
<path d="M322.184 153.291C322.184 153.291 319.613 158.059 325.15 165.182C328.423 169.392 336.313 168.169 336.563 173.624C337.089 185.128 337.054 186.556 336.563 192.317C335.685 200.603 334.184 208.812 332.074 216.873C327.924 232.177 338.723 248.025 340.201 263.813C340.201 263.813 315.114 250.087 302.916 249.785C292.959 249.539 301.837 192.842 297.339 189.776C297.339 189.776 295.433 189.14 291.692 185.932C290.679 185.063 289.392 181.116 289.392 181.116C289.392 181.116 293.446 170.67 293.772 169.903C298.019 159.917 307.85 165.185 308.468 163.617C310.119 159.425 310.463 150.656 310.463 150.656" stroke="#575D68" stroke-width="0.4" stroke-miterlimit="10"/>
<path d="M325.251 140.417C327.015 139.332 329.076 138.829 331.142 138.979C332.459 139.204 333.685 139.795 334.682 140.685C335.679 141.574 336.405 142.726 336.778 144.008C338.145 148.654 334.875 155.302 329.429 154.416C327.716 154.14 326.128 153.35 324.874 152.151C323.62 150.953 322.76 149.402 322.407 147.703" fill="#F6F6F6"/>
<path d="M325.251 140.417C327.015 139.332 329.076 138.829 331.142 138.979C332.459 139.204 333.685 139.795 334.682 140.685C335.679 141.574 336.405 142.726 336.778 144.008C338.145 148.654 334.875 155.302 329.429 154.416C327.716 154.14 326.128 153.35 324.874 152.151C323.62 150.953 322.76 149.402 322.407 147.703" stroke="#575D68" stroke-width="0.4" stroke-miterlimit="10"/>
<path style="mix-blend-mode:multiply" d="M325.251 140.417C327.015 139.332 329.076 138.829 331.142 138.979C332.459 139.204 333.685 139.795 334.682 140.685C335.679 141.574 336.405 142.726 336.778 144.008C338.145 148.654 334.875 155.302 329.429 154.416C327.716 154.14 326.128 153.35 324.874 152.151C323.62 150.953 322.76 149.402 322.407 147.703" fill="url(#paint0_linear_3_37085)"/>
<path d="M314.666 127.542C309.573 126.971 306.568 129.196 303.405 132.894C301.068 135.627 301.59 140.372 301.757 145.061C302.116 155.127 305.455 166.097 316.401 161.354C324.921 157.663 331.025 142.7 327.739 134.174C326.067 129.838 320.114 128.152 314.666 127.542Z" fill="#F6F6F6" stroke="#575D68" stroke-width="0.4" stroke-miterlimit="10"/>
<path d="M314.665 127.542C309.573 126.971 306.095 128.839 303.404 132.894C302.837 133.755 302.358 134.671 301.975 135.628C301.72 136.247 301.684 136.935 301.872 137.578C302.06 138.221 302.46 138.781 303.008 139.166C303.03 139.181 303.053 139.196 303.075 139.21C304.603 140.193 306.582 139.901 308.388 139.705C310.131 139.516 311.885 139.45 313.637 139.509C314.579 139.5 315.515 139.65 316.406 139.954C316.955 140.15 317.448 140.475 317.845 140.902C318.219 141.336 318.06 141.694 318.132 142.22C318.318 143.444 318.903 144.573 319.796 145.431C320.602 146.205 321.633 146.734 322.359 147.584C323.041 148.381 323.402 149.404 323.373 150.452C323.344 151.501 322.927 152.502 322.202 153.261C323.278 153.228 324.305 152.809 325.097 152.081C325.739 151.404 326.211 150.583 326.471 149.686C326.861 148.66 327.237 147.628 327.544 146.575C328.63 143.294 328.915 139.801 328.377 136.388C328.227 135.633 328.014 134.892 327.738 134.174C326.067 129.838 320.114 128.152 314.665 127.542Z" fill="#F6F6F6" stroke="#575D68" stroke-width="0.4" stroke-miterlimit="10"/>
<path style="mix-blend-mode:multiply" d="M314.665 127.542C309.573 126.971 306.095 128.839 303.404 132.894C302.837 133.755 302.358 134.671 301.975 135.628C301.72 136.247 301.684 136.935 301.872 137.578C302.06 138.221 302.46 138.781 303.008 139.166C303.03 139.181 303.053 139.196 303.075 139.21C304.603 140.193 306.582 139.901 308.388 139.705C310.131 139.516 311.885 139.45 313.637 139.509C314.579 139.5 315.515 139.65 316.406 139.954C316.955 140.15 317.448 140.475 317.845 140.902C318.219 141.336 318.06 141.694 318.132 142.22C318.318 143.444 318.903 144.573 319.796 145.431C320.602 146.205 321.633 146.734 322.359 147.584C323.041 148.381 323.402 149.404 323.373 150.452C323.344 151.501 322.927 152.502 322.202 153.261C323.278 153.228 324.305 152.809 325.097 152.081C325.739 151.404 326.211 150.583 326.471 149.686C326.861 148.66 327.237 147.628 327.544 146.575C328.63 143.294 328.915 139.801 328.377 136.388C328.227 135.633 328.014 134.892 327.738 134.174C326.067 129.838 320.114 128.152 314.665 127.542Z" fill="url(#paint1_linear_3_37085)"/>
<path d="M322.284 183.166C322.284 183.166 328.642 172.059 325.15 165.182L323.48 162.353C326.972 169.23 319.996 181.762 319.996 181.762" fill="#DDDEDF"/>
<path d="M322.284 183.166C322.284 183.166 328.642 172.059 325.15 165.182L323.48 162.353C326.972 169.23 319.996 181.762 319.996 181.762" stroke="#575D68" stroke-width="0.4" stroke-miterlimit="10"/>
<path d="M300.116 175.581C301.203 172.4 302.875 169.451 305.047 166.885C308.702 162.964 308.467 163.617 308.467 163.617C308.01 164.552 305.481 168.305 304.291 171.217C303.584 172.89 303.244 174.695 303.293 176.511L300.116 175.581Z" fill="#DDDEDF" stroke="#575D68" stroke-width="0.4" stroke-miterlimit="10"/>
<path d="M295.702 208.532L294.924 192.707C295.123 188.35 297.386 182.481 298.99 178.425L300.115 175.581L322.726 182.197C319.726 188.551 318.246 195.516 318.404 202.541C318.485 206.18 319.914 209.658 322.413 212.304C324.912 214.949 328.304 216.574 331.932 216.862L332.073 216.873L331.324 220.812H325.746C325.022 220.812 324.306 220.965 323.645 221.26C322.984 221.556 322.393 221.987 321.909 222.527C321.426 223.066 321.063 223.701 320.842 224.391C320.621 225.08 320.547 225.809 320.627 226.529L323.777 255.033L294.11 247.355C294.11 247.355 293.962 225.969 293.962 220.812C293.962 220.002 294.864 219.855 295.066 217.531C295.617 211.182 295.702 208.532 295.702 208.532Z" fill="#DDDEDF" stroke="#575D68" stroke-width="0.4" stroke-miterlimit="10"/>
<path style="mix-blend-mode:multiply" d="M295.702 208.532L294.924 192.707C295.123 188.35 297.386 182.481 298.99 178.425L300.115 175.581L322.726 182.197C319.726 188.551 318.246 195.516 318.404 202.541C318.485 206.18 319.914 209.658 322.413 212.304C324.912 214.949 328.304 216.574 331.932 216.862L332.073 216.873L331.324 220.812H325.746C325.022 220.812 324.306 220.965 323.645 221.26C322.984 221.556 322.393 221.987 321.909 222.527C321.426 223.066 321.063 223.701 320.842 224.391C320.621 225.08 320.547 225.809 320.627 226.529L323.777 255.033L294.11 247.355C294.11 247.355 293.962 225.969 293.962 220.812C293.962 220.002 294.864 219.855 295.066 217.531C295.617 211.182 295.702 208.532 295.702 208.532Z" fill="url(#paint2_linear_3_37085)"/>
<path d="M337.503 189.657C337.503 189.657 329.377 213.563 324.947 215.224C320.517 216.885 312.928 217.552 303.452 217.531C300.411 217.524 287.797 216.147 287.797 216.147L287.108 210.074C287.108 210.074 298.275 208.012 303.452 207.25C307.383 206.672 312.711 206.396 316.066 206.272C317 206.238 317.899 205.917 318.643 205.353C319.387 204.788 319.938 204.008 320.222 203.119C321.989 197.585 322.408 193.147 323.098 188.695" fill="#F6F6F6"/>
<path d="M337.503 189.657C337.503 189.657 329.377 213.563 324.947 215.224C320.517 216.885 312.928 217.552 303.452 217.531C300.411 217.524 287.797 216.147 287.797 216.147L287.108 210.074C287.108 210.074 298.275 208.012 303.452 207.25C307.383 206.672 312.711 206.396 316.066 206.272C317 206.238 317.899 205.917 318.643 205.353C319.387 204.788 319.938 204.008 320.222 203.119C321.989 197.585 322.408 193.147 323.098 188.695" stroke="#575D68" stroke-width="0.4" stroke-miterlimit="10"/>
<path d="M336.563 173.624C336.563 173.624 337.083 175.712 338.772 181.804C341.231 190.67 337.032 199.643 337.032 199.643C337.032 199.643 329.738 200.921 326.198 199.407C323.999 198.401 322.182 196.714 321.015 194.596C321.015 194.596 321.44 187.765 323.097 185.153" fill="#F6F6F6"/>
<path d="M336.563 173.624C336.563 173.624 337.083 175.712 338.772 181.804C341.231 190.67 337.032 199.643 337.032 199.643C337.032 199.643 329.738 200.921 326.198 199.407C323.999 198.401 322.182 196.714 321.015 194.596C321.015 194.596 321.44 187.765 323.097 185.153" stroke="#575D68" stroke-width="0.4" stroke-miterlimit="10"/>
<path d="M308.639 163.151C308.639 163.151 307.092 168.707 312.305 170.064C319.997 172.066 323.481 162.353 323.481 162.353" fill="#F6F6F6"/>
<path d="M308.639 163.151C308.639 163.151 307.092 168.707 312.305 170.064C319.997 172.066 323.481 162.353 323.481 162.353" stroke="#575D68" stroke-width="0.4" stroke-miterlimit="10"/>
<path d="M318.834 139.316C320.229 139.501 321.641 139.515 323.039 139.355C324.984 139.115 326.862 138.49 328.563 137.518L328.72 139.391C327.675 140.002 326.566 140.499 325.415 140.874C323.294 141.595 321.013 141.703 318.834 141.186V139.316Z" fill="#DDDEDF" stroke="#575D68" stroke-width="0.4" stroke-miterlimit="10"/>
<path style="mix-blend-mode:multiply" d="M318.834 139.316C320.229 139.501 321.641 139.515 323.039 139.355C324.984 139.115 326.862 138.49 328.563 137.518L328.72 139.391C327.675 140.002 326.566 140.499 325.415 140.874C323.294 141.595 321.013 141.703 318.834 141.186V139.316Z" fill="url(#paint3_linear_3_37085)"/>
<path d="M300.468 138.556L292.381 141.852C292.217 141.918 292.074 142.029 291.97 142.172C291.865 142.315 291.803 142.484 291.79 142.661C291.776 142.837 291.813 143.014 291.894 143.171C291.976 143.328 292.1 143.459 292.253 143.549C294.403 144.831 296.637 145.966 298.94 146.947C300.524 147.595 303.09 147.569 305.632 147.296C310.265 146.78 314.659 144.966 318.308 142.065" fill="#DDDEDF"/>
<path d="M300.468 138.556L292.381 141.852C292.217 141.918 292.074 142.029 291.97 142.172C291.865 142.315 291.803 142.484 291.79 142.661C291.776 142.837 291.813 143.014 291.894 143.171C291.976 143.328 292.1 143.459 292.253 143.549C294.403 144.831 296.637 145.966 298.94 146.947C300.524 147.595 303.09 147.569 305.632 147.296C310.265 146.78 314.659 144.966 318.308 142.065V142.065" stroke="#575D68" stroke-width="0.4" stroke-miterlimit="10"/>
<path style="mix-blend-mode:multiply" d="M300.468 138.556L292.381 141.852C292.217 141.918 292.074 142.029 291.97 142.172C291.865 142.315 291.803 142.484 291.79 142.661C291.776 142.837 291.813 143.014 291.894 143.171C291.976 143.328 292.1 143.459 292.253 143.549C294.403 144.831 296.637 145.966 298.94 146.947C300.524 147.595 303.09 147.569 305.632 147.296C310.265 146.78 314.659 144.966 318.308 142.065" fill="url(#paint4_linear_3_37085)"/>
<path d="M301.264 135.84L300.467 138.556C300.467 138.556 301.013 141.189 304.591 142.065C308.169 142.941 315.341 142.481 318.308 142.065C319.817 141.853 320.08 140.458 319.975 139.139C319.914 138.471 319.594 137.854 319.083 137.419C318.573 136.984 317.913 136.766 317.244 136.811C314.802 136.959 310.861 137.151 308.353 137.034C306.345 137.039 304.38 136.459 302.697 135.364C302.578 135.275 302.439 135.217 302.293 135.193C302.147 135.169 301.997 135.182 301.856 135.228C301.716 135.275 301.588 135.355 301.485 135.461C301.382 135.568 301.306 135.698 301.264 135.84Z" fill="#DDDEDF" stroke="#575D68" stroke-width="0.4" stroke-miterlimit="10"/>
<path style="mix-blend-mode:multiply" d="M301.264 135.84L300.467 138.556C300.467 138.556 301.013 141.189 304.591 142.065C308.169 142.941 315.341 142.481 318.308 142.065C319.817 141.853 320.08 140.458 319.975 139.139C319.914 138.471 319.594 137.854 319.083 137.419C318.573 136.984 317.913 136.766 317.244 136.811C314.802 136.959 310.861 137.151 308.353 137.034C306.345 137.039 304.38 136.459 302.697 135.364C302.578 135.275 302.439 135.217 302.293 135.193C302.147 135.169 301.997 135.182 301.856 135.228C301.716 135.275 301.588 135.355 301.485 135.461C301.382 135.568 301.306 135.698 301.264 135.84Z" fill="url(#paint5_linear_3_37085)"/>
<path d="M305.63 147.296C306.022 149.545 304.814 153.697 304.814 153.697C305.227 154.105 305.751 154.384 306.32 154.497C306.937 154.617 307.577 154.528 308.137 154.244" fill="#F6F6F6"/>
<path d="M305.63 147.296C306.022 149.545 304.814 153.697 304.814 153.697C305.227 154.105 305.751 154.384 306.32 154.497C306.937 154.617 307.577 154.528 308.137 154.244" stroke="#575D68" stroke-width="0.4" stroke-miterlimit="10"/>
<path d="M313.461 184.099L312.927 185.932L318.308 187.213L318.949 185.315L313.461 184.099Z" fill="#F6F6F6" stroke="#575D68" stroke-width="0.4" stroke-miterlimit="10"/>
<path d="M293.962 220.812C293.962 220.812 293.968 223.146 299.209 225.728C309.374 230.736 315.022 226.281 315.022 226.281C314.661 230.635 314.527 235.004 314.621 239.372" stroke="#575D68" stroke-width="0.4" stroke-miterlimit="10"/>
<path d="M269.445 -51.9089L262.538 -48.1279L269.445 84.2064L757.542 373.828L764.449 370.047V233.933L269.445 -51.9089Z" fill="#F6F6F6" stroke="#575D68" stroke-width="0.4" stroke-miterlimit="10"/>
<path d="M262.538 -48.1279V87.9874L757.542 373.828V237.714L262.538 -48.1279Z" fill="#F6F6F6" stroke="#575D68" stroke-width="0.4" stroke-miterlimit="10"/>
<path d="M269.359 -34.5723V-20.5575L358.298 30.8398V17.2279L269.359 -34.5723Z" fill="#DDDEDF"/>
<path d="M269.359 18.5508V32.5655L343.261 75.7723V62.1604L269.359 18.5508Z" fill="#DDDEDF"/>
<path d="M269.359 44.4508V58.4655L343.261 101.672V88.0614L269.359 44.4508Z" fill="#DDDEDF"/>
<path d="M269.359 68.1373V82.1521L358.298 134.15V120.62L269.359 68.1373Z" fill="#DDDEDF"/>
<path d="M269.359 -8.67212V5.34261L338.032 44.4508V30.8399L269.359 -8.67212Z" fill="#DDDEDF"/>
<path d="M295.238 226.87C295.066 226.872 294.896 226.841 294.737 226.778C294.577 226.715 294.432 226.621 294.309 226.501C294.186 226.382 294.087 226.24 294.019 226.082C293.951 225.925 293.915 225.756 293.913 225.584L293.812 218.917C293.81 218.832 293.787 218.749 293.743 218.676C293.699 218.604 293.637 218.544 293.563 218.503C293.488 218.463 293.404 218.443 293.32 218.445C293.235 218.447 293.153 218.472 293.081 218.517L288.138 221.572L286.659 219.182L291.599 216.128C292.129 215.795 292.743 215.622 293.368 215.628C293.993 215.635 294.603 215.821 295.125 216.165C295.589 216.48 295.969 216.904 296.23 217.4C296.491 217.896 296.627 218.449 296.624 219.01L296.72 225.341C296.726 225.741 296.573 226.126 296.295 226.412C296.017 226.699 295.637 226.863 295.238 226.87Z" fill="#F6F6F6" stroke="#575D68" stroke-width="0.4" stroke-miterlimit="10"/>
<path d="M183.573 224.408L230.76 197.185L678.653 455.986V546.799L631.467 574.022L183.573 315.221V224.408Z" fill="#F6F6F6" stroke="#575D68" stroke-width="0.4" stroke-miterlimit="10"/>
<path d="M183.573 224.408L452.367 381.244" stroke="#575D68" stroke-width="0.4" stroke-miterlimit="10"/>
<path d="M193.458 236.665V313.437L330.004 316.611L193.458 236.665Z" stroke="#575D68" stroke-width="0.4" stroke-miterlimit="10"/>
<path d="M215.444 323.417L344.339 323.799L438.048 377.863L215.444 323.417Z" stroke="#575D68" stroke-width="0.4" stroke-miterlimit="10"/>
<path d="M233.207 334.835L397.869 428.267L461.567 393.301L233.207 334.835Z" stroke="#575D68" stroke-width="0.4" stroke-miterlimit="10"/>
<path d="M187.077 182.563L187.363 220.457C187.363 222.053 187.779 223.621 188.571 225.007C189.362 226.392 190.501 227.548 191.875 228.359L262.858 269.774C263.484 270.144 264.196 270.343 264.924 270.352C265.651 270.361 266.368 270.18 267.004 269.826L302.069 250.42C303.983 249.354 305.442 247.625 306.171 245.558C306.396 244.881 306.54 244.179 306.601 243.468L307.135 238.345L292.024 248.554V206.813C292.024 205.55 291.686 204.31 291.045 203.223C290.403 202.135 289.482 201.239 288.377 200.628L223.246 162.874C221.708 162.023 219.974 161.59 218.216 161.616C216.459 161.643 214.739 162.128 213.227 163.025L190.539 176.484C189.484 177.11 188.61 177.999 188.003 179.065C187.396 180.131 187.077 181.336 187.077 182.563Z" fill="#F6F6F6" stroke="#575D68" stroke-width="0.4" stroke-miterlimit="10"/>
<path d="M223.238 164.615L289.391 203.725" stroke="#575D68" stroke-width="0.4" stroke-miterlimit="10"/>
<path d="M292.024 228.137L305.652 235.685C306.098 235.932 306.47 236.294 306.731 236.732C306.991 237.17 307.131 237.67 307.135 238.18C307.139 238.69 307.007 239.192 306.754 239.634C306.5 240.077 306.133 240.444 305.691 240.698L292.024 248.554V228.137Z" fill="#F6F6F6" stroke="#575D68" stroke-width="0.4" stroke-miterlimit="10"/>
<path d="M289.391 208.167L266.94 222.273C265.99 222.835 264.908 223.136 263.804 223.146C262.7 223.155 261.613 222.873 260.653 222.327L187.765 181.422" fill="#F6F6F6"/>
<path d="M289.391 208.167L266.94 222.273C265.99 222.835 264.908 223.136 263.804 223.146C262.7 223.155 261.613 222.873 260.653 222.327L187.765 181.422" stroke="#575D68" stroke-width="0.4" stroke-miterlimit="10"/>
<path d="M289.391 206.269L266.94 220.376C265.99 220.938 264.908 221.239 263.804 221.249C262.7 221.258 261.613 220.976 260.653 220.43L187.765 179.525" fill="#F6F6F6"/>
<path d="M289.391 206.269L266.94 220.376C265.99 220.938 264.908 221.239 263.804 221.249C262.7 221.258 261.613 220.976 260.653 220.43L187.765 179.525" stroke="#575D68" stroke-width="0.4" stroke-miterlimit="10"/>
<path d="M211.333 172.694C210.93 172.681 210.535 172.573 210.181 172.379C209.828 172.184 209.526 171.908 209.3 171.573C208.555 170.402 208.781 168.525 209.968 165.996C211.328 163.094 214.402 163.563 215.837 164.217L215.45 165.07C215.314 165.008 212.122 163.61 210.815 166.394C209.522 169.149 209.705 170.453 210.085 171.062C210.225 171.268 210.411 171.438 210.628 171.558C210.846 171.679 211.088 171.747 211.337 171.757L211.333 172.694Z" fill="#F6F6F6" stroke="#575D68" stroke-width="0.4" stroke-miterlimit="10"/>
<path d="M220.978 178.156C226.415 178.156 230.823 176.435 230.823 174.312C230.823 172.189 226.415 170.468 220.978 170.468C215.542 170.468 211.134 172.189 211.134 174.312C211.134 176.435 215.542 178.156 220.978 178.156Z" fill="#F6F6F6" stroke="#575D68" stroke-width="0.4" stroke-miterlimit="10"/>
<path d="M211.134 174.312C211.134 174.312 210.424 170.468 213.008 168.425C214.595 167.17 216.056 163.725 216.056 163.725H225.9C226.409 165.116 227.266 166.353 228.389 167.318C231.342 169.533 230.822 174.312 230.822 174.312" fill="#F6F6F6"/>
<path d="M211.134 174.312C211.134 174.312 210.424 170.468 213.008 168.425C214.595 167.17 216.056 163.725 216.056 163.725H225.9C226.409 165.116 227.266 166.353 228.389 167.318C231.342 169.533 230.822 174.312 230.822 174.312" stroke="#575D68" stroke-width="0.4" stroke-miterlimit="10"/>
<path d="M220.978 165.647C223.697 165.647 225.9 164.787 225.9 163.725C225.9 162.664 223.697 161.803 220.978 161.803C218.26 161.803 216.056 162.664 216.056 163.725C216.056 164.787 218.26 165.647 220.978 165.647Z" fill="#F6F6F6" stroke="#575D68" stroke-width="0.4" stroke-miterlimit="10"/>
<path d="M226.478 182.108C226.074 182.096 225.679 181.988 225.326 181.793C224.972 181.598 224.67 181.322 224.445 180.988C223.7 179.816 223.925 177.94 225.113 175.411C226.473 172.509 229.547 172.978 230.981 173.631L230.594 174.484C230.459 174.422 227.266 173.025 225.96 175.809C224.667 178.563 224.849 179.867 225.23 180.476C225.369 180.682 225.555 180.852 225.773 180.973C225.99 181.093 226.233 181.161 226.481 181.171L226.478 182.108Z" fill="#F6F6F6" stroke="#575D68" stroke-width="0.4" stroke-miterlimit="10"/>
<path d="M235.623 187.213C241.06 187.213 245.468 185.492 245.468 183.369C245.468 181.246 241.06 179.525 235.623 179.525C230.187 179.525 225.779 181.246 225.779 183.369C225.779 185.492 230.187 187.213 235.623 187.213Z" fill="#F6F6F6" stroke="#575D68" stroke-width="0.4" stroke-miterlimit="10"/>
<path d="M225.779 183.369C225.779 183.369 225.069 179.525 227.653 177.482C229.24 176.228 230.701 172.782 230.701 172.782H240.545C241.054 174.173 241.911 175.41 243.034 176.375C245.988 178.59 245.467 183.369 245.467 183.369" fill="#F6F6F6"/>
<path d="M225.779 183.369C225.779 183.369 225.069 179.525 227.653 177.482C229.24 176.228 230.701 172.782 230.701 172.782H240.545C241.054 174.173 241.911 175.41 243.034 176.375C245.988 178.59 245.467 183.369 245.467 183.369" stroke="#575D68" stroke-width="0.4" stroke-miterlimit="10"/>
<path d="M235.623 174.704C238.342 174.704 240.545 173.844 240.545 172.783C240.545 171.721 238.342 170.861 235.623 170.861C232.905 170.861 230.701 171.721 230.701 172.783C230.701 173.844 232.905 174.704 235.623 174.704Z" fill="#F6F6F6" stroke="#575D68" stroke-width="0.4" stroke-miterlimit="10"/>
<path d="M264.523 225.247V233.214C264.523 236.22 265.295 239.176 266.764 241.798C268.233 244.421 270.35 246.623 272.913 248.193C275.476 249.764 278.399 250.65 281.403 250.768C284.407 250.886 287.391 250.231 290.069 248.866" fill="#F6F6F6"/>
<path d="M264.523 225.247V233.214C264.523 236.22 265.295 239.176 266.764 241.798C268.233 244.421 270.35 246.623 272.913 248.193C275.476 249.764 278.399 250.65 281.403 250.768C284.407 250.886 287.391 250.231 290.069 248.866V248.866" stroke="#575D68" stroke-width="0.4" stroke-miterlimit="10"/>
<path d="M292.024 245.59C293.144 245.105 300.035 241.468 305.203 238.188C305.402 238.058 305.573 237.888 305.705 237.69C305.836 237.491 305.926 237.268 305.968 237.034C306.01 236.799 306.003 236.559 305.949 236.327C305.894 236.095 305.793 235.877 305.652 235.685" fill="#F6F6F6"/>
<path d="M292.024 245.59C293.144 245.105 300.035 241.468 305.203 238.188C305.402 238.058 305.573 237.888 305.705 237.69C305.836 237.491 305.926 237.268 305.968 237.034C306.01 236.799 306.003 236.559 305.949 236.327C305.894 236.095 305.793 235.877 305.652 235.685" stroke="#575D68" stroke-width="0.4" stroke-miterlimit="10"/>
<path d="M229.781 218.339V212.264L256.993 228.507V234.028L229.781 218.339Z" fill="#F6F6F6" stroke="#575D68" stroke-width="0.4" stroke-miterlimit="10"/>
<path d="M197.155 179.104C196.752 179.092 196.357 178.984 196.004 178.789C195.651 178.595 195.348 178.319 195.123 177.984C194.378 176.813 194.603 174.936 195.791 172.407C197.151 169.505 200.225 169.974 201.659 170.628L201.272 171.481C201.137 171.419 197.944 170.021 196.638 172.805C195.345 175.56 195.527 176.864 195.908 177.473C196.047 177.678 196.233 177.848 196.451 177.969C196.668 178.09 196.911 178.158 197.159 178.167L197.155 179.104Z" fill="#F6F6F6" stroke="#575D68" stroke-width="0.4" stroke-miterlimit="10"/>
<path d="M206.794 183.757C212.23 183.757 216.638 182.036 216.638 179.913C216.638 177.791 212.23 176.07 206.794 176.07C201.357 176.07 196.949 177.791 196.949 179.913C196.949 182.036 201.357 183.757 206.794 183.757Z" fill="#F6F6F6" stroke="#575D68" stroke-width="0.4" stroke-miterlimit="10"/>
<path d="M196.949 179.913C196.949 179.913 196.239 176.069 198.823 174.027C200.41 172.772 201.871 169.327 201.871 169.327H211.716C212.224 170.717 213.081 171.954 214.204 172.919C217.158 175.134 216.638 179.913 216.638 179.913" fill="#F6F6F6"/>
<path d="M196.949 179.913C196.949 179.913 196.239 176.069 198.823 174.027C200.41 172.772 201.871 169.327 201.871 169.327H211.716C212.224 170.717 213.081 171.954 214.204 172.919C217.158 175.134 216.638 179.913 216.638 179.913" stroke="#575D68" stroke-width="0.4" stroke-miterlimit="10"/>
<path d="M206.793 171.249C209.512 171.249 211.716 170.388 211.716 169.327C211.716 168.265 209.512 167.405 206.793 167.405C204.075 167.405 201.871 168.265 201.871 169.327C201.871 170.388 204.075 171.249 206.793 171.249Z" fill="#F6F6F6" stroke="#575D68" stroke-width="0.4" stroke-miterlimit="10"/>
<path d="M212.565 189.243C212.162 189.231 211.767 189.123 211.414 188.928C211.06 188.733 210.758 188.457 210.532 188.123C209.788 186.951 210.013 185.075 211.2 182.546C212.561 179.644 215.635 180.113 217.069 180.766L216.682 181.62C216.547 181.557 213.354 180.16 212.047 182.944C210.755 185.698 210.937 187.003 211.317 187.611C211.457 187.817 211.643 187.987 211.86 188.108C212.078 188.228 212.32 188.296 212.569 188.306L212.565 189.243Z" fill="#F6F6F6" stroke="#575D68" stroke-width="0.4" stroke-miterlimit="10"/>
<path d="M221.715 194.705C227.152 194.705 231.559 192.984 231.559 190.861C231.559 188.739 227.152 187.018 221.715 187.018C216.278 187.018 211.871 188.739 211.871 190.861C211.871 192.984 216.278 194.705 221.715 194.705Z" fill="#F6F6F6" stroke="#575D68" stroke-width="0.4" stroke-miterlimit="10"/>
<path d="M211.87 190.861C211.87 190.861 211.16 187.017 213.744 184.975C215.331 183.72 216.792 180.275 216.792 180.275H226.636C227.145 181.665 228.002 182.902 229.125 183.867C232.079 186.082 231.558 190.861 231.558 190.861" fill="#F6F6F6"/>
<path d="M211.87 190.861C211.87 190.861 211.16 187.017 213.744 184.975C215.331 183.72 216.792 180.275 216.792 180.275H226.636C227.145 181.665 228.002 182.902 229.125 183.867C232.079 186.082 231.558 190.861 231.558 190.861" stroke="#575D68" stroke-width="0.4" stroke-miterlimit="10"/>
<path d="M221.715 182.197C224.433 182.197 226.637 181.336 226.637 180.275C226.637 179.213 224.433 178.353 221.715 178.353C218.996 178.353 216.792 179.213 216.792 180.275C216.792 181.336 218.996 182.197 221.715 182.197Z" fill="#F6F6F6" stroke="#575D68" stroke-width="0.4" stroke-miterlimit="10"/>
<path d="M229.959 197.188C229.556 197.176 229.161 197.068 228.807 196.873C228.454 196.678 228.152 196.402 227.926 196.068C227.181 194.896 227.407 193.02 228.594 190.491C229.954 187.589 233.028 188.058 234.463 188.711L234.076 189.565C233.94 189.502 230.748 188.105 229.441 190.889C228.148 193.643 228.331 194.948 228.711 195.556C228.851 195.762 229.037 195.932 229.254 196.053C229.471 196.173 229.714 196.241 229.963 196.251L229.959 197.188Z" fill="#F6F6F6" stroke="#575D68" stroke-width="0.4" stroke-miterlimit="10"/>
<path d="M239.804 202.284C245.241 202.284 249.648 200.563 249.648 198.44C249.648 196.318 245.241 194.597 239.804 194.597C234.367 194.597 229.96 196.318 229.96 198.44C229.96 200.563 234.367 202.284 239.804 202.284Z" fill="#F6F6F6" stroke="#575D68" stroke-width="0.4" stroke-miterlimit="10"/>
<path d="M229.959 198.44C229.959 198.44 229.249 194.596 231.833 192.554C233.42 191.299 234.881 187.854 234.881 187.854H244.726C245.234 189.244 246.091 190.481 247.215 191.446C250.168 193.661 249.648 198.44 249.648 198.44" fill="#F6F6F6"/>
<path d="M229.959 198.44C229.959 198.44 229.249 194.596 231.833 192.554C233.42 191.299 234.881 187.854 234.881 187.854H244.726C245.234 189.244 246.091 190.481 247.215 191.446C250.168 193.661 249.648 198.44 249.648 198.44" stroke="#575D68" stroke-width="0.4" stroke-miterlimit="10"/>
<path d="M239.804 189.776C242.522 189.776 244.726 188.915 244.726 187.854C244.726 186.792 242.522 185.932 239.804 185.932C237.085 185.932 234.882 186.792 234.882 187.854C234.882 188.915 237.085 189.776 239.804 189.776Z" fill="#F6F6F6" stroke="#575D68" stroke-width="0.4" stroke-miterlimit="10"/>
<path d="M-210.899 122.935V258.764L-207.135 261.181L0.598495 135.196L5.05305 3.28983L1.51472 1.25696L-210.899 122.935Z" fill="#F6F6F6" stroke="#575D68" stroke-width="0.4" stroke-miterlimit="10"/>
<path d="M-207.136 125.066V261.181L5.05261 138.677V3.28979L-207.136 125.066Z" fill="#F6F6F6" stroke="#575D68" stroke-width="0.4" stroke-miterlimit="10"/>
<path d="M52.2424 157.461L99.4287 184.685L-206.981 361.634L-254.167 334.411L52.2424 157.461Z" fill="#F6F6F6" stroke="#575D68" stroke-width="0.4" stroke-miterlimit="10"/>
<path d="M99.4287 184.685V195.544L-206.102 372.493L-254.167 345.27V334.411L-206.981 361.634L99.4287 184.685Z" fill="#F6F6F6" stroke="#575D68" stroke-width="0.4" stroke-miterlimit="10"/>
<path d="M66.8452 306.175C73.7533 306.175 79.3534 303.639 79.3534 300.511C79.3534 297.382 73.7533 294.846 66.8452 294.846C59.9371 294.846 54.3369 297.382 54.3369 300.511C54.3369 303.639 59.9371 306.175 66.8452 306.175Z" fill="#F6F6F6" stroke="#575D68" stroke-width="0.4" stroke-miterlimit="10"/>
<path d="M66.8452 304.959C73.7533 304.959 79.3534 302.423 79.3534 299.295C79.3534 296.166 73.7533 293.63 66.8452 293.63C59.9371 293.63 54.3369 296.166 54.3369 299.295C54.3369 302.423 59.9371 304.959 66.8452 304.959Z" fill="#F6F6F6" stroke="#575D68" stroke-width="0.4" stroke-miterlimit="10"/>
<path d="M66.8459 299.295C66.2114 299.295 65.6029 299.043 65.1543 298.594C64.7057 298.145 64.4536 297.537 64.4536 296.902L64.4536 237.036H69.2383L69.2383 296.902C69.2383 297.537 68.9863 298.145 68.5376 298.594C68.089 299.043 67.4805 299.295 66.846 299.295H66.8459Z" fill="#F6F6F6" stroke="#575D68" stroke-width="0.4" stroke-miterlimit="10"/>
<path d="M66.8451 248.152C86.6423 248.152 102.691 240.885 102.691 231.919C102.691 222.954 86.6423 215.687 66.8451 215.687C47.0479 215.687 30.999 222.954 30.999 231.919C30.999 240.885 47.0479 248.152 66.8451 248.152Z" fill="#F6F6F6" stroke="#575D68" stroke-width="0.4" stroke-miterlimit="10"/>
<path d="M66.8451 243.958C86.6423 243.958 102.691 236.69 102.691 227.725C102.691 218.76 86.6423 211.492 66.8451 211.492C47.0479 211.492 30.999 218.76 30.999 227.725C30.999 236.69 47.0479 243.958 66.8451 243.958Z" fill="#F6F6F6" stroke="#575D68" stroke-width="0.4" stroke-miterlimit="10"/>
<path d="M96.4534 218.511C96.4379 218.52 96.4201 218.525 96.402 218.524C96.384 218.524 96.3664 218.519 96.3511 218.509C89.8836 214.271 79.0826 211.492 66.8448 211.492C64.5758 211.492 62.3592 211.592 60.2073 211.774C60.2029 211.775 60.1985 211.775 60.1941 211.775L55.8563 213.529C55.8563 213.529 53.6052 212.687 53.6052 212.636L53.7087 202.898C54.2798 195.344 62.9723 194.003 68.1528 194C87.9501 194 102.691 200.694 102.691 209.659C102.691 213.409 101.161 215.77 96.4534 218.511Z" fill="#F6F6F6" stroke="#575D68" stroke-width="0.4" stroke-miterlimit="10"/>
<path d="M93.5349 220.444C93.5193 220.453 93.5016 220.458 93.4835 220.458C93.4655 220.457 93.4478 220.452 93.4325 220.443C86.965 216.204 76.1641 213.425 63.9262 213.425C61.6572 213.425 55.9471 213.626 55.9471 213.626C55.9223 213.624 55.8991 213.613 55.8821 213.595C55.8652 213.577 55.8557 213.553 55.8557 213.529V205.317C55.8557 202.829 56.8436 200.443 58.6023 198.684C60.3609 196.924 62.7463 195.935 65.2342 195.933C85.3282 195.188 101.834 201.314 99.7722 211.592C99.0347 215.269 98.2422 217.703 93.5349 220.444Z" fill="#F6F6F6" stroke="#575D68" stroke-width="0.4" stroke-miterlimit="10"/>
<path d="M102.554 208.195L102.575 229.024C102.575 234.469 80.7972 242.682 80.7972 242.682L77.8142 240.511V232.912C77.8142 226.283 82.0086 221.713 87.8207 218.524C100.827 211.389 100.09 210.297 99.5782 207.519" fill="#F6F6F6"/>
<path d="M102.554 208.195L102.575 229.024C102.575 234.469 80.7972 242.682 80.7972 242.682L77.8142 240.511V232.912C77.8142 226.283 82.0086 221.713 87.8207 218.524C100.827 211.389 100.09 210.297 99.5782 207.519" stroke="#575D68" stroke-width="0.4" stroke-miterlimit="10"/>
<path d="M102.598 209.979C102.602 209.968 102.61 209.959 102.62 209.954C102.63 209.948 102.642 209.946 102.653 209.949C102.665 209.951 102.675 209.958 102.682 209.967C102.689 209.976 102.692 209.988 102.691 210V230.022C102.691 235.713 93.664 240.596 80.7983 242.682V233.535C80.7983 226.906 85.5237 221.997 91.5573 219.25C103.242 213.931 102.195 211.251 102.598 209.979Z" fill="#F6F6F6" stroke="#575D68" stroke-width="0.4" stroke-miterlimit="10"/>
<path d="M69.2377 269.955C69.2526 270.484 69.2212 271.763 69.2377 272.291C74.7764 272.681 80.7888 274.647 80.7888 277.307C80.7888 280.328 74.5463 282.776 66.8454 282.776C59.1445 282.776 52.902 280.328 52.902 277.307C52.902 274.684 58.17 272.784 64.4531 272.252C64.4899 271.722 64.4531 270.111 64.4531 270.111C56.0689 270.693 49.2024 274.042 49.2024 277.779C49.2024 281.93 57.1014 285.295 66.8454 285.295C76.5893 285.295 84.4884 281.93 84.4884 277.779C84.4884 274.01 77.7302 270.497 69.2377 269.955Z" fill="#F6F6F6" stroke="#575D68" stroke-width="0.4" stroke-miterlimit="10"/>
<path d="M-46.5986 232.091L-8.06354 210L15.4014 223.411L-23.1927 246L-46.5986 232.091Z" fill="#F6F6F6" stroke="#575D68" stroke-width="0.4" stroke-miterlimit="10"/>
<path d="M67.5843 162.818V167.816C67.5843 168.169 67.491 168.516 67.3139 168.821C67.1368 169.127 66.8821 169.38 66.5756 169.556L45.7582 181.474C45.3682 181.698 44.9258 181.813 44.4764 181.809C44.027 181.804 43.587 181.68 43.2016 181.449L27.8832 172.264C27.5909 172.089 27.349 171.841 27.181 171.545C27.0131 171.248 26.9248 170.913 26.9248 170.572V165.898" fill="#F6F6F6"/>
<path d="M67.5843 162.818V167.816C67.5843 168.169 67.491 168.516 67.3139 168.821C67.1368 169.127 66.8821 169.38 66.5756 169.556L45.7582 181.474C45.3682 181.698 44.9258 181.813 44.4764 181.809C44.027 181.804 43.587 181.68 43.2016 181.449L27.8832 172.264C27.5909 172.089 27.349 171.841 27.181 171.545C27.0131 171.248 26.9248 170.913 26.9248 170.572V165.898" stroke="#575D68" stroke-width="0.4" stroke-miterlimit="10"/>
<path d="M27.5268 166.931L43.2082 175.978C43.5235 176.16 43.8804 176.258 44.2445 176.262C44.6085 176.266 44.9674 176.176 45.2866 176L66.9599 164.104C67.1479 164.001 67.3049 163.85 67.4146 163.665C67.5244 163.481 67.583 163.271 67.5843 163.056C67.5856 162.842 67.5295 162.631 67.4219 162.446C67.3144 162.26 67.1592 162.107 66.9725 162.001L49.9328 152.382C49.7493 152.278 49.5417 152.225 49.3309 152.226C49.1201 152.228 48.9135 152.285 48.7318 152.392L27.5187 164.851C27.3372 164.958 27.1868 165.11 27.0826 165.293C26.9784 165.476 26.924 165.683 26.9248 165.894C26.9256 166.104 26.9816 166.311 27.0873 166.493C27.1929 166.675 27.3444 166.826 27.5268 166.931Z" fill="#F6F6F6" stroke="#575D68" stroke-width="0.4" stroke-miterlimit="10"/>
<path d="M41.3521 166.617L49.5922 167.04L50.4944 161.676L46.3003 161.448L45.9546 163.96L41.634 163.87L41.3521 166.617Z" fill="#F6F6F6" stroke="#575D68" stroke-width="0.4" stroke-miterlimit="10"/>
<path d="M119.08 114.74L117.783 114.326L96.6464 126.429L93.79 132.878L94.0467 163.188L97.8155 165.01L99.4877 164.04" fill="#F6F6F6"/>
<path d="M119.08 114.74L117.783 114.326L96.6464 126.429L93.79 132.878L94.0467 163.188L97.8155 165.01L99.4877 164.04" stroke="#575D68" stroke-width="0.4" stroke-miterlimit="10"/>
<path d="M119.407 152.086L99.4872 164.04L95.2865 162.102L94.8022 133.371L97.7476 127.146L119.08 114.74L122.016 117.436L122.501 146.165L119.407 152.086Z" fill="#F6F6F6" stroke="#575D68" stroke-width="0.4" stroke-miterlimit="10"/>
<path d="M118.127 150.486L100.694 160.947L97.0179 159.252L96.5935 134.109L99.1716 128.66L118.704 116.939L121.274 119.299L121.698 144.442L118.127 150.486Z" fill="#F6F6F6" stroke="#575D68" stroke-width="0.4" stroke-miterlimit="10"/>
<path d="M94.8022 133.372L96.5931 134.109" stroke="#575D68" stroke-width="0.4" stroke-miterlimit="10"/>
<path d="M122.016 117.436L121.273 119.299" stroke="#575D68" stroke-width="0.4" stroke-miterlimit="10"/>
<path d="M111.471 147.962C112.333 145.837 112.057 143.718 110.855 143.23C109.652 142.742 107.978 144.069 107.115 146.195C106.253 148.321 106.529 150.44 107.731 150.928C108.934 151.416 110.608 150.088 111.471 147.962Z" fill="#F6F6F6" stroke="#575D68" stroke-width="0.4" stroke-miterlimit="10"/>
<path d="M111.151 147.805C111.887 145.991 111.652 144.182 110.626 143.765C109.599 143.349 108.17 144.482 107.434 146.297C106.698 148.111 106.933 149.92 107.96 150.336C108.986 150.753 110.415 149.62 111.151 147.805Z" fill="#F6F6F6" stroke="#575D68" stroke-width="0.4" stroke-miterlimit="10"/>
<path d="M95.2871 162.102L97.0173 159.252" stroke="#575D68" stroke-width="0.4" stroke-miterlimit="10"/>
<path d="M119.407 152.086L118.126 150.486" stroke="#575D68" stroke-width="0.4" stroke-miterlimit="10"/>
<path d="M96.7705 58.8921C96.7705 69.4024 105.303 71.0468 112.13 61.8524L112.142 61.8371C115.32 57.5474 117.108 52.387 117.266 47.0505C117.266 36.5401 107.821 34.7199 100.994 43.9143C97.8231 48.1835 96.7705 54.0117 96.7705 58.8921Z" fill="#F6F6F6" stroke="#575D68" stroke-width="0.4" stroke-miterlimit="10"/>
<path d="M99.7932 66.8421C103.575 69.9831 110.857 69.1738 115.153 63.3887C115.153 63.3887 119.649 58.906 119.657 49.8997C119.661 45.0021 118.41 42.2802 116.322 40.272C114.035 38.0728 110.414 37.9804 107.654 39.5454C105.7 40.5876 104.098 42.1857 103.052 44.1376" fill="#F6F6F6"/>
<path d="M99.7932 66.8421C103.575 69.9831 110.857 69.1738 115.153 63.3887C115.153 63.3887 119.649 58.906 119.657 49.8997C119.661 45.0021 118.41 42.2802 116.322 40.272C114.035 38.0728 110.414 37.9804 107.654 39.5454C105.7 40.5876 104.098 42.1857 103.052 44.1376" stroke="#575D68" stroke-width="0.4" stroke-miterlimit="10"/>
<path d="M101.427 67.8617L106.892 56.9788L113.833 52.9711L117.651 59.2468" fill="#F6F6F6"/>
<path d="M101.427 67.8617L106.892 56.9788L113.833 52.9711L117.651 59.2468" stroke="#575D68" stroke-width="0.4" stroke-miterlimit="10"/>
<path d="M116.532 57.4105C116.061 58.8527 115.36 60.2099 114.459 61.4304L114.449 61.4436C111.099 65.9544 107.018 66.6504 102.799 65.1282L106.891 56.9786L113.832 52.9713L116.532 57.4105Z" fill="#F6F6F6" stroke="#575D68" stroke-width="0.4" stroke-miterlimit="10"/>
<path d="M110.042 55.16V60.0258" stroke="#575D68" stroke-width="0.4" stroke-miterlimit="10"/>
<g opacity="0.67">
<g opacity="0.67">
<g opacity="0.57">
<path style="mix-blend-mode:multiply" opacity="0.57" d="M-260.79 218.853C-260.79 218.853 -244.859 203.913 -226.557 197.978C-221.706 196.406 -216.927 195.306 -212.138 194.151C-210.022 193.641 -207.201 192.247 -205.247 192.388C-203.52 192.514 -202.303 193.71 -200.337 193.51L-189.753 192.434C-184.567 191.906 -179.176 191.296 -173.725 187.408C-170.453 184.854 -167.433 181.991 -164.709 178.859L-139.723 152.045C-133.499 145.366 -126.983 138.469 -120.391 135.781C-114.905 133.544 -109.828 134.441 -104.329 132.053C-95.9316 128.406 -87.6935 117.639 -79.2892 113.895C-76.4168 112.615 -73.6347 112.211 -70.7845 111.192C-53.9323 105.163 -38.8866 78.2808 -21.7509 72.2479C-18.6098 71.1421 -15.5346 70.7828 -12.3546 69.0579C-7.3734 66.356 4.26334 51.9113 8.28598 55.6317C10.5731 57.7471 8.97787 70.3251 9.06149 74.9262L9.69424 109.743L-259.989 262.931L-260.79 218.853Z" fill="url(#paint6_linear_3_37085)"/>
<path style="mix-blend-mode:multiply" opacity="0.57" d="M-198.242 201.503C-196.609 197.789 -193.191 196.757 -189.673 196.38C-185.373 195.92 -181.723 197.773 -177.683 198.296C-170.771 199.191 -162.632 196.045 -155.032 189.544C-144.648 180.66 -135.589 166.067 -125.056 158.319C-112.996 149.447 -101.426 151.203 -89.4472 147.169C-86.5167 146.234 -83.7603 144.823 -81.289 142.992C-77.4527 140.096 -73.9065 135.709 -70.418 131.438C-63.3486 122.783 -56.1168 114.201 -48.4445 107.397C-40.4767 100.331 -33.2289 98.3601 -25.1988 95.086C-12.4822 89.9011 1.92805 85.9542 14.6816 75.0864L16.2227 159.893L-198.063 271.009L-198.957 221.83C-199.048 216.797 -199.344 211.8 -199.232 206.652C-199.242 204.887 -198.906 203.138 -198.242 201.503Z" fill="url(#paint7_linear_3_37085)"/>
</g>
</g>
</g>
<path d="M187.764 20.4438L156.343 38.5712V24.2998L116.965 46.6653L117.428 47.4794L155.406 25.9092V39.1117L128.032 54.9036V123.823L155.547 107.95L155.444 116.726L117.763 138.538L118.232 139.348L156.374 117.269L156.49 107.405L187.764 89.3634V20.4438Z" fill="url(#paint8_linear_3_37085)"/>
<path d="M119.082 114.74L117.785 114.326L96.6483 126.428L93.792 132.877L94.0487 163.188L97.8175 165.01L99.4897 164.04" fill="#DDDEDF"/>
<path d="M119.082 114.74L117.785 114.326L96.6483 126.428L93.792 132.877L94.0487 163.188L97.8175 165.01L99.4897 164.04" stroke="#575D68" stroke-width="0.4" stroke-miterlimit="10"/>
<path d="M119.409 152.086L99.4892 164.04L95.2885 162.101L94.8042 133.371L97.7495 127.146L119.082 114.74L122.018 117.436L122.503 146.165L119.409 152.086Z" fill="#F6F6F6" stroke="#575D68" stroke-width="0.4" stroke-miterlimit="10"/>
<path d="M118.129 150.486L100.696 160.947L97.0198 159.252L96.5955 134.108L99.1735 128.66L118.706 116.939L121.276 119.298L121.7 144.442L118.129 150.486Z" fill="#F6F6F6" stroke="#575D68" stroke-width="0.4" stroke-miterlimit="10"/>
<path d="M94.8042 133.371L96.595 134.108" stroke="#575D68" stroke-width="0.4" stroke-miterlimit="10"/>
<path d="M122.018 117.436L121.275 119.299" stroke="#575D68" stroke-width="0.4" stroke-miterlimit="10"/>
<path d="M111.473 147.962C112.335 145.836 112.059 143.717 110.857 143.229C109.654 142.741 107.98 144.069 107.117 146.195C106.255 148.321 106.531 150.44 107.733 150.928C108.936 151.416 110.61 150.088 111.473 147.962Z" fill="#F6F6F6" stroke="#575D68" stroke-width="0.4" stroke-miterlimit="10"/>
<path d="M111.153 147.805C111.889 145.99 111.654 144.182 110.628 143.765C109.601 143.349 108.172 144.482 107.436 146.297C106.7 148.111 106.935 149.92 107.962 150.336C108.988 150.753 110.417 149.619 111.153 147.805Z" fill="#FF4F12" stroke="#575D68" stroke-width="0.4" stroke-miterlimit="10"/>
<path d="M95.2891 162.102L97.0193 159.252" stroke="#575D68" stroke-width="0.4" stroke-miterlimit="10"/>
<path d="M119.409 152.086L118.128 150.486" stroke="#575D68" stroke-width="0.4" stroke-miterlimit="10"/>
<path d="M96.7021 58.9144C96.7021 69.4247 105.234 71.0691 112.062 61.8748L112.073 61.8595C115.252 57.5697 117.04 52.4094 117.197 47.0728C117.197 36.5625 107.753 34.7423 100.925 43.9366C97.7547 48.2059 96.7021 54.034 96.7021 58.9144Z" fill="#F6F6F6" stroke="#575D68" stroke-width="0.4" stroke-miterlimit="10"/>
<path d="M99.7249 66.8644C103.507 70.0055 110.789 69.1962 115.085 63.411C115.085 63.411 119.581 58.9284 119.588 49.922C119.592 45.0244 118.342 42.3025 116.253 40.2943C113.967 38.0952 110.346 38.0027 107.586 39.5677C105.632 40.6099 104.03 42.208 102.984 44.16" fill="#F6F6F6"/>
<path d="M99.7249 66.8644C103.507 70.0055 110.789 69.1962 115.085 63.411C115.085 63.411 119.581 58.9284 119.588 49.922C119.592 45.0244 118.342 42.3025 116.253 40.2943C113.967 38.0952 110.346 38.0027 107.586 39.5677C105.632 40.6099 104.03 42.208 102.984 44.16" stroke="#575D68" stroke-width="0.4" stroke-miterlimit="10"/>
<path d="M101.359 67.8841L106.823 57.0011L113.764 52.9934L117.582 59.2691" stroke="#575D68" stroke-width="0.4" stroke-miterlimit="10"/>
<path d="M116.464 57.4328C115.992 58.875 115.292 60.2322 114.39 61.4527L114.381 61.4659C111.031 65.9768 106.95 66.6727 102.731 65.1506L106.823 57.0009L113.763 52.9937L116.464 57.4328Z" fill="#F8D5C8" stroke="#575D68" stroke-width="0.4" stroke-miterlimit="10"/>
<path d="M109.973 55.1824V60.0482" stroke="#575D68" stroke-width="0.4" stroke-miterlimit="10"/>
<g style="mix-blend-mode:multiply">
<g style="mix-blend-mode:multiply">
<path d="M140.16 69.039L143.016 63.2633C143.278 62.7559 143.504 62.2309 143.693 61.692C143.818 61.3197 143.878 60.9286 143.871 60.5359C143.889 60.3687 143.866 60.1997 143.804 60.0433C143.742 59.887 143.643 59.7481 143.515 59.6386C143.292 59.4941 142.998 59.5342 142.634 59.7589C142.264 59.9891 141.963 60.3152 141.763 60.7026C141.549 61.1024 141.444 61.5519 141.46 62.0053C141.466 62.2375 141.492 62.4688 141.536 62.6969L140.089 63.7261C139.901 62.8331 139.963 61.9055 140.268 61.0455C140.477 60.4214 140.784 59.8347 141.178 59.3078C141.559 58.7872 142.036 58.3446 142.584 58.0039C143.006 57.7038 143.506 57.5346 144.024 57.5176C144.21 57.5207 144.393 57.5712 144.554 57.6642C144.716 57.7572 144.851 57.8898 144.947 58.0494C145.184 58.4703 145.303 58.9469 145.293 59.4297C145.315 60.1066 145.232 60.7828 145.049 61.4347C144.784 62.2751 144.444 63.0899 144.033 63.8689L142.346 67.2622L145.46 65.3446L145.513 67.19L140.2 70.4609L140.16 69.039Z" fill="#F8D5C8"/>
</g>
<g style="mix-blend-mode:multiply">
<path d="M148.011 65.1746C147.718 65.0947 147.447 64.9481 147.22 64.7463C146.992 64.5444 146.815 64.2927 146.701 64.0109C146.339 63.1887 146.157 62.2984 146.167 61.4C146.134 60.3315 146.259 59.264 146.537 58.232C146.788 57.2699 147.193 56.355 147.738 55.5233C148.2 54.7995 148.814 54.1849 149.538 53.7223C150.068 53.338 150.729 53.1799 151.376 53.283C151.669 53.3629 151.94 53.5094 152.167 53.7112C152.395 53.9129 152.572 54.1644 152.686 54.446C153.048 55.2683 153.23 56.1585 153.22 57.0569C153.254 58.1254 153.129 59.1929 152.85 60.2249C152.6 61.1872 152.194 62.1024 151.649 62.9342C151.187 63.6578 150.573 64.2723 149.849 64.7352C149.319 65.1195 148.658 65.2775 148.011 65.1746ZM150.85 61.7949C151.17 61.2655 151.403 60.6882 151.54 60.085C151.703 59.3904 151.773 58.6771 151.747 57.964C151.753 57.3505 151.645 56.7413 151.429 56.1669C151.369 55.9837 151.27 55.8157 151.139 55.6747C151.007 55.5337 150.846 55.4231 150.668 55.3506C150.483 55.3049 150.291 55.3006 150.104 55.3381C149.918 55.3757 149.742 55.4541 149.59 55.5677C149.158 55.8459 148.797 56.221 148.536 56.6631C148.217 57.1924 147.984 57.7696 147.847 58.3725C147.684 59.0669 147.614 59.78 147.64 60.4929C147.635 61.1065 147.742 61.716 147.958 62.2906C148.018 62.4738 148.117 62.6419 148.248 62.7829C148.379 62.924 148.54 63.0348 148.719 63.1075C148.903 63.1531 149.096 63.1573 149.282 63.1196C149.469 63.082 149.645 63.0035 149.797 62.8898C150.229 62.6118 150.589 62.2368 150.85 61.7949Z" fill="#F8D5C8"/>
</g>
<g style="mix-blend-mode:multiply">
<path d="M157.94 52.5421C157.818 52.5212 157.701 52.4729 157.6 52.4008C157.499 52.3286 157.415 52.2345 157.355 52.1254C157.195 51.841 157.114 51.5196 157.119 51.1936C157.11 50.7911 157.17 50.39 157.295 50.0073C157.418 49.6113 157.6 49.2365 157.837 48.8961C158.043 48.5892 158.31 48.328 158.621 48.129C158.854 47.9646 159.138 47.8905 159.421 47.9208C159.544 47.9421 159.66 47.9906 159.761 48.0627C159.863 48.1348 159.947 48.2287 160.007 48.3374C160.166 48.6223 160.247 48.9438 160.243 49.2699C160.251 49.6722 160.191 50.0729 160.067 50.4556C159.944 50.8516 159.761 51.2263 159.524 51.5667C159.319 51.8739 159.052 52.1353 158.74 52.3345C158.508 52.4992 158.224 52.5731 157.94 52.5421ZM159.186 50.598C159.302 50.3555 159.359 50.0885 159.35 49.8196C159.36 49.7182 159.346 49.6159 159.311 49.5202C159.276 49.4245 159.221 49.3379 159.148 49.2665C159.019 49.1715 158.855 49.1856 158.655 49.309C158.444 49.4437 158.278 49.6369 158.176 49.8649C158.059 50.1076 158.003 50.3748 158.011 50.6439C158.002 50.7452 158.015 50.8474 158.05 50.943C158.085 51.0386 158.141 51.1251 158.214 51.1963C158.342 51.292 158.507 51.2781 158.707 51.1544C158.917 51.0197 159.084 50.8262 159.186 50.598Z" fill="#F8D5C8"/>
</g>
<g style="mix-blend-mode:multiply">
<path d="M167.437 53.2826C166.898 54.0359 166.211 54.6711 165.417 55.1495C164.816 55.5756 164.085 55.7781 163.351 55.7218C163.037 55.6741 162.739 55.5529 162.481 55.3679C162.223 55.1829 162.013 54.9395 161.867 54.6575C161.456 53.8697 161.249 52.9912 161.266 52.1028C161.236 51.0207 161.388 49.9413 161.715 48.9096C162.028 47.8939 162.501 46.9349 163.117 46.0686C163.66 45.283 164.355 44.6142 165.162 44.1019C165.756 43.6684 166.494 43.4783 167.224 43.5705C167.518 43.6285 167.795 43.7524 168.034 43.933C168.274 44.1136 168.469 44.3462 168.605 44.6132L167.395 46.3898C167.195 46.0248 166.859 45.7533 166.46 45.6342C166.002 45.5739 165.538 45.6962 165.169 45.9748C164.671 46.2952 164.244 46.7152 163.915 47.2086C163.528 47.7737 163.233 48.3969 163.042 49.0548C162.835 49.7442 162.74 50.4624 162.762 51.1817C162.753 51.7691 162.886 52.3498 163.15 52.8749C163.241 53.0624 163.373 53.2266 163.537 53.3549C163.702 53.4832 163.893 53.5723 164.097 53.6152C164.548 53.6735 165.005 53.5598 165.377 53.2968C165.878 52.9822 166.311 52.5693 166.648 52.0831C167.048 51.5005 167.37 50.8676 167.605 50.2007L168.871 50.3914C168.52 51.4133 168.038 52.3852 167.437 53.2826Z" fill="#F8D5C8"/>
</g>
<g style="mix-blend-mode:multiply">
<path d="M144.404 84.5576L140.598 86.9007L140.546 85.0553L144.154 75.7231L145.627 74.816L145.825 81.805L146.617 81.3174L146.669 83.1628L145.877 83.6505L145.927 85.4054L144.454 86.3125L144.404 84.5576ZM144.352 82.7121L144.233 78.5368L142.108 84.0934L144.352 82.7121Z" fill="#F8D5C8"/>
</g>
<g style="mix-blend-mode:multiply">
<path d="M148.822 83.4067C148.632 83.4006 148.446 83.3468 148.282 83.2504C148.118 83.154 147.98 83.018 147.882 82.8549C147.652 82.4467 147.535 81.9849 147.543 81.5167C147.536 81.3657 147.539 81.2144 147.553 81.0639L149.029 80.2627C149.018 80.3829 149.013 80.5037 149.016 80.6244C149.028 81.0282 149.154 81.2813 149.395 81.3837C149.557 81.4274 149.727 81.4318 149.891 81.3965C150.055 81.3613 150.208 81.2874 150.338 81.1811C150.81 80.8808 151.184 80.4497 151.415 79.9402C151.685 79.3674 151.811 78.7376 151.784 78.105C151.809 77.8755 151.78 77.6433 151.701 77.4264C151.622 77.2094 151.494 77.0135 151.328 76.8538C151.042 76.6558 150.672 76.6962 150.219 76.975C149.908 77.1771 149.635 77.4313 149.411 77.7265C149.139 78.0716 148.91 78.448 148.727 78.8476L147.566 79.1474L147.725 73.524L152.568 70.5416L152.621 72.3871L148.804 74.737L148.689 77.1013C148.897 76.7217 149.157 76.3727 149.461 76.0642C149.741 75.7703 150.055 75.5119 150.398 75.2948C151.276 74.7546 151.964 74.6619 152.462 75.0167C152.752 75.2959 152.974 75.6375 153.111 76.0155C153.249 76.3935 153.299 76.7978 153.257 77.1979C153.274 77.9379 153.166 78.6754 152.938 79.3796C152.711 80.1075 152.368 80.7942 151.923 81.4132C151.51 82.0009 150.983 82.5002 150.375 82.8817C149.922 83.2096 149.381 83.3927 148.822 83.4067Z" fill="#F8D5C8"/>
</g>
<g style="mix-blend-mode:multiply">
<path d="M155.096 73.8024C154.945 73.7756 154.802 73.7149 154.677 73.625C154.553 73.535 154.45 73.4182 154.377 73.283C154.18 72.9148 154.08 72.5021 154.087 72.0843C154.074 71.5729 154.146 71.0629 154.301 70.5752C154.451 70.0864 154.675 69.6238 154.966 69.2036C155.225 68.8178 155.562 68.4901 155.954 68.2412C156.247 68.0316 156.606 67.9365 156.963 67.9738C157.114 68.0007 157.258 68.0614 157.382 68.1514C157.507 68.2413 157.609 68.3581 157.682 68.4932C157.88 68.8616 157.979 69.2745 157.972 69.6925C157.985 70.2037 157.913 70.7135 157.759 71.201C157.609 71.6898 157.385 72.1525 157.093 72.5726C156.834 72.9587 156.497 73.2866 156.104 73.5356C155.812 73.7448 155.454 73.8397 155.096 73.8024ZM156.71 71.4543C156.876 71.1017 156.957 70.7147 156.945 70.325C156.958 70.1775 156.939 70.0291 156.889 69.8898C156.838 69.7505 156.759 69.6238 156.655 69.5183C156.558 69.4475 156.439 69.4114 156.319 69.4157C156.199 69.4199 156.083 69.4644 155.991 69.5419C155.705 69.7329 155.482 70.0043 155.35 70.3219C155.183 70.6747 155.103 71.0619 155.115 71.4518C155.102 71.5992 155.121 71.7476 155.171 71.8868C155.221 72.0259 155.301 72.1526 155.405 72.2579C155.502 72.3286 155.62 72.3648 155.74 72.3606C155.86 72.3565 155.975 72.3122 156.067 72.2349C156.354 72.0438 156.577 71.7722 156.71 71.4542V71.4543ZM155.874 78.6336L160.444 65.5845L161.269 65.8307L156.699 78.8798L155.874 78.6336ZM160.18 76.4904C160.029 76.4635 159.886 76.4028 159.761 76.3129C159.637 76.2229 159.534 76.1061 159.461 75.971C159.264 75.6026 159.164 75.1897 159.171 74.7717C159.158 74.2605 159.23 73.7508 159.384 73.2632C159.534 72.7745 159.759 72.3118 160.05 71.8916C160.309 71.5053 160.646 71.1772 161.039 70.928C161.331 70.719 161.69 70.6242 162.047 70.6618C162.198 70.6888 162.341 70.7495 162.466 70.8394C162.59 70.9293 162.693 71.0461 162.766 71.1812C162.963 71.5494 163.063 71.9621 163.056 72.3799C163.069 72.8913 162.997 73.4013 162.842 73.889C162.693 74.3778 162.468 74.8404 162.177 75.2607C161.918 75.6465 161.581 75.9742 161.189 76.223C160.897 76.4326 160.538 76.5277 160.18 76.4904H160.18ZM161.793 74.1423C161.96 73.7895 162.04 73.4023 162.028 73.0124C162.041 72.865 162.022 72.7165 161.972 72.5772C161.922 72.438 161.842 72.3112 161.739 72.2058C161.641 72.1353 161.523 72.0993 161.403 72.1036C161.283 72.1078 161.168 72.1521 161.076 72.2293C160.789 72.4203 160.566 72.6917 160.433 73.0094C160.267 73.3622 160.186 73.7493 160.198 74.1392C160.185 74.2867 160.205 74.4352 160.255 74.5745C160.305 74.7137 160.384 74.8405 160.488 74.9459C160.586 75.0167 160.704 75.0528 160.824 75.0486C160.944 75.0443 161.06 74.9999 161.152 74.9224C161.438 74.7313 161.661 74.4599 161.793 74.1423H161.793Z" fill="#F8D5C8"/>
</g>
<g style="mix-blend-mode:multiply">
<path d="M141.188 105.346L144.045 99.5705C144.307 99.0632 144.533 98.5381 144.721 97.9992C144.846 97.627 144.907 97.2359 144.899 96.8431C144.917 96.6759 144.894 96.5069 144.832 96.3506C144.77 96.1942 144.671 96.0553 144.544 95.9459C144.321 95.8014 144.027 95.8415 143.662 96.0661C143.292 96.2963 142.991 96.6224 142.791 97.0098C142.577 97.4096 142.472 97.8591 142.488 98.3125C142.495 98.5448 142.52 98.7761 142.564 99.0042L141.118 100.033C140.929 99.1403 140.991 98.2127 141.297 97.3527C141.505 96.7286 141.813 96.142 142.207 95.615C142.588 95.0945 143.065 94.6519 143.612 94.3112C144.034 94.011 144.535 93.8419 145.052 93.8248C145.238 93.828 145.421 93.8784 145.582 93.9714C145.744 94.0644 145.879 94.197 145.975 94.3566C146.212 94.7775 146.332 95.2542 146.321 95.7369C146.343 96.4138 146.261 97.0901 146.077 97.7419C145.812 98.5824 145.472 99.3971 145.061 100.176L143.374 103.569L146.489 101.652L146.541 103.497L141.229 106.768L141.188 105.346Z" fill="#F8D5C8"/>
</g>
<g style="mix-blend-mode:multiply">
<path d="M149.039 101.482C148.746 101.402 148.475 101.255 148.248 101.054C148.021 100.852 147.843 100.6 147.729 100.318C147.367 99.4959 147.185 98.6057 147.195 97.7072C147.162 96.6388 147.287 95.5713 147.566 94.5393C147.816 93.5772 148.222 92.6623 148.766 91.8305C149.228 91.1067 149.842 90.4922 150.566 90.0296C151.096 89.6452 151.758 89.4872 152.404 89.5902C152.698 89.6702 152.968 89.8167 153.196 90.0184C153.423 90.2202 153.6 90.4717 153.714 90.7533C154.077 91.5756 154.259 92.4658 154.249 93.3642C154.282 94.4326 154.157 95.5002 153.878 96.5321C153.628 97.4945 153.223 98.4096 152.678 99.2415C152.215 99.9651 151.601 100.58 150.878 101.042C150.347 101.427 149.686 101.585 149.039 101.482ZM151.879 98.1022C152.198 97.5727 152.431 96.9954 152.568 96.3922C152.732 95.6976 152.801 94.9843 152.775 94.2713C152.781 93.6578 152.673 93.0486 152.457 92.4742C152.398 92.291 152.298 92.123 152.167 91.982C152.035 91.841 151.875 91.7304 151.696 91.6579C151.512 91.6121 151.319 91.6079 151.133 91.6454C150.946 91.683 150.771 91.7614 150.618 91.875C150.187 92.1532 149.826 92.5283 149.564 92.9704C149.245 93.4997 149.012 94.0768 148.875 94.6798C148.712 95.3742 148.643 96.0873 148.668 96.8001C148.663 97.4138 148.771 98.0232 148.986 98.5978C149.046 98.7811 149.145 98.9491 149.276 99.0902C149.408 99.2313 149.568 99.342 149.747 99.4147C149.932 99.4604 150.124 99.4645 150.311 99.4269C150.497 99.3893 150.673 99.3108 150.826 99.1971C151.257 98.919 151.618 98.5441 151.879 98.1022Z" fill="#F8D5C8"/>
</g>
<g style="mix-blend-mode:multiply">
<path d="M157.097 96.5204C156.804 96.4406 156.533 96.2939 156.306 96.0921C156.079 95.8902 155.901 95.6385 155.787 95.3567C155.425 94.5345 155.243 93.6443 155.253 92.7458C155.22 91.6774 155.345 90.6099 155.624 89.5779C155.874 88.6158 156.279 87.7009 156.824 86.8691C157.286 86.1453 157.9 85.5308 158.624 85.0682C159.154 84.6838 159.815 84.5257 160.462 84.6288C160.755 84.7087 161.026 84.8553 161.253 85.057C161.481 85.2588 161.658 85.5102 161.772 85.7919C162.134 86.6141 162.317 87.5044 162.306 88.4028C162.34 89.4712 162.215 90.5387 161.936 91.5707C161.686 92.5331 161.28 93.4482 160.736 94.2801C160.273 95.0037 159.659 95.6181 158.936 96.081C158.405 96.4653 157.744 96.6233 157.097 96.5204ZM159.936 93.1407C160.256 92.6113 160.489 92.034 160.626 91.4308C160.79 90.7362 160.859 90.0229 160.833 89.3098C160.839 88.6964 160.731 88.0871 160.515 87.5128C160.455 87.3295 160.356 87.1616 160.225 87.0206C160.093 86.8796 159.933 86.769 159.754 86.6965C159.569 86.6507 159.377 86.6465 159.191 86.684C159.004 86.7215 158.829 86.7999 158.676 86.9136C158.244 87.1918 157.884 87.5669 157.622 88.009C157.303 88.5383 157.07 89.1154 156.933 89.7184C156.77 90.4128 156.7 91.1259 156.726 91.8387C156.721 92.4524 156.828 93.0618 157.044 93.6364C157.104 93.8197 157.203 93.9877 157.334 94.1288C157.466 94.2698 157.626 94.3806 157.805 94.4533C157.989 94.4989 158.182 94.5031 158.368 94.4654C158.555 94.4278 158.731 94.3493 158.883 94.2356C159.315 93.9576 159.675 93.5827 159.936 93.1407Z" fill="#F8D5C8"/>
</g>
<g style="mix-blend-mode:multiply">
<path d="M166.486 80.4426L167.959 79.5355L168.207 88.2795L172.124 85.8675L172.176 87.7129L166.786 91.032L166.486 80.4426Z" fill="#F8D5C8"/>
</g>
<g style="mix-blend-mode:multiply">
<path d="M176.115 77.6531L177.744 76.6498L176.114 81.2091L178.169 84.0225L176.529 85.0325L175.32 83.2679L174.24 86.4418L172.623 87.4378L174.53 82.2305L172.645 79.7899L174.251 78.8006L175.235 80.2424L176.115 77.6531Z" fill="#F8D5C8"/>
</g>
</g>
<path d="M0.020752 158.873L4.26638 156.677L8.51109 159.489L3.80546 161.525L0.020752 158.873Z" fill="#F6F6F6" stroke="#575D68" stroke-width="0.4" stroke-miterlimit="10"/>
<path d="M9.15318 127.675L5.41908 170.11L-1.1958 141.398" stroke="#575D68" stroke-width="0.4" stroke-miterlimit="10"/>
<path d="M-0.294216 145.132C1.76808 145.132 3.43995 143.46 3.43995 141.397C3.43995 139.335 1.76808 137.663 -0.294216 137.663C-2.35651 137.663 -4.02832 139.335 -4.02832 141.397C-4.02832 143.46 -2.35651 145.132 -0.294216 145.132Z" fill="#F6F6F6" stroke="#575D68" stroke-width="0.4" stroke-miterlimit="10"/>
<path d="M9.15451 131.409C11.2168 131.409 12.8886 129.738 12.8886 127.675C12.8886 125.613 11.2168 123.941 9.15451 123.941C7.09222 123.941 5.42041 125.613 5.42041 127.675C5.42041 129.738 7.09222 131.409 9.15451 131.409Z" fill="#F6F6F6" stroke="#575D68" stroke-width="0.4" stroke-miterlimit="10"/>
<path d="M10.4024 139.933L5.42041 170.11" stroke="#575D68" stroke-width="0.4" stroke-miterlimit="10"/>
<path d="M10.4023 143.667C12.4646 143.667 14.1364 141.995 14.1364 139.932C14.1364 137.87 12.4646 136.198 10.4023 136.198C8.34002 136.198 6.66821 137.87 6.66821 139.932C6.66821 141.995 8.34002 143.667 10.4023 143.667Z" fill="#F6F6F6" stroke="#575D68" stroke-width="0.4" stroke-miterlimit="10"/>
<path d="M0.020752 158.873V192.482L3.80637 194.666L8.51109 191.974V159.489L3.80546 161.525L0.020752 158.873Z" fill="#F6F6F6" stroke="#575D68" stroke-width="0.4" stroke-miterlimit="10"/>
<path d="M3.8064 161.525L3.80645 194.666" stroke="#575D68" stroke-width="0.4" stroke-miterlimit="10"/>
<defs>
<linearGradient id="paint0_linear_3_37085" x1="322.407" y1="146.708" x2="337.089" y2="146.708" gradientUnits="userSpaceOnUse">
<stop stop-color="white" stop-opacity="0"/>
<stop offset="0.15939" stop-color="#FAFAFA" stop-opacity="0.26031"/>
<stop offset="0.31838" stop-color="#F5F5F5" stop-opacity="0.48603"/>
<stop offset="0.47235" stop-color="#F1F1F1" stop-opacity="0.67051"/>
<stop offset="0.62041" stop-color="#EEEEEE" stop-opacity="0.81403"/>
<stop offset="0.76093" stop-color="#ECECEC" stop-opacity="0.91668"/>
<stop offset="0.89086" stop-color="#EAEAEA" stop-opacity="0.97865"/>
<stop offset="1" stop-color="#EAEAEA"/>
</linearGradient>
<linearGradient id="paint1_linear_3_37085" x1="301.757" y1="140.351" x2="328.674" y2="140.351" gradientUnits="userSpaceOnUse">
<stop stop-color="white" stop-opacity="0"/>
<stop offset="0.15939" stop-color="#FAFAFA" stop-opacity="0.26031"/>
<stop offset="0.31838" stop-color="#F5F5F5" stop-opacity="0.48603"/>
<stop offset="0.47235" stop-color="#F1F1F1" stop-opacity="0.67051"/>
<stop offset="0.62041" stop-color="#EEEEEE" stop-opacity="0.81403"/>
<stop offset="0.76093" stop-color="#ECECEC" stop-opacity="0.91668"/>
<stop offset="0.89086" stop-color="#EAEAEA" stop-opacity="0.97865"/>
<stop offset="1" stop-color="#EAEAEA"/>
</linearGradient>
<linearGradient id="paint2_linear_3_37085" x1="298.241" y1="178.37" x2="318.387" y2="250.437" gradientUnits="userSpaceOnUse">
<stop stop-color="white" stop-opacity="0"/>
<stop offset="0.02814" stop-color="#F5F5F5" stop-opacity="0.13243"/>
<stop offset="0.0788" stop-color="#E6E6E6" stop-opacity="0.33536"/>
<stop offset="0.13583" stop-color="#D8D8D8" stop-opacity="0.51645"/>
<stop offset="0.19879" stop-color="#CCCCCC" stop-opacity="0.66817"/>
<stop offset="0.26994" stop-color="#C3C3C3" stop-opacity="0.79112"/>
<stop offset="0.35304" stop-color="#BCBCBC" stop-opacity="0.88553"/>
<stop offset="0.4558" stop-color="#B7B7B7" stop-opacity="0.9516"/>
<stop offset="0.59991" stop-color="#B4B4B4" stop-opacity="0.98953"/>
<stop offset="1" stop-color="#B3B3B3"/>
</linearGradient>
<linearGradient id="paint3_linear_3_37085" x1="318.834" y1="139.506" x2="328.72" y2="139.506" gradientUnits="userSpaceOnUse">
<stop stop-color="#B3B3B3"/>
<stop offset="0.10987" stop-color="#B7B7B7" stop-opacity="0.9527"/>
<stop offset="0.28498" stop-color="#C0C0C0" stop-opacity="0.82349"/>
<stop offset="0.50341" stop-color="#D0D0D0" stop-opacity="0.61259"/>
<stop offset="0.75393" stop-color="#E6E6E6" stop-opacity="0.32311"/>
<stop offset="1" stop-color="white" stop-opacity="0"/>
</linearGradient>
<linearGradient id="paint4_linear_3_37085" x1="321.495" y1="133.871" x2="290.55" y2="149.863" gradientUnits="userSpaceOnUse">
<stop offset="0.09912" stop-color="#B3B3B3"/>
<stop offset="0.25128" stop-color="#B4B4B4" stop-opacity="0.98032"/>
<stop offset="0.38664" stop-color="#B9B9B9" stop-opacity="0.91976"/>
<stop offset="0.51559" stop-color="#C1C1C1" stop-opacity="0.8181"/>
<stop offset="0.64066" stop-color="#CCCCCC" stop-opacity="0.67509"/>
<stop offset="0.76292" stop-color="#DADADA" stop-opacity="0.49062"/>
<stop offset="0.88153" stop-color="#EBEBEB" stop-opacity="0.26761"/>
<stop offset="0.99787" stop-color="white" stop-opacity="0.01"/>
<stop offset="1" stop-color="white" stop-opacity="0"/>
</linearGradient>
<linearGradient id="paint5_linear_3_37085" x1="329.325" y1="138.609" x2="293.395" y2="139.024" gradientUnits="userSpaceOnUse">
<stop stop-color="#B3B3B3"/>
<stop offset="0.10987" stop-color="#B7B7B7" stop-opacity="0.9527"/>
<stop offset="0.28498" stop-color="#C0C0C0" stop-opacity="0.82349"/>
<stop offset="0.50341" stop-color="#D0D0D0" stop-opacity="0.61259"/>
<stop offset="0.75393" stop-color="#E6E6E6" stop-opacity="0.32311"/>
<stop offset="1" stop-color="white" stop-opacity="0"/>
</linearGradient>
<linearGradient id="paint6_linear_3_37085" x1="-124.059" y1="197.852" x2="-149.452" y2="157.441" gradientUnits="userSpaceOnUse">
<stop stop-color="#EAEAEA" stop-opacity="0"/>
<stop offset="0.08667" stop-color="#E0E0E0" stop-opacity="0.17789"/>
<stop offset="0.22597" stop-color="#D1D1D1" stop-opacity="0.42721"/>
<stop offset="0.36713" stop-color="#C5C5C5" stop-opacity="0.63392"/>
<stop offset="0.5082" stop-color="#BBBBBB" stop-opacity="0.79434"/>
<stop offset="0.64929" stop-color="#B4B4B4" stop-opacity="0.90874"/>
<stop offset="0.79044" stop-color="#B0B0B0" stop-opacity="0.97723"/>
<stop offset="0.93199" stop-color="#AFAFAF"/>
</linearGradient>
<linearGradient id="paint7_linear_3_37085" x1="-91.5634" y1="221.637" x2="-120.991" y2="169.645" gradientUnits="userSpaceOnUse">
<stop stop-color="#EAEAEA" stop-opacity="0"/>
<stop offset="0.08667" stop-color="#E0E0E0" stop-opacity="0.17789"/>
<stop offset="0.22597" stop-color="#D1D1D1" stop-opacity="0.42721"/>
<stop offset="0.36713" stop-color="#C5C5C5" stop-opacity="0.63392"/>
<stop offset="0.5082" stop-color="#BBBBBB" stop-opacity="0.79434"/>
<stop offset="0.64929" stop-color="#B4B4B4" stop-opacity="0.90874"/>
<stop offset="0.79044" stop-color="#B0B0B0" stop-opacity="0.97723"/>
<stop offset="0.93199" stop-color="#AFAFAF"/>
</linearGradient>
<linearGradient id="paint8_linear_3_37085" x1="117.958" y1="136.237" x2="180.834" y2="11.5628" gradientUnits="userSpaceOnUse">
<stop stop-color="#F6EEEB"/>
<stop offset="0.07588" stop-color="#F6EBE6"/>
<stop offset="0.51513" stop-color="#F8DBD0"/>
<stop offset="0.79598" stop-color="#F8D5C8"/>
</linearGradient>
</defs>
</svg>
