<svg width="345" height="480" viewBox="0 0 345 480" fill="none" xmlns="http://www.w3.org/2000/svg">
<path d="M330.26 -59.8815H10.9431V383.615H330.26V-59.8815Z" fill="#F6F6F6"/>
<path d="M-179.076 -383L464.726 -11.265L464.324 427.028M464.324 427.028L-179.013 55.5096M464.324 427.028L157.678 604" stroke="#575D68" stroke-width="0.5" stroke-miterlimit="10"/>
<path d="M-63.1283 73.4553L1.90329 111.132V141.01L-63.3643 103.22L-63.1283 73.4553Z" fill="#F6F6F6" stroke="#575D68" stroke-width="0.5" stroke-miterlimit="10"/>
<path d="M-89.4717 58.1937L1.90269 111.132V81.095L-89.4717 28.6569V58.1937Z" fill="#F6F6F6" stroke="#575D68" stroke-width="0.5" stroke-miterlimit="10"/>
<path d="M1.90332 -228.732V152.972L112.173 216.589V-165.115L1.90332 -228.732Z" fill="#F6F6F6" stroke="#575D68" stroke-width="0.5" stroke-miterlimit="10"/>
<path style="mix-blend-mode:multiply" d="M1.90332 -228.732V152.972L112.173 216.589V-165.115L1.90332 -228.732Z" fill="url(#paint0_linear_3_30648)"/>
<path d="M15.676 -204.272V139.734" stroke="#575D68" stroke-width="0.5" stroke-miterlimit="10"/>
<path d="M36.3574 -191.564V4.0007" stroke="#575D68" stroke-width="0.5" stroke-miterlimit="10"/>
<path d="M77.7185 -77.1331V147.729" stroke="#575D68" stroke-width="0.5" stroke-miterlimit="10"/>
<path d="M77.7185 164.194V196.985" stroke="#575D68" stroke-width="0.5" stroke-miterlimit="10"/>
<path d="M98.4001 -157.437V12.8364" stroke="#575D68" stroke-width="0.5" stroke-miterlimit="10"/>
<path d="M98.4001 37.8181V208.091" stroke="#575D68" stroke-width="0.5" stroke-miterlimit="10"/>
<path d="M57.0388 -11.3146V184.781" stroke="#575D68" stroke-width="0.5" stroke-miterlimit="10"/>
<path d="M34.4207 112.099V171.732" stroke="#575D68" stroke-width="0.5" stroke-miterlimit="10"/>
<path d="M-63.3643 79.1199L1.90263 116.695" stroke="#575D68" stroke-width="0.5" stroke-miterlimit="10"/>
<path d="M120.921 169.014L157.678 147.809L231.192 190.221L194.435 211.426L120.921 169.014Z" fill="#F6F6F6" stroke="#575D68" stroke-width="0.5" stroke-miterlimit="10"/>
<path d="M231.192 190.221V290.387L194.615 311.592L194.435 211.426L231.192 190.221Z" fill="#F6F6F6" stroke="#575D68" stroke-width="0.5" stroke-miterlimit="10"/>
<path d="M120.921 169.014V270.434L194.615 311.592V211.426L120.921 169.014Z" fill="#F6F6F6" stroke="#575D68" stroke-width="0.5" stroke-miterlimit="10"/>
<path d="M131.682 205.817V241.333L189.073 274.333V238.167L162.542 223.211L131.682 205.817Z" fill="#F6F6F6" stroke="#575D68" stroke-width="0.5" stroke-miterlimit="10"/>
<path d="M162.542 223.211L131.682 241.333" stroke="#575D68" stroke-width="0.5" stroke-miterlimit="10"/>
<path d="M131.779 182.249V196.013L189.072 228.641V214.668L131.779 182.249Z" fill="#F6F6F6" stroke="#575D68" stroke-width="0.5" stroke-miterlimit="10"/>
<path d="M153.754 -103.422L151.438 -102.405L153.204 65.9079L224.952 109.653L226.717 108.319V-61.3276L153.754 -103.422Z" fill="#F6F6F6" stroke="#575D68" stroke-width="0.5" stroke-miterlimit="10"/>
<path d="M151.438 -102.198V67.2415L224.951 109.653V-59.9933L151.617 -102.301C151.599 -102.312 151.578 -102.317 151.557 -102.317C151.536 -102.317 151.515 -102.312 151.497 -102.301C151.479 -102.291 151.464 -102.276 151.454 -102.258C151.443 -102.239 151.438 -102.219 151.438 -102.198Z" fill="#F6F6F6" stroke="#575D68" stroke-width="0.5" stroke-miterlimit="10"/>
<path d="M165.231 88.6573L165.225 88.6582L165.231 88.6573Z" fill="#DDDEDF" stroke="#575D68" stroke-width="0.5" stroke-miterlimit="10"/>
<path d="M165.231 88.6572L165.225 88.6582L165.231 88.6572Z" fill="#DDDEDF" stroke="#575D68" stroke-width="0.5" stroke-miterlimit="10"/>
<path d="M194.411 103.064C192.831 99.8604 190.499 97.0862 187.615 94.9782C184.971 93.0742 182.113 91.4864 179.099 90.247C168.518 85.6018 162.016 87.376 161.207 87.5803C153.035 89.6448 146.712 99.9244 145.594 104.914L154.833 140.562C154.789 149.249 158.321 158.878 163.629 166.064C164.234 166.883 169.517 184.017 170.411 184.526L179.981 181.559C179.981 181.559 186.699 177.191 188.949 175.559C196.948 169.752 198.97 160.957 198.884 155.193L198.11 123.451C198.11 112.323 196.549 106.853 194.411 103.064Z" fill="#DDDEDF" stroke="#575D68" stroke-width="0.5" stroke-miterlimit="10"/>
<path d="M165.231 88.6572L165.225 88.6582L165.231 88.6572Z" fill="#E9EAEB" stroke="#575D68" stroke-width="0.5" stroke-miterlimit="10"/>
<path d="M194.411 103.064C192.831 99.8604 190.499 97.0862 187.615 94.9782C184.971 93.0742 182.113 91.4864 179.099 90.247C168.518 85.6018 162.016 87.376 161.207 87.5803C153.035 89.6448 146.712 99.9244 145.594 104.914L154.833 140.562C154.789 149.249 158.321 158.878 163.629 166.064C164.234 166.883 169.517 184.017 170.411 184.526L179.981 181.559C179.981 181.559 186.699 177.191 188.949 175.559C196.948 169.752 198.97 160.957 198.884 155.193L198.11 123.451C198.11 112.323 196.549 106.853 194.411 103.064Z" fill="#E9EAEB" stroke="#575D68" stroke-width="0.5" stroke-miterlimit="10"/>
<g style="mix-blend-mode:multiply" opacity="0.05">
<g style="mix-blend-mode:multiply" opacity="0.05">
<path d="M165.23 88.6573L165.224 88.6583L165.23 88.6573Z" fill="#575D68"/>
</g>
<g style="mix-blend-mode:multiply" opacity="0.05">
<path d="M165.23 88.6573L165.224 88.6583L165.23 88.6573Z" fill="#575D68"/>
</g>
</g>
<g opacity="0.1">
<path opacity="0.1" d="M165.23 88.6573L165.224 88.6583L165.23 88.6573Z" fill="white" stroke="#575D68" stroke-width="0.5" stroke-miterlimit="10"/>
</g>
<path d="M188.948 175.559L188.977 175.537C192.073 172.525 194.018 169.733 194.109 163.021L193.593 127.752C193.593 115.84 189.785 105.537 187.335 101.882C187.037 101.437 185.722 98.9138 183.851 97.6235L163.529 88.2687C161.883 88.0994 160.22 88.1901 158.602 88.5375C151.718 91.8309 146.59 100.469 145.593 104.914L179.98 181.559L186.961 176.939C187.758 176.399 188.459 175.914 188.948 175.559Z" fill="#F6F6F6" stroke="#575D68" stroke-width="0.5" stroke-miterlimit="10"/>
<path d="M183.721 109.236C182.304 106.574 181.248 104.57 176.689 105.86C173.332 106.81 166.019 106.74 161.011 103.946C158.227 102.392 155.462 100.244 154.358 98.0968C154.183 97.7342 153.88 97.4494 153.507 97.2974C153.134 97.1455 152.718 97.1371 152.34 97.2741C148.066 98.9391 143.942 104.71 143.9 112.982L143.713 149.358C143.879 158.574 146.958 167.501 152.509 174.86C154.624 177.623 168.861 184.354 168.861 184.354C169.82 184.901 173.57 184.806 176.151 183.774C180.884 181.88 187.592 175.86 187.764 163.989L186.99 132.247C186.99 121.119 185.85 113.236 183.721 109.236Z" fill="white" stroke="#575D68" stroke-width="0.5" stroke-miterlimit="10"/>
<path d="M183.721 109.236C182.304 106.574 181.248 104.57 176.689 105.86C173.332 106.81 166.019 106.74 161.011 103.946C158.227 102.392 155.462 100.244 154.358 98.0968C154.183 97.7342 153.88 97.4494 153.507 97.2974C153.134 97.1455 152.718 97.1371 152.34 97.2741C148.066 98.9391 143.942 104.71 143.9 112.982L143.713 149.358C143.879 158.574 146.958 167.501 152.509 174.86C154.624 177.623 168.861 184.354 168.861 184.354C169.82 184.901 173.57 184.806 176.151 183.774C180.884 181.88 187.592 175.86 187.764 163.989L186.99 132.247C186.99 121.119 185.85 113.236 183.721 109.236Z" fill="#E9EAEB" stroke="#575D68" stroke-width="0.5" stroke-miterlimit="10"/>
<path d="M161.193 132.449C157.062 130.094 153.69 132.556 153.663 137.947C153.635 143.339 156.961 149.618 161.092 151.973C165.224 154.328 168.595 151.866 168.623 146.475C168.65 141.083 165.324 134.804 161.193 132.449ZM161.106 149.377C158.073 147.649 155.631 143.039 155.652 139.081C155.672 135.123 158.147 133.316 161.179 135.045C164.212 136.774 166.654 141.383 166.634 145.341C166.613 149.299 164.138 151.106 161.106 149.377Z" fill="#F6F6F6" stroke="#575D68" stroke-width="0.5" stroke-miterlimit="10"/>
<path d="M179.109 91.8554C181.176 93.0687 182.851 94.8515 183.933 96.9908C183.933 96.9908 183.901 99.31 183.852 99.5379C183.629 100.405 183.219 101.213 182.65 101.905C182.082 102.597 181.369 103.156 180.562 103.544C175.373 106.54 166.309 106.164 160.317 102.705C157.587 101.128 155.734 99.1052 155.269 97.1718C155.198 96.4106 155.176 95.6455 155.205 94.8815C155.872 93.1907 157.034 91.7405 158.538 90.7202C163.727 87.7243 173.117 88.396 179.109 91.8554Z" fill="white" stroke="#575D68" stroke-width="0.5" stroke-miterlimit="10"/>
<path opacity="0.1" d="M179.109 91.8554C181.176 93.0687 182.851 94.8515 183.933 96.9908C183.933 96.9908 183.901 99.31 183.852 99.5379C183.629 100.405 183.219 101.213 182.65 101.905C182.082 102.597 181.369 103.156 180.562 103.544C175.373 106.54 166.309 106.164 160.317 102.705C157.587 101.128 155.734 99.1052 155.269 97.1718C155.198 96.4106 155.176 95.6455 155.205 94.8815C155.872 93.1907 157.034 91.7405 158.538 90.7202C163.727 87.7243 173.117 88.396 179.109 91.8554Z" fill="white" stroke="#575D68" stroke-width="0.5" stroke-miterlimit="10"/>
<path d="M179.109 91.8554C181.176 93.0687 182.851 94.8515 183.933 96.9908C183.933 96.9908 183.901 99.31 183.852 99.5379C183.629 100.405 183.219 101.213 182.65 101.905C182.082 102.597 181.369 103.156 180.562 103.544C175.373 106.54 166.309 106.164 160.317 102.705C157.587 101.128 155.734 99.1052 155.269 97.1718C155.198 96.4106 155.176 95.6455 155.205 94.8815C155.872 93.1907 157.034 91.7405 158.538 90.7202C163.727 87.7243 173.117 88.396 179.109 91.8554Z" fill="#EEEEEF" stroke="#575D68" stroke-width="0.5" stroke-miterlimit="10"/>
<path d="M183.902 97.9284C184.447 93.4546 178.468 89.0452 170.546 88.0797C162.624 87.1142 155.76 89.9582 155.215 94.432C154.67 98.9057 160.649 103.315 168.571 104.281C176.493 105.246 183.357 102.402 183.902 97.9284Z" fill="#F6F6F6" stroke="#575D68" stroke-width="0.5" stroke-miterlimit="10"/>
<path d="M165.231 88.6573L165.225 88.6583L165.231 88.6573Z" fill="white" stroke="#575D68" stroke-width="0.5" stroke-miterlimit="10"/>
<path d="M168.623 96.0842C169.401 96.0842 170.032 95.7091 170.032 95.2463C170.032 94.7836 169.401 94.4085 168.623 94.4085C167.845 94.4085 167.214 94.7836 167.214 95.2463C167.214 95.7091 167.845 96.0842 168.623 96.0842Z" fill="#F6F6F6" stroke="#575D68" stroke-width="0.5" stroke-miterlimit="10"/>
<path style="mix-blend-mode:multiply" d="M116.908 94.0414C123.993 86.2185 136.132 80.6124 149.371 78.1863L151.947 85.5833C142.487 87.2671 133.789 91.2485 128.735 96.8293C121.361 104.972 124.084 113.924 134.381 118.792C130.928 120.765 127.485 122.744 124.053 124.729C110.177 117.749 106.672 105.345 116.908 94.0414ZM142.92 113.907C145.039 112.691 147.153 111.472 149.26 110.249C144.827 108.494 143.504 104.92 146.443 101.675C148.497 99.4066 152.144 97.8432 156.028 97.305L154.297 92.333C148.085 93.3879 142.352 95.9808 139.042 99.6366C134.23 104.949 136.088 110.793 142.92 113.907ZM105.901 135.707C106.943 134.939 108.016 134.184 109.156 133.459C111.291 132.1 113.493 130.771 115.71 129.452C98.3152 120.474 94.0206 104.732 107.018 90.3803C116.04 80.4173 131.465 73.2596 148.31 70.126L145.719 62.6871C125.075 66.5659 106.189 75.3591 95.1246 87.5768C79.1084 105.262 84.4255 124.663 105.901 135.707Z" fill="url(#paint1_linear_3_30648)"/>
<path d="M165.254 88.5791H165.249H165.254Z" fill="#DDDEDF" stroke="#575D68" stroke-width="0.5" stroke-miterlimit="10"/>
<path d="M165.253 88.5791H165.248H165.253Z" fill="#DDDEDF" stroke="#575D68" stroke-width="0.5" stroke-miterlimit="10"/>
<path d="M194.432 102.986C192.852 99.782 190.52 97.0078 187.636 94.8997C184.992 92.9958 182.134 91.408 179.12 90.1686C168.54 85.5235 162.037 87.2976 161.228 87.5019C153.056 89.5664 146.733 99.8459 145.615 104.835L154.854 140.484C154.81 149.17 158.342 158.799 163.65 165.985C164.255 166.805 169.538 183.938 170.432 184.448L180.002 181.48C180.002 181.48 186.72 177.112 188.97 175.48C196.969 169.673 198.991 160.878 198.905 155.114L198.131 123.373C198.131 112.245 196.57 106.775 194.432 102.986Z" fill="#DDDEDF" stroke="#575D68" stroke-width="0.5" stroke-miterlimit="10"/>
<path d="M165.253 88.5791H165.248H165.253Z" fill="#E9EAEB" stroke="#575D68" stroke-width="0.5" stroke-miterlimit="10"/>
<path d="M194.432 102.986C192.852 99.782 190.52 97.0078 187.636 94.8997C184.992 92.9958 182.134 91.408 179.12 90.1686C168.54 85.5235 162.037 87.2976 161.228 87.5019C153.056 89.5664 146.733 99.8459 145.615 104.835L154.854 140.484C154.81 149.17 158.342 158.799 163.65 165.985C164.255 166.805 169.538 183.938 170.432 184.448L180.002 181.48C180.002 181.48 186.72 177.112 188.97 175.48C196.969 169.673 198.991 160.878 198.905 155.114L198.131 123.373C198.131 112.245 196.57 106.775 194.432 102.986Z" fill="#E9EAEB" stroke="#575D68" stroke-width="0.5" stroke-miterlimit="10"/>
<g style="mix-blend-mode:multiply">
<g style="mix-blend-mode:multiply">
<path d="M194.432 102.986C192.852 99.782 190.52 97.0078 187.636 94.8997C184.992 92.9958 182.134 91.408 179.12 90.1686C168.54 85.5235 162.037 87.2976 161.228 87.5019C153.056 89.5664 146.733 99.8459 145.615 104.835L154.854 140.484C154.81 149.17 158.342 158.799 163.65 165.985C164.255 166.805 169.538 183.938 170.432 184.448L180.002 181.48C180.002 181.48 186.72 177.112 188.97 175.48C196.969 169.673 198.991 160.878 198.905 155.114L198.131 123.373C198.131 112.245 196.57 106.775 194.432 102.986Z" fill="#E9EAEB"/>
</g>
</g>
<g opacity="0.1">
<path opacity="0.1" d="M165.255 88.5794H165.25H165.255Z" fill="white" stroke="#575D68" stroke-width="0.5" stroke-miterlimit="10"/>
</g>
<path d="M188.971 175.48L189 175.458C192.096 172.446 194.041 169.654 194.132 162.943L193.616 127.674C193.616 115.761 189.808 105.458 187.358 101.803C187.06 101.358 185.745 98.8354 183.874 97.5451L163.552 88.1903C161.906 88.021 160.243 88.1117 158.626 88.4591C151.741 91.7525 146.613 100.391 145.616 104.835L180.003 181.48L186.984 176.861C187.781 176.32 188.482 175.835 188.971 175.48Z" fill="#F6F6F6" stroke="#575D68" stroke-width="0.5" stroke-miterlimit="10"/>
<path d="M183.746 109.158C182.33 106.496 181.273 104.491 176.714 105.782C173.357 106.732 166.045 106.661 161.037 103.868C158.252 102.314 155.487 100.166 154.383 98.0184C154.208 97.6558 153.905 97.371 153.532 97.2191C153.16 97.0671 152.744 97.0588 152.365 97.1957C148.091 98.8607 143.968 104.631 143.925 112.904L143.739 149.28C143.905 158.495 146.984 167.422 152.534 174.781C154.65 177.544 168.886 184.276 168.886 184.276C169.846 184.822 173.596 184.727 176.177 183.695C180.91 181.802 187.617 175.781 187.789 163.91L187.015 132.168C187.015 121.041 185.875 113.158 183.746 109.158Z" fill="white" stroke="#575D68" stroke-width="0.5" stroke-miterlimit="10"/>
<path d="M183.746 109.158C182.33 106.496 181.273 104.491 176.714 105.782C173.357 106.732 166.045 106.661 161.037 103.868C158.252 102.314 155.487 100.166 154.383 98.0184C154.208 97.6558 153.905 97.371 153.532 97.2191C153.16 97.0671 152.744 97.0588 152.365 97.1957C148.091 98.8607 143.968 104.631 143.925 112.904L143.739 149.28C143.905 158.495 146.984 167.422 152.534 174.781C154.65 177.544 168.886 184.276 168.886 184.276C169.846 184.822 173.596 184.727 176.177 183.695C180.91 181.802 187.617 175.781 187.789 163.91L187.015 132.168C187.015 121.041 185.875 113.158 183.746 109.158Z" fill="#E9EAEB" stroke="#575D68" stroke-width="0.5" stroke-miterlimit="10"/>
<g style="mix-blend-mode:multiply">
<g style="mix-blend-mode:multiply">
<path d="M183.747 109.158C182.33 106.496 181.274 104.491 176.714 105.782C173.358 106.732 166.045 106.661 161.037 103.868C158.252 102.314 155.487 100.166 154.384 98.0185C154.209 97.6559 153.905 97.3711 153.533 97.2191C153.16 97.0672 152.744 97.0588 152.365 97.1957C148.091 98.8608 143.968 104.631 143.926 112.904L143.739 149.28C143.905 158.496 146.984 167.422 152.534 174.781C154.65 177.545 168.886 184.276 168.886 184.276C169.846 184.823 173.596 184.727 176.177 183.695C180.91 181.802 187.618 175.781 187.79 163.91L187.015 132.169C187.015 121.041 185.876 113.158 183.747 109.158Z" fill="#E9EAEB"/>
</g>
</g>
<path d="M161.218 132.371C157.087 130.016 153.716 132.478 153.688 137.869C153.661 143.26 156.987 149.54 161.118 151.894C165.249 154.249 168.621 151.788 168.648 146.396C168.676 141.005 165.349 134.725 161.218 132.371ZM161.131 149.299C158.099 147.57 155.657 142.96 155.677 139.003C155.697 135.045 158.172 133.238 161.205 134.966C164.237 136.695 166.679 141.305 166.659 145.263C166.639 149.22 164.164 151.027 161.131 149.299H161.131Z" fill="#F6F6F6" stroke="#575D68" stroke-width="0.5" stroke-miterlimit="10"/>
<path opacity="0.3" d="M161.218 132.371C157.087 130.016 153.716 132.478 153.688 137.869C153.661 143.26 156.987 149.54 161.118 151.894C165.249 154.249 168.621 151.788 168.648 146.396C168.676 141.005 165.349 134.725 161.218 132.371ZM161.131 149.299C158.099 147.57 155.657 142.96 155.677 139.003C155.697 135.045 158.172 133.238 161.205 134.966C164.237 136.695 166.679 141.305 166.659 145.263C166.639 149.22 164.164 151.027 161.131 149.299H161.131Z" fill="#FF4F12"/>
<path d="M179.134 91.7771C181.201 92.9904 182.876 94.7731 183.958 96.9124C183.958 96.9124 183.926 99.2316 183.877 99.4596C183.654 100.327 183.244 101.135 182.675 101.826C182.107 102.518 181.394 103.078 180.587 103.466C175.398 106.461 166.334 106.086 160.342 102.626C157.612 101.05 155.759 99.0268 155.294 97.0934C155.223 96.3322 155.201 95.5672 155.23 94.8031C155.897 93.1124 157.059 91.6622 158.563 90.6419C163.752 87.6459 173.142 88.3177 179.134 91.7771Z" fill="white" stroke="#575D68" stroke-width="0.5" stroke-miterlimit="10"/>
<path opacity="0.1" d="M179.134 91.7771C181.201 92.9904 182.876 94.7731 183.958 96.9124C183.958 96.9124 183.926 99.2316 183.877 99.4596C183.654 100.327 183.244 101.135 182.675 101.826C182.107 102.518 181.394 103.078 180.587 103.466C175.398 106.461 166.334 106.086 160.342 102.626C157.612 101.05 155.759 99.0268 155.294 97.0934C155.223 96.3322 155.201 95.5672 155.23 94.8031C155.897 93.1124 157.059 91.6622 158.563 90.6419C163.752 87.6459 173.142 88.3177 179.134 91.7771Z" fill="white" stroke="#575D68" stroke-width="0.5" stroke-miterlimit="10"/>
<path d="M179.134 91.7771C181.201 92.9904 182.876 94.7731 183.958 96.9124C183.958 96.9124 183.926 99.2316 183.877 99.4596C183.654 100.327 183.244 101.135 182.675 101.826C182.107 102.518 181.394 103.078 180.587 103.466C175.398 106.461 166.334 106.086 160.342 102.626C157.612 101.05 155.759 99.0268 155.294 97.0934C155.223 96.3322 155.201 95.5672 155.23 94.8031C155.897 93.1124 157.059 91.6622 158.563 90.6419C163.752 87.6459 173.142 88.3177 179.134 91.7771Z" fill="#EEEEEF" stroke="#575D68" stroke-width="0.5" stroke-miterlimit="10"/>
<path d="M183.927 97.8501C184.472 93.3764 178.492 88.967 170.571 88.0015C162.649 87.036 155.785 89.8799 155.24 94.3537C154.694 98.8274 160.674 103.237 168.596 104.202C176.518 105.168 183.382 102.324 183.927 97.8501Z" fill="#F6F6F6" stroke="#575D68" stroke-width="0.5" stroke-miterlimit="10"/>
<path d="M165.255 88.5794H165.25H165.255Z" fill="white" stroke="#575D68" stroke-width="0.5" stroke-miterlimit="10"/>
<path d="M168.975 96.7067C170.255 96.7067 171.292 96.0897 171.292 95.3286C171.292 94.5675 170.255 93.9505 168.975 93.9505C167.696 93.9505 166.658 94.5675 166.658 95.3286C166.658 96.0897 167.696 96.7067 168.975 96.7067Z" fill="#FF4F12" stroke="#575D68" stroke-width="0.5" stroke-miterlimit="10"/>
<path d="M155.601 -93.8406V63.3185L221.165 100.846V-57.2903L155.601 -93.8406Z" fill="#F6F6F6" stroke="#575D68" stroke-width="0.5" stroke-miterlimit="10"/>
<mask id="mask0_3_30648" style="mask-type:alpha" maskUnits="userSpaceOnUse" x="155" y="-95" width="67" height="197">
<path d="M155.601 -93.8406V63.3185L221.166 100.846V-57.2903L155.601 -93.8406Z" fill="#F6F6F6" stroke="#575D68" stroke-width="0.5" stroke-miterlimit="10"/>
</mask>
<g mask="url(#mask0_3_30648)">
<path style="mix-blend-mode:multiply" opacity="0.32" d="M204.761 -52.3564C205.372 -52.6504 206.119 -52.8334 206.548 -52.0233C206.836 -51.2567 206.938 -50.4329 206.846 -49.6193C206.708 -45.6087 206.279 -41.6133 205.564 -37.6647C205.849 -39.3712 206.997 -40.2542 207.993 -40.0558C208.99 -39.8574 209.864 -38.8533 210.693 -37.8675C212.193 -36.0832 213.834 -33.7962 213.888 -30.5871C213.943 -27.3196 212.31 -24.708 211.858 -21.5285C214.001 -21.4843 216.049 -20.6334 217.592 -19.1457C218.766 -18.1472 219.556 -16.7711 219.826 -15.2537C220.279 -12.6611 219.29 -10.009 218.354 -7.82945C217.009 -4.69405 215.497 -1.35679 213.347 -0.379707C206.614 2.67844 193.967 -6.62185 191.198 -18.395C187.677 -33.3672 197.359 -48.7943 204.761 -52.3564Z" fill="url(#paint2_linear_3_30648)"/>
<path style="mix-blend-mode:multiply" opacity="0.32" d="M204.052 -28.659C204.121 -29.8186 203.89 -30.9764 203.383 -32.0212C202.472 -33.6247 201.601 -32.8284 200.844 -32.0373C198.518 -29.5849 196.403 -26.9405 194.522 -24.1324L188.52 -32.7442C187.88 -33.8698 186.98 -34.8262 185.896 -35.5339C184.621 -36.135 183.263 -35.4961 182.015 -34.6968C179.376 -32.9464 177.06 -30.7516 175.171 -28.2101C174.29 -27.1411 173.627 -25.9094 173.22 -24.5848C172.173 -20.8872 173.492 -16.5019 175.067 -13.4954C178.001 -7.89042 181.99 -4.04096 186.258 -2.69451C185.85 -1.85479 185.441 -1.01506 185.033 -0.175323C183.366 3.25396 183.755 8.50059 185.893 10.9025C190.653 16.2516 197.771 20.3865 201.778 15.0299C206.122 9.22168 203.877 -21.4016 204.052 -28.659Z" fill="url(#paint3_linear_3_30648)"/>
<path style="mix-blend-mode:multiply" opacity="0.32" d="M210.729 -19.2164C211 -18.58 211.067 -17.8756 210.923 -17.1994C210.86 -17.0176 210.757 -16.8529 210.619 -16.7184C210.482 -16.5839 210.315 -16.4833 210.132 -16.4247C208.739 -15.8338 207.235 -15.5512 205.723 -15.5963C206.37 -15.6027 206.879 -14.5116 206.982 -13.3844C207.036 -12.2556 206.936 -11.1246 206.684 -10.0228C206.32 -8.0485 205.804 -5.82565 204.689 -5.16773C203.554 -4.49784 202.356 -5.79755 201.164 -5.69799C201.517 -3.47587 201.571 -1.21658 201.325 1.01987C201.285 2.14421 200.949 3.23804 200.349 4.19009C199.52 5.16959 198.419 4.58225 197.494 3.96582C195.874 3.07305 194.637 1.61907 194.015 -0.122372C191.776 -6.91681 192.837 -22.4894 196.48 -27.7161C201.113 -34.363 208.197 -26.6498 210.729 -19.2164Z" fill="url(#paint4_linear_3_30648)"/>
<g opacity="0.32">
<path style="mix-blend-mode:multiply" opacity="0.32" d="M212.033 59.2691C214.781 58.5729 217.652 59.6567 219.982 62.2701C220.542 62.8656 220.965 63.5771 221.221 64.354C221.477 65.131 221.558 65.9546 221.461 66.7667C221.278 67.6944 220.786 68.5326 220.065 69.1439C218.66 70.5158 216.961 71.5491 215.097 72.165C215.977 71.9439 216.843 73.4572 216.728 75.0146C216.724 75.5394 216.589 76.0548 216.333 76.5132C216.078 76.9716 215.711 77.3582 215.267 77.6374C214.908 77.764 214.523 77.8016 214.147 77.747C213.77 77.6925 213.412 77.5473 213.104 77.3241C211.561 76.2836 210.194 75.0055 209.051 73.5372C207.328 71.5698 203.832 69.466 205.465 65.1186C206.031 63.7014 206.92 62.4353 208.06 61.4201C209.199 60.405 210.56 59.6687 212.033 59.2691Z" fill="url(#paint5_linear_3_30648)"/>
<path style="mix-blend-mode:multiply" opacity="0.32" d="M207.597 63.9994C210.469 64.684 213.487 64.403 216.183 63.1998C217.041 62.889 217.77 62.2984 218.252 61.5229C219.233 59.8722 219.27 57.0752 218.823 54.8363C218.699 54.2194 218.495 53.5472 218.132 53.4196C217.91 53.3417 217.683 53.4921 217.472 53.6398L215.567 54.9691C216.275 52.0021 216.747 48.9835 216.977 45.9418C217.143 43.7846 217.167 41.4171 216.459 39.6522C215.53 37.3361 213.564 36.8973 212.089 38.0873C210.615 39.2773 209.579 41.7273 208.864 44.2987C207.576 49.1087 207.152 54.109 207.611 59.0671" fill="url(#paint6_linear_3_30648)"/>
<path style="mix-blend-mode:multiply" opacity="0.32" d="M215.32 71.6397C215.386 72.1136 215.296 72.596 215.064 73.0145C214.879 73.217 214.641 73.1365 214.431 73.0397C213.359 72.5288 212.384 71.8366 211.548 70.9935C211.755 71.3004 211.895 71.6477 211.958 72.0125C212.022 72.3773 212.007 72.7513 211.916 73.1101C211.761 73.7961 211.487 74.4495 211.105 75.0405C210.512 76.0641 209.779 77.155 208.967 76.9185C208.14 76.6777 207.64 75.1674 206.884 74.5365C206.719 76.0189 206.331 77.4678 205.733 78.834C205.424 79.5135 205.027 80.1591 204.539 80.2507C203.843 80.3813 203.271 79.3736 202.813 78.4495C202.009 77.0472 201.533 75.4807 201.422 73.868C201.301 68.3135 204.857 59.1858 208.085 58.0335C212.189 56.5681 215.137 65.5149 215.32 71.6397Z" fill="url(#paint7_linear_3_30648)"/>
<path style="mix-blend-mode:multiply" opacity="0.32" d="M209.114 68.9064C209.696 69.0986 210.489 69.0837 210.667 68.08C210.717 67.6508 210.691 67.2162 210.588 66.7964C210.227 64.889 209.767 63.0017 209.208 61.1426L211.952 57.1759C212.371 56.6281 212.694 56.0129 212.906 55.3568C213.14 54.3334 213.195 53.2774 213.069 52.2353C212.919 50.2306 212.594 48.2429 212.097 46.295C211.965 45.6418 211.72 45.0166 211.373 44.4475C210.544 43.3032 209.314 43.959 208.406 44.9345C206.498 47.1899 205.193 49.8918 204.612 52.7881C204.044 51.4866 203.476 50.1852 202.908 48.8839C200.814 51.0557 197.39 58.6639 198.661 63.4401C199.651 67.1617 206.847 68.1581 209.114 68.9064Z" fill="url(#paint8_linear_3_30648)"/>
</g>
<path style="mix-blend-mode:multiply" opacity="0.32" d="M174.687 -1.29098C173.686 -2.74577 172.111 -3.98251 171.203 -2.31418C170.83 -1.43607 170.638 -0.491591 170.639 0.462499C170.372 4.7893 170.705 9.13233 171.632 13.3673C170.521 9.81966 168.438 6.6254 166.165 7.33219C163.971 8.01429 162.535 12.3635 162.799 16.2608C162.972 19.6505 164.309 22.8769 166.585 25.3953C168.375 27.0865 170.521 28.356 172.865 29.111C171.588 29.188 170.706 32.2005 171.414 34.0659C173.03 34.4781 174.728 34.4421 176.325 33.9618C177.922 33.4815 179.358 32.575 180.478 31.3397C183.503 27.6034 182.604 29.0621 182.344 23.0533C181.945 13.8601 178.615 4.41767 174.687 -1.29098Z" fill="url(#paint9_linear_3_30648)"/>
<path style="mix-blend-mode:multiply" opacity="0.32" d="M178.874 22.4552C179.279 22.7354 179.62 23.0978 179.875 23.5189C180.129 23.9399 180.292 24.41 180.353 24.8984C180.535 26.0976 180.04 27.6191 179.336 27.576C179.835 27.9036 180.387 27.5357 180.92 27.4731C181.093 27.48 181.262 27.5242 181.417 27.6026C181.571 27.6809 181.707 27.7916 181.815 27.9272C181.923 28.0628 182 28.22 182.041 28.3882C182.083 28.5563 182.088 28.7315 182.056 28.9017C182.023 29.22 181.935 29.5302 181.796 29.8185C179.26 35.7551 175.424 39.9178 171.294 41.2137C170.726 41.4398 170.117 41.5483 169.506 41.5329C168.894 41.5175 168.292 41.3784 167.735 41.124C167.036 40.6791 166.444 40.0855 166.001 39.3858C165.558 38.686 165.275 37.8971 165.171 37.0753L168.455 35.4099C168.536 35.3779 168.608 35.3279 168.667 35.2637C168.725 35.1996 168.768 35.1229 168.793 35.0396C168.824 34.8482 168.803 34.6518 168.731 34.4719C168.658 34.2919 168.538 34.1353 168.383 34.0189C165.503 31.4881 164.291 24.3895 165.886 19.396C166.015 18.8763 166.259 18.3921 166.6 17.9789C168.158 16.456 171.082 18.5678 172.594 19.6342C174.658 21.0897 176.844 21.1253 178.874 22.4552Z" fill="url(#paint10_linear_3_30648)"/>
<path style="mix-blend-mode:multiply" opacity="0.32" d="M176.084 10.5541C176 10.5494 175.916 10.5672 175.84 10.6059C175.765 10.6445 175.702 10.7024 175.656 10.7738C175.538 11.0269 175.478 11.3038 175.482 11.5834C175.318 14.008 175.719 16.4376 176.654 18.6809C176.09 19.8009 174.911 18.6255 174.25 19.5636C174.023 19.9606 173.887 20.4034 173.853 20.8596C173.643 22.3939 173.852 23.9565 174.458 25.3818C175.087 26.6204 176.125 27.604 177.395 28.1666L180.931 30.1089C181.171 30.2408 181.438 30.3704 181.668 30.183C181.833 30.009 181.955 29.7989 182.025 29.5693C183.283 26.3364 183.072 22.083 183.479 18.238C183.705 16.6931 183.854 15.1377 183.924 13.5778C183.933 12.0022 183.616 10.3086 182.861 9.48359C182.795 9.3946 182.7 9.33057 182.593 9.30186C182.389 9.2764 182.215 9.54849 182.068 9.80195L180.75 12.0711C180.665 12.2177 180.562 12.3757 180.445 12.3485C180.308 12.3164 180.236 12.0556 180.17 11.8405C179.823 10.7012 178.995 10.1045 178.289 10.4856C177.924 10.6829 178.102 12.2301 178.205 12.5983C178.133 12.0687 177.884 11.5788 177.499 11.2078C177.115 10.8369 176.616 10.6065 176.084 10.5541Z" fill="url(#paint11_linear_3_30648)"/>
<path style="mix-blend-mode:multiply" opacity="0.32" d="M179.755 54.8941C179.755 54.8941 186.269 38.0323 194.246 33.6819C202.224 29.3316 207.642 30.5653 207.642 30.5653C207.642 30.5653 192.174 60.1794 185.845 60.7018C179.515 61.2242 179.755 54.8941 179.755 54.8941Z" fill="url(#paint12_linear_3_30648)"/>
<path style="mix-blend-mode:multiply" opacity="0.32" d="M179.436 61.2658C179.436 61.2658 179.364 45.0207 185.839 30.9656C192.314 16.9104 198.397 8.86548 198.397 8.86548C198.397 8.86548 194.368 43.7069 188.052 53.8089C181.736 63.9109 179.436 61.2658 179.436 61.2658Z" fill="url(#paint13_linear_3_30648)"/>
<path style="mix-blend-mode:multiply" opacity="0.32" d="M202.791 20.3476C202.791 20.3476 208.709 18.2902 212.545 21.8759C214.855 24.038 216.742 26.6119 218.109 29.4656C218.109 29.4656 206.24 30.4454 203.809 26.5033C201.378 22.5612 202.791 20.3476 202.791 20.3476Z" fill="url(#paint14_linear_3_30648)"/>
<path style="mix-blend-mode:multiply" opacity="0.32" d="M202.263 21.5248C202.263 21.5248 207.589 11.8474 215.98 10.2193C220.782 9.22231 225.734 9.18595 230.55 10.1124C230.55 10.1124 216.708 26.5528 209.715 26.0074C202.721 25.4619 202.263 21.5248 202.263 21.5248Z" fill="url(#paint15_linear_3_30648)"/>
<path style="mix-blend-mode:multiply" opacity="0.32" d="M197.663 59.8238C197.663 59.8238 196.022 73.8623 191.493 80.523C186.965 87.1837 183.242 89.0011 183.242 89.0011C183.242 89.0011 188.751 62.4014 192.796 59.0095C196.842 55.6175 197.663 59.8238 197.663 59.8238Z" fill="url(#paint16_linear_3_30648)"/>
<path style="mix-blend-mode:multiply" opacity="0.32" d="M193.636 60.6879C193.636 60.6879 200.348 62.1954 202.243 70.4648C203.391 75.561 203.914 80.7781 203.8 86.0007C203.8 86.0007 191.908 78.3116 191.541 70.5963C191.174 62.8811 193.636 60.6879 193.636 60.6879Z" fill="url(#paint17_linear_3_30648)"/>
<path style="mix-blend-mode:multiply" opacity="0.32" d="M178.861 64.6198C178.861 64.6198 170.809 63.3167 166.644 56.1051C164.173 51.8702 162.312 47.3078 161.115 42.5528C161.115 42.5528 176.593 49.2399 178.873 55.9709C181.154 62.7018 178.861 64.6198 178.861 64.6198Z" fill="url(#paint18_linear_3_30648)"/>
<path style="mix-blend-mode:multiply" opacity="0.32" d="M177.476 61.6341C177.476 61.6341 171.821 67.3076 164.763 65.0798C160.489 63.7233 156.471 61.6621 152.876 58.9813C152.876 58.9813 166.389 51.3787 172.014 54.7952C177.638 58.2117 177.476 61.6341 177.476 61.6341Z" fill="url(#paint19_linear_3_30648)"/>
</g>
<defs>
<linearGradient id="paint0_linear_3_30648" x1="52.5413" y1="-243.271" x2="56.3824" y2="-40.6574" gradientUnits="userSpaceOnUse">
<stop stop-color="#EAEAEA"/>
<stop offset="0.1035" stop-color="#EAEAEA" stop-opacity="0.97674"/>
<stop offset="0.23401" stop-color="#ECECEC" stop-opacity="0.91003"/>
<stop offset="0.37905" stop-color="#EEEEEE" stop-opacity="0.79982"/>
<stop offset="0.53456" stop-color="#F1F1F1" stop-opacity="0.64602"/>
<stop offset="0.69851" stop-color="#F6F6F6" stop-opacity="0.44841"/>
<stop offset="0.86685" stop-color="#FBFBFB" stop-opacity="0.21096"/>
<stop offset="1" stop-color="white" stop-opacity="0"/>
</linearGradient>
<linearGradient id="paint1_linear_3_30648" x1="135.831" y1="82.4387" x2="63.4115" y2="169.719" gradientUnits="userSpaceOnUse">
<stop stop-color="#F8D5C8"/>
<stop offset="0.0964" stop-color="#F8D6C9" stop-opacity="0.98005"/>
<stop offset="0.2104" stop-color="#F8D8CC" stop-opacity="0.92205"/>
<stop offset="0.33331" stop-color="#F8DBD0" stop-opacity="0.82594"/>
<stop offset="0.46259" stop-color="#F7DFD6" stop-opacity="0.69152"/>
<stop offset="0.59682" stop-color="#F7E5DE" stop-opacity="0.51869"/>
<stop offset="0.7352" stop-color="#F7ECE8" stop-opacity="0.3073"/>
<stop offset="0.87441" stop-color="#F6F4F3" stop-opacity="0.06236"/>
<stop offset="0.90726" stop-color="#F6F6F6" stop-opacity="0"/>
</linearGradient>
<linearGradient id="paint2_linear_3_30648" x1="194.068" y1="-40.0945" x2="226.307" y2="-26.041" gradientUnits="userSpaceOnUse">
<stop stop-color="#EAEAEA" stop-opacity="0"/>
<stop offset="0.08667" stop-color="#E0E0E0" stop-opacity="0.17789"/>
<stop offset="0.22597" stop-color="#D1D1D1" stop-opacity="0.42721"/>
<stop offset="0.36713" stop-color="#C5C5C5" stop-opacity="0.63392"/>
<stop offset="0.5082" stop-color="#BBBBBB" stop-opacity="0.79434"/>
<stop offset="0.64929" stop-color="#B4B4B4" stop-opacity="0.90874"/>
<stop offset="0.79044" stop-color="#B0B0B0" stop-opacity="0.97723"/>
<stop offset="0.93199" stop-color="#AFAFAF"/>
</linearGradient>
<linearGradient id="paint3_linear_3_30648" x1="177.279" y1="-34.0672" x2="215.982" y2="-17.1953" gradientUnits="userSpaceOnUse">
<stop stop-color="#EAEAEA" stop-opacity="0"/>
<stop offset="0.08667" stop-color="#E0E0E0" stop-opacity="0.17789"/>
<stop offset="0.22597" stop-color="#D1D1D1" stop-opacity="0.42721"/>
<stop offset="0.36713" stop-color="#C5C5C5" stop-opacity="0.63392"/>
<stop offset="0.5082" stop-color="#BBBBBB" stop-opacity="0.79434"/>
<stop offset="0.64929" stop-color="#B4B4B4" stop-opacity="0.90874"/>
<stop offset="0.79044" stop-color="#B0B0B0" stop-opacity="0.97723"/>
<stop offset="0.93199" stop-color="#AFAFAF"/>
</linearGradient>
<linearGradient id="paint4_linear_3_30648" x1="204.59" y1="-28.6163" x2="187.17" y2="-3.05597" gradientUnits="userSpaceOnUse">
<stop stop-color="#EAEAEA" stop-opacity="0"/>
<stop offset="0.08667" stop-color="#E0E0E0" stop-opacity="0.17789"/>
<stop offset="0.22597" stop-color="#D1D1D1" stop-opacity="0.42721"/>
<stop offset="0.36713" stop-color="#C5C5C5" stop-opacity="0.63392"/>
<stop offset="0.5082" stop-color="#BBBBBB" stop-opacity="0.79434"/>
<stop offset="0.64929" stop-color="#B4B4B4" stop-opacity="0.90874"/>
<stop offset="0.79044" stop-color="#B0B0B0" stop-opacity="0.97723"/>
<stop offset="0.93199" stop-color="#AFAFAF"/>
</linearGradient>
<linearGradient id="paint5_linear_3_30648" x1="215.013" y1="58.532" x2="205.853" y2="72.5974" gradientUnits="userSpaceOnUse">
<stop stop-color="#EAEAEA" stop-opacity="0"/>
<stop offset="0.08667" stop-color="#E0E0E0" stop-opacity="0.17789"/>
<stop offset="0.22597" stop-color="#D1D1D1" stop-opacity="0.42721"/>
<stop offset="0.36713" stop-color="#C5C5C5" stop-opacity="0.63392"/>
<stop offset="0.5082" stop-color="#BBBBBB" stop-opacity="0.79434"/>
<stop offset="0.64929" stop-color="#B4B4B4" stop-opacity="0.90874"/>
<stop offset="0.79044" stop-color="#B0B0B0" stop-opacity="0.97723"/>
<stop offset="0.93199" stop-color="#AFAFAF"/>
</linearGradient>
<linearGradient id="paint6_linear_3_30648" x1="218.723" y1="44.1631" x2="201.956" y2="52.345" gradientUnits="userSpaceOnUse">
<stop stop-color="#EAEAEA" stop-opacity="0"/>
<stop offset="0.08667" stop-color="#E0E0E0" stop-opacity="0.17789"/>
<stop offset="0.22597" stop-color="#D1D1D1" stop-opacity="0.42721"/>
<stop offset="0.36713" stop-color="#C5C5C5" stop-opacity="0.63392"/>
<stop offset="0.5082" stop-color="#BBBBBB" stop-opacity="0.79434"/>
<stop offset="0.64929" stop-color="#B4B4B4" stop-opacity="0.90874"/>
<stop offset="0.79044" stop-color="#B0B0B0" stop-opacity="0.97723"/>
<stop offset="0.93199" stop-color="#AFAFAF"/>
</linearGradient>
<linearGradient id="paint7_linear_3_30648" x1="213.302" y1="62.1425" x2="198.44" y2="69.3951" gradientUnits="userSpaceOnUse">
<stop stop-color="#EAEAEA" stop-opacity="0"/>
<stop offset="0.08667" stop-color="#E0E0E0" stop-opacity="0.17789"/>
<stop offset="0.22597" stop-color="#D1D1D1" stop-opacity="0.42721"/>
<stop offset="0.36713" stop-color="#C5C5C5" stop-opacity="0.63392"/>
<stop offset="0.5082" stop-color="#BBBBBB" stop-opacity="0.79434"/>
<stop offset="0.64929" stop-color="#B4B4B4" stop-opacity="0.90874"/>
<stop offset="0.79044" stop-color="#B0B0B0" stop-opacity="0.97723"/>
<stop offset="0.93199" stop-color="#AFAFAF"/>
</linearGradient>
<linearGradient id="paint8_linear_3_30648" x1="213.391" y1="48.4039" x2="195.549" y2="57.111" gradientUnits="userSpaceOnUse">
<stop stop-color="#EAEAEA" stop-opacity="0"/>
<stop offset="0.08667" stop-color="#E0E0E0" stop-opacity="0.17789"/>
<stop offset="0.22597" stop-color="#D1D1D1" stop-opacity="0.42721"/>
<stop offset="0.36713" stop-color="#C5C5C5" stop-opacity="0.63392"/>
<stop offset="0.5082" stop-color="#BBBBBB" stop-opacity="0.79434"/>
<stop offset="0.64929" stop-color="#B4B4B4" stop-opacity="0.90874"/>
<stop offset="0.79044" stop-color="#B0B0B0" stop-opacity="0.97723"/>
<stop offset="0.93199" stop-color="#AFAFAF"/>
</linearGradient>
<linearGradient id="paint9_linear_3_30648" x1="172.218" y1="-3.11338" x2="175.369" y2="34.2383" gradientUnits="userSpaceOnUse">
<stop stop-color="#EAEAEA" stop-opacity="0"/>
<stop offset="0.08667" stop-color="#E0E0E0" stop-opacity="0.17789"/>
<stop offset="0.22597" stop-color="#D1D1D1" stop-opacity="0.42721"/>
<stop offset="0.36713" stop-color="#C5C5C5" stop-opacity="0.63392"/>
<stop offset="0.5082" stop-color="#BBBBBB" stop-opacity="0.79434"/>
<stop offset="0.64929" stop-color="#B4B4B4" stop-opacity="0.90874"/>
<stop offset="0.79044" stop-color="#B0B0B0" stop-opacity="0.97723"/>
<stop offset="0.93199" stop-color="#AFAFAF"/>
</linearGradient>
<linearGradient id="paint10_linear_3_30648" x1="173.296" y1="16.9841" x2="175.326" y2="41.0504" gradientUnits="userSpaceOnUse">
<stop stop-color="#EAEAEA" stop-opacity="0"/>
<stop offset="0.08667" stop-color="#E0E0E0" stop-opacity="0.17789"/>
<stop offset="0.22597" stop-color="#D1D1D1" stop-opacity="0.42721"/>
<stop offset="0.36713" stop-color="#C5C5C5" stop-opacity="0.63392"/>
<stop offset="0.5082" stop-color="#BBBBBB" stop-opacity="0.79434"/>
<stop offset="0.64929" stop-color="#B4B4B4" stop-opacity="0.90874"/>
<stop offset="0.79044" stop-color="#B0B0B0" stop-opacity="0.97723"/>
<stop offset="0.93199" stop-color="#AFAFAF"/>
</linearGradient>
<linearGradient id="paint11_linear_3_30648" x1="178.697" y1="9.62215" x2="180.446" y2="30.3559" gradientUnits="userSpaceOnUse">
<stop stop-color="#EAEAEA" stop-opacity="0"/>
<stop offset="0.08667" stop-color="#E0E0E0" stop-opacity="0.17789"/>
<stop offset="0.22597" stop-color="#D1D1D1" stop-opacity="0.42721"/>
<stop offset="0.36713" stop-color="#C5C5C5" stop-opacity="0.63392"/>
<stop offset="0.5082" stop-color="#BBBBBB" stop-opacity="0.79434"/>
<stop offset="0.64929" stop-color="#B4B4B4" stop-opacity="0.90874"/>
<stop offset="0.79044" stop-color="#B0B0B0" stop-opacity="0.97723"/>
<stop offset="0.93199" stop-color="#AFAFAF"/>
</linearGradient>
<linearGradient id="paint12_linear_3_30648" x1="187.925" y1="36.0886" x2="202.479" y2="42.4332" gradientUnits="userSpaceOnUse">
<stop stop-color="#EAEAEA" stop-opacity="0"/>
<stop offset="0.08667" stop-color="#E0E0E0" stop-opacity="0.17789"/>
<stop offset="0.22597" stop-color="#D1D1D1" stop-opacity="0.42721"/>
<stop offset="0.36713" stop-color="#C5C5C5" stop-opacity="0.63392"/>
<stop offset="0.5082" stop-color="#BBBBBB" stop-opacity="0.79434"/>
<stop offset="0.64929" stop-color="#B4B4B4" stop-opacity="0.90874"/>
<stop offset="0.79044" stop-color="#B0B0B0" stop-opacity="0.97723"/>
<stop offset="0.93199" stop-color="#AFAFAF"/>
</linearGradient>
<linearGradient id="paint13_linear_3_30648" x1="177.584" y1="38.4673" x2="200.649" y2="36.5939" gradientUnits="userSpaceOnUse">
<stop stop-color="#EAEAEA" stop-opacity="0"/>
<stop offset="0.08667" stop-color="#E0E0E0" stop-opacity="0.17789"/>
<stop offset="0.22597" stop-color="#D1D1D1" stop-opacity="0.42721"/>
<stop offset="0.36713" stop-color="#C5C5C5" stop-opacity="0.63392"/>
<stop offset="0.5082" stop-color="#BBBBBB" stop-opacity="0.79434"/>
<stop offset="0.64929" stop-color="#B4B4B4" stop-opacity="0.90874"/>
<stop offset="0.79044" stop-color="#B0B0B0" stop-opacity="0.97723"/>
<stop offset="0.93199" stop-color="#AFAFAF"/>
</linearGradient>
<linearGradient id="paint14_linear_3_30648" x1="209.736" y1="18.6395" x2="212.683" y2="30.7877" gradientUnits="userSpaceOnUse">
<stop stop-color="#EAEAEA" stop-opacity="0"/>
<stop offset="0.08667" stop-color="#E0E0E0" stop-opacity="0.17789"/>
<stop offset="0.22597" stop-color="#D1D1D1" stop-opacity="0.42721"/>
<stop offset="0.36713" stop-color="#C5C5C5" stop-opacity="0.63392"/>
<stop offset="0.5082" stop-color="#BBBBBB" stop-opacity="0.79434"/>
<stop offset="0.64929" stop-color="#B4B4B4" stop-opacity="0.90874"/>
<stop offset="0.79044" stop-color="#B0B0B0" stop-opacity="0.97723"/>
<stop offset="0.93199" stop-color="#AFAFAF"/>
</linearGradient>
<linearGradient id="paint15_linear_3_30648" x1="208.716" y1="6.12408" x2="228.692" y2="14.5091" gradientUnits="userSpaceOnUse">
<stop stop-color="#EAEAEA" stop-opacity="0"/>
<stop offset="0.08667" stop-color="#E0E0E0" stop-opacity="0.17789"/>
<stop offset="0.22597" stop-color="#D1D1D1" stop-opacity="0.42721"/>
<stop offset="0.36713" stop-color="#C5C5C5" stop-opacity="0.63392"/>
<stop offset="0.5082" stop-color="#BBBBBB" stop-opacity="0.79434"/>
<stop offset="0.64929" stop-color="#B4B4B4" stop-opacity="0.90874"/>
<stop offset="0.79044" stop-color="#B0B0B0" stop-opacity="0.97723"/>
<stop offset="0.93199" stop-color="#AFAFAF"/>
</linearGradient>
<linearGradient id="paint16_linear_3_30648" x1="195.228" y1="75.9242" x2="185.428" y2="74.44" gradientUnits="userSpaceOnUse">
<stop stop-color="#EAEAEA" stop-opacity="0"/>
<stop offset="0.08667" stop-color="#E0E0E0" stop-opacity="0.17789"/>
<stop offset="0.22597" stop-color="#D1D1D1" stop-opacity="0.42721"/>
<stop offset="0.36713" stop-color="#C5C5C5" stop-opacity="0.63392"/>
<stop offset="0.5082" stop-color="#BBBBBB" stop-opacity="0.79434"/>
<stop offset="0.64929" stop-color="#B4B4B4" stop-opacity="0.90874"/>
<stop offset="0.79044" stop-color="#B0B0B0" stop-opacity="0.97723"/>
<stop offset="0.93199" stop-color="#AFAFAF"/>
</linearGradient>
<linearGradient id="paint17_linear_3_30648" x1="204.133" y1="60.9594" x2="203.537" y2="86.0165" gradientUnits="userSpaceOnUse">
<stop stop-color="#EAEAEA" stop-opacity="0"/>
<stop offset="0.08667" stop-color="#E0E0E0" stop-opacity="0.17789"/>
<stop offset="0.22597" stop-color="#D1D1D1" stop-opacity="0.42721"/>
<stop offset="0.36713" stop-color="#C5C5C5" stop-opacity="0.63392"/>
<stop offset="0.5082" stop-color="#BBBBBB" stop-opacity="0.79434"/>
<stop offset="0.64929" stop-color="#B4B4B4" stop-opacity="0.90874"/>
<stop offset="0.79044" stop-color="#B0B0B0" stop-opacity="0.97723"/>
<stop offset="0.93199" stop-color="#AFAFAF"/>
</linearGradient>
<linearGradient id="paint18_linear_3_30648" x1="169.555" y1="62.1568" x2="173.876" y2="45.9243" gradientUnits="userSpaceOnUse">
<stop stop-color="#EAEAEA" stop-opacity="0"/>
<stop offset="0.08667" stop-color="#E0E0E0" stop-opacity="0.17789"/>
<stop offset="0.22597" stop-color="#D1D1D1" stop-opacity="0.42721"/>
<stop offset="0.36713" stop-color="#C5C5C5" stop-opacity="0.63392"/>
<stop offset="0.5082" stop-color="#BBBBBB" stop-opacity="0.79434"/>
<stop offset="0.64929" stop-color="#B4B4B4" stop-opacity="0.90874"/>
<stop offset="0.79044" stop-color="#B0B0B0" stop-opacity="0.97723"/>
<stop offset="0.93199" stop-color="#AFAFAF"/>
</linearGradient>
<linearGradient id="paint19_linear_3_30648" x1="170.094" y1="71.5162" x2="153.001" y2="58.7848" gradientUnits="userSpaceOnUse">
<stop stop-color="#EAEAEA" stop-opacity="0"/>
<stop offset="0.08667" stop-color="#E0E0E0" stop-opacity="0.17789"/>
<stop offset="0.22597" stop-color="#D1D1D1" stop-opacity="0.42721"/>
<stop offset="0.36713" stop-color="#C5C5C5" stop-opacity="0.63392"/>
<stop offset="0.5082" stop-color="#BBBBBB" stop-opacity="0.79434"/>
<stop offset="0.64929" stop-color="#B4B4B4" stop-opacity="0.90874"/>
<stop offset="0.79044" stop-color="#B0B0B0" stop-opacity="0.97723"/>
<stop offset="0.93199" stop-color="#AFAFAF"/>
</linearGradient>
</defs>
</svg>
