<svg width="323" height="380" viewBox="0 0 323 380" fill="none" xmlns="http://www.w3.org/2000/svg">
<path d="M322.719 -31.0001H26.8672V379.905H322.719V-31.0001Z" fill="#F6F6F6"/>
<path d="M138.989 324.445C138.989 324.445 135.498 326.089 138.582 329.033C140.813 331.163 144.392 332.952 155.507 328.198C155.883 328.037 161.8 326.251 162.104 325.946C166.864 321.168 166.864 323.174 166.864 323.174V319.441L138.989 324.445Z" fill="#DDDEDF" stroke="#575D68" stroke-width="0.5" stroke-miterlimit="10"/>
<path d="M138.989 323.568C138.989 323.568 135.498 325.212 138.582 328.156C140.813 330.286 144.392 332.075 155.507 327.321C155.883 327.16 161.8 325.374 162.104 325.069C166.864 320.291 166.864 322.297 166.864 322.297V318.564L138.989 323.568Z" fill="#DDDEDF" stroke="#575D68" stroke-width="0.5" stroke-miterlimit="10"/>
<path d="M170.144 313.186L158.277 313.948C157.96 313.968 157.642 313.915 157.349 313.793C157.055 313.671 156.794 313.483 156.584 313.244C156.375 313.005 156.223 312.721 156.141 312.414C156.059 312.107 156.049 311.785 156.111 311.473L156.741 308.311C155.643 309.242 154.421 310.014 153.108 310.604C150.889 311.48 146.397 310.836 143.473 310.266L141.204 310.608C141.963 313.591 141.804 314.955 141.296 316.266L138.989 324.433C138.751 325.171 138.814 325.973 139.165 326.665C139.516 327.356 140.126 327.881 140.863 328.124C145.998 329.82 150.967 328.132 155.907 325.933L167.672 322.379C168.505 322.008 169.245 321.456 169.838 320.762C170.431 320.069 170.861 319.252 171.098 318.371C171.335 317.49 171.372 316.568 171.207 315.671C171.042 314.774 170.679 313.925 170.144 313.186Z" fill="#F6F6F6" stroke="#575D68" stroke-width="0.5" stroke-miterlimit="10"/>
<path d="M157.426 313.612C158.424 314.077 159.392 314.604 160.325 315.189C164.004 317.629 162.105 325.946 162.105 325.946C162.105 325.946 172.288 320.351 173.419 318.227C173.69 317.664 173.787 317.032 173.698 316.413C173.626 315.864 173.446 315.335 173.17 314.855C172.893 314.376 172.524 313.956 172.085 313.619C171.646 313.282 171.144 313.035 170.61 312.892C170.075 312.748 169.517 312.712 168.968 312.785L157.426 313.612Z" fill="#DDDEDF" stroke="#575D68" stroke-width="0.5" stroke-miterlimit="10"/>
<path d="M162.822 314.753C164.547 314.753 165.946 313.354 165.946 311.63C165.946 309.905 164.547 308.506 162.822 308.506C161.098 308.506 159.699 309.905 159.699 311.63C159.699 313.354 161.098 314.753 162.822 314.753Z" fill="#DDDEDF" stroke="#575D68" stroke-width="0.5" stroke-miterlimit="10"/>
<path d="M131.024 255.347L147.279 245.014L161.779 246.319L165.239 259.174L156.675 308.392C156.675 308.392 155.418 311.349 149.412 312.106C143.174 312.891 141.205 310.608 141.205 310.608L139.915 278.836L121.109 280.906L131.024 255.347Z" fill="#DDDEDF" stroke="#575D68" stroke-width="0.5" stroke-miterlimit="10"/>
<path d="M163.305 337.753C163.305 337.753 159.421 339.582 162.852 342.857C165.334 345.227 169.315 347.217 181.682 341.928C182.101 341.749 188.684 339.762 189.022 339.422C194.317 334.107 194.317 336.338 194.317 336.338V332.185L163.305 337.753Z" fill="#DDDEDF" stroke="#575D68" stroke-width="0.5" stroke-miterlimit="10"/>
<path d="M163.305 336.777C163.305 336.777 159.421 338.606 162.852 341.881C165.334 344.251 169.315 346.242 181.682 340.953C182.101 340.773 188.684 338.786 189.022 338.446C194.317 333.131 194.317 335.363 194.317 335.363V331.209L163.305 336.777Z" fill="#DDDEDF" stroke="#575D68" stroke-width="0.5" stroke-miterlimit="10"/>
<path d="M197.967 325.226L181.767 326.266L183.055 319.802C181.834 320.838 180.474 321.697 179.014 322.354C176.544 323.328 171.547 322.611 168.294 321.977L168.234 323.015C168.144 324.577 167.81 326.116 167.244 327.574L163.305 337.739C163.04 338.56 163.11 339.453 163.501 340.222C163.891 340.992 164.57 341.576 165.39 341.846C171.103 343.733 176.631 341.855 182.128 339.408L195.217 335.454C196.144 335.041 196.967 334.427 197.627 333.655C198.286 332.884 198.765 331.975 199.029 330.995C199.292 330.015 199.334 328.989 199.15 327.991C198.966 326.993 198.562 326.048 197.967 325.226Z" fill="#F6F6F6" stroke="#575D68" stroke-width="0.5" stroke-miterlimit="10"/>
<path d="M182.999 326.2C184.407 326.39 185.773 326.813 187.041 327.455C191.134 330.17 189.021 339.422 189.021 339.422C189.021 339.422 200.351 333.198 201.609 330.835C201.911 330.208 202.019 329.505 201.92 328.816C201.839 328.205 201.64 327.617 201.332 327.083C201.024 326.55 200.614 326.082 200.125 325.707C199.636 325.332 199.079 325.058 198.484 324.898C197.889 324.739 197.268 324.699 196.658 324.779L182.999 326.2Z" fill="#DDDEDF" stroke="#575D68" stroke-width="0.5" stroke-miterlimit="10"/>
<path d="M168.293 321.99C169.96 322.779 171.771 323.219 173.614 323.284C175.457 323.349 177.294 323.037 179.013 322.367C180.461 321.688 181.818 320.831 183.054 319.816L192.289 273.48C192.43 272.774 192.488 272.054 192.463 271.335L192.357 268.374C192.285 266.335 191.546 264.375 190.255 262.795C188.963 261.215 187.19 260.101 185.205 259.624L174.128 256.963L143.721 249.955L121.109 291.615L170.997 275.199L168.293 321.99Z" fill="#DDDEDF" stroke="#575D68" stroke-width="0.5" stroke-miterlimit="10"/>
<path style="mix-blend-mode:multiply" d="M168.293 321.99C169.96 322.779 171.771 323.219 173.614 323.284C175.457 323.349 177.294 323.037 179.013 322.367C180.461 321.688 181.818 320.831 183.054 319.816L192.289 273.48C192.43 272.774 192.488 272.054 192.463 271.335L192.357 268.374C192.285 266.335 191.546 264.375 190.255 262.795C188.963 261.215 187.19 260.101 185.205 259.624L174.128 256.963L143.721 249.955L121.109 291.615L170.997 275.199L168.293 321.99Z" fill="url(#paint0_linear_3_31248)"/>
<path d="M136.805 344.353C136.217 345.935 132.504 348.668 132.504 348.668C131.157 348.207 129.864 347.604 128.644 346.87C127.211 345.935 126.586 343.526 127.652 340.758C128.718 337.989 130.887 336.191 132.504 336.767C133.77 337.454 134.98 338.239 136.122 339.116C136.122 339.116 137.246 343.239 136.805 344.353Z" fill="#F6F6F6" stroke="#575D68" stroke-width="0.5" stroke-miterlimit="10"/>
<path d="M136.136 339.031C136.534 339.225 136.874 339.519 137.122 339.885C137.37 340.251 137.519 340.676 137.552 341.117C137.707 342.378 137.556 343.657 137.112 344.847C136.668 346.037 135.943 347.102 135 347.953C134.712 348.3 134.322 348.549 133.885 348.665C133.449 348.781 132.987 348.759 132.564 348.601C132.141 348.443 131.777 348.158 131.524 347.784C131.27 347.41 131.139 346.967 131.148 346.515C130.993 345.255 131.144 343.975 131.588 342.785C132.032 341.595 132.757 340.53 133.7 339.679C134.014 339.368 134.404 339.144 134.831 339.03C135.259 338.917 135.709 338.917 136.136 339.031Z" fill="#F6F6F6" stroke="#575D68" stroke-width="0.5" stroke-miterlimit="10"/>
<path d="M132.051 324.507C131.496 326.017 127.677 328.625 127.677 328.625C126.516 328.156 125.401 327.582 124.344 326.909C122.99 326.017 122.4 323.717 123.407 321.075C124.414 318.432 126.462 316.716 127.989 317.265C129.276 317.908 130.527 318.618 131.739 319.393C131.739 319.393 132.468 323.443 132.051 324.507Z" fill="#F6F6F6" stroke="#575D68" stroke-width="0.5" stroke-miterlimit="10"/>
<path d="M131.495 319.241C131.877 319.434 132.201 319.724 132.433 320.083C132.665 320.442 132.798 320.857 132.818 321.284C132.947 322.541 132.784 323.81 132.342 324.994C131.901 326.178 131.192 327.244 130.27 328.108C130.005 328.457 129.635 328.712 129.214 328.834C128.792 328.956 128.343 328.939 127.933 328.785C127.522 328.632 127.171 328.351 126.933 327.983C126.695 327.615 126.582 327.18 126.61 326.742C126.481 325.485 126.643 324.216 127.085 323.032C127.527 321.848 128.236 320.782 129.157 319.918C129.452 319.608 129.824 319.382 130.235 319.263C130.645 319.144 131.081 319.136 131.495 319.241Z" fill="#F6F6F6" stroke="#575D68" stroke-width="0.5" stroke-miterlimit="10"/>
<path d="M98.6398 344.297C98.0842 345.807 94.2656 348.416 94.2656 348.416C93.1046 347.947 91.989 347.372 90.9326 346.7C89.5785 345.807 88.9885 343.508 89.9953 340.865C91.0022 338.222 93.0502 336.506 94.5778 337.056C95.8641 337.699 97.1156 338.409 98.3272 339.183C98.3272 339.183 99.0567 343.233 98.6398 344.297Z" fill="#F6F6F6" stroke="#575D68" stroke-width="0.5" stroke-miterlimit="10"/>
<path d="M98.0836 339.031C98.4653 339.224 98.7889 339.515 99.0213 339.874C99.2536 340.233 99.3864 340.647 99.406 341.074C99.5352 342.331 99.3726 343.601 98.9308 344.785C98.489 345.968 97.7799 347.034 96.8588 347.899C96.5936 348.248 96.223 348.502 95.8019 348.624C95.3808 348.746 94.9317 348.729 94.521 348.576C94.1102 348.423 93.7598 348.141 93.5216 347.773C93.2834 347.405 93.17 346.97 93.1984 346.533C93.0691 345.276 93.2317 344.006 93.6736 342.822C94.1154 341.639 94.8246 340.573 95.7458 339.708C96.0405 339.398 96.4123 339.172 96.8231 339.053C97.2339 338.934 97.6689 338.927 98.0836 339.031Z" fill="#F6F6F6" stroke="#575D68" stroke-width="0.5" stroke-miterlimit="10"/>
<path d="M99.9794 325.805C99.4239 327.315 95.6049 329.924 95.6049 329.924C94.4439 329.454 93.3283 328.88 92.2719 328.208C90.9181 327.315 89.8216 324.652 90.8284 322.009C91.8352 319.366 94.3898 318.014 95.9174 318.564C97.2036 319.207 98.4552 319.917 99.6669 320.691C99.6669 320.691 100.396 324.741 99.9794 325.805Z" fill="#F6F6F6" stroke="#575D68" stroke-width="0.5" stroke-miterlimit="10"/>
<path d="M99.4224 320.539C99.8041 320.732 100.128 321.023 100.36 321.382C100.592 321.741 100.725 322.155 100.745 322.582C100.874 323.839 100.711 325.109 100.27 326.293C99.8277 327.476 99.1185 328.542 98.1973 329.407C97.9321 329.756 97.5615 330.01 97.1404 330.132C96.7193 330.254 96.2701 330.237 95.8594 330.084C95.4487 329.931 95.0983 329.649 94.8601 329.281C94.622 328.913 94.5087 328.478 94.5372 328.04C94.408 326.784 94.5706 325.514 95.0124 324.33C95.4542 323.147 96.1632 322.081 97.0843 321.216C97.379 320.906 97.7509 320.68 98.1617 320.561C98.5726 320.442 99.0077 320.435 99.4224 320.539Z" fill="#F6F6F6" stroke="#575D68" stroke-width="0.5" stroke-miterlimit="10"/>
<path d="M112.582 314.954C96.949 314.954 84.2759 321.191 84.2759 328.884C84.2759 336.577 96.949 342.814 112.582 342.814C128.214 342.814 140.887 336.577 140.887 328.884C140.887 321.191 128.214 314.954 112.582 314.954ZM123.902 318.645L110.983 326.245L97.5529 319.679C102.391 318.111 107.452 317.338 112.538 317.389C116.361 317.375 120.174 317.796 123.902 318.645ZM87.4412 328.884C87.4412 326.053 89.6857 323.465 93.3911 321.462L107.304 328.409L93.6556 336.439C89.7971 334.418 87.4412 331.78 87.4412 328.884ZM112.538 340.378C107.879 340.415 103.239 339.777 98.7627 338.487L111.725 330.617L127.028 338.258C122.336 339.708 117.448 340.423 112.538 340.378ZM131.623 336.336L115.383 328.396L128.909 320.184C134.244 322.292 137.634 325.404 137.634 328.884C137.634 331.73 135.364 334.329 131.623 336.336H131.623Z" fill="#F6F6F6" stroke="#575D68" stroke-width="0.5" stroke-miterlimit="10"/>
<path d="M108.808 327.983L108.795 327.862H108.794V283.445C108.794 281.319 109.93 279.566 111.346 279.566H111.598C112.983 279.566 114.099 281.218 114.149 283.3H114.119V327.862H114.116L114.105 327.986C114.071 328.257 113.981 328.518 113.84 328.752C113.7 328.986 113.512 329.188 113.288 329.345C112.756 329.731 112.114 329.934 111.457 329.924C110.802 329.931 110.164 329.724 109.637 329.336C109.414 329.178 109.226 328.977 109.084 328.744C108.941 328.512 108.847 328.253 108.808 327.983Z" fill="#F6F6F6" stroke="#575D68" stroke-width="0.5" stroke-miterlimit="10"/>
<path d="M133.739 304.074L168.868 284.591C169.579 284.197 170.169 283.617 170.574 282.913C170.98 282.208 171.186 281.407 171.171 280.595C171.155 279.782 170.918 278.989 170.486 278.301C170.054 277.613 169.442 277.056 168.717 276.689L115.534 249.795L77.8672 272.638C77.0294 273.146 76.339 273.865 75.8643 274.722C75.3897 275.579 75.1473 276.545 75.1612 277.525C75.1751 278.505 75.4449 279.464 75.9437 280.307C76.4425 281.15 77.1531 281.849 78.0049 282.333L116.105 303.982C118.79 305.508 121.822 306.318 124.91 306.334C127.998 306.35 131.038 305.571 133.739 304.074Z" fill="#F6F6F6" stroke="#575D68" stroke-width="0.5" stroke-miterlimit="10"/>
<path d="M75.894 274.588C76.3948 275.465 77.1246 276.19 78.0054 276.684L116.106 298.334C118.79 299.86 121.822 300.669 124.91 300.685C127.998 300.701 131.039 299.923 133.739 298.425L163.395 281.979" fill="#F6F6F6"/>
<path d="M75.894 274.588C76.3948 275.465 77.1246 276.19 78.0054 276.684L116.106 298.334C118.79 299.86 121.822 300.669 124.91 300.685C127.998 300.701 131.039 299.923 133.739 298.425L163.395 281.979" stroke="#575D68" stroke-width="0.5" stroke-miterlimit="10"/>
<path d="M189.82 326.969C191.739 326.969 193.295 325.413 193.295 323.494C193.295 321.575 191.739 320.02 189.82 320.02C187.901 320.02 186.345 321.575 186.345 323.494C186.345 325.413 187.901 326.969 189.82 326.969Z" fill="#DDDEDF" stroke="#575D68" stroke-width="0.5" stroke-miterlimit="10"/>
<path d="M91.6968 -23.8446L99.4777 -27.5978L319.565 99.2945L319.707 333.572L304.439 342.466" fill="#F6F6F6"/>
<path d="M91.6968 -23.8446L99.4777 -27.5978L319.565 99.2945L319.707 333.572L304.439 342.466" stroke="#575D68" stroke-width="0.5" stroke-miterlimit="10"/>
<path d="M311.402 285.593L312.99 102.893L91.6224 -24.0665L91.0562 222.012L304.364 342.243L311.402 285.593Z" fill="#F6F6F6" stroke="#575D68" stroke-width="0.5" stroke-miterlimit="10"/>
<path d="M91.1299 107.698L1.46143 159.244L221.846 285.857L311.939 234.559L91.1299 107.698Z" fill="#F6F6F6" stroke="#575D68" stroke-width="0.5" stroke-miterlimit="10"/>
<path d="M144.447 77.8922V82.288L133.943 88.9636L96.2183 66.9588V61.9819L107.146 56.0246L144.447 77.8922Z" fill="#F6F6F6" stroke="#575D68" stroke-width="0.5" stroke-miterlimit="10"/>
<path d="M107.145 56.025L96.4779 61.8408C96.4518 61.855 96.4299 61.8759 96.4145 61.9013C96.3991 61.9267 96.3907 61.9557 96.3902 61.9854C96.3896 62.0151 96.397 62.0445 96.4114 62.0704C96.4259 62.0964 96.447 62.118 96.4725 62.1332L133.932 84.364L144.447 77.8919L107.145 56.025Z" fill="#F6F6F6" stroke="#575D68" stroke-width="0.5" stroke-miterlimit="10"/>
<path d="M307.299 141.933V146.33L296.191 153.388L220.504 109.655V104.679L231.432 98.7217L307.299 141.933Z" fill="#F6F6F6" stroke="#575D68" stroke-width="0.5" stroke-miterlimit="10"/>
<path d="M231.432 98.7217L220.504 104.679L296.784 148.405L307.299 141.933L231.432 98.7217Z" fill="#F6F6F6" stroke="#575D68" stroke-width="0.5" stroke-miterlimit="10"/>
<path d="M221.846 285.857V293.198L304.439 246.749V342.466L313.297 337.27L311.939 234.56L221.846 285.857Z" fill="#F6F6F6" stroke="#575D68" stroke-width="0.5" stroke-miterlimit="10"/>
<path d="M221.846 293.198V285.857L1.46143 159.244V166.525L221.846 293.198Z" fill="#F6F6F6" stroke="#575D68" stroke-width="0.5" stroke-miterlimit="10"/>
<path d="M119.311 187.718L166.555 214.972C166.658 215.031 166.774 215.062 166.893 215.062C167.011 215.062 167.127 215.03 167.23 214.97L185.417 204.295C185.859 204.036 186.341 202.589 185.639 202.131L138.695 175.765C138.592 175.705 138.476 175.674 138.358 175.673C138.239 175.673 138.123 175.704 138.02 175.763L119.087 185.421C118.739 185.856 118.864 187.46 119.311 187.718Z" fill="#F6F6F6" stroke="#575D68" stroke-width="0.5" stroke-miterlimit="10"/>
<path d="M119.312 186.498L166.556 213.751C166.658 213.811 166.775 213.842 166.893 213.841C167.012 213.841 167.128 213.809 167.23 213.749L185.418 203.074C185.519 203.015 185.602 202.931 185.66 202.829C185.719 202.728 185.749 202.613 185.749 202.496C185.749 202.379 185.718 202.264 185.66 202.162C185.602 202.061 185.518 201.976 185.417 201.917L138.695 174.544C138.593 174.484 138.477 174.453 138.358 174.452C138.24 174.452 138.124 174.483 138.021 174.542L119.312 185.335C119.21 185.394 119.125 185.479 119.066 185.581C119.008 185.683 118.977 185.799 118.977 185.916C118.977 186.034 119.008 186.15 119.066 186.252C119.125 186.354 119.21 186.439 119.312 186.498Z" fill="#F6F6F6" stroke="#575D68" stroke-width="0.5" stroke-miterlimit="10"/>
<path d="M137.817 178.942L135.389 177.54C135.273 177.472 135.287 177.355 135.422 177.277L138.226 175.658C138.295 175.619 138.372 175.598 138.451 175.594C138.531 175.591 138.609 175.606 138.682 175.639L141.109 177.041C141.226 177.108 141.212 177.226 141.077 177.304L138.273 178.923C138.204 178.961 138.127 178.983 138.048 178.986C137.968 178.99 137.889 178.974 137.817 178.942Z" fill="#FAFAFA" stroke="#575D68" stroke-width="0.5" stroke-miterlimit="10"/>
<path d="M141.058 180.813L138.63 179.411C138.513 179.344 138.528 179.226 138.663 179.148L141.466 177.529C141.536 177.491 141.613 177.469 141.692 177.466C141.771 177.462 141.85 177.478 141.922 177.51L144.35 178.912C144.467 178.979 144.452 179.097 144.317 179.175L141.514 180.794C141.445 180.832 141.367 180.854 141.288 180.858C141.209 180.861 141.13 180.845 141.058 180.813Z" fill="#FAFAFA" stroke="#575D68" stroke-width="0.5" stroke-miterlimit="10"/>
<path d="M144.299 182.684L141.871 181.282C141.754 181.215 141.769 181.097 141.904 181.019L144.707 179.401C144.776 179.362 144.854 179.34 144.933 179.337C145.012 179.334 145.091 179.349 145.163 179.382L147.591 180.783C147.708 180.851 147.693 180.969 147.558 181.047L144.755 182.665C144.686 182.704 144.608 182.726 144.529 182.729C144.45 182.732 144.371 182.717 144.299 182.684Z" fill="#FAFAFA" stroke="#575D68" stroke-width="0.5" stroke-miterlimit="10"/>
<path d="M147.539 184.555L145.112 183.154C144.995 183.086 145.009 182.968 145.144 182.89L147.948 181.272C148.017 181.233 148.094 181.211 148.174 181.208C148.253 181.205 148.332 181.22 148.404 181.253L150.832 182.654C150.949 182.722 150.934 182.84 150.799 182.918L147.996 184.536C147.926 184.575 147.849 184.597 147.77 184.6C147.69 184.603 147.612 184.588 147.539 184.555Z" fill="#FAFAFA" stroke="#575D68" stroke-width="0.5" stroke-miterlimit="10"/>
<path d="M150.782 186.427L148.354 185.025C148.237 184.957 148.252 184.839 148.387 184.762L151.19 183.143C151.259 183.104 151.337 183.083 151.416 183.079C151.495 183.076 151.574 183.091 151.646 183.124L154.074 184.526C154.191 184.593 154.176 184.711 154.041 184.789L151.238 186.408C151.168 186.446 151.091 186.468 151.012 186.471C150.933 186.475 150.854 186.459 150.782 186.427Z" fill="#FAFAFA" stroke="#575D68" stroke-width="0.5" stroke-miterlimit="10"/>
<path d="M154.022 188.298L151.595 186.896C151.478 186.829 151.492 186.711 151.627 186.633L154.431 185.014C154.5 184.976 154.577 184.954 154.656 184.95C154.736 184.947 154.815 184.963 154.887 184.995L157.314 186.397C157.431 186.464 157.417 186.582 157.282 186.66L154.478 188.279C154.409 188.317 154.332 188.339 154.253 188.342C154.173 188.346 154.095 188.33 154.022 188.298Z" fill="#FAFAFA" stroke="#575D68" stroke-width="0.5" stroke-miterlimit="10"/>
<path d="M157.263 190.169L154.835 188.767C154.718 188.7 154.733 188.582 154.868 188.504L157.671 186.885C157.741 186.847 157.818 186.825 157.897 186.822C157.976 186.818 158.055 186.834 158.127 186.866L160.555 188.268C160.672 188.336 160.657 188.453 160.522 188.531L157.719 190.15C157.65 190.189 157.573 190.21 157.493 190.214C157.414 190.217 157.335 190.202 157.263 190.169Z" fill="#FAFAFA" stroke="#575D68" stroke-width="0.5" stroke-miterlimit="10"/>
<path d="M160.504 192.04L158.076 190.639C157.959 190.571 157.974 190.453 158.109 190.375L160.912 188.757C160.981 188.718 161.059 188.696 161.138 188.693C161.217 188.69 161.296 188.705 161.368 188.738L163.796 190.139C163.913 190.207 163.898 190.325 163.763 190.403L160.96 192.021C160.891 192.06 160.813 192.082 160.734 192.085C160.655 192.088 160.576 192.073 160.504 192.04Z" fill="#FAFAFA" stroke="#575D68" stroke-width="0.5" stroke-miterlimit="10"/>
<path d="M163.746 193.911L161.318 192.51C161.201 192.442 161.216 192.324 161.351 192.246L164.154 190.628C164.224 190.589 164.301 190.567 164.38 190.564C164.459 190.561 164.538 190.576 164.61 190.609L167.038 192.011C167.155 192.078 167.14 192.196 167.005 192.274L164.202 193.892C164.133 193.931 164.055 193.953 163.976 193.956C163.897 193.959 163.818 193.944 163.746 193.911Z" fill="#FAFAFA" stroke="#575D68" stroke-width="0.5" stroke-miterlimit="10"/>
<path d="M166.987 195.783L164.559 194.381C164.442 194.313 164.457 194.196 164.592 194.118L167.395 192.499C167.464 192.461 167.542 192.439 167.621 192.435C167.7 192.432 167.779 192.447 167.851 192.48L170.279 193.882C170.396 193.949 170.381 194.067 170.246 194.145L167.443 195.764C167.374 195.802 167.296 195.824 167.217 195.827C167.138 195.831 167.059 195.815 166.987 195.783Z" fill="#FAFAFA" stroke="#575D68" stroke-width="0.5" stroke-miterlimit="10"/>
<path d="M170.227 197.654L167.8 196.252C167.683 196.185 167.697 196.067 167.832 195.989L170.636 194.37C170.705 194.332 170.782 194.31 170.862 194.307C170.941 194.303 171.02 194.319 171.092 194.351L173.52 195.753C173.636 195.821 173.622 195.938 173.487 196.016L170.683 197.635C170.614 197.673 170.537 197.695 170.458 197.699C170.378 197.702 170.3 197.687 170.227 197.654Z" fill="#FAFAFA" stroke="#575D68" stroke-width="0.5" stroke-miterlimit="10"/>
<path d="M173.468 199.525L171.04 198.123C170.923 198.056 170.938 197.938 171.073 197.86L173.876 196.241C173.946 196.203 174.023 196.181 174.102 196.178C174.181 196.174 174.26 196.19 174.333 196.223L176.76 197.624C176.877 197.692 176.863 197.81 176.728 197.888L173.924 199.506C173.855 199.545 173.778 199.566 173.698 199.57C173.619 199.573 173.54 199.558 173.468 199.525Z" fill="#FAFAFA" stroke="#575D68" stroke-width="0.5" stroke-miterlimit="10"/>
<path d="M176.709 201.396L174.281 199.995C174.164 199.927 174.179 199.809 174.314 199.731L177.117 198.113C177.186 198.074 177.264 198.052 177.343 198.049C177.422 198.046 177.501 198.061 177.573 198.094L180.001 199.496C180.118 199.563 180.103 199.681 179.968 199.759L177.165 201.377C177.096 201.416 177.018 201.438 176.939 201.441C176.86 201.444 176.781 201.429 176.709 201.396Z" fill="#FAFAFA" stroke="#575D68" stroke-width="0.5" stroke-miterlimit="10"/>
<path d="M181.206 204.098L177.432 201.919C177.315 201.851 177.33 201.733 177.465 201.655L180.359 199.984C180.429 199.945 180.506 199.923 180.585 199.92C180.665 199.917 180.743 199.932 180.816 199.965L184.59 202.144C184.707 202.211 184.692 202.329 184.557 202.407L181.662 204.079C181.593 204.117 181.516 204.139 181.436 204.142C181.357 204.146 181.278 204.13 181.206 204.098Z" fill="#FAFAFA" stroke="#575D68" stroke-width="0.5" stroke-miterlimit="10"/>
<path d="M138.784 183.779L136.356 182.377C136.239 182.309 136.254 182.191 136.389 182.114L139.192 180.495C139.261 180.456 139.338 180.435 139.418 180.431C139.497 180.428 139.576 180.443 139.648 180.476L142.076 181.878C142.193 181.945 142.178 182.063 142.043 182.141L139.24 183.76C139.17 183.798 139.093 183.82 139.014 183.823C138.935 183.827 138.856 183.811 138.784 183.779Z" fill="#FAFAFA" stroke="#575D68" stroke-width="0.5" stroke-miterlimit="10"/>
<path d="M142.018 185.646L139.59 184.244C139.473 184.176 139.488 184.059 139.623 183.981L142.426 182.362C142.496 182.324 142.573 182.302 142.652 182.298C142.731 182.295 142.81 182.311 142.882 182.343L145.31 183.745C145.427 183.812 145.412 183.93 145.277 184.008L142.474 185.627C142.405 185.665 142.327 185.687 142.248 185.69C142.169 185.694 142.09 185.678 142.018 185.646Z" fill="#FAFAFA" stroke="#575D68" stroke-width="0.5" stroke-miterlimit="10"/>
<path d="M145.252 187.513L142.825 186.111C142.708 186.044 142.722 185.926 142.857 185.848L145.661 184.229C145.73 184.191 145.807 184.169 145.886 184.166C145.966 184.162 146.045 184.178 146.117 184.21L148.544 185.612C148.661 185.68 148.647 185.797 148.512 185.875L145.708 187.494C145.639 187.533 145.562 187.554 145.483 187.558C145.403 187.561 145.325 187.546 145.252 187.513Z" fill="#FAFAFA" stroke="#575D68" stroke-width="0.5" stroke-miterlimit="10"/>
<path d="M148.486 189.38L146.058 187.978C145.942 187.911 145.956 187.793 146.091 187.715L148.895 186.096C148.964 186.058 149.041 186.036 149.12 186.033C149.2 186.029 149.278 186.045 149.351 186.078L151.778 187.479C151.895 187.547 151.881 187.665 151.746 187.743L148.942 189.361C148.873 189.4 148.796 189.421 148.717 189.425C148.637 189.428 148.558 189.413 148.486 189.38Z" fill="#FAFAFA" stroke="#575D68" stroke-width="0.5" stroke-miterlimit="10"/>
<path d="M151.721 191.247L149.293 189.845C149.176 189.778 149.191 189.66 149.326 189.582L152.129 187.964C152.198 187.925 152.275 187.903 152.355 187.9C152.434 187.897 152.513 187.912 152.585 187.945L155.013 189.346C155.13 189.414 155.115 189.532 154.98 189.61L152.177 191.228C152.107 191.267 152.03 191.289 151.951 191.292C151.872 191.295 151.793 191.28 151.721 191.247Z" fill="#FAFAFA" stroke="#575D68" stroke-width="0.5" stroke-miterlimit="10"/>
<path d="M154.953 193.114L152.526 191.713C152.409 191.645 152.423 191.527 152.558 191.449L155.362 189.831C155.431 189.792 155.508 189.77 155.588 189.767C155.667 189.764 155.746 189.779 155.818 189.812L158.246 191.213C158.363 191.281 158.348 191.399 158.213 191.477L155.41 193.095C155.34 193.134 155.263 193.156 155.184 193.159C155.105 193.162 155.026 193.147 154.953 193.114Z" fill="#FAFAFA" stroke="#575D68" stroke-width="0.5" stroke-miterlimit="10"/>
<path d="M158.187 194.981L155.76 193.58C155.643 193.512 155.657 193.394 155.792 193.316L158.596 191.698C158.665 191.659 158.742 191.637 158.821 191.634C158.901 191.631 158.98 191.646 159.052 191.679L161.48 193.081C161.596 193.148 161.582 193.266 161.447 193.344L158.643 194.962C158.574 195.001 158.497 195.023 158.418 195.026C158.338 195.029 158.26 195.014 158.187 194.981Z" fill="#FAFAFA" stroke="#575D68" stroke-width="0.5" stroke-miterlimit="10"/>
<path d="M161.422 196.848L158.994 195.447C158.877 195.379 158.892 195.261 159.027 195.183L161.83 193.565C161.899 193.526 161.977 193.505 162.056 193.501C162.135 193.498 162.214 193.513 162.286 193.546L164.714 194.948C164.831 195.015 164.816 195.133 164.681 195.211L161.878 196.83C161.809 196.868 161.731 196.89 161.652 196.893C161.573 196.897 161.494 196.881 161.422 196.848Z" fill="#FAFAFA" stroke="#575D68" stroke-width="0.5" stroke-miterlimit="10"/>
<path d="M164.656 198.716L162.228 197.314C162.111 197.246 162.126 197.128 162.261 197.051L165.064 195.432C165.134 195.393 165.211 195.372 165.29 195.368C165.369 195.365 165.448 195.38 165.521 195.413L167.948 196.815C168.065 196.882 168.051 197 167.916 197.078L165.112 198.697C165.043 198.735 164.966 198.757 164.886 198.76C164.807 198.764 164.728 198.748 164.656 198.716Z" fill="#FAFAFA" stroke="#575D68" stroke-width="0.5" stroke-miterlimit="10"/>
<path d="M167.89 200.583L165.463 199.181C165.346 199.114 165.36 198.996 165.495 198.918L168.299 197.299C168.368 197.261 168.445 197.239 168.525 197.235C168.604 197.232 168.683 197.248 168.755 197.28L171.183 198.682C171.3 198.749 171.285 198.867 171.15 198.945L168.347 200.564C168.277 200.602 168.2 200.624 168.121 200.628C168.042 200.631 167.963 200.615 167.89 200.583Z" fill="#FAFAFA" stroke="#575D68" stroke-width="0.5" stroke-miterlimit="10"/>
<path d="M171.123 202.45L168.695 201.048C168.578 200.981 168.593 200.863 168.728 200.785L171.531 199.166C171.6 199.128 171.678 199.106 171.757 199.103C171.836 199.099 171.915 199.115 171.987 199.147L174.415 200.549C174.532 200.617 174.517 200.734 174.382 200.812L171.579 202.431C171.51 202.47 171.432 202.491 171.353 202.495C171.274 202.498 171.195 202.483 171.123 202.45Z" fill="#FAFAFA" stroke="#575D68" stroke-width="0.5" stroke-miterlimit="10"/>
<path d="M174.357 204.317L171.93 202.915C171.813 202.848 171.827 202.73 171.962 202.652L174.766 201.033C174.835 200.995 174.912 200.973 174.991 200.97C175.071 200.966 175.15 200.982 175.222 201.015L177.649 202.416C177.766 202.484 177.752 202.602 177.617 202.68L174.813 204.298C174.744 204.337 174.667 204.358 174.588 204.362C174.508 204.365 174.43 204.35 174.357 204.317Z" fill="#FAFAFA" stroke="#575D68" stroke-width="0.5" stroke-miterlimit="10"/>
<path d="M177.592 206.184L175.164 204.782C175.047 204.715 175.062 204.597 175.197 204.519L178 202.9C178.069 202.862 178.147 202.84 178.226 202.837C178.305 202.833 178.384 202.849 178.456 202.881L180.884 204.283C181.001 204.351 180.986 204.469 180.851 204.546L178.048 206.165C177.978 206.204 177.901 206.225 177.822 206.229C177.743 206.232 177.664 206.217 177.592 206.184Z" fill="#FAFAFA" stroke="#575D68" stroke-width="0.5" stroke-miterlimit="10"/>
<path d="M135.458 181.858L131.683 179.679C131.567 179.612 131.581 179.494 131.716 179.416L134.52 177.797C134.589 177.759 134.666 177.737 134.745 177.734C134.825 177.73 134.903 177.746 134.976 177.778L138.75 179.957C138.867 180.025 138.852 180.143 138.717 180.221L135.914 181.839C135.844 181.878 135.767 181.9 135.688 181.903C135.609 181.906 135.53 181.891 135.458 181.858Z" fill="#FAFAFA" stroke="#575D68" stroke-width="0.5" stroke-miterlimit="10"/>
<path d="M136.233 186.478L133.805 185.077C133.689 185.009 133.703 184.891 133.838 184.813L136.642 183.195C136.711 183.156 136.788 183.134 136.867 183.131C136.947 183.128 137.025 183.143 137.098 183.176L139.525 184.578C139.642 184.645 139.628 184.763 139.493 184.841L136.689 186.459C136.62 186.498 136.543 186.52 136.464 186.523C136.384 186.526 136.305 186.511 136.233 186.478Z" fill="#FAFAFA" stroke="#575D68" stroke-width="0.5" stroke-miterlimit="10"/>
<path d="M139.433 188.326L137.006 186.925C136.889 186.857 136.903 186.739 137.038 186.661L139.842 185.043C139.911 185.004 139.988 184.982 140.068 184.979C140.147 184.976 140.226 184.991 140.298 185.024L142.726 186.426C142.843 186.493 142.828 186.611 142.693 186.689L139.89 188.307C139.82 188.346 139.743 188.368 139.664 188.371C139.585 188.374 139.506 188.359 139.433 188.326Z" fill="#FAFAFA" stroke="#575D68" stroke-width="0.5" stroke-miterlimit="10"/>
<path d="M142.636 190.174L140.208 188.773C140.091 188.705 140.106 188.587 140.241 188.509L143.044 186.891C143.113 186.852 143.19 186.831 143.27 186.827C143.349 186.824 143.428 186.839 143.5 186.872L145.928 188.274C146.045 188.341 146.03 188.459 145.895 188.537L143.092 190.156C143.022 190.194 142.945 190.216 142.866 190.219C142.787 190.223 142.708 190.207 142.636 190.174Z" fill="#FAFAFA" stroke="#575D68" stroke-width="0.5" stroke-miterlimit="10"/>
<path d="M145.836 192.023L143.409 190.621C143.292 190.553 143.306 190.435 143.441 190.357L146.245 188.739C146.314 188.7 146.391 188.679 146.47 188.675C146.55 188.672 146.628 188.687 146.701 188.72L149.128 190.122C149.245 190.189 149.231 190.307 149.096 190.385L146.292 192.004C146.223 192.042 146.146 192.064 146.067 192.067C145.987 192.071 145.908 192.055 145.836 192.023Z" fill="#FAFAFA" stroke="#575D68" stroke-width="0.5" stroke-miterlimit="10"/>
<path d="M149.037 193.871L146.609 192.469C146.492 192.401 146.507 192.284 146.642 192.206L149.445 190.587C149.515 190.548 149.592 190.527 149.671 190.523C149.75 190.52 149.829 190.535 149.901 190.568L152.329 191.97C152.446 192.037 152.431 192.155 152.296 192.233L149.493 193.852C149.424 193.89 149.346 193.912 149.267 193.915C149.188 193.919 149.109 193.903 149.037 193.871Z" fill="#FAFAFA" stroke="#575D68" stroke-width="0.5" stroke-miterlimit="10"/>
<path d="M152.238 195.719L149.81 194.317C149.693 194.249 149.708 194.132 149.843 194.054L152.646 192.435C152.715 192.397 152.793 192.375 152.872 192.371C152.951 192.368 153.03 192.383 153.102 192.416L155.53 193.818C155.647 193.885 155.632 194.003 155.497 194.081L152.694 195.7C152.624 195.738 152.547 195.76 152.468 195.763C152.389 195.767 152.31 195.751 152.238 195.719Z" fill="#FAFAFA" stroke="#575D68" stroke-width="0.5" stroke-miterlimit="10"/>
<path d="M155.44 197.567L153.012 196.165C152.895 196.098 152.91 195.98 153.045 195.902L155.848 194.283C155.917 194.245 155.995 194.223 156.074 194.22C156.153 194.216 156.232 194.232 156.304 194.264L158.732 195.666C158.849 195.733 158.834 195.851 158.699 195.929L155.896 197.548C155.827 197.586 155.749 197.608 155.67 197.612C155.591 197.615 155.512 197.599 155.44 197.567Z" fill="#FAFAFA" stroke="#575D68" stroke-width="0.5" stroke-miterlimit="10"/>
<path d="M158.64 199.415L156.212 198.013C156.095 197.946 156.11 197.828 156.245 197.75L159.048 196.131C159.118 196.093 159.195 196.071 159.274 196.068C159.353 196.064 159.432 196.08 159.504 196.112L161.932 197.514C162.049 197.582 162.034 197.699 161.899 197.777L159.096 199.396C159.027 199.434 158.95 199.456 158.87 199.46C158.791 199.463 158.712 199.448 158.64 199.415Z" fill="#FAFAFA" stroke="#575D68" stroke-width="0.5" stroke-miterlimit="10"/>
<path d="M161.841 201.263L159.413 199.861C159.296 199.794 159.311 199.676 159.446 199.598L162.249 197.979C162.318 197.941 162.396 197.919 162.475 197.916C162.554 197.912 162.633 197.928 162.705 197.96L165.133 199.362C165.25 199.43 165.235 199.548 165.1 199.625L162.297 201.244C162.228 201.283 162.15 201.304 162.071 201.308C161.992 201.311 161.913 201.296 161.841 201.263Z" fill="#FAFAFA" stroke="#575D68" stroke-width="0.5" stroke-miterlimit="10"/>
<path d="M165.041 203.111L162.614 201.709C162.497 201.642 162.511 201.524 162.646 201.446L165.45 199.827C165.519 199.789 165.596 199.767 165.675 199.764C165.755 199.76 165.834 199.776 165.906 199.808L168.334 201.21C168.45 201.278 168.436 201.396 168.301 201.474L165.497 203.092C165.428 203.131 165.351 203.152 165.272 203.156C165.192 203.159 165.114 203.144 165.041 203.111Z" fill="#FAFAFA" stroke="#575D68" stroke-width="0.5" stroke-miterlimit="10"/>
<path d="M168.244 204.959L165.816 203.557C165.699 203.49 165.713 203.372 165.849 203.294L168.652 201.675C168.721 201.637 168.798 201.615 168.878 201.612C168.957 201.609 169.036 201.624 169.108 201.657L171.536 203.058C171.653 203.126 171.638 203.244 171.503 203.322L168.7 204.94C168.63 204.979 168.553 205.001 168.474 205.004C168.395 205.007 168.316 204.992 168.244 204.959Z" fill="#FAFAFA" stroke="#575D68" stroke-width="0.5" stroke-miterlimit="10"/>
<path d="M173.979 208.27L169.016 205.405C168.9 205.338 168.914 205.22 169.049 205.142L171.853 203.524C171.922 203.485 171.999 203.463 172.078 203.46C172.158 203.457 172.236 203.472 172.309 203.505L177.271 206.37C177.388 206.437 177.373 206.555 177.238 206.633L174.435 208.251C174.365 208.29 174.288 208.312 174.209 208.315C174.13 208.318 174.051 208.303 173.979 208.27Z" fill="#FAFAFA" stroke="#575D68" stroke-width="0.5" stroke-miterlimit="10"/>
<path d="M133.032 184.63L128.07 181.765C127.953 181.698 127.968 181.58 128.103 181.502L130.906 179.883C130.975 179.845 131.053 179.823 131.132 179.82C131.211 179.816 131.29 179.832 131.362 179.865L136.324 182.729C136.441 182.797 136.427 182.915 136.292 182.993L133.488 184.611C133.419 184.65 133.342 184.672 133.263 184.675C133.183 184.678 133.104 184.663 133.032 184.63Z" fill="#FAFAFA" stroke="#575D68" stroke-width="0.5" stroke-miterlimit="10"/>
<path d="M134.212 189.485L131.784 188.083C131.668 188.015 131.682 187.898 131.817 187.82L134.621 186.201C134.69 186.163 134.767 186.141 134.846 186.137C134.926 186.134 135.004 186.149 135.077 186.182L137.504 187.584C137.621 187.651 137.607 187.769 137.472 187.847L134.668 189.466C134.599 189.504 134.522 189.526 134.443 189.529C134.363 189.533 134.284 189.517 134.212 189.485Z" fill="#FAFAFA" stroke="#575D68" stroke-width="0.5" stroke-miterlimit="10"/>
<path d="M137.448 191.352L135.02 189.951C134.903 189.883 134.918 189.765 135.053 189.687L137.856 188.069C137.926 188.03 138.003 188.008 138.082 188.005C138.161 188.002 138.24 188.017 138.313 188.05L140.74 189.452C140.857 189.519 140.843 189.637 140.708 189.715L137.904 191.333C137.835 191.372 137.758 191.394 137.678 191.397C137.599 191.4 137.52 191.385 137.448 191.352Z" fill="#FAFAFA" stroke="#575D68" stroke-width="0.5" stroke-miterlimit="10"/>
<path d="M140.682 193.22L138.255 191.818C138.138 191.751 138.152 191.633 138.287 191.555L141.091 189.937C141.16 189.898 141.237 189.876 141.317 189.873C141.396 189.87 141.475 189.885 141.547 189.918L143.975 191.319C144.092 191.387 144.077 191.505 143.942 191.583L141.139 193.201C141.069 193.24 140.992 193.262 140.913 193.265C140.834 193.268 140.755 193.253 140.682 193.22Z" fill="#FAFAFA" stroke="#575D68" stroke-width="0.5" stroke-miterlimit="10"/>
<path d="M143.918 195.088L141.491 193.686C141.374 193.619 141.388 193.501 141.523 193.423L144.327 191.804C144.396 191.766 144.473 191.744 144.552 191.741C144.632 191.737 144.711 191.753 144.783 191.785L147.211 193.187C147.327 193.255 147.313 193.373 147.178 193.45L144.374 195.069C144.305 195.108 144.228 195.129 144.149 195.133C144.069 195.136 143.991 195.121 143.918 195.088Z" fill="#FAFAFA" stroke="#575D68" stroke-width="0.5" stroke-miterlimit="10"/>
<path d="M147.153 196.956L144.725 195.554C144.608 195.486 144.623 195.369 144.758 195.291L147.561 193.672C147.63 193.633 147.708 193.612 147.787 193.608C147.866 193.605 147.945 193.62 148.017 193.653L150.445 195.055C150.562 195.122 150.547 195.24 150.412 195.318L147.609 196.937C147.54 196.975 147.462 196.997 147.383 197C147.304 197.004 147.225 196.988 147.153 196.956Z" fill="#FAFAFA" stroke="#575D68" stroke-width="0.5" stroke-miterlimit="10"/>
<path d="M150.389 198.823L147.961 197.422C147.844 197.354 147.859 197.236 147.994 197.158L150.797 195.54C150.866 195.501 150.943 195.479 151.023 195.476C151.102 195.473 151.181 195.488 151.253 195.521L153.681 196.923C153.798 196.99 153.783 197.108 153.648 197.186L150.845 198.804C150.775 198.843 150.698 198.865 150.619 198.868C150.54 198.871 150.461 198.856 150.389 198.823Z" fill="#FAFAFA" stroke="#575D68" stroke-width="0.5" stroke-miterlimit="10"/>
<path d="M153.623 200.691L151.195 199.289C151.078 199.222 151.093 199.104 151.228 199.026L154.031 197.407C154.1 197.369 154.178 197.347 154.257 197.344C154.336 197.341 154.415 197.356 154.487 197.389L156.915 198.79C157.032 198.858 157.017 198.976 156.882 199.054L154.079 200.672C154.01 200.711 153.932 200.733 153.853 200.736C153.774 200.739 153.695 200.724 153.623 200.691Z" fill="#FAFAFA" stroke="#575D68" stroke-width="0.5" stroke-miterlimit="10"/>
<path d="M156.857 202.559L154.429 201.157C154.312 201.09 154.327 200.972 154.462 200.894L157.265 199.275C157.334 199.237 157.412 199.215 157.491 199.212C157.57 199.208 157.649 199.224 157.721 199.256L160.149 200.658C160.266 200.726 160.251 200.843 160.116 200.921L157.313 202.54C157.244 202.578 157.166 202.6 157.087 202.604C157.008 202.607 156.929 202.592 156.857 202.559Z" fill="#FAFAFA" stroke="#575D68" stroke-width="0.5" stroke-miterlimit="10"/>
<path d="M160.093 204.427L157.665 203.025C157.548 202.957 157.563 202.839 157.698 202.761L160.501 201.143C160.57 201.104 160.648 201.083 160.727 201.079C160.806 201.076 160.885 201.091 160.957 201.124L163.385 202.526C163.502 202.593 163.487 202.711 163.352 202.789L160.549 204.408C160.479 204.446 160.402 204.468 160.323 204.471C160.244 204.475 160.165 204.459 160.093 204.427Z" fill="#FAFAFA" stroke="#575D68" stroke-width="0.5" stroke-miterlimit="10"/>
<path d="M163.327 206.294L160.899 204.893C160.782 204.825 160.797 204.707 160.932 204.629L163.735 203.011C163.805 202.972 163.882 202.95 163.961 202.947C164.04 202.944 164.119 202.959 164.191 202.992L166.619 204.393C166.736 204.461 166.721 204.579 166.586 204.657L163.783 206.275C163.714 206.314 163.636 206.336 163.557 206.339C163.478 206.342 163.399 206.327 163.327 206.294Z" fill="#FAFAFA" stroke="#575D68" stroke-width="0.5" stroke-miterlimit="10"/>
<path d="M170.364 210.357L164.135 206.76C164.018 206.693 164.033 206.575 164.168 206.497L166.971 204.878C167.04 204.84 167.118 204.818 167.197 204.815C167.276 204.811 167.355 204.827 167.427 204.86L173.657 208.456C173.774 208.524 173.759 208.641 173.624 208.719L170.821 210.338C170.751 210.376 170.674 210.398 170.595 210.402C170.516 210.405 170.437 210.39 170.364 210.357Z" fill="#FAFAFA" stroke="#575D68" stroke-width="0.5" stroke-miterlimit="10"/>
<path d="M130.979 187.617L124.457 183.852C124.34 183.784 124.355 183.666 124.49 183.588L127.293 181.97C127.363 181.931 127.44 181.909 127.519 181.906C127.598 181.903 127.677 181.918 127.75 181.951L134.271 185.716C134.388 185.784 134.373 185.902 134.238 185.979L131.435 187.598C131.366 187.637 131.288 187.658 131.209 187.662C131.13 187.665 131.051 187.65 130.979 187.617Z" fill="#FAFAFA" stroke="#575D68" stroke-width="0.5" stroke-miterlimit="10"/>
<path d="M153.793 205.007L150.652 203.194C150.535 203.126 150.55 203.008 150.685 202.93L153.527 201.29C153.596 201.251 153.674 201.229 153.753 201.226C153.832 201.223 153.911 201.238 153.983 201.271L157.124 203.084C157.241 203.151 157.226 203.269 157.091 203.347L154.249 204.988C154.18 205.027 154.102 205.049 154.023 205.052C153.944 205.055 153.865 205.04 153.793 205.007Z" fill="#FAFAFA" stroke="#575D68" stroke-width="0.5" stroke-miterlimit="10"/>
<path d="M149.852 202.731L134.594 193.922C134.477 193.854 134.491 193.736 134.626 193.658L137.468 192.018C137.538 191.979 137.615 191.957 137.694 191.954C137.773 191.951 137.852 191.966 137.924 191.999L153.182 200.808C153.299 200.875 153.285 200.993 153.15 201.071L150.308 202.712C150.238 202.751 150.161 202.773 150.082 202.776C150.003 202.779 149.924 202.764 149.852 202.731Z" fill="#FAFAFA" stroke="#575D68" stroke-width="0.5" stroke-miterlimit="10"/>
<path d="M157.062 206.849L154.635 205.448C154.518 205.38 154.532 205.262 154.667 205.184L157.471 203.566C157.54 203.527 157.617 203.505 157.696 203.502C157.776 203.499 157.855 203.514 157.927 203.547L160.355 204.949C160.471 205.016 160.457 205.134 160.322 205.212L157.518 206.83C157.449 206.869 157.372 206.891 157.293 206.894C157.213 206.897 157.135 206.882 157.062 206.849Z" fill="#FAFAFA" stroke="#575D68" stroke-width="0.5" stroke-miterlimit="10"/>
<path d="M160.292 208.714L157.864 207.312C157.747 207.245 157.762 207.127 157.897 207.049L160.7 205.43C160.769 205.392 160.847 205.37 160.926 205.367C161.005 205.363 161.084 205.379 161.156 205.411L163.584 206.813C163.701 206.881 163.686 206.999 163.551 207.077L160.748 208.695C160.679 208.734 160.601 208.755 160.522 208.759C160.443 208.762 160.364 208.747 160.292 208.714Z" fill="#FAFAFA" stroke="#575D68" stroke-width="0.5" stroke-miterlimit="10"/>
<path d="M163.521 210.578L161.094 209.177C160.977 209.109 160.991 208.991 161.126 208.913L163.93 207.295C163.999 207.256 164.076 207.235 164.155 207.231C164.235 207.228 164.314 207.243 164.386 207.276L166.814 208.678C166.93 208.745 166.916 208.863 166.781 208.941L163.977 210.56C163.908 210.598 163.831 210.62 163.752 210.623C163.672 210.627 163.594 210.611 163.521 210.578Z" fill="#FAFAFA" stroke="#575D68" stroke-width="0.5" stroke-miterlimit="10"/>
<path d="M166.751 212.443L164.323 211.042C164.206 210.974 164.221 210.856 164.356 210.778L167.159 209.16C167.228 209.121 167.306 209.099 167.385 209.096C167.464 209.093 167.543 209.108 167.615 209.141L170.043 210.542C170.16 210.61 170.145 210.728 170.01 210.806L167.207 212.424C167.138 212.463 167.06 212.485 166.981 212.488C166.902 212.491 166.823 212.476 166.751 212.443Z" fill="#FAFAFA" stroke="#575D68" stroke-width="0.5" stroke-miterlimit="10"/>
<path d="M126.5 189.205L124.072 187.803C123.955 187.735 123.97 187.618 124.105 187.54L126.908 185.921C126.977 185.882 127.055 185.861 127.134 185.857C127.213 185.854 127.292 185.869 127.364 185.902L129.792 187.304C129.909 187.371 129.894 187.489 129.759 187.567L126.956 189.186C126.887 189.224 126.809 189.246 126.73 189.249C126.651 189.253 126.572 189.237 126.5 189.205Z" fill="#FAFAFA" stroke="#575D68" stroke-width="0.5" stroke-miterlimit="10"/>
<path d="M123.232 187.362L120.804 185.961C120.687 185.893 120.702 185.775 120.837 185.697L123.64 184.079C123.709 184.04 123.787 184.018 123.866 184.015C123.945 184.012 124.024 184.027 124.096 184.06L126.524 185.462C126.641 185.529 126.626 185.647 126.491 185.725L123.688 187.343C123.619 187.382 123.541 187.404 123.462 187.407C123.383 187.41 123.304 187.395 123.232 187.362Z" fill="#FAFAFA" stroke="#575D68" stroke-width="0.5" stroke-miterlimit="10"/>
<path d="M129.729 191.069L127.302 189.667C127.185 189.6 127.199 189.482 127.334 189.404L130.138 187.786C130.207 187.747 130.284 187.725 130.363 187.722C130.443 187.719 130.522 187.734 130.594 187.767L133.022 189.168C133.138 189.236 133.124 189.354 132.989 189.432L130.185 191.05C130.116 191.089 130.039 191.111 129.96 191.114C129.88 191.117 129.802 191.102 129.729 191.069Z" fill="#FAFAFA" stroke="#575D68" stroke-width="0.5" stroke-miterlimit="10"/>
<path d="M133.83 193.437L130.531 191.532C130.414 191.464 130.429 191.347 130.564 191.269L133.367 189.65C133.436 189.611 133.514 189.59 133.593 189.586C133.672 189.583 133.751 189.598 133.823 189.631L137.122 191.536C137.239 191.603 137.224 191.721 137.089 191.799L134.286 193.418C134.217 193.456 134.14 193.478 134.06 193.481C133.981 193.485 133.902 193.469 133.83 193.437Z" fill="#FAFAFA" stroke="#575D68" stroke-width="0.5" stroke-miterlimit="10"/>
<path d="M62.064 152.943C62.064 156.423 54.5631 159.244 45.3103 159.244C36.0575 159.244 28.5566 156.423 28.5566 152.943V148.603C28.5566 148.603 38.3707 146.642 45.3103 146.642C52.2499 146.642 62.064 148.603 62.064 148.603V152.943Z" fill="#F6F6F6" stroke="#575D68" stroke-width="0.5" stroke-miterlimit="10"/>
<path d="M45.3103 154.904C54.5631 154.904 62.064 152.083 62.064 148.603C62.064 145.123 54.5631 142.302 45.3103 142.302C36.0575 142.302 28.5566 145.123 28.5566 148.603C28.5566 152.083 36.0575 154.904 45.3103 154.904Z" fill="#F6F6F6" stroke="#575D68" stroke-width="0.5" stroke-miterlimit="10"/>
<path d="M46.3898 13.7435H44.2314C43.722 13.7435 43.3091 14.1564 43.3091 14.6658V149.543C43.3091 150.052 43.722 150.465 44.2314 150.465H46.3898C46.8992 150.465 47.3122 150.052 47.3122 149.543V14.6658C47.3122 14.1564 46.8992 13.7435 46.3898 13.7435Z" fill="#F6F6F6" stroke="#575D68" stroke-width="0.5" stroke-miterlimit="10"/>
<path d="M85.5916 43.587L46.8695 73.4565C46.8695 73.4565 32.1081 56.2518 31.39 55.2997C28.4111 51.3501 27.8496 45.5135 30.4362 39.1155C35.0089 27.8043 47.6888 19.0217 58.7576 19.499C62.4113 19.5202 65.9171 20.9455 68.5491 23.4799C72.3923 27.3903 85.5916 43.587 85.5916 43.587Z" fill="#F6F6F6" stroke="#575D68" stroke-width="0.5" stroke-miterlimit="10"/>
<path d="M77.2908 71.5572C87.5986 62.8046 91.0121 49.8882 84.9149 42.7076C78.8177 35.527 65.5188 36.8014 55.2109 45.5541C44.9031 54.3067 41.4896 67.2231 47.5868 74.4037C53.684 81.5843 66.9829 80.3099 77.2908 71.5572Z" fill="#F6F6F6" stroke="#575D68" stroke-width="0.5" stroke-miterlimit="10"/>
<path d="M71.4261 38.1829C71.1752 39.0864 70.8727 39.9748 70.52 40.8437C66.3712 51.1063 55.5485 59.2875 45.3105 60.3596" fill="#F6F6F6"/>
<path d="M71.4261 38.1829C71.1752 39.0864 70.8727 39.9748 70.52 40.8437C66.3712 51.1063 55.5485 59.2875 45.3105 60.3596" stroke="#575D68" stroke-width="0.5" stroke-miterlimit="10"/>
<path d="M67.0857 62.7368C68.6726 62.1475 70.06 61.1208 71.0876 59.7756C72.1151 58.4304 72.7406 56.8217 72.8918 55.1357C73.0429 53.4497 72.7135 51.7554 71.9416 50.2489C71.1698 48.7423 69.9871 47.4852 68.5304 46.623C66.9487 45.6833 65.4413 44.624 64.0214 43.4542C63.1765 42.7627 62.3667 42.0275 61.5727 41.2754C58.4677 42.9057 55.6269 44.9958 53.1465 47.4751C53.4739 48.5357 53.7832 49.6022 54.0484 50.682C54.4784 52.4337 54.8386 54.2061 55.1685 55.9846C55.4074 57.2674 55.9238 58.4825 56.6817 59.5447C57.4396 60.6069 58.4205 61.4906 59.5558 62.1339C60.6911 62.7772 61.9534 63.1644 63.2541 63.2686C64.5548 63.3727 65.8625 63.1912 67.0857 62.7368Z" fill="#F6F6F6" stroke="#575D68" stroke-width="0.5" stroke-miterlimit="10"/>
<path d="M117.964 72.686C121.81 72.686 124.928 68.6634 124.928 63.7012C124.928 58.7391 121.81 54.7165 117.964 54.7165C114.118 54.7165 111 58.7391 111 63.7012C111 68.6634 114.118 72.686 117.964 72.686Z" fill="#F6F6F6" stroke="#575D68" stroke-width="0.5" stroke-miterlimit="10"/>
<path d="M126.172 51.4998C126.172 51.0902 126.091 50.6847 125.935 50.3063C125.778 49.928 125.548 49.5842 125.259 49.2946C124.969 49.005 124.625 48.7753 124.247 48.6186C123.868 48.4619 123.463 48.3812 123.053 48.3812C122.947 48.3864 122.841 48.397 122.736 48.4132C121.591 47.3416 120.082 46.744 118.513 46.7412C118.464 46.7412 118.418 46.7546 118.368 46.7558C118.247 46.291 118.02 45.8605 117.705 45.498C117.39 45.1356 116.995 44.8509 116.552 44.6664C116.109 44.4819 115.628 44.4026 115.149 44.4345C114.67 44.4665 114.205 44.6089 113.79 44.8507C113.375 45.0924 113.021 45.4269 112.757 45.828C112.493 46.2291 112.325 46.6859 112.267 47.1627C112.208 47.6395 112.261 48.1232 112.421 48.5761C112.581 49.0291 112.843 49.4388 113.188 49.7734C112.718 50.5522 112.424 51.4245 112.328 52.329C112.231 53.2335 112.334 54.1481 112.629 55.0086C112.924 55.869 113.404 56.6544 114.035 57.3094C114.666 57.9644 115.433 58.4732 116.282 58.7999C117.131 59.1266 118.041 59.2634 118.949 59.2005C119.856 59.1376 120.739 58.8766 121.534 58.4359C122.33 57.9952 123.02 57.3855 123.554 56.6496C124.089 55.9138 124.456 55.0697 124.629 54.1768C125.098 53.904 125.487 53.5134 125.757 53.0437C126.028 52.5741 126.171 52.0418 126.172 51.4998Z" fill="#F6F6F6" stroke="#575D68" stroke-width="0.5" stroke-miterlimit="10"/>
<path d="M208.477 230.073V231.666C208.477 231.85 208.525 232.031 208.617 232.191C208.709 232.35 208.841 232.483 209 232.576L234.184 247.243L269.121 226.821V224.294" fill="#F6F6F6"/>
<path d="M208.477 230.073V231.666C208.477 231.85 208.525 232.031 208.617 232.191C208.709 232.35 208.841 232.483 209 232.576L234.184 247.243L269.121 226.821V224.294" stroke="#575D68" stroke-width="0.5" stroke-miterlimit="10"/>
<path d="M208.741 229.342L242.983 208.967L268.716 223.636C268.836 223.704 268.936 223.802 269.007 223.921C269.078 224.04 269.118 224.175 269.121 224.313C269.125 224.451 269.093 224.588 269.028 224.71C268.963 224.833 268.868 224.936 268.751 225.011L234.277 245.013L208.744 230.271C208.663 230.223 208.596 230.156 208.549 230.074C208.502 229.993 208.477 229.901 208.477 229.807C208.477 229.713 208.501 229.621 208.547 229.539C208.593 229.458 208.66 229.39 208.741 229.342Z" fill="#F6F6F6" stroke="#575D68" stroke-width="0.5" stroke-miterlimit="10"/>
<path d="M242.462 215.374L236.887 218.905L250.174 226.821L256.399 223.493L242.462 215.374Z" fill="#F6F6F6" stroke="#575D68" stroke-width="0.5" stroke-miterlimit="10"/>
<path d="M273.559 211.407V231.719C273.559 234.684 278.899 237.087 285.486 237.087C292.073 237.087 297.414 234.684 297.414 231.719V211.407H273.559Z" fill="#F6F6F6" stroke="#575D68" stroke-width="0.5" stroke-miterlimit="10"/>
<path d="M285.486 216.774C292.074 216.774 297.414 214.371 297.414 211.407C297.414 208.443 292.074 206.04 285.486 206.04C278.899 206.04 273.559 208.443 273.559 211.407C273.559 214.371 278.899 216.774 285.486 216.774Z" fill="#F6F6F6" stroke="#575D68" stroke-width="0.5" stroke-miterlimit="10"/>
<path d="M280.674 190.264L278.205 185.542L277.375 190.936L280.151 216.202C281.351 216.468 282.57 216.64 283.798 216.714L280.674 190.264Z" fill="#F6F6F6" stroke="#575D68" stroke-width="0.5" stroke-miterlimit="10"/>
<path d="M295.614 198.136C295.376 198.046 295.122 198.005 294.868 198.016C294.614 198.027 294.364 198.089 294.135 198.199C293.906 198.31 293.701 198.465 293.534 198.657C293.367 198.849 293.24 199.073 293.162 199.315C291.878 203.319 288.727 212.572 287.314 216.705C288.597 216.622 289.871 216.432 291.122 216.137L296.758 200.617C296.932 200.136 296.91 199.606 296.696 199.142C296.482 198.677 296.093 198.316 295.614 198.136Z" fill="#F6F6F6" stroke="#575D68" stroke-width="0.5" stroke-miterlimit="10"/>
<path d="M56.062 53.8589C56.3297 52.5892 56.8449 51.3846 57.5782 50.314C58.3114 49.2433 59.2484 48.3276 60.3355 47.6191C61.4227 46.9106 62.6387 46.4231 63.9143 46.1846C65.1898 45.946 66.4999 45.961 67.7696 46.2287" fill="#F6F6F6"/>
<path d="M56.062 53.8589C56.3297 52.5892 56.8449 51.3846 57.5782 50.314C58.3114 49.2433 59.2484 48.3276 60.3355 47.6191C61.4227 46.9106 62.6387 46.4231 63.9143 46.1846C65.1898 45.946 66.4999 45.961 67.7696 46.2287" stroke="#575D68" stroke-width="0.5" stroke-miterlimit="10"/>
<path d="M173.671 170.98L159.873 177.664C158.259 178.431 157.683 181.099 159.525 182.119L187.185 198.27C187.846 198.638 188.625 198.732 189.354 198.532C190.084 198.331 190.705 197.852 191.085 197.197L201.3 183.209L173.671 170.98Z" fill="#F6F6F6" stroke="#575D68" stroke-width="0.5" stroke-miterlimit="10"/>
<path d="M158.399 179.544C158.439 179.89 158.562 180.222 158.758 180.51C158.953 180.799 159.217 181.035 159.524 181.199L187.185 197.351C187.472 197.541 187.797 197.668 188.138 197.722C188.478 197.777 188.826 197.758 189.159 197.666C189.491 197.575 189.8 197.413 190.065 197.192C190.33 196.971 190.544 196.696 190.693 196.385L197.939 186.726" fill="#F6F6F6"/>
<path d="M158.399 179.544C158.439 179.89 158.562 180.222 158.758 180.51C158.953 180.799 159.217 181.035 159.524 181.199L187.185 197.351C187.472 197.541 187.797 197.668 188.138 197.722C188.478 197.777 188.826 197.758 189.159 197.666C189.491 197.575 189.8 197.413 190.065 197.192C190.33 196.971 190.544 196.696 190.693 196.385L197.939 186.726" stroke="#575D68" stroke-width="0.5" stroke-miterlimit="10"/>
<path d="M139.613 67.8493L140.974 148.698C140.974 149.398 141.156 150.086 141.502 150.695C141.849 151.303 142.348 151.811 142.95 152.168L234.224 208.062C237.596 209.252 240.639 206.836 240.639 203.006V121.756C240.639 121.044 240.45 120.345 240.093 119.73C239.736 119.115 239.223 118.605 238.605 118.252L144.606 64.5914C142.987 63.6671 139.613 64.984 139.613 67.8493Z" fill="#F6F6F6" stroke="#575D68" stroke-width="0.5" stroke-miterlimit="10"/>
<path d="M139.613 67.8492V149.847C139.613 150.547 139.795 151.235 140.142 151.843C140.488 152.452 140.987 152.959 141.589 153.317L233.187 207.624C233.799 207.987 234.497 208.182 235.209 208.188C235.921 208.194 236.622 208.012 237.241 207.66C237.859 207.307 238.374 206.797 238.732 206.182C239.089 205.566 239.278 204.867 239.278 204.155V122.904C239.278 122.193 239.09 121.494 238.732 120.879C238.375 120.264 237.862 119.754 237.244 119.401L143.245 65.7402C142.876 65.5293 142.458 65.4191 142.032 65.4207C141.607 65.4223 141.19 65.5355 140.822 65.749C140.454 65.9626 140.149 66.269 139.937 66.6375C139.724 67.0061 139.613 67.4239 139.613 67.8492Z" fill="#F6F6F6" stroke="#575D68" stroke-width="0.5" stroke-miterlimit="10"/>
<path d="M143.207 74.4833V139.432C143.207 139.774 143.296 140.109 143.467 140.405C143.638 140.701 143.883 140.947 144.179 141.118L232.484 192.183C232.704 192.31 232.953 192.377 233.207 192.376C233.461 192.376 233.71 192.309 233.929 192.181C234.148 192.053 234.33 191.87 234.456 191.65C234.582 191.429 234.647 191.179 234.645 190.926L234.165 125.725C234.161 125.139 234.002 124.564 233.703 124.059C233.405 123.555 232.978 123.138 232.467 122.852L144.591 73.6718C144.449 73.5926 144.289 73.5517 144.127 73.5534C143.965 73.555 143.806 73.599 143.666 73.681C143.526 73.7631 143.41 73.8803 143.33 74.021C143.249 74.1618 143.207 74.3211 143.207 74.4833Z" fill="#F6F6F6" stroke="#575D68" stroke-width="0.5" stroke-miterlimit="10"/>
<path d="M183.347 173.804C184.906 173.364 185.662 171.21 185.036 168.993C184.41 166.775 182.64 165.334 181.081 165.773C179.522 166.213 178.766 168.367 179.392 170.585C180.017 172.803 181.788 174.244 183.347 173.804Z" fill="#F6F6F6" stroke="#575D68" stroke-width="0.5" stroke-miterlimit="10"/>
<path d="M156.243 120.399L151.242 117.495L151.258 110.816L156.26 113.721L156.243 120.399Z" fill="#DDDEDF"/>
<path d="M184.74 136.945L158.545 121.735L158.561 115.056L184.757 130.267L184.74 136.945Z" fill="#DDDEDF"/>
<path d="M222.261 142.256L151.186 101.312L151.206 85.8811L222.281 126.824L222.261 142.256Z" fill="#DDDEDF"/>
<path d="M156.243 129.425L151.242 126.521L151.258 119.842L156.26 122.747L156.243 129.425Z" fill="#DDDEDF"/>
<path d="M184.74 145.972L158.545 130.762L158.561 124.083L184.757 139.293L184.74 145.972Z" fill="#DDDEDF"/>
<path d="M156.243 139.083L151.242 136.179L151.258 129.5L156.26 132.404L156.243 139.083Z" fill="#DDDEDF"/>
<path d="M184.74 155.63L158.545 140.419L158.561 133.74L184.757 148.951L184.74 155.63Z" fill="#DDDEDF"/>
<path d="M193.758 142.133L188.756 139.229L188.772 132.55L193.775 135.454L193.758 142.133Z" fill="#DDDEDF"/>
<path d="M222.253 158.679L196.058 143.469L196.074 136.79L222.269 152L222.253 158.679Z" fill="#DDDEDF"/>
<path d="M193.758 151.159L188.756 148.255L188.772 141.576L193.775 144.48L193.758 151.159Z" fill="#DDDEDF"/>
<path d="M222.253 167.705L196.058 152.495L196.074 145.816L222.269 161.026L222.253 167.705Z" fill="#DDDEDF"/>
<path d="M193.758 160.817L188.756 157.913L188.772 151.234L193.775 154.138L193.758 160.817Z" fill="#DDDEDF"/>
<path d="M222.253 177.363L196.058 162.152L196.074 155.473L222.269 170.684L222.253 177.363Z" fill="#DDDEDF"/>
<path d="M153.588 127.762L150.826 121.701L151.713 121.216L153.379 124.875L155.676 120.404L156.692 121.718L153.588 127.762Z" fill="#B5B5B5"/>
<path d="M191.093 159.153L188.331 153.092L189.218 152.608L190.884 156.267L193.182 151.795L194.197 153.109L191.093 159.153Z" fill="#B5B5B5"/>
<path d="M313.064 103.044L319.564 99.2943" stroke="#575D68" stroke-width="0.5" stroke-miterlimit="10"/>
<path d="M250.244 118.421L269.519 129.342L277.378 124.813L277.562 117.069L258.844 106.134L250.244 111.175V118.421Z" fill="#F6F6F6" stroke="#575D68" stroke-width="0.5" stroke-miterlimit="10"/>
<path d="M250.244 111.175L269.218 122.06L277.145 117.319" fill="#F6F6F6"/>
<path d="M250.244 111.175L269.218 122.06L277.145 117.319" stroke="#575D68" stroke-width="0.5" stroke-miterlimit="10"/>
<path d="M269.465 122.06V129.259" stroke="#575D68" stroke-width="0.5" stroke-miterlimit="10"/>
<path d="M275.179 133.896V107.367C275.179 107.333 275.187 107.301 275.204 107.272C275.221 107.243 275.245 107.219 275.274 107.202C275.303 107.186 275.335 107.177 275.369 107.177C275.402 107.177 275.435 107.186 275.464 107.202L280.824 110.295V137.355L275.179 133.896Z" fill="#F6F6F6" stroke="#575D68" stroke-width="0.5" stroke-miterlimit="10"/>
<path d="M290.475 132.351L280.824 137.355V110.295L290.475 105.231V132.351Z" fill="#F6F6F6" stroke="#575D68" stroke-width="0.5" stroke-miterlimit="10"/>
<path d="M275.463 107.202L284.961 101.871V103.552L289.319 105.839" fill="#F6F6F6"/>
<path d="M275.463 107.202L284.961 101.871V103.552L289.319 105.839" stroke="#575D68" stroke-width="0.5" stroke-miterlimit="10"/>
<path d="M284.962 103.551L277.145 107.999" stroke="#575D68" stroke-width="0.5" stroke-miterlimit="10"/>
<path d="M277.376 190.936C277.771 190.617 278.222 190.374 278.706 190.221C279.345 189.994 280.046 190.009 280.675 190.264" fill="#F6F6F6"/>
<path d="M277.376 190.936C277.771 190.617 278.222 190.374 278.706 190.221C279.345 189.994 280.046 190.009 280.675 190.264" stroke="#575D68" stroke-width="0.5" stroke-miterlimit="10"/>
<path d="M159.699 54.7533L150.546 49.4543L150.577 23.3832L159.73 28.683L159.699 54.7533Z" fill="#F6F6F6" stroke="#575D68" stroke-width="0.5" stroke-miterlimit="10"/>
<path d="M128.449 15.0771L128.464 2.86502L148.003 14.1772L147.988 26.3901L128.449 15.0771Z" fill="#F6F6F6" stroke="#575D68" stroke-width="0.5" stroke-miterlimit="10"/>
<path d="M117.85 36.6348L117.865 24.4227L137.404 35.7349L137.389 47.9478L117.85 36.6348Z" fill="#F6F6F6" stroke="#575D68" stroke-width="0.5" stroke-miterlimit="10"/>
<path d="M164.252 68.2687L164.278 46.5245L178.888 54.9825L178.861 76.7268L164.252 68.2687Z" fill="#F6F6F6" stroke="#575D68" stroke-width="0.5" stroke-miterlimit="10"/>
<path d="M281.632 230.183C281.798 230.285 288.648 227.465 291.066 226.927C292.673 226.654 294.325 226.916 295.768 227.674L297.657 228.683C298.378 229.056 298.964 229.645 299.333 230.367C299.703 231.09 299.836 231.91 299.716 232.713C299.692 232.949 299.633 233.181 299.54 233.4C298.968 234.663 296.809 235.369 295.665 235.992L291.06 238.501L285.352 241.611C284.92 241.846 284.437 241.971 283.945 241.974C283.452 241.977 282.967 241.857 282.533 241.627C280.401 240.633 278.322 239.528 276.306 238.317C273.546 236.452 276.134 233.029 278.223 231.948L281.632 230.183Z" fill="#F6F6F6" stroke="#575D68" stroke-width="0.5" stroke-miterlimit="10"/>
<path d="M299.54 231.594C298.967 232.857 296.809 233.563 295.664 234.187L291.06 236.696L285.352 239.805C284.92 240.041 284.436 240.165 283.944 240.168C283.452 240.171 282.967 240.052 282.532 239.822C280.4 238.828 278.322 237.723 276.306 236.511C276.053 236.345 275.827 236.142 275.633 235.911" fill="#F6F6F6"/>
<path d="M299.54 231.594C298.967 232.857 296.809 233.563 295.664 234.187L291.06 236.696L285.352 239.805C284.92 240.041 284.436 240.165 283.944 240.168C283.452 240.171 282.967 240.052 282.532 239.822C280.4 238.828 278.322 237.723 276.306 236.511C276.053 236.345 275.827 236.142 275.633 235.911" stroke="#575D68" stroke-width="0.5" stroke-miterlimit="10"/>
<path d="M220.494 229.055L225.674 226.133C225.674 226.133 228.342 226.107 228.565 226.101C228.787 226.095 231.308 226.327 231.308 226.327C230.862 227.187 230.147 227.876 229.272 228.29C227.749 229.055 222.869 230.056 222.869 230.056" fill="#F6F6F6"/>
<path d="M220.494 229.055L225.674 226.133C225.674 226.133 228.342 226.107 228.565 226.101C228.787 226.095 231.308 226.327 231.308 226.327C230.862 227.187 230.147 227.876 229.272 228.29C227.749 229.055 222.869 230.056 222.869 230.056" stroke="#575D68" stroke-width="0.5" stroke-miterlimit="10"/>
<path d="M195.912 240.108C195.912 240.108 210.163 236.107 216.489 231.584C222.815 227.06 228.548 226.914 232.501 226.37C234.386 226.111 236.698 226.919 238.602 227.835C240.302 228.653 242.947 229.66 241.317 230.609C239.539 231.644 235.163 234.99 233.243 235.354C226.859 236.563 219.727 240.988 216.489 243.551C211.349 247.619 204.715 251.989 204.715 251.989" fill="#F6F6F6"/>
<path d="M195.912 240.108C195.912 240.108 210.163 236.107 216.489 231.584C222.815 227.06 228.548 226.914 232.501 226.37C234.386 226.111 236.698 226.919 238.602 227.835C240.302 228.653 242.947 229.66 241.317 230.609C239.539 231.644 235.163 234.99 233.243 235.354C226.859 236.563 219.727 240.988 216.489 243.551C211.349 247.619 204.715 251.989 204.715 251.989" stroke="#575D68" stroke-width="0.5" stroke-miterlimit="10"/>
<path d="M171.022 275.198C171.022 275.198 144.253 288.278 126.534 290.881C115.476 292.506 99.777 286.298 98.2585 278.512C94.8152 260.854 102.948 258.712 102.948 258.712L144.318 254.488L159.251 257.504" fill="#DDDEDF"/>
<path d="M171.022 275.198C171.022 275.198 144.253 288.278 126.534 290.881C115.476 292.506 99.777 286.298 98.2585 278.512C94.8152 260.854 102.948 258.712 102.948 258.712L144.318 254.488L159.251 257.504" stroke="#575D68" stroke-width="0.5" stroke-miterlimit="10"/>
<path style="mix-blend-mode:multiply" d="M171.022 275.198C171.022 275.198 144.253 288.278 126.534 290.881C115.476 292.506 99.777 286.298 98.2585 278.512C94.8152 260.854 102.948 258.712 102.948 258.712L144.318 254.488L159.251 257.504" fill="url(#paint1_linear_3_31248)"/>
<path d="M195.204 251.01C195.204 251.01 201.921 253.355 204.715 251.989C207.508 250.623 208.467 247.637 208.47 245.063C208.481 236.911 202.39 236.563 202.39 236.563" fill="#F6F6F6"/>
<path d="M195.204 251.01C195.204 251.01 201.921 253.355 204.715 251.989C207.508 250.623 208.467 247.637 208.47 245.063C208.481 236.911 202.39 236.563 202.39 236.563" stroke="#575D68" stroke-width="0.5" stroke-miterlimit="10"/>
<path d="M154.392 273.708C154.136 273.894 153.874 274.072 153.61 274.245C151.517 275.584 149.331 276.773 147.069 277.804C140.738 280.756 133.384 274.744 126.477 276.228C120.748 277.459 114.757 275.485 109.779 272.709C106.488 270.874 98.7779 266.469 98.646 262.147C98.6745 260.99 98.8917 259.846 99.289 258.759C100.589 254.503 113.499 232.994 113.425 229.851C113.311 224.997 111.324 214.532 111.772 209.654C112.624 200.378 113.344 195.193 116.452 186.467C117.954 182.251 119.865 177.979 123.297 175.107C126.73 172.236 132.061 171.195 135.698 173.803C137.686 169.516 139.047 164.966 139.737 160.291C140.246 156.132 154.345 168.723 154.868 170.452C155.11 171.249 151.459 176.753 154.128 178.485C162.141 183.683 170.102 185.078 176.921 191.638C183.723 198.181 196.618 229.876 201.561 235.575C204.678 239.169 209.337 245.552 204.83 250.153C204.275 250.698 203.615 251.125 202.891 251.407C202.166 251.69 201.391 251.822 200.614 251.796C194.535 251.675 188.887 248.908 183.877 245.535C175.718 240.04 174.04 233.586 165.694 225.055C166.653 230.59 165.814 236.287 163.3 241.31C161.654 244.666 159.842 251.925 157.818 254.485C157.363 255.047 157.104 255.743 157.081 256.466C157.059 257.189 157.274 257.899 157.693 258.488C158.354 259.338 159.137 260.085 160.016 260.704C160.334 260.942 160.71 261.265 160.614 261.65C160.554 261.822 160.446 261.974 160.304 262.089C159.191 263.175 157.429 264.88 157.227 266.516C157.113 267.439 157.534 268.392 157.363 269.375C157.222 270.203 156.907 270.992 156.439 271.689C155.878 272.475 155.186 273.158 154.392 273.708Z" fill="#F6F6F6" stroke="#575D68" stroke-width="0.5" stroke-miterlimit="10"/>
<path d="M152.265 171.878C154.914 173.682 159.731 172.513 162.432 171.638C165.533 170.635 166.882 169.905 168.489 167.067C169.929 164.525 171.059 161.819 171.856 159.008C172.202 157.924 172.386 156.794 172.402 155.656C172.377 154.464 172.041 153.298 171.981 152.108C171.861 149.759 172.813 147.5 173.177 145.176C174.337 137.762 169.604 132.217 163.814 128.464C162.159 127.382 160.302 126.648 158.356 126.305C151.014 125.039 144.213 130.827 141.472 133.972C138.348 137.559 136.112 142.832 137.64 147.337C139.108 151.495 139.818 155.883 139.737 160.291" fill="#F6F6F6"/>
<path d="M152.265 171.878C154.914 173.682 159.731 172.513 162.432 171.638C165.533 170.635 166.882 169.905 168.489 167.067C169.929 164.525 171.059 161.819 171.856 159.008C172.202 157.924 172.386 156.794 172.402 155.656C172.377 154.464 172.041 153.298 171.981 152.108C171.861 149.759 172.813 147.5 173.177 145.176C174.337 137.762 169.604 132.217 163.814 128.464C162.159 127.382 160.302 126.648 158.356 126.305C151.014 125.039 144.213 130.827 141.472 133.972C138.348 137.559 136.112 142.832 137.64 147.337C139.108 151.495 139.818 155.883 139.737 160.291" stroke="#575D68" stroke-width="0.5" stroke-miterlimit="10"/>
<path d="M139.984 160.38C140.748 162.012 141.975 163.384 143.511 164.327C145.363 165.17 147.465 165.281 149.396 164.637C152.421 163.79 156.584 162.282 157.953 159.181C158.878 157.088 158.476 154.671 157.992 152.435C157.542 150.358 156.478 143.656 160.7 146.217C163.199 147.733 164.153 151.347 163.237 154.031C163.884 153.767 164.472 153.378 164.968 152.886C165.464 152.394 165.858 151.808 166.127 151.163C166.508 150.039 166.687 148.856 166.656 147.669C166.636 146.931 166.694 146.192 166.829 145.466C167.52 142.487 170.701 140.804 172.695 138.777" stroke="#575D68" stroke-width="0.5" stroke-miterlimit="10"/>
<path d="M143.6 132.517C144.319 131.316 145.309 130.299 146.49 129.547C146.908 129.276 147.389 129.12 147.886 129.094C148.383 129.069 148.877 129.174 149.321 129.4C149.764 129.625 150.14 129.964 150.411 130.381C150.683 130.798 150.84 131.279 150.866 131.776C150.872 134.89 149.402 136.493 147.567 137.021C146.787 137.313 145.925 137.295 145.158 136.971C144.391 136.647 143.777 136.042 143.441 135.28" fill="#F6F6F6"/>
<path d="M143.6 132.517C144.319 131.316 145.309 130.299 146.49 129.547C146.908 129.276 147.389 129.12 147.886 129.094C148.383 129.069 148.877 129.174 149.321 129.4C149.764 129.625 150.14 129.964 150.411 130.381C150.683 130.798 150.84 131.279 150.866 131.776C150.872 134.89 149.402 136.493 147.567 137.021C146.787 137.313 145.925 137.295 145.158 136.971C144.391 136.647 143.777 136.042 143.441 135.28" stroke="#575D68" stroke-width="0.5" stroke-miterlimit="10"/>
<path d="M136.937 172.826C136.937 172.826 135.199 176.703 138.201 179.164C143.345 183.378 154.133 182.289 156.513 180.346" stroke="#575D68" stroke-width="0.5" stroke-miterlimit="10"/>
<path d="M134.795 172.826C134.795 172.826 132.67 177.317 136.34 180.167C142.628 185.048 155.815 183.787 158.724 181.536" stroke="#575D68" stroke-width="0.5" stroke-miterlimit="10"/>
<path d="M141.93 123.402C140.464 122.719 138.873 122.347 137.257 122.308C135.649 122.317 134.05 122.528 132.495 122.938C128.932 123.778 125.866 126.86 123.775 129.757C115.209 141.617 122.636 155.173 126.312 167.439C128.865 175.957 130.109 185.624 125.761 193.381C132.379 192.213 137.141 185.799 138.203 179.164C139.27 172.614 138.91 165.912 137.148 159.514C135.565 153.708 133.267 150.21 134.184 145.16C135.459 138.132 138.961 135.181 145.306 135.187C146.012 135.259 146.723 135.111 147.341 134.762C150.542 132.473 146.642 126.904 144.707 125.206C143.872 124.475 142.937 123.867 141.93 123.402Z" fill="#F6F6F6" stroke="#575D68" stroke-width="0.5" stroke-miterlimit="10"/>
<path d="M113.18 237.972C114.771 236.036 115.72 233.652 115.895 231.152C116.062 228.668 115.97 226.174 115.622 223.709L114.995 217.805" stroke="#575D68" stroke-width="0.5" stroke-miterlimit="10"/>
<path d="M157.35 215.879C157.838 217.548 164.548 224.255 165.926 225.124" stroke="#575D68" stroke-width="0.5" stroke-miterlimit="10"/>
<path d="M140.653 147.709C139.925 145.599 139.666 143.356 139.895 141.136C139.929 140.028 140.188 138.937 140.658 137.933C141.128 136.928 141.798 136.029 142.627 135.292" stroke="#575D68" stroke-width="0.5" stroke-miterlimit="10"/>
<path d="M152.871 162.099C154.985 161.487 156.399 159.382 156.816 157.221C157.104 155.033 156.957 152.809 156.382 150.678" stroke="#575D68" stroke-width="0.5" stroke-miterlimit="10"/>
<path d="M132.864 124.834C132.864 124.834 138.432 122.105 142.722 124.973C145.436 126.951 147.474 129.716 148.559 132.894" stroke="#575D68" stroke-width="0.5" stroke-miterlimit="10"/>
<path d="M145.97 133.717C143.396 134.003 140.748 134.312 138.473 135.549C137.081 136.355 135.87 137.44 134.917 138.736C133.964 140.032 133.288 141.511 132.933 143.08C132.245 146.237 132.494 149.526 133.649 152.543" stroke="#575D68" stroke-width="0.5" stroke-miterlimit="10"/>
<path d="M133.639 186.869C135.467 184.425 136.677 181.576 137.167 178.563C137.651 175.562 137.837 172.52 137.724 169.482" stroke="#575D68" stroke-width="0.5" stroke-miterlimit="10"/>
<path style="mix-blend-mode:multiply" d="M157.35 215.879L145.609 200.566C145.609 200.566 147.175 221.003 145.609 239.854C144.044 258.704 136.437 263.421 136.437 263.421L141.23 271.457C141.23 271.457 129.083 274.344 120.766 276.459C122.67 276.688 124.598 276.61 126.477 276.228C133.383 274.744 140.737 280.757 147.069 277.804C149.33 276.774 151.516 275.584 153.61 274.245C153.874 274.072 154.136 273.894 154.391 273.708C155.185 273.158 155.878 272.475 156.439 271.689C156.907 270.992 157.222 270.203 157.363 269.375C157.534 268.392 157.112 267.439 157.226 266.516C157.429 264.88 159.19 263.175 160.304 262.089C160.446 261.974 160.553 261.822 160.614 261.65C160.709 261.265 160.333 260.942 160.016 260.704C159.136 260.085 158.353 259.338 157.692 258.488C157.273 257.899 157.058 257.189 157.081 256.466C157.103 255.743 157.362 255.047 157.817 254.485C159.841 251.925 161.653 244.666 163.299 241.31C165.813 236.287 166.652 230.59 165.693 225.055C167.139 226.533 168.375 227.944 169.489 229.303C164.998 225.251 160.931 220.753 157.35 215.879Z" fill="url(#paint2_linear_3_31248)"/>
<path style="mix-blend-mode:multiply" d="M124.481 244.066C129.81 233.497 132.482 226.183 128.032 215.456C123.582 204.73 118.973 186.766 121.135 180.937C121.64 179.53 121.871 178.041 121.818 176.547C119.294 179.311 117.721 182.904 116.452 186.467C113.344 195.193 112.624 200.378 111.772 209.654C111.324 214.532 113.311 224.996 113.425 229.851C113.491 232.677 103.06 250.353 100.014 256.979C106.696 255.639 120.491 251.98 124.481 244.066Z" fill="url(#paint3_linear_3_31248)"/>
<path style="mix-blend-mode:multiply" d="M202.126 251.614C202.042 250.632 201.838 249.664 201.519 248.732C198.193 238.703 190.57 222.503 181.926 215.834C173.281 209.165 163.119 200.832 163.119 200.832L167.984 215.917L157.35 215.879C159.7 219.303 162.507 222.391 165.693 225.055C174.04 233.586 175.717 240.04 183.877 245.535C188.886 248.908 194.534 251.675 200.613 251.796C201.123 251.799 201.631 251.738 202.126 251.614Z" fill="url(#paint4_linear_3_31248)"/>
<path d="M227.23 230.216L231.086 228.079L237.987 227.553" fill="#F6F6F6"/>
<path d="M227.23 230.216L231.086 228.079L237.987 227.553" stroke="#575D68" stroke-width="0.5" stroke-miterlimit="10"/>
<path d="M240.487 228.744L234.117 229.768L229.527 232.553" fill="#F6F6F6"/>
<path d="M240.487 228.744L234.117 229.768L229.527 232.553" stroke="#575D68" stroke-width="0.5" stroke-miterlimit="10"/>
<path d="M232.608 232.641L236.72 230.944H242.947C242.755 231.507 242.354 231.975 241.827 232.251C240.871 232.829 237.403 233.186 237.403 233.186L234.117 235.066" fill="#F6F6F6"/>
<path d="M232.608 232.641L236.72 230.944H242.947C242.755 231.507 242.354 231.975 241.827 232.251C240.871 232.829 237.403 233.186 237.403 233.186L234.117 235.066" stroke="#575D68" stroke-width="0.5" stroke-miterlimit="10"/>
<path d="M87.3793 241.015L130.098 267.182C131.851 268.189 135.492 266.4 135.128 263.538L133.453 251.6C133.402 251.235 133.268 250.885 133.061 250.579C132.855 250.273 132.581 250.018 132.261 249.833L88.1247 224.755C86.3727 223.744 83.5005 225.636 83.9701 228.425L86.183 239.243C86.2341 239.61 86.3685 239.961 86.5759 240.268C86.7832 240.575 87.058 240.831 87.3793 241.015Z" fill="#F6F6F6" stroke="#575D68" stroke-width="0.5" stroke-miterlimit="10"/>
<path d="M86.8701 242.739L129.544 267.25C129.938 267.476 130.388 267.588 130.843 267.571C131.297 267.554 131.738 267.411 132.115 267.156C132.492 266.901 132.789 266.546 132.974 266.13C133.159 265.715 133.224 265.256 133.16 264.805L131.486 252.868C131.434 252.502 131.3 252.153 131.094 251.847C130.887 251.54 130.614 251.285 130.294 251.101L87.6155 226.479C87.2214 226.251 86.7714 226.139 86.3167 226.155C85.862 226.171 85.4209 226.314 85.0436 226.568C84.6663 226.823 84.3679 227.178 84.1825 227.593C83.9972 228.009 83.9321 228.468 83.9949 228.918L85.6738 240.967C85.7249 241.334 85.8593 241.685 86.0666 241.992C86.274 242.299 86.5488 242.554 86.8701 242.739Z" fill="#F6F6F6" stroke="#575D68" stroke-width="0.5" stroke-miterlimit="10"/>
<path d="M89.4141 280.737L87.9678 281.404L89.4141 289.195L101.895 298.592L103.341 297.526V289.138L89.4141 280.737Z" fill="#F6F6F6" stroke="#575D68" stroke-width="0.5" stroke-miterlimit="10"/>
<path d="M102.339 243.651C102.153 243.552 100.854 244.345 100.942 244.535C101.637 246.046 104.316 249.718 103.326 255.658C102.471 260.786 97.2808 266.166 94.1009 269.043C93.3149 269.753 92.6868 270.62 92.2571 271.589C91.8274 272.557 91.6057 273.605 91.6064 274.664V283.268L99.2618 288.217L100.388 287.328L99.9036 278.867C99.8181 277.208 100.35 276.636 101.584 275.523C104.213 273.153 108.774 268.578 110.5 264.003C112.193 259.513 110.621 248.035 110.621 248.035L102.339 243.651Z" fill="#F6F6F6" stroke="#575D68" stroke-width="0.5" stroke-miterlimit="10"/>
<path d="M101.247 244.258C101.207 244.235 101.162 244.226 101.116 244.231C101.071 244.236 101.028 244.256 100.995 244.286C100.961 244.317 100.938 244.358 100.929 244.403C100.92 244.447 100.925 244.494 100.944 244.535C102.519 248.233 102.968 252.313 102.234 256.265C101.38 261.393 96.1895 266.773 93.0096 269.65C92.2236 270.36 91.5954 271.227 91.1657 272.196C90.736 273.164 90.5144 274.212 90.5151 275.271V283.875L99.2965 288.862L98.8123 279.474C98.7674 278.655 98.9058 277.837 99.2174 277.078C99.529 276.319 100.006 275.64 100.613 275.089C103.242 272.718 107.804 268.143 109.529 263.568C111.222 259.078 109.529 248.642 109.529 248.642L101.247 244.258Z" fill="#F6F6F6" stroke="#575D68" stroke-width="0.5" stroke-miterlimit="10"/>
<path d="M87.9692 281.788V290.592L101.621 298.434C101.649 298.45 101.681 298.459 101.713 298.459C101.745 298.459 101.777 298.45 101.805 298.434C101.832 298.418 101.856 298.395 101.872 298.367C101.888 298.339 101.896 298.308 101.896 298.276V289.805L88.2987 281.603C88.2657 281.583 88.2281 281.572 88.1896 281.571C88.1511 281.571 88.1132 281.58 88.0797 281.599C88.0462 281.618 88.0183 281.646 87.9989 281.679C87.9795 281.712 87.9692 281.75 87.9692 281.788Z" fill="#F6F6F6" stroke="#575D68" stroke-width="0.5" stroke-miterlimit="10"/>
<path d="M62.0647 152.943C62.0647 156.423 54.5638 159.244 45.3109 159.244C36.0581 159.244 28.5571 156.423 28.5571 152.943V148.603C28.5571 148.603 38.3713 146.642 45.3109 146.642C52.2506 146.642 62.0647 148.603 62.0647 148.603V152.943Z" fill="#F6F6F6" stroke="#575D68" stroke-width="0.5" stroke-miterlimit="10"/>
<path d="M45.3109 154.904C54.5638 154.904 62.0647 152.083 62.0647 148.603C62.0647 145.123 54.5638 142.301 45.3109 142.301C36.058 142.301 28.5571 145.123 28.5571 148.603C28.5571 152.083 36.058 154.904 45.3109 154.904Z" fill="#F6F6F6" stroke="#575D68" stroke-width="0.5" stroke-miterlimit="10"/>
<path d="M46.3904 13.7425H44.2319C43.7225 13.7425 43.3096 14.1555 43.3096 14.6649V149.543C43.3096 150.052 43.7225 150.465 44.2319 150.465H46.3904C46.8997 150.465 47.3127 150.052 47.3127 149.543V14.6649C47.3127 14.1555 46.8997 13.7425 46.3904 13.7425Z" fill="#E9DDF7" stroke="#575D68" stroke-width="0.5" stroke-miterlimit="10"/>
<path d="M85.5925 43.5861L46.8701 73.4558C46.8701 73.4558 32.1086 56.251 31.3905 55.299C28.4116 51.3494 27.8501 45.5127 30.4367 39.1146C35.0094 27.8034 47.6894 19.0208 58.7582 19.498C62.412 19.5192 65.9178 20.9445 68.5498 23.4789C72.3931 27.3893 85.5925 43.5861 85.5925 43.5861Z" fill="#E9DDF7" stroke="#575D68" stroke-width="0.5" stroke-miterlimit="10"/>
<path d="M85.5925 43.5861L46.8701 73.4558C46.8701 73.4558 32.1086 56.251 31.3905 55.299C28.4116 51.3494 27.8501 45.5127 30.4367 39.1146C35.0094 27.8034 47.6894 19.0208 58.7582 19.498C62.412 19.5192 65.9178 20.9445 68.5498 23.4789C72.3931 27.3893 85.5925 43.5861 85.5925 43.5861Z" fill="#F6F6F6" stroke="#575D68" stroke-width="0.5" stroke-miterlimit="10"/>
<path d="M77.2915 71.5561C87.5994 62.8033 91.0128 49.8868 84.9156 42.7062C78.8184 35.5256 65.5194 36.8001 55.2115 45.5528C44.9036 54.3055 41.4901 67.222 47.5874 74.4026C53.6846 81.5832 66.9836 80.3088 77.2915 71.5561Z" fill="#E9DDF7" stroke="#575D68" stroke-width="0.5" stroke-miterlimit="10"/>
<path d="M77.2915 71.5561C87.5994 62.8033 91.0128 49.8868 84.9156 42.7062C78.8184 35.5256 65.5194 36.8001 55.2115 45.5528C44.9036 54.3055 41.4901 67.222 47.5874 74.4026C53.6846 81.5832 66.9836 80.3088 77.2915 71.5561Z" fill="#F6F6F6" stroke="#575D68" stroke-width="0.5" stroke-miterlimit="10"/>
<path d="M71.4268 38.182C71.1759 39.0856 70.8733 39.974 70.5207 40.8429C66.3718 51.1056 55.5491 59.2867 45.311 60.3588" stroke="#575D68" stroke-width="0.5" stroke-miterlimit="10"/>
<path d="M67.0863 62.7362C68.6732 62.1469 70.0606 61.1201 71.0882 59.7749C72.1157 58.4297 72.7412 56.821 72.8924 55.135C73.0435 53.449 72.7141 51.7547 71.9423 50.2482C71.1704 48.7416 69.9877 47.4845 68.531 46.6223C66.9493 45.6826 65.4419 44.6232 64.022 43.4534C63.1771 42.762 62.3673 42.0267 61.5733 41.2747C58.4683 42.9049 55.6274 44.9951 53.147 47.4743C53.4744 48.535 53.7837 49.6015 54.0489 50.6813C54.4789 52.433 54.8392 54.2054 55.169 55.9839C55.4079 57.2668 55.9243 58.4818 56.6822 59.5441C57.4401 60.6063 58.4211 61.49 59.5564 62.1333C60.6917 62.7766 61.9539 63.1638 63.2546 63.268C64.5554 63.3721 65.8631 63.1906 67.0863 62.7362Z" fill="url(#paint5_linear_3_31248)" stroke="#575D68" stroke-width="0.5" stroke-miterlimit="10"/>
<path d="M56.062 53.8582C56.3297 52.5885 56.8449 51.3839 57.5782 50.3133C58.3115 49.2426 59.2484 48.3269 60.3356 47.6184C61.4227 46.9098 62.6388 46.4224 63.9143 46.1838C65.1899 45.9453 66.4999 45.9603 67.7697 46.228" stroke="#575D68" stroke-width="0.5" stroke-miterlimit="10"/>
<path style="mix-blend-mode:multiply" d="M166.956 114.835C166.956 114.835 86.2276 44.528 85.5785 43.5962C83.3225 40.3572 79.523 38.2888 74.5317 38.0736C63.4628 37.5963 50.7829 46.379 46.2101 57.6902C44.3235 62.3568 44.1348 66.7113 45.3141 70.2663L49.5245 178.302C50.0729 186.228 57.0161 190.005 64.5823 192.429C87.97 199.92 112.754 197.14 144.353 178.912C159.64 170.093 168.885 158.364 172.694 149.476C178.888 135.027 175.858 121.818 166.956 114.835Z" fill="url(#paint6_linear_3_31248)"/>
<defs>
<linearGradient id="paint0_linear_3_31248" x1="161.569" y1="255.898" x2="150.299" y2="317.583" gradientUnits="userSpaceOnUse">
<stop stop-color="white" stop-opacity="0"/>
<stop offset="0.15656" stop-color="#F8F8F8" stop-opacity="0.3322"/>
<stop offset="0.30605" stop-color="#F2F2F2" stop-opacity="0.61849"/>
<stop offset="0.43035" stop-color="#EEEEEE" stop-opacity="0.82518"/>
<stop offset="0.52473" stop-color="#EBEBEB" stop-opacity="0.95242"/>
<stop offset="0.57814" stop-color="#EAEAEA"/>
</linearGradient>
<linearGradient id="paint1_linear_3_31248" x1="172.447" y1="269.958" x2="116.693" y2="274.11" gradientUnits="userSpaceOnUse">
<stop stop-color="white" stop-opacity="0"/>
<stop offset="0.15656" stop-color="#F8F8F8" stop-opacity="0.3322"/>
<stop offset="0.30605" stop-color="#F2F2F2" stop-opacity="0.61849"/>
<stop offset="0.43035" stop-color="#EEEEEE" stop-opacity="0.82518"/>
<stop offset="0.52473" stop-color="#EBEBEB" stop-opacity="0.95242"/>
<stop offset="0.57814" stop-color="#EAEAEA"/>
</linearGradient>
<linearGradient id="paint2_linear_3_31248" x1="128.011" y1="213.289" x2="157.371" y2="281.202" gradientUnits="userSpaceOnUse">
<stop offset="0.09869" stop-color="white" stop-opacity="0"/>
<stop offset="0.16838" stop-color="#FDFDFD" stop-opacity="0.08001"/>
<stop offset="0.98024" stop-color="#EAEAEA"/>
</linearGradient>
<linearGradient id="paint3_linear_3_31248" x1="146.095" y1="209.121" x2="77.8856" y2="223.949" gradientUnits="userSpaceOnUse">
<stop stop-color="white" stop-opacity="0"/>
<stop offset="0.07997" stop-color="#FCFCFC" stop-opacity="0.12443"/>
<stop offset="0.26401" stop-color="#F7F7F7" stop-opacity="0.38734"/>
<stop offset="0.44071" stop-color="#F2F2F2" stop-opacity="0.60635"/>
<stop offset="0.60524" stop-color="#EFEFEF" stop-opacity="0.77693"/>
<stop offset="0.75491" stop-color="#ECECEC" stop-opacity="0.8993"/>
<stop offset="0.88478" stop-color="#EBEBEB" stop-opacity="0.97366"/>
<stop offset="0.98024" stop-color="#EAEAEA"/>
</linearGradient>
<linearGradient id="paint4_linear_3_31248" x1="164.778" y1="216.57" x2="221.192" y2="259.577" gradientUnits="userSpaceOnUse">
<stop stop-color="white" stop-opacity="0"/>
<stop offset="0.07461" stop-color="#FDFDFD" stop-opacity="0.08001"/>
<stop offset="0.94387" stop-color="#EAEAEA"/>
</linearGradient>
<linearGradient id="paint5_linear_3_31248" x1="54.3256" y1="38.8997" x2="74.3436" y2="70.9286" gradientUnits="userSpaceOnUse">
<stop stop-color="#FF5400"/>
<stop offset="0.09677" stop-color="#FD7534"/>
<stop offset="0.20756" stop-color="#FB9768"/>
<stop offset="0.31141" stop-color="#FAB292"/>
<stop offset="0.40515" stop-color="#F9C5AF"/>
<stop offset="0.48548" stop-color="#F8D1C2"/>
<stop offset="0.54309" stop-color="#F8D5C8"/>
</linearGradient>
<linearGradient id="paint6_linear_3_31248" x1="62.9183" y1="90.2415" x2="125.505" y2="169.744" gradientUnits="userSpaceOnUse">
<stop stop-color="#F8D5C8"/>
<stop offset="1" stop-color="#F6F6F6" stop-opacity="0"/>
</linearGradient>
</defs>
</svg>
