<svg width="134" height="151" viewBox="0 0 134 151" fill="none" xmlns="http://www.w3.org/2000/svg">
<path d="M100.826 143.747L107.404 140.14C118.755 133.987 127.242 123.484 130.637 111.072C131.91 106.405 132.758 101.525 133.183 96.6447C136.79 56.1199 107.828 12.9431 70.0617 2.75887C42.6916 -4.56104 16.1701 11.8822 6.72852 35.115" fill="#EEEEEF"/>
<path d="M100.826 143.747L107.404 140.14C118.755 133.987 127.242 123.484 130.637 111.072C131.91 106.405 132.758 101.525 133.183 96.6447C136.79 56.1199 107.828 12.9431 70.0617 2.75887C42.6916 -4.56104 16.1701 11.8822 6.72852 35.115" stroke="#575D68" stroke-width="0.5" stroke-miterlimit="10"/>
<path d="M124.802 102.055C121.513 139.397 90.9606 158.28 57.7558 146.399C25.824 135.048 1 98.6603 1 63.1216C1 25.7795 28.3701 1.37978 63.4844 10.7153C100.19 20.6874 128.303 62.5912 124.802 102.055Z" fill="#F6F6F6" stroke="#575D68" stroke-width="0.5" stroke-miterlimit="10"/>
<path d="M124.802 102.055C121.513 139.397 90.9606 158.28 57.7558 146.399C25.824 135.048 1 98.6603 1 63.1216C1 25.7795 28.3701 1.37978 63.4844 10.7153C100.19 20.6874 128.303 62.5912 124.802 102.055Z" fill="#F6F6F6" stroke="#575D68" stroke-width="0.5" stroke-miterlimit="10"/>
<path d="M97.5378 82.9595C96.9013 90.0672 91.0666 93.5681 84.8076 91.3403C78.7607 89.2185 73.9868 82.323 73.9868 75.5335C73.9868 68.4258 79.185 63.8641 85.8684 65.5615C92.8701 67.5771 98.1744 75.5335 97.5378 82.9595Z" fill="#DDDEDF" stroke="#575D68" stroke-width="0.5" stroke-miterlimit="10"/>
<path d="M88.8388 87.415C82.7919 85.2933 78.0181 78.3977 78.0181 71.6082C78.0181 69.4865 78.4424 67.6831 79.2911 66.0918C76.1085 67.577 73.9868 71.0778 73.9868 75.6395C73.9868 82.3229 78.7607 89.3246 84.8076 91.4463C89.6875 93.1436 94.2491 91.4463 96.3709 87.3089C94.2491 88.2637 91.597 88.3698 88.8388 87.415Z" fill="#EEEEEF" stroke="#575D68" stroke-width="0.5" stroke-miterlimit="10"/>
<path d="M39.7213 48.0573C33.4623 46.36 28.5823 50.2851 27.9458 56.5442C30.0675 54.4225 33.2501 53.5738 36.751 54.5286C42.2674 56.0138 46.723 61.318 48.1021 67.1527C48.4203 68.744 48.5265 70.2292 48.4204 71.8205C48.4204 71.9266 48.4204 71.9266 48.4204 72.0327C49.3752 71.0779 50.1177 69.911 50.6482 68.5319C50.9664 67.5771 51.2847 66.5162 51.3908 65.3493C52.0273 57.8172 46.6169 49.8608 39.7213 48.0573Z" fill="#DDDEDF" stroke="#575D68" stroke-width="0.5" stroke-miterlimit="10"/>
<path d="M28.6899 80.2015L85.3397 112.133C84.1728 117.331 80.3537 122.105 74.7311 123.166L72.5033 123.59C58.9243 126.243 29.4325 112.982 29.2204 83.7023C29.2204 81.6867 29.1143 80.4136 28.6899 80.2015Z" fill="#DDDEDF" stroke="#575D68" stroke-width="0.5" stroke-miterlimit="10"/>
<path d="M29.2204 83.7023C29.2204 86.3544 29.5386 88.9005 29.963 91.3405L79.9293 120.832C82.6875 118.711 84.5971 115.528 85.4458 112.133L28.6899 80.2015C29.1143 80.4136 29.2204 81.6867 29.2204 83.7023Z" fill="#F6F6F6" stroke="#575D68" stroke-width="0.5" stroke-miterlimit="10"/>
</svg>
