<svg width="345" height="371" viewBox="0 0 345 371" fill="none" xmlns="http://www.w3.org/2000/svg">
<path d="M318.668 -62.406H-23.8022V370.187H318.668V-62.406Z" fill="#F6F6F6"/>
<path d="M-37 164.678L-36.9606 -112.373M469.386 120.47L177.302 289.8L-36.9606 164.706" stroke="#575D68" stroke-width="0.5" stroke-miterlimit="10"/>
<path d="M177.082 289.468L177.082 -53.5909" stroke="#575D68" stroke-width="0.5" stroke-miterlimit="10"/>
<path d="M241.729 253.759V226.826L288.413 253.759V280.692L241.729 253.759Z" fill="#F6F6F6" stroke="#575D68" stroke-width="0.5" stroke-miterlimit="10"/>
<path d="M241.729 226.826L428.314 119.094L474.998 146.027L288.413 253.759L241.729 226.826Z" fill="#F6F6F6" stroke="#575D68" stroke-width="0.5" stroke-miterlimit="10"/>
<path d="M288.411 280.692L474.996 172.96V146.027L288.411 253.759V280.692Z" fill="#F6F6F6" stroke="#575D68" stroke-width="0.5" stroke-miterlimit="10"/>
<path d="M292.041 255.101V275.3L471.782 171.398V151.317L292.041 255.101Z" fill="#F6F6F6" stroke="#575D68" stroke-width="0.5" stroke-miterlimit="10"/>
<path d="M292.041 260.736L313.345 248.367V259.18L292.041 271.11V260.736Z" fill="#F6F6F6" stroke="#575D68" stroke-width="0.5" stroke-miterlimit="10"/>
<path d="M313.344 259.18L314.638 260.063L318.564 257.689V239.785L313.344 242.799C313.205 242.879 313.344 259.18 313.344 259.18Z" fill="#F6F6F6" stroke="#575D68" stroke-width="0.5" stroke-miterlimit="10"/>
<path d="M314.638 260.063V242.258" stroke="#575D68" stroke-width="0.5" stroke-miterlimit="10"/>
<path d="M313.346 248.367L307.592 246.121" stroke="#575D68" stroke-width="0.5" stroke-miterlimit="10"/>
<path d="M324.839 236.163L324.916 251.885L327.985 250.229V234.363L324.839 236.163Z" fill="#F6F6F6" stroke="#575D68" stroke-width="0.5" stroke-miterlimit="10"/>
<path d="M324.918 251.885L318.567 248.367V239.785L324.84 236.163L324.918 251.885Z" fill="#F6F6F6" stroke="#575D68" stroke-width="0.5" stroke-miterlimit="10"/>
<path d="M335.137 238.992V244.024L363.625 227.649V222.536L335.137 238.992Z" fill="#F6F6F6" stroke="#575D68" stroke-width="0.5" stroke-miterlimit="10"/>
<path d="M335.138 244.024L327.986 239.785V235.064L335.138 238.991V244.024Z" fill="#F6F6F6" stroke="#575D68" stroke-width="0.5" stroke-miterlimit="10"/>
<path d="M33.4002 85.5086C33.2553 85.4914 33.1085 85.5107 32.973 85.5648C32.8375 85.6189 32.7177 85.706 32.6245 85.8182C30.1516 88.2824 28.499 91.4494 27.892 94.8873C27.243 98.1209 28.0875 101.532 27.1744 104.671C26.332 107.567 25.1357 110.341 24.2757 113.226C23.9725 114.243 23.4621 115.491 24.0523 116.472C24.9227 117.917 27.298 118.459 28.8363 118.508C29.2473 118.562 29.6651 118.525 30.0605 118.401C30.4559 118.276 30.8193 118.067 31.1255 117.788C31.1735 117.732 31.2169 117.644 31.1645 117.593C31.1121 117.542 31.049 117.692 31.1177 117.667" fill="#F6F6F6"/>
<path d="M33.4002 85.5086C33.2553 85.4914 33.1085 85.5107 32.973 85.5648C32.8375 85.6189 32.7177 85.706 32.6245 85.8182C30.1516 88.2824 28.499 91.4494 27.892 94.8873C27.243 98.1209 28.0875 101.532 27.1744 104.671C26.332 107.567 25.1357 110.341 24.2757 113.226C23.9725 114.243 23.4621 115.491 24.0523 116.472C24.9227 117.917 27.298 118.459 28.8363 118.508C29.2473 118.562 29.6651 118.525 30.0605 118.401C30.4559 118.276 30.8193 118.067 31.1255 117.788C31.1735 117.732 31.2169 117.644 31.1645 117.593C31.1121 117.542 31.049 117.692 31.1177 117.667" stroke="#575D68" stroke-width="0.5" stroke-miterlimit="10"/>
<path d="M-1.007 34.8817L-1.17261 52.0835L62.0277 89.469V71.3255L-1.007 34.8817Z" fill="#F6F6F6" stroke="#575D68" stroke-width="0.5" stroke-miterlimit="10"/>
<path d="M10.1991 56.0022L13.1275 58.0531V48.0556L8.43604 45.2589V49.8136" fill="#F6F6F6"/>
<path d="M10.1991 56.0022L13.1275 58.0531V48.0556L8.43604 45.2589V49.8136" stroke="#575D68" stroke-width="0.5" stroke-miterlimit="10"/>
<path d="M37.9693 72.0526L40.8978 74.1035V64.106L36.2063 61.3093V65.864" fill="#F6F6F6"/>
<path d="M37.9693 72.0526L40.8978 74.1035V64.106L36.2063 61.3093V65.864" stroke="#575D68" stroke-width="0.5" stroke-miterlimit="10"/>
<path d="M49.5149 69.1934L54.2058 71.9895V81.987L49.5149 79.5891V69.1934Z" fill="#F6F6F6" stroke="#575D68" stroke-width="0.5" stroke-miterlimit="10"/>
<path d="M37.9624 69.1153C38.4888 69.1153 38.9155 68.4846 38.9155 67.7065C38.9155 66.9284 38.4888 66.2976 37.9624 66.2976C37.436 66.2976 37.0093 66.9284 37.0093 67.7065C37.0093 68.4846 37.436 69.1153 37.9624 69.1153Z" fill="#F6F6F6" stroke="#575D68" stroke-width="0.5" stroke-miterlimit="10"/>
<path d="M1.63856 155.566C1.06698 154.33 -4.4743 90.0513 2.42162 57.8547C2.91592 55.5469 3.56242 53.1383 5.22225 51.4604C6.25029 50.4212 9.37601 48.8929 10.7208 50.2784C12.0428 51.6403 9.9852 55.5654 9.87051 57.221C9.68694 59.8713 10.9354 62.3769 11.9057 64.8501C18.4809 81.6099 17.366 102.458 18.5134 120.225C19.8068 140.251 20.77 160.295 21.4031 180.357C16.0123 172.967 8.80942 167.09 0.488294 163.292C0.456999 162 2.18089 156.738 1.63856 155.566Z" fill="#F6F6F6" stroke="#575D68" stroke-width="0.5" stroke-miterlimit="10"/>
<path d="M8.87732 72.5088C4.9291 76.1997 5.04732 82.3855 5.45649 87.7748C6.93522 107.251 8.41394 126.727 9.89265 146.203C9.91056 147.23 10.1098 148.247 10.4811 149.205C10.9254 150.057 11.5176 150.823 12.23 151.467C14.919 154.155 17.8757 156.561 21.054 158.648C23.262 135.738 20.3499 112.624 12.5284 90.9783" fill="#F6F6F6"/>
<path d="M8.87732 72.5088C4.9291 76.1997 5.04732 82.3855 5.45649 87.7748C6.93522 107.251 8.41394 126.727 9.89265 146.203C9.91056 147.23 10.1098 148.247 10.4811 149.205C10.9254 150.057 11.5176 150.823 12.23 151.467C14.919 154.155 17.8757 156.561 21.054 158.648C23.262 135.738 20.3499 112.624 12.5284 90.9783" stroke="#575D68" stroke-width="0.5" stroke-miterlimit="10"/>
<path d="M22.5823 89.3505C27.3685 89.3505 31.2486 81.2995 31.2486 71.368C31.2486 61.4365 27.3685 53.3855 22.5823 53.3855C17.796 53.3855 13.916 61.4365 13.916 71.368C13.916 81.2995 17.796 89.3505 22.5823 89.3505Z" fill="#F6F6F6" stroke="#575D68" stroke-width="0.5" stroke-miterlimit="10"/>
<path d="M22.5593 63.6927C20.9671 63.3883 19.1953 63.5782 17.1356 65.6977C16.1483 66.6512 15.5415 67.9312 15.4284 69.2991C15.3898 70.1109 15.5164 70.9221 15.8005 71.6835C16.0846 72.445 16.5202 73.1408 17.0811 73.729C17.642 74.3172 18.3164 74.7854 19.0635 75.1053C19.8106 75.4252 20.6148 75.5901 21.4276 75.5901C21.8076 75.588 22.1865 75.5497 22.5593 75.476C23.6646 71.626 23.6646 67.5427 22.5593 63.6927V63.6927Z" fill="#F6F6F6" stroke="#575D68" stroke-width="0.5" stroke-miterlimit="10"/>
<path d="M22.6373 80.8387C21.4146 83.0952 20.6305 86.282 22.6042 87.9226C24.1793 89.2318 29.169 91.031 31.0261 90.1669C31.6443 98.0128 28.3573 103.537 27.8206 111.389C27.0286 122.974 26.5393 134.575 26.3526 146.191C29.5069 146.847 31.7095 149.583 34.1171 151.724C36.3272 153.687 38.8723 155.237 41.6309 156.299C42.6103 156.676 43.7301 156.985 44.6817 156.543C45.4274 156.197 45.9012 155.464 46.481 154.881C47.0708 154.297 47.7838 153.852 48.5678 153.579C49.3517 153.306 50.1869 153.211 51.012 153.303C49.8862 150.596 49.5904 147.627 49.3537 144.706C48.7515 137.27 48.453 129.818 48.4583 122.35C48.4662 111.996 48.9544 101.134 44.3168 91.8779C43.6342 90.5154 40.4677 79.6252 40.3844 75.8599C40.308 72.4028 38.6692 69.1978 37.068 66.1328C36.0765 64.2349 34.3235 66.9421 33.2592 67.9539C31.8778 69.2672 30.5167 70.6032 29.2156 71.9965C26.6562 74.6526 24.4456 77.6239 22.6373 80.8387Z" fill="#F6F6F6" stroke="#575D68" stroke-width="0.5" stroke-miterlimit="10"/>
<path d="M38.8394 97.8841C38.9616 100.504 39.1587 103.121 39.1723 105.745C39.1978 110.677 38.5797 115.587 37.9626 120.481C39.2456 121.263 40.6558 121.815 42.1291 122.11C42.5243 122.226 42.9463 122.212 43.3331 122.071C44.0547 121.726 44.1247 120.743 44.0916 119.944C43.7671 112.127 43.4426 104.309 43.1182 96.4917C43.0312 94.3968 42.8703 92.1696 41.4553 90.5023" stroke="#575D68" stroke-width="0.5" stroke-miterlimit="10"/>
<path d="M51.616 76.9211C52.1424 76.9211 52.5691 76.2904 52.5691 75.5123C52.5691 74.7342 52.1424 74.1035 51.616 74.1035C51.0896 74.1035 50.6628 74.7342 50.6628 75.5123C50.6628 76.2904 51.0896 76.9211 51.616 76.9211Z" fill="#F6F6F6" stroke="#575D68" stroke-width="0.5" stroke-miterlimit="10"/>
<path d="M288.417 193.623V206.962C288.417 207.2 288.48 207.434 288.598 207.641C288.717 207.847 288.888 208.019 289.093 208.138L316.18 223.914C316.427 224.058 316.709 224.134 316.995 224.133C317.282 224.133 317.563 224.056 317.81 223.91L376.463 189.466C376.799 189.268 377.078 188.986 377.272 188.647C377.465 188.308 377.567 187.925 377.567 187.534L377.238 176.427C376.971 176.683 376.673 176.904 376.35 177.085L316.996 210.484L288.417 193.623Z" fill="#F6F6F6" stroke="#575D68" stroke-width="0.5" stroke-miterlimit="10"/>
<path d="M350.243 160.038L376.919 175.597C377.016 175.654 377.096 175.735 377.152 175.832C377.208 175.93 377.238 176.04 377.238 176.152C377.238 176.265 377.208 176.375 377.152 176.473C377.096 176.57 377.015 176.651 376.918 176.708L317.894 211.06C317.621 211.218 317.312 211.302 316.997 211.301C316.681 211.301 316.372 211.216 316.1 211.057L289.069 195.219C288.839 195.085 288.649 194.893 288.518 194.662C288.386 194.431 288.318 194.169 288.319 193.903C288.321 193.637 288.392 193.376 288.526 193.147C288.66 192.917 288.853 192.727 289.083 192.595L346.242 159.973C346.859 159.64 347.551 159.471 348.251 159.482C348.952 159.494 349.638 159.685 350.243 160.038Z" fill="#F6F6F6" stroke="#575D68" stroke-width="0.5" stroke-miterlimit="10"/>
<path d="M350.135 200.157C349.574 201.51 348.523 202.602 347.192 203.214C345.985 203.637 344.895 203.02 344.895 201.379C344.895 198.997 346.974 196.101 349.066 196.101C350.772 196.101 350.998 198.216 350.135 200.157Z" fill="#F6F6F6" stroke="#575D68" stroke-width="0.5" stroke-miterlimit="10"/>
<path d="M316.998 211.582V217.423" stroke="#575D68" stroke-width="0.5" stroke-miterlimit="10"/>
<path d="M369.711 192.043L318.215 222.114V212.628L366.242 184.686" fill="#F6F6F6"/>
<path d="M369.711 192.043L318.215 222.114V212.628L366.242 184.686" stroke="#575D68" stroke-width="0.5" stroke-miterlimit="10"/>
<path d="M322.155 211.634C322.476 211.376 322.817 211.143 323.174 210.936C323.698 210.632 324.083 210.571 324.328 210.723C324.554 210.853 324.69 211.174 324.691 211.663C324.696 212.134 324.589 212.599 324.377 213.02C324.095 213.576 323.66 214.039 323.121 214.353C322.988 214.438 322.845 214.505 322.694 214.553L322.7 216.753L322.169 217.061L322.155 211.634ZM322.693 213.974C322.848 213.929 322.996 213.862 323.132 213.776C323.447 213.6 323.708 213.343 323.889 213.031C324.07 212.719 324.164 212.364 324.16 212.004C324.158 211.278 323.773 211.151 323.187 211.492C323.009 211.59 322.842 211.707 322.687 211.839L322.693 213.974Z" fill="#575D68"/>
<path d="M325.229 215.284L325.228 214.844L325.648 214.054C326.657 212.178 327.113 211.228 327.117 210.426C327.116 209.888 326.919 209.504 326.327 209.848C325.977 210.089 325.688 210.41 325.486 210.785L325.314 210.379C325.583 209.895 325.968 209.486 326.436 209.189C327.29 208.693 327.652 209.266 327.654 210.024C327.656 211.002 327.128 212.101 326.295 213.662L325.978 214.237L325.978 214.253L327.76 213.218L327.762 213.813L325.229 215.284Z" fill="#575D68"/>
<path d="M330.988 209.229C330.993 211.03 330.495 212.314 329.617 212.825C328.842 213.275 328.314 212.61 328.298 210.865C328.293 209.089 328.864 207.778 329.669 207.31C330.505 206.825 330.984 207.542 330.988 209.229ZM328.835 210.561C328.838 211.939 329.158 212.536 329.646 212.253C330.195 211.934 330.455 210.926 330.452 209.573C330.448 208.269 330.196 207.559 329.641 207.882C329.171 208.155 328.831 209.119 328.835 210.561Z" fill="#575D68"/>
<path d="M331.618 210.748C331.922 210.8 332.235 210.737 332.497 210.572C332.768 210.414 332.993 210.188 333.149 209.917C333.306 209.645 333.39 209.338 333.391 209.024C333.383 208.286 332.882 208.259 332.363 208.561L332.065 208.734L332.063 208.196L332.362 208.023C332.612 207.877 332.823 207.672 332.977 207.426C333.131 207.181 333.223 206.901 333.244 206.613C333.243 206.189 333.041 205.931 332.547 206.218C332.229 206.43 331.959 206.706 331.755 207.029L331.613 206.589C331.881 206.182 332.235 205.837 332.649 205.579C333.43 205.126 333.786 205.539 333.787 206.183C333.764 206.812 333.504 207.41 333.058 207.855L333.058 207.872C333.547 207.718 333.945 207.977 333.947 208.718C333.932 209.212 333.792 209.694 333.54 210.119C333.288 210.544 332.931 210.898 332.505 211.147C332.203 211.353 331.835 211.439 331.473 211.387L331.618 210.748Z" fill="#575D68"/>
<path d="M22.8487 304.346L31.4594 326.733C31.4594 329.63 36.7638 331.978 43.3071 331.978C49.8503 331.978 55.1547 329.63 55.1547 326.733L63.7124 303.491C63.7133 303.488 63.7136 303.486 63.7132 303.483C63.7129 303.481 63.7119 303.478 63.7104 303.476C63.7088 303.474 63.7068 303.472 63.7044 303.471C63.7021 303.47 63.6995 303.469 63.6968 303.469L23.0983 303.968C23.054 303.969 23.0107 303.982 22.9721 304.003C22.9334 304.025 22.9005 304.056 22.8761 304.093C22.8517 304.13 22.8365 304.172 22.8317 304.216C22.8269 304.26 22.8327 304.305 22.8487 304.346Z" fill="#F6F6F6" stroke="#575D68" stroke-width="0.5" stroke-miterlimit="10"/>
<path d="M43.3061 311.629C54.7933 311.629 64.1054 307.507 64.1054 302.421C64.1054 297.335 54.7933 293.212 43.3061 293.212C31.819 293.212 22.5068 297.335 22.5068 302.421C22.5068 307.507 31.819 311.629 43.3061 311.629Z" fill="#F6F6F6" stroke="#575D68" stroke-width="0.5" stroke-miterlimit="10"/>
<path d="M43.1228 309.965C53.3019 309.965 61.5537 306.587 61.5537 302.421C61.5537 298.255 53.3019 294.877 43.1228 294.877C32.9437 294.877 24.6919 298.255 24.6919 302.421C24.6919 306.587 32.9437 309.965 43.1228 309.965Z" fill="#DDDEDF" stroke="#575D68" stroke-width="0.5" stroke-miterlimit="10"/>
<path d="M38.9957 302.421V286.848L44.6016 282.263L38.9957 257.941L43.306 249.834L50.7582 282.263L43.306 290.37L46.6538 306.585C46.6538 306.585 39.7793 307.965 36.3928 306.197L38.9957 302.421Z" fill="#F6F6F6" stroke="#575D68" stroke-width="0.5" stroke-miterlimit="10"/>
<path d="M44.3938 265.884C61.7321 265.884 75.7875 245.763 75.7875 220.942C75.7875 196.121 61.7321 176 44.3938 176C27.0555 176 13 196.121 13 220.942C13 245.763 27.0555 265.884 44.3938 265.884Z" fill="#F6F6F6" stroke="#575D68" stroke-width="0.5" stroke-miterlimit="10"/>
<path d="M219.827 18.1784V187.887L223.226 188.861L425.551 69.0909L428.95 -99.6431L425.551 -100.617L219.827 18.1784Z" fill="#F6F6F6" stroke="#575D68" stroke-width="0.5" stroke-miterlimit="10"/>
<path d="M223.227 19.1528V188.861L428.951 70.0654V-99.6431L223.227 19.1528Z" fill="#F6F6F6" stroke="#575D68" stroke-width="0.5" stroke-miterlimit="10"/>
<path d="M227.187 20.9165V171.89L425.819 55.6152V-93.7923L227.187 20.9165Z" stroke="#575D68" stroke-width="0.5" stroke-miterlimit="10"/>
<path d="M338.914 116.839C338.095 118.679 336.566 120.216 335.205 120.692C333.684 121.224 332.311 120.447 332.311 118.378C332.311 115.377 334.931 111.727 337.567 111.727C339.717 111.727 340.002 114.393 338.914 116.839Z" fill="#F6F6F6" stroke="#575D68" stroke-width="0.5" stroke-miterlimit="10"/>
<path d="M338.019 116.244C338.772 114.552 338.866 112.756 338.142 111.809C337.955 111.755 337.761 111.728 337.565 111.727C334.929 111.727 332.309 115.377 332.309 118.378C332.276 119.016 332.46 119.646 332.831 120.166C333.319 120.3 333.837 120.276 334.311 120.096C335.671 119.621 337.201 118.083 338.019 116.244Z" fill="#F6F6F6" stroke="#575D68" stroke-width="0.5" stroke-miterlimit="10"/>
<g opacity="0.26">
<g opacity="0.26">
<g opacity="0.26">
<path opacity="0.26" d="M430.024 8.63179L227.054 133.086L223.862 12.3781L426.831 -112.075L430.024 8.63179Z" fill="#F6F6F6"/>
<path style="mix-blend-mode:multiply" opacity="0.26" d="M430.024 8.63179L227.054 133.086L223.862 12.3781L426.831 -112.075L430.024 8.63179Z" fill="url(#paint0_linear_3_32309)"/>
<path opacity="0.26" d="M222.808 109.18L352.073 29.9191C352.073 29.9191 341.344 10.556 335.785 7.32622C330.226 4.09648 322.886 27.4387 316.674 35.3202C310.462 43.2017 299.639 6.49623 289.087 7.65043C278.536 8.80464 222.808 109.18 222.808 109.18Z" fill="#AFAFAF"/>
<path style="mix-blend-mode:multiply" opacity="0.26" d="M222.808 109.18L352.073 29.9191C352.073 29.9191 341.344 10.556 335.785 7.32622C330.226 4.09648 322.886 27.4387 316.674 35.3202C310.462 43.2017 299.639 6.49623 289.087 7.65043C278.536 8.80464 222.808 109.18 222.808 109.18Z" fill="url(#paint1_linear_3_32309)"/>
<path opacity="0.26" d="M331.362 28.9554C331.362 28.9554 338.487 7.20885 342.292 2.62715C346.096 -1.95454 350.737 7.94041 360.539 1.79504C370.342 -4.35033 377.879 -16.2608 380.25 -17.9543C382.621 -19.6479 429.335 -17.455 429.335 -17.455L324.288 46.9556C324.734 46.6822 331.362 28.9554 331.362 28.9554Z" fill="#AFAFAF"/>
<path style="mix-blend-mode:multiply" opacity="0.26" d="M331.362 28.9554C331.362 28.9554 338.487 7.20885 342.292 2.62715C346.096 -1.95454 350.737 7.94041 360.539 1.79504C370.342 -4.35033 377.879 -16.2608 380.25 -17.9543C382.621 -19.6479 429.335 -17.455 429.335 -17.455L324.288 46.9556C324.734 46.6822 331.362 28.9554 331.362 28.9554Z" fill="url(#paint2_linear_3_32309)"/>
<path opacity="0.26" d="M251.982 93.3437C251.982 93.3437 294.793 22.1614 300.024 14.4464C305.256 6.73146 331.769 15.8548 338.811 19.4954C345.853 23.136 349.187 35.0266 369.18 3.12482C389.173 -28.777 402.755 -40.4789 413.524 -32.9241C424.293 -25.3692 429.334 -17.4549 429.334 -17.4549L251.982 93.3437Z" fill="#AFAFAF"/>
<path opacity="0.26" d="M230.261 197.256C231.136 196.076 445.712 65.1499 445.712 65.1499L429.334 -17.4549L220.133 110.819L230.261 197.256Z" fill="#F6F6F6"/>
<path opacity="0.26" d="M230.261 197.256C231.136 196.076 445.712 65.1499 445.712 65.1499L429.334 -17.4549L220.133 110.819L230.261 197.256Z" fill="#AFAFAF"/>
<path opacity="0.26" d="M329.665 43.6582C329.665 43.6582 356.774 37.0678 357.907 59.9373C359.203 86.1259 300.577 154.141 300.577 154.141L354.661 120.979C354.661 120.979 372.991 71.8457 362.472 51.2045C354.707 35.968 329.665 43.6582 329.665 43.6582Z" fill="#F6F6F6"/>
<path style="mix-blend-mode:multiply" opacity="0.26" d="M428.998 -17.2453L429.334 -17.4549C429.334 -17.4549 424.293 -25.3693 413.523 -32.9241C402.754 -40.4789 389.173 -28.777 369.18 3.12486C349.187 35.0267 345.853 23.1361 338.811 19.4954C331.769 15.8548 305.256 6.73145 300.024 14.4464C295.472 21.1596 262.47 75.9211 253.976 90.0302L220.133 110.82L230.261 197.256C231.136 196.076 445.711 65.1499 445.711 65.1499L428.998 -17.2453Z" fill="url(#paint3_linear_3_32309)"/>
<path style="mix-blend-mode:multiply" opacity="0.26" d="M232.808 156.547C232.808 156.547 330.34 99.1937 337.164 94.6005L343.988 90.0074C342.423 85.003 338.76 83.1469 334.508 83.273C325.003 83.555 314.468 90.1505 304.365 93.9328C295.745 97.1597 287.097 98.4854 278.495 105.138C272.881 109.48 267.394 116.018 261.758 118.243C256.242 120.421 251.514 118.069 246.089 119.465C241.033 120.767 235.776 125.199 230.706 129.524C227.051 132.643 222.62 137.298 222.182 142.643C222.113 143.947 222.217 145.255 222.491 146.532C223.097 150.004 223.702 153.475 224.307 156.946C224.491 158 224.707 159.115 225.348 159.545C226.255 160.152 227.663 159.187 228.753 159.32C229.721 159.438 230.377 160.417 231.364 160.466C232.352 160.516 233.146 157.768 232.808 156.547Z" fill="url(#paint4_linear_3_32309)"/>
<path style="mix-blend-mode:multiply" opacity="0.26" d="M266.313 136.45C270.129 133.323 274.036 130.141 277.867 128.835C278.992 128.451 280.139 128.213 281.255 127.27C282.523 126.2 283.552 124.393 284.524 122.67C287.689 117.057 291.044 111.091 294.924 106.487C299.108 101.521 304.31 99.5711 308.861 97.8983C310.463 97.247 312.151 96.8323 313.872 96.6673C315.45 96.6467 317.022 96.8564 318.54 97.2897L325.49 98.9261C328.282 99.5833 331.494 100.216 332.581 103.782L269.204 142.642C262.652 146.66 254.085 153.987 247.646 155.861C241.118 157.761 251.204 148.094 253.524 146.189C257.761 142.71 262.082 139.917 266.313 136.45Z" fill="url(#paint5_linear_3_32309)"/>
<path style="mix-blend-mode:multiply" opacity="0.26" d="M296.328 73.3519C298.994 69.2895 301.405 64.6049 304.535 61.627C309.36 57.0358 314.283 57.8839 318.85 58.1508C325.587 58.5447 332.818 57.1565 340.175 54.0572C342.612 53.0304 345.095 51.8082 347.412 51.5965C349.729 51.3848 351.915 52.3459 352.739 55.0522C334.874 73.3481 316.671 91.6778 297.846 103.318C290.821 107.687 283.334 111.265 275.522 113.987C272.179 115.143 259.319 121.684 261.365 113.814C263.455 105.774 273.489 97.6915 277.909 93.486C284.238 87.4634 290.848 81.7028 296.328 73.3519Z" fill="url(#paint6_linear_3_32309)"/>
</g>
</g>
</g>
<path d="M147.506 139.105V171.988C147.506 173.276 147.85 174.541 148.501 175.652C149.152 176.763 150.087 177.68 151.21 178.31C152.313 178.927 153.558 179.246 154.822 179.234C156.086 179.222 157.325 178.879 158.415 178.24C159.506 177.601 160.41 176.688 161.039 175.591C161.667 174.494 161.998 173.252 161.998 171.988V139.105C161.998 137.873 161.684 136.661 161.085 135.584C160.486 134.508 159.623 133.601 158.576 132.951C157.479 132.269 156.22 131.893 154.928 131.862C153.637 131.83 152.36 132.145 151.231 132.772C150.102 133.4 149.162 134.318 148.507 135.432C147.852 136.545 147.506 137.813 147.506 139.105Z" fill="#F6F6F6" stroke="#575D68" stroke-width="0.5" stroke-miterlimit="10"/>
<path d="M155.885 152.653V145.296C155.885 145.296 154.128 145.696 150.845 144.992C149.849 144.779 148.124 144.195 147.506 143.281V150.46C148.921 153.249 155.885 152.653 155.885 152.653Z" fill="#F6F6F6" stroke="#575D68" stroke-width="0.5" stroke-miterlimit="10"/>
<path d="M147.506 139.105V171.988C147.506 173.276 147.85 174.541 148.501 175.652C149.152 176.763 150.087 177.68 151.21 178.31C152.313 178.927 153.558 179.246 154.822 179.234C156.086 179.222 157.325 178.879 158.415 178.24C159.506 177.601 160.41 176.688 161.039 175.591C161.667 174.494 161.998 173.252 161.998 171.988V139.105C161.998 137.873 161.684 136.661 161.085 135.584C160.486 134.508 159.623 133.601 158.576 132.951C157.479 132.269 156.22 131.893 154.928 131.862C153.637 131.83 152.36 132.145 151.231 132.772C150.102 133.4 149.162 134.318 148.507 135.432C147.852 136.545 147.506 137.813 147.506 139.105Z" fill="url(#paint7_linear_3_32309)" stroke="#333333" stroke-width="0.5" stroke-miterlimit="10"/>
<path d="M155.885 152.653V145.296C155.885 145.296 154.128 145.696 150.845 144.992C149.849 144.779 148.124 144.195 147.506 143.281V150.46C148.921 153.249 155.885 152.653 155.885 152.653Z" fill="url(#paint8_linear_3_32309)" stroke="#333333" stroke-width="0.5" stroke-miterlimit="10"/>
<path style="mix-blend-mode:multiply" opacity="0.5" d="M136.489 212.685C117.711 192.006 110.438 150.193 120.275 119.477C130.112 88.7601 153.392 80.5937 172.17 101.272C190.947 121.951 198.221 163.763 188.384 194.48C178.547 225.197 155.267 233.363 136.489 212.685ZM171.212 104.263C153.442 84.6955 131.412 92.4235 122.103 121.49C112.794 150.558 119.678 190.125 137.447 209.693C155.217 229.262 177.246 221.534 186.555 192.466C195.864 163.399 188.981 123.832 171.212 104.263ZM140.977 198.67C126.924 183.194 121.48 151.9 128.842 128.911C136.205 105.923 153.628 99.8106 167.681 115.287C181.735 130.763 187.179 162.056 179.817 185.045C172.454 208.034 155.031 214.146 140.977 198.67ZM166.723 118.278C153.678 103.912 137.505 109.585 130.671 130.925C123.837 152.265 128.89 181.313 141.935 195.679C154.981 210.045 171.154 204.371 177.988 183.032C184.822 161.692 179.769 132.644 166.723 118.278L166.723 118.278ZM131.607 227.929C107.69 201.592 98.4261 148.337 110.955 109.214C123.485 70.0915 153.135 59.6902 177.052 86.0275C200.968 112.365 210.233 165.621 197.704 204.743C185.174 243.866 155.523 254.267 131.607 227.929ZM176.094 89.0187C153.186 63.7917 124.785 73.7545 112.784 111.228C100.783 148.701 109.657 199.711 132.565 224.938C155.473 250.165 183.874 240.203 195.875 202.729C207.876 165.256 199.002 114.246 176.094 89.0187ZM127.089 242.036C98.4178 210.462 87.3116 146.618 102.332 99.7175C117.352 52.8171 152.898 40.3477 181.569 71.9213C210.241 103.495 221.347 167.339 206.327 214.239C191.307 261.14 155.761 273.609 127.089 242.036ZM180.611 74.9125C152.948 44.4492 118.652 56.4801 104.161 101.731C89.6684 146.983 100.384 208.581 128.047 239.044C155.711 269.508 190.006 257.477 204.498 212.226C218.99 166.974 208.275 105.376 180.611 74.9125Z" fill="url(#paint9_radial_3_32309)"/>
<path style="mix-blend-mode:multiply" d="M122.007 82.6431L131.806 75.4933C132.731 74.8763 133.526 74.0841 134.147 73.1613C134.639 72.26 134.877 71.2413 134.833 70.2149C134.839 68.7534 134.474 67.3143 133.772 66.0325C133.118 64.7786 132.125 63.7341 130.907 63.0183C129.706 62.3211 128.737 62.193 128 62.6339C127.264 63.0754 126.895 64.0499 126.892 65.5574C126.896 66.382 126.956 67.2053 127.072 68.0217L122.292 65.6895C122.126 64.5998 122.042 63.4991 122.04 62.3968C121.979 60.8453 122.357 59.3081 123.132 57.9632C123.46 57.4137 123.912 56.9499 124.454 56.6099C124.995 56.2698 125.609 56.0633 126.245 56.0073C127.902 55.9357 129.538 56.3946 130.916 57.3174C132.717 58.3526 134.312 59.7117 135.62 61.3267C136.89 62.8851 137.883 64.6511 138.555 66.547C139.204 68.3643 139.537 70.2797 139.539 72.2097C139.618 74.0464 139.282 75.8772 138.556 77.5654C137.711 79.0848 136.501 80.3693 135.036 81.3026L129.253 85.4715L139.509 91.4242L139.499 97.4191L122 87.2622L122.007 82.6431ZM143.551 95.1478L153.35 87.9979C154.275 87.3809 155.07 86.5888 155.691 85.6659C156.183 84.7646 156.42 83.7459 156.377 82.7196C156.382 81.258 156.017 79.819 155.316 78.5372C154.662 77.2832 153.669 76.2388 152.451 75.523C151.25 74.8258 150.281 74.6976 149.544 75.1386C148.808 75.5801 148.438 76.5546 148.436 78.062C148.439 78.8866 148.5 79.71 148.616 80.5264L143.836 78.1942C143.67 77.1045 143.586 76.0038 143.583 74.9015C143.523 73.3499 143.901 71.8128 144.676 70.4679C145.003 69.9184 145.456 69.4546 145.997 69.1145C146.539 68.7745 147.153 68.568 147.789 68.5119C149.445 68.4404 151.081 68.8993 152.46 69.822C154.261 70.8572 155.856 72.2164 157.164 73.8313C158.434 75.3898 159.427 77.1557 160.099 79.0517C160.748 80.869 161.081 82.7844 161.083 84.7144C161.162 86.5511 160.826 88.3818 160.1 90.0701C159.255 91.5895 158.045 92.874 156.58 93.8072L150.797 97.9761L161.052 103.929L161.043 109.924L143.544 99.7669L143.551 95.1478ZM177.439 97.0841C176.642 96.0002 176.016 94.7994 175.585 93.5241C175.147 92.2933 174.919 90.9973 174.911 89.6906C174.868 88.6323 175.104 87.5812 175.596 86.6434C175.781 86.2846 176.045 85.9722 176.367 85.7293C176.69 85.4864 177.062 85.3193 177.458 85.2402C178.373 85.1168 179.301 85.3324 180.068 85.8467C181.094 86.466 181.982 87.2905 182.676 88.2687C183.471 89.3536 184.097 90.5542 184.529 91.8287C184.966 93.0605 185.194 94.357 185.203 95.6642C185.245 96.7218 185.009 97.7718 184.518 98.7094C184.333 99.0682 184.07 99.3806 183.747 99.6235C183.425 99.8664 183.052 100.034 182.657 100.113C181.742 100.237 180.814 100.022 180.046 99.5081C179.02 98.8889 178.132 98.0636 177.439 97.0841V97.0841ZM181.654 95.7681C181.884 95.5306 182.058 95.2448 182.163 94.9315C182.268 94.6182 182.302 94.2853 182.262 93.9572C182.267 93.0829 182.06 92.2204 181.661 91.4428C181.311 90.7116 180.755 90.0988 180.062 89.68C179.84 89.4961 179.565 89.3877 179.277 89.3706C178.989 89.3535 178.703 89.4285 178.46 89.5848C178.231 89.8227 178.057 90.1088 177.952 90.4224C177.847 90.736 177.813 91.0692 177.852 91.3976C177.848 92.2713 178.054 93.1332 178.453 93.91C178.803 94.6422 179.359 95.2557 180.052 95.6749C180.714 96.0586 181.248 96.0897 181.654 95.768V95.7681ZM208.083 135.924C206.328 136.233 204.09 135.598 201.37 134.019C198.733 132.445 196.44 130.353 194.63 127.869C192.586 125.128 191 122.073 189.934 118.823C188.806 115.496 188.233 112.005 188.237 108.491C188.243 104.986 188.83 102.22 189.999 100.193C190.47 99.2698 191.15 98.4696 191.985 97.8567C192.82 97.2438 193.787 96.8353 194.808 96.6638C196.842 96.3372 199.11 96.8997 201.612 98.3513C204.273 99.9343 206.565 102.069 208.334 104.613C210.228 107.229 211.701 110.126 212.701 113.198L208.615 114.123C207.903 112.009 206.91 110.002 205.663 108.154C204.564 106.562 203.127 105.233 201.456 104.261C200.228 103.442 198.741 103.104 197.28 103.312C196.626 103.46 196.014 103.756 195.493 104.179C194.972 104.602 194.555 105.139 194.276 105.75C193.46 107.5 193.079 109.422 193.165 111.352C193.165 113.664 193.533 115.963 194.256 118.159C194.933 120.293 195.942 122.307 197.247 124.125C198.349 125.709 199.77 127.045 201.418 128.047C202.66 128.888 204.155 129.269 205.648 129.125C206.99 128.842 208.168 128.04 208.924 126.894L213 132.36C211.475 134.425 209.837 135.613 208.083 135.924Z" fill="url(#paint10_linear_3_32309)"/>
<defs>
<linearGradient id="paint0_linear_3_32309" x1="327.273" y1="22.9747" x2="282.523" y2="-50.0086" gradientUnits="userSpaceOnUse">
<stop stop-color="#EAEAEA" stop-opacity="0"/>
<stop offset="0.093" stop-color="#E0E0E0" stop-opacity="0.17789"/>
<stop offset="0.24246" stop-color="#D1D1D1" stop-opacity="0.42721"/>
<stop offset="0.39392" stop-color="#C5C5C5" stop-opacity="0.63392"/>
<stop offset="0.54529" stop-color="#BBBBBB" stop-opacity="0.79434"/>
<stop offset="0.69667" stop-color="#B4B4B4" stop-opacity="0.90874"/>
<stop offset="0.84812" stop-color="#B0B0B0" stop-opacity="0.97723"/>
<stop offset="1" stop-color="#AFAFAF"/>
</linearGradient>
<linearGradient id="paint1_linear_3_32309" x1="285.885" y1="10.6941" x2="346.992" y2="110.354" gradientUnits="userSpaceOnUse">
<stop stop-color="#EAEAEA" stop-opacity="0"/>
<stop offset="0.08667" stop-color="#E0E0E0" stop-opacity="0.17789"/>
<stop offset="0.22597" stop-color="#D1D1D1" stop-opacity="0.42721"/>
<stop offset="0.36713" stop-color="#C5C5C5" stop-opacity="0.63392"/>
<stop offset="0.5082" stop-color="#BBBBBB" stop-opacity="0.79434"/>
<stop offset="0.64929" stop-color="#B4B4B4" stop-opacity="0.90874"/>
<stop offset="0.79044" stop-color="#B0B0B0" stop-opacity="0.97723"/>
<stop offset="0.93199" stop-color="#AFAFAF"/>
</linearGradient>
<linearGradient id="paint2_linear_3_32309" x1="372.093" y1="-8.84708" x2="381.291" y2="1.33507" gradientUnits="userSpaceOnUse">
<stop stop-color="#EAEAEA" stop-opacity="0"/>
<stop offset="0.093" stop-color="#E0E0E0" stop-opacity="0.17789"/>
<stop offset="0.24246" stop-color="#D1D1D1" stop-opacity="0.42721"/>
<stop offset="0.39392" stop-color="#C5C5C5" stop-opacity="0.63392"/>
<stop offset="0.54529" stop-color="#BBBBBB" stop-opacity="0.79434"/>
<stop offset="0.69667" stop-color="#B4B4B4" stop-opacity="0.90874"/>
<stop offset="0.84812" stop-color="#B0B0B0" stop-opacity="0.97723"/>
<stop offset="1" stop-color="#AFAFAF"/>
</linearGradient>
<linearGradient id="paint3_linear_3_32309" x1="332.868" y1="77.0529" x2="332.571" y2="16.3202" gradientUnits="userSpaceOnUse">
<stop stop-color="#EAEAEA" stop-opacity="0"/>
<stop offset="0.08667" stop-color="#E0E0E0" stop-opacity="0.17789"/>
<stop offset="0.22597" stop-color="#D1D1D1" stop-opacity="0.42721"/>
<stop offset="0.36713" stop-color="#C5C5C5" stop-opacity="0.63392"/>
<stop offset="0.5082" stop-color="#BBBBBB" stop-opacity="0.79434"/>
<stop offset="0.64929" stop-color="#B4B4B4" stop-opacity="0.90874"/>
<stop offset="0.79044" stop-color="#B0B0B0" stop-opacity="0.97723"/>
<stop offset="0.93199" stop-color="#AFAFAF"/>
</linearGradient>
<linearGradient id="paint4_linear_3_32309" x1="283.048" y1="115.988" x2="273.515" y2="100.441" gradientUnits="userSpaceOnUse">
<stop stop-color="#EAEAEA" stop-opacity="0"/>
<stop offset="0.08667" stop-color="#E0E0E0" stop-opacity="0.17789"/>
<stop offset="0.22597" stop-color="#D1D1D1" stop-opacity="0.42721"/>
<stop offset="0.36713" stop-color="#C5C5C5" stop-opacity="0.63392"/>
<stop offset="0.5082" stop-color="#BBBBBB" stop-opacity="0.79434"/>
<stop offset="0.64929" stop-color="#B4B4B4" stop-opacity="0.90874"/>
<stop offset="0.79044" stop-color="#B0B0B0" stop-opacity="0.97723"/>
<stop offset="0.93199" stop-color="#AFAFAF"/>
</linearGradient>
<linearGradient id="paint5_linear_3_32309" x1="288.313" y1="102.5" x2="301.828" y2="124.542" gradientUnits="userSpaceOnUse">
<stop offset="0.37313" stop-color="#AFAFAF"/>
<stop offset="0.45336" stop-color="#B8B8B8" stop-opacity="0.85056"/>
<stop offset="0.79206" stop-color="#DCDCDC" stop-opacity="0.24241"/>
<stop offset="0.94297" stop-color="#EAEAEA" stop-opacity="0"/>
</linearGradient>
<linearGradient id="paint6_linear_3_32309" x1="306.338" y1="62.3314" x2="316.908" y2="79.5693" gradientUnits="userSpaceOnUse">
<stop stop-color="#AFAFAF"/>
<stop offset="0.14315" stop-color="#B0B0B0" stop-opacity="0.97553"/>
<stop offset="0.29484" stop-color="#B5B5B5" stop-opacity="0.90281"/>
<stop offset="0.45046" stop-color="#BCBCBC" stop-opacity="0.78176"/>
<stop offset="0.60885" stop-color="#C6C6C6" stop-opacity="0.61212"/>
<stop offset="0.76937" stop-color="#D3D3D3" stop-opacity="0.39373"/>
<stop offset="0.92936" stop-color="#E2E2E2" stop-opacity="0.1305"/>
<stop offset="1" stop-color="#EAEAEA" stop-opacity="0"/>
</linearGradient>
<linearGradient id="paint7_linear_3_32309" x1="150.722" y1="131.369" x2="159.729" y2="185.411" gradientUnits="userSpaceOnUse">
<stop offset="0.10845" stop-color="#F6F6F6"/>
<stop offset="0.40995" stop-color="#EADDFA"/>
<stop offset="0.77755" stop-color="#DEC3FE"/>
<stop offset="1" stop-color="#DABAFF"/>
</linearGradient>
<linearGradient id="paint8_linear_3_32309" x1="145.534" y1="158.126" x2="155.143" y2="142.283" gradientUnits="userSpaceOnUse">
<stop offset="0.08745" stop-color="#F6F6F6"/>
<stop offset="0.11117" stop-color="#F4F3F7"/>
<stop offset="0.31099" stop-color="#E9DAFA"/>
<stop offset="0.51995" stop-color="#E1C8FD"/>
<stop offset="0.74214" stop-color="#DCBDFE"/>
<stop offset="1" stop-color="#DABAFF"/>
</linearGradient>
<radialGradient id="paint9_radial_3_32309" cx="0" cy="0" r="1" gradientUnits="userSpaceOnUse" gradientTransform="translate(154.33 156.977) rotate(-3.41282) scale(83.5226 123.285)">
<stop offset="0.3056" stop-color="#DABAFF"/>
<stop offset="0.45326" stop-color="#DEC2FE"/>
<stop offset="0.67998" stop-color="#E8D7FB"/>
<stop offset="0.92674" stop-color="#F6F6F6"/>
</radialGradient>
<linearGradient id="paint10_linear_3_32309" x1="106.224" y1="16.2103" x2="226.228" y2="177.993" gradientUnits="userSpaceOnUse">
<stop stop-color="#F6F6F6"/>
<stop offset="0.06753" stop-color="#EFE7F8"/>
<stop offset="0.19051" stop-color="#E6D3FB"/>
<stop offset="0.33041" stop-color="#DFC5FD"/>
<stop offset="0.50006" stop-color="#DBBDFF"/>
<stop offset="0.78227" stop-color="#DABAFF"/>
</linearGradient>
</defs>
</svg>
