<svg width="1440" height="800" viewBox="0 0 1440 800" fill="none" xmlns="http://www.w3.org/2000/svg">
<g clip-path="url(#clip0_343_25841)">
<rect width="1440" height="800" fill="#F6F6F6"/>
<g clip-path="url(#clip1_343_25841)">
<path d="M571.33 -80.5628L758.65 19.7911L994.025 -107.189" stroke="#575D68" stroke-miterlimit="10"/>
<path d="M994.253 184.007L757.967 315.337L570.646 215.513" stroke="#575D68" stroke-miterlimit="10"/>
<path d="M759 315.244C759 311.404 758 8.4082 758 8.4082" stroke="#575D68" stroke-miterlimit="10"/>
<path d="M571.785 -445.274L571.671 214.558" stroke="#575D68"/>
<path d="M994.252 184.007V-372.608L1225.3 -251.249L1370.71 -330.599L1139.44 -450.578L995.505 -372.926" stroke="#575D68"/>
<path d="M573.265 155.47L475.563 102.535L474.424 -418.436L572.127 -366.667" stroke="#575D68" stroke-miterlimit="10"/>
<path d="M280.157 -157.791V-28.6887L159.908 37.1884L88.168 -3.22898" stroke="#575D68" stroke-miterlimit="10"/>
<path d="M184.732 -210.727C183.593 -210.727 184.732 -80.5634 184.732 -80.5634L62.0913 -14.8984V113.886L160.933 167.457L403.254 35.809C403.254 35.809 400.635 -221.229 402.912 -224.411" stroke="#575D68" stroke-miterlimit="10"/>
<path d="M403.253 35.8096L474.424 75.0601" stroke="#575D68" stroke-miterlimit="10"/>
<path d="M1225.3 -251.249C1223.02 -249.127 1225.3 297.303 1225.3 297.303L1104.48 360.846V154.728L1005.98 101.793L1031.49 88.6388L1055.17 101.05L1126.34 62.2243L1224.05 115.159L1126.34 165.973V139.877L1040.03 93.3064" stroke="#575D68"/>
<path d="M450.169 89.8057L402.457 115.372L547.189 192.493L522.137 205.223L765.255 335.811L885.732 269.721L1006.55 336.341L1031.37 322.656L1030.35 243.625L1054.6 257.098L1055.63 335.811L1043.45 329.234" stroke="#575D68"/>
<path d="M402.229 62.1182L-176.927 376.334L642 802.078L1066 600.63" stroke="#575D68"/>
<path d="M1006.1 101.898L1006.89 309.29" stroke="#575D68"/>
<path d="M88.168 413.675L451.763 607.7L621.319 518.803" stroke="#575D68"/>
<path d="M330.846 279.59L498.375 370.369V298.956" stroke="#575D68"/>
<path d="M86.8016 284.148L-82.9824 374.849L430.469 651.512" stroke="#575D68"/>
<path d="M356.17 140.396L377.86 128.525L499.134 192.917L474.993 205.541M572.127 307.911L619.839 282.451L572.127 257.76" stroke="#575D68"/>
<path d="M619.498 388.003L764.457 466.61L450.169 633.796L38.9751 412.296L85.8906 386.836" stroke="#575D68"/>
<path d="M451.763 607.7C450.625 599.956 451.763 452.819 451.763 452.819L620.978 361.801L621.32 518.803" stroke="#575D68"/>
<path d="M451.763 452.819L87.0293 257.098L88.168 413.675" stroke="#575D68"/>
<path d="M620.978 361.8L498.337 296.241" stroke="#575D68"/>
<path d="M330.147 126.934L87.0293 257.097" stroke="#575D68"/>
<path d="M498.337 296.241L569.052 258.158L570.988 257.097L330.147 126.934" stroke="#575D68"/>
<path d="M572.126 258.158V335.386L643.98 296.772L764.23 361.695L885.959 297.303L1007.23 362.968C1010.65 362.968 1103 414.524 1103 414.524L1237.83 486.872" stroke="#575D68" stroke-miterlimit="10"/>
<path d="M159.908 37.1885V159.501" stroke="#575D68" stroke-miterlimit="10"/>
<path d="M1514.65 192.175L1660.41 271.206L1250.01 491.964L1248.99 649.071L1103 569.191V414.417L1345.89 283.193L1224.73 218.695" stroke="#575D68" stroke-miterlimit="10"/>
<path d="M1370.71 -330.6V113.885L1514.65 192.174" stroke="#575D68" stroke-miterlimit="10"/>
<path d="M1225.3 297.303L1273.7 322.656" stroke="#575D68" stroke-miterlimit="10"/>
<path d="M63.2299 36.9766L-201.524 179.763" stroke="#575D68" stroke-miterlimit="10"/>
<path d="M-177.61 87.7896L182.455 -106.978" stroke="#575D68" stroke-miterlimit="10"/>
<path d="M1680.11 178.702L1372.65 10.8799" stroke="#575D68" stroke-miterlimit="10"/>
<path d="M1660.41 271.206L1661.55 425.344L1274.15 633.159" stroke="#575D68" stroke-miterlimit="10"/>
<path d="M-11.2425 155.364C-8.965 151.863 -7.71242 147.726 -7.71242 143.271C-7.71242 135.527 -11.6979 128.737 -17.7332 124.388C-16.139 121.842 -15.228 118.978 -15.228 115.795C-15.228 106.566 -23.3129 99.0342 -33.2199 99.0342C-43.1268 99.0342 -51.2117 106.566 -51.2117 115.795C-51.2117 118.872 -50.3008 121.842 -48.7065 124.388C-54.7418 128.737 -58.7273 135.633 -58.7273 143.271C-58.7273 147.726 -57.4747 151.863 -55.1973 155.364C-64.0793 161.623 -69.7729 171.488 -69.7729 182.521C-69.7729 201.298 -53.3753 216.573 -33.2199 216.573C-13.0644 216.573 3.33323 201.298 3.33323 182.521C3.33323 171.488 -2.3604 161.623 -11.2425 155.364Z" stroke="#575D68"/>
<path d="M908.279 470.005C910.556 466.504 911.809 462.367 911.809 457.911C911.809 450.167 907.823 443.378 901.788 439.029C903.382 436.483 904.293 433.618 904.293 430.436C904.293 421.207 896.208 413.675 886.301 413.675C876.394 413.675 868.309 421.207 868.309 430.436C868.309 433.512 869.22 436.483 870.815 439.029C864.779 443.378 860.794 450.273 860.794 457.911C860.794 462.367 862.046 466.504 864.324 470.005C855.442 476.263 849.748 486.129 849.748 497.162C849.748 515.938 866.146 531.214 886.301 531.214C906.457 531.214 922.854 515.938 922.854 497.162C922.74 486.129 917.047 476.263 908.279 470.005Z" stroke="#575D68"/>
<path d="M886.188 531.957V560.387" stroke="#575D68"/>
<path d="M1423.55 -22.5352V5.78885" stroke="#575D68"/>
<path d="M788.029 562.615C790.306 559.114 791.559 554.977 791.559 550.521C791.559 542.777 787.574 535.988 781.538 531.639C783.132 529.093 784.043 526.229 784.043 523.046C784.043 513.817 775.959 506.285 766.052 506.285C756.145 506.285 748.06 513.817 748.06 523.046C748.06 526.123 748.971 529.093 750.565 531.639C744.53 535.988 740.544 542.884 740.544 550.521C740.544 554.977 741.797 559.114 744.074 562.615C735.192 568.874 729.499 578.739 729.499 589.772C729.499 608.549 745.896 623.824 766.052 623.824C786.207 623.824 802.605 608.549 802.605 589.772C802.491 578.633 796.797 568.768 788.029 562.615Z" stroke="#575D68"/>
<path d="M765.938 624.567V652.891" stroke="#575D68"/>
<path d="M1006.09 541.398C1008.37 537.897 1009.63 533.76 1009.63 529.305C1009.63 521.561 1005.64 514.771 999.604 510.422C1001.2 507.876 1002.11 505.012 1002.11 501.829C1002.11 492.6 994.025 485.068 984.118 485.068C974.211 485.068 966.126 492.6 966.126 501.829C966.126 504.906 967.037 507.876 968.631 510.422C962.596 514.771 958.61 521.667 958.61 529.305C958.61 533.76 959.863 537.897 962.14 541.398C953.258 547.657 947.564 557.523 947.564 568.555C947.564 587.332 963.962 602.608 984.118 602.608C1004.27 602.608 1020.67 587.332 1020.67 568.555C1020.67 557.523 1014.98 547.657 1006.09 541.398Z" stroke="#575D68"/>
<path d="M984.118 603.351V631.781" stroke="#575D68"/>
<path d="M1103 544.262L1055.06 570.04L1248.07 674L784 897.206" stroke="#575D68" stroke-miterlimit="10"/>
<path d="M1128.74 582.982V504.693L1201.5 544.899V623.294" stroke="#575D68"/>
<path d="M289.609 481.249L290.065 515.62L300.199 520.924L299.744 486.553L304.868 489.205L305.323 523.576L315.458 528.88L315.003 494.509L320.241 497.268L320.81 537.367L285.168 518.802L284.599 478.703L289.609 481.249Z" fill="#C4C4C4"/>
<path d="M333.791 504.269L334.019 521.666L335.272 522.303L345.976 510.633L352.353 513.922L339.941 525.485C344.609 528.561 347.456 534.396 349.848 542.777C350.645 545.853 351.67 550.308 353.036 554.127L347.57 551.263C346.773 549.141 345.748 545.429 344.723 541.61C342.674 534.078 339.941 529.728 335.044 527.182L334.019 526.652L334.247 544.262L329.009 541.504L328.439 501.404L333.791 504.269Z" fill="#C4C4C4"/>
<path d="M383.212 549.672C383.44 564.524 376.152 567.07 369.092 563.463C361.235 559.432 355.2 548.293 354.972 535.563C354.744 522.091 361.007 517.529 368.978 521.772C377.405 526.122 383.098 537.367 383.212 549.672ZM360.324 538.109C360.438 546.914 364.196 555.401 369.32 558.159C374.33 560.811 377.974 556.143 377.86 547.126C377.746 540.337 375.241 530.471 368.978 527.183C362.829 524 360.21 530.471 360.324 538.109Z" fill="#C4C4C4"/>
<path d="M411.453 544.792L412.022 584.891L406.784 582.133L406.328 547.763L396.421 542.565L396.535 552.961C396.649 564.205 395.966 571.419 392.322 572.798C390.956 573.647 389.361 573.647 386.628 572.268L386.059 566.221C387.084 566.539 388.223 566.539 388.906 566.009C391.525 564.63 391.753 559.22 391.639 550.203L391.411 534.078L411.453 544.792Z" fill="#C4C4C4"/>
<path d="M436.618 597.833L436.163 592.529L435.935 592.423C434.341 594.757 431.266 595.924 427.167 593.802C421.359 590.726 418.285 583.512 418.171 577.678C418.057 568.024 424.206 565.903 435.366 571.843V570.995C435.366 567.706 434.569 561.341 428.647 558.265C425.914 556.886 423.181 556.567 421.132 557.31L419.879 551.9C422.27 550.945 425.687 551.369 429.33 553.279C438.213 557.84 440.376 567.388 440.49 575.45L440.718 590.408C440.718 593.908 440.945 597.303 441.287 600.273L436.618 597.833ZM435.48 576.935C429.786 573.753 423.295 571.737 423.409 579.587C423.523 584.361 425.8 587.756 428.42 589.135C432.177 591.15 434.569 589.029 435.366 586.058C435.593 585.422 435.593 584.679 435.593 583.937L435.48 576.935Z" fill="#C4C4C4"/>
<path d="M1121.45 453.031V456.32L1114.73 452.713V471.808L1112 470.323V447.939L1121.45 453.031Z" fill="#C4C4C4"/>
<path d="M1137.73 472.762C1137.73 481.037 1133.75 482.522 1129.99 480.506C1125.78 478.279 1122.59 472.126 1122.59 465.018C1122.59 457.486 1126 454.94 1130.22 457.274C1134.66 459.608 1137.73 465.867 1137.73 472.762ZM1125.43 466.397C1125.43 471.277 1127.37 476.051 1130.1 477.536C1132.84 479.021 1134.77 476.369 1134.77 471.383C1134.77 467.564 1133.52 462.048 1130.1 460.351C1126.91 458.441 1125.43 462.154 1125.43 466.397Z" fill="#C4C4C4"/>
<path d="M1152.31 491.115C1151.62 491.221 1149.92 491.115 1147.87 490.054C1143.2 487.508 1140.12 481.355 1140.12 474.46C1140.12 467.565 1143.43 464.382 1148.44 467.034C1150.14 467.883 1151.51 469.368 1152.31 470.323L1151.62 473.081C1150.94 472.126 1149.92 471.065 1148.32 470.217C1144.79 468.307 1142.86 471.065 1142.86 475.733C1142.86 480.931 1145.13 485.28 1148.21 486.978C1149.8 487.826 1150.83 487.826 1151.62 487.72L1152.31 491.115Z" fill="#C4C4C4"/>
<path d="M1157.09 472.126L1160.51 487.19C1160.85 488.887 1161.19 490.797 1161.53 492.282H1161.65C1161.99 491.115 1162.21 489.524 1162.67 488.145L1165.74 476.688L1168.71 478.279L1164.49 491.964C1162.44 498.541 1161.08 501.723 1159.14 503.102C1157.77 504.163 1156.41 504.057 1155.72 503.845L1155.04 500.026C1155.72 500.132 1156.63 499.92 1157.55 499.389C1158.34 498.965 1159.25 497.904 1159.94 496.101C1160.05 495.783 1160.16 495.464 1160.16 495.252C1160.16 495.04 1160.05 494.616 1159.94 494.085L1154.24 470.429L1157.09 472.126Z" fill="#C4C4C4"/>
<path d="M1181.8 507.027C1181.12 507.133 1179.41 507.027 1177.36 505.966C1172.69 503.42 1169.62 497.268 1169.62 490.372C1169.62 483.477 1172.92 480.294 1177.93 482.946C1179.64 483.795 1181 485.28 1181.8 486.235L1181.12 488.993C1180.43 488.038 1179.41 486.977 1177.81 486.235C1174.28 484.325 1172.35 487.084 1172.35 491.751C1172.35 496.949 1174.63 501.299 1177.7 502.996C1179.3 503.845 1180.32 503.845 1181.12 503.739L1181.8 507.027Z" fill="#C4C4C4"/>
<path d="M1197.4 493.873V516.256L1194.67 514.771V495.57L1189.32 492.706V498.541C1189.32 504.8 1188.86 508.831 1186.92 509.573C1186.13 509.998 1185.33 510.104 1183.85 509.361L1183.51 506.073C1184.08 506.179 1184.65 506.179 1184.99 505.966C1186.47 505.224 1186.58 502.147 1186.58 497.162V488.145L1197.4 493.873Z" fill="#C4C4C4"/>
<path d="M1202.87 496.844L1206.28 511.907C1206.62 513.605 1206.97 515.514 1207.31 516.999H1207.42C1207.76 515.832 1207.99 514.241 1208.45 512.862L1211.52 501.405L1214.48 502.996L1210.27 516.681C1208.22 523.258 1206.85 526.44 1204.92 527.819C1203.55 528.88 1202.18 528.774 1201.5 528.562L1200.82 524.743C1201.5 524.849 1202.41 524.637 1203.32 524.107C1204.12 523.682 1205.03 522.621 1205.71 520.818C1205.83 520.5 1205.94 520.182 1205.94 519.969C1205.94 519.757 1205.83 519.333 1205.71 518.803L1200.02 495.146L1202.87 496.844Z" fill="#C4C4C4"/>
<path d="M1226.32 509.467V512.755L1219.61 509.149V528.243L1216.87 526.758V504.375L1226.32 509.467Z" fill="#C4C4C4"/>
<path d="M1231.56 512.225V521.667C1231.56 525.274 1231.56 527.395 1231.45 530.578L1231.56 530.684C1232.47 528.456 1233.04 527.183 1234.07 525.167L1238.85 516.257L1242.15 518.06V540.443L1239.42 538.958V529.517C1239.42 525.91 1239.53 524.001 1239.65 520.5H1239.53C1238.51 522.834 1237.83 524.319 1237.03 526.016C1235.55 528.668 1233.84 532.063 1232.25 535.139L1229.06 533.442V511.059L1231.56 512.225Z" fill="#C4C4C4"/>
<path d="M1024.54 201.298V215.301L1022.72 214.346V202.359L1018.05 199.813V211.8L1016.23 210.846V196.843L1024.54 201.298Z" fill="#C4C4C4"/>
<path d="M1036.61 214.771C1036.61 219.969 1033.99 220.817 1031.6 219.544C1028.87 218.059 1026.82 214.134 1026.82 209.679C1026.82 205.011 1028.98 203.42 1031.83 204.905C1034.68 206.496 1036.61 210.421 1036.61 214.771ZM1028.64 210.527C1028.64 213.604 1029.89 216.574 1031.72 217.529C1033.42 218.483 1034.79 216.892 1034.79 213.71C1034.79 211.376 1033.99 207.875 1031.83 206.708C1029.55 205.648 1028.64 207.875 1028.64 210.527Z" fill="#C4C4C4"/>
<path d="M1046.52 213.18V225.273L1047.54 225.91L1047.43 232.169L1045.95 231.426L1045.84 226.97L1038.89 223.258L1038.78 227.713L1037.3 226.97L1037.18 220.606L1037.98 221.03C1038.43 220.393 1038.78 219.545 1039 218.696C1039.46 217.211 1039.57 215.407 1039.57 213.392V209.785L1046.52 213.18ZM1041.51 214.665C1041.51 216.468 1041.28 218.166 1040.94 219.545C1040.71 220.393 1040.48 221.136 1040.14 221.666L1044.81 224.212V214.028L1041.51 212.225V214.665Z" fill="#C4C4C4"/>
<path d="M1053.24 216.786V221.454C1053.69 221.666 1054.38 221.985 1054.95 222.303C1057 223.47 1059.39 225.804 1059.39 229.41C1059.39 230.896 1058.93 231.638 1058.36 232.062C1057.22 232.805 1055.63 232.168 1054.15 231.32C1053.12 230.789 1052.21 230.153 1051.42 229.622V217.635L1048.46 216.044V214.028L1053.24 216.786ZM1053.12 228.986C1053.47 229.304 1053.92 229.516 1054.49 229.835C1055.97 230.683 1057.57 230.789 1057.57 228.562C1057.57 226.122 1055.97 224.743 1054.49 223.894C1054.04 223.682 1053.69 223.47 1053.24 223.364L1053.12 228.986Z" fill="#C4C4C4"/>
<path d="M1062.69 229.41C1062.69 232.911 1064.28 235.139 1066.11 236.094C1067.47 236.836 1068.16 236.942 1068.84 236.836L1069.18 238.852C1068.5 238.958 1067.47 238.746 1065.88 237.897C1062.8 236.2 1060.98 232.381 1060.98 228.137C1060.98 223.894 1062.8 221.56 1065.76 223.151C1069.07 224.955 1069.86 229.41 1069.86 231.956C1069.86 232.487 1069.86 232.911 1069.75 233.123L1062.69 229.41ZM1068.04 230.471C1068.04 228.88 1067.59 226.122 1065.54 224.955C1063.71 224 1062.92 225.91 1062.69 227.607L1068.04 230.471Z" fill="#C4C4C4"/>
<path d="M1072.94 233.335L1073.85 233.759C1075.44 234.608 1076.47 234.184 1076.47 232.911C1076.47 231.638 1075.67 230.471 1074.53 229.834C1073.74 229.41 1072.82 229.304 1072.14 229.516L1071.69 227.713C1072.71 227.394 1073.85 227.607 1074.99 228.243C1076.58 229.092 1078.4 231.001 1078.4 233.759C1078.4 235.457 1077.27 235.987 1076.13 235.669V235.775C1077.61 236.73 1078.86 238.745 1078.86 240.761C1078.86 243.837 1076.58 243.731 1074.53 242.564C1073.39 241.928 1072.14 240.867 1071.23 239.7L1071.69 238.215C1072.37 239.17 1073.39 240.124 1074.3 240.655C1075.78 241.503 1076.81 240.973 1076.81 239.594C1076.81 237.684 1075.44 236.411 1073.85 235.563L1072.94 235.032V233.335Z" fill="#C4C4C4"/>
<path d="M1088.99 236.093V248.186L1090.02 248.823L1089.91 255.082L1088.42 254.339L1088.31 249.884L1081.36 246.171L1081.25 250.626L1079.77 249.884L1079.66 243.519L1080.45 243.943C1080.91 243.306 1081.25 242.458 1081.48 241.609C1081.93 240.124 1082.05 238.321 1082.05 236.305V232.698L1088.99 236.093ZM1083.87 237.578C1083.87 239.381 1083.64 241.079 1083.3 242.458C1083.07 243.306 1082.85 244.049 1082.5 244.579L1087.17 247.125V236.942L1083.87 235.138V237.578Z" fill="#C4C4C4"/>
<path d="M765.824 253.596V278.738L767.646 277.783L783.702 244.049L793.154 238.957L774.592 275.131C781.425 272.373 785.638 276.404 788.94 284.997C790.079 288.179 791.559 293.059 793.495 296.666L785.41 301.015C784.272 299.106 782.791 295.393 781.425 291.256C778.464 283.512 774.592 281.284 767.305 285.209L765.824 286.058V311.517L758.195 315.655V257.734L765.824 253.596Z" fill="#C4C4C4"/>
<path d="M824.924 279.799L824.355 272.797L824.127 272.903C821.736 278.738 817.181 285.315 811.032 288.497C802.378 293.165 797.937 287.225 797.937 278.844C797.937 264.841 807.16 252.217 823.558 243.519V242.352C823.558 237.578 822.647 229.41 813.879 234.183C809.893 236.305 805.794 240.23 802.719 244.473L801.011 238.533C804.541 233.547 809.665 228.773 815.017 225.803C828.113 218.801 831.187 229.197 831.187 240.76V262.401C831.187 267.387 831.415 272.267 831.87 275.874L824.924 279.799ZM823.786 250.838C815.359 255.188 805.68 262.401 805.68 273.646C805.68 280.435 808.982 281.92 812.968 279.799C818.547 276.828 822.077 270.145 823.33 264.523C823.558 263.25 823.786 261.977 823.786 260.916V250.838Z" fill="#C4C4C4"/>
<path d="M869.334 170.958V196.948C881.747 191.432 890.743 197.266 890.743 215.407C890.743 234.395 881.177 249.565 869.334 257.097V279.692L862.274 283.511V261.022C849.976 266.538 840.866 260.916 840.866 242.882C840.866 223.681 850.318 208.617 862.274 200.873V174.883L869.334 170.958ZM862.16 207.875C853.506 214.027 848.382 226.439 848.382 238.214C848.382 250.202 853.62 256.673 862.16 253.596V207.875ZM869.221 249.883C877.761 243.731 882.999 231.319 882.999 219.544C882.999 207.556 877.761 201.298 869.221 204.162V249.883Z" fill="#C4C4C4"/>
<path d="M904.749 209.785C904.863 223.894 911.581 226.227 919.438 222.09C925.018 219.12 928.32 215.937 931.281 212.755L932.648 219.544C929.915 222.727 925.246 227.076 918.414 230.789C905.318 237.896 897.461 230.365 897.461 212.861C897.461 195.357 905.09 177.536 917.503 170.852C931.395 163.321 935.153 177.96 935.153 188.674C935.153 190.796 934.925 192.599 934.925 193.766L904.749 209.785ZM927.523 190.053C927.637 183.264 925.474 174.035 916.819 178.702C908.962 182.946 905.546 194.615 904.863 202.253L927.523 190.053Z" fill="#C4C4C4"/>
<path d="M1287.63 697.389C1287.75 686.886 1281.71 677.233 1272.03 671.929L1259.62 665.246C1248.46 659.199 1236.28 654.85 1223.64 652.516C1223.52 652.516 1223.41 652.516 1223.29 652.41C1217.37 651.243 1211.22 652.198 1206.1 655.062L1147 687.205V723.061L1150.19 724.864C1150.42 728.577 1153.72 731.017 1157.48 730.486C1158.16 730.38 1158.73 730.168 1159.41 729.956L1192.32 748.414V748.52H1192.44V748.414L1197.9 745.868C1198.7 751.066 1202.57 752.976 1206.44 751.066C1209.74 749.369 1212.36 745.126 1212.93 740.776C1213.05 739.822 1213.05 738.867 1212.93 737.912L1259.85 713.195L1270.44 707.148C1271.46 711.922 1275.22 713.619 1278.86 711.816C1282.17 710.119 1284.79 705.875 1285.36 701.526C1285.47 700.571 1285.47 699.51 1285.36 698.662L1287.63 697.389Z" fill="#F6F6F6" stroke="#575D68" stroke-miterlimit="10"/>
<path d="M-211.772 460.987L453.244 816.575" stroke="#575D68" stroke-miterlimit="10"/>
<path d="M-13.8616 8.12207L0.71416 15.9722L2.19451 15.2296L9.7101 19.3668L7.66038 20.4276L2.19451 17.5634L-7.48467 22.7614L-2.24654 25.7317L-4.29625 26.7925L-12.0396 22.7614L-10.9009 22.1249C-11.3563 21.1702 -12.0396 20.3215 -12.9506 19.5789C-14.5448 18.1999 -16.4806 16.8208 -18.8719 15.5478L-23.313 13.214L-13.8616 8.12207ZM-15.7974 14.6992C-13.5199 15.8661 -11.698 17.2451 -10.2176 18.412C-9.30665 19.1546 -8.73728 20.0033 -8.16791 20.7458L-1.67717 17.2451L-13.8616 10.6681L-18.4165 13.1079L-15.7974 14.6992Z" fill="#C4C4C4"/>
<path d="M572.126 -53.4056L757.739 45.3572L994.708 -80.1384V-100.612L756.145 27.7475L572.126 -71.7579V-53.4056Z" fill="#C4C4C4"/>
<path d="M769.354 -18.9297V-6.51803L770.265 -7.04844L778.464 -23.8095L783.246 -26.3555L773.795 -8.32144C777.325 -9.70051 779.375 -7.791 781.083 -3.65379C781.652 -2.06255 782.449 0.271261 783.474 2.07466L779.375 4.3024C778.805 3.34766 778.008 1.54426 777.325 -0.47131C775.845 -4.29028 773.795 -5.24504 770.151 -3.33555L769.354 -2.91123V9.60653L765.482 11.7282V-16.808L769.354 -18.9297Z" fill="#C4C4C4"/>
<path d="M786.89 -28.0523C788.37 -29.2192 791.217 -31.0226 793.836 -32.4017C797.48 -34.4173 803.516 -36.8572 803.516 -30.4922C803.516 -26.9915 801.466 -23.703 798.961 -21.5813V-21.4753C802.149 -22.6422 804.54 -21.4752 804.54 -17.4441C804.54 -10.0184 797.366 -5.1386 793.153 -2.80479C790.762 -1.53181 788.257 -0.364914 787.004 0.165497L786.89 -28.0523ZM790.648 -5.35076C791.787 -5.77509 792.584 -6.19941 793.836 -6.8359C796.455 -8.21497 800.441 -11.1853 800.441 -15.3225C800.441 -19.4597 797.253 -18.611 793.495 -16.5955L790.648 -15.0042V-5.35076ZM790.648 -18.5049L793.609 -20.0962C796.569 -21.6874 799.53 -24.4456 799.53 -27.7341C799.53 -30.5983 797.594 -30.9166 793.723 -28.7949C792.47 -28.0523 791.559 -27.522 790.648 -26.8855V-18.5049Z" fill="#C4C4C4"/>
<path d="M330.197 127.082V278.38L87.9941 413.338" stroke="#575D68"/>
<path d="M497.726 369.764V450.859L620.451 519.246" stroke="#575D68"/>
<path d="M267.211 326.571V301.359L281.497 293.51V319.533L267.211 326.571Z" fill="#F6F6F6" stroke="#575D68" stroke-miterlimit="10"/>
<path d="M280.083 284.929C280.706 279.62 278.29 274.918 274.688 274.427C271.086 273.936 267.661 277.842 267.039 283.151C266.417 288.46 268.833 293.162 272.435 293.653C276.037 294.144 279.461 290.238 280.083 284.929Z" fill="#F6F6F6" stroke="#575D68" stroke-miterlimit="10"/>
<path d="M306.171 299.942V274.73L320.457 266.881V292.904L306.171 299.942Z" fill="#F6F6F6" stroke="#575D68" stroke-miterlimit="10"/>
<path d="M319.044 258.301C319.666 252.992 317.25 248.29 313.648 247.799C310.046 247.308 306.622 251.214 306 256.523C305.377 261.832 307.793 266.534 311.395 267.025C314.997 267.516 318.422 263.61 319.044 258.301Z" fill="#F6F6F6" stroke="#575D68" stroke-miterlimit="10"/>
<path d="M462.013 407.666V382.455L476.298 374.605V400.629L462.013 407.666Z" fill="#F6F6F6" stroke="#575D68" stroke-miterlimit="10"/>
<path d="M474.885 366.025C475.507 360.716 473.091 356.014 469.489 355.523C465.887 355.032 462.463 358.938 461.841 364.247C461.218 369.556 463.634 374.257 467.236 374.748C470.838 375.239 474.262 371.334 474.885 366.025Z" fill="#F6F6F6" stroke="#575D68" stroke-miterlimit="10"/>
<path d="M426.948 425.822V400.61L441.234 392.761V418.784L426.948 425.822Z" fill="#F6F6F6" stroke="#575D68" stroke-miterlimit="10"/>
<path d="M439.82 384.18C440.442 378.871 438.027 374.169 434.425 373.678C430.823 373.187 427.398 377.093 426.776 382.402C426.154 387.711 428.569 392.413 432.171 392.904C435.774 393.395 439.198 389.489 439.82 384.18Z" fill="#F6F6F6" stroke="#575D68" stroke-miterlimit="10"/>
<path d="M341.236 476.657V451.446L355.521 443.597V469.62L341.236 476.657Z" fill="#F6F6F6" stroke="#575D68" stroke-miterlimit="10"/>
<path d="M354.108 435.016C354.73 429.707 352.314 425.005 348.712 424.514C345.11 424.023 341.686 427.929 341.064 433.238C340.441 438.547 342.857 443.249 346.459 443.74C350.061 444.231 353.486 440.325 354.108 435.016Z" fill="#F6F6F6" stroke="#575D68" stroke-miterlimit="10"/>
<path d="M307.47 494.814V469.602L321.756 461.753V487.776L307.47 494.814Z" fill="#F6F6F6" stroke="#575D68" stroke-miterlimit="10"/>
<path d="M320.342 453.172C320.964 447.863 318.549 443.161 314.947 442.67C311.345 442.179 307.92 446.085 307.298 451.394C306.676 456.703 309.091 461.405 312.693 461.896C316.295 462.387 319.72 458.481 320.342 453.172Z" fill="#F6F6F6" stroke="#575D68" stroke-miterlimit="10"/>
<path d="M234.744 452.45V427.239L249.03 419.39V445.413L234.744 452.45Z" fill="#F6F6F6" stroke="#575D68" stroke-miterlimit="10"/>
<path d="M247.617 410.809C248.239 405.5 245.823 400.798 242.221 400.307C238.619 399.816 235.195 403.722 234.572 409.031C233.95 414.34 236.366 419.042 239.968 419.533C243.57 420.024 246.994 416.118 247.617 410.809Z" fill="#F6F6F6" stroke="#575D68" stroke-miterlimit="10"/>
<path d="M267.211 434.294V409.083L281.497 401.233V427.257L267.211 434.294Z" fill="#F6F6F6" stroke="#575D68" stroke-miterlimit="10"/>
<path d="M280.083 392.654C280.706 387.345 278.29 382.643 274.688 382.152C271.086 381.661 267.661 385.567 267.039 390.876C266.417 396.185 268.833 400.886 272.435 401.377C276.037 401.868 279.461 397.963 280.083 392.654Z" fill="#F6F6F6" stroke="#575D68" stroke-miterlimit="10"/>
<path d="M1006.22 286.258C1010.25 286.258 1013.51 280.701 1013.51 273.846C1013.51 266.991 1010.25 261.435 1006.22 261.435C1002.2 261.435 998.935 266.991 998.935 273.846C998.935 280.701 1002.2 286.258 1006.22 286.258Z" fill="#F6F6F6" stroke="#575D68" stroke-miterlimit="10"/>
<path d="M998.366 286.046C998.366 287.955 998.366 337.814 998.366 337.814L1012.03 344.922V292.199L998.366 286.046Z" fill="#F6F6F6" stroke="#575D68" stroke-miterlimit="10"/>
</g>
<circle cx="1085.24" cy="238.241" r="9.74117" stroke="#FF4F12"/>
<circle cx="1085.24" cy="238.241" r="7.31512" fill="#FF4F12"/>
<path d="M985.735 595.624V619.884C985.735 620.445 986.034 620.97 986.522 621.247L995.588 626.458C996.273 626.851 997.119 626.356 997.119 625.569V601.986C997.119 601.418 996.812 600.893 996.324 600.609L986.69 595.07C986.26 594.83 985.735 595.136 985.735 595.624Z" stroke="#304656" stroke-miterlimit="10"/>
<path d="M995.865 626.567C996.55 626.961 998 626.37 998 624.993V601.403C998 600.835 997.694 600.31 997.206 600.026L988.016 594.669C987.091 594.086 985.735 594.669 985.735 595.493" stroke="#304656" stroke-miterlimit="10"/>
<path d="M979 677.375V622.541L962 612.375V666.52L979 677.375Z" fill="#F6F6F6" stroke="#304656" stroke-miterlimit="10"/>
<path d="M962.365 600.783C961.611 594.825 964.538 589.549 968.903 588.998C973.268 588.447 977.418 592.83 978.172 598.787C978.926 604.745 975.999 610.021 971.634 610.572C967.269 611.123 963.119 606.74 962.365 600.783Z" fill="#FF4F12" stroke="#304656" stroke-miterlimit="10"/>
<line x1="594.354" y1="503.354" x2="583.354" y2="514.354" stroke="#575D68"/>
<line x1="594.646" y1="514.354" x2="583.646" y2="503.354" stroke="#575D68"/>
</g>
<defs>
<clipPath id="clip0_343_25841">
<rect width="1440" height="800" fill="white"/>
</clipPath>
<clipPath id="clip1_343_25841">
<rect width="1961" height="1329" fill="white" transform="translate(-212 -512)"/>
</clipPath>
</defs>
</svg>
