<svg width="345" height="480" viewBox="0 0 345 480" fill="none" xmlns="http://www.w3.org/2000/svg">
<path d="M-215.162 -318.062L-904 79.3928L-356.49 395.424L328.37 0.17569" fill="#F6F6F6"/>
<path d="M-215.162 -318.062L-904 79.3928L-356.49 395.424L328.37 0.175693" stroke="#575D68" stroke-width="0.4" stroke-miterlimit="10"/>
<path d="M328.37 0.175781L328.595 -244.544L-215.161 -560L-259.552 -534.467L-215.161 -318.062" fill="#F6F6F6"/>
<path d="M328.37 0.175767L328.595 -244.544L-215.161 -560L-259.552 -534.467L-215.161 -318.062" stroke="#575D68" stroke-width="0.4" stroke-miterlimit="10"/>
<path d="M329.339 -244.025L-355.746 151.384" stroke="#575D68" stroke-width="0.4" stroke-miterlimit="10"/>
<path d="M-8.98438 210.64V204.5L260.454 360.681V366.612L-8.98438 210.64Z" fill="#F6F6F6" stroke="#575D68" stroke-width="0.4" stroke-miterlimit="10"/>
<path d="M260.454 360.681L264.483 358.449V364.314L260.454 366.612V360.681Z" fill="#F6F6F6" stroke="#575D68" stroke-width="0.4" stroke-miterlimit="10"/>
<path d="M264.482 358.449L-4.81982 202.148L-8.98438 204.5L260.454 360.681L264.482 358.449Z" fill="#F6F6F6" stroke="#575D68" stroke-width="0.4" stroke-miterlimit="10"/>
<path d="M154.217 274.852L304.034 188.35L312.297 193.756L163.708 280.328L154.217 274.852Z" fill="#F6F6F6" stroke="#575D68" stroke-width="0.4" stroke-miterlimit="10"/>
<path d="M261.049 336.726L410.866 250.223L419.129 255.629L270.54 342.201L261.049 336.726Z" fill="#F6F6F6" stroke="#575D68" stroke-width="0.4" stroke-miterlimit="10"/>
<path d="M98.915 72.579L72.3787 87.8461L72.3987 74.9865L98.9344 59.7194L98.915 72.579Z" fill="#F6F6F6" stroke="#575D68" stroke-width="0.22788" stroke-miterlimit="10"/>
<path d="M111.964 44.3897L85.4287 59.6561L85.4481 46.7964L111.984 31.5293L111.964 44.3897Z" fill="#F6F6F6" stroke="#575D68" stroke-width="0.22788" stroke-miterlimit="10"/>
<path d="M17.5503 156.027L-8.98535 171.293L-8.966 158.433L17.5696 143.167L17.5503 156.027Z" fill="#F6F6F6" stroke="#575D68" stroke-width="0.22788" stroke-miterlimit="10"/>
<path d="M26.2564 64.1258L-0.279297 79.3929L-0.259947 66.5332L26.2757 51.2661L26.2564 64.1258Z" fill="#F6F6F6" stroke="#575D68" stroke-width="0.22788" stroke-miterlimit="10"/>
<path d="M13.3319 5.76469L-13.2039 21.031L-13.1845 8.17142L13.352 -7.09497L13.3319 5.76469Z" fill="#F6F6F6" stroke="#575D68" stroke-width="0.22788" stroke-miterlimit="10"/>
<path d="M65.7827 13.0354L39.2471 28.3018L39.2664 15.4421L65.8021 0.175781L65.7827 13.0354Z" fill="#F6F6F6" stroke="#575D68" stroke-width="0.22788" stroke-miterlimit="10"/>
<path d="M17.5503 88.1304L-8.98535 103.397L-8.966 90.5378L17.5696 75.2708L17.5503 88.1304Z" fill="#F6F6F6" stroke="#575D68" stroke-width="0.22788" stroke-miterlimit="10"/>
<path d="M149.347 224.142C149.347 234.579 141.51 248.874 131.084 250.227C131.084 250.227 126.544 247.878 123.732 246.439C117.947 243.477 115.687 235.607 118.536 227.052C121.584 217.901 129.591 211.295 136.769 210.79C139.215 210.587 141.661 211.189 143.734 212.503C144.803 213.19 151.165 216.66 151.165 216.66C150.087 219.015 149.47 221.555 149.347 224.142Z" fill="#DDDEDF" stroke="#575D68" stroke-width="0.4" stroke-miterlimit="10"/>
<path d="M302.759 135.479C302.759 145.916 294.923 160.211 284.496 161.564C284.496 161.564 279.956 159.215 277.145 157.776C271.359 154.814 269.099 146.944 271.948 138.389C274.996 129.238 283.003 122.632 290.181 122.127C292.628 121.924 295.073 122.526 297.146 123.84C298.215 124.527 304.577 127.997 304.577 127.997C303.499 130.352 302.882 132.892 302.759 135.479Z" fill="#DDDEDF" stroke="#575D68" stroke-width="0.4" stroke-miterlimit="10"/>
<path d="M308.691 99.6912L266.671 109.461L224.658 103.979L152.182 140.368L118.486 198.328L118.106 226.802H109.232L98.708 239.604L117.321 244.491C117.826 244.624 120.744 243.605 124.872 241.987C124.499 238.399 124.92 234.772 126.105 231.365C129.514 221.131 138.469 213.742 146.498 213.177C153.994 212.65 159.998 218.134 160.514 226.887C161.892 226.282 162.692 225.929 162.692 225.929C163.971 224.58 276.042 161.052 276.042 161.052L278.833 159.152C276.449 154.859 276.077 148.814 278.187 142.479C281.596 132.245 290.551 124.856 298.579 124.291C305.573 123.799 311.266 128.54 312.42 136.284L314.463 134.892L315.814 133.659C319.088 130.669 320.174 125.605 320.174 125.605V116.147C320.177 113.554 319.569 110.996 318.398 108.682C317.228 106.368 315.528 104.362 313.436 102.829C311.914 101.695 310.33 100.648 308.691 99.6912Z" fill="#F6F6F6" stroke="#575D68" stroke-width="0.4" stroke-miterlimit="10"/>
<path d="M310.809 139.819C310.809 150.256 302.615 161.751 292.188 163.104C281.392 164.505 276.199 154.136 279.998 142.729C283.046 133.578 291.053 126.971 298.232 126.466C305.243 125.973 310.809 131.354 310.809 139.819Z" fill="#DDDEDF" stroke="#575D68" stroke-width="0.4" stroke-miterlimit="10"/>
<path d="M158.821 229.324C158.821 239.761 150.627 251.257 140.2 252.61C129.404 254.011 124.211 243.642 128.01 232.234C131.058 223.084 139.065 216.477 146.243 215.972C153.255 215.479 158.821 220.859 158.821 229.324Z" fill="#DDDEDF" stroke="#575D68" stroke-width="0.4" stroke-miterlimit="10"/>
<path d="M155.192 230.46C155.192 238.533 148.853 247.425 140.788 248.472C132.437 249.555 128.421 241.535 131.359 232.711C133.717 225.633 139.91 220.523 145.463 220.132C150.887 219.751 155.192 223.912 155.192 230.46Z" fill="#F6F6F6" stroke="#575D68" stroke-width="0.4" stroke-miterlimit="10"/>
<path d="M307.179 140.954C307.179 149.028 300.841 157.919 292.776 158.966C284.425 160.05 280.408 152.029 283.347 143.205C285.705 136.127 291.898 131.017 297.451 130.626C302.874 130.245 307.179 134.406 307.179 140.954Z" fill="#F6F6F6" stroke="#575D68" stroke-width="0.4" stroke-miterlimit="10"/>
<path d="M22.7275 176.003V185.982C22.7269 189.04 23.5289 192.045 25.0532 194.696C26.5776 197.348 28.771 199.553 31.4143 201.091C47.4042 210.396 81.4368 229.781 98.7075 239.604C99.7787 240.213 100.991 240.53 102.223 240.524C103.456 240.518 104.665 240.189 105.73 239.569C106.795 238.95 107.679 238.062 108.294 236.993C108.908 235.925 109.231 234.714 109.231 233.482V226.802L22.7275 176.003Z" fill="#F6F6F6" stroke="#575D68" stroke-width="0.4" stroke-miterlimit="10"/>
<path d="M185.246 62.4925L142.564 53.5118C135.715 52.0706 128.576 53.1245 122.435 56.4832L74.0422 82.9519C66.1433 87.2722 59.4687 93.5246 54.6422 101.125L26.2771 145.791L118.486 198.328L147.92 154.121C152.609 147.078 158.889 141.235 166.251 137.065L217.37 108.107C222.109 105.438 227.653 104.572 232.981 105.668C244.967 108.099 268.719 111.311 268.719 111.311C268.719 111.311 269.122 110.991 268.877 110.86C255.443 103.677 185.246 62.4925 185.246 62.4925Z" fill="#F6F6F6" stroke="#575D68" stroke-width="0.4" stroke-miterlimit="10"/>
<path d="M59.5468 102.039L39.2458 134.858L122.511 183.709L143.669 152.659C144.343 151.764 144.819 150.736 145.065 149.644C145.312 148.551 145.322 147.419 145.096 146.322C144.871 145.224 144.414 144.188 143.756 143.281C143.099 142.375 142.256 141.618 141.283 141.063L69.9738 99.6353C68.2519 98.6517 66.2226 98.3529 64.2902 98.7984C62.3578 99.244 60.6642 100.401 59.5468 102.039Z" fill="#DDDEDF" stroke="#575D68" stroke-width="0.4" stroke-miterlimit="10"/>
<path d="M26.2771 145.791V172.795L118.106 226.802L118.486 198.328L26.2771 145.791Z" fill="#F6F6F6" stroke="#575D68" stroke-width="0.4" stroke-miterlimit="10"/>
<path d="M22.7275 176.003L26.2765 172.795L118.105 226.802H109.231L22.7275 176.003Z" fill="#F6F6F6" stroke="#575D68" stroke-width="0.4" stroke-miterlimit="10"/>
<path d="M185.246 62.4925L212.035 55.2696C220.097 53.0959 228.691 54.1923 235.949 58.3202L308.691 99.6911L268.719 111.311L185.246 62.4925Z" fill="#F6F6F6" stroke="#575D68" stroke-width="0.4" stroke-miterlimit="10"/>
<path d="M132.963 186.222L154.57 150.295C154.655 150.153 154.785 150.043 154.94 149.982C155.094 149.921 155.264 149.912 155.424 149.957C155.583 150.002 155.724 150.098 155.824 150.23C155.924 150.363 155.977 150.525 155.976 150.691L155.821 173.695C155.815 174.505 155.593 175.299 155.177 175.995C154.761 176.69 154.166 177.261 153.455 177.649L134.599 187.928C134.363 188.057 134.091 188.104 133.825 188.063C133.559 188.022 133.314 187.894 133.128 187.7C132.942 187.506 132.825 187.256 132.795 186.989C132.766 186.722 132.824 186.452 132.963 186.222Z" fill="#DDDEDF" stroke="#575D68" stroke-width="0.4" stroke-miterlimit="10"/>
<path d="M162.95 173.057L197.655 153.103C198.033 152.886 198.347 152.573 198.565 152.195C198.784 151.818 198.899 151.39 198.899 150.954V128.389C198.899 127.953 198.784 127.525 198.566 127.148C198.348 126.771 198.034 126.458 197.657 126.24C197.279 126.023 196.851 125.909 196.415 125.91C195.979 125.911 195.551 126.026 195.174 126.245L160.767 146.222C160.079 146.622 159.511 147.2 159.125 147.897C158.739 148.593 158.548 149.381 158.574 150.176L159.236 170.986C159.25 171.414 159.374 171.832 159.597 172.197C159.819 172.563 160.133 172.865 160.507 173.073C160.881 173.282 161.302 173.39 161.731 173.387C162.159 173.384 162.579 173.27 162.95 173.057Z" fill="#DDDEDF" stroke="#575D68" stroke-width="0.4" stroke-miterlimit="10"/>
<path d="M204.966 146.221V121.561C204.966 121.048 205.099 120.544 205.351 120.098C205.604 119.652 205.967 119.278 206.406 119.014L221.637 109.847C224.423 108.23 227.727 107.756 230.855 108.524L261.617 114.566C261.828 114.608 262.022 114.713 262.172 114.868C262.322 115.023 262.421 115.219 262.456 115.432C262.491 115.645 262.46 115.863 262.367 116.058C262.274 116.252 262.124 116.414 261.937 116.521L207.435 147.653C207.184 147.797 206.9 147.872 206.611 147.871C206.322 147.87 206.038 147.793 205.788 147.648C205.538 147.503 205.331 147.295 205.186 147.044C205.042 146.794 204.966 146.51 204.966 146.221Z" fill="#DDDEDF" stroke="#575D68" stroke-width="0.4" stroke-miterlimit="10"/>
<path d="M157.581 59.6561L184.79 65.5129L257.825 108.028L227.263 100.174L157.581 59.6561Z" fill="#DDDEDF" stroke="#575D68" stroke-width="0.4" stroke-miterlimit="10"/>
<path d="M202.199 120.824V196.819" stroke="#575D68" stroke-width="0.4" stroke-miterlimit="10"/>
<path d="M272.709 157.23L163.589 220.108" stroke="#575D68" stroke-width="0.4" stroke-miterlimit="10"/>
<path d="M149.347 224.142C149.347 234.579 141.511 248.874 131.084 250.227C131.084 250.227 126.545 247.878 123.733 246.439C117.947 243.477 115.687 235.607 118.537 227.052C121.584 217.901 129.591 211.295 136.77 210.79C139.216 210.587 141.661 211.189 143.734 212.503C144.803 213.19 151.165 216.66 151.165 216.66C150.088 219.015 149.471 221.555 149.347 224.142Z" fill="#DDDEDF" stroke="#575D68" stroke-width="0.4" stroke-miterlimit="10"/>
<path d="M302.759 135.479C302.759 145.916 294.923 160.211 284.497 161.564C284.497 161.564 279.957 159.215 277.145 157.776C271.359 154.814 269.099 146.944 271.949 138.389C274.996 129.238 283.003 122.632 290.182 122.127C292.628 121.924 295.073 122.526 297.146 123.84C298.215 124.527 304.577 127.997 304.577 127.997C303.5 130.352 302.883 132.892 302.759 135.479Z" fill="#DDDEDF" stroke="#575D68" stroke-width="0.4" stroke-miterlimit="10"/>
<path d="M308.692 99.6912L266.672 109.461L224.659 103.979L152.183 140.368L118.486 198.328L118.106 226.802H109.232L98.7085 239.604L117.321 244.491C117.827 244.624 120.745 243.605 124.873 241.987C124.499 238.399 124.92 234.772 126.106 231.365C129.514 221.131 138.469 213.742 146.498 213.177C153.994 212.65 159.998 218.134 160.514 226.887C161.893 226.282 162.693 225.929 162.693 225.929C163.972 224.58 276.043 161.052 276.043 161.052L278.834 159.152C276.449 154.859 276.078 148.814 278.187 142.479C281.596 132.245 290.551 124.856 298.58 124.291C305.573 123.799 311.267 128.54 312.421 136.284L314.464 134.892L315.814 133.659C319.089 130.669 320.174 125.605 320.174 125.605V116.147C320.178 113.554 319.57 110.996 318.399 108.682C317.228 106.368 315.528 104.362 313.437 102.829C311.915 101.695 310.331 100.648 308.692 99.6912Z" fill="#F7BDAA" stroke="#575D68" stroke-width="0.4" stroke-miterlimit="10"/>
<path d="M310.809 139.819C310.809 150.256 302.615 161.751 292.189 163.104C281.392 164.505 276.2 154.136 279.999 142.729C283.047 133.578 291.053 126.971 298.232 126.466C305.244 125.973 310.809 131.354 310.809 139.819Z" fill="#DDDEDF" stroke="#575D68" stroke-width="0.4" stroke-miterlimit="10"/>
<path d="M158.821 229.324C158.821 239.761 150.627 251.257 140.2 252.61C129.404 254.011 124.212 243.642 128.011 232.234C131.059 223.084 139.065 216.477 146.244 215.972C153.256 215.479 158.821 220.859 158.821 229.324Z" fill="#DDDEDF" stroke="#575D68" stroke-width="0.4" stroke-miterlimit="10"/>
<path d="M155.192 230.46C155.192 238.533 148.854 247.425 140.789 248.472C132.438 249.555 128.421 241.535 131.36 232.711C133.717 225.633 139.911 220.523 145.463 220.132C150.887 219.751 155.192 223.912 155.192 230.46Z" fill="#F6F6F6" stroke="#575D68" stroke-width="0.4" stroke-miterlimit="10"/>
<path d="M307.18 140.954C307.18 149.028 300.842 157.919 292.777 158.966C284.426 160.05 280.409 152.029 283.348 143.205C285.705 136.127 291.899 131.017 297.451 130.626C302.875 130.245 307.18 134.406 307.18 140.954Z" fill="#F6F6F6" stroke="#575D68" stroke-width="0.4" stroke-miterlimit="10"/>
<path d="M22.728 176.003V185.982C22.7274 189.04 23.5294 192.045 25.0537 194.696C26.5781 197.348 28.7714 199.553 31.4148 201.091C47.4047 210.396 81.4373 229.781 98.708 239.604C99.7792 240.213 100.991 240.53 102.224 240.524C103.456 240.518 104.665 240.189 105.73 239.569C106.796 238.95 107.68 238.062 108.294 236.993C108.908 235.925 109.232 234.714 109.232 233.482V226.802L22.728 176.003Z" fill="url(#paint0_linear_137_14)" stroke="#575D68" stroke-width="0.4" stroke-miterlimit="10"/>
<path d="M185.246 62.4925L142.564 53.5118C135.715 52.0706 128.576 53.1245 122.436 56.4832L74.0427 82.9519C66.1438 87.2722 59.4692 93.5246 54.6427 101.125L26.2776 145.791L118.486 198.328L147.92 154.121C152.61 147.078 158.889 141.235 166.251 137.065L217.37 108.107C222.109 105.438 227.654 104.572 232.982 105.668C244.968 108.099 268.72 111.311 268.72 111.311C268.72 111.311 269.123 110.991 268.878 110.86C255.444 103.677 185.246 62.4925 185.246 62.4925Z" fill="url(#paint1_linear_137_14)" stroke="#575D68" stroke-width="0.4" stroke-miterlimit="10"/>
<path d="M59.5473 102.039L39.2463 134.858L122.511 183.709L143.669 152.659C144.344 151.764 144.82 150.736 145.066 149.644C145.312 148.551 145.323 147.419 145.097 146.322C144.871 145.224 144.414 144.188 143.757 143.281C143.099 142.375 142.256 141.618 141.284 141.063L69.9743 99.6353C68.2524 98.6517 66.2231 98.3529 64.2907 98.7984C62.3583 99.244 60.6647 100.401 59.5473 102.039Z" fill="url(#paint2_linear_137_14)" stroke="#575D68" stroke-width="0.4" stroke-miterlimit="10"/>
<path d="M26.2776 145.791V172.795L118.106 226.802L118.487 198.328L26.2776 145.791Z" fill="url(#paint3_linear_137_14)" stroke="#575D68" stroke-width="0.4" stroke-miterlimit="10"/>
<path d="M22.728 176.003L26.277 172.795L118.106 226.802H109.231L22.728 176.003Z" fill="#F7BDAA" stroke="#575D68" stroke-width="0.4" stroke-miterlimit="10"/>
<path d="M185.246 62.4925L212.035 55.2696C220.097 53.0959 228.691 54.1923 235.95 58.3202L308.692 99.6911L268.719 111.311L185.246 62.4925Z" fill="url(#paint4_linear_137_14)" stroke="#575D68" stroke-width="0.4" stroke-miterlimit="10"/>
<path d="M132.964 186.222L154.57 150.295C154.656 150.153 154.786 150.043 154.94 149.982C155.094 149.921 155.264 149.912 155.424 149.957C155.584 150.002 155.725 150.098 155.824 150.23C155.924 150.363 155.977 150.525 155.976 150.691L155.821 173.695C155.816 174.505 155.593 175.299 155.177 175.995C154.761 176.69 154.167 177.261 153.455 177.649L134.599 187.928C134.363 188.057 134.091 188.104 133.825 188.063C133.56 188.022 133.315 187.894 133.129 187.7C132.943 187.506 132.826 187.256 132.796 186.989C132.766 186.722 132.825 186.452 132.964 186.222Z" fill="url(#paint5_linear_137_14)" stroke="#575D68" stroke-width="0.4" stroke-miterlimit="10"/>
<path d="M162.951 173.057L197.656 153.103C198.034 152.886 198.348 152.573 198.566 152.195C198.784 151.818 198.899 151.39 198.899 150.954V128.389C198.899 127.953 198.784 127.525 198.566 127.148C198.348 126.771 198.035 126.458 197.657 126.24C197.279 126.023 196.851 125.909 196.415 125.91C195.98 125.911 195.552 126.026 195.175 126.245L160.768 146.222C160.079 146.622 159.512 147.2 159.125 147.897C158.739 148.593 158.549 149.381 158.574 150.176L159.236 170.986C159.25 171.414 159.374 171.832 159.597 172.197C159.82 172.563 160.133 172.865 160.507 173.073C160.881 173.282 161.303 173.39 161.731 173.387C162.159 173.384 162.579 173.27 162.951 173.057Z" fill="url(#paint6_linear_137_14)" stroke="#575D68" stroke-width="0.4" stroke-miterlimit="10"/>
<path d="M204.967 146.221V121.561C204.967 121.048 205.099 120.544 205.352 120.098C205.604 119.652 205.967 119.278 206.407 119.014L221.637 109.847C224.423 108.23 227.728 107.756 230.856 108.524L261.617 114.566C261.829 114.608 262.022 114.713 262.172 114.868C262.322 115.023 262.421 115.219 262.456 115.432C262.491 115.645 262.46 115.863 262.367 116.058C262.275 116.252 262.125 116.414 261.938 116.521L207.435 147.653C207.185 147.797 206.9 147.872 206.611 147.871C206.322 147.87 206.039 147.793 205.789 147.648C205.539 147.503 205.331 147.295 205.187 147.044C205.043 146.794 204.967 146.51 204.967 146.221Z" fill="url(#paint7_linear_137_14)" stroke="#575D68" stroke-width="0.4" stroke-miterlimit="10"/>
<path d="M157.581 59.6561L184.791 65.5129L257.825 108.028L227.263 100.174L157.581 59.6561Z" fill="url(#paint8_linear_137_14)" stroke="#575D68" stroke-width="0.4" stroke-miterlimit="10"/>
<path d="M272.709 157.23L163.59 220.108" stroke="#575D68" stroke-width="0.4" stroke-miterlimit="10"/>
<path d="M202.2 120.824V196.819" stroke="#575D68" stroke-width="0.4" stroke-miterlimit="10"/>
<path d="M285.426 -247.052V379.524L510.211 509.097V-118.055L285.426 -247.052Z" fill="#F6F6F6" stroke="#575D68" stroke-width="0.4" stroke-miterlimit="10"/>
<path d="M481.666 491.519L481.554 132.509L313.739 35.5181V394.755L481.666 491.519Z" fill="#F6F6F6" stroke="#575D68" stroke-width="0.4" stroke-miterlimit="10"/>
<path d="M380.633 355.823L313.622 394.657" stroke="#575D68" stroke-width="0.4" stroke-miterlimit="10"/>
<path d="M330.584 404.462L397.792 365.781" stroke="#575D68" stroke-width="0.4" stroke-miterlimit="10"/>
<path d="M313.741 394.755L380.856 355.456V73.7822" fill="#F6F6F6"/>
<path d="M313.741 394.755L380.856 355.456V73.7822" stroke="#575D68" stroke-width="0.4" stroke-miterlimit="10"/>
<path d="M217.536 26.8596L191 42.1267L191.019 29.2671L217.556 14L217.536 26.8596Z" fill="#F6F6F6" stroke="#575D68" stroke-width="0.22788" stroke-miterlimit="10"/>
<defs>
<linearGradient id="paint0_linear_137_14" x1="22.7281" y1="208.269" x2="109.232" y2="208.269" gradientUnits="userSpaceOnUse">
<stop offset="0.07994" stop-color="#F8D5C8"/>
<stop offset="0.46504" stop-color="#F8D7CA"/>
<stop offset="0.67356" stop-color="#F8DCD2"/>
<stop offset="0.83929" stop-color="#F7E6E0"/>
<stop offset="0.9825" stop-color="#F6F4F3"/>
<stop offset="1" stop-color="#F6F6F6"/>
</linearGradient>
<linearGradient id="paint1_linear_137_14" x1="196.711" y1="134.204" x2="63.0746" y2="117.376" gradientUnits="userSpaceOnUse">
<stop offset="0.07994" stop-color="#F8D5C8"/>
<stop offset="0.46504" stop-color="#F8D7CA"/>
<stop offset="0.67356" stop-color="#F8DCD2"/>
<stop offset="0.83929" stop-color="#F7E6E0"/>
<stop offset="0.9825" stop-color="#F6F4F3"/>
<stop offset="1" stop-color="#F6F6F6"/>
</linearGradient>
<linearGradient id="paint2_linear_137_14" x1="39.2463" y1="141.152" x2="145.26" y2="141.152" gradientUnits="userSpaceOnUse">
<stop offset="0.08745" stop-color="#F6F6F6"/>
<stop offset="0.184" stop-color="#F1ECF7"/>
<stop offset="0.50471" stop-color="#E5D1FC"/>
<stop offset="0.78737" stop-color="#DDC0FE"/>
<stop offset="1" stop-color="#DABAFF"/>
</linearGradient>
<linearGradient id="paint3_linear_137_14" x1="123.895" y1="220.644" x2="9.06725" y2="142.442" gradientUnits="userSpaceOnUse">
<stop offset="0.07994" stop-color="#F8D5C8"/>
<stop offset="0.46504" stop-color="#F8D7CA"/>
<stop offset="0.67356" stop-color="#F8DCD2"/>
<stop offset="0.83929" stop-color="#F7E6E0"/>
<stop offset="0.9825" stop-color="#F6F4F3"/>
<stop offset="1" stop-color="#F6F6F6"/>
</linearGradient>
<linearGradient id="paint4_linear_137_14" x1="185.246" y1="82.7441" x2="308.692" y2="82.7441" gradientUnits="userSpaceOnUse">
<stop offset="0.07994" stop-color="#F8D5C8"/>
<stop offset="0.46504" stop-color="#F8D7CA"/>
<stop offset="0.67356" stop-color="#F8DCD2"/>
<stop offset="0.83929" stop-color="#F7E6E0"/>
<stop offset="0.9825" stop-color="#F6F4F3"/>
<stop offset="1" stop-color="#F6F6F6"/>
</linearGradient>
<linearGradient id="paint5_linear_137_14" x1="169.784" y1="192.932" x2="141.572" y2="166.205" gradientUnits="userSpaceOnUse">
<stop offset="0.08745" stop-color="#F6F6F6"/>
<stop offset="0.184" stop-color="#F1ECF7"/>
<stop offset="0.50471" stop-color="#E5D1FC"/>
<stop offset="0.78737" stop-color="#DDC0FE"/>
<stop offset="1" stop-color="#DABAFF"/>
</linearGradient>
<linearGradient id="paint6_linear_137_14" x1="209.505" y1="167.911" x2="164.959" y2="141.184" gradientUnits="userSpaceOnUse">
<stop offset="0.08745" stop-color="#F6F6F6"/>
<stop offset="0.184" stop-color="#F1ECF7"/>
<stop offset="0.50471" stop-color="#E5D1FC"/>
<stop offset="0.78737" stop-color="#DDC0FE"/>
<stop offset="1" stop-color="#DABAFF"/>
</linearGradient>
<linearGradient id="paint7_linear_137_14" x1="260.88" y1="142.406" x2="204.951" y2="119.144" gradientUnits="userSpaceOnUse">
<stop offset="0.08745" stop-color="#F6F6F6"/>
<stop offset="0.184" stop-color="#F1ECF7"/>
<stop offset="0.50471" stop-color="#E5D1FC"/>
<stop offset="0.78737" stop-color="#DDC0FE"/>
<stop offset="1" stop-color="#DABAFF"/>
</linearGradient>
<linearGradient id="paint8_linear_137_14" x1="268.691" y1="103.109" x2="152.378" y2="65.4933" gradientUnits="userSpaceOnUse">
<stop offset="0.08745" stop-color="#F6F6F6"/>
<stop offset="0.184" stop-color="#F1ECF7"/>
<stop offset="0.50471" stop-color="#E5D1FC"/>
<stop offset="0.78737" stop-color="#DDC0FE"/>
<stop offset="1" stop-color="#DABAFF"/>
</linearGradient>
</defs>
</svg>
