<svg width="345" height="480" viewBox="0 0 345 480" fill="none" xmlns="http://www.w3.org/2000/svg">
<g clip-path="url(#clip0_480_8244)">
<rect width="345" height="480" rx="6" fill="#F6F6F6"/>
<g clip-path="url(#clip1_480_8244)">
<path d="M1449 337.048L372 391L-228 46L341.637 -480L1447.6 87.5204L1449 337.048Z" fill="#DDDEDF"/>
<path d="M901.108 188.194L1050.81 102.923L901.331 16.3715L916.197 7.93229L846.506 -32.2339L829.803 -22.6148L748.999 -68.1985L649.679 -10.4402L462.292 -119.293L487.878 -134.176L493.906 -130.73L520.642 -146.289L351.008 -244.583L322.885 -260.879L-178.644 30.1067L410.355 368.095L479.967 352.096L436.204 327.036L913.496 52.2291L1000.14 102.347L816.331 207.669L897.154 254.566L755.834 336.14L984.701 333.32L1068.35 284.346L901.108 188.194ZM417.792 316.493L95.0246 130.642L114.757 119.439L-0.413122 52.4277L-20.394 63.9942L-101.123 17.3749L324.577 -229.313L460.901 -151.971L406.666 -120.626L649.679 18.8951L754.103 -39.9733L895.007 41.5342L417.792 316.493Z" fill="#F6F6F6" stroke="#575D68" stroke-width="0.4" stroke-miterlimit="10"/>
<path d="M406.211 371.472L376 499.999L-231.895 142.03V5.08008L406.211 371.472Z" fill="#F6F6F6" stroke="#575D68" stroke-width="0.4" stroke-miterlimit="10"/>
<path d="M133.868 261.459L189.099 293.984L184.253 296.69L128.637 264.476L133.868 261.459Z" fill="#F6F6F6" stroke="#575D68" stroke-width="0.4" stroke-miterlimit="10"/>
<path d="M145.435 254.732L200.666 287.258L195.819 289.963L140.203 257.75L145.435 254.732Z" fill="#F6F6F6" stroke="#575D68" stroke-width="0.4" stroke-miterlimit="10"/>
<path d="M157.002 248.006L212.233 280.531L207.387 283.236L151.771 251.023L157.002 248.006Z" fill="#F6F6F6" stroke="#575D68" stroke-width="0.4" stroke-miterlimit="10"/>
<path d="M168.569 241.279L223.8 273.805L218.953 276.51L163.337 244.297L168.569 241.279Z" fill="#F6F6F6" stroke="#575D68" stroke-width="0.4" stroke-miterlimit="10"/>
<path d="M122.301 268.186L177.532 300.711L172.685 303.416L117.069 271.203L122.301 268.186Z" fill="#F6F6F6" stroke="#575D68" stroke-width="0.4" stroke-miterlimit="10"/>
<path d="M110.733 274.912L165.964 307.438L161.118 310.143L105.502 277.93L110.733 274.912Z" fill="#F6F6F6" stroke="#575D68" stroke-width="0.4" stroke-miterlimit="10"/>
<path d="M99.167 281.639L154.398 314.164L149.552 316.869L93.9355 284.657L99.167 281.639Z" fill="#F6F6F6" stroke="#575D68" stroke-width="0.4" stroke-miterlimit="10"/>
<path d="M87.5996 288.365L142.831 320.891L137.984 323.596L82.3682 291.383L87.5996 288.365Z" fill="#F6F6F6" stroke="#575D68" stroke-width="0.4" stroke-miterlimit="10"/>
<path d="M76.0332 295.092L131.265 327.617L126.418 330.322L70.8018 298.11L76.0332 295.092Z" fill="#F6F6F6" stroke="#575D68" stroke-width="0.4" stroke-miterlimit="10"/>
<path d="M64.4658 301.818L119.697 334.344L114.85 337.049L59.2344 304.836L64.4658 301.818Z" fill="#F6F6F6" stroke="#575D68" stroke-width="0.4" stroke-miterlimit="10"/>
<path d="M117.397 241.242C117.614 243.549 117.735 245.441 116.234 246.459C115.511 246.949 112.429 249.011 111.435 249.011C107.939 249.011 105.265 243.918 104.326 239.462C104.072 238.257 103.895 234.965 103.895 234.965C103.895 234.965 107.243 232.682 108.012 232.542C108.866 232.393 109.741 232.445 110.571 232.693C114.184 233.723 117.054 237.597 117.397 241.242Z" fill="#F6F6F6" stroke="#575D68" stroke-width="0.4" stroke-miterlimit="10"/>
<path d="M114.872 243.185C115.169 246.604 113.182 249.206 110.122 249.184C106.626 249.158 102.72 245.772 101.815 241.309C100.829 236.456 103.911 233.356 108.109 234.587C111.714 235.643 114.556 239.537 114.872 243.185Z" fill="#F6F6F6" stroke="#575D68" stroke-width="0.4" stroke-miterlimit="10"/>
<path d="M113.864 243.014C114.126 246.03 112.374 248.325 109.675 248.306C106.591 248.283 103.146 245.296 102.346 241.36C101.477 237.079 104.196 234.344 107.899 235.43C111.079 236.362 113.585 239.797 113.864 243.014Z" fill="#F6F6F6" stroke="#575D68" stroke-width="0.4" stroke-miterlimit="10"/>
<path d="M135.395 206.113L135.388 204.416C135.387 204.286 135.417 204.158 135.474 204.041C135.532 203.925 135.615 203.823 135.719 203.744L137.575 202.332C137.699 202.237 137.848 202.179 138.003 202.164C138.159 202.149 138.315 202.178 138.456 202.247C138.596 202.316 138.714 202.423 138.796 202.556C138.879 202.688 138.923 202.842 138.924 202.998L138.928 204.572C138.928 204.685 138.905 204.798 138.861 204.902C138.817 205.006 138.752 205.1 138.671 205.179L136.598 207.179L135.395 206.113Z" fill="#F6F6F6" stroke="#575D68" stroke-width="0.4" stroke-miterlimit="10"/>
<path d="M53.6836 209.214L58.7981 206.77L61.3704 201.662L53.7837 204.11L53.6836 209.214Z" fill="#F6F6F6" stroke="#575D68" stroke-width="0.4" stroke-miterlimit="10"/>
<path d="M69.189 213.248C69.4063 215.555 69.5273 217.447 68.0257 218.465C67.3034 218.955 64.2211 221.017 63.2273 221.017C59.7308 221.017 57.0567 215.924 56.1178 211.468C55.8638 210.262 55.6865 206.971 55.6865 206.971C55.6865 206.971 59.0348 204.688 59.8045 204.548C60.6576 204.399 61.5335 204.451 62.3631 204.699C65.9757 205.729 68.8456 209.602 69.189 213.248Z" fill="#F6F6F6" stroke="#575D68" stroke-width="0.4" stroke-miterlimit="10"/>
<path d="M66.6641 215.191C66.9608 218.61 64.9743 221.212 61.9144 221.189C58.418 221.164 54.5125 217.778 53.6065 213.315C52.6212 208.462 55.7033 205.362 59.9014 206.592C63.5063 207.649 66.3477 211.543 66.6641 215.191Z" fill="#F6F6F6" stroke="#575D68" stroke-width="0.4" stroke-miterlimit="10"/>
<path d="M65.6563 215.02C65.918 218.036 64.1657 220.331 61.4667 220.311C58.3826 220.289 54.9376 217.302 54.1384 213.366C53.2694 209.085 55.988 206.35 59.6911 207.436C62.8709 208.368 65.3771 211.803 65.6563 215.02Z" fill="#F6F6F6" stroke="#575D68" stroke-width="0.4" stroke-miterlimit="10"/>
<path d="M101.63 236.643L107.74 232.551L102.703 232.268L101.63 236.643Z" fill="#F6F6F6" stroke="#575D68" stroke-width="0.4" stroke-miterlimit="10"/>
<path d="M157.408 226.646C157.408 226.646 157.342 221.171 147.072 213.907C144.65 212.194 137.904 208.107 137.904 208.107L122.495 193.294C121.869 192.692 121.188 192.152 120.459 191.68C118.911 190.676 116.266 188.985 109.749 185.193C108.206 184.296 101.648 180.384 99.6686 179.522C94.5683 177.299 91.5453 176.107 87.0201 175.706C85.7689 175.601 84.5124 175.572 83.2576 175.619L83.2631 175.613C83.2631 175.613 81.7718 173.55 79.6539 173.424C77.536 173.299 75.3312 172.674 65.7908 177.652C62.3025 179.472 58.1168 182.16 56.4496 184.066C54.4141 186.394 54.5733 188.854 54.0912 191.333C53.8173 191.709 54.0415 198.156 54.0415 198.156C54.0415 198.156 52.7419 200.053 52.5963 201.757C52.4766 203.158 52.3265 204.172 52.2636 204.994C52.1638 206.298 52.4513 208.437 53.5545 209.139L53.6833 209.213C54.2084 205.869 56.9879 204.038 60.5142 205.072C64.37 206.202 67.4091 210.367 67.7475 214.269C67.8483 215.295 67.7274 216.331 67.393 217.306C81.0902 225.37 101.371 237.176 101.63 236.643C102.788 234.254 105.348 233.113 108.453 233.998C112.658 235.197 115.999 239.706 116.399 243.95C116.53 245.344 125.945 251.413 131.213 250.571C140.912 249.02 152.888 240.228 157.416 237.123C158.202 236.583 159.568 234.842 159.599 231.576C159.627 228.707 157.408 226.646 157.408 226.646Z" fill="#F6F6F6" stroke="#575D68" stroke-width="0.4" stroke-miterlimit="10"/>
<path d="M121.387 194.784C121.587 194.668 121.819 194.619 122.049 194.646C122.279 194.672 122.494 194.771 122.663 194.929L136.862 208.186C138.344 209.06 134.021 213.67 128.976 216.872C123.9 220.094 116.965 222.034 113.334 222.875C112.467 223.088 111.555 223.029 110.723 222.706C109.89 222.383 109.178 221.811 108.682 221.068L108.662 221.036L100.277 207.682C100.169 207.51 100.097 207.318 100.065 207.118C100.033 206.918 100.042 206.713 100.091 206.516C100.139 206.319 100.228 206.134 100.35 205.972C100.472 205.81 100.625 205.675 100.801 205.573C105.123 203.954 109.303 201.978 113.297 199.665C118.215 196.677 121.387 194.784 121.387 194.784Z" fill="#DDDEDF" stroke="#575D68" stroke-width="0.4" stroke-miterlimit="10"/>
<path d="M141.174 242.687V246.221L153.209 239.098V235.492L141.174 242.687Z" fill="#F6F6F6" stroke="#575D68" stroke-width="0.4" stroke-miterlimit="10"/>
<path d="M96.846 204.172C94.2971 202.038 88.7272 199.363 82.0948 195.418C78.924 193.532 69.5381 187.756 69.5381 187.756" fill="#F6F6F6"/>
<path d="M96.846 204.172C94.2971 202.038 88.7272 199.363 82.0948 195.418C78.924 193.532 69.5381 187.756 69.5381 187.756" stroke="#575D68" stroke-width="0.4" stroke-miterlimit="10"/>
<path d="M152.977 229.414C152.992 229.544 153.045 229.667 153.127 229.769C153.21 229.87 153.32 229.947 153.444 229.988C153.568 230.03 153.702 230.036 153.829 230.005C153.956 229.974 154.072 229.908 154.164 229.814L157.415 226.469C157.413 225.919 157.196 224.095 154.835 221.242C154.583 221.706 154.322 222.205 154.053 222.755C153.06 224.824 152.686 227.137 152.977 229.414Z" fill="#F6F6F6" stroke="#575D68" stroke-width="0.4" stroke-miterlimit="10"/>
<path d="M83.5322 200.363L83.8017 213.11L106.012 225.337C106.528 225.656 97.8289 208.697 97.8289 208.697C97.1023 207.08 95.8799 205.736 94.3385 204.859L85.6016 199.944C84.8707 199.409 83.6931 199.472 83.5322 200.363Z" fill="#DDDEDF" stroke="#575D68" stroke-width="0.4" stroke-miterlimit="10"/>
<path d="M60.7578 198.199C62.6268 197.068 66.6465 194.815 69.2738 193.354C70.0307 192.932 70.8835 192.714 71.7497 192.719C72.6159 192.724 73.4662 192.952 74.2181 193.382L80.7645 197.276C80.9123 197.364 81.0348 197.488 81.1198 197.638C81.2049 197.788 81.2496 197.957 81.2496 198.129V211.599L60.7733 199.479C60.6613 199.415 60.568 199.322 60.5026 199.211C60.4372 199.099 60.402 198.973 60.4004 198.843C60.3989 198.714 60.431 198.587 60.4937 198.474C60.5563 198.361 60.6473 198.266 60.7578 198.199V198.199Z" fill="#DDDEDF" stroke="#575D68" stroke-width="0.4" stroke-miterlimit="10"/>
<path d="M103.956 222.957V223.255C103.956 223.603 103.865 223.944 103.692 224.245C103.519 224.546 103.27 224.797 102.97 224.971L101.046 226.093C100.765 226.257 100.442 226.335 100.117 226.317C99.7916 226.299 99.479 226.186 99.2175 225.993V225.993C99.0208 225.847 98.8586 225.66 98.7426 225.444C98.6267 225.228 98.5597 224.99 98.5466 224.746C98.528 224.405 98.5327 224.029 98.5448 223.703C98.5551 223.448 98.6312 223.2 98.7657 222.983C98.9002 222.766 99.0885 222.588 99.3124 222.465L101.657 221.173C101.812 221.087 101.984 221.037 102.162 221.024C102.339 221.012 102.516 221.039 102.682 221.102V221.102C103.057 221.246 103.379 221.501 103.607 221.832C103.835 222.163 103.956 222.555 103.956 222.957V222.957Z" fill="#F6F6F6" stroke="#575D68" stroke-width="0.4" stroke-miterlimit="10"/>
<path d="M88.4983 175.949L85.9218 175.639C84.2248 175.557 82.524 175.603 80.8338 175.775L79.782 175.88C78.5802 176.001 77.4055 176.313 76.3025 176.805C72.8635 178.336 65.2002 182.044 60.8111 186.456C60.7477 186.521 60.7055 186.604 60.6901 186.693C60.6747 186.783 60.6868 186.875 60.7247 186.957C60.7627 187.039 60.8248 187.108 60.9028 187.155C60.9808 187.201 61.0711 187.223 61.1616 187.217L68.281 186.763C68.6929 186.736 69.0908 186.603 69.4357 186.376C70.5556 185.644 73.7694 183.668 81.3568 179.741C84.5092 178.11 87.1915 176.993 88.5665 176.452C88.6206 176.43 88.6659 176.391 88.6952 176.341C88.7246 176.29 88.7362 176.232 88.7284 176.174C88.7206 176.116 88.6936 176.063 88.6519 176.022C88.6102 175.981 88.5562 175.956 88.4983 175.949Z" fill="#F6F6F6" stroke="#575D68" stroke-width="0.4" stroke-miterlimit="10"/>
<path d="M110.295 227.6C110.674 228.077 111.136 228.483 111.658 228.798L122.025 235.224" fill="#F6F6F6"/>
<path d="M110.295 227.6C110.674 228.077 111.136 228.483 111.658 228.798L122.025 235.224" stroke="#575D68" stroke-width="0.4" stroke-miterlimit="10"/>
<path d="M136.33 240.701C136.444 240.669 136.547 240.605 136.627 240.518C136.707 240.43 136.76 240.321 136.781 240.204C136.801 240.087 136.788 239.967 136.743 239.857C136.698 239.747 136.623 239.652 136.526 239.583C134.84 238.364 132.837 237.659 130.759 237.552C129.016 237.454 127.267 237.52 125.535 237.749C125.241 237.79 124.968 237.927 124.759 238.139C124.551 238.351 124.417 238.625 124.38 238.92C124.241 240.079 124.346 241.885 126.242 242.241C129.078 242.775 130.619 242.294 130.619 242.294L136.33 240.701Z" fill="#F6F6F6" stroke="#575D68" stroke-width="0.4" stroke-miterlimit="10"/>
<path d="M136.213 233.941L149.64 226.415C149.745 226.354 149.864 226.321 149.986 226.32C150.108 226.32 150.228 226.351 150.334 226.412C150.44 226.473 150.527 226.56 150.589 226.665C150.65 226.771 150.682 226.891 150.682 227.012V231.673C150.682 231.791 150.652 231.907 150.595 232.009C150.538 232.112 150.455 232.199 150.355 232.261L142.101 237.099C141.989 237.168 141.864 237.211 141.733 237.227C141.603 237.242 141.471 237.23 141.346 237.19L136.392 235.607C136.223 235.553 136.073 235.451 135.961 235.313C135.849 235.176 135.779 235.009 135.76 234.832C135.741 234.656 135.774 234.478 135.854 234.32C135.934 234.161 136.059 234.03 136.213 233.941V233.941Z" fill="#F6F6F6" stroke="#575D68" stroke-width="0.4" stroke-miterlimit="10"/>
<path d="M82.335 197.963L82.4497 223.608" stroke="#575D68" stroke-width="0.4" stroke-miterlimit="10"/>
<path d="M76.1079 175.598C76.1079 175.598 59.5782 184.236 58.0752 186.866C56.5722 189.496 57.0136 190.992 57.0136 190.992" fill="#F6F6F6"/>
<path d="M76.1079 175.598C76.1079 175.598 59.5782 184.236 58.0752 186.866C56.5722 189.496 57.0136 190.992 57.0136 190.992" stroke="#575D68" stroke-width="0.4" stroke-miterlimit="10"/>
<path d="M150.681 227.012C150.681 227.012 150.681 224.426 145.417 218.698C143.181 216.193 140.799 213.823 138.285 211.598" fill="#F6F6F6"/>
<path d="M150.681 227.012C150.681 227.012 150.681 224.426 145.417 218.698C143.181 216.193 140.799 213.823 138.285 211.598" stroke="#575D68" stroke-width="0.4" stroke-miterlimit="10"/>
<path d="M170.89 268.495C171.798 267.726 172.788 267.057 173.84 266.502C174.379 266.186 174.881 265.812 175.337 265.385C175.433 265.288 175.523 265.183 175.605 265.073C175.485 265.042 175.375 264.981 175.285 264.897C175.194 264.812 175.126 264.707 175.086 264.59C175.058 264.379 175.093 264.165 175.185 263.973C175.927 261.878 175.873 259.605 175.964 257.388C176.094 254.239 176.533 251.111 176.972 247.99C177.482 244.368 178.013 240.674 179.66 237.399C179.728 237.223 179.85 237.074 180.008 236.971C180.172 236.906 180.351 236.888 180.524 236.919C182.06 237.055 183.596 237.19 185.133 237.325C185.445 237.322 185.751 237.412 186.014 237.581C186.414 237.904 186.396 238.503 186.333 239.01C186.14 240.56 185.864 242.098 185.506 243.619L185.056 242.676C184.557 245.75 183.294 248.644 182.334 251.609C180.87 256.131 180.758 260.353 180.254 265.073C180.074 265.068 179.242 265.553 179.062 265.543C179.224 266.147 179.323 266.766 179.355 267.391C179.372 267.698 179.269 268.001 179.066 268.233C178.863 268.465 178.578 268.609 178.27 268.633C177.121 268.785 175.986 269.026 174.874 269.355C173.744 269.659 172.578 269.802 171.408 269.781C171.286 269.778 171.166 269.757 171.051 269.719C170.911 269.679 170.788 269.597 170.698 269.484C170.608 269.37 170.555 269.232 170.548 269.087C170.584 268.854 170.706 268.643 170.89 268.495V268.495Z" fill="#DDDEDF" stroke="#575D68" stroke-width="0.4" stroke-miterlimit="10"/>
<path d="M175.679 214.03C174.19 214.762 174.157 217.031 173.735 218.651C173.282 220.391 172.233 222.762 172.062 224.555C171.867 226.004 172.01 227.478 172.479 228.863C172.776 229.63 173.375 230.418 174.168 230.381C174.835 230.351 175.334 229.755 175.746 229.208C176.557 228.213 177.25 227.128 177.813 225.975C178.368 224.553 178.724 223.062 178.871 221.543C179.095 220.228 179.185 218.894 179.141 217.561C179.063 216.348 181.665 214.028 180.76 213.132C179.724 212.107 178.121 212.831 175.679 214.03Z" fill="#F6F6F6" stroke="#575D68" stroke-width="0.4" stroke-miterlimit="10"/>
<path d="M194.167 233.182C194.288 233.148 194.392 233.071 194.462 232.966C194.531 232.862 194.561 232.735 194.545 232.611C194.809 229.067 193.938 216.626 192.692 213.728C191.769 211.58 186.371 210.739 184.047 211.002C183.524 211.046 183.006 211.144 182.502 211.292C182.202 211.466 180.997 215.05 181.023 216.222C181.133 221.281 183.005 225.642 184.511 230.474C184.848 231.556 185.247 232.693 186.13 233.403C187.216 234.242 188.52 234.75 189.887 234.867C191.33 234.862 192.898 233.77 194.167 233.182Z" fill="#DDDEDF" stroke="#575D68" stroke-width="0.4" stroke-miterlimit="10"/>
<path d="M186.395 237.115C187.635 236.892 189.22 236.361 190.475 236.459C191.171 236.514 191.1 236.669 191.174 237.393C191.245 238.089 191.306 238.785 191.372 239.481C191.499 240.819 191.626 242.158 191.753 243.496C191.823 244.823 192.061 246.135 192.459 247.403C192.864 248.409 193.369 249.372 193.966 250.278C195.851 253.212 197.465 256.31 198.789 259.536C199.079 260.137 199.19 260.809 199.107 261.471C198.883 261.676 198.649 261.868 198.404 262.047C198.873 262.652 199.243 263.328 199.501 264.049C199.745 264.991 198.651 265.968 198.108 266.738C197.902 267.058 197.657 267.351 197.379 267.61C196.696 268.196 195.746 268.328 194.853 268.437L191.718 268.819C191.381 268.86 190.928 268.824 190.857 268.493C190.841 268.383 190.857 268.27 190.904 268.169C191.254 267.279 192.219 266.93 192.921 266.384C193.932 265.598 194.078 264.801 194.415 263.607C194.281 263.609 194.149 263.57 194.038 263.495C193.911 263.385 193.815 263.245 193.758 263.088C191.658 258.558 189.384 254.115 186.934 249.759C186.605 249.175 186.273 248.591 185.993 247.981C185.714 247.372 185.488 246.74 185.262 246.109C184.287 243.381 183.311 240.653 182.336 237.925C183.684 237.63 185.037 237.36 186.395 237.115Z" fill="#DDDEDF" stroke="#575D68" stroke-width="0.4" stroke-miterlimit="10"/>
<path d="M175.68 214.031C176.372 213.223 177.363 213.43 178.121 212.831C177.723 212.759 177.348 212.587 177.033 212.333C176.718 212.079 176.471 211.75 176.316 211.376C176.228 211.095 176.172 210.805 176.15 210.512C176.069 209.805 175.988 209.098 175.907 208.391C175.844 207.837 175.604 207.254 175.584 206.716C175.814 206.706 176.046 206.683 176.276 206.664C177.113 205.708 178.173 204.972 179.361 204.522C179.955 204.302 180.591 204.215 181.223 204.267C181.855 204.318 182.468 204.508 183.019 204.822C184.525 205.763 184.319 207.253 183.789 208.781C183.439 209.793 182.948 210.757 182.672 211.793C182.18 213.636 184.051 213.628 185.362 214.011C185.588 214.062 185.802 214.157 185.992 214.291C186.172 214.46 186.312 214.668 186.399 214.899C187.549 217.433 187.683 220.288 188.089 223.042C188.733 227.407 190.096 231.632 191.025 235.946C191.066 236.082 191.072 236.226 191.043 236.365C191.003 236.475 190.939 236.575 190.857 236.658C189.35 238.37 187.261 239.46 184.995 239.717C183.268 239.85 181.531 239.649 179.88 239.125C179.695 239.086 179.521 239.005 179.372 238.887C179.172 238.649 179.069 238.343 179.083 238.032C178.89 235.32 178.964 232.596 179.303 229.898C179.387 229.473 179.386 229.036 179.301 228.611C179.196 228.307 179.052 228.017 178.871 227.751C178.35 226.831 177.892 225.878 177.499 224.897C177.22 224.243 177.284 223.955 177.041 223.288C176.632 222.139 176.337 220.953 176.161 219.746C175.937 218.218 175.748 217.132 175.642 216.076" fill="#F6F6F6"/>
<path d="M175.68 214.031C176.372 213.223 177.363 213.43 178.121 212.831C177.723 212.759 177.348 212.587 177.033 212.333C176.718 212.079 176.471 211.75 176.316 211.376C176.228 211.095 176.172 210.805 176.15 210.512C176.069 209.805 175.988 209.098 175.907 208.391C175.844 207.837 175.604 207.254 175.584 206.716C175.814 206.706 176.046 206.683 176.276 206.664C177.113 205.708 178.173 204.972 179.361 204.522C179.955 204.302 180.591 204.215 181.223 204.267C181.855 204.318 182.468 204.508 183.019 204.822C184.525 205.763 184.319 207.253 183.789 208.781C183.439 209.793 182.948 210.757 182.672 211.793C182.18 213.636 184.051 213.628 185.362 214.011C185.588 214.062 185.802 214.157 185.992 214.291C186.172 214.46 186.312 214.668 186.399 214.899C187.549 217.433 187.683 220.288 188.089 223.042C188.733 227.407 190.096 231.632 191.025 235.946C191.066 236.082 191.072 236.226 191.043 236.365C191.003 236.475 190.939 236.575 190.857 236.658C189.35 238.37 187.261 239.46 184.995 239.717C183.268 239.85 181.531 239.649 179.88 239.125C179.695 239.086 179.521 239.005 179.372 238.887C179.172 238.649 179.069 238.343 179.083 238.032C178.89 235.32 178.964 232.596 179.303 229.898C179.387 229.473 179.386 229.036 179.301 228.611C179.196 228.307 179.052 228.017 178.871 227.751C178.35 226.831 177.892 225.878 177.499 224.897C177.22 224.243 177.284 223.955 177.041 223.288C176.632 222.139 176.337 220.953 176.161 219.746C175.937 218.218 175.748 217.132 175.642 216.076" stroke="#575D68" stroke-width="0.4" stroke-miterlimit="10"/>
<path d="M186.492 214.163L184.565 213.571C184.412 213.524 184.249 213.529 184.099 213.584C183.949 213.639 183.822 213.742 183.736 213.877C183.053 214.955 181.219 217.392 181.022 220.336C180.885 222.388 181.243 225.625 184.398 226.813C186.157 227.527 188.087 227.711 189.949 227.342L189.692 226.202C189.692 226.202 183.642 227.186 182.656 223.94C182.111 222.145 182.792 218.454 184.024 216.324C185.362 214.011 186.492 214.163 186.492 214.163Z" fill="#DDDEDF" stroke="#575D68" stroke-width="0.4" stroke-miterlimit="10"/>
<path d="M191.391 224.813C191.444 225.532 191.473 226.24 191.487 226.924C191.561 228.14 191.369 229.357 190.926 230.491C190.858 230.664 190.755 230.821 190.623 230.952C190.461 231.068 190.276 231.148 190.08 231.185C189.884 231.223 189.682 231.216 189.489 231.167C188.129 230.952 186.98 230.075 185.895 229.227C185 228.527 184.1 227.835 183.22 227.117C182.37 226.421 181.586 225.648 180.877 224.809C180.509 224.451 180.264 223.985 180.176 223.478C180.169 223.377 180.353 222.629 180.414 222.319L180.459 222.09C180.488 221.938 180.518 221.786 180.555 221.636C180.638 221.303 180.759 220.981 180.916 220.676C181.022 220.797 181.162 220.797 181.012 221.613C180.985 221.966 181.069 222.317 181.253 222.619C181.488 223.026 182.195 222.765 182.269 222.325C182.321 221.824 182.4 221.326 182.504 220.832C182.508 220.809 182.518 220.788 182.534 220.771C182.551 220.76 182.571 220.755 182.591 220.757C182.611 220.76 182.63 220.77 182.643 220.785C182.669 220.816 182.686 220.854 182.693 220.894C182.853 221.478 183.013 222.063 183.173 222.647C183.263 223.151 183.433 223.637 183.676 224.088C184.368 225.161 185.771 225.472 187.03 225.691C185.184 223.801 184.109 221.291 184.015 218.652C183.958 216.839 185.167 212.593 187.522 214.734C190.242 217.208 191.123 221.15 191.391 224.813Z" fill="#F6F6F6" stroke="#575D68" stroke-width="0.4" stroke-miterlimit="10"/>
<path d="M177.935 225.904C175.682 223.718 175.696 218.522 175.477 216.284C175.435 215.857 175.322 214.626 175.68 214.031C175.963 213.562 177.234 212.922 177.795 212.849C178.415 212.768 178.002 213.376 177.863 213.798C177.187 215.85 177.316 217.998 177.286 220.148C177.274 220.997 177.5 224.898 177.935 225.904Z" fill="#DDDEDF" stroke="#575D68" stroke-width="0.4" stroke-miterlimit="10"/>
<path d="M173.568 230.222C173.936 230.302 174.321 230.255 174.658 230.087C174.993 229.919 175.29 229.685 175.532 229.398C175.776 229.121 175.983 228.813 176.146 228.482C177.103 226.544 176.601 224.178 176.584 222.144C176.578 221.856 176.636 221.57 176.752 221.307C176.875 221.023 177.064 220.772 177.304 220.577C177.503 220.448 177.689 220.3 177.86 220.134C177.997 219.925 178.081 219.686 178.106 219.438C178.13 219.19 178.094 218.939 178.001 218.708C177.857 218.225 177.63 217.771 177.328 217.368L177.328 217.379C177.33 217.684 177.211 217.978 176.998 218.196C176.784 218.414 176.494 218.539 176.189 218.543C176.105 218.544 176.022 218.536 175.94 218.52C175.862 218.511 175.786 218.483 175.721 218.438C175.655 218.393 175.601 218.334 175.563 218.264C175.505 218.122 175.674 217.268 175.548 217.18C175.045 217.666 174.969 218.596 174.791 218.996C174.645 219.327 174.787 219.876 174.701 220.284C174.486 221.491 174.065 222.653 173.456 223.718C172.467 225.875 172.746 228.007 172.93 228.314" fill="#F6F6F6"/>
<path d="M173.568 230.222C173.936 230.302 174.321 230.255 174.658 230.087C174.993 229.919 175.29 229.685 175.532 229.398C175.776 229.121 175.983 228.813 176.146 228.482C177.103 226.544 176.601 224.178 176.584 222.144C176.578 221.856 176.636 221.57 176.752 221.307C176.875 221.023 177.064 220.772 177.304 220.577C177.503 220.448 177.689 220.3 177.86 220.134C177.997 219.925 178.081 219.686 178.106 219.438C178.13 219.19 178.094 218.939 178.001 218.708C177.857 218.225 177.63 217.771 177.328 217.368L177.328 217.379C177.33 217.684 177.211 217.978 176.998 218.196C176.784 218.414 176.494 218.539 176.189 218.543C176.105 218.544 176.022 218.536 175.94 218.52C175.862 218.511 175.786 218.483 175.721 218.438C175.655 218.393 175.601 218.334 175.563 218.264C175.505 218.122 175.674 217.268 175.548 217.18C175.045 217.666 174.969 218.596 174.791 218.996C174.645 219.327 174.787 219.876 174.701 220.284C174.486 221.491 174.065 222.653 173.456 223.718C172.467 225.875 172.746 228.007 172.93 228.314" stroke="#575D68" stroke-width="0.4" stroke-miterlimit="10"/>
<path d="M182.991 210.752C182.861 210.768 182.73 210.75 182.609 210.7C182.489 210.65 182.383 210.57 182.303 210.467C182.145 210.258 182.043 210.013 182.006 209.754C181.935 209.37 181.931 208.977 181.997 208.592C182.077 208.265 182.139 207.934 182.184 207.6C182.205 207.432 182.187 207.262 182.132 207.103C182.077 206.943 181.986 206.799 181.866 206.68" fill="#F6F6F6"/>
<path d="M182.991 210.752C182.861 210.768 182.73 210.75 182.609 210.7C182.489 210.65 182.383 210.57 182.303 210.467C182.145 210.258 182.043 210.013 182.006 209.754C181.935 209.37 181.931 208.977 181.997 208.592C182.077 208.265 182.139 207.934 182.184 207.6C182.205 207.432 182.187 207.262 182.132 207.103C182.077 206.943 181.986 206.799 181.866 206.68" stroke="#575D68" stroke-width="0.4" stroke-miterlimit="10"/>
<path d="M179.087 208.757C178.508 209.036 177.851 209.111 177.224 208.968C176.536 208.711 176.198 207.963 175.786 207.356C175.375 206.748 174.598 206.192 173.957 206.548C174.238 206.085 174.659 205.723 175.159 205.514C175.328 205.462 175.486 205.38 175.626 205.272C175.764 205.117 175.855 204.926 175.89 204.721C176.223 203.43 176.541 201.912 177.742 201.334C178.355 201.095 179.021 201.019 179.672 201.114C181.205 201.223 182.809 201.488 184.013 202.443C184.314 202.665 184.561 202.953 184.735 203.284C184.909 203.615 185.007 203.981 185.02 204.355C185.038 205.002 184.882 206.123 184.415 206.604C184.27 206.739 184.106 206.85 183.927 206.933C183.189 207.362 182.421 207.735 181.627 208.048C180.8 208.331 179.92 208.475 179.087 208.757Z" fill="#F6F6F6" stroke="#575D68" stroke-width="0.4" stroke-miterlimit="10"/>
<path style="mix-blend-mode:multiply" d="M179.087 208.757C178.508 209.036 177.851 209.111 177.224 208.968C176.536 208.711 176.198 207.963 175.786 207.356C175.375 206.748 174.598 206.192 173.957 206.548C174.238 206.085 174.659 205.723 175.159 205.514C175.328 205.462 175.486 205.38 175.626 205.272C175.764 205.117 175.855 204.926 175.89 204.721C176.223 203.43 176.541 201.912 177.742 201.334C178.355 201.095 179.021 201.019 179.672 201.114C181.205 201.223 182.809 201.488 184.013 202.443C184.314 202.665 184.561 202.953 184.735 203.284C184.909 203.615 185.007 203.981 185.02 204.355C185.038 205.002 184.882 206.123 184.415 206.604C184.27 206.739 184.106 206.85 183.927 206.933C183.189 207.362 182.421 207.735 181.627 208.048C180.8 208.331 179.92 208.475 179.087 208.757Z" fill="url(#paint0_linear_480_8244)"/>
<path d="M178.121 212.831C178.811 212.784 179.483 212.588 180.091 212.257C180.503 212.044 180.847 211.718 181.083 211.318C181.318 210.917 181.435 210.458 181.419 209.994" fill="#F6F6F6"/>
<path d="M178.121 212.831C178.811 212.784 179.483 212.588 180.091 212.257C180.503 212.044 180.847 211.718 181.083 211.318C181.318 210.917 181.435 210.458 181.419 209.994" stroke="#575D68" stroke-width="0.4" stroke-miterlimit="10"/>
<path d="M187.522 214.735C188.295 214.376 189.111 214.12 189.949 213.974C192.195 213.541 193.409 216.583 193.409 216.583" fill="#DDDEDF"/>
<path d="M187.522 214.735C188.295 214.376 189.111 214.12 189.949 213.974C192.195 213.541 193.409 216.583 193.409 216.583" stroke="#575D68" stroke-width="0.4" stroke-miterlimit="10"/>
<path d="M194.496 227.525L191.317 229.234" stroke="#575D68" stroke-width="0.4" stroke-miterlimit="10"/>
<path d="M194.587 231.199L190.529 233.473" stroke="#575D68" stroke-width="0.4" stroke-miterlimit="10"/>
<path d="M180.459 222.09C180.599 222.627 180.862 223.125 181.227 223.544Z" fill="#F6F6F6"/>
<path d="M180.459 222.09C180.599 222.627 180.862 223.125 181.227 223.544" stroke="#575D68" stroke-width="0.4" stroke-miterlimit="10"/>
<path d="M180.254 222.91C180.276 223.343 180.455 223.754 180.76 224.063Z" fill="#F6F6F6"/>
<path d="M180.254 222.91C180.276 223.343 180.455 223.754 180.76 224.063" stroke="#575D68" stroke-width="0.4" stroke-miterlimit="10"/>
<path d="M194.416 263.607C195.191 263.572 195.954 263.408 196.674 263.122C197.289 262.828 197.869 262.468 198.405 262.047" fill="#DDDEDF"/>
<path d="M194.416 263.607C195.191 263.572 195.954 263.408 196.674 263.122C197.289 262.828 197.869 262.468 198.405 262.047" stroke="#575D68" stroke-width="0.4" stroke-miterlimit="10"/>
<path d="M175.604 265.074C175.604 265.074 176.848 265.818 177.333 265.82C177.921 265.825 178.505 265.732 179.062 265.545" fill="#DDDEDF"/>
<path d="M175.604 265.074C175.604 265.074 176.848 265.818 177.333 265.82C177.921 265.825 178.505 265.732 179.062 265.545" stroke="#575D68" stroke-width="0.4" stroke-miterlimit="10"/>
<path d="M27.667 -143.336V33.3468L399.526 249.862V70.4335L27.667 -143.336Z" fill="#F6F6F6" stroke="#575D68" stroke-width="0.61474" stroke-miterlimit="10"/>
<path d="M27.7866 -36.7871L145.279 30.9873L114.756 48.8778L0.0175781 -20.5557L27.7866 -36.7871Z" fill="#F6F6F6" stroke="#575D68" stroke-width="0.61474" stroke-miterlimit="10"/>
<path d="M114.756 119.452V48.8788L145.279 30.9883L145.245 101.819L114.756 119.452Z" fill="#F6F6F6" stroke="#575D68" stroke-width="0.61474" stroke-miterlimit="10"/>
<path d="M27.7461 -11.183L25.9492 -19.6044L27.7461 -21.0449L102.008 21.3019V31.9365L100.211 33.3765L27.7461 -11.183Z" fill="#F6F6F6" stroke="#575D68" stroke-width="0.61474" stroke-miterlimit="10"/>
<path d="M25.9492 -9.74208V-19.6035L100.211 22.7427V33.3774L25.9492 -9.74208Z" fill="#F6F6F6" stroke="#575D68" stroke-width="0.61474" stroke-miterlimit="10"/>
<path d="M-0.0234375 -20.582V52.6675L114.755 119.452V48.8784L-0.0234375 -20.582Z" fill="#F6F6F6" stroke="#575D68" stroke-width="0.61474" stroke-miterlimit="10"/>
<path d="M124.359 111.405L117.436 115.416L117.501 49.9542L124.425 45.9434L124.359 111.405Z" fill="#F6F6F6" stroke="#575D68" stroke-width="0.61474" stroke-miterlimit="10"/>
<path d="M134.008 105.817L127.085 109.827L127.15 44.3663L134.074 40.3555L134.008 105.817Z" fill="#F6F6F6" stroke="#575D68" stroke-width="0.61474" stroke-miterlimit="10"/>
<path d="M143.657 100.227L136.733 104.238L136.799 38.7765L143.722 34.7656L143.657 100.227Z" fill="#F6F6F6" stroke="#575D68" stroke-width="0.61474" stroke-miterlimit="10"/>
<path d="M91.4006 101.84L84.4688 97.8428L84.6363 33.4414L91.5676 37.4385L91.4006 101.84Z" fill="#F6F6F6" stroke="#575D68" stroke-width="0.61474" stroke-miterlimit="10"/>
<path d="M100.734 107.221L93.8027 103.224L93.9702 38.8223L100.902 42.8194L100.734 107.221Z" fill="#F6F6F6" stroke="#575D68" stroke-width="0.61474" stroke-miterlimit="10"/>
<path d="M110.028 112.582L103.097 108.585L103.264 44.1836L110.196 48.1807L110.028 112.582Z" fill="#F6F6F6" stroke="#575D68" stroke-width="0.61474" stroke-miterlimit="10"/>
<path d="M12.7663 56.4942L5.83496 52.4971L6.00247 -11.9043L12.9338 -7.90716L12.7663 56.4942Z" fill="#F6F6F6" stroke="#575D68" stroke-width="0.61474" stroke-miterlimit="10"/>
<path d="M22.8288 62.297L15.8975 58.2999L16.065 -6.10156L22.9963 -2.10443L22.8288 62.297Z" fill="#F6F6F6" stroke="#575D68" stroke-width="0.61474" stroke-miterlimit="10"/>
<path d="M32.8806 68.0939L25.9492 64.0968L26.1167 -0.304688L33.0481 3.69245L32.8806 68.0939Z" fill="#F6F6F6" stroke="#575D68" stroke-width="0.61474" stroke-miterlimit="10"/>
<path d="M81.7501 96.2748L59.0908 83.3116L59.2578 18.9102L81.9171 31.8733L81.7501 96.2748Z" fill="#F6F6F6" stroke="#575D68" stroke-width="0.61474" stroke-miterlimit="10"/>
<path d="M56.2264 81.6517L35.4824 69.5928L35.6499 5.19141L56.3939 17.2497L56.2264 81.6517Z" fill="#F6F6F6" stroke="#575D68" stroke-width="0.61474" stroke-miterlimit="10"/>
<path d="M209.953 59.6278L125.261 11.1033L124.983 -74.627L209.674 -26.1024L209.953 59.6278Z" fill="#F6F6F6" stroke="#575D68" stroke-width="0.61474" stroke-miterlimit="10"/>
<path d="M206.808 44.635L128.747 -0.090502L128.522 -69.3613L206.583 -24.6364L206.808 44.635Z" fill="#F6F6F6" stroke="#575D68" stroke-width="0.61474" stroke-miterlimit="10"/>
<path d="M148.605 8.17676L131.665 -1.52878L131.523 -45.1523L148.463 -35.4468L148.605 8.17676Z" fill="#F6F6F6" stroke="#575D68" stroke-width="0.61474" stroke-miterlimit="10"/>
<path d="M132.929 -2.30302L132.762 -44.4429L131.523 -45.1523L131.665 -1.52878L148.605 8.17676L148.599 6.54084L132.929 -2.30302Z" fill="#F6F6F6" stroke="#575D68" stroke-width="0.61474" stroke-miterlimit="10"/>
<path d="M185.713 29.4385L150.42 9.21783L150.279 -34.4062L185.572 -14.1851L185.713 29.4385Z" fill="#F6F6F6" stroke="#575D68" stroke-width="0.61474" stroke-miterlimit="10"/>
<path d="M151.583 8.42832L151.447 -33.7374L150.279 -34.4062L150.42 9.21731L185.713 29.4385L185.708 27.7546L151.583 8.42832Z" fill="#F6F6F6" stroke="#575D68" stroke-width="0.61474" stroke-miterlimit="10"/>
<path d="M203.957 39.8902L187.017 30.1846L186.876 -13.4395L203.815 -3.73337L203.957 39.8902Z" fill="#F6F6F6" stroke="#575D68" stroke-width="0.61474" stroke-miterlimit="10"/>
<path d="M188.105 29.4594L187.968 -12.8137L186.876 -13.4395L187.017 30.1846L203.957 39.8902L203.952 38.5392L188.105 29.4594Z" fill="#F6F6F6" stroke="#575D68" stroke-width="0.61474" stroke-miterlimit="10"/>
<path d="M186.87 30.3033L188.103 29.5566" stroke="#575D68" stroke-width="0.61474" stroke-miterlimit="10"/>
<path d="M150.545 9.17441L151.778 8.42773" stroke="#575D68" stroke-width="0.61474" stroke-miterlimit="10"/>
<path d="M300.54 112.268L215.849 63.7439L215.571 -21.9863L300.263 26.5382L300.54 112.268Z" fill="#F6F6F6" stroke="#575D68" stroke-width="0.61474" stroke-miterlimit="10"/>
<path d="M297.396 97.2755L219.335 52.5506L219.11 -16.7207L297.171 28.0047L297.396 97.2755Z" fill="#F6F6F6" stroke="#575D68" stroke-width="0.61474" stroke-miterlimit="10"/>
<path d="M239.046 15.591L222.107 5.8855L222.049 -11.9434L238.988 -2.23783L239.046 15.591Z" fill="#F6F6F6" stroke="#575D68" stroke-width="0.61474" stroke-miterlimit="10"/>
<path d="M223.558 5.02302L239.041 13.8943L238.988 -2.23811L223.505 -11.1094L223.558 5.02302Z" fill="#F6F6F6" stroke="#575D68" stroke-width="0.61474" stroke-miterlimit="10"/>
<path d="M239.192 60.8178L222.253 51.1123L222.111 7.48828L239.051 17.1938L239.192 60.8178Z" fill="#F6F6F6" stroke="#575D68" stroke-width="0.61474" stroke-miterlimit="10"/>
<path d="M223.517 50.3375L223.349 8.19774L222.111 7.48828L222.253 51.1118L239.192 60.8178L239.187 59.1819L223.517 50.3375Z" fill="#F6F6F6" stroke="#575D68" stroke-width="0.61474" stroke-miterlimit="10"/>
<path d="M276.155 36.8528L240.863 16.6321L240.805 -1.19727L276.097 19.0239L276.155 36.8528Z" fill="#F6F6F6" stroke="#575D68" stroke-width="0.61474" stroke-miterlimit="10"/>
<path d="M242.108 15.7957L242.056 -0.479898L240.805 -1.19727L240.863 16.6321L276.155 36.8528L276.149 35.3L242.108 15.7957Z" fill="#F6F6F6" stroke="#575D68" stroke-width="0.61474" stroke-miterlimit="10"/>
<path d="M276.301 82.0797L241.009 61.8585L240.867 18.2344L276.16 38.4555L276.301 82.0797Z" fill="#F6F6F6" stroke="#575D68" stroke-width="0.61474" stroke-miterlimit="10"/>
<path d="M242.17 61.0695L242.035 18.9033L240.867 18.2344L241.009 61.8585L276.301 82.0797L276.296 80.3958L242.17 61.0695Z" fill="#F6F6F6" stroke="#575D68" stroke-width="0.61474" stroke-miterlimit="10"/>
<path d="M294.397 47.3059L277.458 37.6004L277.4 19.7715L294.34 29.477L294.397 47.3059Z" fill="#F6F6F6" stroke="#575D68" stroke-width="0.61474" stroke-miterlimit="10"/>
<path d="M278.691 36.8535L278.64 20.4815L277.4 19.7715L277.458 37.6004L294.398 47.3059L294.391 45.8491L278.691 36.8535Z" fill="#F6F6F6" stroke="#575D68" stroke-width="0.61474" stroke-miterlimit="10"/>
<path d="M294.544 92.5303L277.605 82.8247L277.463 39.2012L294.402 48.9067L294.544 92.5303Z" fill="#F6F6F6" stroke="#575D68" stroke-width="0.61474" stroke-miterlimit="10"/>
<path d="M278.692 82.0995L278.555 39.8269L277.463 39.2012L277.605 82.8247L294.544 92.5303L294.539 91.1798L278.692 82.0995Z" fill="#F6F6F6" stroke="#575D68" stroke-width="0.61474" stroke-miterlimit="10"/>
<path d="M277.458 37.6001L278.691 36.8535" stroke="#575D68" stroke-width="0.61474" stroke-miterlimit="10"/>
<path d="M277.458 82.9458L278.691 82.1992" stroke="#575D68" stroke-width="0.61474" stroke-miterlimit="10"/>
<path d="M241.133 61.815L242.366 61.0684" stroke="#575D68" stroke-width="0.61474" stroke-miterlimit="10"/>
<path d="M222.285 51.0844L223.518 50.3379" stroke="#575D68" stroke-width="0.61474" stroke-miterlimit="10"/>
<path d="M391.129 163.604L306.438 115.08L306.16 29.3496L390.852 77.8741L391.129 163.604Z" fill="#F6F6F6" stroke="#575D68" stroke-width="0.61474" stroke-miterlimit="10"/>
<path d="M387.984 148.611L309.924 103.886L309.699 34.6152L387.76 79.3407L387.984 148.611Z" fill="#F6F6F6" stroke="#575D68" stroke-width="0.61474" stroke-miterlimit="10"/>
<path d="M329.635 66.9269L312.696 57.2214L312.638 39.3926L329.577 49.0981L329.635 66.9269Z" fill="#F6F6F6" stroke="#575D68" stroke-width="0.61474" stroke-miterlimit="10"/>
<path d="M314.146 56.3589L329.629 65.2302L329.577 49.0978L314.094 40.2266L314.146 56.3589Z" fill="#F6F6F6" stroke="#575D68" stroke-width="0.61474" stroke-miterlimit="10"/>
<path d="M329.781 112.154L312.841 102.448L312.7 58.8242L329.64 68.5297L329.781 112.154Z" fill="#F6F6F6" stroke="#575D68" stroke-width="0.61474" stroke-miterlimit="10"/>
<path d="M314.106 101.673L313.938 59.5337L312.7 58.8242L312.841 102.448L329.781 112.154L329.776 110.518L314.106 101.673Z" fill="#F6F6F6" stroke="#575D68" stroke-width="0.61474" stroke-miterlimit="10"/>
<path d="M366.743 88.1886L331.451 67.9675L331.394 50.1387L366.686 70.3598L366.743 88.1886Z" fill="#F6F6F6" stroke="#575D68" stroke-width="0.61474" stroke-miterlimit="10"/>
<path d="M332.697 67.1316L332.645 50.856L331.394 50.1387L331.451 67.9675L366.743 88.1886L366.738 86.6359L332.697 67.1316Z" fill="#F6F6F6" stroke="#575D68" stroke-width="0.61474" stroke-miterlimit="10"/>
<path d="M366.89 133.416L331.598 113.194L331.456 69.5703L366.749 89.7914L366.89 133.416Z" fill="#F6F6F6" stroke="#575D68" stroke-width="0.61474" stroke-miterlimit="10"/>
<path d="M332.759 112.405L332.623 70.2392L331.456 69.5703L331.598 113.194L366.89 133.415L366.884 131.731L332.759 112.405Z" fill="#F6F6F6" stroke="#575D68" stroke-width="0.61474" stroke-miterlimit="10"/>
<path d="M331.722 113.151L332.955 112.404" stroke="#575D68" stroke-width="0.61474" stroke-miterlimit="10"/>
<path d="M312.874 102.418L314.107 101.672" stroke="#575D68" stroke-width="0.61474" stroke-miterlimit="10"/>
<path d="M119.364 7.43585L34.6721 -41.0881L34.3945 -126.818L119.085 -78.2938L119.364 7.43585Z" fill="#F6F6F6" stroke="#575D68" stroke-width="0.61474" stroke-miterlimit="10"/>
<path d="M305.643 119.443L305.642 190.333L391.13 239.234V168.939L305.643 119.443Z" fill="#F6F6F6" stroke="#575D68" stroke-width="0.61474" stroke-miterlimit="10"/>
<path d="M359.036 218.53L335.258 204.793L335.275 150.314L359.053 164.05L359.036 218.53Z" fill="#F6F6F6" stroke="#575D68" stroke-width="0.61474" stroke-miterlimit="10"/>
<path d="M336.598 203.758L336.615 151.088L335.275 150.314L335.258 204.793L359.036 218.53L359.037 216.721L336.598 203.758Z" fill="#F6F6F6" stroke="#575D68" stroke-width="0.61474" stroke-miterlimit="10"/>
<path d="M359.054 161.039L335.276 147.303L335.278 141.498L359.056 155.234L359.054 161.039Z" fill="#F6F6F6" stroke="#575D68" stroke-width="0.61474" stroke-miterlimit="10"/>
<path d="M336.533 146.465L336.534 142.223L335.278 141.498L335.276 147.303L359.054 161.039L359.055 159.476L336.533 146.465Z" fill="#F6F6F6" stroke="#575D68" stroke-width="0.61474" stroke-miterlimit="10"/>
<path d="M335.276 147.302L336.533 146.465" stroke="#575D68" stroke-width="0.61474" stroke-miterlimit="10"/>
<path d="M335.258 204.795L336.598 203.76" stroke="#575D68" stroke-width="0.61474" stroke-miterlimit="10"/>
<path d="M331.364 202.713L307.586 188.977L307.603 134.498L331.381 148.234L331.364 202.713Z" fill="#F6F6F6" stroke="#575D68" stroke-width="0.61474" stroke-miterlimit="10"/>
<path d="M308.926 187.942L308.943 135.272L307.603 134.498L307.586 188.977L331.364 202.713L331.365 200.905L308.926 187.942Z" fill="#F6F6F6" stroke="#575D68" stroke-width="0.61474" stroke-miterlimit="10"/>
<path d="M331.382 145.223L307.604 131.487L307.606 125.682L331.383 139.418L331.382 145.223Z" fill="#F6F6F6" stroke="#575D68" stroke-width="0.61474" stroke-miterlimit="10"/>
<path d="M308.86 130.649L308.861 126.407L307.606 125.682L307.604 131.487L331.382 145.223L331.382 143.66L308.86 130.649Z" fill="#F6F6F6" stroke="#575D68" stroke-width="0.61474" stroke-miterlimit="10"/>
<path d="M307.604 131.486L308.861 130.648" stroke="#575D68" stroke-width="0.61474" stroke-miterlimit="10"/>
<path d="M307.586 188.979L308.926 187.943" stroke="#575D68" stroke-width="0.61474" stroke-miterlimit="10"/>
<path d="M215.054 66.7129L215.053 137.603L300.541 186.504V116.209L215.054 66.7129Z" fill="#F6F6F6" stroke="#575D68" stroke-width="0.61474" stroke-miterlimit="10"/>
<path d="M296.384 182.056L272.605 168.319L272.623 113.84L296.401 127.576L296.384 182.056Z" fill="#F6F6F6" stroke="#575D68" stroke-width="0.61474" stroke-miterlimit="10"/>
<path d="M273.946 167.284L273.962 114.614L272.623 113.84L272.605 168.319L296.384 182.056L296.384 180.246L273.946 167.284Z" fill="#F6F6F6" stroke="#575D68" stroke-width="0.61474" stroke-miterlimit="10"/>
<path d="M296.401 124.565L272.623 110.829L272.625 105.023L296.403 118.76L296.401 124.565Z" fill="#F6F6F6" stroke="#575D68" stroke-width="0.61474" stroke-miterlimit="10"/>
<path d="M273.879 109.991L273.881 105.749L272.625 105.023L272.623 110.829L296.401 124.565L296.402 123.002L273.879 109.991Z" fill="#F6F6F6" stroke="#575D68" stroke-width="0.61474" stroke-miterlimit="10"/>
<path d="M272.624 110.828L273.88 109.99" stroke="#575D68" stroke-width="0.61474" stroke-miterlimit="10"/>
<path d="M272.605 168.32L273.946 167.285" stroke="#575D68" stroke-width="0.61474" stroke-miterlimit="10"/>
<path d="M268.447 165.8L244.669 152.063L244.686 97.584L268.464 111.32L268.447 165.8Z" fill="#F6F6F6" stroke="#575D68" stroke-width="0.61474" stroke-miterlimit="10"/>
<path d="M246.009 151.028L246.025 98.3577L244.686 97.584L244.669 152.063L268.447 165.8L268.447 163.991L246.009 151.028Z" fill="#F6F6F6" stroke="#575D68" stroke-width="0.61474" stroke-miterlimit="10"/>
<path d="M268.464 108.309L244.687 94.5729L244.688 88.7676L268.466 102.504L268.464 108.309Z" fill="#F6F6F6" stroke="#575D68" stroke-width="0.61474" stroke-miterlimit="10"/>
<path d="M245.943 93.7354L245.944 89.4933L244.688 88.7676L244.687 94.5729L268.465 108.309V106.746L245.943 93.7354Z" fill="#F6F6F6" stroke="#575D68" stroke-width="0.61474" stroke-miterlimit="10"/>
<path d="M244.688 94.5738L245.944 93.7363Z" fill="#F6F6F6"/>
<path d="M244.688 94.5738L245.944 93.7363" stroke="#575D68" stroke-width="0.61474" stroke-miterlimit="10"/>
<path d="M244.669 152.065L246.009 151.029" stroke="#575D68" stroke-width="0.61474" stroke-miterlimit="10"/>
<path d="M240.776 149.985L216.998 136.248L217.015 81.7695L240.793 95.5055L240.776 149.985Z" fill="#F6F6F6" stroke="#575D68" stroke-width="0.61474" stroke-miterlimit="10"/>
<path d="M218.338 135.213L218.355 82.5433L217.015 81.7695L216.998 136.248L240.776 149.985L240.777 148.176L218.338 135.213Z" fill="#F6F6F6" stroke="#575D68" stroke-width="0.61474" stroke-miterlimit="10"/>
<path d="M240.794 92.4943L217.017 78.7579L217.018 72.9531L240.796 86.689L240.794 92.4943Z" fill="#F6F6F6" stroke="#575D68" stroke-width="0.61474" stroke-miterlimit="10"/>
<path d="M218.273 77.9205L218.274 73.6784L217.018 72.9531L217.017 78.7579L240.794 92.4943L240.795 90.9316L218.273 77.9205Z" fill="#F6F6F6" stroke="#575D68" stroke-width="0.61474" stroke-miterlimit="10"/>
<path d="M217.017 78.7574L218.273 77.9199" stroke="#575D68" stroke-width="0.61474" stroke-miterlimit="10"/>
<path d="M216.998 136.25L218.338 135.215" stroke="#575D68" stroke-width="0.61474" stroke-miterlimit="10"/>
<path d="M150.217 30.4219V101.312L210.212 135.576V65.2816L150.217 30.4219Z" fill="#F6F6F6" stroke="#575D68" stroke-width="0.61474" stroke-miterlimit="10"/>
<path d="M206.056 131.128L182.277 117.392L182.295 62.9121L206.072 76.6485L206.056 131.128Z" fill="#F6F6F6" stroke="#575D68" stroke-width="0.61474" stroke-miterlimit="10"/>
<path d="M183.617 116.357L183.634 63.6863L182.295 62.9121L182.277 117.392L206.056 131.128L206.056 129.319L183.617 116.357Z" fill="#F6F6F6" stroke="#575D68" stroke-width="0.61474" stroke-miterlimit="10"/>
<path d="M206.073 73.6374L182.295 59.901L182.297 54.0957L206.075 67.8321L206.073 73.6374Z" fill="#F6F6F6" stroke="#575D68" stroke-width="0.61474" stroke-miterlimit="10"/>
<path d="M183.551 59.0636L183.553 54.8215L182.297 54.0957L182.295 59.901L206.073 73.6374L206.074 72.0741L183.551 59.0636Z" fill="#F6F6F6" stroke="#575D68" stroke-width="0.61474" stroke-miterlimit="10"/>
<path d="M182.296 59.9019L183.552 59.0645" stroke="#575D68" stroke-width="0.61474" stroke-miterlimit="10"/>
<path d="M182.277 117.393L183.618 116.357" stroke="#575D68" stroke-width="0.61474" stroke-miterlimit="10"/>
<path d="M178.118 114.873L154.34 101.137L154.357 46.6582L178.135 60.3941L178.118 114.873Z" fill="#F6F6F6" stroke="#575D68" stroke-width="0.61474" stroke-miterlimit="10"/>
<path d="M155.68 100.102L155.696 47.4319L154.357 46.6582L154.34 101.137L178.117 114.873L178.118 113.064L155.68 100.102Z" fill="#F6F6F6" stroke="#575D68" stroke-width="0.61474" stroke-miterlimit="10"/>
<path d="M178.135 57.3816L154.357 43.6452L154.359 37.8398L178.137 51.5763L178.135 57.3816Z" fill="#F6F6F6" stroke="#575D68" stroke-width="0.61474" stroke-miterlimit="10"/>
<path d="M155.614 42.8072L155.615 38.5651L154.359 37.8398L154.357 43.6446L178.136 57.381V55.8183L155.614 42.8072Z" fill="#F6F6F6" stroke="#575D68" stroke-width="0.61474" stroke-miterlimit="10"/>
<path d="M154.357 43.6461L155.614 42.8086" stroke="#575D68" stroke-width="0.61474" stroke-miterlimit="10"/>
<path d="M154.34 101.137L155.68 100.102" stroke="#575D68" stroke-width="0.61474" stroke-miterlimit="10"/>
<path d="M235.538 -263.635L493.229 -112.776L423.839 -73.0308L533.857 -8.13691L399.526 70.4344L27.667 -143.335L235.538 -263.635Z" fill="#F6F6F6" stroke="#575D68" stroke-width="0.61474" stroke-miterlimit="10"/>
<path d="M476.753 -107.932L414.639 -72.5423L524.612 -8.45057L399.526 64.9859L42.3281 -139.141" stroke="#575D68" stroke-width="0.61474" stroke-miterlimit="10"/>
<path d="M301.506 202.407C301.506 207.063 299.656 211.528 296.363 214.821C293.071 218.113 288.605 219.963 283.948 219.963C279.291 219.963 274.825 218.113 271.532 214.821C268.24 211.528 266.39 207.063 266.39 202.407C266.39 192.711 283.948 174.117 283.948 174.117C283.948 174.117 301.506 192.711 301.506 202.407Z" fill="#F6F6F6" stroke="#575D68" stroke-width="0.4" stroke-miterlimit="10"/>
<path d="M144.432 100.383V122.42" stroke="#575D68" stroke-width="0.4" stroke-miterlimit="10"/>
<path d="M144.499 103.987C147.107 103.987 149.221 101.873 149.221 99.2659C149.221 96.6586 147.107 94.5449 144.499 94.5449C141.891 94.5449 139.777 96.6586 139.777 99.2659C139.777 101.873 141.891 103.987 144.499 103.987Z" fill="#F6F6F6" stroke="#575D68" stroke-width="0.4" stroke-miterlimit="10"/>
<path d="M144.191 123.546C144.191 123.546 141.219 122.333 140.103 119.914C139.501 118.715 139.069 117.437 138.82 116.119C138.82 116.119 142.081 117.557 143.549 120.5C144.05 121.433 144.273 122.49 144.191 123.546V123.546Z" fill="#F6F6F6" stroke="#575D68" stroke-width="0.4" stroke-miterlimit="10"/>
<path d="M144.317 123.545C144.317 123.545 143.078 120.584 144.004 118.086C144.428 116.813 145.028 115.605 145.785 114.498C145.785 114.498 147.069 117.823 146.021 120.939C145.714 121.953 145.123 122.858 144.317 123.545V123.545Z" fill="#F6F6F6" stroke="#575D68" stroke-width="0.4" stroke-miterlimit="10"/>
<path d="M144.432 123.302C144.432 123.302 145.435 120.253 147.771 118.972C148.925 118.288 150.17 117.768 151.468 117.428C151.468 117.428 150.26 120.781 147.426 122.449C146.53 123.014 145.491 123.31 144.432 123.302Z" fill="#F6F6F6" stroke="#575D68" stroke-width="0.4" stroke-miterlimit="10"/>
<path d="M171.394 116.201V138.239" stroke="#575D68" stroke-width="0.4" stroke-miterlimit="10"/>
<path d="M171.461 119.805C174.069 119.805 176.182 117.692 176.182 115.084C176.182 112.477 174.069 110.363 171.461 110.363C168.853 110.363 166.739 112.477 166.739 115.084C166.739 117.692 168.853 119.805 171.461 119.805Z" fill="#F6F6F6" stroke="#575D68" stroke-width="0.4" stroke-miterlimit="10"/>
<path d="M171.153 139.365C171.153 139.365 168.181 138.152 167.065 135.732C166.463 134.533 166.031 133.256 165.782 131.938C165.782 131.938 169.043 133.376 170.511 136.319C171.012 137.252 171.235 138.309 171.153 139.365V139.365Z" fill="#F6F6F6" stroke="#575D68" stroke-width="0.4" stroke-miterlimit="10"/>
<path d="M171.28 139.363C171.28 139.363 170.04 136.402 170.967 133.904C171.391 132.631 171.99 131.424 172.748 130.316C172.748 130.316 174.032 133.641 172.984 136.758C172.677 137.772 172.086 138.676 171.28 139.363Z" fill="#F6F6F6" stroke="#575D68" stroke-width="0.4" stroke-miterlimit="10"/>
<path d="M171.394 139.12C171.394 139.12 172.397 136.071 174.733 134.79C175.887 134.106 177.132 133.586 178.43 133.246C178.43 133.246 177.222 136.599 174.388 138.268C173.492 138.833 172.453 139.129 171.394 139.12Z" fill="#F6F6F6" stroke="#575D68" stroke-width="0.4" stroke-miterlimit="10"/>
<path d="M175.012 141.684V163.721" stroke="#575D68" stroke-width="0.4" stroke-miterlimit="10"/>
<path d="M175.079 145.288C177.687 145.288 179.801 143.174 179.801 140.567C179.801 137.959 177.687 135.846 175.079 135.846C172.471 135.846 170.357 137.959 170.357 140.567C170.357 143.174 172.471 145.288 175.079 145.288Z" fill="#F6F6F6" stroke="#575D68" stroke-width="0.4" stroke-miterlimit="10"/>
<path d="M174.771 164.847C174.771 164.847 171.799 163.634 170.684 161.214C170.081 160.015 169.649 158.738 169.4 157.42C169.4 157.42 172.661 158.858 174.129 161.801C174.63 162.734 174.853 163.791 174.771 164.847Z" fill="#F6F6F6" stroke="#575D68" stroke-width="0.4" stroke-miterlimit="10"/>
<path d="M174.897 164.846C174.897 164.846 173.658 161.885 174.584 159.386C175.008 158.114 175.608 156.906 176.366 155.799C176.366 155.799 177.649 159.123 176.601 162.24C176.294 163.254 175.703 164.158 174.897 164.846V164.846Z" fill="#F6F6F6" stroke="#575D68" stroke-width="0.4" stroke-miterlimit="10"/>
<path d="M175.012 164.603C175.012 164.603 176.015 161.554 178.351 160.273C179.506 159.589 180.75 159.069 182.048 158.729C182.048 158.729 180.84 162.081 178.006 163.75C177.11 164.315 176.071 164.611 175.012 164.603Z" fill="#F6F6F6" stroke="#575D68" stroke-width="0.4" stroke-miterlimit="10"/>
<path d="M126.268 111.906V133.944" stroke="#575D68" stroke-width="0.4" stroke-miterlimit="10"/>
<path d="M126.335 115.51C128.943 115.51 131.057 113.397 131.057 110.789C131.057 108.182 128.943 106.068 126.335 106.068C123.727 106.068 121.613 108.182 121.613 110.789C121.613 113.397 123.727 115.51 126.335 115.51Z" fill="#F6F6F6" stroke="#575D68" stroke-width="0.4" stroke-miterlimit="10"/>
<path d="M126.027 135.07C126.027 135.07 123.055 133.857 121.939 131.437C121.337 130.238 120.905 128.961 120.656 127.643C120.656 127.643 123.917 129.081 125.385 132.024C125.886 132.957 126.109 134.014 126.027 135.07V135.07Z" fill="#F6F6F6" stroke="#575D68" stroke-width="0.4" stroke-miterlimit="10"/>
<path d="M126.153 135.07C126.153 135.07 124.914 132.109 125.84 129.611C126.264 128.338 126.863 127.131 127.621 126.023C127.621 126.023 128.905 129.348 127.857 132.465C127.55 133.478 126.959 134.383 126.153 135.07Z" fill="#F6F6F6" stroke="#575D68" stroke-width="0.4" stroke-miterlimit="10"/>
<path d="M126.268 134.826C126.268 134.826 127.271 131.776 129.607 130.495C130.761 129.811 132.006 129.291 133.304 128.951C133.304 128.951 132.096 132.304 129.262 133.973C128.366 134.538 127.327 134.834 126.268 134.826V134.826Z" fill="#F6F6F6" stroke="#575D68" stroke-width="0.4" stroke-miterlimit="10"/>
<path d="M150.755 127.26V149.297" stroke="#575D68" stroke-width="0.4" stroke-miterlimit="10"/>
<path d="M150.822 130.864C153.43 130.864 155.544 128.75 155.544 126.143C155.544 123.535 153.43 121.422 150.822 121.422C148.215 121.422 146.101 123.535 146.101 126.143C146.101 128.75 148.215 130.864 150.822 130.864Z" fill="#F6F6F6" stroke="#575D68" stroke-width="0.4" stroke-miterlimit="10"/>
<path d="M150.514 150.423C150.514 150.423 147.542 149.21 146.427 146.791C145.825 145.592 145.393 144.314 145.144 142.996C145.144 142.996 148.405 144.434 149.872 147.377C150.374 148.31 150.596 149.367 150.514 150.423V150.423Z" fill="#F6F6F6" stroke="#575D68" stroke-width="0.4" stroke-miterlimit="10"/>
<path d="M150.641 150.422C150.641 150.422 149.402 147.461 150.328 144.963C150.752 143.69 151.352 142.482 152.11 141.375C152.11 141.375 153.393 144.699 152.345 147.816C152.038 148.83 151.447 149.734 150.641 150.422V150.422Z" fill="#F6F6F6" stroke="#575D68" stroke-width="0.4" stroke-miterlimit="10"/>
<path d="M150.755 150.179C150.755 150.179 151.758 147.13 154.095 145.849C155.249 145.165 156.493 144.645 157.791 144.305C157.791 144.305 156.583 147.657 153.749 149.326C152.853 149.891 151.814 150.187 150.755 150.179V150.179Z" fill="#F6F6F6" stroke="#575D68" stroke-width="0.4" stroke-miterlimit="10"/>
<path d="M350.872 231.44C350.872 233.746 350.418 236.029 349.536 238.159C348.653 240.288 347.36 242.224 345.73 243.854C344.099 245.484 342.164 246.777 340.033 247.66C337.903 248.542 335.62 248.996 333.314 248.996C331.008 248.996 328.725 248.542 326.595 247.66C324.465 246.777 322.529 245.484 320.899 243.854C319.268 242.224 317.975 240.288 317.092 238.159C316.21 236.029 315.756 233.746 315.756 231.44C315.756 221.745 333.314 203.15 333.314 203.15C333.314 203.15 350.872 221.745 350.872 231.44Z" fill="#F6F6F6" stroke="#575D68" stroke-width="0.4" stroke-miterlimit="10"/>
<path d="M342.194 160.996L321.222 173.072L342.194 160.996Z" fill="#F6F6F6"/>
<path d="M249.307 277.982C253.662 277.982 257.193 275.853 257.193 273.228C257.193 270.603 253.662 268.475 249.307 268.475C244.952 268.475 241.421 270.603 241.421 273.228C241.421 275.853 244.952 277.982 249.307 277.982Z" fill="#F6F6F6" stroke="#575D68" stroke-width="0.4" stroke-miterlimit="10"/>
<path d="M249.307 277.029C253.662 277.029 257.193 274.9 257.193 272.275C257.193 269.65 253.662 267.521 249.307 267.521C244.952 267.521 241.421 269.65 241.421 272.275C241.421 274.9 244.952 277.029 249.307 277.029Z" fill="#F6F6F6" stroke="#575D68" stroke-width="0.4" stroke-miterlimit="10"/>
<path d="M240.303 133.22L248.803 128.316V167.509L240.303 172.317V133.22Z" fill="#F6F6F6" stroke="#575D68" stroke-width="0.4" stroke-miterlimit="10"/>
<path d="M240.303 133.22L248.803 128.316L249.798 128.751V167.944L241.298 172.752L240.303 172.317V133.22Z" fill="#F6F6F6" stroke="#575D68" stroke-width="0.4" stroke-miterlimit="10"/>
<path d="M244.553 237.613V271.296C244.553 272.879 246.681 274.162 249.307 274.162C251.933 274.162 254.061 272.879 254.061 271.296V237.613H244.553Z" fill="#F6F6F6" stroke="#575D68" stroke-width="0.4" stroke-miterlimit="10"/>
<path d="M249.307 240.48C251.933 240.48 254.061 239.197 254.061 237.614C254.061 236.031 251.933 234.748 249.307 234.748C246.681 234.748 244.553 236.031 244.553 237.614C244.553 239.197 246.681 240.48 249.307 240.48Z" fill="#F6F6F6" stroke="#575D68" stroke-width="0.4" stroke-miterlimit="10"/>
<path d="M248.633 121.254H249.98C250.114 121.254 250.247 121.28 250.37 121.331C250.494 121.383 250.606 121.458 250.7 121.552C250.795 121.647 250.87 121.759 250.921 121.882C250.972 122.006 250.999 122.138 250.999 122.272V237.335C250.999 237.538 250.918 237.732 250.774 237.876C250.631 238.019 250.436 238.1 250.233 238.1H248.38C248.177 238.1 247.983 238.019 247.839 237.876C247.696 237.732 247.615 237.538 247.615 237.335V122.272C247.615 122.138 247.642 122.006 247.693 121.882C247.744 121.759 247.819 121.647 247.913 121.552C248.008 121.458 248.12 121.383 248.244 121.331C248.367 121.28 248.5 121.254 248.633 121.254V121.254Z" fill="#F6F6F6" stroke="#575D68" stroke-width="0.4" stroke-miterlimit="10"/>
<path d="M241.298 172.753V133.82L247.615 130.213" fill="#F6F6F6"/>
<path d="M241.298 172.753V133.82L247.615 130.213" stroke="#575D68" stroke-width="0.4" stroke-miterlimit="10"/>
<path d="M253.705 169.837L252.824 170.38L243.99 164.427L243.109 136.435L243.928 135.932L253.675 141.716L253.705 169.837Z" fill="#F6F6F6" stroke="#575D68" stroke-width="0.4" stroke-miterlimit="10"/>
<path d="M252.824 170.381L243.109 164.755V136.436L252.794 142.044L252.824 170.381Z" fill="#F6F6F6" stroke="#575D68" stroke-width="0.4" stroke-miterlimit="10"/>
<path d="M252.046 154.734L243.731 149.962L243.701 138.242L252.016 143.014L252.046 154.734Z" fill="#F6F6F6" stroke="#575D68" stroke-width="0.4" stroke-miterlimit="10"/>
<path d="M252.08 168.361L243.766 163.589L243.736 151.869L252.051 156.641L252.08 168.361Z" fill="#F6F6F6" stroke="#575D68" stroke-width="0.4" stroke-miterlimit="10"/>
<path d="M250.209 150.778C251.664 150.155 251.95 147.565 250.848 144.993C249.746 142.421 247.672 140.841 246.217 141.465C244.762 142.088 244.476 144.679 245.578 147.251C246.68 149.823 248.753 151.402 250.209 150.778Z" fill="#F6F6F6" stroke="#575D68" stroke-width="0.4" stroke-miterlimit="10"/>
<path d="M249.87 151.144C251.325 150.52 251.611 147.93 250.509 145.358C249.407 142.786 247.333 141.206 245.878 141.83C244.423 142.454 244.137 145.044 245.239 147.616C246.341 150.188 248.415 151.767 249.87 151.144Z" fill="#F6F6F6" stroke="#575D68" stroke-width="0.4" stroke-miterlimit="10"/>
<path d="M250.209 164.589C251.664 163.966 251.95 161.375 250.848 158.803C249.746 156.231 247.672 154.652 246.217 155.275C244.762 155.899 244.476 158.489 245.578 161.061C246.68 163.633 248.753 165.213 250.209 164.589Z" fill="#F6F6F6" stroke="#575D68" stroke-width="0.4" stroke-miterlimit="10"/>
<path d="M249.87 164.954C251.325 164.331 251.611 161.74 250.509 159.168C249.407 156.597 247.333 155.017 245.878 155.641C244.423 156.264 244.137 158.854 245.239 161.426C246.341 163.998 248.415 165.578 249.87 164.954Z" fill="#F6F6F6" stroke="#575D68" stroke-width="0.4" stroke-miterlimit="10"/>
<path d="M252.019 144.105L252.016 143.014L243.701 138.242L242.036 139.423L250.491 144.258L252.019 144.105Z" fill="#F6F6F6" stroke="#575D68" stroke-width="0.4" stroke-miterlimit="10"/>
<path d="M250.491 144.258L252.016 143.014" stroke="#575D68" stroke-width="0.4" stroke-miterlimit="10"/>
<path d="M252.019 157.733L252.016 156.641L243.701 151.869L242.036 153.05L250.491 157.885L252.019 157.733Z" fill="#F6F6F6" stroke="#575D68" stroke-width="0.4" stroke-miterlimit="10"/>
<path d="M250.491 157.886L252.016 156.643" stroke="#575D68" stroke-width="0.4" stroke-miterlimit="10"/>
<g style="mix-blend-mode:multiply">
<path d="M236.5 119L235.5 127.5L111.152 288L59.4266 259.078L-42 196.76L236.5 119Z" fill="url(#paint1_linear_480_8244)"/>
</g>
<path d="M235 126.442L233.778 121.167C233.719 121.008 233.72 120.833 233.782 120.674C233.843 120.516 233.961 120.386 234.113 120.309L236.231 119.235C236.298 119.2 236.373 119.182 236.449 119.182C236.525 119.181 236.6 119.198 236.669 119.231L238.88 120.31L235.933 122.075L236.323 123.506L235 126.442Z" fill="#F6F6F6" stroke="#575D68" stroke-width="0.4" stroke-miterlimit="10"/>
<path d="M250.674 127.46L250.687 126.656L238.88 120.31C238.755 120.243 238.615 120.208 238.473 120.209C238.331 120.21 238.192 120.247 238.067 120.316L236.378 121.256C236.245 121.348 236.136 121.47 236.058 121.612C235.981 121.755 235.938 121.913 235.933 122.075L235.921 122.878C235.916 123.04 235.873 123.198 235.795 123.34C235.718 123.483 235.609 123.605 235.476 123.697V123.697C235.343 123.789 235.233 123.911 235.156 124.053C235.078 124.195 235.036 124.354 235.031 124.515L234.98 127.712C234.975 128.03 247.085 134.662 247.085 134.662L248.123 130.837C248.364 130.703 250.834 129.192 250.674 127.46Z" fill="#F6F6F6" stroke="#575D68" stroke-width="0.4" stroke-miterlimit="10"/>
<path d="M251.42 128.156L250.32 127.615L250.687 128.422L251.42 128.156Z" fill="#F6F6F6" stroke="#575D68" stroke-width="0.4" stroke-miterlimit="10"/>
<path d="M250.87 127.842L250.883 127.039C250.888 126.721 250.696 126.571 250.456 126.705L248.362 127.871C248.229 127.963 248.119 128.085 248.042 128.227C247.965 128.369 247.922 128.528 247.917 128.689L247.904 129.493C247.899 129.655 247.856 129.813 247.779 129.955C247.702 130.097 247.592 130.219 247.459 130.312V130.312C247.326 130.404 247.217 130.526 247.139 130.668C247.062 130.81 247.019 130.969 247.014 131.13L246.964 134.326C246.959 134.644 247.15 134.794 247.391 134.66L251.229 132.524C251.362 132.432 251.471 132.31 251.549 132.167C251.626 132.025 251.669 131.867 251.674 131.705L251.724 128.509C251.729 128.191 251.538 128.042 251.297 128.176C251.056 128.31 250.865 128.161 250.87 127.842Z" fill="#F6F6F6" stroke="#575D68" stroke-width="0.4" stroke-miterlimit="10"/>
<path d="M250.219 126.836C250.285 126.879 250.338 126.939 250.372 127.01C250.406 127.081 250.42 127.16 250.412 127.238L250.435 128.105C250.443 128.447 250.646 128.617 250.886 128.483C251.127 128.349 251.33 128.518 251.338 128.861L251.313 131.818C251.313 131.894 251.291 131.97 251.252 132.036C251.213 132.102 251.157 132.156 251.09 132.193L246.978 134.468" fill="#F6F6F6"/>
<path d="M250.219 126.836C250.285 126.879 250.338 126.939 250.372 127.01C250.406 127.081 250.42 127.16 250.412 127.238L250.435 128.105C250.443 128.447 250.646 128.617 250.886 128.483C251.127 128.349 251.33 128.518 251.338 128.861L251.313 131.818C251.313 131.894 251.291 131.97 251.252 132.036C251.213 132.102 251.157 132.156 251.09 132.193L246.978 134.468" stroke="#575D68" stroke-width="0.4" stroke-miterlimit="10"/>
<path d="M248.378 130.162V131.639C248.378 131.691 248.392 131.743 248.418 131.789C248.445 131.834 248.483 131.872 248.528 131.898C248.574 131.924 248.626 131.938 248.678 131.938C248.731 131.938 248.783 131.924 248.828 131.897L250.538 130.899C250.583 130.873 250.621 130.835 250.647 130.79C250.673 130.744 250.687 130.693 250.687 130.641V129.128C250.687 129.082 250.675 129.037 250.652 128.997C250.629 128.957 250.596 128.924 250.556 128.901C250.516 128.878 250.471 128.865 250.425 128.865C250.379 128.865 250.334 128.877 250.294 128.9L248.529 129.901C248.483 129.928 248.445 129.965 248.419 130.011C248.392 130.057 248.378 130.109 248.378 130.162Z" fill="#F6F6F6" stroke="#575D68" stroke-width="0.4" stroke-miterlimit="10"/>
<path d="M235.975 121.82L233.797 120.643" stroke="#575D68" stroke-width="0.4" stroke-miterlimit="10"/>
</g>
</g>
<circle cx="69.5" cy="264.5" r="57.5" fill="#FF4F12"/>
<mask id="mask0_480_8244" style="mask-type:alpha" maskUnits="userSpaceOnUse" x="12" y="207" width="115" height="115">
<circle cx="69.5" cy="264.5" r="57.5" fill="#FF4F12"/>
</mask>
<g mask="url(#mask0_480_8244)">
<path d="M61.124 263.757L85.3493 249.764V361.711L61.124 375.404V263.757Z" fill="#F6F6F6" stroke="#575D68" stroke-width="0.3909" stroke-miterlimit="10"/>
<path d="M61.124 263.757L85.3493 249.764L88.2081 250.967V362.915L63.9829 376.607L61.124 375.404V263.757Z" fill="#F6F6F6" stroke="#575D68" stroke-width="0.3909" stroke-miterlimit="10"/>
<path d="M89.413 563.337H84.1467C82.9429 563.337 81.8896 562.284 81.8896 561.08V232.31C81.8896 230.655 83.2438 229.451 84.7485 229.451H88.6607C90.3158 229.451 91.5195 230.805 91.5195 232.31V561.08C91.6699 562.284 90.6167 563.337 89.413 563.337Z" fill="#F6F6F6" stroke="#575D68" stroke-width="0.3909" stroke-miterlimit="10"/>
<path d="M63.9824 376.607V265.412L82.0385 255.18" fill="#F6F6F6"/>
<path d="M63.9824 376.607V265.412L82.0385 255.18" stroke="#575D68" stroke-width="0.3909" stroke-miterlimit="10"/>
<path d="M99.3425 368.33L96.935 369.835L71.6565 352.832L69.0986 272.934L71.5061 271.43L99.3425 287.981V368.33Z" fill="#F6F6F6" stroke="#575D68" stroke-width="0.3909" stroke-miterlimit="10"/>
<path d="M96.935 369.836L69.0986 353.736V272.936L96.7845 288.885L96.935 369.836Z" fill="#F6F6F6" stroke="#575D68" stroke-width="0.3909" stroke-miterlimit="10"/>
<path d="M94.6782 325.147L70.9043 311.454L70.7539 278.051L94.5277 291.743L94.6782 325.147Z" fill="#F6F6F6" stroke="#575D68" stroke-width="0.3909" stroke-miterlimit="10"/>
<path d="M94.6772 364.118L71.0538 350.425L70.9033 317.021L94.6772 330.564V364.118Z" fill="#F6F6F6" stroke="#575D68" stroke-width="0.3909" stroke-miterlimit="10"/>
<path d="M89.5045 313.966C93.6294 312.199 94.4258 304.821 91.2834 297.488C88.141 290.155 82.2497 285.643 78.1249 287.411C74 289.178 73.2037 296.556 76.3461 303.889C79.4885 311.222 85.3797 315.734 89.5045 313.966Z" fill="#F6F6F6" stroke="#575D68" stroke-width="0.3909" stroke-miterlimit="10"/>
<path d="M88.6022 314.991C92.7271 313.224 93.5236 305.846 90.3812 298.513C87.2388 291.18 81.3475 286.669 77.2226 288.436C73.0978 290.204 72.3013 297.581 75.4437 304.914C78.5861 312.247 84.4774 316.759 88.6022 314.991Z" fill="#F6F6F6" stroke="#575D68" stroke-width="0.3909" stroke-miterlimit="10"/>
<path d="M94.5271 294.753V291.743L70.7533 278.051L66.0889 281.361L90.1636 295.204L94.5271 294.753Z" fill="#F6F6F6" stroke="#575D68" stroke-width="0.3909" stroke-miterlimit="10"/>
<path d="M90.1621 295.203L94.5256 291.742" stroke="#575D68" stroke-width="0.3909" stroke-miterlimit="10"/>
<path d="M94.5271 333.723V330.564L70.7533 317.021L66.0889 320.332L90.1636 334.175L94.5271 333.723Z" fill="#F6F6F6" stroke="#575D68" stroke-width="0.3909" stroke-miterlimit="10"/>
<path d="M45.9271 244.348L42.4664 229.301C42.1654 228.398 42.4663 227.345 43.3691 226.894L49.3878 223.884C49.8392 223.734 50.2906 223.734 50.5915 223.884L56.9112 226.894L48.4851 232.01L49.5383 236.072L45.9271 244.348Z" fill="#F6F6F6" stroke="#575D68" stroke-width="0.3909" stroke-miterlimit="10"/>
<path d="M90.7589 247.208V244.951L57.0543 226.895C56.302 226.444 55.3992 226.444 54.7973 226.895L49.9824 229.603C49.23 230.055 48.7787 231.108 48.7787 232.011V234.268C48.7787 235.171 48.1767 236.224 47.5749 236.676C46.8225 237.127 46.3711 238.18 46.3711 239.083L46.2207 248.261C46.2207 249.164 80.8281 268.123 80.8281 268.123L83.8374 257.139C84.1384 256.537 91.2103 252.174 90.7589 247.208Z" fill="#F6F6F6" stroke="#575D68" stroke-width="0.3909" stroke-miterlimit="10"/>
<path d="M92.8649 249.315L89.7051 247.66L90.7584 250.068L92.8649 249.315Z" fill="#F6F6F6" stroke="#575D68" stroke-width="0.3909" stroke-miterlimit="10"/>
<path d="M91.2106 248.413V246.156C91.2106 245.253 90.6088 244.802 90.0069 245.253L83.9882 248.564C83.2359 249.015 82.7845 250.068 82.7845 250.971V253.228C82.7845 254.131 82.1827 255.184 81.5808 255.636C80.8285 256.087 80.3771 257.14 80.3771 258.043L80.2266 267.221C80.2266 268.124 80.8284 268.576 81.4303 268.124L92.4144 261.955C93.1668 261.504 93.6182 260.45 93.6182 259.548L93.7686 250.369C93.7686 249.466 93.1667 249.015 92.5649 249.466C91.8125 249.617 91.2106 249.316 91.2106 248.413Z" fill="#F6F6F6" stroke="#575D68" stroke-width="0.3909" stroke-miterlimit="10"/>
<path d="M89.405 245.404C89.7059 245.555 90.0068 246.006 90.0068 246.608V249.016C90.0068 250.069 90.6087 250.52 91.361 250.069C92.1134 249.618 92.5647 250.219 92.7152 251.122V259.548C92.7152 260 92.4143 260.451 92.1134 260.602L80.377 267.072" fill="#F6F6F6"/>
<path d="M89.405 245.404C89.7059 245.555 90.0068 246.006 90.0068 246.608V249.016C90.0068 250.069 90.6087 250.52 91.361 250.069C92.1134 249.618 92.5647 250.219 92.7152 251.122V259.548C92.7152 260 92.4143 260.451 92.1134 260.602L80.377 267.072" stroke="#575D68" stroke-width="0.3909" stroke-miterlimit="10"/>
<path d="M84.1406 255.032V259.245C84.1406 259.847 84.8929 260.298 85.4948 259.998L90.3097 257.139C90.6107 256.988 90.7611 256.687 90.7611 256.386V252.023C90.7611 251.421 90.1592 251.12 89.7078 251.421L84.7424 254.28C84.291 254.43 84.1406 254.731 84.1406 255.032Z" fill="#F6F6F6" stroke="#575D68" stroke-width="0.3909" stroke-miterlimit="10"/>
<path d="M48.7845 231.105L42.4648 227.795" stroke="#575D68" stroke-width="0.3909" stroke-miterlimit="10"/>
<circle cx="69.5" cy="264.5" r="57" stroke="#FF4F12"/>
</g>
<circle cx="243.5" cy="126.5" r="16.5" stroke="#FF4F12" stroke-width="2"/>
<defs>
<linearGradient id="paint0_linear_480_8244" x1="173.957" y1="205.073" x2="185.021" y2="205.073" gradientUnits="userSpaceOnUse">
<stop stop-color="#EAEAEA"/>
<stop offset="0.13909" stop-color="#EAEAEA" stop-opacity="0.98494"/>
<stop offset="0.26279" stop-color="#EBEBEB" stop-opacity="0.93862"/>
<stop offset="0.38074" stop-color="#EDEDED" stop-opacity="0.86078"/>
<stop offset="0.49507" stop-color="#EFEFEF" stop-opacity="0.75135"/>
<stop offset="0.60689" stop-color="#F2F2F2" stop-opacity="0.6101"/>
<stop offset="0.71679" stop-color="#F6F6F6" stop-opacity="0.43687"/>
<stop offset="0.82326" stop-color="#FAFAFA" stop-opacity="0.23535"/>
<stop offset="0.92785" stop-color="white" stop-opacity="0.01"/>
<stop offset="0.9296" stop-color="white" stop-opacity="0"/>
</linearGradient>
<linearGradient id="paint1_linear_480_8244" x1="208.769" y1="90.5527" x2="-44.3608" y2="311.783" gradientUnits="userSpaceOnUse">
<stop offset="0.0353297" stop-color="#F8D5C8"/>
<stop offset="0.2816" stop-color="#F8D7CA" stop-opacity="0.5739"/>
<stop offset="0.411" stop-color="#F8DCD2" stop-opacity="0.35"/>
<stop offset="0.5129" stop-color="#F7E6E0" stop-opacity="0.1737"/>
<stop offset="0.6005" stop-color="#F6F3F3" stop-opacity="0.0222483"/>
<stop offset="0.6134" stop-color="#F6F6F6" stop-opacity="0"/>
</linearGradient>
<clipPath id="clip0_480_8244">
<rect width="345" height="480" rx="6" fill="white"/>
</clipPath>
<clipPath id="clip1_480_8244">
<rect width="1681" height="974" fill="white" transform="translate(-232 -480)"/>
</clipPath>
</defs>
</svg>
