<svg width="345" height="377" viewBox="0 0 345 377" fill="none" xmlns="http://www.w3.org/2000/svg">
<path d="M229 220.728L-39.001 376.5L-34.1514 -5.12658L229 -15V220.728Z" fill="#F6F6F6" stroke="#575D68" stroke-width="0.5"/>
<path d="M338.266 71.2148C340.079 70.169 341.584 68.6645 342.631 66.8524C343.677 65.0403 344.228 62.9846 344.228 60.892C344.228 58.8004 343.678 56.7456 342.632 54.9342C341.587 53.1227 340.083 51.6183 338.271 50.5722C336.46 49.5261 334.406 48.9751 332.314 48.9746C330.222 48.9741 328.167 49.5241 326.356 50.5693L326.342 50.577C324.53 51.6227 323.025 53.1272 321.978 54.9393C320.931 56.7514 320.38 58.8071 320.38 60.8997C320.38 62.9913 320.931 65.0461 321.977 66.8575C323.022 68.669 324.526 70.1734 326.337 71.2195C328.149 72.2656 330.203 72.8166 332.295 72.8171C334.387 72.8176 336.441 72.2676 338.253 71.2224L338.266 71.2147" fill="#DDDEDF"/>
<path d="M338.266 71.2148C340.079 70.169 341.584 68.6645 342.631 66.8524C343.677 65.0403 344.228 62.9846 344.228 60.892V60.892C344.228 58.8004 343.678 56.7456 342.632 54.9342C341.587 53.1227 340.083 51.6183 338.271 50.5722C336.46 49.5261 334.406 48.9751 332.314 48.9746C330.222 48.9741 328.167 49.5241 326.356 50.5693L326.342 50.577C324.53 51.6227 323.025 53.1272 321.978 54.9393C320.931 56.7514 320.38 58.8071 320.38 60.8997V60.8997C320.38 62.9913 320.931 65.0461 321.977 66.8575C323.022 68.669 324.526 70.1734 326.337 71.2195C328.149 72.2656 330.203 72.8166 332.295 72.8171C334.387 72.8176 336.441 72.2676 338.253 71.2224L338.266 71.2147" stroke="#575D68" stroke-width="0.5" stroke-miterlimit="10"/>
<path d="M213.064 237.846L356 320.397V45.226L220.149 -33.2333L213.064 -28.9266V237.846Z" fill="#F6F6F6" stroke="#575D68" stroke-width="0.5" stroke-miterlimit="10"/>
<path d="M161.347 146.115L182.305 163.12L184.901 144.085C184.345 143.783 183.886 143.328 183.58 142.774C183.274 142.219 183.132 141.589 183.173 140.957C184.157 129.571 187.032 119.6 189.316 117.805C192.785 115.081 201.531 113.843 201.531 113.843L203.046 137.732C203.046 137.732 198.986 153.188 196.409 159.213C194.779 163.023 191.77 170.311 189.778 175.154C189.539 175.737 189.171 176.26 188.701 176.681C188.232 177.103 187.673 177.413 187.067 177.588C186.461 177.764 185.823 177.8 185.201 177.694C184.579 177.588 183.989 177.343 183.475 176.977C178.482 173.43 170.586 167.444 167.636 163.12C163.182 156.593 161.347 146.115 161.347 146.115Z" fill="#F6F6F6" stroke="#575D68" stroke-width="0.5" stroke-miterlimit="10"/>
<path d="M188.459 119.487C189.247 116.344 194.158 114.183 196.712 113.843C206.109 112.594 204.919 107.734 204.919 107.734L222.458 101.521C222.458 101.521 218.991 111.279 231.093 118.513C244.738 126.669 247.214 130.008 247.229 142.717C247.25 160.162 235.043 192.125 235.043 192.125L241.766 258.639L181.192 228.653C181.192 228.653 189.589 174.606 190.032 155.441C190.032 155.441 187.697 142.343 188.822 136.192C189.947 130.041 191.369 125.212 191.369 125.212" fill="#F6F6F6"/>
<path d="M188.459 119.487C189.247 116.344 194.158 114.183 196.712 113.843C206.109 112.594 204.919 107.734 204.919 107.734L222.458 101.521C222.458 101.521 218.991 111.279 231.093 118.513C244.738 126.669 247.214 130.008 247.229 142.717C247.25 160.162 235.043 192.125 235.043 192.125L241.766 258.639L181.192 228.653C181.192 228.653 189.589 174.606 190.032 155.441C190.032 155.441 187.697 142.343 188.822 136.192C189.947 130.041 191.369 125.212 191.369 125.212" stroke="#575D68" stroke-width="0.5" stroke-miterlimit="10"/>
<path d="M188.459 119.487C189.247 116.344 194.158 114.183 196.712 113.843C206.109 112.594 204.919 107.734 204.919 107.734L222.458 101.521C222.458 101.521 218.991 111.279 231.093 118.513C244.738 126.669 247.214 130.008 247.229 142.717C247.25 160.162 235.043 192.125 235.043 192.125L241.766 258.639L181.192 228.653C181.192 228.653 189.589 174.606 190.032 155.441C190.032 155.441 187.697 142.343 188.822 136.192C189.947 130.041 191.369 125.212 191.369 125.212" fill="#F6F6F6"/>
<path d="M188.459 119.487C189.247 116.344 194.158 114.183 196.712 113.843C206.109 112.594 204.919 107.734 204.919 107.734L222.458 101.521C222.458 101.521 218.991 111.279 231.093 118.513C244.738 126.669 247.214 130.008 247.229 142.717C247.25 160.162 235.043 192.125 235.043 192.125L241.766 258.639L181.192 228.653C181.192 228.653 189.589 174.606 190.032 155.441C190.032 155.441 187.697 142.343 188.822 136.192C189.947 130.041 191.369 125.212 191.369 125.212" stroke="#575D68" stroke-width="0.5" stroke-miterlimit="10"/>
<path style="mix-blend-mode:multiply" d="M188.459 119.487C189.247 116.344 194.158 114.183 196.712 113.843C206.109 112.594 204.919 107.734 204.919 107.734L222.458 101.521C222.458 101.521 218.991 111.279 231.093 118.513C244.738 126.669 247.214 130.008 247.229 142.717C247.25 160.162 235.043 192.125 235.043 192.125L241.766 258.639L181.192 228.653C181.192 228.653 189.589 174.606 190.032 155.441C190.032 155.441 187.697 142.343 188.822 136.192C189.947 130.041 191.369 125.212 191.369 125.212" fill="url(#paint0_linear_3_36244)"/>
<path d="M205.104 119.334C211.481 122.273 219.63 119.597 227.779 116.159C222.521 111.72 221.846 106.865 222.024 104.011C219.34 104.191 216.522 104.39 213.798 104.589L204.921 107.734C204.921 107.734 205.666 110.802 201.258 112.689C201.058 114.068 201.329 115.474 202.027 116.68C202.724 117.886 203.809 118.821 205.104 119.334Z" fill="#F6F6F6" stroke="#575D68" stroke-width="0.5" stroke-miterlimit="10"/>
<path d="M211.702 112.669C207.166 114.313 202.702 113.329 201.495 107.473C200.796 104.084 199.959 103.242 199.814 100.442C199.742 99.0442 199.894 97.6461 199.961 96.2481C200.109 93.7964 199.824 91.3379 199.12 88.9848C197.78 84.3903 199.785 77.0747 202.683 73.3767C203.786 71.9341 205.198 70.7562 206.814 69.9291C208.431 69.102 210.212 68.6467 212.028 68.5964C214.14 68.6109 216.227 69.0518 218.165 69.8926C218.565 70.0737 218.979 70.2398 219.399 70.4006C220.598 70.8111 221.77 71.2966 222.908 71.8542C225.66 73.334 226.896 76.5907 227.586 79.6387C229.434 87.8013 227.99 93.9606 224.425 101.412C222.01 106.461 218.855 111.542 213.349 113.538" fill="#F6F6F6"/>
<path d="M211.702 112.669C207.166 114.313 202.702 113.329 201.495 107.473C200.796 104.084 199.959 103.242 199.814 100.442C199.742 99.0442 199.894 97.6461 199.961 96.2481C200.109 93.7964 199.824 91.3379 199.12 88.9848C197.78 84.3903 199.785 77.0747 202.683 73.3767C203.786 71.9341 205.198 70.7562 206.814 69.9291C208.431 69.102 210.212 68.6467 212.028 68.5964C214.14 68.6109 216.227 69.0518 218.165 69.8926C218.565 70.0737 218.979 70.2398 219.399 70.4006C220.598 70.8111 221.77 71.2966 222.908 71.8542C225.66 73.334 226.896 76.5907 227.586 79.6387C229.434 87.8014 227.99 93.9606 224.425 101.412C222.01 106.461 218.855 111.542 213.349 113.538" stroke="#575D68" stroke-width="0.5" stroke-miterlimit="10"/>
<path d="M229.415 136.192L211.436 157.909L209.681 169.55C209.611 170.013 209.653 170.485 209.802 170.928C209.95 171.371 210.202 171.772 210.537 172.099C210.871 172.425 211.278 172.668 211.725 172.806C212.171 172.945 212.644 172.975 213.104 172.895C217.357 172.223 221.496 170.962 225.401 169.149C235.421 164.193 241.708 154.661 241.708 154.661" fill="#F6F6F6"/>
<path d="M229.415 136.192L211.436 157.909L209.681 169.55C209.611 170.013 209.653 170.485 209.802 170.928C209.95 171.371 210.202 171.772 210.537 172.099C210.871 172.425 211.278 172.668 211.725 172.806C212.171 172.945 212.644 172.975 213.104 172.895C217.357 172.223 221.496 170.962 225.401 169.149C235.421 164.193 241.708 154.661 241.708 154.661" stroke="#575D68" stroke-width="0.5" stroke-miterlimit="10"/>
<path style="mix-blend-mode:multiply" d="M229.416 136.192L211.437 157.909L209.778 168.915C209.696 169.45 209.743 169.997 209.915 170.51C210.087 171.024 210.378 171.489 210.766 171.867C211.153 172.245 211.625 172.525 212.143 172.685C212.66 172.844 213.208 172.878 213.741 172.783C217.773 172.101 221.696 170.878 225.402 169.149C235.422 164.193 241.709 154.661 241.709 154.661" fill="url(#paint1_linear_3_36244)"/>
<path d="M222.909 71.8542C221.772 71.2966 220.6 70.8111 219.401 70.4006C218.981 70.2398 218.567 70.0737 218.166 69.8926C216.229 69.0518 214.141 68.6109 212.029 68.5964C210.214 68.6467 208.433 69.102 206.816 69.9291C205.199 70.7562 203.787 71.9341 202.684 73.3768C200.933 75.6125 199.341 80.7356 199.341 80.7356C200.224 84.6433 210.971 85.1944 216.779 82.4112C216.994 82.227 217.256 82.1054 217.535 82.0598C217.815 82.0142 218.101 82.0462 218.364 82.1525C218.626 82.2588 218.855 82.4351 219.024 82.6623C219.193 82.8895 219.296 83.1588 219.323 83.4408C219.871 85.6008 220.149 87.8206 220.149 90.049C220.149 90.049 218.92 96.3135 221.649 97.6423C223.026 98.1368 224.511 98.2491 225.946 97.9671C228.487 92.2026 229.064 85.763 227.588 79.6388C226.897 76.5907 225.662 73.3339 222.909 71.8542Z" fill="#DDDEDF" stroke="#575D68" stroke-width="0.5" stroke-miterlimit="10"/>
<path style="mix-blend-mode:multiply" d="M222.909 71.8542C221.772 71.2966 220.6 70.8111 219.401 70.4006C218.981 70.2398 218.567 70.0737 218.166 69.8926C216.229 69.0518 214.141 68.6109 212.029 68.5964C210.214 68.6467 208.433 69.102 206.816 69.9291C205.199 70.7562 203.787 71.9341 202.684 73.3768C200.933 75.6125 199.341 80.7356 199.341 80.7356C200.224 84.6433 210.971 85.1944 216.779 82.4112C216.994 82.227 217.256 82.1054 217.535 82.0598C217.815 82.0142 218.101 82.0462 218.364 82.1525C218.626 82.2588 218.855 82.4351 219.024 82.6623C219.193 82.8895 219.296 83.1588 219.323 83.4408C219.871 85.6008 220.149 87.8206 220.149 90.049C220.149 90.049 218.92 96.3135 221.649 97.6423C223.026 98.1368 224.511 98.2491 225.946 97.9671C228.487 92.2026 229.064 85.763 227.588 79.6388C226.897 76.5907 225.662 73.3339 222.909 71.8542Z" fill="url(#paint2_linear_3_36244)"/>
<path d="M223.593 113.113L227.368 107.296L228.539 103.094C228.539 102.922 228.486 102.753 228.387 102.612C228.288 102.471 228.147 102.364 227.985 102.305C227.823 102.247 227.646 102.24 227.48 102.286C227.313 102.331 227.165 102.427 227.055 102.56L225.404 105.052L222.961 108.024" fill="#F6F6F6"/>
<path d="M223.593 113.113L227.368 107.296L228.539 103.094C228.539 102.922 228.486 102.753 228.387 102.612C228.288 102.471 228.147 102.364 227.985 102.305C227.823 102.247 227.646 102.24 227.48 102.286C227.313 102.331 227.165 102.427 227.055 102.56L225.404 105.052L222.961 108.024" stroke="#575D68" stroke-width="0.5" stroke-miterlimit="10"/>
<path d="M221.003 94.7214L208.025 110.671C207.808 110.91 207.663 111.206 207.606 111.524C207.549 111.842 207.583 112.17 207.704 112.469C207.825 112.769 208.028 113.028 208.29 113.218C208.552 113.407 208.862 113.519 209.184 113.54L215.611 114.667C216.268 114.782 216.942 114.722 217.568 114.492C218.193 114.261 218.746 113.87 219.17 113.357L231.366 98.6212C231.514 98.4767 231.628 98.301 231.699 98.107C231.77 97.9131 231.798 97.7057 231.779 97.4998C231.76 97.294 231.696 97.0949 231.59 96.9171C231.485 96.7392 231.342 96.587 231.17 96.4716L225.668 93.5571C223.632 92.3582 222.201 93.2492 221.003 94.7214Z" fill="#F6F6F6" stroke="#575D68" stroke-width="0.5" stroke-miterlimit="10"/>
<path d="M209.185 113.54C207.931 112.839 208.032 111.904 208.443 111.399L221.301 95.6251C222.499 94.153 223.41 93.042 225.966 94.4609L230.149 96.7539C231.464 97.6422 231.367 98.6211 230.143 100.1" stroke="#575D68" stroke-width="0.5" stroke-miterlimit="10"/>
<path d="M213.063 172.902C206.508 174.18 204.631 162.98 204.631 162.98C202.72 148.822 214.104 122.939 214.858 119.597C215.611 116.254 211.949 106.127 211.949 106.127C211.586 105.47 211.454 104.711 211.572 103.97C211.69 103.229 212.053 102.549 212.602 102.037L215.328 98.7401L215.847 98.112C216.892 97.1384 217.56 97.8085 218.429 98.9425L219.824 101.291L224.01 106.802V115.523L220.166 155.799" fill="#F6F6F6"/>
<path d="M213.063 172.902C206.508 174.18 204.631 162.98 204.631 162.98C202.72 148.822 214.104 122.939 214.858 119.597C215.611 116.254 211.949 106.127 211.949 106.127C211.586 105.47 211.454 104.711 211.572 103.97C211.69 103.229 212.053 102.549 212.602 102.037L215.328 98.7401L215.847 98.112C216.892 97.1384 217.56 97.8085 218.429 98.9425L219.824 101.291L224.01 106.802V115.523L220.166 155.799" stroke="#575D68" stroke-width="0.5" stroke-miterlimit="10"/>
<path d="M221.148 149.891C221.148 149.891 224.749 156.014 225.404 161.501C226.058 166.988 225.403 169.149 225.403 169.149" stroke="#575D68" stroke-width="0.5" stroke-miterlimit="10"/>
<path d="M223.128 148.424C223.128 148.424 226.738 151.999 227.384 160.035C227.827 165.543 227.383 167.683 227.383 167.683" stroke="#575D68" stroke-width="0.5" stroke-miterlimit="10"/>
<path d="M187.358 184.458C184.752 205.738 181.192 228.653 181.192 228.653L241.766 258.639L235.043 192.124C230.514 193.6 225.863 194.673 221.145 195.329C206.497 197.483 193.545 194.99 187.358 184.458Z" fill="#DDDEDF" stroke="#575D68" stroke-width="0.5" stroke-miterlimit="10"/>
<path d="M235.324 195.936C230.795 197.412 226.144 198.484 221.426 199.14C206.778 201.295 192.917 200.032 186.73 189.501" stroke="#575D68" stroke-width="0.5" stroke-miterlimit="10"/>
<path d="M224.198 96.485C224.594 96.0891 224.661 95.5146 224.348 95.2017C224.035 94.8889 223.461 94.9562 223.065 95.3521C222.669 95.7479 222.602 96.3225 222.915 96.6353C223.227 96.9482 223.802 96.8809 224.198 96.485Z" fill="#F6F6F6" stroke="#575D68" stroke-width="0.5" stroke-miterlimit="10"/>
<path d="M220.217 106.918L217.92 103.673L215.845 98.1115" fill="#F6F6F6"/>
<path d="M220.217 106.918L217.92 103.673L215.845 98.1115" stroke="#575D68" stroke-width="0.5" stroke-miterlimit="10"/>
<path d="M217.499 108.47L215.378 104.558L214.456 99.9353" fill="#F6F6F6"/>
<path d="M217.499 108.47L215.378 104.558L214.456 99.9353" stroke="#575D68" stroke-width="0.5" stroke-miterlimit="10"/>
<path d="M214.878 108.838L213.199 105.637L212.388 102.045" fill="#F6F6F6"/>
<path d="M214.878 108.838L213.199 105.637L212.388 102.045" stroke="#575D68" stroke-width="0.5" stroke-miterlimit="10"/>
<path d="M199.587 90.8617C200.681 91.4059 201.543 92.3236 202.018 93.4487C202.494 94.5737 202.55 95.8318 202.178 96.9951C201.892 98.0345 200.604 101.655 202.178 102.045C202.756 102.219 203.36 102.29 203.963 102.254" fill="#F6F6F6"/>
<path d="M199.587 90.8617C200.681 91.4059 201.543 92.3236 202.018 93.4487C202.494 94.5737 202.55 95.8318 202.178 96.9951C201.892 98.0345 200.604 101.655 202.178 102.045C202.756 102.219 203.36 102.29 203.963 102.254" stroke="#575D68" stroke-width="0.5" stroke-miterlimit="10"/>
<path d="M204.415 93.3029C205.462 93.1347 206.528 93.1347 207.575 93.3029C208.631 93.4905 209.62 93.952 210.443 94.6412" fill="#F6F6F6"/>
<path d="M204.415 93.3029C205.462 93.1347 206.528 93.1347 207.575 93.3029C208.631 93.4905 209.62 93.952 210.443 94.6412" stroke="#575D68" stroke-width="0.5" stroke-miterlimit="10"/>
<path d="M148.931 284.202L247.231 340.584V224.087L148.931 167.956V284.202Z" fill="#F6F6F6" stroke="#575D68" stroke-width="0.5" stroke-miterlimit="10"/>
<path d="M247.23 340.584L261.275 332.481V216.8L247.23 224.087V340.584Z" fill="#F6F6F6" stroke="#575D68" stroke-width="0.5" stroke-miterlimit="10"/>
<path d="M261.275 216.8L247.23 224.087L148.931 167.957L162.688 160.162L261.275 216.8Z" fill="#F6F6F6" stroke="#575D68" stroke-width="0.5" stroke-miterlimit="10"/>
<path d="M188.71 144.937C187.399 144.887 186.108 144.599 184.901 144.085L188.71 144.937Z" fill="#F6F6F6"/>
<path d="M188.71 144.937C187.399 144.887 186.108 144.599 184.901 144.085" stroke="#575D68" stroke-width="0.5" stroke-miterlimit="10"/>
<path d="M260.495 374.778L356 320.397V45.226L220.149 -33.2333L213.064 -28.9266L350.781 49.0895L349.133 316.409L254.174 371.132L260.495 374.778Z" fill="#F6F6F6" stroke="#575D68" stroke-width="0.5" stroke-miterlimit="10"/>
<path d="M158.14 173.403L161.884 171.167L170.291 176.059L166.818 178.328L158.14 173.403Z" fill="#F6F6F6" stroke="#575D68" stroke-width="0.5" stroke-miterlimit="10"/>
<path d="M161.977 167.448V172.578L167.85 175.933V170.696L161.977 167.448Z" fill="#F6F6F6" stroke="#575D68" stroke-width="0.5" stroke-miterlimit="10"/>
<path d="M146.395 133.304L154.69 162.316C154.898 163.043 155.247 163.721 155.718 164.313C156.189 164.905 156.772 165.398 157.433 165.763L177.042 176.609C177.11 176.647 177.187 176.663 177.264 176.657C177.341 176.65 177.415 176.621 177.475 176.573C177.536 176.525 177.581 176.46 177.604 176.386C177.628 176.313 177.629 176.234 177.608 176.159L168.477 144.246C168.289 143.588 167.859 143.025 167.273 142.671L148.773 131.485C148.497 131.318 148.176 131.238 147.854 131.256C147.531 131.273 147.221 131.388 146.964 131.584C146.707 131.78 146.516 132.049 146.414 132.356C146.312 132.663 146.306 132.993 146.395 133.304Z" fill="#F6F6F6" stroke="#575D68" stroke-width="0.5" stroke-miterlimit="10"/>
<path d="M175.909 173.469L167.75 144.954C167.562 144.296 167.131 143.734 166.546 143.38L148.046 132.193" fill="#F6F6F6"/>
<path d="M175.909 173.469L167.75 144.954C167.562 144.296 167.131 143.734 166.546 143.38L148.046 132.193" stroke="#575D68" stroke-width="0.5" stroke-miterlimit="10"/>
<path d="M151.928 141.123C152.569 140.889 152.805 139.922 152.455 138.963C152.104 138.005 151.301 137.418 150.659 137.652C150.018 137.887 149.782 138.854 150.132 139.812C150.483 140.771 151.287 141.358 151.928 141.123Z" fill="#F6F6F6" stroke="#575D68" stroke-width="0.5" stroke-miterlimit="10"/>
<path style="mix-blend-mode:multiply" opacity="0.5" d="M146.816 131.71L193.994 85.1155L212.564 94.7704L225.359 139.099L177.039 176.608L146.816 131.71Z" fill="url(#paint3_linear_3_36244)"/>
<path d="M158.14 173.402L161.884 171.166L170.291 176.058L166.818 178.327L158.14 173.402Z" fill="#DDDEDF" stroke="#575D68" stroke-width="0.5" stroke-miterlimit="10"/>
<path d="M161.977 167.447V172.577L167.85 175.932V170.695L161.977 167.447Z" fill="#DDDEDF" stroke="#575D68" stroke-width="0.5" stroke-miterlimit="10"/>
<path d="M146.395 133.303L154.69 162.315C154.898 163.042 155.247 163.72 155.718 164.312C156.189 164.904 156.772 165.397 157.433 165.762L177.042 176.608C177.11 176.646 177.187 176.662 177.264 176.656C177.341 176.65 177.415 176.62 177.475 176.572C177.536 176.524 177.581 176.459 177.604 176.385C177.628 176.312 177.629 176.233 177.608 176.158L168.477 144.245C168.289 143.587 167.859 143.024 167.273 142.67L148.773 131.484C148.497 131.317 148.176 131.237 147.854 131.255C147.531 131.272 147.221 131.387 146.964 131.583C146.707 131.779 146.516 132.048 146.414 132.355C146.312 132.662 146.306 132.992 146.395 133.303Z" fill="#E9EAEB" stroke="#575D68" stroke-width="0.5" stroke-miterlimit="10"/>
<path d="M175.909 173.468L167.75 144.953C167.562 144.296 167.131 143.733 166.546 143.379L148.046 132.193" fill="#E9EAEB"/>
<path d="M175.909 173.468L167.75 144.953C167.562 144.296 167.131 143.733 166.546 143.379L148.046 132.193" stroke="#575D68" stroke-width="0.5" stroke-miterlimit="10"/>
<path d="M151.928 141.122C152.569 140.888 152.805 139.921 152.455 138.962C152.104 138.004 151.301 137.417 150.659 137.651C150.018 137.886 149.782 138.853 150.132 139.811C150.483 140.77 151.287 141.357 151.928 141.122Z" fill="#DDDEDF" stroke="#575D68" stroke-width="0.5" stroke-miterlimit="10"/>
<path d="M163.537 159.566L160.07 158.263C159.841 158.155 159.663 157.964 159.571 157.729C159.551 157.69 159.541 157.647 159.543 157.604C159.544 157.56 159.557 157.518 159.579 157.481L160.493 156.406L163.537 159.566Z" fill="#FF4F12"/>
<path d="M160.071 158.263C159.73 158.104 159.464 157.819 159.331 157.468L157.517 152.405C157.238 151.626 157.006 151.057 157.231 150.542L158.195 148.34L163.094 153.349L159.58 157.48C159.558 157.518 159.545 157.56 159.544 157.603C159.542 157.647 159.552 157.69 159.572 157.729C159.664 157.964 159.843 158.155 160.071 158.263Z" fill="#7700FF"/>
<path d="M236.913 3.95093L235.048 5.21037L236.913 58.9849L306.592 101.52L308.458 100.261V45.2259L236.913 3.95093Z" fill="#F6F6F6" stroke="#575D68" stroke-width="0.5" stroke-miterlimit="10"/>
<path d="M235.048 5.21021V60.2442L306.592 101.52V46.4861L235.048 5.21021Z" fill="#F6F6F6" stroke="#575D68" stroke-width="0.5" stroke-miterlimit="10"/>
<path d="M238.645 9.42322V59.8703L302.995 96.9948V46.5478L238.645 9.42322Z" fill="#F6F6F6" stroke="#575D68" stroke-width="0.5" stroke-miterlimit="10"/>
<path d="M3.38086 351.818V50.9396L124.279 -18.465V281.585L3.38086 351.818Z" fill="#F6F6F6" stroke="#575D68" stroke-width="0.5" stroke-miterlimit="10"/>
<path d="M7.01123 349.578L8.35395 54.9623L117.573 -6.95117L118.296 285.06L7.01123 349.578Z" fill="#F6F6F6" stroke="#575D68" stroke-width="0.5" stroke-miterlimit="10"/>
<path d="M10.5405 347.532V57.4726L115.151 -2.58203V286.761L10.5405 347.532Z" fill="#F6F6F6" stroke="#575D68" stroke-width="0.5" stroke-miterlimit="10"/>
<path d="M18.1999 92.2933C27.5022 92.2933 35.0432 84.7523 35.0432 75.45C35.0432 66.1476 27.5022 58.6066 18.1999 58.6066C8.89751 58.6066 1.35645 66.1476 1.35645 75.45C1.35645 84.7523 8.89751 92.2933 18.1999 92.2933Z" fill="#F6F6F6" stroke="#575D68" stroke-width="0.5" stroke-miterlimit="10"/>
<path d="M18.1999 76.3867C27.5022 76.3867 35.0432 73.9824 35.0432 71.0165C35.0432 68.0507 27.5022 65.6464 18.1999 65.6464C8.89751 65.6464 1.35645 68.0507 1.35645 71.0165C1.35645 73.9824 8.89751 76.3867 18.1999 76.3867Z" fill="#F6F6F6" stroke="#575D68" stroke-width="0.5" stroke-miterlimit="10"/>
<path d="M39.8175 65.088C39.8175 68.8946 30.1389 71.9803 18.1998 71.9803C6.26065 71.9803 -3.41797 68.8946 -3.41797 65.088V51.7479C-3.41797 51.7479 10.189 58.1956 18.1998 58.1956C27.1541 58.1956 39.8175 51.7479 39.8175 51.7479V65.088Z" fill="#F6F6F6" stroke="#575D68" stroke-width="0.5" stroke-miterlimit="10"/>
<path d="M18.1998 58.6402C30.1389 58.6402 39.8175 55.5543 39.8175 51.7478C39.8175 47.9413 30.1389 44.8555 18.1998 44.8555C6.26062 44.8555 -3.41797 47.9413 -3.41797 51.7478C-3.41797 55.5543 6.26062 58.6402 18.1998 58.6402Z" fill="#F6F6F6" stroke="#575D68" stroke-width="0.5" stroke-miterlimit="10"/>
<path d="M4.40039 74.0944V83.5921L11.2515 88.7595H25.1468L31.9988 83.6366V74.0944" fill="#F6F6F6"/>
<path d="M4.40039 74.0944V83.5921L11.2515 88.7595H25.1468L31.9988 83.6366V74.0944" stroke="#575D68" stroke-width="0.5" stroke-miterlimit="10"/>
<path d="M18.2 91.2157C22.1126 91.2157 25.2844 88.0439 25.2844 84.1313C25.2844 80.2188 22.1126 77.047 18.2 77.047C14.2875 77.047 11.1157 80.2188 11.1157 84.1313C11.1157 88.0439 14.2875 91.2157 18.2 91.2157Z" fill="#F6F6F6" stroke="#575D68" stroke-width="0.5" stroke-miterlimit="10"/>
<path d="M106.322 30.903L18.2988 169.116" stroke="#575D68" stroke-width="0.5" stroke-miterlimit="10"/>
<path d="M56.1156 88.8638L14.6147 154.028" stroke="#575D68" stroke-width="0.5" stroke-miterlimit="10"/>
<path d="M106.323 51.8713L50.3438 139.769" stroke="#575D68" stroke-width="0.5" stroke-miterlimit="10"/>
<path d="M106.322 73.9445L18.2988 212.157" stroke="#575D68" stroke-width="0.5" stroke-miterlimit="10"/>
<path d="M87.2639 119.914L18.2988 228.203" stroke="#575D68" stroke-width="0.5" stroke-miterlimit="10"/>
<path d="M98.9201 234.978L56.541 301.521" stroke="#575D68" stroke-width="0.5" stroke-miterlimit="10"/>
<path d="M100.984 247.782L56.541 317.566" stroke="#575D68" stroke-width="0.5" stroke-miterlimit="10"/>
<path d="M115.152 141.097L99.7495 150.864V202.723L115.152 193.836V141.097Z" fill="#F6F6F6" stroke="#575D68" stroke-width="0.5" stroke-miterlimit="10"/>
<path d="M109.038 149.629L113.015 150.579C114.199 150.839 115.273 151.463 116.085 152.363C116.898 153.263 117.41 154.395 117.549 155.6C117.564 155.775 117.572 155.952 117.572 156.13V182.505C117.572 183.802 117.234 185.076 116.592 186.203C115.949 187.329 115.024 188.269 113.908 188.929C112.791 189.589 111.522 189.947 110.226 189.967C108.929 189.987 107.649 189.669 106.513 189.044C106.288 188.92 106.1 188.737 105.969 188.516C105.838 188.295 105.769 188.042 105.769 187.785V185.003C105.769 184.762 105.83 184.525 105.945 184.314C106.061 184.102 106.228 183.923 106.431 183.793C106.634 183.664 106.867 183.587 107.107 183.571C107.347 183.554 107.588 183.598 107.807 183.699C108.382 183.965 109.015 184.082 109.648 184.038C110.28 183.995 110.891 183.793 111.425 183.452C111.959 183.11 112.398 182.64 112.703 182.084C113.007 181.528 113.166 180.904 113.166 180.271V159.428C113.166 155.582 107.917 155.18 107.917 155.18C107.714 155.05 107.547 154.872 107.432 154.66C107.316 154.449 107.256 154.212 107.256 153.971V151.705C107.256 150.599 107.611 148.993 109.038 149.629Z" fill="#F6F6F6" stroke="#575D68" stroke-width="0.5" stroke-miterlimit="10"/>
<g opacity="0.32">
<path style="mix-blend-mode:multiply" opacity="0.32" d="M256.311 38.4438C256.679 33.467 258.226 28.6491 260.822 24.3873C261.73 23.0203 263.065 21.8507 264.042 23.0203C264.652 24.047 264.984 25.2145 265.005 26.4083C265.362 29.8428 265.408 33.3024 265.145 36.7453C265.31 35.014 266.518 33.8583 267.421 34.5689C268.167 35.1566 268.555 36.7112 268.51 38.1592C268.438 39.531 268.125 40.8795 267.586 42.1431C266.606 44.4218 265.377 46.5853 263.922 48.5942C262.148 51.2232 259.69 57.1573 257.617 52.6974C256.009 49.2393 255.881 42.6398 256.311 38.4438Z" fill="url(#paint4_linear_3_36244)"/>
<path style="mix-blend-mode:multiply" opacity="0.32" d="M259.469 53.8394C259.29 47.8572 258.446 41.9135 256.952 36.1181C256.679 34.7293 256.136 33.4076 255.354 32.2281C254.024 30.6007 252.146 31.2397 250.753 32.7468C250.269 33.2257 249.987 33.8717 249.965 34.552C249.985 35.0068 250.087 35.4544 250.265 35.8733L251.593 39.5103C249.553 38.8014 247.374 38.5842 245.234 38.8765C244.379 38.9365 243.555 39.2155 242.84 39.6866C242.124 40.1577 241.542 40.805 241.15 41.5663C239.816 44.0983 239.977 48.3162 241.113 51.0898C241.549 52.2283 242.206 53.2691 243.046 54.1522C243.887 55.0353 244.894 55.7433 246.009 56.2351C247.654 56.9604 249.461 57.2349 251.247 57.0305C253.032 56.8261 254.731 56.1501 256.169 55.0719" fill="url(#paint5_linear_3_36244)"/>
<path style="mix-blend-mode:multiply" opacity="0.32" d="M262.268 38.2508C262.561 38.1098 262.919 38.0221 263.125 38.4106C263.263 38.7783 263.312 39.1734 263.268 39.5636C263.202 41.4872 262.996 43.4034 262.653 45.2972C262.79 44.4787 263.34 44.0553 263.818 44.1504C264.348 44.3574 264.801 44.7242 265.113 45.2C266.026 46.1426 266.57 47.3818 266.646 48.6918C266.672 50.259 265.889 51.5115 265.672 53.0365C266.7 53.0577 267.682 53.4658 268.422 54.1793C268.985 54.6582 269.364 55.3182 269.494 56.046C269.602 57.2759 269.358 58.5113 268.788 59.6068C268.142 61.1106 267.418 62.7112 266.386 63.1799C263.157 64.6466 257.091 60.186 255.763 54.5394C254.074 47.3584 258.718 39.9593 262.268 38.2508Z" fill="url(#paint6_linear_3_36244)"/>
<path style="mix-blend-mode:multiply" opacity="0.32" d="M261.927 49.6167C261.96 49.0605 261.85 48.5052 261.606 48.0041C261.169 47.235 260.752 47.6169 260.389 47.9964C259.273 49.1726 258.259 50.4409 257.356 51.7877L254.478 47.6573C254.171 47.1175 253.739 46.6587 253.219 46.3193C252.9 46.2218 252.562 46.2075 252.236 46.2778C251.91 46.3481 251.608 46.5006 251.358 46.7208C250.092 47.5603 248.981 48.613 248.075 49.8319C247.653 50.3446 247.335 50.9354 247.14 51.5707C246.787 53.3924 247.101 55.2804 248.025 56.8894C249.433 59.5776 251.346 61.4239 253.393 62.0697L252.805 63.2779C252.006 64.9227 252.192 67.4391 253.218 68.5911C255.501 71.1566 258.915 73.1398 260.836 70.5707C262.92 67.785 261.844 53.0975 261.927 49.6167Z" fill="url(#paint7_linear_3_36244)"/>
<path style="mix-blend-mode:multiply" opacity="0.32" d="M264.028 47.6638C266.012 47.2143 268.073 48.0496 269.735 49.9763C270.134 50.4133 270.433 50.9318 270.613 51.4959C270.792 52.06 270.846 52.6564 270.772 53.2436C270.637 53.9063 270.277 54.5018 269.753 54.9297C268.731 55.8923 267.5 56.6049 266.157 57.0117C266.792 56.8691 267.406 57.9756 267.314 59.0954C267.31 59.4711 267.209 59.8394 267.022 60.1652C266.835 60.4911 266.568 60.7636 266.246 60.957C265.984 61.041 265.706 61.0607 265.435 61.0142C265.164 60.9678 264.909 60.8567 264.69 60.6903C263.585 59.9111 262.609 58.9649 261.795 57.8855C260.566 56.4356 258.061 54.8537 259.263 51.7529C259.679 50.744 260.327 49.8476 261.155 49.137C261.984 48.4263 262.968 47.9216 264.028 47.6638Z" fill="url(#paint8_linear_3_36244)"/>
<path style="mix-blend-mode:multiply" opacity="0.32" d="M259.186 53.9919C261.517 52.4025 263.483 50.3365 264.956 47.9304C265.477 47.1849 265.846 46.3438 266.041 45.4556C266.308 43.7458 265.961 41.9966 265.06 40.5187C264.848 40.1762 264.569 39.848 264.292 39.9943C264.104 40.1441 263.962 40.3429 263.881 40.5686L262.838 42.7008C262.73 40.3227 262.435 37.9568 261.956 35.6252C261.627 34.0439 261.157 32.4104 260.305 31.6588C259.186 30.6725 257.737 31.6357 256.963 33.396C256.219 35.4151 255.895 37.5647 256.011 39.7133C256.034 43.4512 256.771 47.1502 258.182 50.6117" fill="url(#paint9_linear_3_36244)"/>
<path style="mix-blend-mode:multiply" opacity="0.32" d="M265.131 54.1457C265.261 54.4509 265.293 54.7887 265.224 55.1131C265.194 55.2002 265.144 55.2792 265.078 55.3437C265.012 55.4082 264.932 55.4565 264.845 55.4846C264.177 55.768 263.455 55.9035 262.73 55.8819C263.04 55.8788 263.284 56.4022 263.334 56.9428C263.36 57.4842 263.311 58.0266 263.191 58.5551C263.016 59.502 262.768 60.5681 262.234 60.8836C261.69 61.2049 261.115 60.5816 260.543 60.6293C260.712 61.6951 260.738 62.7787 260.62 63.8513C260.601 64.3906 260.44 64.9152 260.153 65.3719C259.755 65.8416 259.227 65.5599 258.783 65.2643C258.006 64.8361 257.413 64.1387 257.115 63.3035C256.04 60.0448 256.55 52.5758 258.297 50.069C260.519 46.881 263.916 50.5804 265.131 54.1457Z" fill="url(#paint10_linear_3_36244)"/>
<path style="mix-blend-mode:multiply" opacity="0.32" d="M260.88 56.0024C261.134 55.8797 261.345 55.6835 261.486 55.4394C261.627 55.1953 261.692 54.9145 261.671 54.6332C261.635 54.3737 261.539 54.1261 261.392 53.9091C260.845 52.9907 260.225 52.1179 259.538 51.2992L260.485 47.379C260.634 46.8491 260.719 46.3028 260.735 45.7524C260.708 45.0748 260.55 44.4089 260.271 43.791C259.845 42.7224 259.288 41.7111 258.612 40.7805C258.429 40.4767 258.161 40.2336 257.84 40.0814C257.132 39.8627 256.505 40.9478 256.131 42.043C255.413 44.2477 255.113 46.5674 255.249 48.8823C254.67 48.4225 254.091 47.9629 253.513 47.5034C252.636 49.9826 251.933 56.4672 253.563 58.6124C254.834 60.2839 259.372 56.8303 260.88 56.0024Z" fill="url(#paint11_linear_3_36244)"/>
<g opacity="0.32">
<path style="mix-blend-mode:multiply" opacity="0.32" d="M294.785 67.4924C295.492 67.3498 296.224 67.4092 296.899 67.6638C297.573 67.9184 298.162 68.3578 298.598 68.9317C298.867 69.2174 299.07 69.5586 299.192 69.9313C299.315 70.3039 299.354 70.6989 299.307 71.0884C299.22 71.5333 298.984 71.9354 298.638 72.2286C297.964 72.8866 297.149 73.3822 296.255 73.6776C296.677 73.5716 297.092 74.2973 297.037 75.0443C297.036 75.296 296.97 75.5432 296.848 75.763C296.725 75.9829 296.549 76.1683 296.336 76.3022C296.164 76.3629 295.98 76.381 295.799 76.3548C295.618 76.3286 295.447 76.259 295.299 76.1519C294.559 75.6529 293.903 75.0399 293.355 74.3357C292.529 73.3922 290.852 72.3831 291.635 70.298C291.907 69.6182 292.333 69.011 292.88 68.5241C293.426 68.0372 294.079 67.684 294.785 67.4924Z" fill="url(#paint12_linear_3_36244)"/>
<path style="mix-blend-mode:multiply" opacity="0.32" d="M292.659 69.7612C294.037 70.0895 295.484 69.9548 296.777 69.3777C297.189 69.2287 297.538 68.9454 297.769 68.5735C298.211 67.5638 298.308 66.4364 298.043 65.3664C297.984 65.0705 297.886 64.7482 297.712 64.6869C297.605 64.6496 297.497 64.7217 297.395 64.7925L296.482 65.4301C296.821 64.0071 297.048 62.5593 297.158 61.1005C297.292 60.0887 297.208 59.0599 296.91 58.0838C296.464 56.973 295.521 56.7625 294.814 57.3333C294.027 58.1603 293.491 59.1932 293.267 60.3124C292.649 62.6194 292.446 65.0176 292.666 67.3956" fill="url(#paint13_linear_3_36244)"/>
<path style="mix-blend-mode:multiply" opacity="0.32" d="M296.363 73.4256C296.394 73.6529 296.351 73.8842 296.24 74.085C296.151 74.1821 296.037 74.1435 295.936 74.0971C295.422 73.852 294.955 73.52 294.554 73.1157C294.653 73.2629 294.72 73.4294 294.75 73.6044C294.781 73.7794 294.774 73.9587 294.73 74.1308C294.656 74.4598 294.524 74.7733 294.341 75.0567C294.057 75.5476 293.705 76.0709 293.315 75.9574C292.919 75.8419 292.679 75.1175 292.317 74.8149C292.237 75.5259 292.051 76.2209 291.764 76.8761C291.617 77.202 291.426 77.5117 291.192 77.5556C290.858 77.6182 290.584 77.1349 290.364 76.6917C289.978 76.0191 289.75 75.2678 289.697 74.4943C289.639 71.8303 291.345 67.4524 292.892 66.8998C294.861 66.197 296.275 70.4881 296.363 73.4256Z" fill="url(#paint14_linear_3_36244)"/>
<path style="mix-blend-mode:multiply" opacity="0.32" d="M293.388 72.1146C293.667 72.2068 294.047 72.1996 294.132 71.7182C294.156 71.5124 294.144 71.3039 294.094 71.1026C293.921 70.1878 293.701 69.2826 293.433 68.3909L294.749 66.4884C294.95 66.2257 295.104 65.9306 295.206 65.6159C295.318 65.1251 295.345 64.6186 295.284 64.1188C295.212 63.1574 295.056 62.204 294.818 61.2698C294.755 60.9565 294.637 60.6566 294.471 60.3837C294.073 59.8348 293.483 60.1493 293.048 60.6172C292.133 61.6989 291.507 62.9948 291.228 64.3839C290.956 63.7597 290.683 63.1355 290.411 62.5114C289.407 63.553 287.764 67.2021 288.374 69.4928C288.849 71.2778 292.3 71.7557 293.388 72.1146Z" fill="url(#paint15_linear_3_36244)"/>
</g>
<path style="mix-blend-mode:multiply" opacity="0.32" d="M276.87 38.4465C276.39 37.7488 275.634 37.1556 275.199 37.9558C275.02 38.3769 274.928 38.8299 274.928 39.2875C274.8 41.3627 274.96 43.4458 275.404 45.477C274.872 43.7754 273.873 42.2434 272.783 42.5824C271.73 42.9096 271.042 44.9955 271.168 46.8647C271.251 48.4905 271.893 50.0379 272.984 51.2458C273.843 52.0569 274.872 52.6658 275.996 53.0279C275.384 53.0649 274.96 54.5097 275.3 55.4044C276.075 55.6021 276.889 55.5848 277.655 55.3545C278.421 55.1241 279.11 54.6893 279.648 54.0969C281.098 52.3049 280.667 53.0044 280.542 50.1225C280.353 45.9777 279.087 41.9537 276.87 38.4465Z" fill="url(#paint16_linear_3_36244)"/>
<path style="mix-blend-mode:multiply" opacity="0.32" d="M278.878 49.8357C279.072 49.9701 279.236 50.1439 279.358 50.3458C279.48 50.5478 279.558 50.7733 279.587 51.0075C279.675 51.5827 279.437 52.3124 279.1 52.2917C279.339 52.4488 279.604 52.2724 279.859 52.2424C279.942 52.2457 280.023 52.2669 280.097 52.3045C280.172 52.3421 280.237 52.3952 280.288 52.4602C280.34 52.5252 280.377 52.6006 280.397 52.6813C280.417 52.7619 280.419 52.8459 280.404 52.9275C280.388 53.0802 280.346 53.229 280.279 53.3673C279.063 56.2146 277.223 58.2111 275.243 58.8326C274.97 58.9411 274.678 58.9931 274.385 58.9857C274.091 58.9783 273.802 58.9116 273.535 58.7896C273.2 58.5762 272.916 58.2916 272.704 57.9559C272.491 57.6203 272.355 57.2419 272.306 56.8477L273.881 56.049C273.919 56.0336 273.954 56.0097 273.982 55.9789C274.01 55.9481 274.031 55.9114 274.043 55.8714C274.058 55.7796 274.048 55.6854 274.013 55.5991C273.978 55.5128 273.921 55.4377 273.846 55.3819C272.465 54.168 271.883 50.7635 272.649 48.3684C272.71 48.1192 272.827 47.8869 272.991 47.6888C273.738 46.9583 275.141 47.9712 275.866 48.4827C276.856 49.1808 277.904 49.1979 278.878 49.8357Z" fill="url(#paint17_linear_3_36244)"/>
<path style="mix-blend-mode:multiply" opacity="0.32" d="M277.54 44.1276C277.499 44.1253 277.459 44.1339 277.423 44.1524C277.387 44.1709 277.356 44.1988 277.335 44.233C277.278 44.3544 277.249 44.4872 277.251 44.6213C277.172 45.7842 277.365 46.9494 277.813 48.0253C277.543 48.5625 276.977 47.9988 276.66 48.4487C276.551 48.6391 276.486 48.8515 276.47 49.0703C276.369 49.8062 276.469 50.5556 276.759 51.2392C277.061 51.8333 277.559 52.3051 278.168 52.5749L279.864 53.5065C279.98 53.5698 280.108 53.6319 280.218 53.542C280.297 53.4586 280.356 53.3578 280.389 53.2477C280.992 51.6971 280.891 49.6571 281.086 47.813C281.195 47.072 281.266 46.326 281.3 45.5778C281.352 44.8849 281.172 44.1943 280.79 43.6141C280.758 43.5715 280.713 43.5408 280.662 43.527C280.564 43.5148 280.48 43.6453 280.41 43.7669L279.778 44.8553C279.737 44.9256 279.687 45.0013 279.631 44.9882C279.565 44.9729 279.531 44.8478 279.499 44.7446C279.333 44.1982 278.936 43.912 278.597 44.0948C278.422 44.1894 278.508 44.9315 278.557 45.1081C278.522 44.8541 278.403 44.6191 278.219 44.4411C278.034 44.2632 277.795 44.1528 277.54 44.1276Z" fill="url(#paint18_linear_3_36244)"/>
<path style="mix-blend-mode:multiply" opacity="0.32" d="M279.3 65.394C279.3 65.394 282.424 57.3067 286.251 55.2202C290.077 53.1337 292.675 53.7255 292.675 53.7255C292.675 53.7255 285.257 67.9289 282.221 68.1794C279.185 68.43 279.3 65.394 279.3 65.394Z" fill="url(#paint19_linear_3_36244)"/>
<path style="mix-blend-mode:multiply" opacity="0.32" d="M279.145 68.4501C279.232 63.4543 280.275 58.5214 282.216 53.9175C283.874 50.1965 285.891 46.6464 288.239 43.3179C288.239 43.3179 286.307 60.0285 283.278 64.8736C280.248 69.7188 279.145 68.4501 279.145 68.4501Z" fill="url(#paint20_linear_3_36244)"/>
<path style="mix-blend-mode:multiply" opacity="0.32" d="M251.098 36.6407C247.635 35.6517 244.701 33.3378 242.932 30.2005C241.327 27.2032 240.139 24.0012 239.399 20.6827C239.399 20.6827 249.814 26.0503 251.252 30.7529C252.69 35.4555 251.098 36.6407 251.098 36.6407Z" fill="url(#paint21_linear_3_36244)"/>
<path style="mix-blend-mode:multiply" opacity="0.32" d="M256.507 37.2158C256.507 37.2158 252.565 40.7807 247.801 38.8924C244.903 37.7346 242.209 36.1217 239.819 34.1146C239.819 34.1146 249.139 29.6501 252.907 32.2722C256.675 34.8943 256.507 37.2158 256.507 37.2158Z" fill="url(#paint22_linear_3_36244)"/>
<path style="mix-blend-mode:multiply" opacity="0.32" d="M290.349 48.8248C290.349 48.8248 293.187 47.8381 295.027 49.5579C296.135 50.5948 297.04 51.8293 297.696 53.198C297.696 53.198 292.003 53.668 290.837 51.7772C289.671 49.8865 290.349 48.8248 290.349 48.8248Z" fill="url(#paint23_linear_3_36244)"/>
<path style="mix-blend-mode:multiply" opacity="0.32" d="M290.092 49.3895C290.092 49.3895 292.646 44.7481 296.67 43.9672C298.974 43.489 301.349 43.4715 303.659 43.9159C303.659 43.9159 297.02 51.801 293.666 51.5394C290.311 51.2778 290.092 49.3895 290.092 49.3895Z" fill="url(#paint24_linear_3_36244)"/>
<path style="mix-blend-mode:multiply" opacity="0.32" d="M287.887 67.7581C287.887 67.7581 287.1 74.4913 284.928 77.6859C282.756 80.8805 280.97 81.7521 280.97 81.7521C280.97 81.7521 283.612 68.9944 285.553 67.3676C287.493 65.7407 287.887 67.7581 287.887 67.7581Z" fill="url(#paint25_linear_3_36244)"/>
<path style="mix-blend-mode:multiply" opacity="0.32" d="M285.954 68.1729C287.007 68.4989 287.949 69.1092 288.678 69.9366C289.406 70.7639 289.892 71.7762 290.082 72.862C290.632 75.3063 290.883 77.8085 290.829 80.3134C290.829 80.3134 285.125 76.6255 284.949 72.9251C284.773 69.2247 285.954 68.1729 285.954 68.1729Z" fill="url(#paint26_linear_3_36244)"/>
<path style="mix-blend-mode:multiply" opacity="0.32" d="M278.872 70.0585C277.668 69.8135 276.527 69.3248 275.52 68.6225C274.512 67.9202 273.659 67.0191 273.012 65.9747C271.827 63.9435 270.934 61.7553 270.36 59.4747C270.36 59.4747 277.784 62.6821 278.877 65.9104C279.971 69.1387 278.872 70.0585 278.872 70.0585Z" fill="url(#paint27_linear_3_36244)"/>
<path style="mix-blend-mode:multiply" opacity="0.32" d="M278.206 68.6267C278.206 68.6267 275.494 71.3478 272.109 70.2793C270.059 69.6287 268.132 68.6401 266.408 67.3543C266.408 67.3543 272.889 63.708 275.587 65.3466C278.284 66.9852 278.206 68.6267 278.206 68.6267Z" fill="url(#paint28_linear_3_36244)"/>
</g>
<path d="M178.601 13.5612C178.601 24.1851 187.225 25.8473 194.127 16.5536L194.138 16.5381C197.351 12.202 199.159 6.98595 199.318 1.59172C199.318 -9.03214 189.771 -10.872 182.87 -1.57835C179.665 2.73703 178.601 8.62818 178.601 13.5612Z" fill="#F6F6F6" stroke="#575D68" stroke-width="0.5" stroke-miterlimit="10"/>
<path d="M181.655 21.5972C185.478 24.7722 192.839 23.9542 197.181 18.1065C197.181 18.1065 201.726 13.5755 201.733 4.47183C201.737 -0.478688 200.473 -3.23006 198.362 -5.25997C196.051 -7.48286 192.391 -7.57625 189.601 -5.99439C187.626 -4.94088 186.007 -3.32557 184.949 -1.35248" fill="#F6F6F6"/>
<path d="M181.655 21.5972C185.478 24.7722 192.839 23.9542 197.181 18.1065C197.181 18.1065 201.726 13.5755 201.733 4.47183C201.737 -0.478688 200.473 -3.23006 198.362 -5.25997C196.051 -7.48286 192.391 -7.57625 189.601 -5.99439C187.626 -4.94088 186.007 -3.32557 184.949 -1.35248" stroke="#575D68" stroke-width="0.5" stroke-miterlimit="10"/>
<path d="M183.31 22.6282L188.832 11.6267L195.848 7.57666L199.708 13.9202" fill="#F6F6F6"/>
<path d="M183.31 22.6282L188.832 11.6267L195.848 7.57666L199.708 13.9202" stroke="#575D68" stroke-width="0.5" stroke-miterlimit="10"/>
<path d="M198.579 12.0637C198.102 13.5214 197.394 14.8933 196.483 16.1269L196.473 16.1403C193.087 20.6999 188.961 21.4034 184.697 19.8648L188.833 11.6271L195.849 7.57654L198.579 12.0637Z" fill="#F6F6F6" stroke="#575D68" stroke-width="0.5" stroke-miterlimit="10"/>
<path d="M192.016 9.78894V14.7073" stroke="#575D68" stroke-width="0.5" stroke-miterlimit="10"/>
<defs>
<linearGradient id="paint0_linear_3_36244" x1="181.192" y1="180.08" x2="247.229" y2="180.08" gradientUnits="userSpaceOnUse">
<stop offset="0.00777" stop-color="white" stop-opacity="0"/>
<stop offset="0.10635" stop-color="#FBFBFB" stop-opacity="0.10125"/>
<stop offset="0.30369" stop-color="#F5F5F5" stop-opacity="0.27901"/>
<stop offset="0.49638" stop-color="#F0F0F0" stop-opacity="0.41887"/>
<stop offset="0.6805" stop-color="#EDEDED" stop-opacity="0.51892"/>
<stop offset="0.85243" stop-color="#EBEBEB" stop-opacity="0.57928"/>
<stop offset="1" stop-color="#EAEAEA" stop-opacity="0.6"/>
</linearGradient>
<linearGradient id="paint1_linear_3_36244" x1="206.227" y1="162.149" x2="238.648" y2="147.661" gradientUnits="userSpaceOnUse">
<stop offset="0.3472" stop-color="white" stop-opacity="0"/>
<stop offset="0.40125" stop-color="#FBFBFB" stop-opacity="0.12803"/>
<stop offset="0.47508" stop-color="#F5F5F5" stop-opacity="0.2725"/>
<stop offset="0.55423" stop-color="#F1F1F1" stop-opacity="0.39198"/>
<stop offset="0.63915" stop-color="#EEEEEE" stop-opacity="0.48433"/>
<stop offset="0.73258" stop-color="#ECECEC" stop-opacity="0.54967"/>
<stop offset="0.84103" stop-color="#EAEAEA" stop-opacity="0.58813"/>
<stop offset="1" stop-color="#EAEAEA" stop-opacity="0.6"/>
</linearGradient>
<linearGradient id="paint2_linear_3_36244" x1="199.341" y1="83.3464" x2="228.392" y2="83.3464" gradientUnits="userSpaceOnUse">
<stop offset="0.00777" stop-color="white" stop-opacity="0"/>
<stop offset="0.10635" stop-color="#FBFBFB" stop-opacity="0.10125"/>
<stop offset="0.30369" stop-color="#F5F5F5" stop-opacity="0.27901"/>
<stop offset="0.49638" stop-color="#F0F0F0" stop-opacity="0.41887"/>
<stop offset="0.6805" stop-color="#EDEDED" stop-opacity="0.51892"/>
<stop offset="0.85243" stop-color="#EBEBEB" stop-opacity="0.57928"/>
<stop offset="1" stop-color="#EAEAEA" stop-opacity="0.6"/>
</linearGradient>
<linearGradient id="paint3_linear_3_36244" x1="154.995" y1="155.884" x2="222.314" y2="101.99" gradientUnits="userSpaceOnUse">
<stop offset="0.17535" stop-color="#DABAFF"/>
<stop offset="0.25524" stop-color="#DABBFF" stop-opacity="0.98453"/>
<stop offset="0.33418" stop-color="#DCBEFE" stop-opacity="0.9379"/>
<stop offset="0.41275" stop-color="#DEC2FE" stop-opacity="0.85999"/>
<stop offset="0.49115" stop-color="#E1C9FD" stop-opacity="0.75066"/>
<stop offset="0.56949" stop-color="#E5D1FB" stop-opacity="0.60965"/>
<stop offset="0.64775" stop-color="#EADCFA" stop-opacity="0.43695"/>
<stop offset="0.72532" stop-color="#EFE8F8" stop-opacity="0.23425"/>
<stop offset="0.80175" stop-color="#F6F6F6" stop-opacity="0.01"/>
<stop offset="0.8029" stop-color="#F6F6F6" stop-opacity="0"/>
</linearGradient>
<linearGradient id="paint4_linear_3_36244" x1="256.884" y1="32.6191" x2="269.383" y2="38.0677" gradientUnits="userSpaceOnUse">
<stop stop-color="#EAEAEA" stop-opacity="0"/>
<stop offset="0.08667" stop-color="#E0E0E0" stop-opacity="0.17789"/>
<stop offset="0.22597" stop-color="#D1D1D1" stop-opacity="0.42721"/>
<stop offset="0.36713" stop-color="#C5C5C5" stop-opacity="0.63392"/>
<stop offset="0.5082" stop-color="#BBBBBB" stop-opacity="0.79434"/>
<stop offset="0.64929" stop-color="#B4B4B4" stop-opacity="0.90874"/>
<stop offset="0.79044" stop-color="#B0B0B0" stop-opacity="0.97723"/>
<stop offset="0.93199" stop-color="#AFAFAF"/>
</linearGradient>
<linearGradient id="paint5_linear_3_36244" x1="243.671" y1="35.7607" x2="263.577" y2="44.4379" gradientUnits="userSpaceOnUse">
<stop stop-color="#EAEAEA" stop-opacity="0"/>
<stop offset="0.08667" stop-color="#E0E0E0" stop-opacity="0.17789"/>
<stop offset="0.22597" stop-color="#D1D1D1" stop-opacity="0.42721"/>
<stop offset="0.36713" stop-color="#C5C5C5" stop-opacity="0.63392"/>
<stop offset="0.5082" stop-color="#BBBBBB" stop-opacity="0.79434"/>
<stop offset="0.64929" stop-color="#B4B4B4" stop-opacity="0.90874"/>
<stop offset="0.79044" stop-color="#B0B0B0" stop-opacity="0.97723"/>
<stop offset="0.93199" stop-color="#AFAFAF"/>
</linearGradient>
<linearGradient id="paint6_linear_3_36244" x1="257.14" y1="44.1398" x2="272.603" y2="50.8801" gradientUnits="userSpaceOnUse">
<stop stop-color="#EAEAEA" stop-opacity="0"/>
<stop offset="0.08667" stop-color="#E0E0E0" stop-opacity="0.17789"/>
<stop offset="0.22597" stop-color="#D1D1D1" stop-opacity="0.42721"/>
<stop offset="0.36713" stop-color="#C5C5C5" stop-opacity="0.63392"/>
<stop offset="0.5082" stop-color="#BBBBBB" stop-opacity="0.79434"/>
<stop offset="0.64929" stop-color="#B4B4B4" stop-opacity="0.90874"/>
<stop offset="0.79044" stop-color="#B0B0B0" stop-opacity="0.97723"/>
<stop offset="0.93199" stop-color="#AFAFAF"/>
</linearGradient>
<linearGradient id="paint7_linear_3_36244" x1="249.087" y1="47.0307" x2="267.65" y2="55.1227" gradientUnits="userSpaceOnUse">
<stop stop-color="#EAEAEA" stop-opacity="0"/>
<stop offset="0.08667" stop-color="#E0E0E0" stop-opacity="0.17789"/>
<stop offset="0.22597" stop-color="#D1D1D1" stop-opacity="0.42721"/>
<stop offset="0.36713" stop-color="#C5C5C5" stop-opacity="0.63392"/>
<stop offset="0.5082" stop-color="#BBBBBB" stop-opacity="0.79434"/>
<stop offset="0.64929" stop-color="#B4B4B4" stop-opacity="0.90874"/>
<stop offset="0.79044" stop-color="#B0B0B0" stop-opacity="0.97723"/>
<stop offset="0.93199" stop-color="#AFAFAF"/>
</linearGradient>
<linearGradient id="paint8_linear_3_36244" x1="266.198" y1="47.2116" x2="259.444" y2="57.1213" gradientUnits="userSpaceOnUse">
<stop stop-color="#EAEAEA" stop-opacity="0"/>
<stop offset="0.08667" stop-color="#E0E0E0" stop-opacity="0.17789"/>
<stop offset="0.22597" stop-color="#D1D1D1" stop-opacity="0.42721"/>
<stop offset="0.36713" stop-color="#C5C5C5" stop-opacity="0.63392"/>
<stop offset="0.5082" stop-color="#BBBBBB" stop-opacity="0.79434"/>
<stop offset="0.64929" stop-color="#B4B4B4" stop-opacity="0.90874"/>
<stop offset="0.79044" stop-color="#B0B0B0" stop-opacity="0.97723"/>
<stop offset="0.93199" stop-color="#AFAFAF"/>
</linearGradient>
<linearGradient id="paint9_linear_3_36244" x1="262.805" y1="33.3418" x2="252.049" y2="49.1238" gradientUnits="userSpaceOnUse">
<stop stop-color="#EAEAEA" stop-opacity="0"/>
<stop offset="0.08667" stop-color="#E0E0E0" stop-opacity="0.17789"/>
<stop offset="0.22597" stop-color="#D1D1D1" stop-opacity="0.42721"/>
<stop offset="0.36713" stop-color="#C5C5C5" stop-opacity="0.63392"/>
<stop offset="0.5082" stop-color="#BBBBBB" stop-opacity="0.79434"/>
<stop offset="0.64929" stop-color="#B4B4B4" stop-opacity="0.90874"/>
<stop offset="0.79044" stop-color="#B0B0B0" stop-opacity="0.97723"/>
<stop offset="0.93199" stop-color="#AFAFAF"/>
</linearGradient>
<linearGradient id="paint10_linear_3_36244" x1="262.208" y1="49.6423" x2="253.853" y2="61.9016" gradientUnits="userSpaceOnUse">
<stop stop-color="#EAEAEA" stop-opacity="0"/>
<stop offset="0.08667" stop-color="#E0E0E0" stop-opacity="0.17789"/>
<stop offset="0.22597" stop-color="#D1D1D1" stop-opacity="0.42721"/>
<stop offset="0.36713" stop-color="#C5C5C5" stop-opacity="0.63392"/>
<stop offset="0.5082" stop-color="#BBBBBB" stop-opacity="0.79434"/>
<stop offset="0.64929" stop-color="#B4B4B4" stop-opacity="0.90874"/>
<stop offset="0.79044" stop-color="#B0B0B0" stop-opacity="0.97723"/>
<stop offset="0.93199" stop-color="#AFAFAF"/>
</linearGradient>
<linearGradient id="paint11_linear_3_36244" x1="259.786" y1="41.364" x2="249.755" y2="56.0817" gradientUnits="userSpaceOnUse">
<stop stop-color="#EAEAEA" stop-opacity="0"/>
<stop offset="0.08667" stop-color="#E0E0E0" stop-opacity="0.17789"/>
<stop offset="0.22597" stop-color="#D1D1D1" stop-opacity="0.42721"/>
<stop offset="0.36713" stop-color="#C5C5C5" stop-opacity="0.63392"/>
<stop offset="0.5082" stop-color="#BBBBBB" stop-opacity="0.79434"/>
<stop offset="0.64929" stop-color="#B4B4B4" stop-opacity="0.90874"/>
<stop offset="0.79044" stop-color="#B0B0B0" stop-opacity="0.97723"/>
<stop offset="0.93199" stop-color="#AFAFAF"/>
</linearGradient>
<linearGradient id="paint12_linear_3_36244" x1="296.239" y1="67.1161" x2="291.846" y2="73.8622" gradientUnits="userSpaceOnUse">
<stop stop-color="#EAEAEA" stop-opacity="0"/>
<stop offset="0.08667" stop-color="#E0E0E0" stop-opacity="0.17789"/>
<stop offset="0.22597" stop-color="#D1D1D1" stop-opacity="0.42721"/>
<stop offset="0.36713" stop-color="#C5C5C5" stop-opacity="0.63392"/>
<stop offset="0.5082" stop-color="#BBBBBB" stop-opacity="0.79434"/>
<stop offset="0.64929" stop-color="#B4B4B4" stop-opacity="0.90874"/>
<stop offset="0.79044" stop-color="#B0B0B0" stop-opacity="0.97723"/>
<stop offset="0.93199" stop-color="#AFAFAF"/>
</linearGradient>
<linearGradient id="paint13_linear_3_36244" x1="298.038" y1="60.2057" x2="289.997" y2="64.1298" gradientUnits="userSpaceOnUse">
<stop stop-color="#EAEAEA" stop-opacity="0"/>
<stop offset="0.08667" stop-color="#E0E0E0" stop-opacity="0.17789"/>
<stop offset="0.22597" stop-color="#D1D1D1" stop-opacity="0.42721"/>
<stop offset="0.36713" stop-color="#C5C5C5" stop-opacity="0.63392"/>
<stop offset="0.5082" stop-color="#BBBBBB" stop-opacity="0.79434"/>
<stop offset="0.64929" stop-color="#B4B4B4" stop-opacity="0.90874"/>
<stop offset="0.79044" stop-color="#B0B0B0" stop-opacity="0.97723"/>
<stop offset="0.93199" stop-color="#AFAFAF"/>
</linearGradient>
<linearGradient id="paint14_linear_3_36244" x1="295.437" y1="68.8289" x2="288.309" y2="72.3074" gradientUnits="userSpaceOnUse">
<stop stop-color="#EAEAEA" stop-opacity="0"/>
<stop offset="0.08667" stop-color="#E0E0E0" stop-opacity="0.17789"/>
<stop offset="0.22597" stop-color="#D1D1D1" stop-opacity="0.42721"/>
<stop offset="0.36713" stop-color="#C5C5C5" stop-opacity="0.63392"/>
<stop offset="0.5082" stop-color="#BBBBBB" stop-opacity="0.79434"/>
<stop offset="0.64929" stop-color="#B4B4B4" stop-opacity="0.90874"/>
<stop offset="0.79044" stop-color="#B0B0B0" stop-opacity="0.97723"/>
<stop offset="0.93199" stop-color="#AFAFAF"/>
</linearGradient>
<linearGradient id="paint15_linear_3_36244" x1="295.481" y1="62.2395" x2="286.924" y2="66.4156" gradientUnits="userSpaceOnUse">
<stop stop-color="#EAEAEA" stop-opacity="0"/>
<stop offset="0.08667" stop-color="#E0E0E0" stop-opacity="0.17789"/>
<stop offset="0.22597" stop-color="#D1D1D1" stop-opacity="0.42721"/>
<stop offset="0.36713" stop-color="#C5C5C5" stop-opacity="0.63392"/>
<stop offset="0.5082" stop-color="#BBBBBB" stop-opacity="0.79434"/>
<stop offset="0.64929" stop-color="#B4B4B4" stop-opacity="0.90874"/>
<stop offset="0.79044" stop-color="#B0B0B0" stop-opacity="0.97723"/>
<stop offset="0.93199" stop-color="#AFAFAF"/>
</linearGradient>
<linearGradient id="paint16_linear_3_36244" x1="275.678" y1="37.5693" x2="277.189" y2="55.484" gradientUnits="userSpaceOnUse">
<stop stop-color="#EAEAEA" stop-opacity="0"/>
<stop offset="0.08667" stop-color="#E0E0E0" stop-opacity="0.17789"/>
<stop offset="0.22597" stop-color="#D1D1D1" stop-opacity="0.42721"/>
<stop offset="0.36713" stop-color="#C5C5C5" stop-opacity="0.63392"/>
<stop offset="0.5082" stop-color="#BBBBBB" stop-opacity="0.79434"/>
<stop offset="0.64929" stop-color="#B4B4B4" stop-opacity="0.90874"/>
<stop offset="0.79044" stop-color="#B0B0B0" stop-opacity="0.97723"/>
<stop offset="0.93199" stop-color="#AFAFAF"/>
</linearGradient>
<linearGradient id="paint17_linear_3_36244" x1="276.195" y1="47.2085" x2="277.168" y2="58.7512" gradientUnits="userSpaceOnUse">
<stop stop-color="#EAEAEA" stop-opacity="0"/>
<stop offset="0.08667" stop-color="#E0E0E0" stop-opacity="0.17789"/>
<stop offset="0.22597" stop-color="#D1D1D1" stop-opacity="0.42721"/>
<stop offset="0.36713" stop-color="#C5C5C5" stop-opacity="0.63392"/>
<stop offset="0.5082" stop-color="#BBBBBB" stop-opacity="0.79434"/>
<stop offset="0.64929" stop-color="#B4B4B4" stop-opacity="0.90874"/>
<stop offset="0.79044" stop-color="#B0B0B0" stop-opacity="0.97723"/>
<stop offset="0.93199" stop-color="#AFAFAF"/>
</linearGradient>
<linearGradient id="paint18_linear_3_36244" x1="278.785" y1="43.6775" x2="279.624" y2="53.6218" gradientUnits="userSpaceOnUse">
<stop stop-color="#EAEAEA" stop-opacity="0"/>
<stop offset="0.08667" stop-color="#E0E0E0" stop-opacity="0.17789"/>
<stop offset="0.22597" stop-color="#D1D1D1" stop-opacity="0.42721"/>
<stop offset="0.36713" stop-color="#C5C5C5" stop-opacity="0.63392"/>
<stop offset="0.5082" stop-color="#BBBBBB" stop-opacity="0.79434"/>
<stop offset="0.64929" stop-color="#B4B4B4" stop-opacity="0.90874"/>
<stop offset="0.79044" stop-color="#B0B0B0" stop-opacity="0.97723"/>
<stop offset="0.93199" stop-color="#AFAFAF"/>
</linearGradient>
<linearGradient id="paint19_linear_3_36244" x1="283.219" y1="56.3823" x2="290.2" y2="59.4254" gradientUnits="userSpaceOnUse">
<stop stop-color="#EAEAEA" stop-opacity="0"/>
<stop offset="0.08667" stop-color="#E0E0E0" stop-opacity="0.17789"/>
<stop offset="0.22597" stop-color="#D1D1D1" stop-opacity="0.42721"/>
<stop offset="0.36713" stop-color="#C5C5C5" stop-opacity="0.63392"/>
<stop offset="0.5082" stop-color="#BBBBBB" stop-opacity="0.79434"/>
<stop offset="0.64929" stop-color="#B4B4B4" stop-opacity="0.90874"/>
<stop offset="0.79044" stop-color="#B0B0B0" stop-opacity="0.97723"/>
<stop offset="0.93199" stop-color="#AFAFAF"/>
</linearGradient>
<linearGradient id="paint20_linear_3_36244" x1="278.257" y1="57.5063" x2="289.319" y2="56.6078" gradientUnits="userSpaceOnUse">
<stop stop-color="#EAEAEA" stop-opacity="0"/>
<stop offset="0.08667" stop-color="#E0E0E0" stop-opacity="0.17789"/>
<stop offset="0.22597" stop-color="#D1D1D1" stop-opacity="0.42721"/>
<stop offset="0.36713" stop-color="#C5C5C5" stop-opacity="0.63392"/>
<stop offset="0.5082" stop-color="#BBBBBB" stop-opacity="0.79434"/>
<stop offset="0.64929" stop-color="#B4B4B4" stop-opacity="0.90874"/>
<stop offset="0.79044" stop-color="#B0B0B0" stop-opacity="0.97723"/>
<stop offset="0.93199" stop-color="#AFAFAF"/>
</linearGradient>
<linearGradient id="paint21_linear_3_36244" x1="244.85" y1="34.5198" x2="248.539" y2="23.861" gradientUnits="userSpaceOnUse">
<stop stop-color="#EAEAEA" stop-opacity="0"/>
<stop offset="0.08667" stop-color="#E0E0E0" stop-opacity="0.17789"/>
<stop offset="0.22597" stop-color="#D1D1D1" stop-opacity="0.42721"/>
<stop offset="0.36713" stop-color="#C5C5C5" stop-opacity="0.63392"/>
<stop offset="0.5082" stop-color="#BBBBBB" stop-opacity="0.79434"/>
<stop offset="0.64929" stop-color="#B4B4B4" stop-opacity="0.90874"/>
<stop offset="0.79044" stop-color="#B0B0B0" stop-opacity="0.97723"/>
<stop offset="0.93199" stop-color="#AFAFAF"/>
</linearGradient>
<linearGradient id="paint22_linear_3_36244" x1="251.331" y1="43.5767" x2="239.793" y2="34.1632" gradientUnits="userSpaceOnUse">
<stop stop-color="#EAEAEA" stop-opacity="0"/>
<stop offset="0.08667" stop-color="#E0E0E0" stop-opacity="0.17789"/>
<stop offset="0.22597" stop-color="#D1D1D1" stop-opacity="0.42721"/>
<stop offset="0.36713" stop-color="#C5C5C5" stop-opacity="0.63392"/>
<stop offset="0.5082" stop-color="#BBBBBB" stop-opacity="0.79434"/>
<stop offset="0.64929" stop-color="#B4B4B4" stop-opacity="0.90874"/>
<stop offset="0.79044" stop-color="#B0B0B0" stop-opacity="0.97723"/>
<stop offset="0.93199" stop-color="#AFAFAF"/>
</linearGradient>
<linearGradient id="paint23_linear_3_36244" x1="293.683" y1="48.0028" x2="295.097" y2="53.8293" gradientUnits="userSpaceOnUse">
<stop stop-color="#EAEAEA" stop-opacity="0"/>
<stop offset="0.08667" stop-color="#E0E0E0" stop-opacity="0.17789"/>
<stop offset="0.22597" stop-color="#D1D1D1" stop-opacity="0.42721"/>
<stop offset="0.36713" stop-color="#C5C5C5" stop-opacity="0.63392"/>
<stop offset="0.5082" stop-color="#BBBBBB" stop-opacity="0.79434"/>
<stop offset="0.64929" stop-color="#B4B4B4" stop-opacity="0.90874"/>
<stop offset="0.79044" stop-color="#B0B0B0" stop-opacity="0.97723"/>
<stop offset="0.93199" stop-color="#AFAFAF"/>
</linearGradient>
<linearGradient id="paint24_linear_3_36244" x1="293.18" y1="41.9918" x2="302.761" y2="46.0134" gradientUnits="userSpaceOnUse">
<stop stop-color="#EAEAEA" stop-opacity="0"/>
<stop offset="0.08667" stop-color="#E0E0E0" stop-opacity="0.17789"/>
<stop offset="0.22597" stop-color="#D1D1D1" stop-opacity="0.42721"/>
<stop offset="0.36713" stop-color="#C5C5C5" stop-opacity="0.63392"/>
<stop offset="0.5082" stop-color="#BBBBBB" stop-opacity="0.79434"/>
<stop offset="0.64929" stop-color="#B4B4B4" stop-opacity="0.90874"/>
<stop offset="0.79044" stop-color="#B0B0B0" stop-opacity="0.97723"/>
<stop offset="0.93199" stop-color="#AFAFAF"/>
</linearGradient>
<linearGradient id="paint25_linear_3_36244" x1="286.721" y1="75.5201" x2="282.02" y2="74.8082" gradientUnits="userSpaceOnUse">
<stop stop-color="#EAEAEA" stop-opacity="0"/>
<stop offset="0.08667" stop-color="#E0E0E0" stop-opacity="0.17789"/>
<stop offset="0.22597" stop-color="#D1D1D1" stop-opacity="0.42721"/>
<stop offset="0.36713" stop-color="#C5C5C5" stop-opacity="0.63392"/>
<stop offset="0.5082" stop-color="#BBBBBB" stop-opacity="0.79434"/>
<stop offset="0.64929" stop-color="#B4B4B4" stop-opacity="0.90874"/>
<stop offset="0.79044" stop-color="#B0B0B0" stop-opacity="0.97723"/>
<stop offset="0.93199" stop-color="#AFAFAF"/>
</linearGradient>
<linearGradient id="paint26_linear_3_36244" x1="291.005" y1="68.3382" x2="290.72" y2="80.356" gradientUnits="userSpaceOnUse">
<stop stop-color="#EAEAEA" stop-opacity="0"/>
<stop offset="0.08667" stop-color="#E0E0E0" stop-opacity="0.17789"/>
<stop offset="0.22597" stop-color="#D1D1D1" stop-opacity="0.42721"/>
<stop offset="0.36713" stop-color="#C5C5C5" stop-opacity="0.63392"/>
<stop offset="0.5082" stop-color="#BBBBBB" stop-opacity="0.79434"/>
<stop offset="0.64929" stop-color="#B4B4B4" stop-opacity="0.90874"/>
<stop offset="0.79044" stop-color="#B0B0B0" stop-opacity="0.97723"/>
<stop offset="0.93199" stop-color="#AFAFAF"/>
</linearGradient>
<linearGradient id="paint27_linear_3_36244" x1="274.395" y1="68.8682" x2="276.467" y2="61.0828" gradientUnits="userSpaceOnUse">
<stop stop-color="#EAEAEA" stop-opacity="0"/>
<stop offset="0.08667" stop-color="#E0E0E0" stop-opacity="0.17789"/>
<stop offset="0.22597" stop-color="#D1D1D1" stop-opacity="0.42721"/>
<stop offset="0.36713" stop-color="#C5C5C5" stop-opacity="0.63392"/>
<stop offset="0.5082" stop-color="#BBBBBB" stop-opacity="0.79434"/>
<stop offset="0.64929" stop-color="#B4B4B4" stop-opacity="0.90874"/>
<stop offset="0.79044" stop-color="#B0B0B0" stop-opacity="0.97723"/>
<stop offset="0.93199" stop-color="#AFAFAF"/>
</linearGradient>
<linearGradient id="paint28_linear_3_36244" x1="274.638" y1="73.4278" x2="266.44" y2="67.3216" gradientUnits="userSpaceOnUse">
<stop stop-color="#EAEAEA" stop-opacity="0"/>
<stop offset="0.08667" stop-color="#E0E0E0" stop-opacity="0.17789"/>
<stop offset="0.22597" stop-color="#D1D1D1" stop-opacity="0.42721"/>
<stop offset="0.36713" stop-color="#C5C5C5" stop-opacity="0.63392"/>
<stop offset="0.5082" stop-color="#BBBBBB" stop-opacity="0.79434"/>
<stop offset="0.64929" stop-color="#B4B4B4" stop-opacity="0.90874"/>
<stop offset="0.79044" stop-color="#B0B0B0" stop-opacity="0.97723"/>
<stop offset="0.93199" stop-color="#AFAFAF"/>
</linearGradient>
</defs>
</svg>
