<svg width="33" height="21" viewBox="0 0 33 21" fill="none" xmlns="http://www.w3.org/2000/svg">
<path fill-rule="evenodd" clip-rule="evenodd" d="M32.2428 1.81813C32.4722 1.03749 32.2428 0.463867 31.151 0.463867H27.5408C26.6228 0.463867 26.1996 0.959393 25.9701 1.50581C25.9701 1.50581 24.1342 6.07254 21.5334 9.03892C20.6919 9.8976 20.3094 10.1708 19.8504 10.1708C19.621 10.1708 19.2888 9.89759 19.2888 9.11701V1.81814C19.2888 0.881363 19.0224 0.463867 18.2574 0.463867H12.5842C12.0105 0.463867 11.6655 0.898647 11.6655 1.3107C11.6655 2.19874 12.9659 2.40354 13.0999 4.9016V10.327C13.0999 11.5165 12.8894 11.7322 12.4304 11.7322C11.2066 11.7322 8.22947 7.14504 6.46378 1.89617C6.11775 0.875973 5.77068 0.463867 4.84801 0.463867H1.2378C0.206308 0.463867 0 0.959393 0 1.50581C0 2.48163 1.22394 7.32157 5.69888 13.7227C8.68215 18.0942 12.8854 20.4639 16.7101 20.4639C19.005 20.4639 19.2889 19.9375 19.2889 19.031V15.727C19.2889 14.6744 19.5063 14.4643 20.233 14.4643C20.7684 14.4643 21.6864 14.7375 23.8283 16.8452C26.2761 19.3432 26.6796 20.4639 28.0565 20.4639H31.6667C32.6982 20.4639 33.214 19.9376 32.9164 18.8989C32.5909 17.8637 31.4222 16.3618 29.8714 14.5814C29.0299 13.5666 27.7678 12.4738 27.3852 11.9272C26.8498 11.2247 27.0028 10.9124 27.3852 10.288C27.3852 10.288 31.7838 3.96483 32.2428 1.81813Z" fill="#C4C4C4"/>
</svg>
