<svg width="144" height="144" viewBox="0 0 144 144" fill="none" xmlns="http://www.w3.org/2000/svg">
<circle cx="72" cy="72" r="72" fill="#FF4F12"/>
<path d="M94.7047 115.044L69.7598 129.424L41 112.989V111.522C41 109.761 42.174 108 43.6413 107.413L65.6515 98.6094L91.4766 109.761C93.2374 110.348 94.1179 112.109 94.1179 113.87V115.044H94.7047Z" fill="#F6F6F6" stroke="#575D68" stroke-width="0.4" stroke-miterlimit="10"/>
<path d="M92.0636 112.11L70.6402 124.435C70.0533 124.729 69.4664 124.729 68.8795 124.435L43.6412 109.762C42.4673 109.175 42.4673 107.414 43.6412 106.827L65.0642 94.5014C65.6512 94.2079 66.238 94.2079 66.825 94.5014L92.0636 109.175C93.2375 109.762 93.2375 111.523 92.0636 112.11Z" fill="#F6F6F6" stroke="#575D68" stroke-width="0.4" stroke-miterlimit="10"/>
<path d="M74.7481 109.174C74.4547 108.293 74.161 106.532 74.161 105.946C74.161 104.478 71.5197 103.598 68.2916 103.598C65.0634 103.598 62.4222 104.772 62.4222 105.946C62.4222 106.239 61.8354 108 61.8354 109.174C61.8354 109.467 61.542 109.467 61.542 109.76C61.542 111.228 64.4765 112.695 68.2916 112.695C72.1067 112.695 75.0415 111.521 75.0415 109.76C74.7481 109.467 74.7481 109.467 74.7481 109.174Z" fill="#F6F6F6" stroke="#575D68" stroke-width="0.4" stroke-miterlimit="10"/>
<path d="M69.1735 107.119H67.4128C65.9454 107.119 64.7715 105.945 64.7715 104.478V86.8698C64.7715 85.4025 65.9454 84.2285 67.4128 84.2285H69.1735C70.6409 84.2285 71.8148 85.4025 71.8148 86.8698V104.478C71.5214 105.945 70.3474 107.119 69.1735 107.119Z" fill="#F6F6F6" stroke="#575D68" stroke-width="0.4" stroke-miterlimit="10"/>
<path d="M83.5527 105.652L58.3144 85.6967C55.3797 83.9359 53.0318 79.2404 53.0318 75.4253L49.8037 20.2529C49.8037 16.4378 55.3797 13.7966 58.3144 15.5574L85.9003 31.4049C88.835 33.1657 91.1829 37.8612 91.1829 41.6763V97.4355C91.4763 103.598 86.4874 107.413 83.5527 105.652Z" fill="#F6F6F6" stroke="#575D68" stroke-width="0.4" stroke-miterlimit="10"/>
<path d="M82.0846 105.064L54.4984 89.2162C51.5637 87.4554 49.2158 82.7599 49.2158 78.9448V23.1855C49.2158 19.3704 51.5637 17.3161 54.4984 19.0769L82.0846 34.9243C85.0193 36.6851 87.3669 41.3807 87.3669 45.1958V100.955C87.6603 105.064 85.0193 106.824 82.0846 105.064Z" fill="#F6F6F6" stroke="#575D68" stroke-width="0.4" stroke-miterlimit="10"/>
<path d="M80.6167 101.837L55.9652 87.7504C53.0305 85.9896 50.6826 81.2941 50.6826 77.479V26.709C50.6826 22.8939 53.0305 20.8395 55.9652 22.6003L80.6167 36.6867C83.5514 38.4475 85.899 43.143 85.899 46.9581V97.7285C86.1924 101.544 83.8449 103.304 80.6167 101.837Z" fill="#F6F6F6" stroke="#575D68" stroke-width="0.4" stroke-miterlimit="10"/>
<path d="M80.6167 36.6881L55.9652 22.6018C53.0305 20.8409 50.6826 22.6018 50.6826 26.7104V58.4049L62.7152 65.4483C63.0086 61.6332 65.6498 59.8725 68.878 61.9268C71.8126 63.6876 73.8667 68.0893 74.1602 71.9044L86.1927 78.9478V47.2533C86.1927 43.1447 83.5514 38.4489 80.6167 36.6881Z" fill="#DDDEDF" stroke="#575D68" stroke-width="0.4" stroke-miterlimit="10"/>
<path d="M73.3449 61.0119C77.0727 59.4239 77.7776 52.6971 74.9192 45.987C72.0609 39.2769 66.7218 35.1247 62.9939 36.7126C59.2661 38.3006 58.5613 45.0275 61.4196 51.7375C64.278 58.4476 69.6171 62.5999 73.3449 61.0119Z" fill="#F6F6F6" stroke="#575D68" stroke-width="0.4" stroke-miterlimit="10"/>
<path d="M70.0986 59.0955C73.2299 57.7616 73.8632 52.2079 71.513 46.6908C69.1628 41.1736 64.7191 37.7822 61.5877 39.1161C58.4564 40.4499 57.8233 46.004 60.1735 51.5212C62.5236 57.0383 66.9672 60.4294 70.0986 59.0955Z" fill="#F6F6F6" stroke="#575D68" stroke-width="0.4" stroke-miterlimit="10"/>
<path d="M69.179 56.9348C71.5648 55.9185 72.0055 51.589 70.1634 47.2648C68.3214 42.9405 64.8941 40.2588 62.5083 41.2751C60.1225 42.2914 59.6818 46.6208 61.5238 50.9451C63.3659 55.2693 66.7932 57.9511 69.179 56.9348Z" fill="#575D68" stroke="#F6F6F6" stroke-width="0.4" stroke-miterlimit="10"/>
<path d="M69.5418 75.0327C71.3312 74.2705 71.6487 70.9931 70.2513 67.7126C68.8539 64.4321 66.2707 62.3908 64.4813 63.153C62.692 63.9152 62.374 67.1924 63.7714 70.4729C65.1688 73.7534 67.7525 75.7949 69.5418 75.0327Z" fill="#F6F6F6" stroke="#575D68" stroke-width="0.4" stroke-miterlimit="10"/>
<path d="M69.3108 74.4915C70.9511 73.7928 71.2508 70.8088 69.9805 67.8266C68.7101 64.8443 66.3506 62.9931 64.7104 63.6918C63.0702 64.3905 62.7701 67.3746 64.0404 70.3569C65.3108 73.3391 67.6706 75.1902 69.3108 74.4915Z" fill="#575D68" stroke="#F6F6F6" stroke-width="0.4" stroke-miterlimit="10"/>
<path d="M71.8131 107.999C70.9327 108.292 69.4651 108.586 68.2913 108.586C65.0631 108.586 62.4219 107.706 62.4219 106.238" stroke="#575D68" stroke-width="0.4" stroke-miterlimit="10"/>
</svg>
