<svg width="84" height="286" viewBox="0 0 84 286" fill="none" xmlns="http://www.w3.org/2000/svg">
<path d="M44.7818 281.523L38.9471 285.024L26.3229 243.65C21.9734 234.739 21.3369 221.054 21.3369 221.054L26.8533 217.765C26.8533 217.765 27.1716 217.553 27.3838 217.447C32.582 214.583 40.1141 221.054 43.6149 232.193L44.3575 234.739L45.1001 233.148C45.4183 232.405 42.9784 232.617 42.9784 232.617L48.6009 229.223C48.6009 229.223 49.2374 229.011 49.4496 228.904C53.7991 227.738 59.6338 232.193 63.2407 240.68C67.1659 249.909 66.9537 260.412 62.7103 264.443L44.7818 281.523Z" fill="#EEEEEF" stroke="#575D68" stroke-width="0.5" stroke-miterlimit="10"/>
<path d="M38.8415 285.024L20.3826 247.151C16.0331 238.24 15.7148 227.419 19.5339 222.645C24.5199 216.386 33.7494 223.07 37.6745 235.694L38.4172 238.24L39.1597 236.649C42.9788 228.374 52.2083 232.193 57.3004 244.181C61.2256 253.41 61.0134 263.913 56.77 267.944L38.8415 285.024Z" fill="#F6F6F6" stroke="#575D68" stroke-width="0.5" stroke-miterlimit="10"/>
<path d="M19.1118 43.2544L15.2927 45.5883L7.12411 18.5365C4.2598 12.7018 3.83545 3.79057 3.83545 3.79057L7.44235 1.66885C7.44235 1.66885 7.65451 1.45668 7.7606 1.45668C11.1553 -0.452858 16.1414 3.79057 18.3692 11.1105L18.8996 12.8078L19.324 11.747C19.5361 11.2166 17.9448 11.4287 17.9448 11.4287L21.6578 9.20094C21.6578 9.20094 22.0822 8.98876 22.1883 8.98876C25.0526 8.24616 28.7656 11.1105 31.2055 16.733C33.7516 22.7799 33.6455 29.5694 30.8873 32.2215L19.1118 43.2544Z" fill="#EEEEEF" stroke="#575D68" stroke-width="0.5" stroke-miterlimit="10"/>
<path d="M15.2913 45.5882L3.30365 20.8703C0.439341 15.0356 0.22717 8.03392 2.77323 4.85136C6.06188 0.820102 12.1087 5.16961 14.6548 13.3382L15.1852 15.0356L15.6096 13.9747C18.0496 8.56436 24.0964 11.1104 27.4912 18.9607C30.0372 25.0076 29.9311 31.7971 27.1729 34.4492L15.2913 45.5882Z" fill="#F6F6F6" stroke="#575D68" stroke-width="0.5" stroke-miterlimit="10"/>
<path d="M65.7921 198.709L61.0182 201.574L50.834 168.157C47.3332 160.943 46.8027 149.91 46.8027 149.91L51.2583 147.258C51.2583 147.258 51.5766 147.046 51.6827 146.94C55.82 144.606 61.973 149.91 64.7312 158.821L65.3677 160.837L66.0042 159.564C66.3225 158.927 64.3069 159.139 64.3069 159.139L68.8686 156.381C68.8686 156.381 69.399 156.169 69.5051 156.063C73.0059 155.108 77.6737 158.715 80.6441 165.611C83.8267 173.037 83.6145 181.524 80.2197 184.706L65.7921 198.709Z" fill="#EEEEEF" stroke="#575D68" stroke-width="0.5" stroke-miterlimit="10"/>
<path d="M61.0178 201.468L46.1658 170.915C42.665 163.701 42.3467 155.002 45.4232 151.077C49.4545 146.091 56.8805 151.395 60.063 161.579L60.6995 163.595L61.3361 162.322C64.4126 155.639 71.8385 158.715 75.9759 168.475C79.1584 175.901 78.9463 184.388 75.5515 187.57L61.0178 201.468Z" fill="#F6F6F6" stroke="#575D68" stroke-width="0.5" stroke-miterlimit="10"/>
<path d="M34.3882 137.14L28.2353 140.853L14.9746 97.4642C10.4129 88.1286 9.77637 73.701 9.77637 73.701L15.6111 70.3062C15.6111 70.3062 16.0354 70.0941 16.2476 69.988C21.6579 67.0176 29.6144 73.8071 33.2213 85.4765L34.07 88.1286L34.8126 86.4312C35.1308 85.5826 32.5848 85.9008 32.5848 85.9008L38.5256 82.4C38.5256 82.4 39.1621 82.0817 39.3743 82.0817C43.9359 80.8087 49.9828 85.4765 53.908 94.4938C58.0453 104.254 57.8331 115.18 53.3775 119.424L34.3882 137.14Z" fill="#EEEEEF" stroke="#575D68" stroke-width="0.5" stroke-miterlimit="10"/>
<path d="M28.2343 140.747L8.82056 100.965C4.25888 91.6296 3.83454 80.2784 7.8658 75.1863C13.064 68.609 22.8239 75.6107 26.9612 88.8714L27.8099 91.5235L28.5525 89.8261C32.4777 81.1271 42.2375 85.1584 47.6479 97.7826C51.7853 107.542 51.5731 118.469 47.1175 122.713L28.2343 140.747Z" fill="#F6F6F6" stroke="#575D68" stroke-width="0.5" stroke-miterlimit="10"/>
</svg>
