<svg width="527" height="906" viewBox="0 0 527 906" fill="none" xmlns="http://www.w3.org/2000/svg">
<path fill-rule="evenodd" clip-rule="evenodd" d="M77.0728 782.061L61.865 809.36C61.865 809.36 57.1425 806.238 55.1415 804.797C51.2195 801.915 48.6582 796.711 48.6582 790.787C48.6582 781.74 54.6613 774.455 62.0251 774.455C63.6259 774.455 65.1467 774.775 66.5874 775.416C71.7901 777.657 77.0728 782.061 77.0728 782.061Z" fill="#F6F6F6" stroke="#333333" stroke-width="0.5"/>
<path fill-rule="evenodd" clip-rule="evenodd" d="M232.912 782.061C232.912 782.061 227.629 777.657 222.426 775.336C220.986 774.695 219.465 774.375 217.864 774.375C210.981 774.375 205.298 780.7 204.577 788.785L141.585 824.811L83.1549 791.107C81.5541 784.943 76.9918 780.459 71.3889 780.059C64.0251 779.579 57.5418 786.544 56.9815 795.51C56.4212 804.557 61.9441 812.242 69.3078 812.723C71.629 812.883 73.8702 812.242 75.8712 811.122L120.534 836.98L57.942 873.166L78.8327 885.255L141.425 849.069L204.177 885.415L225.068 873.166L162.396 836.98L214.903 805.838C217.144 809.761 220.746 812.482 224.988 812.723C232.352 813.203 238.835 806.238 239.395 797.272C239.875 790.787 237.154 785.023 232.912 782.061Z" fill="#F6F6F6" stroke="#333333" stroke-width="0.5"/>
<path fill-rule="evenodd" clip-rule="evenodd" d="M229.871 868.603L214.663 895.903C214.663 895.903 209.94 892.781 207.939 891.34C204.017 888.457 201.456 883.254 201.456 877.329C201.456 868.283 207.459 860.998 214.823 860.998C216.424 860.998 217.945 861.318 219.385 861.958C224.588 864.2 229.871 868.603 229.871 868.603Z" fill="#F6F6F6" stroke="#333333" stroke-width="0.5"/>
<path d="M236.427 883.826C237.006 874.826 231.504 867.144 224.137 866.67C216.77 866.196 210.329 873.108 209.75 882.109C209.171 891.11 214.673 898.791 222.04 899.265C229.407 899.74 235.848 892.827 236.427 883.826Z" fill="#F6F6F6" stroke="#333333" stroke-width="0.5"/>
<path fill-rule="evenodd" clip-rule="evenodd" d="M215.143 804.557C214.263 802.155 213.863 799.513 214.023 796.711C214.583 787.665 221.066 780.78 228.43 781.26" fill="#F6F6F6"/>
<path d="M215.143 804.557C214.263 802.155 213.863 799.513 214.023 796.711C214.583 787.665 221.066 780.78 228.43 781.26" stroke="#333333" stroke-width="0.5"/>
<path fill-rule="evenodd" clip-rule="evenodd" d="M76.0318 873.887L60.824 901.186C60.824 901.186 56.1016 898.064 54.1005 896.623C50.1785 893.741 47.6172 888.537 47.6172 882.613C47.6172 873.567 53.6203 866.281 60.9841 866.281C62.5849 866.281 64.1057 866.602 65.5464 867.242C70.7491 869.484 76.0318 873.887 76.0318 873.887Z" fill="#F6F6F6" stroke="#333333" stroke-width="0.5"/>
<path d="M82.5943 889.041C83.1734 880.04 77.6709 872.359 70.3041 871.885C62.9373 871.411 56.4959 878.323 55.9168 887.324C55.3376 896.324 60.8401 904.005 68.2069 904.48C75.5737 904.954 82.0152 898.042 82.5943 889.041Z" fill="#F6F6F6" stroke="#333333" stroke-width="0.5"/>
<path fill-rule="evenodd" clip-rule="evenodd" d="M76.1118 810.641C73.3904 808.64 73.1503 801.995 73.7106 799.833C75.3114 793.749 79.6336 791.908 82.9153 791.347" fill="#F6F6F6"/>
<path d="M76.1118 810.641C73.3904 808.64 73.1503 801.995 73.7106 799.833C75.3114 793.749 79.6336 791.908 82.9153 791.347" stroke="#333333" stroke-width="0.5"/>
<path d="M259.405 710.569L267.649 671.26L308.47 664.936L314.233 701.762L313.673 720.416L268.69 729.862L259.405 710.569Z" stroke="#333333" stroke-width="0.5" stroke-miterlimit="10"/>
<path d="M259.406 703.684L250.602 730.663C250.602 730.663 254.764 741.791 268.211 747.876C278.296 752.359 300.707 754.36 312.393 745.954C315.355 743.873 317.836 741.871 320.157 739.95C327.841 733.545 336.966 729.142 346.811 727.221C352.814 726.1 358.977 724.419 363.059 723.618C383.07 719.935 390.193 715.052 398.437 704.084C402.439 698.72 404.921 690.554 404.521 683.109C404.441 681.668 403.16 665.896 394.756 660.372C381.309 651.486 364.98 651.006 357.136 653.327C349.292 655.649 318.556 671.5 318.556 671.5L314.394 694.797C313.034 700.561 308.711 705.925 302.628 709.688C292.143 716.093 278.936 715.772 268.451 709.288L259.406 703.684Z" fill="#F6F6F6" stroke="#575D68" stroke-width="0.5" stroke-miterlimit="10"/>
<path d="M378.426 653.487C378.426 653.487 359.857 665.576 371.383 668.778C382.989 672.061 391.393 665.976 395.635 668.378C396.676 669.019 397.716 670.299 398.757 671.821C403.479 679.186 402.759 688.793 397.316 695.598C392.033 702.002 383.709 709.768 370.982 714.411C361.458 718.014 362.578 713.05 355.134 704.164C347.931 695.598 330.482 722.737 321.197 729.222C311.832 735.707 303.028 742.752 286.779 743.552C270.531 744.353 252.922 723.698 252.922 723.698" fill="#F6F6F6"/>
<path d="M378.426 653.487C378.426 653.487 359.857 665.576 371.383 668.778C382.989 672.061 391.393 665.976 395.635 668.378C396.676 669.019 397.716 670.299 398.757 671.821C403.479 679.186 402.759 688.793 397.316 695.598C392.033 702.002 383.709 709.768 370.982 714.411C361.458 718.014 362.578 713.05 355.134 704.164C347.931 695.598 330.482 722.737 321.197 729.222C311.832 735.707 303.028 742.752 286.779 743.552C270.531 744.353 252.922 723.698 252.922 723.698" stroke="#575D68" stroke-width="0.5" stroke-miterlimit="10"/>
<path d="M124.376 836.5L124.296 836.019V716.733C124.296 707.767 131.9 700.321 141.265 700.321H142.945C152.15 700.321 159.594 707.286 159.914 716.093H159.754V716.733V836.019L159.674 836.58C159.354 838.741 157.433 840.823 154.231 842.344C151.03 843.865 146.787 844.826 142.065 844.826C137.343 844.826 133.1 843.865 129.979 842.344C126.697 840.663 124.776 838.661 124.376 836.5Z" fill="#F6F6F6" stroke="#333333" stroke-width="0.5"/>
<path d="M381.148 765.328L389.393 726.02L430.214 719.695L435.977 756.522L435.416 775.175L390.433 784.622L381.148 765.328Z" fill="#F6F6F6" stroke="#575D68" stroke-width="0.5" stroke-miterlimit="10"/>
<path d="M381.148 765.328L372.344 792.308C372.344 792.308 376.506 803.436 389.953 809.52C400.038 814.003 422.449 816.005 434.135 807.599C437.097 805.517 439.578 803.516 441.899 801.595C449.583 795.19 458.708 790.787 468.553 788.865C474.556 787.744 480.719 786.063 484.801 785.263C504.812 781.58 511.935 776.696 520.18 765.729C524.182 760.365 526.663 752.199 526.263 744.753C526.183 743.312 524.902 727.541 516.498 722.017C503.051 713.131 486.722 712.65 478.878 714.972C471.034 717.294 440.299 733.145 440.299 733.145L436.137 756.442C434.776 762.206 430.454 767.57 424.37 771.333C413.885 777.737 400.678 777.417 390.193 770.932L381.148 765.328Z" fill="#F6F6F6" stroke="#575D68" stroke-width="0.5" stroke-miterlimit="10"/>
<path d="M500.169 715.052C500.169 715.052 481.6 727.14 493.126 730.343C504.732 733.625 513.136 727.541 517.378 729.943C518.419 730.583 519.459 731.864 520.5 733.385C525.222 740.75 524.502 750.357 519.059 757.162C513.776 763.567 505.452 771.332 492.726 775.976C483.201 779.578 484.321 774.615 476.877 765.728C469.674 757.162 452.225 784.302 442.86 790.787C433.495 797.271 424.691 804.316 408.442 805.117C392.194 805.917 374.505 785.102 374.505 785.102" stroke="#575D68" stroke-width="0.5" stroke-miterlimit="10"/>
<path d="M317.275 495.373L255.003 547.971L245.158 703.123C255.564 728.822 325.68 727.861 342.488 689.834C342.488 689.834 326.16 611.617 325.519 558.218L317.275 495.373Z" fill="#F6F6F6" stroke="#333333" stroke-width="0.5" stroke-miterlimit="10"/>
<path d="M317.275 495.373L255.003 547.971L245.158 703.123C255.564 728.822 325.68 727.861 342.488 689.834C342.488 689.834 326.16 611.617 325.519 558.218L317.275 495.373Z" fill="#EAEAEA"/>
<path d="M58.7427 712.65C77.6324 726.58 99.0834 736.747 121.735 741.951C139.344 745.954 155.993 746.675 174.482 744.993C225.228 737.948 256.204 716.973 256.924 701.922L256.124 683.669C256.124 683.669 250.681 677.985 238.835 670.46L155.272 616.821L23.2045 647.643C23.2045 647.643 21.4436 663.174 24.0049 672.301C28.5672 687.352 44.3353 701.922 58.7427 712.65Z" fill="#F6F6F6" stroke="#333333" stroke-width="0.5" stroke-miterlimit="10"/>
<path d="M50.6583 686.231C75.391 706.486 105.086 720.095 136.222 725.059C190.73 733.625 236.514 708.087 236.514 708.087C262.847 692.636 263.568 665.096 239.795 649.885L155.992 596.246C155.992 596.246 35.0503 586.799 23.8445 643.56C21.0431 657.65 35.2104 673.502 50.6583 686.231Z" fill="#F6F6F6" stroke="#333333" stroke-width="0.5" stroke-miterlimit="10"/>
<path d="M317.275 495.373L284.378 478.881L215.623 492.571L11.1982 562.622L13.9997 596.807C16.8011 633.953 26.9663 644.041 45.696 658.371C59.463 668.939 75.1511 680.467 87.3173 687.432C163.677 730.743 243.397 700.001 243.397 700.001L370.423 638.677C370.423 638.677 365.38 730.103 364.34 752.199C364.34 752.199 383.229 767.97 413.485 765.809C453.425 763.087 462.63 740.751 462.63 740.751C462.63 740.751 444.541 615.06 437.017 564.703L378.987 530.198L231.311 572.149L224.668 565.664C224.668 565.664 253.643 565.664 280.536 548.532" fill="#F6F6F6"/>
<path d="M317.275 495.373L284.378 478.881L215.623 492.571L11.1982 562.622L13.9997 596.807C16.8011 633.953 26.9663 644.041 45.696 658.371C59.463 668.939 75.1511 680.467 87.3173 687.432C163.677 730.743 243.397 700.001 243.397 700.001L370.423 638.677C370.423 638.677 365.38 730.103 364.34 752.199C364.34 752.199 383.229 767.97 413.485 765.809C453.425 763.087 462.63 740.751 462.63 740.751C462.63 740.751 444.541 615.06 437.017 564.703L378.987 530.198L231.311 572.149L224.668 565.664C224.668 565.664 253.643 565.664 280.536 548.532" fill="#EAEAEA"/>
<path d="M317.275 495.373L284.378 478.881L215.623 492.571L11.1982 562.622L13.9997 596.807C16.8011 633.953 26.9663 644.041 45.696 658.371C59.463 668.939 75.1511 680.467 87.3173 687.432C163.677 730.743 243.397 700.001 243.397 700.001L370.423 638.677C370.423 638.677 365.38 730.103 364.34 752.199C364.34 752.199 383.229 767.97 413.485 765.809C453.425 763.087 462.63 740.751 462.63 740.751C462.63 740.751 444.541 615.06 437.017 564.703L378.987 530.198L231.311 572.149L224.668 565.664C224.668 565.664 253.643 565.664 280.536 548.532" stroke="#333333" stroke-width="0.5" stroke-miterlimit="10"/>
<path d="M370.343 638.677C370.343 638.677 397.317 628.029 408.122 609.136" stroke="#333333" stroke-width="0.5" stroke-miterlimit="10"/>
<path d="M370.983 639.638C383.87 642.6 400.198 635.635 410.844 625.708" stroke="#333333" stroke-width="0.5" stroke-miterlimit="10"/>
<path d="M210.101 653.087C215.623 656.69 221.707 658.451 224.988 658.531C232.192 658.852 239.876 657.411 245.239 652.527C252.762 645.482 253.323 633.954 253.323 623.706C253.323 618.663 253.003 617.702 252.922 612.658L237.395 605.053" stroke="#333333" stroke-width="0.5" stroke-miterlimit="10"/>
<path d="M257.725 614.019C257.725 617.381 257.645 620.744 257.645 624.106C257.565 630.911 257.405 637.876 255.564 644.361C253.563 650.846 249.561 657.09 243.478 660.132" stroke="#333333" stroke-width="0.5" stroke-miterlimit="10"/>
<path d="M257.564 614.339C317.995 610.897 385.23 580.475 419.087 561.421" stroke="#333333" stroke-width="0.5" stroke-miterlimit="10"/>
<path d="M428.132 565.984C437.257 591.363 450.143 695.678 449.503 735.467" stroke="#333333" stroke-width="0.5" stroke-miterlimit="10"/>
<path d="M430.054 591.763C430.294 593.284 430.614 594.805 430.854 596.326" stroke="#333333" stroke-width="0.5" stroke-miterlimit="10"/>
<path d="M432.295 604.972C438.298 642.519 443.741 692.876 444.381 722.417" stroke="#333333" stroke-width="0.5" stroke-miterlimit="10" stroke-dasharray="10.93 10.93"/>
<path d="M444.461 726.82C444.461 728.421 444.461 730.023 444.461 731.464" stroke="#333333" stroke-width="0.5" stroke-miterlimit="10"/>
<path d="M263.647 619.623C263.647 619.623 327.36 614.099 374.504 591.763C402.679 578.473 419.808 571.028 419.808 571.028" stroke="#333333" stroke-width="0.5" stroke-miterlimit="10" stroke-dasharray="11.66 11.66"/>
<path d="M255.724 111.416L258.845 120.703L264.048 131.671C265.168 133.992 264.368 136.954 262.207 138.476L249.32 147.522" fill="#F6F6F6"/>
<path d="M255.724 111.416L258.845 120.703L264.048 131.671C265.168 133.992 264.368 136.954 262.207 138.476L249.32 147.522" stroke="#575D68" stroke-width="0.5" stroke-miterlimit="10"/>
<path d="M255.724 111.416L258.845 120.703L264.048 131.671C265.168 133.992 264.368 136.954 262.207 138.476L249.32 147.522" fill="#F6F6F6"/>
<path d="M255.724 111.416L258.845 120.703L264.048 131.671C265.168 133.992 264.368 136.954 262.207 138.476L249.32 147.522" stroke="#575D68" stroke-width="0.5" stroke-miterlimit="10"/>
<path d="M257.005 112.457C258.766 106.452 260.367 100.048 260.207 97.5661L254.844 55.7759L225.309 58.0175L128.139 100.848L157.114 195.797L125.337 190.433C125.337 190.433 120.375 211.969 117.173 218.373C114.212 224.378 101.245 239.589 101.245 239.589C101.245 239.589 124.697 264.647 146.869 266.328C158.795 267.209 171.761 268.57 187.209 263.766C194.493 261.525 210.261 260.884 209.941 253.038C205.459 242.311 204.018 230.542 205.859 219.094C206.179 217.012 206.419 215.651 206.419 215.651L230.351 209.967C238.035 207.085 250.842 196.277 248.441 186.03C247.56 182.107 247.32 178.024 247.96 174.021L258.766 144.4C259.726 141.758 259.006 138.396 257.805 135.113C255.004 127.908 254.844 119.982 257.005 112.457Z" fill="#F6F6F6" stroke="#575D68" stroke-width="0.5" stroke-miterlimit="10"/>
<path d="M122.376 196.838C122.616 203.162 140.945 204.523 151.11 204.363C164.397 204.283 177.204 199.159 186.649 189.713C191.291 185.069 194.733 179.785 195.693 173.861C196.654 168.097 198.575 150.965 200.015 145.2C201.616 139.436 203.697 130.23 208.98 132.952C218.825 125.186 214.583 145.12 222.507 148.163C223.307 148.483 224.748 147.762 226.349 146.561C231.472 142.879 233.633 136.314 231.712 130.31C229.31 122.544 227.71 114.939 228.35 106.452L228.83 99.5675C228.83 99.5675 235.073 95.6446 244.518 88.0391C262.207 73.7888 263.248 46.8093 246.119 31.9186C245.719 31.5183 245.239 31.1981 244.838 30.8778C219.305 10.383 180.485 -1.86583 161.996 1.57666C150.71 3.65817 138.944 7.98129 132.221 17.3481C130.78 19.4296 129.499 21.6712 127.258 22.792C125.337 23.7527 123.096 22.9521 120.935 23.5125C63.9456 39.6041 90.2791 136.394 110.69 165.455C114.371 170.659 121.735 179.305 122.376 196.838Z" fill="#F6F6F6" stroke="#575D68" stroke-width="0.5" stroke-miterlimit="10"/>
<path d="M122.376 196.838C122.616 203.162 140.945 204.523 151.11 204.363C164.397 204.283 177.204 199.159 186.649 189.713C191.291 185.069 194.733 179.785 195.693 173.861C196.654 168.097 198.575 150.965 200.015 145.2C201.616 139.436 203.697 130.23 208.98 132.952C218.825 125.186 214.583 145.12 222.507 148.163C223.307 148.483 224.748 147.762 226.349 146.561C231.472 142.879 233.633 136.314 231.712 130.31C229.31 122.544 227.71 114.939 228.35 106.452L228.83 99.5675C228.83 99.5675 235.073 95.6446 244.518 88.0391C262.207 73.7888 263.248 46.8093 246.119 31.9186C245.719 31.5183 245.239 31.1981 244.838 30.8778C219.305 10.383 180.485 -1.86583 161.996 1.57666C150.71 3.65817 138.944 7.98129 132.221 17.3481C130.78 19.4296 129.499 21.6712 127.258 22.792C125.337 23.7527 123.096 22.9521 120.935 23.5125C63.9456 39.6041 90.2791 136.394 110.69 165.455C114.371 170.659 121.735 179.305 122.376 196.838Z" fill="#EAEAEA"/>
<path d="M221.867 159.771L219.545 163.934C217.544 167.457 212.982 168.898 209.54 166.736C209.38 166.656 209.22 166.496 209.06 166.416L202.177 161.372C201.136 160.572 200.176 159.611 199.455 158.49C194.653 149.684 193.052 142.319 198.575 133.832C199.135 132.952 201.136 130.95 201.776 130.47C216.104 119.342 219.706 143.599 219.706 143.599" fill="#F6F6F6"/>
<path d="M221.867 159.771L219.545 163.934C217.544 167.457 212.982 168.898 209.54 166.736C209.38 166.656 209.22 166.496 209.06 166.416L202.177 161.372C201.136 160.572 200.176 159.611 199.455 158.49C194.653 149.684 193.052 142.319 198.575 133.832C199.135 132.952 201.136 130.95 201.776 130.47C216.104 119.342 219.706 143.599 219.706 143.599" stroke="#575D68" stroke-width="0.5" stroke-miterlimit="10"/>
<path d="M120.694 174.261C123.976 181.546 127.338 189.472 125.497 197.158" stroke="#575D68" stroke-width="0.5" stroke-miterlimit="10"/>
<path d="M94.0409 65.543C90.7593 81.7147 91.5597 99.2473 96.2821 114.538" stroke="#575D68" stroke-width="0.5" stroke-miterlimit="10"/>
<path d="M210.821 135.193C210.821 135.193 208.42 132.231 204.578 138.315C200.816 144.4 205.618 154.567 207.059 156.729C208.5 158.89 211.221 161.532 213.622 161.292" fill="#F6F6F6"/>
<path d="M210.821 135.193C210.821 135.193 208.42 132.231 204.578 138.315C200.816 144.4 205.618 154.567 207.059 156.729C208.5 158.89 211.221 161.532 213.622 161.292" stroke="#575D68" stroke-width="0.5" stroke-miterlimit="10"/>
<path d="M128.379 179.545C130.14 185.069 130.78 190.914 130.06 196.678" stroke="#575D68" stroke-width="0.5" stroke-miterlimit="10"/>
<path d="M180.165 190.593C185.608 186.911 189.29 181.066 191.291 174.902C193.292 168.657 193.772 162.013 193.772 155.528" stroke="#575D68" stroke-width="0.5" stroke-miterlimit="10"/>
<path d="M324.159 254.559L315.355 247.834L290.382 249.596L298.226 258.322L314.474 255.36C314.474 255.36 320.317 260.804 323.679 261.684C327.041 262.485 330.002 262.085 330.002 262.085L324.159 254.559Z" fill="#F6F6F6" stroke="#575D68" stroke-width="0.5" stroke-miterlimit="10"/>
<path d="M222.507 274.654L271.652 260.083C271.652 260.083 288.781 249.276 290.462 249.676C292.143 250.076 315.114 257.201 315.114 257.201L334.724 270.091C334.724 270.091 330.963 274.734 327.201 274.734C323.439 274.734 313.914 267.609 313.914 267.609L303.508 266.808L296.385 276.735C296.385 276.735 287.58 286.663 286.46 287.143C285.179 287.543 249.321 307.558 249.321 307.558" fill="#F6F6F6"/>
<path d="M222.507 274.654L271.652 260.083C271.652 260.083 288.781 249.276 290.462 249.676C292.143 250.076 315.114 257.201 315.114 257.201L334.724 270.091C334.724 270.091 330.963 274.734 327.201 274.734C323.439 274.734 313.914 267.609 313.914 267.609L303.508 266.808L296.385 276.735C296.385 276.735 287.58 286.663 286.46 287.143C285.179 287.543 249.321 307.558 249.321 307.558" stroke="#575D68" stroke-width="0.5" stroke-miterlimit="10"/>
<path d="M271.652 292.106L300.387 290.425L319.997 290.025L328.402 285.862C328.402 285.862 322.959 281.219 318.877 281.219C314.795 281.219 307.671 282.9 307.671 282.9L297.746 276.575L287.34 272.812" fill="#F6F6F6"/>
<path d="M271.652 292.106L300.387 290.425L319.997 290.025L328.402 285.862C328.402 285.862 322.959 281.219 318.877 281.219C314.795 281.219 307.671 282.9 307.671 282.9L297.746 276.575L287.34 272.812" stroke="#575D68" stroke-width="0.5" stroke-miterlimit="10"/>
<path d="M441.739 285.542C446.061 292.266 450.543 304.195 450.543 304.195L443.82 331.815L434.295 327.972L443.099 301.953L441.499 297.55C440.298 293.627 440.298 289.384 441.739 285.542Z" fill="#F6F6F6" stroke="#575D68" stroke-width="0.5" stroke-miterlimit="10"/>
<path d="M407.242 358.154C406.602 355.672 400.358 332.455 400.358 332.455L413.805 301.233L411.564 285.622L420.369 283.7L430.294 286.182L436.617 292.507L443.5 304.996V331.335L431.014 368.802L405.321 371.283L407.242 358.154Z" fill="#F6F6F6" stroke="#575D68" stroke-width="0.5" stroke-miterlimit="10"/>
<path d="M402.839 339.981L389.072 321.168L382.429 301.794L384.91 296.75C388.912 298.351 392.034 301.553 393.474 305.556L397.316 311.721L408.522 316.124" fill="#F6F6F6"/>
<path d="M402.839 339.981L389.072 321.168L382.429 301.794L384.91 296.75C388.912 298.351 392.034 301.553 393.474 305.556L397.316 311.721L408.522 316.124" stroke="#575D68" stroke-width="0.5" stroke-miterlimit="10"/>
<path d="M402.839 339.981L389.072 321.168L382.429 301.794L384.91 296.75C388.912 298.351 392.034 301.553 393.474 305.556L397.316 311.721L408.522 316.124" fill="#F6F6F6"/>
<path d="M402.839 339.981L389.072 321.168L382.429 301.794L384.91 296.75C388.912 298.351 392.034 301.553 393.474 305.556L397.316 311.721L408.522 316.124" stroke="#575D68" stroke-width="0.5" stroke-miterlimit="10"/>
<path d="M412.604 289.224C412.604 289.224 402.358 284.821 398.517 282.9C394.755 280.978 394.114 278.497 394.114 278.497C394.114 278.497 416.045 278.817 417.006 279.778C417.966 280.738 430.453 286.102 430.453 286.102L435.495 298.271L434.215 308.518" fill="#F6F6F6"/>
<path d="M412.604 289.224C412.604 289.224 402.358 284.821 398.517 282.9C394.755 280.978 394.114 278.497 394.114 278.497C394.114 278.497 416.045 278.817 417.006 279.778C417.966 280.738 430.453 286.102 430.453 286.102L435.495 298.271L434.215 308.518" stroke="#575D68" stroke-width="0.5" stroke-miterlimit="10"/>
<path d="M412.604 289.224C412.604 289.224 402.358 284.821 398.517 282.9C394.755 280.978 394.114 278.497 394.114 278.497C394.114 278.497 416.045 278.817 417.006 279.778C417.966 280.738 430.453 286.102 430.453 286.102L435.495 298.271L434.215 308.518" fill="#F6F6F6"/>
<path d="M412.604 289.224C412.604 289.224 402.358 284.821 398.517 282.9C394.755 280.978 394.114 278.497 394.114 278.497C394.114 278.497 416.045 278.817 417.006 279.778C417.966 280.738 430.453 286.102 430.453 286.102L435.495 298.271L434.215 308.518" stroke="#575D68" stroke-width="0.5" stroke-miterlimit="10"/>
<path d="M416.927 279.857L425.651 287.063L429.013 298.831" fill="#F6F6F6"/>
<path d="M416.927 279.857L425.651 287.063L429.013 298.831" stroke="#575D68" stroke-width="0.5" stroke-miterlimit="10"/>
<path d="M416.927 279.857L425.651 287.063L429.013 298.831" fill="#F6F6F6"/>
<path d="M416.927 279.857L425.651 287.063L429.013 298.831" stroke="#575D68" stroke-width="0.5" stroke-miterlimit="10"/>
<path d="M68.5078 472.797L161.355 418.358L139.024 405.148L47.377 457.827L68.5078 472.797Z" stroke="#333333" stroke-width="0.5" stroke-miterlimit="10"/>
<path d="M27.7669 479.922L68.9881 457.907L68.2677 268.169L26.4062 286.583L27.1266 293.788L27.7669 479.922Z" stroke="#333333" stroke-width="0.5" stroke-miterlimit="10"/>
<path d="M8.71731 538.365C2.87431 558.299 7.75681 580.555 23.685 596.567C30.4084 603.292 37.9323 609.536 45.6162 613.139C114.612 645.882 148.149 647.724 201.776 630.831C231.872 621.305 251.082 585.519 250.922 584.798C236.754 492.492 250.361 434.53 250.361 434.53L296.225 404.508L296.945 334.938C297.265 307.158 280.377 281.539 253.883 269.37L234.513 260.484C223.468 255.6 223.468 257.282 220.186 246.154L193.852 237.747C112.691 243.111 118.214 214.291 118.214 214.291L117.973 214.371C110.77 216.132 104.046 219.574 98.6835 224.618C98.6835 224.618 59.7835 213.57 35.371 231.503C27.9272 236.947 13.5198 263.526 9.11751 284.261C4.79529 304.356 2.4741 330.695 1.03337 369.443C-0.00716881 396.582 27.9272 461.109 8.71731 538.365Z" fill="#F6F6F6" stroke="#333333" stroke-width="0.5" stroke-miterlimit="10"/>
<path d="M8.71726 538.365C2.87426 558.299 7.75676 580.555 23.6849 596.567C30.4084 603.292 37.9322 609.536 45.6162 613.139C114.612 645.882 148.149 647.724 201.776 630.831C231.872 621.305 251.082 585.519 250.922 584.798C236.754 492.492 250.361 434.53 250.361 434.53L296.225 404.508L296.945 334.938C297.265 307.158 280.377 281.539 253.883 269.37L234.513 260.484C223.467 255.6 223.467 257.282 220.186 246.154L193.852 237.747C112.691 243.111 118.213 214.291 118.213 214.291L117.973 214.371C110.77 216.132 104.046 219.574 98.6834 224.618C98.6834 224.618 59.7835 213.57 35.3709 231.503C27.9271 236.947 13.5197 263.526 9.11746 284.261C4.79524 304.356 2.47405 330.695 1.03331 369.443C-0.00721906 396.582 30.0882 472.797 8.71726 538.365Z" fill="url(#paint0_linear_350_31342)"/>
<path d="M229.311 419.719L246.92 461.349C342.969 506.422 343.929 505.781 366.341 508.663C377.387 510.104 386.911 508.663 394.996 505.541L395.316 505.781L396.436 505.061C403.16 502.259 408.843 498.336 413.565 493.933C413.565 493.933 429.093 473.598 437.657 427.405L445.822 370.724C445.822 362.237 437.337 351.029 425.171 346.306C419.168 342.863 408.282 344.385 397.077 349.108C397.077 349.108 378.907 408.591 371.784 421.24L283.098 299.232" fill="#F6F6F6"/>
<path opacity="0.27" d="M437.657 393.06C429.093 439.173 413.565 459.588 413.565 459.588C408.843 463.991 403.16 467.914 396.436 470.716L395.316 471.436L394.996 471.196C386.911 474.318 377.387 475.839 366.341 474.318C340.728 471.036 246.92 427.004 246.92 427.004L236.754 402.987L229.311 419.719L246.92 461.349C342.969 506.421 343.929 505.781 366.341 508.663C377.387 510.104 386.911 508.663 394.996 505.541L395.316 505.781L396.436 505.061C403.16 502.259 408.843 498.336 413.565 493.932C413.565 493.932 429.093 473.598 437.657 427.404L445.822 370.723C445.822 367.441 444.541 363.838 442.38 360.316L437.657 393.06Z" fill="#EAEAEA"/>
<path d="M99.2432 223.978C99.2432 223.978 109.729 246.634 128.058 256.481C151.83 269.21 194.892 258.482 194.892 258.482C200.175 261.765 216.103 262.325 216.103 262.325" fill="#F6F6F6"/>
<path d="M99.2432 223.978C99.2432 223.978 109.729 246.634 128.058 256.481C143.266 264.647 166.398 263.126 181.045 261.044C187.929 260.084 194.812 259.603 201.776 259.523C211.061 259.363 225.068 256.241 225.068 256.241" stroke="#333333" stroke-width="0.5" stroke-miterlimit="10"/>
<path d="M371.703 421.32C371.703 421.32 379.787 429.486 382.108 435.81C385.79 446.218 386.831 457.506 386.831 457.506" stroke="#333333" stroke-width="0.5" stroke-miterlimit="10"/>
<path d="M225.308 447.979C231.151 454.144 238.755 458.787 246.999 461.109" stroke="#575D68" stroke-width="0.5" stroke-miterlimit="10"/>
<path d="M380.428 432.768C388.192 436.611 393.715 444.697 394.515 453.423" stroke="#575D68" stroke-width="0.5" stroke-miterlimit="10"/>
<g opacity="0.27">
<path opacity="0.27" d="M214.583 607.454C160.955 624.347 146.227 622.826 77.152 590.082C69.4681 586.399 10.7179 566.465 33.9299 497.855C57.4619 428.205 66.6667 448.62 29.2875 363.438C13.5994 327.572 30.0879 263.926 34.3301 243.912C35.2906 239.269 36.8113 234.385 38.5722 229.501C37.4517 230.142 36.4111 230.862 35.3706 231.663C27.9268 237.107 13.5194 263.686 9.11713 284.421C4.79491 304.516 2.47372 330.855 1.03298 369.603C-0.0875941 396.502 27.8467 461.109 8.71692 538.365C3.67434 558.539 7.75643 580.555 23.6846 596.567C30.4081 603.291 37.9319 609.536 45.6159 613.139C114.611 645.882 148.148 647.724 201.776 630.831C231.871 621.305 251.081 585.519 250.921 584.798C250.521 582.236 250.201 579.754 249.801 577.273C243.317 582.877 223.147 604.733 214.583 607.454Z" fill="#EAEAEA"/>
</g>
<path d="M229.311 419.719L246.92 461.349C342.969 506.422 343.929 505.781 366.341 508.663C377.387 510.104 386.911 508.663 394.996 505.541L395.316 505.781L396.436 505.061C403.16 502.259 408.843 498.336 413.565 493.933C413.565 493.933 429.093 473.598 437.657 427.405L445.822 370.724C445.822 362.237 437.337 351.029 425.171 346.306C419.168 342.863 408.282 344.385 397.077 349.108C397.077 349.108 378.907 408.591 371.784 421.24L283.098 299.232" stroke="#333333" stroke-width="0.5" stroke-miterlimit="10"/>
<path d="M215.303 319.006C215.303 319.006 221.066 305.476 238.034 292.747C255.323 279.858 271.572 284.341 271.572 284.341" stroke="#333333" stroke-width="0.5" stroke-miterlimit="10"/>
<defs>
<linearGradient id="paint0_linear_350_31342" x1="199.462" y1="291.234" x2="25.2402" y2="641.159" gradientUnits="userSpaceOnUse">
<stop offset="0.0874315" stop-color="white" stop-opacity="0"/>
<stop offset="0.9044" stop-color="#EAEAEA"/>
</linearGradient>
</defs>
</svg>
