<svg width="30" height="24" viewBox="0 0 30 24" fill="none" xmlns="http://www.w3.org/2000/svg">
<path fill-rule="evenodd" clip-rule="evenodd" d="M29.3487 2.86755C28.2672 3.3448 27.1069 3.6688 25.8897 3.81329C27.1332 3.06896 28.0877 1.88678 28.5343 0.481301C27.3696 1.17309 26.0823 1.67223 24.7119 1.9437C23.6129 0.774656 22.0498 0.043457 20.3159 0.043457C16.9927 0.043457 14.2956 2.74057 14.2956 6.06381C14.2956 6.53668 14.3481 6.99641 14.4532 7.43426C9.44866 7.18468 5.01331 4.7853 2.04473 1.14244C1.52807 2.03127 1.23034 3.06458 1.23034 4.16794C1.23034 6.25646 2.2943 8.09978 3.90994 9.17687C2.92479 9.14622 1.99657 8.87476 1.18218 8.42378C1.18218 8.45005 1.18218 8.47194 1.18218 8.49822C1.18218 11.4143 3.25756 13.8487 6.01159 14.4003C5.50807 14.5361 4.9739 14.6105 4.4266 14.6105C4.03692 14.6105 3.66037 14.5711 3.29258 14.501C4.05881 16.8917 6.28305 18.6343 8.91449 18.6825C6.85225 20.2981 4.26022 21.2614 1.43613 21.2614C0.95012 21.2614 0.472871 21.2307 0 21.1782C2.66209 22.8858 5.8277 23.884 9.22974 23.884C20.3028 23.884 26.3582 14.7112 26.3582 6.7556C26.3582 6.49289 26.3538 6.23456 26.3407 5.97624C27.5185 5.12682 28.5386 4.06724 29.3443 2.85879L29.3487 2.86755Z" fill="#C4C4C4"/>
</svg>
